<svg width="283" height="320" viewBox="0 0 283 320" fill="none" xmlns="http://www.w3.org/2000/svg">
<g clip-path="url(#clip0_704_1499)">
<path d="M243.222 86.2262C245.607 90.7401 245.625 94.7923 243.282 98.383C241.936 100.443 240.071 101.974 237.677 102.974C235.283 103.974 232.549 104.316 229.474 104.008L223.911 103.435L223.417 103.726L220.589 109.163L209.907 104.205L209.541 102.726L214.516 93.0483L215.461 92.5354L223.034 94.117C225.956 94.6641 228.009 94.0229 229.193 92.202C230.07 90.8598 229.891 89.3038 228.656 87.5342C227.421 85.7645 224.704 83.2938 220.487 80.1136L220.325 78.1558L227.898 72.0347L229.542 72.1886C236.28 77.0273 240.846 81.7037 243.231 86.2091L243.222 86.2262ZM216.739 116.404C217.131 118.371 216.62 120.44 215.214 122.594C213.715 124.894 211.884 126.296 209.711 126.792C207.548 127.287 205.342 126.792 203.093 125.321C200.844 123.851 199.609 122.192 199.225 120.26C198.842 118.337 199.37 116.268 200.81 114.062C202.309 111.762 204.157 110.369 206.347 109.89C208.536 109.411 210.751 109.907 212.999 111.386C215.103 112.763 216.347 114.438 216.739 116.413V116.404Z" fill="#97C233"/>
<path d="M87.9681 17.6283C91.3328 18.278 93.4624 19.9707 94.3568 22.7321C94.8679 24.3137 94.8849 25.938 94.3994 27.6222C93.9139 29.3063 92.9428 30.8965 91.4861 32.384L88.837 35.077L88.7773 35.4617L90.4299 39.2489L83.3256 42.7882L82.3971 42.3608L79.4328 35.6498L79.5691 34.9402L83.5897 31.6146C85.1059 30.3066 85.6426 28.9558 85.1826 27.5623C84.8504 26.5364 83.956 25.9722 82.5079 25.8782C81.0598 25.7841 78.615 26.1774 75.1821 27.0579L74.0918 26.3142V19.7399L74.8499 18.9363C80.225 17.4231 84.6034 16.9871 87.9681 17.6283ZM92.602 44.3271C93.7946 44.9512 94.6635 46.0882 95.2001 47.7467C95.7708 49.5078 95.7283 51.0638 95.0809 52.4145C94.425 53.7653 93.2409 54.7228 91.5202 55.287C89.7995 55.8513 88.411 55.8085 87.2355 55.193C86.0685 54.5774 85.2082 53.4319 84.6545 51.7391C84.1008 50.0464 84.1349 48.4136 84.8078 47.0628C85.4807 45.7035 86.6733 44.746 88.394 44.1818C90.004 43.6517 91.4095 43.703 92.602 44.3271Z" fill="#97C233"/>
<path d="M20.0176 111.104C22.0024 109.805 23.8849 109.634 25.6397 110.574C26.6533 111.113 27.437 111.925 27.9907 112.993C28.5529 114.071 28.8255 115.327 28.8085 116.772L28.7744 119.388L28.9277 119.61L31.5599 120.705L29.7029 125.894L29.0385 126.125L24.3534 124.201L24.0808 123.782L24.4982 120.192C24.6345 118.807 24.2512 117.875 23.3568 117.396C22.7009 117.046 21.9853 117.191 21.2187 117.841C20.452 118.49 19.4213 119.858 18.1265 121.953L17.2321 122.107L14.0889 118.832V118.063C16.0566 114.72 18.0328 112.404 20.0176 111.104ZM35.0694 122.209C35.9638 121.944 36.9434 122.098 37.9997 122.662C39.1241 123.269 39.8482 124.064 40.1719 125.056C40.4871 126.048 40.3508 127.091 39.763 128.202C39.1752 129.314 38.4597 129.955 37.5823 130.211C36.7049 130.468 35.7253 130.305 34.6435 129.724C33.5617 129.143 32.795 128.313 32.4884 127.313C32.1732 126.313 32.318 125.261 32.9058 124.15C33.4595 123.116 34.1835 122.466 35.0779 122.201L35.0694 122.209Z" fill="#97C233"/>
<path d="M91.6572 239.238C75.3361 209.538 72.5932 180.505 73.2662 160.227C73.5984 150.105 74.4758 141.872 75.5491 137.401C75.5491 137.401 72.8232 169.041 79.0501 195.586C85.9925 225.191 97.2537 238.024 97.2537 238.024L92.0916 239.144L91.6572 239.238Z" fill="#965C51"/>
<path d="M208.213 197.005V212.949H225.616V197.005H208.213Z" fill="#020303"/>
<path d="M217.669 214.804L217.95 215.121C221.136 218.737 224.356 219.199 229.373 221.695L240.012 203.255L245.617 173.829L243.564 168.263L239.092 169.221L230.821 184.575L221.757 194.526L217.907 196.227L217.353 199.339L219.321 202.383L222.354 202.921C223.589 206.187 224.33 206.871 224.074 208.341C224.057 208.375 223.87 210.872 221.391 211.231L218.844 211.607C217.319 211.829 216.655 213.659 217.677 214.822L217.669 214.804Z" fill="white"/>
<path d="M229.364 221.969C229.364 221.969 229.279 221.96 229.245 221.943C227.814 221.233 226.502 220.678 225.352 220.182C222.388 218.925 220.054 217.933 217.737 215.309L217.456 214.992C216.911 214.377 216.757 213.539 217.038 212.761C217.319 211.983 217.975 211.453 218.793 211.333L221.34 210.957C223.257 210.675 223.691 209.025 223.793 208.333C223.793 208.316 223.793 208.299 223.793 208.281C223.955 207.375 223.691 206.794 223.129 205.512C222.856 204.905 222.524 204.152 222.141 203.152L219.262 202.639C219.185 202.622 219.125 202.579 219.083 202.519L217.115 199.476C217.081 199.416 217.064 199.348 217.072 199.279L217.626 196.167C217.643 196.082 217.703 196.005 217.779 195.971L221.579 194.295L230.582 184.412L238.837 169.092C238.871 169.024 238.939 168.973 239.015 168.956L243.488 167.998C243.615 167.964 243.752 168.041 243.794 168.169L245.847 173.735C245.864 173.777 245.873 173.829 245.856 173.88L240.251 203.306C240.251 203.306 240.234 203.366 240.217 203.391L229.577 221.832C229.526 221.917 229.441 221.969 229.347 221.969H229.364ZM217.865 214.633L218.146 214.95C220.377 217.48 222.669 218.455 225.565 219.686C226.664 220.156 227.908 220.678 229.262 221.344L239.757 203.161L245.345 173.854L243.394 168.579L239.271 169.46L231.059 184.703C231.059 184.703 231.034 184.737 231.025 184.754L221.962 194.705C221.962 194.705 221.902 194.757 221.868 194.774L218.146 196.415L217.635 199.279L219.475 202.135L222.388 202.656C222.481 202.673 222.558 202.742 222.592 202.827C222.993 203.887 223.342 204.674 223.623 205.298C224.219 206.64 224.517 207.315 224.33 208.384C224.236 209.042 223.759 211.145 221.425 211.487L218.878 211.863C218.265 211.958 217.771 212.359 217.558 212.941C217.345 213.531 217.464 214.155 217.873 214.625L217.865 214.633Z" fill="#010101"/>
<path d="M243.565 168.263L243.59 170.135C243.658 175.214 243.147 180.283 242.074 185.242L241.648 187.225C239.501 197.142 236.273 206.794 232.014 215.993L229.373 221.686L231.528 225.14L238.053 227.594L242.909 220.259C242.909 220.259 243.956 214.548 245.268 207.29L243.829 205.221L244.314 202.502L246.401 201.04C248.446 189.704 250.618 177.53 250.524 177.402C250.354 177.154 248.36 170.204 248.36 170.204L246.503 168.776L243.573 168.255L243.565 168.263Z" fill="#020303"/>
<path d="M225.523 196.031C225.421 196.031 225.319 195.971 225.276 195.868L223.615 192.218C223.555 192.081 223.615 191.918 223.751 191.859C223.887 191.799 224.049 191.859 224.109 191.995L225.77 195.646C225.83 195.783 225.77 195.945 225.634 196.005C225.6 196.022 225.557 196.031 225.523 196.031Z" fill="black"/>
<path d="M227.908 193.56C227.806 193.56 227.703 193.5 227.661 193.397L226 189.747C225.94 189.61 226 189.448 226.136 189.388C226.272 189.328 226.434 189.388 226.494 189.525L228.155 193.175C228.214 193.312 228.155 193.474 228.018 193.534C227.984 193.551 227.942 193.56 227.908 193.56Z" fill="black"/>
<path d="M230.285 191.081C230.182 191.081 230.08 191.021 230.038 190.918L228.377 187.268C228.317 187.131 228.377 186.969 228.513 186.909C228.649 186.849 228.811 186.909 228.871 187.045L230.532 190.696C230.591 190.833 230.532 190.995 230.395 191.055C230.361 191.072 230.319 191.081 230.285 191.081Z" fill="black"/>
<path d="M206.199 243.915L196.007 256.145L209.356 267.351L219.548 255.121L206.199 243.915Z" fill="#020303"/>
<path d="M200.359 255.019L200.095 255.352C197.105 259.131 197.225 262.405 195.657 267.791L215.616 275.067L245.464 275.443L250.566 272.434L248.845 268.185L232.337 262.705L220.982 255.498L218.64 251.984H215.488L212.847 254.455V257.541C209.857 259.336 209.321 260.191 207.838 260.191C207.804 260.183 205.325 260.431 204.533 258.045L203.716 255.592C203.23 254.13 201.313 253.788 200.359 255.002V255.019Z" fill="white"/>
<path d="M245.463 275.717L215.615 275.34C215.615 275.34 215.556 275.34 215.53 275.323L195.572 268.048C195.435 267.997 195.367 267.851 195.401 267.715C195.844 266.176 196.168 264.782 196.44 263.56C197.156 260.414 197.718 257.926 199.89 255.182L200.154 254.848C200.666 254.198 201.458 253.899 202.267 254.045C203.076 254.19 203.715 254.746 203.979 255.524L204.797 257.977C205.41 259.815 207.105 259.961 207.804 259.935C207.821 259.935 207.838 259.935 207.855 259.935C208.766 259.935 209.295 259.576 210.453 258.789C210.998 258.413 211.68 257.952 212.591 257.404V254.472C212.591 254.395 212.625 254.327 212.676 254.275L215.317 251.805C215.368 251.762 215.436 251.728 215.504 251.728H218.656C218.75 251.728 218.827 251.771 218.878 251.847L221.186 255.31L232.464 262.474L248.939 267.937C249.015 267.962 249.075 268.022 249.101 268.091L250.821 272.34C250.872 272.468 250.821 272.605 250.711 272.673L245.608 275.682C245.608 275.682 245.523 275.717 245.472 275.717H245.463ZM215.658 274.802L245.387 275.178L250.225 272.331L248.641 268.416L232.251 262.978C232.251 262.978 232.209 262.961 232.192 262.953L220.837 255.746C220.837 255.746 220.777 255.703 220.76 255.669L218.503 252.275H215.607L213.128 254.6V257.575C213.128 257.669 213.077 257.755 213 257.806C212.029 258.388 211.322 258.866 210.751 259.26C209.542 260.08 208.928 260.499 207.846 260.499C207.846 260.499 207.846 260.499 207.838 260.499C207.174 260.516 205.027 260.414 204.286 258.174L203.468 255.72C203.272 255.13 202.787 254.711 202.173 254.6C201.56 254.489 200.964 254.72 200.58 255.207L200.316 255.541C198.221 258.191 197.667 260.619 196.969 263.705C196.705 264.876 196.406 266.193 195.989 267.646L215.666 274.819L215.658 274.802Z" fill="#010101"/>
<path d="M250.557 272.442L248.717 272.793C243.751 273.75 238.691 274.135 233.632 273.947L229.159 273.776C220.684 273.46 212.268 272.203 204.073 270.023L195.649 267.783L192.642 270.519L191.381 277.401L199.422 280.914C199.422 280.914 205.206 280.94 212.557 280.966L214.338 279.187H217.089L218.886 280.991L242.797 280.923L249.476 277.52L250.557 275.434V272.442Z" fill="#020303"/>
<path d="M220.42 259.713C220.335 259.713 220.25 259.67 220.199 259.593C220.114 259.473 220.148 259.302 220.267 259.217L223.555 256.934C223.674 256.849 223.845 256.883 223.93 257.003C224.015 257.122 223.981 257.293 223.862 257.379L220.573 259.661C220.522 259.696 220.471 259.713 220.42 259.713Z" fill="black"/>
<path d="M223.265 261.636C223.18 261.636 223.095 261.593 223.043 261.517C222.958 261.397 222.992 261.226 223.112 261.14L226.4 258.858C226.519 258.772 226.689 258.806 226.774 258.926C226.86 259.046 226.826 259.217 226.706 259.302L223.418 261.585C223.367 261.619 223.316 261.636 223.265 261.636Z" fill="black"/>
<path d="M226.111 263.551C226.025 263.551 225.94 263.509 225.889 263.432C225.804 263.312 225.838 263.141 225.957 263.055L229.245 260.773C229.365 260.687 229.535 260.722 229.62 260.841C229.705 260.961 229.671 261.132 229.552 261.217L226.264 263.5C226.213 263.534 226.162 263.551 226.111 263.551Z" fill="black"/>
<path d="M207.335 237.075L165.707 203.4C164.258 202.229 162.163 202.34 160.851 203.656L123.592 241.042C122.911 241.725 121.982 242.11 121.02 242.11H106.564C104.554 242.11 102.927 243.743 102.927 245.761V273.391C102.927 275.409 104.554 277.042 106.564 277.042C115.372 277.042 123.822 273.528 130.049 267.279L161.039 236.203C162.35 234.886 164.446 234.775 165.894 235.946L191.449 256.601C193.008 257.858 195.282 257.627 196.543 256.071L207.864 242.221C209.15 240.648 208.911 238.331 207.335 237.058V237.075Z" fill="#C5E5EF"/>
<path d="M210.751 193.5L146.012 193.585C141.293 193.585 136.778 195.475 133.439 198.818L103.591 228.774H92.4062V248.223H109.145C113.949 248.223 118.549 246.308 121.948 242.897L145.024 219.737C147.085 217.668 149.879 216.506 152.792 216.506H210.742V193.483L210.751 193.5Z" fill="#C5E5EF"/>
<path d="M60.2078 198.458C65.6745 198.458 70.1061 194.099 70.1061 188.721C70.1061 183.343 65.6745 178.984 60.2078 178.984C54.7412 178.984 50.3096 183.343 50.3096 188.721C50.3096 194.099 54.7412 198.458 60.2078 198.458Z" fill="black"/>
<path d="M62.9925 197.022H55.3516V206.683H62.9925V197.022Z" fill="#955B51"/>
<path d="M55.3516 199.929V197.022H62.9925V203.443C62.3025 203.579 60.931 203.75 59.3466 203.229C56.8763 202.408 55.6667 200.476 55.3516 199.929Z" fill="black"/>
<path d="M60.2071 201.57C63.5991 201.57 66.3488 198.52 66.3488 194.757C66.3488 190.994 63.5991 187.943 60.2071 187.943C56.8152 187.943 54.0654 190.994 54.0654 194.757C54.0654 198.52 56.8152 201.57 60.2071 201.57Z" fill="#955B51"/>
<path d="M57.5752 197.715C58.1715 198.262 58.9296 198.63 59.7985 198.715C61.7236 198.912 63.4528 197.655 63.9298 195.834L57.5752 197.706V197.715Z" fill="white"/>
<path d="M81.9717 198.082H48.6652C48.5204 198.082 48.3926 197.963 48.3926 197.809C48.3926 197.655 48.5118 197.535 48.6652 197.535H81.9717C82.1165 197.535 82.2443 197.655 82.2443 197.809C82.2443 197.963 82.125 198.082 81.9717 198.082Z" fill="black"/>
<path d="M86.5806 196.467C86.5806 196.467 87.9946 193.816 88.2076 193.312C88.6079 192.346 88.1565 191.226 87.1854 190.824C86.2228 190.422 85.1069 190.876 84.7066 191.85C84.5021 192.346 83.6162 195.227 83.6162 195.227L86.5806 196.475V196.467Z" fill="#FFD102"/>
<path d="M86.8448 198.535C86.8448 198.535 89.7155 197.663 90.2095 197.458C91.1806 197.056 91.6406 195.945 91.2402 194.979C90.8399 194.013 89.7325 193.543 88.7699 193.945C88.2759 194.15 85.6182 195.552 85.6182 195.552L86.8363 198.535H86.8448Z" fill="#FFD102"/>
<path d="M85.5749 200.177C85.5749 200.177 88.2156 201.596 88.7182 201.81C89.6807 202.212 90.7966 201.759 91.197 200.784C91.5974 199.809 91.1459 198.698 90.1748 198.296C89.6807 198.091 86.8101 197.202 86.8101 197.202L85.5664 200.177H85.5749Z" fill="#FFD102"/>
<path d="M83.5137 200.442C83.5137 200.442 84.3825 203.323 84.587 203.819C84.9873 204.793 86.0947 205.255 87.0573 204.853C88.0284 204.452 88.4884 203.34 88.088 202.374C87.8836 201.878 86.4866 199.211 86.4866 199.211L83.5137 200.433V200.442Z" fill="#FFD102"/>
<path d="M81.8694 199.168C81.8694 199.168 80.4554 201.818 80.2424 202.323C79.8421 203.289 80.2936 204.409 81.2646 204.811C82.2357 205.212 83.3431 204.759 83.7435 203.785C83.9479 203.289 84.8338 200.408 84.8338 200.408L81.8694 199.16V199.168Z" fill="#FFD102"/>
<path d="M81.6141 197.099C81.6141 197.099 78.7435 197.971 78.2494 198.177C77.2783 198.578 76.8183 199.69 77.2187 200.656C77.6191 201.63 78.7264 202.092 79.689 201.69C80.1831 201.485 82.8408 200.083 82.8408 200.083L81.6226 197.099H81.6141Z" fill="#FFD102"/>
<path d="M82.8831 195.449C82.8831 195.449 80.2424 194.03 79.7398 193.816C78.7773 193.415 77.6614 193.868 77.261 194.842C76.8606 195.817 77.3121 196.928 78.2832 197.33C78.7773 197.535 81.6479 198.424 81.6479 198.424L82.8916 195.449H82.8831Z" fill="#FFD102"/>
<path d="M84.9452 195.193C84.9452 195.193 84.0763 192.312 83.8719 191.816C83.4715 190.841 82.3641 190.38 81.4016 190.781C80.439 191.183 79.9705 192.295 80.3709 193.261C80.5753 193.757 81.9723 196.424 81.9723 196.424L84.9452 195.201V195.193Z" fill="#FFD102"/>
<path d="M84.2291 200.698C85.8145 200.698 87.0997 199.408 87.0997 197.817C87.0997 196.226 85.8145 194.936 84.2291 194.936C82.6436 194.936 81.3584 196.226 81.3584 197.817C81.3584 199.408 82.6436 200.698 84.2291 200.698Z" fill="white"/>
<path d="M75.1234 194.894C73.9734 196.193 70.6172 197.074 70.6172 197.074C70.6172 197.074 71.1027 193.628 72.2527 192.329C73.4027 191.029 76.6226 190.294 76.6226 190.294C76.6226 190.294 76.2648 193.594 75.1148 194.885L75.1234 194.894Z" fill="#68BA7D"/>
<path d="M105.192 227.167L103.591 228.774H92.4062L102.918 277.042H108.063C112.101 277.042 116.053 276.213 119.699 274.648L105.192 227.167Z" fill="#020303"/>
<path d="M112.322 184.686L115.5 168.716C115.5 168.716 114.784 165.63 117.714 163.382C118.396 162.86 119.887 161.911 121.156 161.125C122.595 160.236 123.916 159.15 125.074 157.91L126.403 156.491C127.076 155.782 128.183 155.722 128.924 156.363L129.086 156.5C129.836 157.149 129.93 158.278 129.299 159.047L125.245 163.98L128.132 165.1C129.614 165.673 131.216 165.827 132.775 165.536L139.095 164.484C140.143 164.313 141.165 164.938 141.48 165.963L141.531 166.134L144.862 165.237C145.85 165.006 146.847 165.596 147.128 166.57C147.401 167.536 146.881 168.545 145.944 168.887L125.475 176.291L123.37 186.883L112.331 184.669L112.322 184.686Z" fill="#955B51"/>
<path d="M138.397 166.228C168.915 166.228 193.655 141.399 193.655 110.77C193.655 80.1419 168.915 55.3125 138.397 55.3125C107.879 55.3125 83.1387 80.1419 83.1387 110.77C83.1387 141.399 107.879 166.228 138.397 166.228Z" fill="#C5E5EF"/>
<path d="M122.646 119.927L117.212 117.507L114.801 112.421H111.905L110.576 109.753H108.037L106.709 108.907H100.788L97.5684 111.335L98.5309 113.233L97.8836 116.063L95.7114 118.003L96.0351 120.183L95.2344 121.474L100.431 129.331L103.932 131.998L104.298 140.539L105.082 143.326L104.536 146.839L106.53 150.96L108.284 156.773L109.818 158.252C110.567 158.705 111.325 159.141 112.092 159.56H115.227L115.406 158.406L113.293 157.739L111.845 155.739L112.748 153.738L111.658 152.644L113.285 147.916L115.159 147.07L119.384 139.316V136.897L120.474 135.802H124.094L125.304 127.8L127.357 123.193L125.065 119.918H122.655L122.646 119.927Z" fill="#62B988"/>
<path d="M83.4704 104.709L86.5455 106.24L88.0533 105.94L89.7399 107.821L92.3976 108.608L92.9428 110.369L95.2342 112.002L97.1082 112.968V110.608H95.7794L95.2342 109.514L95.4727 105.462H92.5169L93.7861 101.828H91.0091L90.3447 103.709L87.5677 103.282L87.1418 99.8877L87.9851 98.3745V97.0408L90.7025 95.7072L92.9939 96.4338L95.2257 95.2199L97.0997 95.9465V98.8532L98.8545 98.4514L98.6926 94.4932L102.798 91.9883L105.78 87.3804L107.552 87.0555L110.124 84.713L110.772 85.6021L114.792 83.9094L112.859 83.0203L113.983 80.6779L116.803 80.7548L116.155 82.1312L119.937 82.9348L120.423 80.6693L119.46 80.182L119.699 76.6256L117.927 76.3862L117.765 72.9922L115.107 74.2062L114.784 72.6674L111.283 71.6158L109.23 75.4971L106.972 76.9505L105.925 79.216L104.638 78.8142L105.601 76.4717L101.657 74.9329L101.095 73.2402L105.763 71.1371L110.192 70.9746L112.85 67.1789L114.622 67.1019L115.908 68.3159L114.221 69.5299L112.049 70.1796L116.803 72.1202L121.07 68.7262L117.331 64.3833H111.291L110.048 65.4776V66.7941L108.761 66.9993L108.395 65.2211L105.984 66.1102V67.6063L103.505 67.7944C92.5424 76.7624 85.0719 89.8681 83.4619 104.744L83.4704 104.709Z" fill="#62B988"/>
<path d="M95.0381 100.982L96.8525 100.212L98.8202 100.597L101.682 102.478L101.035 103.41L99.4676 102.846L98.3602 101.589L96.8525 101.349L95.0381 101.991V100.982Z" fill="#62B988"/>
<path d="M102.722 102.923H104.655L106.07 104.051L104.4 104.744L101.683 104.538L102.722 102.923Z" fill="#62B988"/>
<path d="M121.479 61.5193H124.623L128.805 59.7411L142.17 58.9375L147.648 59.8181L144.504 61.1175L143.857 63.7848L141.77 64.9133L141.446 66.854L138.226 68.0594H136.216L134.197 69.5982H132.025L128.005 73.5564L126.718 72.6673L124.946 71.214L125.023 67.9824L126.957 67.1703L126.071 65.4006L126.233 63.6224L124.061 62.8957L122.042 63.212L121.479 61.5193Z" fill="#62B988"/>
<path d="M140.399 68.8716H144.581L144.905 69.9231L142.247 70.9747H140.399L139.172 68.8716H140.399Z" fill="#62B988"/>
<path d="M182.419 127.04L181.047 129.621L179.122 130.109V132.938L178.236 134.229L178.637 137.136L180 137.7L181.133 136.897L183.543 129.707L182.419 127.04Z" fill="#62B988"/>
<path d="M184.267 108.898L183.952 111.326L181.695 115.567L179.361 116.858L177.103 120.012L176.303 122.107L177.189 125.826V129.784L173.645 132.374V136.247L172.112 137.375L171.311 139.803L167.784 143.112L162.333 144.574L161.327 141.342V139.803L159.717 138.427L159.317 134.794L157.784 131.4L158.193 128.006L159.155 127.04L158.346 122.757L155.85 119.038V115.079L154.002 114.515L152.715 113.139L149.172 114.515L146.923 113.874L144.904 114.678L141.207 112.096L138.388 107.086L139.188 104.821L139.112 100.948L140.884 97.4683L142.732 96.015L144.504 93.3476L146.923 91.1676H148.933L150.543 90.441L157.307 89.8767V92.2961L159.717 93.1852L162.333 94.801L163.5 93.1083L167.367 94.3222L170.911 94.0743L172.112 97.7932L174.292 101.102L174.854 103.444L176.217 106.197L179.361 109.753L184.267 108.898Z" fill="#62B988"/>
<path d="M182.964 96.8442L185.622 97.9385L186.832 97.6393L187.317 98.5455L189.49 99.332L192.42 99.0071C189.72 86.4742 182.803 75.5228 173.237 67.7175L172.206 68.1449L164.378 65.8025L160.451 66.247L157.631 69.9232L153.628 72.0604L154.956 74.5482L157.069 73.5565L157.912 74.9073L158.031 76.3606L160.442 75.6339L160.502 74.3003L161.652 73.5565L160.689 71.7014L162.861 69.3418L164.369 69.9317L162.342 71.4705L162.802 72.8042L164.369 74.3174L162.981 75.0441L162.018 77.1044H156.583L156.881 75.0441L155.433 75.4117L155.553 77.3523L153.679 78.1388L151.626 80.3188H149.999L147.648 81.473L150.067 83.5931L150.007 85.1063L145.901 85.226L144.274 88.0729L144.922 89.8938L146.753 90.5607L149.59 89.8938L150.493 88.3208L152.248 87.2607L152.912 85.1063L154.539 85.7133L156.226 84.5592L157.614 86.7392L159.88 87.7053V88.7311L158.04 89.1586L160.127 90.5521L160.459 89.398L161.728 87.3975L159.377 85.8245L158.534 83.9437L162.359 86.5511L163.364 89.3381L164.991 90.364L165.476 87.0897L166.499 87.4573V89.3381L168.432 90.7316L169.821 90.364L171.15 90.7915L172.717 90.6119L172.112 94.9121L175.187 100.426L175.911 102.606L179.838 108.36L184.285 106.18L188.229 103.632L189.132 101.085L186.534 98.7849L185.205 99.5116L183.697 99.332L182.547 97.6393L180.792 95.5191L182.181 95.2199L182.964 96.8528V96.8442Z" fill="#62B988"/>
<path d="M149.854 74.4029L150.339 76.4204L151.873 78.3269L150.297 79.7375L148.09 79.9427L148.934 77.1728L147.647 75.215L148.687 73.8386L149.854 74.4029Z" fill="#62B988"/>
<path d="M147.928 76.8906H145.952L144.904 79.3699L147.323 78.8484L147.928 76.8906Z" fill="#62B988"/>
<path d="M143.635 135.024L162.989 134.956L170.348 119.302H143.635V115.43L133.106 127.159L143.635 138.897V135.024Z" fill="white"/>
<path d="M143.635 139.162C143.558 139.162 143.49 139.128 143.43 139.076L132.91 127.347C132.816 127.244 132.816 127.091 132.91 126.988L143.43 115.259C143.507 115.173 143.626 115.147 143.728 115.19C143.831 115.233 143.899 115.327 143.899 115.447V119.046H170.348C170.442 119.046 170.527 119.097 170.578 119.174C170.629 119.251 170.638 119.354 170.595 119.431L163.235 135.084C163.193 135.178 163.099 135.238 162.988 135.238L143.899 135.306V138.905C143.899 139.017 143.831 139.119 143.728 139.162C143.694 139.17 143.66 139.179 143.635 139.179V139.162ZM133.472 127.159L143.362 138.187V135.024C143.362 134.879 143.481 134.751 143.635 134.751L162.826 134.682L169.931 119.567H143.635C143.49 119.567 143.362 119.448 143.362 119.294V116.131L133.472 127.159Z" fill="black"/>
<path d="M150.492 113.224L162.989 134.956L172.572 120.157L164.053 105.359L150.492 113.224Z" fill="white"/>
<path d="M162.989 135.229C162.895 135.229 162.81 135.178 162.759 135.093L150.254 113.361C150.177 113.232 150.22 113.061 150.356 112.993L163.926 105.128C163.985 105.094 164.062 105.085 164.13 105.102C164.198 105.119 164.258 105.162 164.292 105.231L172.802 120.029C172.853 120.114 172.853 120.226 172.802 120.311L163.227 135.11C163.176 135.187 163.091 135.229 162.997 135.229H162.989ZM150.858 113.327L163.006 134.443L172.256 120.157L163.96 105.735L150.858 113.327Z" fill="black"/>
<path d="M114.988 102.512L105.439 119.422L115.329 133.605L128.592 110.317L131.94 112.241L127.008 97.2458L111.641 100.597L114.988 102.512Z" fill="white"/>
<path d="M115.329 133.87C115.244 133.87 115.158 133.827 115.107 133.75L105.218 119.567C105.158 119.482 105.149 119.371 105.201 119.277L114.613 102.606L111.496 100.819C111.402 100.768 111.342 100.657 111.359 100.546C111.376 100.435 111.461 100.349 111.572 100.323L126.939 96.9722C127.076 96.938 127.212 97.0235 127.254 97.1517L132.186 112.147C132.221 112.249 132.187 112.369 132.101 112.437C132.016 112.506 131.897 112.514 131.795 112.463L128.677 110.676L115.55 133.725C115.508 133.802 115.423 133.853 115.329 133.861C115.329 133.861 115.329 133.861 115.32 133.861L115.329 133.87ZM105.754 119.405L115.303 133.092L128.353 110.181C128.387 110.121 128.447 110.069 128.515 110.052C128.583 110.035 128.66 110.044 128.72 110.078L131.454 111.651L126.82 97.5621L112.373 100.708L115.107 102.281C115.235 102.358 115.278 102.521 115.21 102.649L105.746 119.405H105.754Z" fill="black"/>
<path d="M130.441 119.311L105.439 119.422L113.489 135.11L130.509 135.033L130.441 119.311Z" fill="white"/>
<path d="M113.489 135.375C113.387 135.375 113.293 135.315 113.251 135.229L105.201 119.542C105.158 119.456 105.158 119.354 105.209 119.277C105.261 119.2 105.346 119.148 105.439 119.148L130.441 119.037C130.509 119.037 130.577 119.063 130.628 119.114C130.679 119.166 130.705 119.234 130.705 119.302L130.773 135.024C130.773 135.178 130.654 135.298 130.5 135.298L113.472 135.375H113.489ZM105.882 119.687L113.651 134.836L130.245 134.759L130.177 119.576L105.882 119.687Z" fill="black"/>
<path d="M157.733 92.8431L147.145 76.5742L130.049 78.891L144.581 101.392L141.344 103.495L156.873 105.983L160.97 90.7401L157.733 92.8431Z" fill="white"/>
<path d="M156.882 106.257C156.882 106.257 156.856 106.257 156.839 106.257L141.302 103.769C141.191 103.752 141.106 103.666 141.08 103.555C141.055 103.444 141.106 103.333 141.199 103.273L144.206 101.315L129.828 79.0363C129.776 78.9594 129.768 78.8568 129.81 78.7799C129.853 78.6944 129.93 78.6345 130.023 78.626L147.12 76.3177C147.222 76.3006 147.324 76.3519 147.384 76.4374L157.819 92.4841L160.834 90.5263C160.928 90.4665 161.047 90.4665 161.141 90.5263C161.234 90.5947 161.269 90.7059 161.243 90.817L157.154 106.06C157.12 106.18 157.018 106.257 156.89 106.257H156.882ZM142.085 103.341L156.686 105.675L160.527 91.347L157.878 93.0654C157.75 93.1509 157.589 93.1081 157.503 92.9885L147.009 76.8649L130.509 79.0962L144.803 101.247C144.888 101.375 144.845 101.538 144.726 101.623L142.077 103.341H142.085Z" fill="black"/>
<path d="M135.773 98.9215L147.145 76.5742L129.563 76.5486L121.82 91.766L135.773 98.9215Z" fill="white"/>
<path d="M135.764 99.195C135.764 99.195 135.679 99.1865 135.645 99.1694L121.692 92.0138C121.633 91.9796 121.581 91.9283 121.556 91.8599C121.53 91.7915 121.539 91.7146 121.573 91.6547L129.316 76.4373C129.359 76.3433 129.452 76.292 129.555 76.292L147.136 76.3176C147.23 76.3176 147.315 76.3689 147.366 76.4459C147.417 76.5228 147.417 76.6254 147.375 76.7109L135.994 99.0582C135.943 99.1523 135.85 99.2036 135.756 99.2036L135.764 99.195ZM122.178 91.6547L135.645 98.5624L146.702 76.8477L129.725 76.8306L122.178 91.6547Z" fill="black"/>
<path d="M123.361 187.165C123.361 187.165 123.327 187.165 123.31 187.165L112.271 184.951C112.202 184.934 112.143 184.9 112.1 184.84C112.058 184.78 112.049 184.703 112.058 184.635L115.218 168.716C115.133 168.255 114.741 165.314 117.543 163.168C118.25 162.629 119.818 161.638 121.01 160.902C122.433 160.022 123.728 158.962 124.878 157.731L126.207 156.312C126.973 155.491 128.251 155.422 129.094 156.158L129.256 156.294C130.108 157.03 130.219 158.346 129.503 159.218L125.678 163.869L128.217 164.852C129.648 165.408 131.207 165.553 132.715 165.271L139.044 164.219C140.194 164.031 141.327 164.707 141.701 165.81L144.785 164.98C145.926 164.715 147.059 165.382 147.374 166.502C147.681 167.596 147.093 168.759 146.02 169.144L125.695 176.496L123.617 186.943C123.591 187.071 123.481 187.157 123.353 187.157L123.361 187.165ZM112.637 184.472L123.148 186.575L125.201 176.248C125.218 176.154 125.287 176.077 125.372 176.043L145.841 168.639C146.642 168.349 147.093 167.477 146.855 166.656C146.616 165.81 145.765 165.305 144.913 165.51L141.591 166.408C141.454 166.442 141.309 166.365 141.267 166.229L141.216 166.058C140.943 165.168 140.049 164.621 139.137 164.767L132.817 165.818C131.215 166.117 129.554 165.963 128.029 165.365L125.142 164.245C125.065 164.211 124.997 164.143 124.98 164.057C124.954 163.972 124.98 163.886 125.031 163.818L129.086 158.885C129.631 158.227 129.546 157.278 128.907 156.713L128.745 156.577C128.115 156.029 127.169 156.081 126.598 156.688L125.27 158.107C124.094 159.364 122.757 160.458 121.291 161.364C119.596 162.416 118.412 163.185 117.876 163.604C115.116 165.716 115.755 168.631 115.763 168.665C115.772 168.699 115.772 168.742 115.763 168.776L112.645 184.481L112.637 184.472Z" fill="black"/>
<path d="M127.374 169.887L129.069 169.152C130.151 168.682 131.071 167.913 131.727 166.929L135.296 161.552C135.807 160.783 136.846 160.56 137.622 161.065C138.363 161.544 138.61 162.518 138.201 163.296L134.802 169.682C134.529 170.195 134.155 170.657 133.703 171.024L131.267 173.008L127.383 169.896L127.374 169.887Z" fill="#955B51"/>
<path d="M131.803 167.793L133.601 167.348C134.742 167.066 135.781 166.459 136.582 165.596L140.986 160.885C141.617 160.21 142.681 160.167 143.363 160.791C144.019 161.39 144.104 162.381 143.567 163.082L139.163 168.81C138.805 169.272 138.363 169.657 137.851 169.947L135.117 171.495L131.795 167.776L131.803 167.793Z" fill="#955B51"/>
<path d="M137.86 170.229C137.767 170.229 137.673 170.178 137.622 170.093C137.545 169.964 137.596 169.793 137.724 169.725C138.201 169.451 138.618 169.092 138.951 168.656L143.355 162.928C143.806 162.347 143.729 161.492 143.184 160.996C142.613 160.475 141.719 160.509 141.182 161.073L137.818 164.707C137.715 164.818 137.545 164.818 137.434 164.724C137.324 164.621 137.315 164.45 137.417 164.339L140.791 160.706C141.523 159.928 142.758 159.876 143.551 160.595C144.3 161.278 144.402 162.45 143.78 163.253L139.377 168.981C138.993 169.477 138.533 169.879 137.988 170.187C137.945 170.212 137.903 170.221 137.852 170.221L137.86 170.229Z" fill="black"/>
<path d="M132.826 172.401C132.749 172.401 132.664 172.367 132.613 172.298C132.519 172.179 132.536 172.008 132.655 171.914C133.695 171.084 134.555 170.016 135.151 168.819L137.962 163.176C138.311 162.518 138.098 161.697 137.485 161.296C136.838 160.877 135.96 161.056 135.526 161.706L131.957 167.083C131.275 168.109 130.313 168.913 129.188 169.4L125.585 170.648C125.449 170.7 125.287 170.623 125.244 170.477C125.193 170.332 125.27 170.178 125.415 170.135L129.001 168.896C130.015 168.46 130.892 167.724 131.522 166.784L135.092 161.407C135.679 160.518 136.897 160.261 137.792 160.842C138.644 161.398 138.933 162.527 138.456 163.424L135.654 169.067C135.023 170.332 134.112 171.46 133.013 172.341C132.962 172.384 132.902 172.401 132.843 172.401H132.826Z" fill="black"/>
<path d="M124.052 165.673C123.993 165.673 123.933 165.656 123.882 165.613C123.771 165.519 123.754 165.348 123.848 165.228L125.092 163.741C125.185 163.63 125.356 163.613 125.475 163.707C125.586 163.801 125.603 163.972 125.509 164.091L124.265 165.579C124.214 165.639 124.138 165.673 124.061 165.673H124.052Z" fill="black"/>
<path d="M128.166 181.412L109.613 177.719L103.897 206.589H69.1172V224.747H105.882C113.838 224.747 120.687 219.105 122.237 211.274L128.166 181.412Z" fill="#62B988"/>
<path d="M49.7808 258.49V206.589H42.6254C34.1156 206.589 27.2158 213.513 27.2158 222.054V259.995C27.2158 270.442 35.6489 278.905 46.0583 278.905H85.4554V258.499H49.7808V258.49Z" fill="#62B988"/>
<path d="M27.293 261.73C28.1704 271.357 36.2287 278.906 46.0502 278.906H47.2513C43.2988 270.724 36.0838 264.432 27.293 261.73Z" fill="#2C776A"/>
<path d="M69.7651 206.529H48.8867C51.3826 209.846 55.1306 211.949 59.3216 211.949C63.5126 211.949 67.2692 209.837 69.7565 206.529H69.7651Z" fill="#955B51"/>
<path d="M108.583 238.255H122.553C122.553 238.255 164.412 204.734 164.105 204.947C163.799 205.161 127.264 239.734 122.826 240.819C118.388 241.905 109.375 240.819 109.375 240.819L108.592 238.255H108.583Z" fill="#62B988"/>
<path d="M35.8534 46.6438C41.9525 45.3102 46.7312 46.6267 50.1897 50.6021C52.1744 52.8761 53.3585 55.6033 53.7418 58.7664C54.1251 61.9382 53.6311 65.2894 52.2511 68.8373L49.7382 75.2491L49.9171 75.933L55.3858 81.0881L46.0072 92.125L44.1502 92.0737L34.4053 82.9689L34.1156 81.678L38.477 73.223C40.087 69.9401 40.0188 67.2984 38.2641 65.2809C36.9693 63.8019 35.0782 63.4941 32.5909 64.3747C30.095 65.2552 26.2873 67.666 21.1508 71.6072L18.7998 71.1455L14.0977 60.1343L14.8217 58.2364C22.7522 51.8417 29.7628 47.9775 35.8619 46.6353L35.8534 46.6438ZM62.6349 88.0385C65.0796 88.2266 67.3455 89.5175 69.4155 91.8942C71.6302 94.4332 72.6694 97.0749 72.5417 99.8106C72.4054 102.546 71.1021 105 68.6232 107.171C66.1444 109.343 63.7849 110.275 61.3912 110.087C58.9976 109.899 56.7317 108.591 54.6107 106.154C52.3959 103.615 51.3652 100.965 51.527 98.2034C51.6889 95.4506 53.0007 92.9799 55.488 90.8084C57.805 88.7738 60.1901 87.8504 62.6434 88.0385H62.6349Z" fill="#E9EAF3"/>
<path d="M157.128 7.54884C160.007 10.4555 160.97 13.5589 160.016 16.8759C159.462 18.7738 158.389 20.3896 156.788 21.7232C155.186 23.0569 153.167 23.9631 150.731 24.4504L146.319 25.3224L146.003 25.6644L145.1 30.5031L135.73 29.2037L135.1 28.1607L136.667 19.5603L137.272 18.9448L143.456 18.3805C145.824 18.1155 147.256 17.1409 147.741 15.4653C148.099 14.2257 147.596 13.0716 146.233 12.0029C144.87 10.9343 142.204 9.67756 138.226 8.22422L137.647 6.76232L142.034 0.273567L143.329 0.00854492C149.641 2.13727 154.232 4.65925 157.12 7.55739L157.128 7.54884ZM143.831 36.9577C144.589 38.3769 144.683 40.0867 144.104 42.0701C143.49 44.1902 142.409 45.6949 140.858 46.584C139.308 47.4731 137.502 47.6184 135.432 47.0114C133.362 46.4045 132.025 45.4299 131.275 44.0364C130.534 42.6429 130.457 40.933 131.045 38.8983C131.659 36.7782 132.749 35.2735 134.325 34.393C135.892 33.5124 137.715 33.3671 139.785 33.9741C141.719 34.5383 143.073 35.53 143.831 36.9577Z" fill="#E9EAF3"/>
<path d="M207.992 30.7253C209.797 33.1704 210.172 35.5556 209.116 37.8895C208.511 39.2231 207.549 40.3003 206.228 41.1039C204.908 41.9076 203.332 42.3607 201.492 42.4547L198.161 42.6171L197.897 42.8309L196.713 46.2932L189.975 44.3269L189.626 43.4891L191.696 37.3423L192.207 36.9576L196.807 37.2056C198.579 37.2654 199.729 36.7012 200.265 35.5214C200.657 34.6494 200.419 33.7517 199.533 32.8199C198.647 31.888 196.824 30.6741 194.056 29.1865L193.783 28.0495L197.701 23.7578L198.681 23.698C203.085 25.9379 206.194 28.2889 208 30.7253H207.992ZM195.086 50.8926C195.495 52.0211 195.376 53.2778 194.737 54.6799C194.056 56.176 193.102 57.1591 191.875 57.6464C190.64 58.1337 189.302 58.0397 187.846 57.3729C186.389 56.706 185.512 55.8426 185.111 54.7397C184.711 53.6369 184.839 52.3716 185.495 50.9439C186.151 49.5162 187.139 48.4647 188.382 47.986C189.626 47.5072 190.981 47.6012 192.437 48.2681C193.8 48.8922 194.686 49.7642 195.086 50.8926Z" fill="#E9EAF3"/>
<path d="M103.599 228.722H102.586C99.6554 228.722 96.8358 227.56 94.7574 225.482L75.8127 206.589H42.6254C34.1156 206.589 27.2158 213.513 27.2158 222.054V223.73L66.9451 263.654C75.6508 272.4 87.4657 277.315 99.7832 277.315H114.102L103.599 228.722Z" fill="#17A186"/>
<path d="M101.87 260.91H81.6562V277.495H101.87V260.91Z" fill="#955B51"/>
<path d="M87.9257 260.91H81.6562V277.503L90.166 277.495L87.9257 260.91Z" fill="#2C776A"/>
<path d="M120.014 266.065L121.812 268.006C122.715 268.989 122.808 270.476 122.033 271.562L120.27 274.016L116.002 269.237H89.1865V263.603H114.418C116.547 263.603 118.575 264.492 120.023 266.065H120.014Z" fill="#955B51"/>
<path d="M119.188 262.551L120.201 263.654C121.104 264.637 121.198 266.125 120.423 267.21L118.66 269.664L114.392 264.885H89.1777V260.97H93.4539C95.2257 260.97 98.386 259.26 102.381 259.26H111.658C114.52 259.26 117.246 260.457 119.188 262.56V262.551Z" fill="#955B51"/>
<path d="M122.024 271.835C121.973 271.835 121.913 271.818 121.871 271.784C121.751 271.699 121.726 271.528 121.811 271.408C122.509 270.433 122.433 269.083 121.615 268.194L119.818 266.244C118.429 264.74 116.453 263.876 114.409 263.876H109.468C109.323 263.876 109.195 263.757 109.195 263.603C109.195 263.449 109.315 263.329 109.468 263.329H114.409C116.606 263.329 118.719 264.261 120.209 265.877L122.007 267.826C122.995 268.895 123.097 270.536 122.245 271.724C122.194 271.801 122.109 271.835 122.024 271.835Z" fill="black"/>
<path d="M120.636 269.852L122.791 272.186C123.694 273.169 123.788 274.657 123.012 275.742L121.249 278.196L116.981 273.417H100.362V267.783H115.917C117.706 267.783 119.418 268.536 120.636 269.852Z" fill="#955B51"/>
<path d="M122.323 276.965C122.272 276.965 122.212 276.948 122.17 276.914C122.05 276.828 122.025 276.657 122.11 276.537L122.8 275.58C123.498 274.605 123.422 273.255 122.604 272.365L120.449 270.031C119.29 268.766 117.638 268.048 115.926 268.048H109.435C109.29 268.048 109.162 267.928 109.162 267.775C109.162 267.621 109.281 267.501 109.435 267.501H115.926C117.791 267.501 119.58 268.288 120.849 269.655L123.004 271.989C123.992 273.058 124.095 274.699 123.243 275.888L122.553 276.845C122.502 276.922 122.417 276.956 122.331 276.956L122.323 276.965Z" fill="black"/>
<path d="M119.852 273.956L122.101 276.392C122.936 277.298 123.021 278.658 122.297 279.658C121.334 281 119.384 281.103 118.293 279.872L117.075 278.504C116.496 277.854 115.661 277.478 114.792 277.478H100.839C97.1934 277.478 94.6209 277.264 91.1113 271.844H115.056C116.879 271.844 118.625 272.613 119.861 273.956H119.852Z" fill="#955B51"/>
<path d="M120.201 281C119.392 281 118.626 280.658 118.089 280.051L116.871 278.683C116.343 278.094 115.585 277.752 114.784 277.752H99.3487C96.5717 277.752 93.9821 276.375 92.4233 274.067C92.3381 273.947 92.3722 273.776 92.4914 273.691C92.6107 273.605 92.7811 273.639 92.8662 273.759C94.3229 275.922 96.7421 277.204 99.3402 277.204H114.775C115.721 277.204 116.632 277.615 117.263 278.316L118.481 279.684C118.949 280.205 119.622 280.496 120.321 280.453C121.019 280.419 121.658 280.068 122.067 279.496C122.706 278.606 122.629 277.375 121.888 276.572L119.639 274.135C118.455 272.853 116.777 272.118 115.031 272.118H109.63C109.485 272.118 109.358 271.998 109.358 271.844C109.358 271.69 109.477 271.571 109.63 271.571H115.031C116.922 271.571 118.745 272.374 120.031 273.768L122.28 276.204C123.2 277.196 123.285 278.718 122.501 279.812C121.999 280.513 121.207 280.949 120.346 280.992C120.295 280.992 120.244 280.992 120.193 280.992L120.201 281Z" fill="black"/>
<path d="M104.681 277.777H81.6564C81.5116 277.777 81.3838 277.657 81.3838 277.503V260.918C81.3838 260.764 81.503 260.645 81.6564 260.645H92.6535C94.2294 260.645 95.4901 260.294 96.8189 259.927C98.4289 259.482 100.252 258.978 102.995 258.978H111.658C114.58 258.978 117.399 260.217 119.384 262.372L120.398 263.474C121.249 264.398 121.462 265.74 120.926 266.877C120.866 267.014 120.704 267.074 120.568 267.005C120.432 266.945 120.372 266.783 120.44 266.646C120.883 265.706 120.713 264.603 120.006 263.842L118.992 262.739C117.11 260.696 114.435 259.525 111.658 259.525H102.995C100.32 259.525 98.6163 259.995 96.9552 260.457C95.5923 260.833 94.2975 261.192 92.645 261.192H81.9204V277.238H104.673C104.818 277.238 104.945 277.358 104.945 277.512C104.945 277.666 104.826 277.786 104.673 277.786L104.681 277.777Z" fill="black"/>
<path d="M58.0777 155.209H0C0 155.209 4.25915 137.7 19.2769 137.7C30.4103 137.7 36.1857 144.762 38.4345 148.429C42.8215 146.702 52.2768 144.616 58.0862 155.209" fill="#E9EAF3"/>
<path d="M251 153.388H211.799C211.799 153.388 214.67 141.573 224.815 141.573C232.328 141.573 236.229 146.343 237.746 148.814C240.71 147.651 247.09 146.241 251.009 153.388" fill="#E9EAF3"/>
</g>
<defs>
<clipPath id="clip0_704_1499">
<rect width="251" height="281" fill="white"/>
</clipPath>
</defs>
</svg>
