<svg width="104" height="140" viewBox="0 0 104 140" fill="none" xmlns="http://www.w3.org/2000/svg">
<g clip-path="url(#clip0_211_38993)">
<path d="M84.9912 29.0842L104.098 29.0526C104.098 29.0526 103.145 27.7251 102.098 27.5596C102.098 27.5596 100.05 21.0399 96.6398 21.0005C93.4676 20.9611 92.2038 25.0187 92.2038 25.0187C92.2038 25.0187 90.7313 23.2026 89.332 24.0378C87.929 24.8729 87.1378 27.2523 87.1378 27.2523C87.1378 27.2523 85.5627 28.1702 84.9912 29.0842Z" fill="#EBEBEB"/>
<path d="M44.3375 32.7754L20.1758 32.8148C20.1758 32.8148 20.1758 31.1524 23.5019 30.8254C23.5019 30.8254 26.5312 23.5651 31.1723 24.5302C34.0625 25.1329 35.5461 29.3954 35.5461 29.3954C35.5461 29.3954 37.7256 26.0351 39.4729 26.6811C41.2202 27.3272 42.2642 30.9002 42.2642 30.9002C42.2642 30.9002 44.0664 31.8378 44.3411 32.7754H44.3375Z" fill="#EBEBEB"/>
<path d="M80.6682 51.7789L64.2393 51.8065C64.2393 51.8065 65.7887 50.2504 66.4774 50.2504C67.1661 50.2504 69.1698 45.0347 71.7412 45.2553C74.3127 45.4719 75.6791 49.3523 75.6791 49.3523C75.6791 49.3523 78.8 48.2926 80.6682 51.7829V51.7789Z" fill="#EBEBEB"/>
<path d="M12.0479 46.902L-2 46.9257C-2 46.9257 -1.30401 45.9447 -0.531105 45.8226C-0.531105 45.8226 0.959769 41.0244 3.46898 40.985C5.7987 40.9496 6.74011 43.9278 6.74011 43.9278C6.74011 43.9278 7.81705 42.5884 8.85004 43.199C9.88303 43.8096 10.4691 45.5587 10.4691 45.5587C10.4691 45.5587 11.6303 46.2284 12.0516 46.902H12.0479Z" fill="#EBEBEB"/>
<path d="M34.6744 104.737L33.5864 118.001H62.8141C62.8141 118.001 59.5503 91.4844 59.5503 91.248C59.5503 91.0116 65.4955 82.9043 64.1915 65.6655C62.5651 44.2115 48.5977 36.8093 34.5278 36.8093C20.458 36.8093 10.5969 50.7863 9.21963 60.7609L4.06934 83.2155L10.8131 84.228C10.8131 84.228 11.1024 99.438 14.7289 103.338C18.3553 107.238 34.6744 104.737 34.6744 104.737Z" fill="white"/>
<path opacity="0.41" d="M34.6744 104.737L33.5864 118.001H62.8141C62.8141 118.001 59.5503 91.4844 59.5503 91.248C59.5503 91.0116 65.4955 82.9043 64.1915 65.6655C62.5651 44.2115 48.5977 36.8093 34.5278 36.8093C20.458 36.8093 10.5969 50.7863 9.21963 60.7609L4.06934 83.2155L10.8131 84.228C10.8131 84.228 11.1024 99.438 14.7289 103.338C18.3553 107.238 34.6744 104.737 34.6744 104.737Z" fill="#97C233"/>
<path d="M60.0742 66.2681C59.5357 68.9311 56.25 70.2272 56.25 70.2272C56.0485 70.7078 57.1694 80.0994 57.4808 80.6351C57.7921 81.1709 55.9459 82.5536 55.7005 82.2463C55.4551 81.9391 53.2975 75.8251 48.8066 74.726C48.748 74.8087 46.9054 77.3497 43.3523 77.4403C39.7405 77.5348 37.1104 74.7575 37.1104 74.7575C37.1104 74.7575 34.5645 78.7994 29.2238 77.7554C23.883 76.7115 22.7474 72.1811 22.7474 72.1811C22.7474 72.1811 15.8499 74.4227 13.1978 68.356C11.1684 63.7154 13.3956 60.3314 14.5421 59.0078C14.8718 58.6256 15.1136 58.4129 15.1392 58.3932C15.1392 58.3932 14.5714 52.7599 17.8059 49.8132C21.0404 46.8626 25.3116 47.2171 25.3116 47.2171C25.3116 47.2171 27.0296 41.5168 31.9747 40.4098C36.9199 39.3029 39.9163 42.3835 39.9163 42.3835C39.9163 42.3835 44.1105 40.0277 49.2462 42.3283C54.3818 44.6289 54.2243 50.1165 54.2243 50.1165C54.2243 50.1165 57.957 51.4323 59.1951 54.7178C60.4332 57.9993 58.4075 61.2847 58.4075 61.2847C58.4075 61.2847 60.609 63.6051 60.0706 66.2642L60.0742 66.2681Z" fill="#97C233"/>
<g style="mix-blend-mode:multiply" opacity="0.1">
<g style="mix-blend-mode:multiply">
<path d="M48.8105 74.7301C48.7519 74.8128 46.9094 77.3537 43.3562 77.4443C39.7444 77.5389 37.1143 74.7616 37.1143 74.7616C37.1143 74.7616 34.5684 78.8034 29.2277 77.7595C23.8869 76.7155 22.7513 72.1852 22.7513 72.1852C22.7513 72.1852 15.8538 74.4267 13.2017 68.36C11.1723 63.7194 13.3995 60.3355 14.546 59.0118L15.1431 58.3973C15.1102 58.4918 13.2237 64.1488 16.5754 67.6943C19.9564 71.2673 24.7624 68.9273 24.7624 68.9273C24.7624 68.9273 25.3814 74.5252 29.5317 75.8095C34.1435 77.2355 37.1363 73.4616 37.1363 73.4616C37.1363 73.4616 42.5283 79.7804 48.8105 74.7261V74.7301Z" fill="#222221"/>
</g>
</g>
<g style="mix-blend-mode:multiply" opacity="0.1">
<path d="M55.7045 82.2505C55.459 81.9432 53.3015 75.8292 48.8105 74.7301C48.8105 74.7301 52.4883 72.402 54.1916 74.0329C55.8949 75.6598 55.7045 82.2505 55.7045 82.2505Z" fill="#222221"/>
</g>
<path d="M50.8027 38.07C51.0664 37.9124 51.495 37.6839 51.8064 37.7509C52.0481 37.8021 52.1067 38.0936 52.0225 38.3063C51.8943 38.6254 51.55 38.9169 51.2679 39.0785C51.0994 39.173 50.9236 39.2124 50.7441 39.24C50.5499 39.3109 50.3155 39.37 50.1287 39.3463C50.114 39.3463 50.103 39.3542 50.0884 39.3582C50.0554 39.37 50.0334 39.3503 50.0261 39.3227C50.0151 39.3188 50.0005 39.3148 49.9895 39.3109C49.4876 39.0666 50.6085 38.1881 50.799 38.0739L50.8027 38.07Z" fill="#97C233"/>
<g style="mix-blend-mode:multiply" opacity="0.3">
<path d="M50.8027 38.07C51.0664 37.9124 51.495 37.6839 51.8064 37.7509C52.0481 37.8021 52.1067 38.0936 52.0225 38.3063C51.8943 38.6254 51.55 38.9169 51.2679 39.0785C51.0994 39.173 50.9236 39.2124 50.7441 39.24C50.5499 39.3109 50.3155 39.37 50.1287 39.3463C50.114 39.3463 50.103 39.3542 50.0884 39.3582C50.0554 39.37 50.0334 39.3503 50.0261 39.3227C50.0151 39.3188 50.0005 39.3148 49.9895 39.3109C49.4876 39.0666 50.6085 38.1881 50.799 38.0739L50.8027 38.07Z" fill="#222221"/>
</g>
<path d="M45.418 39.1691C45.2971 39.5236 45.0993 40.1342 45.3374 40.4848C45.3667 40.5282 45.4107 40.5557 45.4656 40.5439C45.6158 40.5085 45.7221 40.3863 45.8063 40.2603C46.114 39.9451 46.3631 39.4763 46.4876 39.0982C46.5902 38.7948 46.44 38.3418 46.081 38.3418C45.7147 38.3418 45.5206 38.8657 45.418 39.1651V39.1691Z" fill="#97C233"/>
<g style="mix-blend-mode:multiply" opacity="0.3">
<path d="M45.418 39.1691C45.2971 39.5236 45.0993 40.1342 45.3374 40.4848C45.3667 40.5282 45.4107 40.5557 45.4656 40.5439C45.6158 40.5085 45.7221 40.3863 45.8063 40.2603C46.114 39.9451 46.3631 39.4763 46.4876 39.0982C46.5902 38.7948 46.44 38.3418 46.081 38.3418C45.7147 38.3418 45.5206 38.8657 45.418 39.1651V39.1691Z" fill="#222221"/>
</g>
<path d="M42.6927 42.1078C42.7807 42.4032 43.0774 42.7617 43.2642 42.3165C43.2752 42.289 43.2752 42.2614 43.2642 42.2417C43.5169 41.7138 43.7477 41.1426 43.5096 40.5517C43.3521 40.1656 42.9748 40.1538 42.7221 40.4571C42.3631 40.8865 42.5462 41.6232 42.6927 42.1078Z" fill="#97C233"/>
<g style="mix-blend-mode:multiply" opacity="0.3">
<path d="M42.6927 42.1078C42.7807 42.4032 43.0774 42.7617 43.2642 42.3165C43.2752 42.289 43.2752 42.2614 43.2642 42.2417C43.5169 41.7138 43.7477 41.1426 43.5096 40.5517C43.3521 40.1656 42.9748 40.1538 42.7221 40.4571C42.3631 40.8865 42.5462 41.6232 42.6927 42.1078Z" fill="#222221"/>
</g>
<path d="M50.2642 39.3463C49.8392 39.6693 48.9894 39.8624 48.711 39.9175C48.6048 39.9924 46.8758 40.9142 46.2384 41.4814C45.8172 41.8596 45.4326 42.2851 45.0772 42.7421C45.8025 42.2457 46.5828 41.8202 47.385 41.5011C48.1249 41.2057 48.9784 41.0836 49.7294 41.4302C49.7294 41.4578 48.7623 41.9187 48.3447 42.1511C47.9637 42.3678 47.6084 42.6436 47.2128 42.8248C46.5058 43.1518 45.6304 43.1833 44.8758 43.0612C44.8648 43.0612 44.8575 43.0533 44.8501 43.0454C44.3556 43.7427 43.9307 44.499 43.6596 45.3224C42.9563 47.4497 42.9966 49.5848 43.275 51.586C43.253 51.5506 43.2274 51.5151 43.1981 51.4797C43.1212 51.3733 43.0332 51.2669 42.9453 51.1685C42.8647 50.5421 42.8171 49.9157 42.8061 49.2894C42.8061 49.2815 42.8061 49.2697 42.7988 49.2618C42.1431 48.8521 41.601 48.336 41.2823 47.5757C40.927 46.7248 40.5204 44.8457 40.5387 44.8615C41.3226 45.2987 41.9929 46.126 42.3336 47.0006C42.5277 47.4969 42.6999 48.0366 42.8171 48.5881C42.8281 48.2887 42.8464 47.9933 42.8757 47.6978C42.7805 46.65 42.7658 45.5784 42.8318 44.5384C42.8611 44.0736 42.916 43.6166 42.9929 43.1596C42.927 42.8799 42.7732 42.5727 42.7658 42.2733C42.7622 42.1669 42.7768 42.0645 42.8208 41.966C42.9124 41.7572 43.1138 41.6075 43.33 41.6942C43.3666 41.7099 43.3886 41.7414 43.3922 41.7848C43.3959 41.8399 43.3995 41.899 43.3959 41.9542C43.3849 42.3402 43.2201 42.7736 43.1505 43.136C43.0406 43.7387 42.982 44.3493 42.9563 44.9599C42.9307 45.606 42.9563 46.2521 42.9893 46.8942C43.0809 46.4018 43.2054 45.9212 43.3629 45.4563C43.5204 44.5266 43.7805 43.6087 44.1761 42.7775C44.4215 42.2614 44.6926 41.7611 44.9893 41.2766C45.0296 41.0481 45.0956 40.5557 45.2384 40.2051C45.3263 39.9727 45.4509 39.7993 45.623 39.8072C45.8904 39.823 45.8978 40.0199 45.8099 40.2602C45.6816 40.6069 45.352 41.0324 45.3044 41.1033C44.7988 41.9148 44.3043 42.7775 43.9783 43.6915C43.8831 43.9672 43.8025 44.2469 43.7366 44.5305C44.3446 43.2187 45.2348 42.0605 46.3593 41.1702C47.0919 40.5872 47.9161 40.1814 48.722 39.7442C49.0883 39.4527 49.4326 39.1454 49.7916 38.8263C49.9015 38.7278 50.0554 38.582 50.1982 38.5702C50.2751 38.5623 50.3484 38.5939 50.4143 38.6845C50.6048 38.9445 50.5023 39.1611 50.2678 39.3423L50.2642 39.3463Z" fill="#455A64"/>
<g style="mix-blend-mode:multiply" opacity="0.1">
<path d="M37.2898 50.3293C37.9272 50.0142 38.6268 49.8448 39.3375 49.7896C39.6928 49.7542 40.0518 49.7817 40.4107 49.8211C40.7697 49.8684 41.1214 49.9708 41.4657 50.0969C41.8027 50.2505 42.136 50.4278 42.4218 50.672C42.7075 50.9123 42.9786 51.1763 43.1983 51.4796C43.6526 52.0745 43.9969 52.7599 44.18 53.4887C43.8247 52.8426 43.4108 52.2478 42.9383 51.7317C42.4657 51.2196 41.9163 50.7981 41.3045 50.546C40.6855 50.2978 40.0188 50.1835 39.3411 50.1599C38.6635 50.1402 37.9748 50.1993 37.2861 50.3254L37.2898 50.3293Z" fill="#222221"/>
<path d="M48.4109 52.5552C48.03 52.3188 47.6417 52.1337 47.2461 51.9997C46.8505 51.8658 46.4475 51.7752 46.0409 51.7555C45.9384 51.7397 45.8358 51.7516 45.7369 51.7476C45.6343 51.7476 45.5318 51.7476 45.4292 51.7555L45.1215 51.7791C45.0189 51.7988 44.9164 51.8185 44.8138 51.8343L44.66 51.8579L44.5061 51.8973L44.1947 51.9761C43.986 52.0313 43.7881 52.114 43.5684 52.1613C43.7405 52.0155 43.92 51.8776 44.1142 51.7555C44.3156 51.657 44.5098 51.527 44.7296 51.4679C44.8358 51.4285 44.9457 51.3931 45.0519 51.3616L45.3889 51.2985C45.5025 51.2749 45.616 51.271 45.7296 51.267C45.8431 51.267 45.9567 51.2513 46.0702 51.267C46.5281 51.2906 46.975 51.4325 47.3816 51.6452C47.7846 51.8619 48.1509 52.1613 48.4109 52.5473V52.5552Z" fill="#222221"/>
</g>
<path d="M58.0308 51.5075C57.3165 51.9448 56.5765 52.3348 55.8146 52.6657C55.5033 52.7997 55.093 53.04 54.6974 53.1345C54.4703 53.1897 54.2468 53.1975 54.0563 53.1069C53.9611 53.0951 53.8622 53.036 53.7633 52.9139C53.745 52.8903 53.734 52.8627 53.734 52.8391C53.4116 52.5239 53.3164 52.0236 53.2175 51.5587C53.016 50.633 52.9061 49.6836 52.8878 48.7342C52.8805 48.3875 52.8219 47.9345 52.9684 47.6075C53.06 47.4105 53.1699 47.3908 53.3164 47.2805C53.6534 47.0205 53.6644 46.6778 53.9098 46.3508C54.038 46.1854 54.2212 46.0199 54.4373 46.0711C54.9538 46.1815 54.8989 47.2609 54.9282 47.6548C54.9941 48.4702 54.9941 49.2896 54.9282 50.1051C54.8732 50.8103 54.7963 51.5863 54.6168 52.2915C55.2981 51.1687 56.1663 50.1563 57.1077 49.2975C57.452 48.9824 58.0015 48.4663 58.496 48.6554C58.6975 48.7302 58.6755 48.8957 58.8037 49.0099C59.0821 49.2542 59.3788 49.0021 59.6682 49.1596C60.7415 49.7387 58.4081 51.2869 58.0345 51.5154L58.0308 51.5075Z" fill="#97C233"/>
<g style="mix-blend-mode:multiply" opacity="0.3">
<path d="M58.0308 51.5075C57.3165 51.9448 56.5765 52.3348 55.8146 52.6657C55.5033 52.7997 55.093 53.04 54.6974 53.1345C54.4703 53.1897 54.2468 53.1975 54.0563 53.1069C53.9611 53.0951 53.8622 53.036 53.7633 52.9139C53.745 52.8903 53.734 52.8627 53.734 52.8391C53.4116 52.5239 53.3164 52.0236 53.2175 51.5587C53.016 50.633 52.9061 49.6836 52.8878 48.7342C52.8805 48.3875 52.8219 47.9345 52.9684 47.6075C53.06 47.4105 53.1699 47.3908 53.3164 47.2805C53.6534 47.0205 53.6644 46.6778 53.9098 46.3508C54.038 46.1854 54.2212 46.0199 54.4373 46.0711C54.9538 46.1815 54.8989 47.2609 54.9282 47.6548C54.9941 48.4702 54.9941 49.2896 54.9282 50.1051C54.8732 50.8103 54.7963 51.5863 54.6168 52.2915C55.2981 51.1687 56.1663 50.1563 57.1077 49.2975C57.452 48.9824 58.0015 48.4663 58.496 48.6554C58.6975 48.7302 58.6755 48.8957 58.8037 49.0099C59.0821 49.2542 59.3788 49.0021 59.6682 49.1596C60.7415 49.7387 58.4081 51.2869 58.0345 51.5154L58.0308 51.5075Z" fill="#222221"/>
</g>
<path d="M57.2681 47.3595C56.4989 49.0338 55.6344 50.6529 54.8871 52.3429C54.8688 52.3823 54.8029 52.3508 54.8175 52.3114C55.3963 50.7632 56.1802 49.3214 56.8872 47.8441C57.2462 47.0956 57.5575 46.3629 57.737 45.5435C57.8542 44.9959 57.8835 44.4916 58.2389 44.0701C58.2938 44.0032 58.411 43.9874 58.4586 44.1056C58.6674 44.6453 58.0813 45.4016 57.7663 45.9059C57.6418 46.4062 57.4916 46.8829 57.2681 47.3674V47.3595Z" fill="#263239"/>
<path d="M54.2173 47.1311C53.6605 48.6674 53.5359 50.3417 53.3528 51.9647C53.3491 52.0041 53.2979 52.0041 53.2979 51.9647C53.3125 49.802 53.796 47.4029 54.851 45.5474C54.9426 45.382 55.5616 44.3617 55.8144 44.7004C55.9463 44.8817 55.6532 45.1771 55.558 45.2795C55.2503 45.6262 54.8693 45.8704 54.5873 46.2526C54.5873 46.2526 54.5799 46.2565 54.5763 46.2565C54.4371 46.5559 54.3198 46.8553 54.2173 47.1311Z" fill="#263239"/>
<path d="M59.8472 47.6629C59.7373 48.3917 59.4039 49.1008 59.045 49.7193C58.2574 51.0666 57.1328 52.142 55.9423 53.0638C55.913 53.0875 55.8801 53.0323 55.9057 53.0126C57.0413 52.0278 58.1658 50.9996 58.9497 49.6562C59.1549 49.3096 59.3343 48.9432 59.4809 48.5611C59.4919 48.5335 59.5028 48.502 59.5175 48.4705C59.5102 48.4666 59.5065 48.4587 59.5102 48.4508C59.5724 47.9741 59.5615 47.5723 59.5321 47.0956C59.5175 46.8868 59.5028 46.7096 59.6127 46.5323C59.6237 46.5165 59.6347 46.5126 59.653 46.5126C60.0083 46.6111 59.8948 47.395 59.8545 47.6629H59.8472Z" fill="#263239"/>
<path d="M59.1369 52.8077C57.624 53.7098 55.8145 54.0131 54.2137 54.7104C53.8474 54.868 53.4921 55.0452 53.1367 55.2304C53.0415 55.2777 52.9243 55.3565 52.7997 55.4037C52.7228 55.4313 52.6459 55.4431 52.5726 55.4274C52.5397 55.4234 52.5104 55.4116 52.4811 55.3919C52.3638 55.3249 52.3235 55.2146 52.3016 55.0846C52.2539 54.8561 52.3016 54.5686 52.3309 54.3007C52.3089 54.021 52.2649 53.7413 52.2393 53.4931C52.2027 53.1307 52.1587 52.7683 52.1074 52.4098C51.9939 51.6416 51.8144 50.8931 51.6349 50.1407C51.481 49.5025 51.3528 48.8525 51.3821 48.1907C51.3968 47.8401 51.4407 47.1861 51.7301 46.9537C51.9902 46.7488 52.177 46.934 52.2796 47.194C52.3785 47.4422 52.3748 47.7179 52.4518 47.9661C52.569 48.3443 52.7778 48.3798 53.0085 48.6161C53.3162 48.9352 53.3822 49.4158 53.3639 49.8531C53.3455 50.2076 53.3089 50.5661 53.265 50.9246C53.3639 50.6016 53.4738 50.2864 53.5873 49.9752C53.7888 49.4198 53.9939 48.7264 54.3785 48.2773C54.5067 48.1276 54.6496 48.0134 54.8291 47.9385C55.2284 47.7652 55.5068 47.6746 55.8035 47.3161C56.0709 47.001 56.4152 46.4258 56.8841 46.5007C57.3566 46.5795 57.3017 47.0837 57.3346 47.4619C57.3896 48.1631 57.9244 48.5452 57.8035 49.3095C57.7046 49.9319 57.3017 50.4677 56.9427 50.9443C56.6643 51.3146 56.3639 51.677 56.0379 52.008C56.4702 51.7243 56.939 51.5077 57.4262 51.3619C57.6313 51.2989 57.8658 51.2319 58.0819 51.2949C58.3969 51.3855 58.4152 51.6022 58.8182 51.5549C59.1149 51.5195 59.7743 51.2792 59.9354 51.7361C60.1003 52.2128 59.4372 52.6264 59.1369 52.8077Z" fill="#97C233"/>
<g style="mix-blend-mode:multiply" opacity="0.1">
<path d="M59.1369 52.8077C57.624 53.7098 55.8145 54.0131 54.2137 54.7104C53.8474 54.868 53.4921 55.0452 53.1367 55.2304C53.0415 55.2777 52.9243 55.3565 52.7997 55.4037C52.7228 55.4313 52.6459 55.4431 52.5726 55.4274C52.5397 55.4234 52.5104 55.4116 52.4811 55.3919C52.3638 55.3249 52.3235 55.2146 52.3016 55.0846C52.2539 54.8561 52.3016 54.5686 52.3309 54.3007C52.3089 54.021 52.2649 53.7413 52.2393 53.4931C52.2027 53.1307 52.1587 52.7683 52.1074 52.4098C51.9939 51.6416 51.8144 50.8931 51.6349 50.1407C51.481 49.5025 51.3528 48.8525 51.3821 48.1907C51.3968 47.8401 51.4407 47.1861 51.7301 46.9537C51.9902 46.7488 52.177 46.934 52.2796 47.194C52.3785 47.4422 52.3748 47.7179 52.4518 47.9661C52.569 48.3443 52.7778 48.3798 53.0085 48.6161C53.3162 48.9352 53.3822 49.4158 53.3639 49.8531C53.3455 50.2076 53.3089 50.5661 53.265 50.9246C53.3639 50.6016 53.4738 50.2864 53.5873 49.9752C53.7888 49.4198 53.9939 48.7264 54.3785 48.2773C54.5067 48.1276 54.6496 48.0134 54.8291 47.9385C55.2284 47.7652 55.5068 47.6746 55.8035 47.3161C56.0709 47.001 56.4152 46.4258 56.8841 46.5007C57.3566 46.5795 57.3017 47.0837 57.3346 47.4619C57.3896 48.1631 57.9244 48.5452 57.8035 49.3095C57.7046 49.9319 57.3017 50.4677 56.9427 50.9443C56.6643 51.3146 56.3639 51.677 56.0379 52.008C56.4702 51.7243 56.939 51.5077 57.4262 51.3619C57.6313 51.2989 57.8658 51.2319 58.0819 51.2949C58.3969 51.3855 58.4152 51.6022 58.8182 51.5549C59.1149 51.5195 59.7743 51.2792 59.9354 51.7361C60.1003 52.2128 59.4372 52.6264 59.1369 52.8077Z" fill="#222221"/>
</g>
<path d="M52.1694 50.1051C52.1694 50.1051 52.1618 50.1281 52.1694 50.1242C52.1809 50.1242 52.1771 50.1013 52.1694 50.1051Z" fill="#F2D2C6"/>
<path d="M57.8919 52.7444C56.401 53.7686 53.8039 53.5717 52.8002 55.3168C52.8002 55.3444 52.8002 55.372 52.8002 55.3996C52.7233 55.4271 52.6464 55.439 52.5731 55.4232C52.346 54.8165 52.4559 54.1389 52.4779 53.4889C52.5108 52.5002 52.4852 51.5232 52.2874 50.5541C52.2837 50.5265 52.3167 50.5186 52.3277 50.5462C52.5438 51.2947 52.6281 52.0589 52.6464 52.835C52.6647 53.6189 52.4632 54.5762 52.6793 55.3483C52.6867 55.3208 52.6903 55.2932 52.694 55.2696C52.6903 54.3793 53.0273 53.4811 53.368 52.6932C53.8039 51.6729 54.3607 50.7156 54.8772 49.7426C54.8992 49.7032 54.9505 49.7426 54.9285 49.782C54.4743 50.7392 54.009 51.6965 53.5841 52.6695C53.335 53.2368 53.075 53.8711 52.9248 54.5132C53.7636 52.4568 56.0018 51.2671 56.6941 49.1201C56.7124 49.0729 56.782 49.1004 56.7673 49.1477C56.0604 51.4326 53.7856 52.7011 52.9321 54.8796C53.064 54.7023 53.2251 54.5486 53.4046 54.4147C53.7636 54.0286 54.1775 53.7056 54.6354 53.4456C55.3717 53.028 56.1776 52.8271 56.8919 52.3544C56.9175 52.3386 56.9432 52.382 56.9212 52.4017C56.3717 52.9059 55.6574 53.0989 55.0091 53.4102C54.6208 53.5992 54.2508 53.8317 53.9101 54.1035C54.1226 53.9932 54.3387 53.9026 54.5512 53.8238C55.6538 53.4023 56.793 53.2092 57.8626 52.6735C57.9066 52.6538 57.9359 52.7168 57.8956 52.7444H57.8919Z" fill="white"/>
<path d="M52.0674 48.8641C52.0121 49.1241 52.0526 49.3408 52.1079 49.5929C52.1116 49.6165 52.1447 49.6087 52.1411 49.585C52.1005 49.3605 52.1226 49.1044 52.13 48.8759C52.13 48.8365 52.0747 48.8208 52.0674 48.8641Z" fill="white"/>
<path d="M56.8259 48.3637C56.7964 48.4977 56.8038 48.6355 56.778 48.7695C56.7706 48.8128 56.8296 48.8207 56.8443 48.7852C56.8922 48.6631 56.9327 48.4977 56.8996 48.3677C56.8885 48.3322 56.8332 48.3204 56.8259 48.3637Z" fill="white"/>
<path d="M58.4774 52.2479C58.4188 52.2873 58.3492 52.3227 58.2943 52.37C58.2759 52.3858 58.2869 52.4212 58.3126 52.4212C58.3932 52.4212 58.4664 52.3739 58.525 52.3188C58.558 52.2873 58.5214 52.2203 58.4811 52.2479H58.4774Z" fill="white"/>
<path d="M52.0561 54.3596C52.1074 54.9781 52.2393 55.64 51.9536 56.2506C51.9279 56.3018 51.9755 56.353 52.0122 56.3096C52.2979 55.9827 54.1587 55.1987 54.0745 54.8599C54.0232 54.6551 53.5067 54.9112 53.4334 54.6236C53.4041 54.5015 53.4994 54.2572 53.5287 54.1312C53.569 53.9657 53.6019 53.8002 53.6276 53.6348C53.6496 53.4812 53.6459 53.2842 53.5214 53.2251C53.3748 53.1542 53.2173 53.3551 53.1148 53.489C53.0305 53.5993 52.9572 53.7175 52.884 53.8357C52.7997 53.9657 52.6825 54.206 52.5726 53.9972C52.4774 53.8121 52.4481 53.5915 52.3016 53.4536C51.9719 53.1424 52.0378 54.1745 52.0525 54.3596H52.0561Z" fill="#455A64"/>
<path d="M51.3746 62.53C51.305 62.3488 51.2244 62.1754 51.1365 62.0021C51.0669 61.8603 50.9864 61.7224 50.8984 61.5885C50.9058 61.4742 50.9131 61.36 50.9241 61.2457C50.979 60.6075 51.0559 59.9694 51.1585 59.3391C51.1842 59.1618 51.2171 58.9845 51.2501 58.8072C51.3234 58.3975 51.4076 57.9878 51.4992 57.5821C51.642 56.9675 51.8142 56.3924 52.0816 55.8645C52.1732 55.6793 52.2758 55.5021 52.3966 55.3287C52.4296 55.2815 52.4626 55.2342 52.4992 55.1909C52.5358 55.1436 52.5725 55.0963 52.6091 55.049C52.6384 55.0096 52.6714 54.9781 52.7007 54.9387C52.708 54.9309 52.708 54.9269 52.7153 54.923C52.752 54.8796 52.8142 54.9387 52.7776 54.9821C52.7483 55.0215 52.719 55.0609 52.6897 55.1042C52.6714 55.1318 52.6531 55.1633 52.6311 55.1909C52.5981 55.2421 52.5688 55.2933 52.5358 55.3406C52.5248 55.3642 52.5102 55.3878 52.4992 55.4075C52.36 55.6557 52.2501 55.9157 52.1549 56.1836C51.8215 57.1566 51.7336 58.2557 51.6164 59.2524C51.5578 59.7448 51.5102 60.2412 51.4735 60.7336C51.4699 60.773 51.4662 60.8163 51.4625 60.8597C51.4186 61.4151 51.3856 61.9706 51.3673 62.53H51.3746Z" fill="#455A64"/>
<path d="M51.2467 59.4218C51.2467 59.4218 51.3162 57.2787 50.9353 56.1954C50.5543 55.1081 49.3528 53.7096 49.3528 53.7096C49.3528 53.7096 48.5103 56.9951 51.2467 59.4257V59.4218Z" fill="#455A64"/>
<path d="M51.4229 60.8754C51.4229 60.8754 52.1445 58.8781 52.8918 58.039C53.639 57.2039 55.2581 56.4239 55.2581 56.4239C55.2581 56.4239 54.8259 59.8 51.4229 60.8715V60.8754Z" fill="#455A64"/>
<g style="mix-blend-mode:multiply" opacity="0.1">
<path d="M44.4844 59.2206C45.2903 59 46.1474 58.9843 46.9826 59.1103C47.8178 59.2443 48.642 59.5437 49.3709 60.0282C49.7262 60.2803 50.0816 60.5521 50.3746 60.8909C50.664 61.2297 50.9351 61.5961 51.1365 62.0018C51.5431 62.8055 51.7922 63.6958 51.8032 64.594C51.6091 63.7273 51.2757 62.9158 50.8398 62.1949C50.3929 61.4779 49.8215 60.8791 49.1401 60.434C48.9716 60.3197 48.7958 60.2212 48.62 60.1188C48.4368 60.0321 48.261 59.9337 48.0705 59.8588C47.7042 59.6855 47.3123 59.5831 46.9203 59.4728C46.1328 59.2876 45.3159 59.1931 44.488 59.2167L44.4844 59.2206Z" fill="#222221"/>
<path d="M56.4484 61.8166C55.9978 61.6984 55.5546 61.6196 55.1113 61.5802C54.6718 61.5408 54.2322 61.5605 53.8073 61.6314C53.5912 61.6551 53.386 61.7299 53.1772 61.7811C52.9758 61.8599 52.767 61.9308 52.5728 62.0372C52.1662 62.2263 51.8109 62.5099 51.4189 62.7896C51.6717 62.376 51.994 61.982 52.4006 61.7102C52.5911 61.5526 52.8219 61.462 53.038 61.3478C53.2651 61.269 53.4959 61.1823 53.7377 61.1548C54.2139 61.072 54.7011 61.0957 55.1626 61.2099C55.6242 61.3242 56.0674 61.5172 56.4447 61.8166H56.4484Z" fill="#222221"/>
</g>
<path d="M15.9116 47.5126C16.8493 48.3359 18.0472 48.6669 19.1827 49.0332C19.5014 49.1356 19.8128 49.2459 20.1241 49.3641C20.3403 49.4469 20.582 49.5335 20.8128 49.4784C21.2194 49.3878 21.2597 48.9938 21.267 48.6156C21.278 48.4975 21.278 48.3714 21.2743 48.2493C21.2743 48.2217 21.278 48.1941 21.2817 48.1665C21.2817 48.1469 21.2817 48.1311 21.267 48.1193C21.2597 47.9735 21.245 47.8278 21.234 47.6899C21.1754 46.902 21.1095 46.1181 21.0472 45.3302C20.9959 44.6959 20.974 44.0459 20.8238 43.4274C20.7688 43.2068 20.7102 42.9153 20.5051 42.8011C20.3915 42.738 20.256 42.738 20.1351 42.6868C20.0252 42.6396 19.9373 42.5608 19.8567 42.4702C19.6553 42.2456 19.2963 41.5562 18.9226 41.7768C18.7322 41.8911 18.6882 42.155 18.6333 42.3599C18.5527 42.6593 18.3585 42.8247 18.19 43.0571C17.908 43.4511 17.9776 43.9632 18.1351 44.3965C18.3402 44.9717 18.6552 45.4956 18.9886 45.992C19.3329 46.5041 19.7065 46.9926 20.0509 47.5008C20.2414 47.7805 20.4245 48.072 20.5857 48.3714C20.6663 48.5172 20.7395 48.6669 20.8091 48.8205C20.8567 48.9229 20.9117 49.0332 20.9337 49.1514C20.5344 48.5802 20.0472 48.0878 19.582 47.5756C19.0875 47.0359 18.6552 46.4214 18.0948 45.9605C17.6699 45.6138 17.1754 45.3814 16.6405 45.3774C16.3328 45.3774 16.0545 45.3735 15.7577 45.2632C15.5013 45.1687 15.2486 45.0308 14.9775 44.9914C14.3877 44.9008 14.6808 45.6493 14.809 45.9565C15.0581 46.5593 15.4427 47.0911 15.9153 47.5087L15.9116 47.5126Z" fill="#97C233"/>
<g style="mix-blend-mode:multiply" opacity="0.3">
<path d="M15.9116 47.5126C16.8493 48.3359 18.0472 48.6669 19.1827 49.0332C19.5014 49.1356 19.8128 49.2459 20.1241 49.3641C20.3403 49.4469 20.582 49.5335 20.8128 49.4784C21.2194 49.3878 21.2597 48.9938 21.267 48.6156C21.278 48.4975 21.278 48.3714 21.2743 48.2493C21.2743 48.2217 21.278 48.1941 21.2817 48.1665C21.2817 48.1469 21.2817 48.1311 21.267 48.1193C21.2597 47.9735 21.245 47.8278 21.234 47.6899C21.1754 46.902 21.1095 46.1181 21.0472 45.3302C20.9959 44.6959 20.974 44.0459 20.8238 43.4274C20.7688 43.2068 20.7102 42.9153 20.5051 42.8011C20.3915 42.738 20.256 42.738 20.1351 42.6868C20.0252 42.6396 19.9373 42.5608 19.8567 42.4702C19.6553 42.2456 19.2963 41.5562 18.9226 41.7768C18.7322 41.8911 18.6882 42.155 18.6333 42.3599C18.5527 42.6593 18.3585 42.8247 18.19 43.0571C17.908 43.4511 17.9776 43.9632 18.1351 44.3965C18.3402 44.9717 18.6552 45.4956 18.9886 45.992C19.3329 46.5041 19.7065 46.9926 20.0509 47.5008C20.2414 47.7805 20.4245 48.072 20.5857 48.3714C20.6663 48.5172 20.7395 48.6669 20.8091 48.8205C20.8567 48.9229 20.9117 49.0332 20.9337 49.1514C20.5344 48.5802 20.0472 48.0878 19.582 47.5756C19.0875 47.0359 18.6552 46.4214 18.0948 45.9605C17.6699 45.6138 17.1754 45.3814 16.6405 45.3774C16.3328 45.3774 16.0545 45.3735 15.7577 45.2632C15.5013 45.1687 15.2486 45.0308 14.9775 44.9914C14.3877 44.9008 14.6808 45.6493 14.809 45.9565C15.0581 46.5593 15.4427 47.0911 15.9153 47.5087L15.9116 47.5126Z" fill="#222221"/>
</g>
<path d="M20.6117 48.5172C20.7326 47.6506 20.7289 46.78 20.6117 45.9054C20.3846 44.239 19.7582 42.6515 19.0036 41.1821C18.8424 40.8669 18.6666 40.5478 18.4248 40.2957C18.3223 40.1893 18.0915 40.0711 18.0988 40.3311C18.1061 40.5715 18.3149 40.796 18.4724 40.9418C18.6739 41.1308 18.901 41.2845 19.0695 41.509C19.1977 41.769 19.3259 42.033 19.4432 42.2969C19.7435 42.9627 19.9999 43.6521 20.2087 44.3612C20.597 45.7006 20.7838 47.1345 20.6007 48.5212C20.6007 48.533 20.6153 48.5369 20.619 48.5212L20.6117 48.5172Z" fill="#263239"/>
<path d="M20.4433 48.9033C19.6375 48.7772 18.8609 48.5212 18.1209 48.1469C16.7033 47.43 15.4689 46.3309 14.3809 45.1254C14.1465 44.8654 13.9121 44.5936 13.7582 44.2706C13.6923 44.1327 13.6556 43.8609 13.8828 43.9436C14.0952 44.0184 14.2344 44.2981 14.3187 44.503C14.4286 44.7669 14.5018 45.0466 14.652 45.283C14.8461 45.4918 15.044 45.6966 15.2454 45.8936C15.7546 46.3939 16.2931 46.8587 16.8608 47.2763C17.9414 48.0642 19.1649 48.6669 20.4507 48.8797C20.4616 48.8797 20.458 48.8994 20.4507 48.8954L20.4433 48.9033Z" fill="#263239"/>
<path d="M16.421 43.1124C16.8422 43.7151 17.2818 44.31 17.7323 44.8891C18.6298 46.0473 19.5932 47.1267 20.6005 48.1785C20.6079 48.1864 20.6225 48.1706 20.6115 48.1627C19.6262 47.107 18.6957 45.9764 17.8056 44.83C17.3624 44.2588 16.9338 43.6758 16.5162 43.0809C16.4319 42.9588 16.3477 42.8367 16.2634 42.7106C16.1206 42.3127 16.0217 41.9503 15.8495 41.5682C15.7689 41.387 15.5675 40.9694 15.377 41.1191C15.1279 41.316 15.9997 42.5097 16.421 43.1124Z" fill="#263239"/>
<path d="M14.5237 47.4536C14.7728 47.8988 15.1464 48.2809 15.52 48.5961C16.3479 49.3012 17.3406 49.7424 18.3369 50.034C19.315 50.3215 20.337 50.4515 21.3297 50.2703C21.3407 50.2703 21.3517 50.2664 21.3627 50.2624C21.37 50.2664 21.381 50.2624 21.3883 50.2585C21.4066 50.2585 21.4579 50.2427 21.4652 50.2349C21.4652 50.2349 21.5605 50.2152 21.5385 50.2033C21.5385 50.1994 21.5934 50.1285 21.674 50.0261C21.8205 49.8409 22.0476 49.5494 22.1502 49.3367C22.3041 49.0215 22.392 48.6709 22.4396 48.3124C22.5495 47.497 22.4506 46.6618 22.5312 45.8424C22.6044 45.1333 22.8535 44.4479 22.8315 43.723C22.8279 43.5615 22.8096 43.3054 22.6008 43.3488C22.337 43.4039 22.3004 43.7979 22.1282 43.9594C22.1136 43.9988 22.0843 44.0145 22.0367 43.9988C21.9781 44.0303 21.9414 44.0106 21.9231 43.9397C21.9011 43.9121 21.8755 43.8373 21.8645 43.8097C21.8242 43.7151 21.7912 43.6167 21.7619 43.5142C21.7106 43.3409 21.6667 43.1597 21.6227 42.9824C21.5495 42.6988 21.4872 42.3048 21.2931 42.0842C21.1502 41.9188 20.9597 41.9503 20.8645 42.1433C20.7399 42.3994 20.7656 42.7697 20.7619 43.0533C20.7619 43.27 20.7216 43.5812 20.4505 43.5182C20.3407 43.4945 20.2381 43.4236 20.1282 43.4C19.9157 43.3527 19.7362 43.4906 19.6557 43.6994C19.5384 43.9988 19.6373 44.3809 19.6996 44.6882C19.7765 45.0821 19.8864 45.4682 20.011 45.8503C20.2491 46.5752 20.7949 47.9421 21.0769 48.6473C21.2271 49.0333 19.5201 45.027 18.8571 44.2194C18.7179 44.05 18.4798 43.9673 18.2674 43.9515C18.1245 43.9397 17.989 44.0106 17.8498 44.0067C17.7032 44.0067 17.564 43.9397 17.4322 43.8767C17.0805 43.7073 16.4761 43.5064 16.3772 44.0973C16.3332 44.3691 16.4468 44.6291 16.4505 44.9009C16.4541 45.1648 16.3076 45.3815 16.2197 45.6139C16.0146 46.1773 16.5054 46.6697 16.8461 47.0479C17.2673 47.5167 17.7362 47.9342 18.2271 48.3124C18.5311 48.5488 19.6996 49.3721 20.0183 49.5809C19.6117 49.3564 18.3553 48.5212 17.9597 48.273C17.6996 48.1115 17.4432 47.9421 17.1941 47.7688C16.9633 47.6112 16.7472 47.4221 16.5054 47.2803C16.293 47.1582 16.1171 47.1542 15.8827 47.1582C15.597 47.1621 15.3039 47.0361 15.0182 46.9849C14.8643 46.9573 14.5823 46.8549 14.4724 47.0203C14.3881 47.1464 14.4577 47.3276 14.5237 47.4497V47.4536Z" fill="#97C233"/>
<g style="mix-blend-mode:multiply" opacity="0.09">
<path d="M14.5237 47.4536C14.7728 47.8988 15.1464 48.2809 15.52 48.5961C16.3479 49.3012 17.3406 49.7424 18.3369 50.034C19.315 50.3215 20.337 50.4515 21.3297 50.2703C21.3407 50.2703 21.3517 50.2664 21.3627 50.2624C21.37 50.2664 21.381 50.2624 21.3883 50.2585C21.4066 50.2585 21.4579 50.2427 21.4652 50.2349C21.4652 50.2349 21.5605 50.2152 21.5385 50.2033C21.5385 50.1994 21.5934 50.1285 21.674 50.0261C21.8205 49.8409 22.0476 49.5494 22.1502 49.3367C22.3041 49.0215 22.392 48.6709 22.4396 48.3124C22.5495 47.497 22.4506 46.6618 22.5312 45.8424C22.6044 45.1333 22.8535 44.4479 22.8315 43.723C22.8279 43.5615 22.8096 43.3054 22.6008 43.3488C22.337 43.4039 22.3004 43.7979 22.1282 43.9594C22.1136 43.9988 22.0843 44.0145 22.0367 43.9988C21.9781 44.0303 21.9414 44.0106 21.9231 43.9397C21.9011 43.9121 21.8755 43.8373 21.8645 43.8097C21.8242 43.7151 21.7912 43.6167 21.7619 43.5142C21.7106 43.3409 21.6667 43.1597 21.6227 42.9824C21.5495 42.6988 21.4872 42.3048 21.2931 42.0842C21.1502 41.9188 20.9597 41.9503 20.8645 42.1433C20.7399 42.3994 20.7656 42.7697 20.7619 43.0533C20.7619 43.27 20.7216 43.5812 20.4505 43.5182C20.3407 43.4945 20.2381 43.4236 20.1282 43.4C19.9157 43.3527 19.7362 43.4906 19.6557 43.6994C19.5384 43.9988 19.6373 44.3809 19.6996 44.6882C19.7765 45.0821 19.8864 45.4682 20.011 45.8503C20.2491 46.5752 20.7949 47.9421 21.0769 48.6473C21.2271 49.0333 19.5201 45.027 18.8571 44.2194C18.7179 44.05 18.4798 43.9673 18.2674 43.9515C18.1245 43.9397 17.989 44.0106 17.8498 44.0067C17.7032 44.0067 17.564 43.9397 17.4322 43.8767C17.0805 43.7073 16.4761 43.5064 16.3772 44.0973C16.3332 44.3691 16.4468 44.6291 16.4505 44.9009C16.4541 45.1648 16.3076 45.3815 16.2197 45.6139C16.0146 46.1773 16.5054 46.6697 16.8461 47.0479C17.2673 47.5167 17.7362 47.9342 18.2271 48.3124C18.5311 48.5488 19.6996 49.3721 20.0183 49.5809C19.6117 49.3564 18.3553 48.5212 17.9597 48.273C17.6996 48.1115 17.4432 47.9421 17.1941 47.7688C16.9633 47.6112 16.7472 47.4221 16.5054 47.2803C16.293 47.1582 16.1171 47.1542 15.8827 47.1582C15.597 47.1621 15.3039 47.0361 15.0182 46.9849C14.8643 46.9573 14.5823 46.8549 14.4724 47.0203C14.3881 47.1464 14.4577 47.3276 14.5237 47.4497V47.4536Z" fill="#222221"/>
</g>
<path d="M16.4394 48.742C17.9119 49.7308 19.5457 50.1996 21.2453 50.2823C21.2563 50.2823 21.26 50.2784 21.2673 50.2705C21.2893 50.2705 21.3076 50.2705 21.3296 50.2705C21.3406 50.2705 21.3516 50.2666 21.3625 50.2626C21.3699 50.2666 21.3809 50.2626 21.3882 50.2587C21.4065 50.2587 21.4578 50.2429 21.4651 50.2351C21.4651 50.2351 21.5604 50.2154 21.5384 50.2035C21.5384 50.1996 21.5933 50.1287 21.6739 50.0263C21.9633 49.3999 22.1831 48.6869 22.1501 47.9857C22.1281 47.5287 22.0366 47.0717 21.9963 46.6147C21.956 46.1499 21.945 45.6732 21.9706 45.2084C21.9706 45.2044 21.9633 45.2044 21.9633 45.2084C21.934 45.6653 21.9157 46.1184 21.934 46.5753C21.9523 47.0087 22.0182 47.442 22.0475 47.8753C22.1025 48.6869 21.8204 49.3605 21.5604 50.0775C21.6922 49.4432 21.7398 48.7814 21.6849 48.1275C21.6153 47.3396 21.4138 46.5635 21.238 45.7953C21.2343 45.7756 21.205 45.7835 21.2087 45.8032C21.3442 46.5714 21.5347 47.3435 21.608 48.1235C21.6739 48.7972 21.6373 49.4708 21.5054 50.1287C20.9156 49.3605 20.4431 48.5017 19.9303 47.6784C19.4321 46.8747 18.8863 46.1184 18.2856 45.4053C18.2746 45.3935 18.2599 45.4093 18.2709 45.4211C18.8826 46.1853 19.4394 46.9969 19.9449 47.8517C20.4065 48.6278 20.8497 49.4235 21.4138 50.1169C20.8167 49.6599 20.227 49.195 19.7251 48.6081C19.2013 47.9896 18.6922 47.3475 18.1903 46.7014C18.183 46.6935 18.1757 46.7014 18.183 46.7093C18.6775 47.3908 19.172 48.0841 19.7105 48.7263C20.216 49.329 20.8277 49.786 21.4578 50.2193C19.8314 50.1563 18.3368 49.2029 16.9705 48.2811C16.9632 48.2732 16.9522 48.289 16.9632 48.2969C18.0328 49.0296 19.1244 49.786 20.3296 50.109C19.7801 50.0341 19.2343 49.9435 18.6922 49.7702C17.9156 49.522 17.1573 49.1675 16.454 48.7184C16.443 48.7105 16.432 48.7302 16.443 48.7381L16.4394 48.742Z" fill="white"/>
<path d="M21.1832 43.8768C21.1832 43.8531 21.2201 43.8531 21.2164 43.8768C21.1611 44.3416 21.2164 44.8025 21.2127 45.2674C21.2127 45.295 21.1722 45.2989 21.1648 45.2713C21.0653 44.8183 21.1279 44.3259 21.1832 43.8728V43.8768Z" fill="white"/>
<path d="M17.4172 45.7518C17.5234 45.8503 17.6443 45.9488 17.7322 46.063C17.7469 46.0788 17.7286 46.1103 17.7103 46.0945C17.5967 46.0079 17.4978 45.8779 17.3989 45.7715C17.3879 45.7557 17.4062 45.74 17.4172 45.7518Z" fill="white"/>
<path d="M16.4688 47.9777L16.6409 48.1038C16.6629 48.1195 16.6409 48.1589 16.6189 48.1431L16.4541 48.0053C16.4541 48.0053 16.4541 47.9698 16.4688 47.9816V47.9777Z" fill="white"/>
<path d="M20.7001 50.6011C21.2129 50.806 21.8137 50.9399 22.1177 51.4796C22.1434 51.5269 22.2093 51.4993 22.1983 51.4442C22.114 51.0187 22.6196 48.8087 22.3045 48.7535C22.114 48.722 22.0042 49.3523 21.7368 49.3051C21.6232 49.2854 21.4913 49.0884 21.4107 49.0057C21.3082 48.8993 21.1983 48.7929 21.0811 48.7023C20.9748 48.6157 20.8173 48.5369 20.6964 48.6432C20.5536 48.7654 20.6158 49.0096 20.6598 49.1632C20.6964 49.2932 20.7441 49.4154 20.7917 49.5414C20.8393 49.6793 20.9565 49.8999 20.7294 49.9235C20.5279 49.9432 20.3375 49.8841 20.1433 49.9748C19.7001 50.1796 20.5499 50.5381 20.7038 50.6011H20.7001Z" fill="#455A64"/>
<path d="M26.1206 57.9008C26.1206 57.9008 26.1059 57.8969 26.1023 57.8969L25.7506 57.8417C25.6847 57.8378 25.6224 57.8339 25.5565 57.8339C25.4649 57.5857 25.366 57.3414 25.2561 57.0972C25.1975 56.9672 25.1389 56.8333 25.0766 56.6993C24.8715 56.266 24.6443 55.8484 24.4099 55.4427C23.637 54.119 22.8201 52.8584 22.1461 51.5032C21.9337 51.0778 21.7322 50.6366 21.549 50.1875C21.5344 50.156 21.5234 50.1244 21.5124 50.0929C21.4648 49.9629 21.4135 49.8329 21.3659 49.6951C21.3549 49.6635 21.4025 49.6438 21.4135 49.6754C21.4501 49.7738 21.4904 49.8684 21.5344 49.9669C21.5454 49.9944 21.5564 50.0181 21.5674 50.0417C21.5674 50.0457 21.5674 50.0496 21.571 50.0496C21.5784 50.0732 21.5893 50.0969 21.604 50.1205C21.7798 50.5145 21.9776 50.8926 22.1901 51.259C22.7762 52.2754 23.4758 53.2208 24.1388 54.1899C24.1865 54.2608 24.2377 54.3357 24.2854 54.4066C24.7103 55.0369 25.1169 55.6751 25.4612 56.3527C25.714 56.8451 25.9374 57.369 26.1206 57.9008Z" fill="#455A64"/>
<path d="M25.4621 57.0619C25.4621 57.0619 23.9969 55.6122 22.9822 55.2143C21.9675 54.8164 20.1982 54.8834 20.1982 54.8834C20.1982 54.8834 21.9675 57.7119 25.4621 57.0619Z" fill="#455A64"/>
<path d="M24.1868 54.5248C24.1868 54.5248 23.8424 52.4133 24.0769 51.2827C24.3113 50.1521 25.3223 48.5842 25.3223 48.5842C25.3223 48.5842 26.5824 51.7121 24.1868 54.5287V54.5248Z" fill="#455A64"/>
<path d="M25.5238 41.1663C25.8388 41.0835 26.0476 41.7926 26.1026 42.0132C26.2528 42.6081 26.1465 43.199 25.9158 43.7466C25.9048 43.7899 25.8865 43.8293 25.8681 43.8608C25.8681 43.8647 25.8645 43.8726 25.8608 43.8766C25.8608 43.8805 25.8535 43.8805 25.8535 43.8844C25.8425 43.8963 25.8352 43.9081 25.8205 43.9199C25.7912 43.9435 25.7473 43.9632 25.7106 43.9435C25.3077 43.7544 25.326 43.1281 25.3297 42.742C25.3297 42.4938 25.1502 41.2608 25.5201 41.1623L25.5238 41.1663Z" fill="#97C233"/>
<g style="mix-blend-mode:multiply" opacity="0.2">
<path d="M25.5238 41.1663C25.8388 41.0835 26.0476 41.7926 26.1026 42.0132C26.2528 42.6081 26.1465 43.199 25.9158 43.7466C25.9048 43.7899 25.8865 43.8293 25.8681 43.8608C25.8681 43.8647 25.8645 43.8726 25.8608 43.8766C25.8608 43.8805 25.8535 43.8805 25.8535 43.8844C25.8425 43.8963 25.8352 43.9081 25.8205 43.9199C25.7912 43.9435 25.7473 43.9632 25.7106 43.9435C25.3077 43.7544 25.326 43.1281 25.3297 42.742C25.3297 42.4938 25.1502 41.2608 25.5201 41.1623L25.5238 41.1663Z" fill="#222221"/>
</g>
<path d="M23.4249 44.9401C23.2307 45.5192 23.5897 46.0786 23.9267 46.4923C24.0549 46.6498 24.4322 47.0989 24.5934 46.8665C24.619 46.8704 24.6447 46.8586 24.652 46.8271C24.7143 46.5829 24.6593 46.3701 24.5824 46.1377C24.4578 45.7714 24.3296 45.3932 24.1758 45.0426C24.0146 44.6723 23.5934 44.432 23.4249 44.9401Z" fill="#97C233"/>
<g style="mix-blend-mode:multiply" opacity="0.2">
<path d="M23.4249 44.9401C23.2307 45.5192 23.5897 46.0786 23.9267 46.4923C24.0549 46.6498 24.4322 47.0989 24.5934 46.8665C24.619 46.8704 24.6447 46.8586 24.652 46.8271C24.7143 46.5829 24.6593 46.3701 24.5824 46.1377C24.4578 45.7714 24.3296 45.3932 24.1758 45.0426C24.0146 44.6723 23.5934 44.432 23.4249 44.9401Z" fill="#222221"/>
</g>
<path d="M29.8497 51.0462C29.6886 51.8971 29.1684 52.6495 28.5457 53.205C28.575 54.0992 28.5091 54.9935 28.3442 55.8641C28.2453 55.9389 28.1537 56.0256 28.0658 56.1123C28.1098 55.8838 28.1501 55.6592 28.1794 55.4268C28.1794 55.4229 28.1794 55.415 28.1757 55.4071C26.846 54.6547 26.2489 53.1971 25.7544 51.7277C25.7544 51.7277 25.7508 51.7238 25.7471 51.7238C25.7837 51.7238 27.8497 52.6535 28.2307 55.0289C28.3479 53.9101 28.3186 52.7677 28.1501 51.6489C27.5896 49.8919 26.1757 48.6353 24.824 47.4771C24.5969 47.284 24.3405 47.0831 24.2123 46.7995C24.2049 46.7798 24.1939 46.7601 24.1866 46.7404C24.1317 46.6025 24.0694 46.2953 24.2416 46.2046C24.4247 46.1022 24.5566 46.3543 24.6408 46.4843C24.6555 46.504 24.6665 46.5237 24.6775 46.5434C24.9192 46.9098 25.1427 47.2919 25.3588 47.674C25.868 48.0916 26.3588 48.5368 26.8094 49.0292C27.2746 49.5413 27.6849 50.1204 27.9816 50.7507C27.9596 50.6562 27.9413 50.5616 27.9193 50.4671C27.5896 49.108 27.0658 47.8159 26.4394 46.5868C26.1683 46.0549 25.8863 45.5231 25.6958 44.948C25.5859 44.6092 25.4431 44.1168 25.4614 43.6992C25.465 43.5928 25.4797 43.4865 25.509 43.3958C25.5749 43.1792 25.7581 43.0768 25.8936 43.2934C25.9412 43.3683 25.9669 43.4746 25.9779 43.5889C25.9962 43.7937 25.9779 44.0222 25.9815 44.1719C25.9998 44.5619 26.0182 44.9519 26.0328 45.3419C26.15 45.598 26.2782 45.8501 26.4101 46.0943C27.1207 47.4219 27.7435 48.7692 28.1208 50.2544C28.2819 50.8847 28.3955 51.5307 28.4651 52.1768C28.5164 51.6647 28.6116 51.1565 28.7362 50.6641C28.9266 49.9274 29.7325 48.6431 29.7362 48.6392C29.7582 48.6195 30.0915 49.7462 29.8424 51.0541L29.8497 51.0462Z" fill="#455A64"/>
<g style="mix-blend-mode:multiply" opacity="0.1">
<path d="M20.6594 61.994C20.8023 61.0328 21.3005 60.1425 21.9562 59.4492C22.2785 59.0907 22.6668 58.811 23.0624 58.5549C23.2675 58.4407 23.469 58.3146 23.6851 58.2279L24.0038 58.0861L24.3408 57.9798C24.795 57.8379 25.2749 57.8064 25.7438 57.8419L26.0954 57.897C26.2127 57.9167 26.3225 57.9561 26.4361 57.9876L26.6046 58.0349L26.7694 58.1019C26.8757 58.1492 26.9892 58.1886 27.0918 58.2476C27.9306 58.681 28.6376 59.3507 29.1395 60.1504C28.4948 59.4767 27.7548 58.9292 26.9526 58.5904C26.1467 58.2634 25.2712 58.1767 24.4544 58.4407C23.6338 58.6849 22.8426 59.1261 22.1796 59.7249C21.5239 60.3277 20.9708 61.0958 20.6484 61.998L20.6594 61.994Z" fill="#222221"/>
<path d="M33.2708 55.3363C32.6261 55.2379 31.9887 55.2103 31.3623 55.2536C30.7359 55.3048 30.1205 55.4309 29.5491 55.6791C28.974 55.9194 28.4502 56.2779 27.9849 56.727C27.5271 57.1839 27.1314 57.7197 26.7725 58.3027C26.9666 57.633 27.2963 57.0027 27.7395 56.463C27.963 56.1951 28.2194 55.9548 28.4941 55.746C28.7725 55.5412 29.0729 55.3718 29.3879 55.2339C30.0179 54.9739 30.6956 54.8597 31.3586 54.8833C32.0217 54.907 32.6773 55.0448 33.2744 55.3363H33.2708Z" fill="#222221"/>
<path d="M18.377 58.5549C18.6553 58.3264 18.996 58.1925 19.344 58.1255C19.6957 58.0625 20.0656 58.0743 20.4173 58.1807C20.7689 58.2831 21.1023 58.4722 21.366 58.7322C21.5089 58.8504 21.6115 59.0079 21.7213 59.1576C21.8239 59.3113 21.9008 59.4846 21.9704 59.654C21.8202 59.5476 21.703 59.4255 21.5638 59.3231C21.4246 59.2246 21.3001 59.1143 21.1572 59.0355C20.8862 58.8543 20.5968 58.7322 20.3001 58.6416C20.0034 58.5549 19.692 58.5037 19.3696 58.4958C19.0473 58.4879 18.7213 58.5076 18.377 58.551V58.5549Z" fill="#222221"/>
</g>
<g style="mix-blend-mode:multiply" opacity="0.1">
<path d="M33.5059 67.2727C34.0114 66.9299 34.5865 66.7093 35.1762 66.5833C35.7696 66.4533 36.3814 66.4336 36.9858 66.5163C37.2898 66.5478 37.5829 66.6384 37.8796 66.7212C38.1653 66.8433 38.4583 66.9339 38.7184 67.1033C39.2642 67.3909 39.7258 67.8242 40.125 68.293C39.6049 67.9739 39.114 67.6509 38.5719 67.4421C38.3082 67.32 38.0334 67.2451 37.7624 67.1545C37.484 67.0954 37.2129 67.0127 36.9272 66.989C36.3667 66.9063 35.7953 66.9024 35.2238 66.9496C34.6524 67.0048 34.081 67.1112 33.5059 67.2727Z" fill="#222221"/>
<path d="M38.0447 70.9481C38.3634 69.9317 38.9898 69.0217 39.7846 68.3441C40.5759 67.6429 41.5686 67.2332 42.5722 67.0599C43.5796 66.8865 44.6492 67.0047 45.587 67.4459C46.0595 67.6626 46.4881 67.9738 46.8654 68.3323C47.239 68.6947 47.5687 69.1162 47.7995 69.589C47.4881 69.1753 47.1255 68.8129 46.7262 68.5135C46.3306 68.2141 45.9056 67.962 45.4551 67.7886C45.0009 67.6271 44.5393 67.4932 44.0631 67.4696C43.9459 67.4538 43.825 67.4499 43.7078 67.4538H43.3488C43.1107 67.4774 42.8726 67.4893 42.6382 67.5326L42.2865 67.5996C42.2279 67.6114 42.1693 67.6193 42.1107 67.635L41.9385 67.6862L41.5942 67.7886C41.4806 67.828 41.3708 67.8793 41.2572 67.9226C41.0301 68.0014 40.8213 68.1274 40.6015 68.2377C40.3964 68.3717 40.1839 68.4859 39.9898 68.6435C39.1985 69.2305 38.5282 70.0223 38.041 70.9481H38.0447Z" fill="#222221"/>
<path d="M47.8026 69.589C47.4913 69.1754 47.125 68.813 46.7293 68.5136C46.3337 68.2142 45.9088 67.962 45.4583 67.7927C45.004 67.6311 44.5425 67.4972 44.0663 67.4736C43.9491 67.4578 43.8282 67.4539 43.711 67.4539H43.3557C43.1176 67.4814 42.8795 67.4893 42.645 67.5287L42.2897 67.5957C42.2311 67.6075 42.1725 67.6154 42.1139 67.6311L41.9417 67.6823L41.5974 67.7848C41.4875 67.8242 41.3776 67.8754 41.264 67.9187C41.0699 67.9817 40.8904 68.0881 40.7036 68.1866C40.6706 68.2024 40.6413 68.2181 40.6083 68.2339C40.5351 68.2811 40.4618 68.3284 40.3849 68.3717C40.2494 68.4545 40.1212 68.5411 39.9966 68.6396C39.2054 69.2266 38.535 70.0184 38.0479 70.9442C38.3629 69.9318 38.9893 69.0178 39.7878 68.3402C39.9307 68.2142 40.0809 68.096 40.2347 67.9857C40.3336 67.9187 40.4325 67.8517 40.5351 67.7927C41.1651 67.4145 41.8684 67.1742 42.5754 67.052C43.5828 66.8787 44.6487 66.9969 45.5901 67.4381C46.0627 67.6548 46.4876 67.966 46.8685 68.3245C47.2422 68.6869 47.5719 69.1084 47.8063 69.5811L47.8026 69.589Z" fill="#222221"/>
</g>
<path d="M34.5016 60.0479C35.0474 60.5364 35.6262 60.9894 36.227 61.3952C36.4724 61.5606 36.7911 61.8285 37.1134 61.9743C37.3002 62.057 37.4871 62.1003 37.6665 62.057C37.7471 62.0609 37.8424 62.0294 37.9449 61.9388C37.9633 61.9231 37.9742 61.8994 37.9816 61.8797C38.3003 61.6631 38.4541 61.2534 38.6006 60.8752C38.901 60.1188 39.1281 59.3309 39.2783 58.5194C39.3332 58.224 39.4468 57.8497 39.3662 57.5464C39.3149 57.3652 39.2234 57.3297 39.1171 57.2115C38.8644 56.9358 38.9047 56.6403 38.7398 56.3212C38.6556 56.1597 38.52 55.9903 38.3296 55.9982C37.8753 56.01 37.7691 56.9358 37.6885 57.2667C37.52 57.9521 37.4028 58.6494 37.3442 59.3546C37.2929 59.9652 37.249 60.6388 37.3039 61.2691C36.8826 60.2015 36.2819 59.197 35.6006 58.3146C35.3515 57.9915 34.9559 57.4637 34.5053 57.5424C34.3222 57.574 34.3185 57.7197 34.1939 57.7946C33.9229 57.96 33.7031 57.6961 33.4357 57.7827C32.4393 58.1018 34.2123 59.7997 34.498 60.0518L34.5016 60.0479Z" fill="#97C233"/>
<g style="mix-blend-mode:multiply" opacity="0.3">
<path d="M34.5016 60.0479C35.0474 60.5364 35.6262 60.9894 36.227 61.3952C36.4724 61.5606 36.7911 61.8285 37.1134 61.9743C37.3002 62.057 37.4871 62.1003 37.6665 62.057C37.7471 62.0609 37.8424 62.0294 37.9449 61.9388C37.9633 61.9231 37.9742 61.8994 37.9816 61.8797C38.3003 61.6631 38.4541 61.2534 38.6006 60.8752C38.901 60.1188 39.1281 59.3309 39.2783 58.5194C39.3332 58.224 39.4468 57.8497 39.3662 57.5464C39.3149 57.3652 39.2234 57.3297 39.1171 57.2115C38.8644 56.9358 38.9047 56.6403 38.7398 56.3212C38.6556 56.1597 38.52 55.9903 38.3296 55.9982C37.8753 56.01 37.7691 56.9358 37.6885 57.2667C37.52 57.9521 37.4028 58.6494 37.3442 59.3546C37.2929 59.9652 37.249 60.6388 37.3039 61.2691C36.8826 60.2015 36.2819 59.197 35.6006 58.3146C35.3515 57.9915 34.9559 57.4637 34.5053 57.5424C34.3222 57.574 34.3185 57.7197 34.1939 57.7946C33.9229 57.96 33.7031 57.6961 33.4357 57.7827C32.4393 58.1018 34.2123 59.7997 34.498 60.0518L34.5016 60.0479Z" fill="#222221"/>
</g>
<path d="M35.7324 56.6404C36.1536 58.1925 36.6628 59.7131 37.0621 61.2731C37.0731 61.3125 37.1353 61.2968 37.1244 61.2574C36.846 59.8471 36.3807 58.4919 35.9851 57.1131C35.7837 56.4158 35.6225 55.7422 35.5859 55.0134C35.5639 54.5289 35.6078 54.0916 35.3661 53.674C35.3258 53.607 35.2305 53.5755 35.1756 53.6701C34.9228 54.0955 35.3185 54.8361 35.5126 55.3167C35.5492 55.7619 35.6078 56.1952 35.7324 56.6404Z" fill="#263239"/>
<path d="M38.366 56.9398C38.6261 58.3422 38.4979 59.788 38.4246 61.1983C38.4246 61.2337 38.4686 61.2416 38.4722 61.2062C38.7616 59.3625 38.6883 57.2392 38.0473 55.4861C37.9924 55.3325 37.6077 54.3595 37.3477 54.6077C37.2085 54.7416 37.4173 55.037 37.4832 55.1434C37.6993 55.4901 37.9887 55.758 38.1718 56.1283C38.1718 56.1283 38.1792 56.1322 38.1828 56.1361C38.2598 56.4119 38.3184 56.6877 38.366 56.9398Z" fill="#263239"/>
<path d="M33.4904 56.4788C33.4831 57.1169 33.6663 57.7748 33.8861 58.3618C34.3659 59.6382 35.1755 60.7373 36.0619 61.7182C36.0839 61.7418 36.1205 61.7024 36.0986 61.6788C35.267 60.6545 34.4538 59.5988 33.974 58.3263C33.8494 57.9954 33.7469 57.6566 33.6773 57.306C33.6699 57.2824 33.6663 57.2509 33.6589 57.2233C33.6663 57.2233 33.6699 57.2154 33.6699 57.2075C33.6809 56.79 33.7505 56.4512 33.8421 56.0494C33.8861 55.8721 33.941 55.5648 33.8201 55.5333C33.5014 55.5569 33.4904 56.2463 33.4904 56.4788Z" fill="#263239"/>
<path d="M33.3772 60.9776C34.5384 61.9939 36.0403 62.5415 37.3077 63.3964C37.5971 63.5894 37.8755 63.7982 38.1539 64.0148C38.2308 64.0739 38.3187 64.1606 38.4139 64.2157C38.4762 64.2512 38.5385 64.2748 38.6044 64.2709C38.6301 64.2709 38.6594 64.267 38.685 64.2551C38.7949 64.2158 38.8425 64.1291 38.8828 64.0227C38.9561 63.8336 38.9561 63.5854 38.9671 63.3491C39.0257 63.1127 39.1026 62.8803 39.1576 62.6754C39.2381 62.3721 39.3261 62.0727 39.4213 61.7733C39.6264 61.1391 39.8828 60.5285 40.1393 59.9179C40.359 59.3979 40.5605 58.866 40.6301 58.2948C40.6667 57.9954 40.7217 57.4282 40.5056 57.1839C40.3114 56.9672 40.1283 57.0972 40.0037 57.3021C39.8865 57.4991 39.8499 57.7354 39.751 57.9324C39.5971 58.2357 39.414 58.2318 39.1832 58.3972C38.8755 58.6179 38.7509 59.0157 38.707 59.3939C38.674 59.7012 38.6557 60.0124 38.6411 60.3236C38.6044 60.0321 38.5531 59.7485 38.4982 59.4648C38.403 58.9566 38.326 58.3342 38.0623 57.8891C37.9744 57.7394 37.8681 57.6212 37.7253 57.5266C37.4103 57.3139 37.1832 57.1918 36.9817 56.8372C36.7985 56.5221 36.5861 55.9785 36.1758 55.9666C35.7619 55.9548 35.7362 56.396 35.6593 56.7151C35.5128 57.306 35.0036 57.5424 35 58.2121C34.9963 58.7597 35.2674 59.2836 35.5055 59.7445C35.6923 60.1069 35.8937 60.4615 36.1282 60.7963C35.7985 60.4851 35.4285 60.2251 35.0366 60.0203C34.8718 59.9336 34.6776 59.8391 34.4871 59.8548C34.2051 59.8785 34.1575 60.0636 33.8241 59.9573C33.575 59.8785 33.0475 59.5673 32.8461 59.9297C32.6373 60.3079 33.1464 60.7688 33.3772 60.9697V60.9776Z" fill="#97C233"/>
<g style="mix-blend-mode:multiply" opacity="0.1">
<path d="M33.3772 60.9776C34.5384 61.9939 36.0403 62.5415 37.3077 63.3964C37.5971 63.5894 37.8755 63.7982 38.1539 64.0148C38.2308 64.0739 38.3187 64.1606 38.4139 64.2157C38.4762 64.2512 38.5385 64.2748 38.6044 64.2709C38.6301 64.2709 38.6594 64.267 38.685 64.2551C38.7949 64.2158 38.8425 64.1291 38.8828 64.0227C38.9561 63.8336 38.9561 63.5854 38.9671 63.3491C39.0257 63.1127 39.1026 62.8803 39.1576 62.6754C39.2381 62.3721 39.3261 62.0727 39.4213 61.7733C39.6264 61.1391 39.8828 60.5285 40.1393 59.9179C40.359 59.3979 40.5605 58.866 40.6301 58.2948C40.6667 57.9954 40.7217 57.4282 40.5056 57.1839C40.3114 56.9672 40.1283 57.0972 40.0037 57.3021C39.8865 57.4991 39.8499 57.7354 39.751 57.9324C39.5971 58.2357 39.414 58.2318 39.1832 58.3972C38.8755 58.6179 38.7509 59.0157 38.707 59.3939C38.674 59.7012 38.6557 60.0124 38.6411 60.3236C38.6044 60.0321 38.5531 59.7485 38.4982 59.4648C38.403 58.9566 38.326 58.3342 38.0623 57.8891C37.9744 57.7394 37.8681 57.6212 37.7253 57.5266C37.4103 57.3139 37.1832 57.1918 36.9817 56.8372C36.7985 56.5221 36.5861 55.9785 36.1758 55.9666C35.7619 55.9548 35.7362 56.396 35.6593 56.7151C35.5128 57.306 35.0036 57.5424 35 58.2121C34.9963 58.7597 35.2674 59.2836 35.5055 59.7445C35.6923 60.1069 35.8937 60.4615 36.1282 60.7963C35.7985 60.4851 35.4285 60.2251 35.0366 60.0203C34.8718 59.9336 34.6776 59.8391 34.4871 59.8548C34.2051 59.8785 34.1575 60.0636 33.8241 59.9573C33.575 59.8785 33.0475 59.5673 32.8461 59.9297C32.6373 60.3079 33.1464 60.7688 33.3772 60.9697V60.9776Z" fill="#222221"/>
</g>
<path d="M39.6938 59.8037C39.6938 59.8037 39.6938 59.8237 39.6858 59.8197C39.6778 59.8157 39.6818 59.7997 39.6938 59.8037Z" fill="#F2D2C6"/>
<path d="M34.4436 61.1273C35.5718 62.2422 37.8099 62.4982 38.4217 64.1449C38.4217 64.1685 38.4143 64.1922 38.4143 64.2158C38.4766 64.2513 38.5389 64.2749 38.6048 64.271C38.8832 63.7903 38.8869 63.1955 38.9565 62.6361C39.0664 61.7891 39.2276 60.9619 39.5316 60.1661C39.5389 60.1425 39.5096 60.1306 39.4986 60.1543C39.2092 60.757 39.0297 61.3952 38.9089 62.0531C38.7843 62.7188 38.821 63.5658 38.5279 64.1882C38.5279 64.1646 38.5279 64.137 38.5279 64.1173C38.6561 63.357 38.4949 62.5416 38.3154 61.8128C38.0883 60.8712 37.7477 59.9691 37.4436 59.0552C37.4326 59.0197 37.3814 59.0434 37.3924 59.0788C37.6451 59.9691 37.9088 60.8594 38.1323 61.7576C38.2642 62.2816 38.396 62.8646 38.4363 63.4358C38.0114 61.5488 36.2678 60.174 35.9821 58.2279C35.9747 58.1846 35.9125 58.1964 35.9161 58.2397C36.1982 60.3 37.9601 61.7537 38.3814 63.747C38.2935 63.5737 38.1762 63.42 38.0444 63.2743C37.7916 62.8882 37.4876 62.5455 37.1323 62.2461C36.5645 61.7734 35.9051 61.47 35.363 60.95C35.341 60.9303 35.3154 60.9658 35.33 60.9855C35.7256 61.5055 36.3081 61.7852 36.8172 62.1555C37.1213 62.38 37.4033 62.6361 37.6561 62.9237C37.4913 62.7976 37.3191 62.6834 37.1469 62.5809C36.2678 62.0452 35.3227 61.6946 34.4875 61.0643C34.4546 61.0406 34.4179 61.0879 34.4472 61.1194L34.4436 61.1273Z" fill="white"/>
<path d="M39.9535 58.7636C39.9645 58.996 39.8985 59.1693 39.818 59.3781C39.8106 59.3978 39.785 59.386 39.7923 59.3663C39.8583 59.1811 39.8766 58.9605 39.8985 58.7636C39.9022 58.7321 39.9535 58.7281 39.9535 58.7636Z" fill="white"/>
<path d="M35.9716 57.566C35.9752 57.6842 35.9531 57.8024 35.9531 57.9206C35.9531 57.96 35.9015 57.956 35.8942 57.9206C35.8684 57.8103 35.8573 57.6606 35.9052 57.5582C35.9163 57.5306 35.9679 57.5266 35.9679 57.566H35.9716Z" fill="white"/>
<path d="M34.0188 60.6072C34.0627 60.6505 34.1177 60.6899 34.158 60.7411C34.169 60.7569 34.158 60.7884 34.136 60.7845C34.07 60.7726 34.0114 60.7175 33.9711 60.6623C33.9492 60.6308 33.9895 60.5796 34.0188 60.6072Z" fill="white"/>
<path d="M39.1977 63.4122C39.0695 63.9322 38.8607 64.4719 39.0182 65.0391C39.0328 65.0864 38.9852 65.1219 38.9596 65.0825C38.7618 64.7555 37.2856 63.7864 37.4064 63.5146C37.4797 63.3491 37.8826 63.6485 37.9852 63.4161C38.0292 63.3176 37.9815 63.0931 37.9706 62.9828C37.9596 62.837 37.9522 62.6873 37.9559 62.5416C37.9559 62.4076 37.9889 62.2382 38.1024 62.2067C38.238 62.1713 38.3442 62.3682 38.4101 62.4982C38.4651 62.6046 38.5127 62.7188 38.5603 62.8291C38.6153 62.9513 38.6812 63.1758 38.8021 63.0143C38.9083 62.8725 38.9669 62.6873 39.1098 62.5967C39.4358 62.384 39.2343 63.2546 39.194 63.4082L39.1977 63.4122Z" fill="#455A64"/>
<path d="M40.5313 67.7967C40.4324 67.8557 40.3298 67.9227 40.2309 67.9897C40.2273 67.9739 40.2199 67.9621 40.2163 67.9503C39.8903 67.1506 39.4983 66.3824 39.165 65.5827C38.8316 64.783 38.6521 64.0148 38.5166 63.16C38.5166 63.1521 38.5239 63.1481 38.5276 63.156C38.7767 64.6333 39.6705 65.9885 40.3005 67.2963C40.3811 67.4618 40.458 67.6312 40.5313 67.8006V67.7967Z" fill="#455A64"/>
<path d="M40.059 67.4618C40.059 67.4618 39.8648 65.1967 40.2055 64.0188C40.5462 62.8409 41.7403 61.277 41.7403 61.277C41.7403 61.277 42.821 64.7043 40.059 67.4618Z" fill="#455A64"/>
<path d="M70.4009 103.204C70.8515 103.366 83.7126 103.326 84.2034 102.992C84.3866 102.866 84.4928 100.849 84.5551 98.414C84.5697 97.8861 84.577 97.3464 84.588 96.791C84.599 96.137 84.6064 95.4752 84.61 94.8331C84.6247 91.9455 84.588 89.4006 84.588 89.4006H76.2142V94.8331L76.2216 96.791L76.2655 98.414C76.2655 98.414 71.3497 100.797 70.8478 101.227C70.3496 101.652 69.9577 103.047 70.4046 103.204H70.4009Z" fill="#F5A8A0"/>
<path d="M84.5658 97.8783C84.5622 98.0595 84.5585 98.2368 84.5548 98.4101C84.4926 100.849 84.3863 102.866 84.2032 102.988C83.716 103.323 70.8549 103.362 70.4007 103.2C69.9538 103.043 70.3457 101.648 70.8439 101.223C71.1113 100.994 72.6462 100.203 74.0088 99.5171C73.5949 99.9189 73.0308 100.53 73.1846 100.746C73.5986 101.333 81.9247 100.104 84.1812 98.1501C84.3277 98.0241 84.4523 97.9335 84.5658 97.8744V97.8783Z" fill="#263239"/>
<path d="M87.3794 51.0266C87.3794 51.0266 85.1156 75.0925 85.0643 75.3998C85.057 75.4391 85.0424 75.904 85.0204 76.6604C84.8995 80.8046 84.5991 93.7219 84.5991 93.7219H75.3682C75.3682 93.7219 75.9689 78.4213 76.3169 74.8522C76.7565 70.2982 79.5367 51.0306 79.5367 51.0306H87.3867L87.3794 51.0266Z" fill="#37474F"/>
<path d="M83.9621 76.2466C84.2478 71.0308 84.6727 65.8269 85.2478 60.6387C85.5702 57.7156 85.9621 54.8005 86.3504 51.8853C86.3504 51.8617 86.3907 51.8617 86.387 51.8853C85.6727 57.0735 85.1672 62.3011 84.7313 67.5248C84.2954 72.7405 83.9914 77.9681 83.7936 83.2036C83.68 86.17 83.5958 89.1364 83.5078 92.1027C83.5078 92.1736 83.4053 92.1697 83.4053 92.1027C83.5371 86.816 83.6763 81.5294 83.9657 76.2505L83.9621 76.2466Z" fill="#263239"/>
<path d="M75.9437 92.1185C76.1854 92.083 78.995 92.0397 80.072 92.0397C80.9951 92.0397 83.8852 92.1185 84.2003 92.1145C84.2259 92.1145 84.2222 92.1421 84.2003 92.146C83.823 92.2091 82.1782 92.2563 80.4126 92.2563C79.3357 92.2563 76.0829 92.1776 75.9437 92.1579C75.918 92.1579 75.9217 92.1224 75.9437 92.1185Z" fill="#263239"/>
<path d="M87.3787 51.0266C87.3787 51.0266 85.1149 75.0925 85.0637 75.3998C85.0563 75.4392 85.0417 75.904 85.0197 76.6604L80.668 51.0306H87.3824L87.3787 51.0266Z" fill="#263239"/>
<path d="M87.9481 103.295C88.4206 103.322 100.831 99.702 101.223 99.2411C101.373 99.0677 100.985 97.0941 100.458 94.7226C100.344 94.2104 100.245 93.6747 100.099 93.1468C99.9154 92.481 99.7212 91.8192 99.5308 91.181C98.7029 88.4156 97.9043 86.1268 97.9043 86.1268L90.047 88.3959L91.4463 93.4186L92.0214 95.4789L92.4537 97.035C92.4537 97.035 88.2778 100.71 87.9005 101.262C87.5232 101.813 87.4792 103.271 87.9518 103.299L87.9481 103.295Z" fill="#F5A8A0"/>
<path d="M101.222 99.2372C100.83 99.6981 88.4197 103.322 87.9435 103.291C87.471 103.259 87.5186 101.806 87.8923 101.254C88.123 100.919 89.7458 99.4342 90.9912 98.3233C90.6322 98.7763 90.0718 99.5524 90.2659 99.7572C90.7421 100.261 98.4712 97.8978 100.665 95.6642C101.079 97.5945 101.35 99.0875 101.222 99.2372Z" fill="#263239"/>
<path d="M79.5293 51.0266C79.5293 51.0266 80.1374 54.5051 82.3938 56.27C82.3938 56.27 85.5697 75.0531 85.969 77.1764C86.7456 81.3049 90.0167 93.0916 90.0167 93.0916L99.4308 89.9952C99.4308 89.9952 95.3648 75.77 94.8153 74.277C94.5186 73.4655 92.2402 57.9048 92.2878 57.5306C92.8409 53.083 90.8812 51.003 90.8812 51.003L79.5293 51.0266Z" fill="#37474F"/>
<path d="M87.0019 51.799C87.1741 52.4963 87.599 53.1069 88.1301 53.5441C88.7272 54.0326 89.4452 54.2375 90.1815 54.3005C90.306 54.3123 90.317 54.5132 90.1851 54.5132C88.6796 54.5211 87.1594 53.489 86.9396 51.8108C86.936 51.7714 86.9909 51.7635 87.0019 51.799Z" fill="#263239"/>
<path d="M80.9467 55.1711C81.4998 55.3838 82.0053 55.7265 82.5035 56.0574C83.02 56.4001 83.4962 56.8059 83.9981 57.1762C84.0164 57.192 83.9981 57.2235 83.9797 57.2117C83.4559 56.8886 82.9101 56.6089 82.3936 56.2741C81.8918 55.9511 81.368 55.6359 80.9284 55.2183C80.9101 55.2026 80.9284 55.1671 80.9504 55.175L80.9467 55.1711Z" fill="#263239"/>
<path d="M80.7342 51.795C80.8148 52.1654 80.9137 52.5317 81.0053 52.8981C81.0895 53.2447 81.1591 53.5954 81.258 53.9381C81.3569 54.269 81.4998 54.5684 81.7489 54.7969C81.8807 54.919 82.0273 55.0254 82.1664 55.1317C82.2434 55.1908 82.324 55.246 82.4009 55.309C82.3899 55.2617 82.3789 55.2105 82.3679 55.1593C82.3386 55.0175 82.3093 54.8796 82.2837 54.7378C82.2214 54.4266 82.1591 54.1114 82.1042 53.8002C81.9906 53.1857 81.8807 52.5593 81.7342 51.9526C81.7269 51.929 81.7635 51.9172 81.7708 51.9408C81.9393 52.5435 82.1262 53.1384 82.2763 53.7451C82.3496 54.0444 82.6317 55.5178 82.6463 55.6242C82.661 55.7305 82.6756 55.8408 82.6829 55.9511C82.6903 56.0575 82.7159 56.1796 82.6976 56.286C82.6939 56.3135 82.661 56.3096 82.65 56.2938C82.595 56.2032 82.5767 56.0772 82.5474 55.9748C82.5181 55.8684 82.4925 55.762 82.4668 55.6557C82.4595 55.6163 82.4522 55.5769 82.4448 55.5375C82.3056 55.4548 82.1738 55.3445 82.0419 55.2499C81.899 55.1514 81.7562 55.0529 81.6206 54.9426C81.3642 54.7299 81.1957 54.462 81.0895 54.1311C80.9796 53.7884 80.932 53.426 80.8807 53.0714C80.8184 52.6499 80.7671 52.2284 80.6975 51.8108C80.6939 51.7872 80.7269 51.7753 80.7342 51.799V51.795Z" fill="#263239"/>
<path d="M90.3384 90.9606C90.5618 90.8542 93.2358 89.9284 94.2652 89.5936C95.148 89.306 97.9356 88.4709 98.236 88.3724C98.2579 88.3645 98.2653 88.3921 98.2433 88.3999C97.8989 88.5772 96.3385 89.1406 94.6498 89.6921C93.6205 90.0309 90.4849 90.9724 90.3457 90.996C90.32 91 90.3164 90.9684 90.3347 90.9566L90.3384 90.9606Z" fill="#263239"/>
<path d="M95.4376 80.5093C95.064 79.3433 94.6867 78.1772 94.3204 77.0072C93.9614 75.853 93.6684 74.6908 93.4486 73.4972C93.0017 71.0705 92.6097 68.6281 92.2471 66.1857C92.0603 64.9487 91.8881 63.7078 91.7269 62.4629C91.6464 61.8484 91.5694 61.2378 91.4925 60.6232C91.4192 60.0244 91.3277 59.4296 91.2984 58.8268C91.1848 56.605 91.9247 54.2493 91.0236 52.1259C90.9211 51.8896 90.8002 51.665 90.6573 51.4562C90.6427 51.4365 90.6134 51.4562 90.628 51.4759C91.8258 53.4929 91.1702 55.9393 91.1335 58.1611C91.1152 59.3784 91.3057 60.5917 91.4632 61.7932C91.6244 63.0066 91.7965 64.2199 91.9687 65.4332C92.3204 67.8678 92.7086 70.2945 93.1262 72.7133C93.3314 73.903 93.5402 75.0887 93.8808 76.243C94.2215 77.409 94.6134 78.5633 94.9871 79.7175C95.7417 82.0575 97.6904 87.9115 97.7857 88.203C97.793 88.2266 97.8296 88.2148 97.8223 88.1912C97.086 85.8354 96.1959 82.8572 95.445 80.5054L95.4376 80.5093Z" fill="#263239"/>
<path d="M83.3308 38.1171C81.1696 40.5713 75.9204 43.3013 74.1877 43.3013C72.2097 43.3013 68.8946 40.3546 66.4 37.8728C65.8506 37.3292 69.2279 31.9834 69.8323 32.5467C71.3452 33.9492 74.8801 37.7822 75.4295 37.8728C76.2317 38.0068 79.4589 37.0849 82.0157 36.3049C84.8583 35.4343 84.4297 36.8722 83.3345 38.121L83.3308 38.1171Z" fill="#F5A8A0"/>
<path d="M68.1698 38.4046C68.8768 38.4046 70.679 33.8034 70.3237 33.1219C70.2578 32.9958 70.082 32.791 69.8365 32.5428C69.8365 32.5428 69.1113 30.9867 68.9391 29.4661C68.7889 28.1897 68.7046 26.2712 68.0636 26.3343C67.1259 26.4209 66.9647 28.8555 66.95 30.2619C66.3346 29.8797 65.7705 29.6119 65.3896 29.5882C64.1258 29.5016 63.0452 35.5249 64.0013 36.4586C64.9207 37.3607 67.4665 38.4086 68.1735 38.4046H68.1698Z" fill="#F5A8A0"/>
<path d="M62.6162 37.6129C62.6162 37.6129 64.0155 37.8808 64.7005 37.1048C66.847 34.6899 64.4148 27.1459 63.2279 27.4532C62.0447 27.7605 60.8945 32.535 60.8945 32.535L62.6162 37.6169V37.6129ZM62.6675 36.8763L61.3268 32.9211C61.3268 32.9211 62.2755 28.765 63.1986 28.5287C64.1217 28.2923 65.9606 34.6032 64.2902 36.4823C63.7554 37.0851 62.6675 36.8802 62.6675 36.8802V36.8763Z" fill="#37474F"/>
<path d="M50.9313 33.8588L51.3599 36.2027L49.499 37.3648L50.9313 33.8588Z" fill="#455A64"/>
<path d="M57.994 43.1083L65.2982 39.6298L59.3201 28.568L54.6533 30.8449L57.994 43.1083Z" fill="#455A64"/>
<path d="M59.3194 28.568L59.7186 27.3665L53.7002 30.1517L54.6526 30.845L59.3194 28.568Z" fill="#37474F"/>
<path d="M56.3266 36.9905L57.1105 39.8702L50.9053 36.4823L51.2643 35.6629L56.3266 36.9905Z" fill="#37474F"/>
<path d="M50.3126 34.9261C49.6276 34.2131 48.144 34.154 48.1367 34.8276C48.1367 35.2019 48.6642 35.3082 49.3162 35.0443C49.8437 34.8276 50.3126 34.9261 50.3126 34.9261Z" fill="#EBEBEB"/>
<path d="M49.3009 37.3215C48.7478 37.5776 48.3559 38.4876 48.7185 38.653C48.92 38.7436 49.1068 38.4403 49.1215 37.9715C49.1324 37.5894 49.3009 37.3215 49.3009 37.3215Z" fill="#EBEBEB"/>
<path d="M49.51 36.0647C49.51 36.0647 48.4477 35.7653 47.4293 36.5572C46.6564 37.1599 46.2132 38.3929 46.9348 38.7159C47.2205 38.8459 47.6235 38.582 47.9349 38.0896C48.4111 37.345 48.6821 36.3681 49.51 36.0608V36.0647Z" fill="#EBEBEB"/>
<path d="M67.3084 30.1397C67.4952 30.8173 66.6454 30.6676 66.6454 30.6676C66.6454 30.6676 67.8213 31.2033 67.7626 31.9833C67.704 32.7357 66.682 32.5151 66.6088 32.4994C66.6711 32.527 67.7407 33.0509 67.6051 33.827C67.4659 34.6345 66.4732 34.2248 66.411 34.1973C66.4623 34.2445 67.1216 34.8788 66.8945 35.4461C66.5062 36.4191 64.7772 34.8473 63.986 34.9536C63.986 34.9536 64.0007 36.4152 63.9933 36.4585C63.9933 36.4585 62.323 35.0009 62.2461 33.8427C62.2058 33.2321 62.7259 33.0745 62.7259 33.0745C62.7259 33.0745 62.1398 32.6688 62.2277 32.0503C62.2717 31.7351 62.7845 31.5303 62.7845 31.5303C62.7845 31.5303 62.3266 31.1836 62.4365 30.64C62.5208 30.2066 63.0226 30.0727 63.0226 30.0727C63.0226 30.0727 62.7259 29.5212 62.9494 29.1075C63.3963 28.2763 66.9055 28.686 67.3084 30.1397Z" fill="#F5A8A0"/>
<path d="M63.1003 30.0411C63.1003 30.0411 63.0856 30.0214 63.1003 30.0214C64.2871 29.852 65.6351 30.0568 66.6937 30.6714C66.7267 30.6911 66.7121 30.762 66.6718 30.7462C65.4666 30.3365 64.3677 30.0765 63.1003 30.0411Z" fill="#263239"/>
<path d="M62.7702 31.5223C62.7702 31.5223 62.7555 31.4986 62.7702 31.4947C63.9937 31.3292 65.5065 31.605 66.6494 32.4677C66.6897 32.4992 66.697 32.5662 66.6494 32.5347C65.8508 32.0226 63.9094 31.5498 62.7702 31.5223Z" fill="#263239"/>
<path d="M66.4743 34.2877C65.3497 33.5037 64.1043 33.1886 62.7819 33.0625C62.7636 33.0625 62.7673 33.0349 62.7819 33.031C63.4449 32.9049 64.2801 33.0783 64.9175 33.2753C65.5292 33.4643 66.0457 33.7637 66.4963 34.2443C66.5146 34.264 66.4963 34.3034 66.4707 34.2877H66.4743Z" fill="#263239"/>
<path d="M66.6633 30.6557C66.7036 30.6794 66.6267 30.7188 66.667 30.7463C66.8391 30.8527 67.8245 31.6012 67.6926 32.0385C67.5864 32.3891 67.0736 32.4797 66.8611 32.4324L66.3336 32.3103L66.7915 32.6215C66.9893 32.7594 67.1835 32.9327 67.33 33.1297C67.4765 33.3267 67.5718 33.563 67.5351 33.7876C67.4985 34.0239 67.3483 34.1933 67.1322 34.217C66.9197 34.2485 66.6706 34.1854 66.4582 34.0909L65.8684 33.827L66.3446 34.28C66.4728 34.4021 66.5974 34.5518 66.6926 34.7094C66.7879 34.867 66.8611 35.0403 66.8575 35.2097C66.8575 35.3751 66.7659 35.5406 66.6303 35.6036C66.4875 35.6706 66.3007 35.6548 66.1285 35.6194C65.7732 35.5445 65.4252 35.387 65.0735 35.2491C64.8977 35.1782 64.7219 35.1073 64.5424 35.0442C64.3629 34.9851 64.1761 34.9221 63.9893 34.9497C64.1797 34.9457 64.3519 35.0285 64.5277 35.0954C64.6999 35.1703 64.8684 35.257 65.0406 35.3397C65.3812 35.5091 65.7256 35.6785 66.0992 35.7809C66.286 35.8242 66.4911 35.8636 66.7036 35.7809C66.9234 35.6942 67.0516 35.45 67.0553 35.2176C67.0626 34.9773 66.971 34.7685 66.8684 34.5912C66.7585 34.41 66.634 34.2524 66.4875 34.1067L66.3739 34.2997C66.623 34.4139 66.8794 34.4927 67.1688 34.4573C67.3117 34.4415 67.4619 34.3706 67.5681 34.2485C67.6743 34.1264 67.7329 33.9767 67.7549 33.823C67.8025 33.5039 67.6633 33.2045 67.4948 32.9879C67.3227 32.7673 67.1212 32.59 66.8941 32.4403L66.8208 32.6294C67.0882 32.6806 67.6743 32.6491 67.9014 32.1251C68.1066 31.3963 66.8941 30.7542 66.667 30.6518L66.6633 30.6557Z" fill="#263239"/>
<path d="M66.6455 30.6675C66.7884 30.6597 66.9276 30.636 67.0411 30.5887C67.1583 30.5415 67.2316 30.4469 67.2463 30.3406C67.2646 30.2303 67.2206 30.0963 67.1657 29.9703C67.1071 29.8442 67.0375 29.7142 66.9605 29.5803C67.0887 29.6551 67.1986 29.7615 67.2902 29.8875C67.3781 30.0136 67.455 30.1751 67.4294 30.3721C67.4111 30.4666 67.3708 30.5533 67.3049 30.6203C67.2389 30.6833 67.1583 30.7227 67.0814 30.7384C66.9239 30.77 66.7737 30.7384 66.6455 30.6715V30.6675Z" fill="#263239"/>
<path d="M70.2535 32.6964L68.041 41.2174C68.041 41.2174 72.1913 43.4786 73.9532 43.518C75.7152 43.5574 80.7702 41.0401 83.5139 38.1053C84.5725 36.9746 84.752 35.4265 82.1549 36.108C79.5577 36.7895 76.0045 37.5695 75.7298 37.5104C75.4551 37.4513 70.2535 32.6925 70.2535 32.6925V32.6964Z" fill="#EBEBEB"/>
<path d="M71.5064 34.1146C71.3086 34.7095 71.162 35.3358 71.0045 35.9464C70.8433 36.557 70.6932 37.1716 70.5466 37.7901C70.2573 39.0231 69.9935 40.264 69.7444 41.5049C69.7408 41.5325 69.7737 41.5404 69.7811 41.5168C70.1144 40.2955 70.4404 39.0743 70.7371 37.8413C70.8836 37.2267 71.0265 36.6083 71.1584 35.9898C71.2902 35.3713 71.4441 34.7489 71.5357 34.1264C71.5357 34.1067 71.5137 34.0989 71.5064 34.1186V34.1146Z" fill="#A6A5A5"/>
<path d="M79.7085 45.8069L79.1297 52.2597C79.1297 52.2597 89.2581 51.8815 91.6611 51.5742C91.6611 51.5742 88.7453 39.7205 86.0163 36.829C84.65 35.3832 83.1334 35.5763 82.2104 36.6832C81.9759 36.9629 79.2359 41.2805 78.9978 42.8878C78.7927 44.306 79.7048 45.8069 79.7048 45.8069H79.7085Z" fill="#97C233"/>
<path d="M85.0231 27.9338C85.3418 28.438 87.7485 29.6632 89.0049 27.4532C90.243 25.2747 87.6605 22.462 85.6312 24.018C84.2685 25.062 84.3455 26.8623 85.0231 27.9377V27.9338Z" fill="#263239"/>
<path d="M84.8329 36.427C84.767 36.6436 83.6717 37.9712 82.745 37.8333C82.4409 37.7861 82.6021 36.0015 82.6021 36.0015L82.5875 35.8676L82.3604 33.9845L84.4959 32.7909L84.8036 32.6333C84.8036 32.6333 84.8329 33.1533 84.8659 33.8033C84.8659 33.8349 84.8659 33.8624 84.8696 33.8939C84.8696 33.9294 84.8769 33.9649 84.8769 34.0003C84.8842 34.0988 84.8879 34.1973 84.8915 34.2958C84.8915 34.3706 84.8989 34.4455 84.8989 34.5242C84.8989 34.603 84.8989 34.6818 84.9062 34.7606C84.9172 35.5406 84.8659 36.3443 84.8366 36.4349L84.8329 36.427Z" fill="#F5A8A0"/>
<path d="M84.862 33.7994C84.2466 35.2216 83.1037 35.714 82.5836 35.8676L82.3564 33.9846L84.492 32.7909L84.7997 32.6334C84.7997 32.6334 84.829 33.1534 84.862 33.8034V33.7994Z" fill="#263239"/>
<path d="M80.2684 30.8016C79.708 34.0831 81.4736 34.8159 82.1293 34.9419C82.7264 35.0601 84.774 35.3753 85.6458 32.1765C86.5176 28.9737 85.2759 27.658 83.9242 27.3113C82.5725 26.9646 80.8252 27.5201 80.2648 30.8016H80.2684Z" fill="#F5A8A0"/>
<path d="M80.814 30.2855C80.8873 30.2855 80.9532 30.2737 81.0265 30.2619C81.1071 30.254 81.173 30.254 81.239 30.1949C81.2756 30.1634 81.2792 30.0925 81.2536 30.0492C81.195 29.9586 81.0924 29.9428 80.9935 29.9467C80.8873 29.9546 80.8067 29.9901 80.7261 30.0689C80.6492 30.1437 80.7151 30.2816 80.8104 30.2816L80.814 30.2855Z" fill="#263239"/>
<path d="M82.8577 30.6085C82.7881 30.5888 82.7221 30.5613 82.6525 30.5376C82.5756 30.5101 82.5097 30.4943 82.4584 30.4195C82.4291 30.3801 82.4401 30.3091 82.4731 30.2737C82.55 30.1988 82.6525 30.2067 82.7478 30.2382C82.8504 30.2698 82.9236 30.3249 82.9822 30.4195C83.0408 30.5101 82.9493 30.6282 82.854 30.6046L82.8577 30.6085Z" fill="#263239"/>
<path d="M82.3267 31.2979C82.3267 31.2979 82.3414 31.3098 82.3414 31.3216C82.3048 31.5461 82.3011 31.8101 82.4806 31.9125C82.4879 31.9125 82.4806 31.9282 82.4806 31.9243C82.2535 31.8573 82.2645 31.5067 82.3304 31.3019L82.3267 31.2979Z" fill="#263239"/>
<path d="M82.5437 31.0931C82.8843 31.1167 82.8184 31.8455 82.5034 31.8258C82.192 31.8061 82.2579 31.0773 82.5437 31.0931Z" fill="#263239"/>
<path d="M82.6752 31.1442C82.7301 31.1915 82.7814 31.2703 82.8547 31.286C82.9352 31.3018 83.0048 31.2348 83.0671 31.1639C83.0744 31.156 83.0781 31.1639 83.0781 31.1718C83.0671 31.3136 83.0048 31.4515 82.862 31.4554C82.7338 31.4594 82.6532 31.3294 82.6312 31.1836C82.6275 31.156 82.6532 31.1206 82.6752 31.1403V31.1442Z" fill="#263239"/>
<path d="M81.165 31.0931C81.165 31.0931 81.1467 31.101 81.1467 31.1128C81.1357 31.3413 81.0844 31.5974 80.8903 31.6525C80.8829 31.6525 80.8829 31.6643 80.8903 31.6643C81.1247 31.6525 81.187 31.3098 81.165 31.0931Z" fill="#263239"/>
<path d="M80.9968 30.841C80.6598 30.7819 80.5756 31.5068 80.8869 31.5659C81.1946 31.621 81.2789 30.8922 80.9968 30.841Z" fill="#263239"/>
<path d="M80.8505 30.8686C80.7919 30.9002 80.7296 30.9632 80.6673 30.9593C80.5941 30.9553 80.5464 30.8686 80.5098 30.7859C80.5061 30.778 80.4988 30.7859 80.4988 30.7938C80.4805 30.9317 80.5025 31.0814 80.627 31.1286C80.7369 31.168 80.8358 31.0617 80.8834 30.9277C80.8908 30.9041 80.8798 30.8608 80.8541 30.8726L80.8505 30.8686Z" fill="#263239"/>
<path d="M82.2135 33.0589C82.1622 33.1101 82.1073 33.181 82.0303 33.181C81.9571 33.181 81.8728 33.1416 81.8069 33.1101C81.7996 33.1101 81.7922 33.114 81.7959 33.1219C81.8472 33.2125 81.9607 33.2716 82.0596 33.2598C82.1549 33.248 82.2062 33.1613 82.2355 33.0667C82.2391 33.0549 82.2245 33.0471 82.2172 33.0549L82.2135 33.0589Z" fill="#263239"/>
<path d="M81.4182 32.137C81.4182 32.137 81.3412 32.4679 81.3266 32.6294C81.3266 32.6452 81.3596 32.657 81.4108 32.6649C81.4108 32.6649 81.4108 32.6649 81.4182 32.6649C81.6746 32.7397 81.9493 32.6728 82.1288 32.46C82.1398 32.4443 82.1251 32.4285 82.1105 32.4364C81.9017 32.5664 81.6819 32.5822 81.4475 32.5585C81.4401 32.5152 81.5977 31.9952 81.5757 31.9913C81.4951 31.9755 81.3303 32.0149 81.2314 32.0346C81.3742 31.3373 81.6196 30.6716 81.7515 29.9743C81.7552 29.9506 81.7222 29.9388 81.7149 29.9585C81.4108 30.6361 81.2314 31.4358 81.0665 32.1528C81.0445 32.2434 81.3632 32.1567 81.4255 32.137H81.4182Z" fill="#263239"/>
<path d="M81.4326 32.5429C81.4326 32.5429 81.5315 32.7832 81.711 32.9054C81.7769 32.9487 81.8539 32.9802 81.9381 32.9763C82.1139 32.9684 82.1542 32.8069 82.1542 32.6572C82.1542 32.535 82.1249 32.4247 82.1249 32.4247C82.1249 32.4247 81.8282 32.6099 81.4326 32.5429Z" fill="#263239"/>
<path d="M81.7109 32.9092C81.7769 32.9525 81.8538 32.984 81.938 32.9801C82.1139 32.9722 82.1542 32.8107 82.1542 32.661C81.971 32.6373 81.7659 32.724 81.7109 32.9092Z" fill="#F299BA"/>
<path d="M85.6205 32.204C84.9538 31.8337 84.9465 31.0694 84.9465 31.0694C84.1186 30.6519 83.6827 29.931 83.6388 29.8561C83.6571 29.9231 83.789 30.4194 83.8659 30.6716C81.9318 30.2107 81.3823 28.5876 81.3823 28.5876C80.7303 29.2416 80.5911 29.671 80.4922 29.8837C80.4922 29.8837 80.5288 28.6073 81.1589 27.7643C83.2835 24.92 85.6205 27.9652 85.6205 27.9652C85.6205 27.9652 86.4044 28.4458 86.5106 29.2967C86.7194 30.9591 85.6205 32.204 85.6205 32.204Z" fill="#263239"/>
<path d="M82.3973 30.2737C82.7013 30.4706 83.042 30.6124 83.3826 30.7031C83.3826 30.7031 83.3826 30.7031 83.3826 30.6991C82.8405 30.514 82.357 30.187 81.9833 29.7182C81.8258 29.5212 81.6903 29.3046 81.584 29.0721C81.4705 28.8279 81.3643 28.5403 81.3496 28.2646C81.3496 28.2449 81.3203 28.2449 81.3203 28.2646C81.335 28.5561 81.3496 28.82 81.4485 29.0958C81.5438 29.3558 81.683 29.6 81.8588 29.8049C82.0163 29.99 82.1994 30.1437 82.3973 30.2737Z" fill="#263239"/>
<path d="M85.1219 32.0463C85.1219 32.0463 85.8875 31.0772 86.3014 31.3805C86.7153 31.6839 86.0743 33.1336 85.5432 33.2872C85.012 33.4409 84.8691 32.913 84.8691 32.913L85.1182 32.0424L85.1219 32.0463Z" fill="#F5A8A0"/>
<path d="M86.1078 31.7901C86.1078 31.7901 86.1151 31.8019 86.1078 31.8059C85.7342 31.924 85.5107 32.2668 85.3459 32.6253C85.4668 32.4913 85.617 32.4283 85.7855 32.5859C85.7928 32.5937 85.7855 32.6095 85.7745 32.6056C85.6316 32.5583 85.5217 32.574 85.4118 32.6883C85.3349 32.771 85.2763 32.8813 85.214 32.9798C85.1957 33.0113 85.1371 32.9877 85.1517 32.9483C85.1517 32.9483 85.1517 32.9443 85.1554 32.9404C85.1884 32.444 85.6096 31.7901 86.1041 31.794L86.1078 31.7901Z" fill="#263239"/>
<path d="M84.9067 36.0096C84.9067 36.0096 84.0496 40.4808 84.5551 46.6578C85.5038 58.3066 88.1888 75.5139 88.8372 76.6564C89.8262 78.4055 100.123 79.5321 100.123 79.5321C100.123 79.5321 97.1927 65.4685 92.1047 50.7902C92.1047 50.7902 89.9911 44.235 89.2438 42.482C86.4379 35.9308 84.9067 36.0056 84.9067 36.0056V36.0096Z" fill="#EBEBEB"/>
<path d="M94.5555 60.3474C94.5555 60.3474 92.9951 60.8674 91.6727 61.0959C90.3064 61.3322 88.9327 61.4228 88.5407 61.4859C88.5041 61.4898 88.5041 61.6198 88.5298 61.6198C89.0499 61.6001 90.6397 61.4977 91.68 61.3165C92.7203 61.1353 94.083 60.7177 94.4786 60.5365C94.5189 60.8477 94.5555 61.0919 94.6031 61.4031C93.6691 61.7695 91.8668 62.4392 88.8045 62.5416C88.7752 62.4116 88.6873 61.7183 88.6323 61.5331C88.625 61.5056 88.5114 61.5174 88.5151 61.5647C88.5188 61.7538 88.6983 63.4319 88.7459 63.7707C88.8668 64.6059 89.2697 66.9498 89.5298 67.3713C90.1232 68.3286 91.9914 68.0056 92.5079 67.9229C93.0317 67.8362 94.702 67.6038 95.2295 66.8395C95.5116 66.4298 95.2955 64.5113 94.9951 62.8331C94.8522 62.0295 94.5995 60.3592 94.5519 60.3513L94.5555 60.3474ZM92.6287 67.6826C90.9767 67.9701 90.2001 67.722 89.8924 67.395C89.5298 67.0129 89.3942 66.2644 89.2441 65.4371C89.1305 64.7871 88.8411 62.7386 88.8338 62.6953C89.8302 62.7386 92.4126 62.581 94.6361 61.6041C94.7826 62.5731 94.9035 63.3492 95.05 64.3183C95.1563 65.0195 95.2918 66.2053 95.0207 66.6741C94.7936 67.0641 93.8229 67.4738 92.6287 67.6826Z" fill="#A6A5A5"/>
<path d="M91.9099 60.9065C92.2176 61.8717 91.8806 63.412 92.5839 63.3884C93.2103 63.3687 93.3495 62.2735 93.3495 62.2735C93.3495 62.2735 93.5656 63.5578 94.236 63.3293C94.9063 63.1008 94.8257 61.8678 94.8257 61.8678C94.8257 61.8678 94.9612 62.9472 95.6133 62.6635C96.2653 62.3838 96.3752 61.3241 96.3752 61.3241C96.3752 61.3241 96.6096 61.6038 96.9869 61.1823C97.5291 60.5796 97.2983 58.7871 96.9723 57.885C96.6463 56.9789 94.8294 53.9259 94.5436 53.465L89.126 55.6671C89.126 55.6671 89.0161 57.5659 89.0673 58.535C89.1223 59.5041 90.1223 62.6438 90.8623 62.4311C91.6022 62.2184 90.8623 60.0123 90.789 59.4293C90.7157 58.8462 90.8293 58.728 91.0527 58.9644C91.1993 59.118 91.7707 60.4771 91.9099 60.9026V60.9065Z" fill="#F5A8A0"/>
<path d="M93.3308 62.2185C93.4223 60.6821 93.2135 59.9928 92.5359 58.6612C92.5212 58.6337 92.5542 58.61 92.5725 58.6337C93.3454 59.8706 93.7191 60.694 93.4004 62.2264C93.3857 62.3012 93.3271 62.2894 93.3308 62.2185Z" fill="#263239"/>
<path d="M94.8068 61.9348C94.7702 60.3314 94.5504 59.579 93.9387 58.1293C93.9313 58.1096 93.9606 58.0899 93.9716 58.1096C94.6823 59.4766 95.0413 60.3078 94.8801 61.9151C94.8727 61.986 94.8068 62.0017 94.8068 61.9308V61.9348Z" fill="#263239"/>
<path d="M96.3636 61.3124C96.2244 59.7603 96.0156 58.9291 95.2537 57.6055C95.2354 57.5739 95.2756 57.5424 95.2976 57.5739C96.1987 58.8424 96.4625 59.8824 96.4075 61.3046C96.4039 61.403 96.3746 61.4109 96.3636 61.3124Z" fill="#263239"/>
<path d="M86.8081 37.9044C90.0207 42.5962 94.2442 52.4999 94.7973 54.0796C95.171 55.1551 89.4749 57.3336 89.321 56.5614C89.1232 55.5766 86.1158 43.2068 85.3136 38.6214C84.8704 36.0923 86.0169 36.7423 86.8081 37.9005V37.9044Z" fill="#F5A8A0"/>
<path d="M88.1517 54.8478L94.8185 53.0553C94.8185 53.0553 88.7158 40.2877 87.0271 37.9044C85.3128 35.4856 85.0015 36.8525 85.3128 39.4447C85.6498 42.2338 88.1481 54.8478 88.1481 54.8478H88.1517Z" fill="#EBEBEB"/>
<path d="M93.903 52.2634C93.4488 52.3225 92.9982 52.4525 92.5513 52.555C92.1007 52.6613 91.6538 52.7677 91.2033 52.878C90.3058 53.0986 89.412 53.3271 88.5256 53.595C88.4999 53.6028 88.5109 53.6383 88.5329 53.6344C89.4377 53.465 90.3388 53.2483 91.2326 53.0237C91.6722 52.9134 92.1081 52.8031 92.544 52.6889C92.9982 52.5707 93.4671 52.4722 93.9103 52.3107C93.9396 52.2989 93.9286 52.2556 93.8993 52.2595L93.903 52.2634Z" fill="#A6A5A5"/>
<path d="M88.8622 54.6389C88.7376 54.6389 88.2285 54.7019 88.2065 54.7098C88.2102 54.6389 87.8732 52.358 87.7852 51.8853C87.6131 50.9595 87.4299 50.0377 87.2504 49.1119C86.8841 47.2446 86.4958 45.3813 86.1185 43.5179C85.9061 42.4701 85.6863 41.4222 85.4445 40.3782C85.4372 40.3546 85.4042 40.3664 85.4079 40.3901C85.5068 41.0007 85.613 41.6113 85.7229 42.2179C85.6167 41.9579 85.5068 41.7019 85.4116 41.4379C85.4042 41.4143 85.3639 41.4261 85.3749 41.4498C85.4775 41.7255 85.5617 42.0052 85.6533 42.2849C85.7009 42.4346 85.7559 42.5764 85.8145 42.7182C86.016 43.8213 86.2284 44.9204 86.4372 46.0195C86.7925 47.8907 87.1405 49.7619 87.5252 51.6292C87.6314 52.1413 88.0929 54.8792 88.1113 54.8753C88.1369 54.8674 88.7596 54.7256 88.8768 54.6744C88.8878 54.6704 88.8768 54.6428 88.8622 54.6428V54.6389Z" fill="#A6A5A5"/>
<path d="M82.5289 36.3563C82.5289 36.3563 80.6974 38.9523 80.1589 47.1187C79.5765 55.9272 78.3347 75.0176 78.2395 75.6952C78.1442 76.3728 75.5801 77.9525 75.5801 77.9525L79.5289 45.8384C79.5289 45.8384 78.7999 44.2587 78.9245 43.0887C79.0893 41.5366 81.8256 36.7069 82.5326 36.3563H82.5289Z" fill="#EBEBEB"/>
<path d="M80.6024 39.1808C80.4192 39.4605 80.2544 39.756 80.0895 40.0475C80.1005 40.012 80.1078 39.9766 80.1188 39.945C80.1664 39.7914 80.2031 39.6338 80.2361 39.4723C80.2361 39.4605 80.2214 39.4566 80.2177 39.4684C80.1628 39.622 80.1152 39.7757 80.0749 39.9332C80.0529 40.0238 80.0236 40.1144 80.0016 40.205C80.0016 40.205 79.9979 40.2129 79.9943 40.2169C79.8954 40.3902 79.584 41.1348 79.4924 41.312C79.4815 41.3357 79.5144 41.3554 79.5254 41.3317C79.606 41.1505 79.9943 40.4493 80.0822 40.2681C80.2544 39.9057 80.4412 39.555 80.6133 39.1887C80.617 39.1769 80.606 39.169 80.5987 39.1808H80.6024Z" fill="#A6A5A5"/>
<path d="M82.5289 36.3562C81.9245 37.2032 81.3164 38.0501 80.7047 38.8892V38.8223L81.1736 39.2792L81.2102 39.3147L81.1772 39.358L80.2028 40.5595L80.2175 40.5202C80.2248 41.6192 80.2175 42.7223 80.2138 43.8214C80.2028 44.9205 80.1882 46.0235 80.1626 47.1226C80.1369 46.0235 80.1186 44.9205 80.1113 43.8214C80.1113 42.7223 80.0966 41.6192 80.1076 40.5202V40.4965L80.1223 40.4808L81.104 39.2871V39.3659L80.6424 38.9011L80.6094 38.8695L80.6351 38.8341C81.2615 38.0068 81.8952 37.1835 82.5326 36.3641L82.5289 36.3562Z" fill="#A6A5A5"/>
<path d="M84.8992 36.0017C85.2289 37.018 85.5513 38.0344 85.8663 39.0547L85.8846 39.1099L85.8333 39.1217L84.9139 39.3147L84.9542 39.2399L85.4744 40.6226L85.4817 40.6384V40.6541C85.3498 41.7256 85.1996 42.7932 85.0568 43.8647C84.9102 44.9323 84.7527 45.9999 84.5879 47.0675C84.7014 45.992 84.8223 44.9205 84.9542 43.849C85.0897 42.7775 85.2179 41.7059 85.3681 40.6384V40.6699L84.8626 39.2832L84.8406 39.2202L84.9029 39.2084L85.826 39.0271L85.7894 39.0902C85.489 38.0659 85.196 37.0377 84.9102 36.0056L84.8992 36.0017Z" fill="#A6A5A5"/>
</g>
<defs>
<clipPath id="clip0_211_38993">
<rect width="104" height="139.58" fill="white"/>
</clipPath>
</defs>
</svg>
