<svg width="104" height="140" viewBox="0 0 104 140" fill="none" xmlns="http://www.w3.org/2000/svg">
<path d="M83.7445 81.2543C85.1324 77.4383 82.9761 72.8429 80.3189 68.286C75.5322 60.0973 73.135 55.8513 68.3789 47.2749C75.5972 42.9675 79.2178 40.8368 86.4285 36.8941C89.9267 43.0519 91.6816 46.0732 95.1913 51.9355C97.4318 55.644 97.4853 59.9821 95.0996 63.8097C90.5614 70.5894 88.2904 74.1175 83.7445 81.2543Z" fill="#62B988"/>
<path d="M66.0005 60.4121C61.5999 67.9328 59.3977 71.745 55.001 79.2849C59.3404 86.748 61.5043 90.4604 65.8628 97.6701C65.8781 94.5221 65.8781 92.9557 65.8858 89.8077C67.2315 89.7425 67.893 89.7117 69.2426 89.6311C81.3737 89.0591 85.6978 80.475 79.9706 70.8889C78.4948 68.4357 76.9197 65.6754 75.073 62.4545C76.4265 65.4566 75.8147 67.9942 72.6797 68.0787C69.9881 68.167 68.6423 68.2092 65.9661 68.2745C65.9775 65.1265 65.9813 63.5563 66.0005 60.4083V60.4121Z" fill="#97C233"/>
<mask id="mask0_211_38994" style="mask-type:luminance" maskUnits="userSpaceOnUse" x="55" y="60" width="28" height="38">
<path d="M66.0005 60.4121C61.5999 67.9328 59.3977 71.745 55.001 79.2849C59.3404 86.748 61.5043 90.4604 65.8628 97.6701C65.8781 94.5221 65.8781 92.9557 65.8858 89.8077C67.2315 89.7425 67.893 89.7117 69.2426 89.6311C81.3737 89.0591 85.6978 80.475 79.9706 70.8889C78.4948 68.4357 76.9197 65.6754 75.073 62.4545C76.4265 65.4566 75.8147 67.9942 72.6797 68.0787C69.9881 68.167 68.6423 68.2092 65.9661 68.2745C65.9775 65.1265 65.9813 63.5563 66.0005 60.4083V60.4121Z" fill="white"/>
</mask>
<g mask="url(#mask0_211_38994)">
<path d="M75.0771 62.4583C75.0771 62.4583 84.0388 79.043 75.5245 89.1397L85.3846 84.2104L80.2041 64.3126L75.0771 62.4583Z" fill="#97C233"/>
</g>
<path d="M38.2551 60.343C34.2216 52.615 32.1609 48.726 28.1082 40.9942C19.5059 40.7485 15.2239 40.6371 6.82422 40.5412C9.47755 42.215 10.8042 43.0442 13.4614 44.7181C12.8038 45.9005 12.4826 46.4802 11.8365 47.6741C5.91046 58.316 10.8845 66.5392 22.0178 66.7197C24.8738 66.758 28.0394 66.8732 31.7365 66.9999C28.4829 66.5699 26.6592 64.7042 28.2459 61.9861C29.5917 59.6443 30.2684 58.4734 31.6295 56.1584C34.2828 57.8284 35.6095 58.6615 38.2628 60.343H38.2551Z" fill="#97C233"/>
<mask id="mask1_211_38994" style="mask-type:luminance" maskUnits="userSpaceOnUse" x="6" y="40" width="33" height="27">
<path d="M38.2551 60.343C34.2216 52.615 32.1609 48.726 28.1082 40.9942C19.5059 40.7485 15.2239 40.6371 6.82422 40.5412C9.47755 42.215 10.8042 43.0442 13.4614 44.7181C12.8038 45.9005 12.4826 46.4802 11.8365 47.6741C5.91046 58.316 10.8845 66.5392 22.0178 66.7197C24.8738 66.758 28.0394 66.8732 31.7365 66.9999C28.4829 66.5699 26.6592 64.7042 28.2459 61.9861C29.5917 59.6443 30.2684 58.4734 31.6295 56.1584C34.2828 57.8284 35.6095 58.6615 38.2628 60.343H38.2551Z" fill="white"/>
</mask>
<g mask="url(#mask1_211_38994)">
<path d="M31.7286 66.9999C31.7286 66.9999 12.9717 65.8789 8.93055 53.2868L7.89062 64.2972L27.4542 70.3936L31.7324 67.0038L31.7286 66.9999Z" fill="#97C233"/>
</g>
<path d="M52.99 38.2186C61.6726 37.946 66.0578 37.7847 74.7557 37.5007C78.7319 29.8341 80.7047 26.0181 84.4553 18.4705C81.7981 20.1366 80.4753 20.9735 77.8181 22.6397C77.0458 21.5302 76.6674 20.9889 75.8798 19.8832C68.9329 9.88252 59.3939 10.7847 54.3702 20.7624C53.0894 23.323 51.6021 26.1332 49.874 29.4194C51.6786 26.6707 54.1484 25.8338 55.8918 28.4558C57.402 30.694 58.1552 31.815 59.6348 34.057C56.9776 35.727 55.651 36.5601 52.99 38.2186Z" fill="#97C233"/>
<mask id="mask2_211_38994" style="mask-type:luminance" maskUnits="userSpaceOnUse" x="49" y="12" width="36" height="27">
<path d="M52.99 38.2186C61.6726 37.946 66.0578 37.7847 74.7557 37.5007C78.7319 29.8341 80.7047 26.0181 84.4553 18.4705C81.7981 20.1366 80.4753 20.9735 77.8181 22.6397C77.0458 21.5302 76.6674 20.9889 75.8798 19.8832C68.9329 9.88252 59.3939 10.7847 54.3702 20.7624C53.0894 23.323 51.6021 26.1332 49.874 29.4194C51.6786 26.6707 54.1484 25.8338 55.8918 28.4558C57.402 30.694 58.1552 31.815 59.6348 34.057C56.9776 35.727 55.651 36.5601 52.99 38.2186Z" fill="white"/>
</mask>
<g mask="url(#mask2_211_38994)">
<path d="M49.874 29.4194C49.874 29.4194 59.0728 12.9653 72.1177 14.8157L62.7087 9.06863L48.7041 24.0755L49.874 29.4194Z" fill="#97C233"/>
</g>
<path d="M61.8059 11.3759C57.9482 11.921 54.882 16.3129 52.2096 21.1194C47.3961 29.7688 44.9798 34.1607 40.1778 42.8062C33.0168 38.5334 29.4383 36.4065 22.2773 32.4753C25.7794 26.2215 27.5343 23.0313 31.0402 16.6162C33.2768 12.5583 37.1995 9.91706 41.6574 9.94777C49.7206 10.2664 53.758 10.562 61.8097 11.3759H61.8059Z" fill="#62B988"/>
<path d="M10.9071 64.1283C13.3846 67.2418 18.5231 68.1056 23.8106 68.3282C33.3076 68.7313 38.0751 68.8273 47.6294 68.8311C47.5989 77.5112 47.5797 81.8455 47.5453 90.5256C40.5603 90.5103 37.0773 90.3989 30.1419 89.9536C25.7299 89.6657 21.7996 87.0052 19.7197 82.8514C16.2023 75.2232 14.4398 71.457 10.9033 64.1283H10.9071Z" fill="#62B988"/>
<path d="M63.9133 51.2444C63.9133 47.4937 61.0727 44.457 57.5667 44.457C55.3837 44.457 53.4568 45.6394 52.3136 47.4361C51.1705 45.6394 49.2435 44.457 47.0605 44.457C43.5545 44.457 40.7139 47.4975 40.7139 51.2444C40.7139 51.8241 40.7827 52.3846 40.9089 52.9221C40.9089 52.9221 41.1153 56.6191 46.659 60.8689L46.9763 61.1415C50.0426 63.7713 54.5617 63.7789 57.6356 61.153L57.972 60.8689C63.5157 56.6191 63.7222 52.9221 63.7222 52.9221C63.8483 52.3846 63.9172 51.8241 63.9172 51.2444H63.9133Z" fill="#59C1D8"/>
<mask id="mask3_211_38994" style="mask-type:luminance" maskUnits="userSpaceOnUse" x="40" y="44" width="24" height="20">
<path d="M63.9133 51.2444C63.9133 47.4937 61.0727 44.457 57.5667 44.457C55.3837 44.457 53.4568 45.6394 52.3136 47.4361C51.1705 45.6394 49.2435 44.457 47.0605 44.457C43.5545 44.457 40.7139 47.4975 40.7139 51.2444C40.7139 51.8241 40.7827 52.3846 40.9089 52.9221C40.9089 52.9221 41.1153 56.6191 46.659 60.8689L46.9763 61.1415C50.0426 63.7713 54.5617 63.7789 57.6356 61.153L57.972 60.8689C63.5157 56.6191 63.7222 52.9221 63.7222 52.9221C63.8483 52.3846 63.9172 51.8241 63.9172 51.2444H63.9133Z" fill="white"/>
</mask>
<g mask="url(#mask3_211_38994)">
<path d="M51.3962 61.8518C54.3325 60.8421 59.3295 58.6346 62.3269 50.2962C62.7436 49.133 64.5444 49.5361 64.6055 50.7723C64.7317 53.3444 64.0894 56.9877 60.7364 60.7691C57.4216 64.5045 54.1604 65.3069 51.6715 64.9153C50.0351 64.6581 49.8325 62.3892 51.3962 61.8518Z" fill="#23B7CA"/>
</g>
<path d="M46.9844 51.2368C46.9844 51.517 46.5523 51.7435 46.0171 51.7435C45.4818 51.7435 45.0498 51.517 45.0498 51.2368C45.0498 50.9565 45.4818 50.73 46.0171 50.73C46.5523 50.73 46.9844 50.9565 46.9844 51.2368Z" fill="#8ACFE0"/>
<path d="M58.852 51.7435C59.3863 51.7435 59.8193 51.5166 59.8193 51.2368C59.8193 50.9569 59.3863 50.73 58.852 50.73C58.3178 50.73 57.8848 50.9569 57.8848 51.2368C57.8848 51.5166 58.3178 51.7435 58.852 51.7435Z" fill="#8ACFE0"/>
<path d="M49.2247 49.7818C49.2247 49.7818 48.3913 50.6609 47.4316 49.7818" stroke="#005940" stroke-width="0.43" stroke-linecap="round" stroke-linejoin="round"/>
<path d="M57.2423 49.7818C57.2423 49.7818 56.4089 50.6609 55.4492 49.7818" stroke="#005940" stroke-width="0.43" stroke-linecap="round" stroke-linejoin="round"/>
<path d="M50.9757 51.5593C50.9757 51.5593 50.8036 52.7647 52.1762 52.7647C53.5487 52.7647 53.434 51.5593 53.434 51.5593" stroke="#005940" stroke-width="0.43" stroke-linecap="round" stroke-linejoin="round"/>
<path d="M0 79.2465C0 79.2465 2.71833 73.7873 7.21065 73.9985C10.3954 74.1482 10.9039 75.6416 12.6397 76.3787C14.1728 77.0313 15.9009 77.0198 17.4722 76.4708C18.0266 76.2751 18.7377 75.6147 19.6515 75.2577C22.8936 73.9985 25.2946 76.4133 26.0287 79.2465H0Z" fill="#E9EAF3"/>
<path d="M85.7207 52.1889C85.7207 52.1889 87.6285 48.3498 90.7865 48.4957C93.0231 48.5993 93.2525 49.2981 94.5983 50.1695C95.5426 50.7799 96.8884 50.9757 97.9933 50.588C98.3833 50.4498 98.8841 49.9852 99.5226 49.7357C101.797 48.8489 103.487 50.1926 104 52.1889H85.7207Z" fill="#E9EAF3"/>
<path d="M52.3135 4.0433C52.3135 4.0433 54.401 -0.156622 57.8495 0.00461817C60.2964 0.11979 60.5449 0.883761 62.0169 1.83585C63.0492 2.50384 64.5211 2.71883 65.7293 2.29269C66.1536 2.14297 66.7042 1.63238 67.4038 1.3598C69.8928 0.392362 71.7394 1.86272 72.3014 4.03946H52.3135V4.0433Z" fill="#E9EAF3"/>
<mask id="mask4_211_38994" style="mask-type:luminance" maskUnits="userSpaceOnUse" x="19" y="97" width="66" height="43">
<path d="M84.3156 97.67H19.6836V139.581H84.3156V97.67Z" fill="white"/>
</mask>
<g mask="url(#mask4_211_38994)">
<path d="M51.9044 113.227L55.5478 107.616C56.0384 106.919 56.1535 106.025 55.8627 105.222L53.7064 99.3014C53.5671 98.9182 53.1249 98.7327 52.7615 98.9182C52.1043 99.2588 51.2108 100.168 51.6197 101.987C51.8711 103.106 52.4556 106.296 52.4556 106.296C52.4556 106.296 50.3992 110.073 44.0664 111.785L51.8983 113.224L51.9044 113.227Z" fill="#F4AC9A"/>
<path d="M63.3344 112.184L67.0565 106.36C67.2625 106.038 67.4018 105.679 67.4715 105.305L68.592 99.0643C68.6405 98.7906 68.483 98.5169 68.2195 98.4318C67.6411 98.2432 66.36 98.1429 65.7482 99.557C64.8457 101.637 63.7826 105.308 63.7826 105.308L59.6819 110.502L52.0166 112.366L62.8529 114.382L63.3344 112.184Z" fill="#F4AC9A"/>
<path d="M61.2691 109.793L62.5987 103.763L63.1348 98.6325C63.1681 98.3253 62.944 98.0486 62.6381 98.0151C62.0838 97.9513 60.9663 98.0486 60.4696 99.189C59.6852 100.998 58.3042 106.999 58.3042 106.999L50.7539 110.721L53.8976 113.056L60.3061 111.274L61.2722 109.79L61.2691 109.793Z" fill="#F4AC9A"/>
<path d="M28 147.415L31.2436 115.349L40.9502 117.317L43.6366 149.063L28 147.415Z" fill="#F8BEAE"/>
<path d="M31.2433 115.349C31.2433 115.349 31.531 108.516 39.1872 108.035L51.7437 109.69L64.7061 114.875L39.8596 120.379L31.2402 115.349H31.2433Z" fill="#F8BEAE"/>
<path d="M64.7092 114.872L65.5572 114.735C66.2265 114.626 66.8353 114.279 67.2744 113.759L75.1336 103.684C75.4546 103.304 75.3395 102.44 74.8822 102.251C74.225 101.984 73.2801 101.801 72.3957 102.37C70.8209 103.383 63.8036 110.395 63.8036 110.395L52.501 110.438L64.7092 114.872Z" fill="#F8BEAE"/>
<path d="M61.4264 110.973L55.9659 116.809L40.9744 120.118L40.9502 117.317L60.7783 108.534L61.4264 110.973Z" fill="#F4AC9A"/>
<path d="M63.543 109.647C63.543 109.647 63.4189 110.788 64.7726 111.578" stroke="#F4AC9A" stroke-width="0.24" stroke-linecap="round" stroke-linejoin="round"/>
<path d="M50.7145 108.337L52.1107 108.732C53.3039 109.048 54.5335 109.2 55.7662 109.185L57.4804 109.164L52.3832 111.557L47.2559 109.246L50.7145 108.337Z" fill="#E39585"/>
<path d="M61.6654 107.99L59.6816 110.502" stroke="#E39585" stroke-width="0.24" stroke-linecap="round" stroke-linejoin="round"/>
<path d="M31.9883 112.643C31.9883 112.643 34.1174 107.707 40.2109 107.956C46.6103 108.218 53.7517 109.821 53.7517 109.821L57.4799 109.164C58.9487 108.905 60.4994 108.933 61.4019 110.125C61.6684 110.478 61.5654 110.982 61.1838 111.201L55.4446 114.516C55.0661 114.732 54.6572 114.89 54.2302 114.981L42.131 117.959C41.4738 118.114 41.0044 118.695 40.9923 119.373L40.9771 120.118L31.9913 112.64L31.9883 112.643Z" fill="#F8BEAE"/>
</g>
</svg>
