<svg width="314" height="48" viewBox="0 0 314 48" fill="none" xmlns="http://www.w3.org/2000/svg">
<g clip-path="url(#clip0_211_38995)">
<path opacity="0.16" d="M0 32.5883V20.9683C0 20.9683 19.5793 -1.9396 63.6013 10.589C107.598 23.1176 143.153 -4.52569 194.685 17.3513C246.216 39.2282 269.222 14.7302 314 14.7302V38.8089H159.381L0 32.5883Z" fill="#B0B0B0"/>
<path d="M0 48V26.6123C0 26.6123 7.73598 32.8329 25.4254 32.8329C43.1148 32.8329 53.4463 0 78.1409 0C102.836 0 101.5 30.9807 123.498 30.9807C145.497 30.9807 146.404 16.198 178.734 16.198C211.064 16.198 202.546 26.0007 230.366 26.0007C258.185 26.0007 255.968 37.5857 274.388 37.5857C292.808 37.5857 298.377 24.4456 314 24.4456V48.0175H0V48Z" fill="#D4E6AB"/>
</g>
<defs>
<clipPath id="clip0_211_38995">
<rect width="314" height="48" rx="16" fill="white"/>
</clipPath>
</defs>
</svg>
