<svg width="140" height="114" viewBox="0 0 140 114" fill="none" xmlns="http://www.w3.org/2000/svg">
<g id="Ilustra&#195;&#167;&#195;&#163;o">
<path id="Vector" d="M1.06045 94.9353C2.16461 96.4491 6.2183 97.3672 9.93982 98.136C12.3388 98.6315 14.7101 99.1198 17.1368 99.5937C18.5762 99.8755 19.991 100.289 20.4493 100.885C21.0429 101.663 20.0464 102.364 18.7854 102.947C15.9004 104.282 14.4918 106.109 16.6078 107.75C19.9018 110.305 29.3625 111.178 35.7936 111.926C43.6181 112.838 51.6609 113.462 59.7805 113.786C70.6775 114.223 81.227 113.921 92.0594 113.495C99.3825 113.206 106.712 112.332 112.395 110.604C114.13 110.076 115.822 109.339 115.468 108.527C115.265 108.061 114.881 107.285 114.007 106.938C111.497 105.943 108.087 105.482 104.851 104.822C104.851 104.822 104.851 104.822 104.845 104.819C101.212 103.758 103.627 101.761 108.154 101.918C120.654 102.354 127.964 101.899 132.855 100.939C141.257 99.2917 140.685 96.6962 137.73 93.3665C134.771 90.0369 127.887 87.9082 120.328 85.776C105.011 81.4566 86.3571 78.6176 67.5096 78.0982C59.3254 77.8726 54.1614 77.9812 46.423 79.0056C42.4801 79.5285 38.6355 80.3069 36.0981 81.5318C33.5607 82.7567 32.5796 84.4961 34.4865 85.856C35.2769 86.4183 36.5564 86.9782 36.215 87.6002C35.9013 88.1732 34.3235 88.5266 32.8349 88.7391C28.6182 89.3408 24.0016 89.3922 19.4989 89.5139C14.9931 89.6357 10.3304 89.8578 6.49511 90.7412C2.65979 91.6235 -0.105213 93.3415 1.06045 94.9365V94.9353ZM106.241 104.388L105.97 104.397C106.06 104.391 106.149 104.387 106.241 104.388Z" fill="#97C233"/>
<g id="Camada 1">
<g id="Group">
<path id="Vector_2" d="M109.859 8.08395L129.521 8.05243C129.521 8.05243 128.541 6.72485 127.463 6.5594C127.463 6.5594 125.356 0.0396791 121.846 0.000285005C118.582 -0.0391091 117.282 4.01848 117.282 4.01848C117.282 4.01848 115.766 2.20241 114.326 3.03757C112.883 3.87272 112.068 6.25213 112.068 6.25213C112.068 6.25213 110.448 7.17001 109.859 8.08395Z" fill="#EBEBEB"/>
<path id="Vector_3" d="M68.0255 11.7752L43.1624 11.8146C43.1624 11.8146 43.1624 10.1522 46.585 9.82518C46.585 9.82518 49.7023 2.56485 54.4782 3.53001C57.4523 4.13274 58.9789 8.39517 58.9789 8.39517C58.9789 8.39517 61.2217 5.03486 63.0197 5.68092C64.8177 6.32699 65.892 9.90003 65.892 9.90003C65.892 9.90003 67.7466 10.8376 68.0293 11.7752H68.0255Z" fill="#EBEBEB"/>
<path id="Vector_4" d="M105.411 30.7788L88.5051 30.8063C88.5051 30.8063 90.0996 29.2503 90.8082 29.2503C91.5169 29.2503 93.5788 24.0345 96.2249 24.2551C98.871 24.4718 100.277 28.3521 100.277 28.3521C100.277 28.3521 103.489 27.2924 105.411 30.7827V30.7788Z" fill="#EBEBEB"/>
<path id="Vector_5" d="M34.7988 25.9018L20.343 25.9254C20.343 25.9254 21.0592 24.9445 21.8546 24.8224C21.8546 24.8224 23.3887 20.0242 25.9708 19.9848C28.3681 19.9494 29.3369 22.9275 29.3369 22.9275C29.3369 22.9275 30.4451 21.5881 31.5081 22.1988C32.571 22.8094 33.1741 24.5585 33.1741 24.5585C33.1741 24.5585 34.3691 25.2282 34.8025 25.9018H34.7988Z" fill="#EBEBEB"/>
</g>
<g id="Group_2">
<g id="Group_3">
<path id="Vector_6" d="M58.0828 83.7363L56.9633 97.0003H87.0395C87.0395 97.0003 83.681 70.4841 83.681 70.2478C83.681 70.0114 89.7988 61.9041 88.4568 44.6652C86.7832 23.2112 72.4104 15.8091 57.932 15.8091C43.4536 15.8091 33.3064 29.7861 31.889 39.7607L26.5892 62.2153L33.5287 63.2277C33.5287 63.2277 33.8265 78.4378 37.5583 82.3378C41.29 86.2378 58.0828 83.7363 58.0828 83.7363Z" fill="white"/>
<path id="Vector_7" opacity="0.41" d="M58.0828 83.7363L56.9633 97.0003H87.0395C87.0395 97.0003 83.681 70.4841 83.681 70.2478C83.681 70.0114 89.7988 61.9041 88.4568 44.6652C86.7832 23.2112 72.4104 15.8091 57.932 15.8091C43.4536 15.8091 33.3064 29.7861 31.889 39.7607L26.5892 62.2153L33.5287 63.2277C33.5287 63.2277 33.8265 78.4378 37.5583 82.3378C41.29 86.2378 58.0828 83.7363 58.0828 83.7363Z" fill="#97C233"/>
</g>
<g id="Group_4">
<path id="Vector_8" d="M84.2191 45.2678C83.665 47.9308 80.2839 49.2269 80.2839 49.2269C80.0765 49.7075 81.23 59.099 81.5504 59.6348C81.8708 60.1705 79.971 61.5533 79.7184 61.246C79.4659 60.9387 77.2457 54.8248 72.6244 53.7257C72.5641 53.8084 70.668 56.3493 67.0117 56.4399C63.295 56.5345 60.5886 53.7572 60.5886 53.7572C60.5886 53.7572 57.9688 57.799 52.473 56.7551C46.9772 55.7111 45.8087 51.1808 45.8087 51.1808C45.8087 51.1808 38.7108 53.4223 35.9818 47.3556C33.8935 42.715 36.1853 39.3311 37.3652 38.0074C37.7044 37.6253 37.9532 37.4126 37.9796 37.3929C37.9796 37.3929 37.3953 31.7595 40.7237 28.8129C44.0521 25.8622 48.4473 26.2168 48.4473 26.2168C48.4473 26.2168 50.2151 20.5165 55.3039 19.4095C60.3926 18.3025 63.476 21.3831 63.476 21.3831C63.476 21.3831 67.792 19.0274 73.0767 21.328C78.3614 23.6286 78.1994 29.1162 78.1994 29.1162C78.1994 29.1162 82.0404 30.4319 83.3145 33.7174C84.5885 36.9989 82.5041 40.2844 82.5041 40.2844C82.5041 40.2844 84.7695 42.6047 84.2154 45.2638L84.2191 45.2678Z" fill="#97C233"/>
<g id="Group_5" style="mix-blend-mode:multiply" opacity="0.1">
<g id="Vector_9" style="mix-blend-mode:multiply">
<path d="M72.6283 53.7298C72.568 53.8125 70.672 56.3534 67.0156 56.444C63.299 56.5386 60.5925 53.7613 60.5925 53.7613C60.5925 53.7613 57.9727 57.8031 52.4769 56.7592C46.9811 55.7152 45.8126 51.1849 45.8126 51.1849C45.8126 51.1849 38.7147 53.4264 35.9857 47.3597C33.8974 42.7191 36.1892 39.3352 37.3691 38.0115L37.9835 37.397C37.9496 37.4915 36.0083 43.1485 39.4573 46.694C42.9365 50.267 47.882 47.927 47.882 47.927C47.882 47.927 48.519 53.5249 52.7898 54.8092C57.5355 56.2352 60.6151 52.4613 60.6151 52.4613C60.6151 52.4613 66.1637 58.7801 72.6283 53.7258V53.7298Z" fill="#222221"/>
</g>
</g>
<g id="Vector_10" style="mix-blend-mode:multiply" opacity="0.1">
<path d="M79.7224 61.2502C79.4698 60.9429 77.2496 54.829 72.6283 53.7299C72.6283 53.7299 76.4128 51.4017 78.1656 53.0326C79.9184 54.6596 79.7224 61.2502 79.7224 61.2502Z" fill="#222221"/>
</g>
<g id="Group_6">
<g id="Group_7">
<g id="Group_8">
<path id="Vector_11" d="M74.6793 17.0696C74.9507 16.912 75.3917 16.6835 75.7121 16.7505C75.9609 16.8017 76.0212 17.0932 75.9345 17.306C75.8025 17.6251 75.4482 17.9166 75.158 18.0781C74.9846 18.1726 74.8037 18.212 74.619 18.2396C74.4192 18.3105 74.1779 18.3696 73.9857 18.346C73.9706 18.346 73.9593 18.3538 73.9442 18.3578C73.9103 18.3696 73.8877 18.3499 73.8801 18.3223C73.8688 18.3184 73.8538 18.3145 73.8424 18.3105C73.326 18.0663 74.4795 17.1878 74.6755 17.0735L74.6793 17.0696Z" fill="#97C233"/>
<g id="Vector_12" style="mix-blend-mode:multiply" opacity="0.3">
<path d="M74.6793 17.0696C74.9507 16.912 75.3917 16.6835 75.7121 16.7505C75.9609 16.8017 76.0212 17.0932 75.9345 17.306C75.8025 17.6251 75.4482 17.9166 75.158 18.0781C74.9846 18.1726 74.8037 18.212 74.619 18.2396C74.4192 18.3105 74.1779 18.3696 73.9857 18.346C73.9706 18.346 73.9593 18.3538 73.9442 18.3578C73.9103 18.3696 73.8877 18.3499 73.8801 18.3223C73.8688 18.3184 73.8538 18.3145 73.8424 18.3105C73.326 18.0663 74.4795 17.1878 74.6755 17.0735L74.6793 17.0696Z" fill="#222221"/>
</g>
</g>
<g id="Group_9">
<path id="Vector_13" d="M69.1388 18.1687C69.0144 18.5233 68.8109 19.1339 69.0559 19.4845C69.086 19.5278 69.1313 19.5554 69.1878 19.5436C69.3424 19.5081 69.4517 19.386 69.5384 19.2599C69.855 18.9448 70.1113 18.476 70.2395 18.0978C70.345 17.7945 70.1905 17.3414 69.8211 17.3414C69.4441 17.3414 69.2444 17.8654 69.1388 18.1648V18.1687Z" fill="#97C233"/>
<g id="Vector_14" style="mix-blend-mode:multiply" opacity="0.3">
<path d="M69.1388 18.1687C69.0144 18.5233 68.8109 19.1339 69.0559 19.4845C69.086 19.5278 69.1313 19.5554 69.1878 19.5436C69.3424 19.5081 69.4517 19.386 69.5384 19.2599C69.855 18.9448 70.1113 18.476 70.2395 18.0978C70.345 17.7945 70.1905 17.3414 69.8211 17.3414C69.4441 17.3414 69.2444 17.8654 69.1388 18.1648V18.1687Z" fill="#222221"/>
</g>
</g>
<g id="Group_10">
<path id="Vector_15" d="M66.3341 21.1074C66.4245 21.4029 66.7298 21.7614 66.9221 21.3162C66.9334 21.2886 66.9334 21.2611 66.9221 21.2414C67.1822 20.7135 67.4196 20.1423 67.1746 19.5514C67.0126 19.1653 66.6243 19.1535 66.3642 19.4568C65.9948 19.8862 66.1833 20.6229 66.3341 21.1074Z" fill="#97C233"/>
<g id="Vector_16" style="mix-blend-mode:multiply" opacity="0.3">
<path d="M66.3341 21.1074C66.4245 21.4029 66.7298 21.7614 66.9221 21.3162C66.9334 21.2886 66.9334 21.2611 66.9221 21.2414C67.1822 20.7135 67.4196 20.1423 67.1746 19.5514C67.0126 19.1653 66.6243 19.1535 66.3642 19.4568C65.9948 19.8862 66.1833 20.6229 66.3341 21.1074Z" fill="#222221"/>
</g>
</g>
<path id="Vector_17" d="M74.125 18.346C73.6878 18.669 72.8133 18.862 72.5268 18.9172C72.4175 18.992 70.6383 19.9138 69.9824 20.4811C69.5489 20.8593 69.1531 21.2848 68.7875 21.7417C69.5339 21.2454 70.3368 20.8199 71.1623 20.5008C71.9237 20.2054 72.802 20.0832 73.5747 20.4299C73.5747 20.4575 72.5796 20.9184 72.1498 21.1508C71.7578 21.3675 71.3922 21.6432 70.9851 21.8245C70.2576 22.1514 69.3567 22.1829 68.5802 22.0608C68.5689 22.0608 68.5613 22.0529 68.5538 22.0451C68.0449 22.7423 67.6077 23.4987 67.3287 24.322C66.605 26.4493 66.6465 28.5845 66.933 30.5857C66.9103 30.5502 66.884 30.5148 66.8538 30.4793C66.7746 30.373 66.6842 30.2666 66.5937 30.1681C66.5108 29.5418 66.4618 28.9154 66.4505 28.289C66.4505 28.2811 66.4505 28.2693 66.4429 28.2614C65.7682 27.8517 65.2103 27.3357 64.8824 26.5754C64.5168 25.7245 64.0983 23.8454 64.1172 23.8611C64.9238 24.2984 65.6137 25.1257 65.9642 26.0002C66.164 26.4966 66.3412 27.0363 66.4618 27.5878C66.4731 27.2884 66.4919 26.993 66.5221 26.6975C66.4241 25.6496 66.409 24.5781 66.4769 23.5381C66.507 23.0732 66.5636 22.6163 66.6427 22.1593C66.5749 21.8796 66.4165 21.5723 66.409 21.2729C66.4052 21.1666 66.4203 21.0641 66.4655 20.9657C66.5598 20.7569 66.7671 20.6072 66.9895 20.6938C67.0272 20.7096 67.0498 20.7411 67.0536 20.7844C67.0573 20.8396 67.0611 20.8987 67.0573 20.9538C67.046 21.3399 66.8764 21.7732 66.8048 22.1357C66.6917 22.7384 66.6314 23.349 66.605 23.9596C66.5786 24.6057 66.605 25.2517 66.6389 25.8939C66.7332 25.4014 66.8613 24.9208 67.0234 24.456C67.1855 23.5263 67.4531 22.6084 67.8602 21.7772C68.1128 21.2611 68.3917 20.7608 68.697 20.2763C68.7385 20.0478 68.8064 19.5554 68.9534 19.2047C69.0438 18.9723 69.172 18.799 69.3492 18.8069C69.6243 18.8226 69.6319 19.0196 69.5414 19.2599C69.4095 19.6066 69.0702 20.032 69.0212 20.1029C68.501 20.9144 67.9922 21.7772 67.6567 22.6911C67.5587 22.9669 67.4758 23.2466 67.4079 23.5302C68.0336 22.2184 68.9496 21.0602 70.1068 20.1699C70.8607 19.5869 71.7088 19.1811 72.5381 18.7438C72.915 18.4523 73.2694 18.145 73.6388 17.826C73.7518 17.7275 73.9102 17.5817 74.0572 17.5699C74.1363 17.562 74.2117 17.5935 74.2796 17.6841C74.4756 17.9441 74.37 18.1608 74.1288 18.342L74.125 18.346Z" fill="#455A64"/>
</g>
<g id="Group_11" style="mix-blend-mode:multiply" opacity="0.1">
<path id="Vector_18" d="M60.7737 29.329C61.4295 29.0138 62.1495 28.8445 62.8808 28.7893C63.2464 28.7538 63.6158 28.7814 63.9852 28.8208C64.3546 28.8681 64.7165 28.9705 65.0708 29.0966C65.4176 29.2502 65.7606 29.4275 66.0546 29.6717C66.3486 29.912 66.6276 30.176 66.8538 30.4793C67.3212 31.0742 67.6755 31.7596 67.864 32.4884C67.4983 31.8423 67.0724 31.2475 66.5861 30.7314C66.0999 30.2193 65.5345 29.7978 64.905 29.5457C64.2679 29.2975 63.5819 29.1832 62.8845 29.1596C62.1872 29.1399 61.4785 29.199 60.7699 29.3251L60.7737 29.329Z" fill="#222221"/>
<path id="Vector_19" d="M72.2182 31.555C71.8261 31.3186 71.4266 31.1334 71.0195 30.9995C70.6124 30.8656 70.1978 30.775 69.7793 30.7553C69.6738 30.7395 69.5683 30.7513 69.4665 30.7474C69.3609 30.7474 69.2554 30.7474 69.1499 30.7553L68.8332 30.7789C68.7277 30.7986 68.6221 30.8183 68.5166 30.834L68.3583 30.8577L68.2 30.8971L67.8796 30.9759C67.6647 31.031 67.4612 31.1137 67.235 31.161C67.4121 31.0153 67.5968 30.8774 67.7966 30.7553C68.0039 30.6568 68.2037 30.5268 68.4299 30.4677C68.5392 30.4283 68.6523 30.3928 68.7616 30.3613L69.1084 30.2983C69.2252 30.2746 69.3421 30.2707 69.4589 30.2668C69.5758 30.2668 69.6926 30.251 69.8095 30.2668C70.2807 30.2904 70.7406 30.4322 71.159 30.645C71.5736 30.8616 71.9505 31.161 72.2182 31.5471V31.555Z" fill="#222221"/>
</g>
</g>
<g id="Group_12">
<g id="Group_13">
<g id="Group_14">
<g id="Group_15">
<path id="Vector_20" d="M82.1167 30.5071C81.3816 30.9444 80.6202 31.3344 79.8361 31.6653C79.5157 31.7993 79.0936 32.0396 78.6865 32.1341C78.4528 32.1893 78.2228 32.1971 78.0268 32.1065C77.9288 32.0947 77.827 32.0356 77.7253 31.9135C77.7064 31.8899 77.6951 31.8623 77.6951 31.8387C77.3634 31.5235 77.2654 31.0232 77.1636 30.5583C76.9563 29.6326 76.8432 28.6832 76.8244 27.7338C76.8168 27.3871 76.7565 26.9341 76.9073 26.6071C77.0015 26.4102 77.1146 26.3905 77.2654 26.2801C77.6122 26.0201 77.6235 25.6774 77.876 25.3504C78.008 25.185 78.1964 25.0195 78.4188 25.0708C78.9503 25.1811 78.8938 26.2605 78.9239 26.6544C78.9918 27.4699 78.9918 28.2892 78.9239 29.1047C78.8674 29.8099 78.7882 30.5859 78.6035 31.2911C79.3047 30.1683 80.198 29.1559 81.1668 28.2971C81.5211 27.982 82.0865 27.4659 82.5954 27.655C82.8027 27.7299 82.7801 27.8953 82.912 28.0095C83.1985 28.2538 83.5038 28.0017 83.8016 28.1592C84.906 28.7383 82.5049 30.2865 82.1204 30.515L82.1167 30.5071Z" fill="#97C233"/>
<g id="Vector_21" style="mix-blend-mode:multiply" opacity="0.3">
<path d="M82.1167 30.5071C81.3816 30.9444 80.6202 31.3344 79.8361 31.6653C79.5157 31.7993 79.0936 32.0396 78.6865 32.1341C78.4528 32.1893 78.2228 32.1971 78.0268 32.1065C77.9288 32.0947 77.827 32.0356 77.7253 31.9135C77.7064 31.8899 77.6951 31.8623 77.6951 31.8387C77.3634 31.5235 77.2654 31.0232 77.1636 30.5583C76.9563 29.6326 76.8432 28.6832 76.8244 27.7338C76.8168 27.3871 76.7565 26.9341 76.9073 26.6071C77.0015 26.4102 77.1146 26.3905 77.2654 26.2801C77.6122 26.0201 77.6235 25.6774 77.876 25.3504C78.008 25.185 78.1964 25.0195 78.4188 25.0708C78.9503 25.1811 78.8938 26.2605 78.9239 26.6544C78.9918 27.4699 78.9918 28.2892 78.9239 29.1047C78.8674 29.8099 78.7882 30.5859 78.6035 31.2911C79.3047 30.1683 80.198 29.1559 81.1668 28.2971C81.5211 27.982 82.0865 27.4659 82.5954 27.655C82.8027 27.7299 82.7801 27.8953 82.912 28.0095C83.1985 28.2538 83.5038 28.0017 83.8016 28.1592C84.906 28.7383 82.5049 30.2865 82.1204 30.515L82.1167 30.5071Z" fill="#222221"/>
</g>
</g>
<g id="Group_16">
<path id="Vector_22" d="M81.3302 26.359C80.5386 28.0333 79.649 29.6524 78.8801 31.3424C78.8612 31.3818 78.7934 31.3502 78.8084 31.3108C79.404 29.7627 80.2107 28.3208 80.9382 26.8436C81.3076 26.0951 81.628 25.3623 81.8127 24.5429C81.9333 23.9954 81.9635 23.4911 82.3291 23.0696C82.3856 23.0026 82.5063 22.9869 82.5553 23.1051C82.7701 23.6448 82.167 24.4011 81.8428 24.9054C81.7147 25.4057 81.5601 25.8823 81.3302 26.3669V26.359Z" fill="#263239"/>
<path id="Vector_23" d="M78.1909 26.1307C77.6179 27.667 77.4898 29.3413 77.3013 30.9643C77.2975 31.0037 77.2448 31.0037 77.2448 30.9643C77.2598 28.8016 77.7574 26.4025 78.843 24.547C78.9372 24.3816 79.5743 23.3613 79.8343 23.7C79.97 23.8813 79.6685 24.1767 79.5705 24.2791C79.2539 24.6258 78.8618 24.87 78.5716 25.2522C78.5716 25.2522 78.564 25.2561 78.5603 25.2561C78.417 25.5555 78.2964 25.8549 78.1909 26.1307Z" fill="#263239"/>
<path id="Vector_24" d="M83.984 26.6626C83.8709 27.3914 83.5279 28.1005 83.1585 28.719C82.348 30.0663 81.1908 31.1417 79.9658 32.0636C79.9356 32.0872 79.9017 32.032 79.9281 32.0124C81.0966 31.0275 82.2538 29.9993 83.0605 28.656C83.2715 28.3093 83.4562 27.9429 83.607 27.5608C83.6183 27.5332 83.6296 27.5017 83.6447 27.4702C83.6372 27.4663 83.6334 27.4584 83.6372 27.4505C83.7013 26.9738 83.6899 26.572 83.6598 26.0954C83.6447 25.8866 83.6296 25.7093 83.7427 25.532C83.754 25.5163 83.7653 25.5123 83.7842 25.5123C84.1498 25.6108 84.033 26.3948 83.9915 26.6626H83.984Z" fill="#263239"/>
</g>
<g id="Group_17">
<path id="Vector_25" d="M83.2542 31.8073C81.6974 32.7094 79.8354 33.0128 78.1881 33.71C77.8112 33.8676 77.4455 34.0449 77.0799 34.23C76.9819 34.2773 76.8613 34.3561 76.7331 34.4034C76.654 34.4309 76.5748 34.4428 76.4994 34.427C76.4655 34.4231 76.4353 34.4112 76.4052 34.3915C76.2846 34.3246 76.2431 34.2143 76.2205 34.0843C76.1715 33.8558 76.2205 33.5682 76.2506 33.3003C76.228 33.0206 76.1828 32.7409 76.1564 32.4928C76.1187 32.1303 76.0735 31.7679 76.0207 31.4094C75.9038 30.6412 75.7191 29.8927 75.5344 29.1403C75.3761 28.5021 75.2442 27.8521 75.2743 27.1903C75.2894 26.8397 75.3347 26.1858 75.6324 25.9533C75.9001 25.7485 76.0923 25.9336 76.1979 26.1936C76.2996 26.4418 76.2959 26.7176 76.375 26.9658C76.4956 27.3439 76.7105 27.3794 76.948 27.6158C77.2646 27.9349 77.3325 28.4155 77.3136 28.8527C77.2948 29.2073 77.2571 29.5658 77.2118 29.9243C77.3136 29.6012 77.4267 29.2861 77.5435 28.9749C77.7509 28.4194 77.9619 27.7261 78.3577 27.277C78.4897 27.1273 78.6367 27.013 78.8214 26.9382C79.2322 26.7648 79.5187 26.6742 79.824 26.3158C80.0992 26.0006 80.4535 25.4255 80.936 25.5003C81.4223 25.5791 81.3657 26.0833 81.3997 26.4615C81.4562 27.1627 82.0065 27.5449 81.8821 28.3091C81.7804 28.9315 81.3657 29.4673 80.9963 29.944C80.7099 30.3143 80.4008 30.6767 80.0653 31.0076C80.5101 30.724 80.9926 30.5073 81.4939 30.3615C81.705 30.2985 81.9462 30.2315 82.1686 30.2946C82.4928 30.3852 82.5116 30.6018 82.9263 30.5546C83.2316 30.5191 83.9101 30.2788 84.076 30.7358C84.2456 31.2124 83.5633 31.6261 83.2542 31.8073Z" fill="#97C233"/>
<g id="Vector_26" style="mix-blend-mode:multiply" opacity="0.1">
<path d="M83.2542 31.8073C81.6974 32.7094 79.8354 33.0128 78.1881 33.71C77.8112 33.8676 77.4455 34.0449 77.0799 34.23C76.9819 34.2773 76.8613 34.3561 76.7331 34.4034C76.654 34.4309 76.5748 34.4428 76.4994 34.427C76.4655 34.4231 76.4353 34.4112 76.4052 34.3915C76.2846 34.3246 76.2431 34.2143 76.2205 34.0843C76.1715 33.8558 76.2205 33.5682 76.2506 33.3003C76.228 33.0206 76.1828 32.7409 76.1564 32.4928C76.1187 32.1303 76.0735 31.7679 76.0207 31.4094C75.9038 30.6412 75.7191 29.8927 75.5344 29.1403C75.3761 28.5021 75.2442 27.8521 75.2743 27.1903C75.2894 26.8397 75.3347 26.1858 75.6324 25.9533C75.9001 25.7485 76.0923 25.9336 76.1979 26.1936C76.2996 26.4418 76.2959 26.7176 76.375 26.9658C76.4956 27.3439 76.7105 27.3794 76.948 27.6158C77.2646 27.9349 77.3325 28.4155 77.3136 28.8527C77.2948 29.2073 77.2571 29.5658 77.2118 29.9243C77.3136 29.6012 77.4267 29.2861 77.5435 28.9749C77.7509 28.4194 77.9619 27.7261 78.3577 27.277C78.4897 27.1273 78.6367 27.013 78.8214 26.9382C79.2322 26.7648 79.5187 26.6742 79.824 26.3158C80.0992 26.0006 80.4535 25.4255 80.936 25.5003C81.4223 25.5791 81.3657 26.0833 81.3997 26.4615C81.4562 27.1627 82.0065 27.5449 81.8821 28.3091C81.7804 28.9315 81.3657 29.4673 80.9963 29.944C80.7099 30.3143 80.4008 30.6767 80.0653 31.0076C80.5101 30.724 80.9926 30.5073 81.4939 30.3615C81.705 30.2985 81.9462 30.2315 82.1686 30.2946C82.4928 30.3852 82.5116 30.6018 82.9263 30.5546C83.2316 30.5191 83.9101 30.2788 84.076 30.7358C84.2456 31.2124 83.5633 31.6261 83.2542 31.8073Z" fill="#222221"/>
</g>
</g>
<path id="Vector_27" d="M76.084 29.1047C76.084 29.1047 76.0763 29.1276 76.084 29.1238C76.0955 29.1238 76.0916 29.1009 76.084 29.1047Z" fill="#F2D2C6"/>
<g id="Group_18">
<path id="Vector_28" d="M81.9723 31.7441C80.4382 32.7684 77.7657 32.5714 76.7328 34.3166C76.7328 34.3441 76.7328 34.3717 76.7328 34.3993C76.6537 34.4269 76.5745 34.4387 76.4991 34.4229C76.2654 33.8163 76.3785 33.1387 76.4011 32.4887C76.4351 31.4999 76.4087 30.5229 76.2051 29.5538C76.2014 29.5262 76.2353 29.5184 76.2466 29.5459C76.469 30.2944 76.5557 31.0587 76.5745 31.8347C76.5934 32.6187 76.3861 33.5759 76.6085 34.3481C76.616 34.3205 76.6198 34.2929 76.6235 34.2693C76.6198 33.379 76.9665 32.4808 77.3171 31.6929C77.7657 30.6726 78.3386 29.7153 78.8701 28.7423C78.8927 28.7029 78.9455 28.7423 78.9229 28.7817C78.4555 29.739 77.9768 30.6962 77.5395 31.6693C77.2832 32.2365 77.0156 32.8708 76.861 33.5129C77.7242 31.4565 80.0273 30.2668 80.7397 28.1199C80.7586 28.0726 80.8302 28.1002 80.8151 28.1474C80.0876 30.4323 77.7468 31.7008 76.8685 33.8793C77.0042 33.702 77.1701 33.5484 77.3548 33.4144C77.7242 33.0284 78.1502 32.7053 78.6213 32.4453C79.379 32.0278 80.2083 31.8268 80.9433 31.3541C80.9697 31.3384 80.9961 31.3817 80.9735 31.4014C80.408 31.9056 79.673 32.0987 79.0058 32.4099C78.6063 32.599 78.2255 32.8314 77.875 33.1032C78.0936 32.9929 78.316 32.9023 78.5346 32.8235C79.6692 32.402 80.8415 32.209 81.9422 31.6732C81.9874 31.6535 82.0176 31.7165 81.9761 31.7441H81.9723Z" fill="white"/>
<path id="Vector_29" d="M75.9789 27.8637C75.9218 28.1237 75.9636 28.3404 76.0207 28.5925C76.0245 28.6162 76.0587 28.6083 76.0549 28.5846C76.0131 28.3601 76.0359 28.104 76.0435 27.8755C76.0435 27.8361 75.9865 27.8204 75.9789 27.8637Z" fill="white"/>
<path id="Vector_30" d="M80.8748 27.3633C80.8444 27.4973 80.852 27.6351 80.8254 27.7691C80.8178 27.8124 80.8786 27.8203 80.8938 27.7848C80.9433 27.6627 80.9851 27.4973 80.9509 27.3673C80.9395 27.3318 80.8824 27.32 80.8748 27.3633Z" fill="white"/>
<path id="Vector_31" d="M82.5749 31.2475C82.5144 31.2869 82.4426 31.3223 82.3859 31.3696C82.3669 31.3854 82.3783 31.4208 82.4048 31.4208C82.4879 31.4208 82.5636 31.3735 82.6241 31.3184C82.6581 31.2869 82.6203 31.2199 82.5787 31.2475H82.5749Z" fill="white"/>
</g>
</g>
<path id="Vector_32" d="M75.9681 33.3592C76.0209 33.9777 76.1566 34.6396 75.8626 35.2502C75.8362 35.3014 75.8852 35.3526 75.9229 35.3093C76.2169 34.9823 78.1318 34.1983 78.0451 33.8595C77.9923 33.6547 77.4608 33.9108 77.3854 33.6232C77.3553 33.5011 77.4533 33.2568 77.4834 33.1308C77.5249 32.9653 77.5588 32.7998 77.5852 32.6344C77.6078 32.4808 77.6041 32.2838 77.4759 32.2247C77.3251 32.1538 77.163 32.3547 77.0575 32.4886C76.9708 32.5989 76.8954 32.7171 76.82 32.8353C76.7333 32.9653 76.6127 33.2056 76.4996 32.9968C76.4016 32.8117 76.3715 32.5911 76.2207 32.4532C75.8814 32.142 75.9493 33.1741 75.9644 33.3592H75.9681Z" fill="#455A64"/>
<path id="Vector_33" d="M75.266 41.5296C75.1944 41.3484 75.1115 41.1751 75.021 41.0017C74.9494 40.8599 74.8665 40.722 74.776 40.5881C74.7835 40.4738 74.7911 40.3596 74.8024 40.2454C74.8589 39.6072 74.9381 38.969 75.0436 38.3387C75.07 38.1614 75.1039 37.9841 75.1379 37.8069C75.2133 37.3972 75.3 36.9875 75.3942 36.5817C75.5412 35.9672 75.7184 35.392 75.9935 34.8641C76.0878 34.679 76.1933 34.5017 76.3177 34.3284C76.3516 34.2811 76.3855 34.2338 76.4232 34.1905C76.4609 34.1432 76.4986 34.0959 76.5363 34.0487C76.5665 34.0093 76.6004 33.9778 76.6306 33.9384C76.6381 33.9305 76.6381 33.9266 76.6456 33.9226C76.6833 33.8793 76.7474 33.9384 76.7097 33.9817C76.6796 34.0211 76.6494 34.0605 76.6193 34.1038C76.6004 34.1314 76.5816 34.1629 76.5589 34.1905C76.525 34.2417 76.4949 34.2929 76.4609 34.3402C76.4496 34.3638 76.4345 34.3875 76.4232 34.4072C76.28 34.6553 76.1669 34.9153 76.0689 35.1832C75.7259 36.1563 75.6354 37.2554 75.5148 38.252C75.4545 38.7444 75.4055 39.2408 75.3678 39.7332C75.364 39.7726 75.3603 39.816 75.3565 39.8593C75.3113 40.4148 75.2773 40.9702 75.2585 41.5296H75.266Z" fill="#455A64"/>
<path id="Vector_34" d="M75.1349 38.4214C75.1349 38.4214 75.2065 36.2783 74.8145 35.195C74.4225 34.1077 73.1861 32.7092 73.1861 32.7092C73.1861 32.7092 72.3191 35.9947 75.1349 38.4253V38.4214Z" fill="#455A64"/>
<path id="Vector_35" d="M75.317 39.875C75.317 39.875 76.0596 37.8777 76.8286 37.0386C77.5975 36.2035 79.2636 35.4235 79.2636 35.4235C79.2636 35.4235 78.8188 38.7995 75.317 39.8711V39.875Z" fill="#455A64"/>
</g>
<g id="Group_19" style="mix-blend-mode:multiply" opacity="0.1">
<path id="Vector_36" d="M68.1764 38.2204C69.0057 37.9998 69.8877 37.984 70.7471 38.1101C71.6066 38.244 72.4547 38.5434 73.2048 39.028C73.5704 39.2801 73.9361 39.5519 74.2376 39.8907C74.5354 40.2295 74.8144 40.5958 75.0217 41.0016C75.4401 41.8052 75.6964 42.6956 75.7077 43.5937C75.5079 42.7271 75.1649 41.9155 74.7163 41.1946C74.2565 40.4777 73.6684 39.8789 72.9673 39.4337C72.7939 39.3195 72.613 39.221 72.4321 39.1186C72.2436 39.0319 72.0627 38.9334 71.8667 38.8586C71.4897 38.6852 71.0864 38.5828 70.6831 38.4725C69.8726 38.2874 69.0321 38.1928 68.1802 38.2164L68.1764 38.2204Z" fill="#222221"/>
<path id="Vector_37" d="M80.4877 40.8164C80.024 40.6982 79.5679 40.6194 79.1118 40.58C78.6595 40.5406 78.2072 40.5603 77.7699 40.6312C77.5475 40.6549 77.3364 40.7297 77.1216 40.7809C76.9143 40.8597 76.6994 40.9306 76.4996 41.037C76.0812 41.2261 75.7156 41.5097 75.3123 41.7894C75.5723 41.3758 75.9041 40.9818 76.3225 40.71C76.5185 40.5525 76.7559 40.4618 76.9783 40.3476C77.212 40.2688 77.4495 40.1821 77.6983 40.1546C78.1883 40.0718 78.6897 40.0955 79.1646 40.2097C79.6396 40.324 80.0957 40.517 80.4839 40.8164H80.4877Z" fill="#222221"/>
</g>
</g>
<g id="Group_20">
<g id="Group_21">
<g id="Group_22">
<path id="Vector_38" d="M38.7756 26.5124C39.7405 27.3357 40.9731 27.6666 42.1417 28.033C42.4696 28.1354 42.79 28.2457 43.1104 28.3639C43.3328 28.4466 43.5816 28.5333 43.8191 28.4782C44.2375 28.3876 44.2789 27.9936 44.2865 27.6154C44.2978 27.4972 44.2978 27.3712 44.294 27.2491C44.294 27.2215 44.2978 27.1939 44.3015 27.1663C44.3015 27.1466 44.3015 27.1309 44.2865 27.1191C44.2789 26.9733 44.2639 26.8275 44.2525 26.6897C44.1922 25.9018 44.1244 25.1178 44.0603 24.33C44.0075 23.6957 43.9849 23.0457 43.8304 22.4272C43.7738 22.2066 43.7135 21.9151 43.5024 21.8009C43.3856 21.7378 43.2461 21.7378 43.1217 21.6866C43.0086 21.6393 42.9182 21.5606 42.8352 21.47C42.6279 21.2454 42.2585 20.556 41.874 20.7766C41.678 20.8909 41.6328 21.1548 41.5763 21.3596C41.4933 21.659 41.2935 21.8245 41.1201 22.0569C40.8299 22.4509 40.9015 22.963 41.0636 23.3963C41.2747 23.9715 41.5989 24.4954 41.9419 24.9918C42.2962 25.5039 42.6807 25.9924 43.035 26.5006C43.231 26.7803 43.4195 27.0718 43.5854 27.3712C43.6683 27.5169 43.7437 27.6666 43.8153 27.8203C43.8643 27.9227 43.9208 28.033 43.9435 28.1512C43.5326 27.58 43.0312 27.0875 42.5525 26.5754C42.0437 26.0357 41.5989 25.4212 41.0221 24.9603C40.5849 24.6136 40.076 24.3812 39.5257 24.3772C39.2091 24.3772 38.9226 24.3733 38.6173 24.263C38.3534 24.1684 38.0933 24.0306 37.8144 23.9912C37.2075 23.9006 37.509 24.6491 37.641 24.9563C37.8973 25.5591 38.2931 26.0909 38.7793 26.5085L38.7756 26.5124Z" fill="#97C233"/>
<g id="Vector_39" style="mix-blend-mode:multiply" opacity="0.3">
<path d="M38.7756 26.5124C39.7405 27.3357 40.9731 27.6666 42.1417 28.033C42.4696 28.1354 42.79 28.2457 43.1104 28.3639C43.3328 28.4466 43.5816 28.5333 43.8191 28.4782C44.2375 28.3876 44.2789 27.9936 44.2865 27.6154C44.2978 27.4972 44.2978 27.3712 44.294 27.2491C44.294 27.2215 44.2978 27.1939 44.3015 27.1663C44.3015 27.1466 44.3015 27.1309 44.2865 27.1191C44.2789 26.9733 44.2639 26.8275 44.2525 26.6897C44.1922 25.9018 44.1244 25.1178 44.0603 24.33C44.0075 23.6957 43.9849 23.0457 43.8304 22.4272C43.7738 22.2066 43.7135 21.9151 43.5024 21.8009C43.3856 21.7378 43.2461 21.7378 43.1217 21.6866C43.0086 21.6393 42.9182 21.5606 42.8352 21.47C42.6279 21.2454 42.2585 20.556 41.874 20.7766C41.678 20.8909 41.6328 21.1548 41.5763 21.3596C41.4933 21.659 41.2935 21.8245 41.1201 22.0569C40.8299 22.4509 40.9015 22.963 41.0636 23.3963C41.2747 23.9715 41.5989 24.4954 41.9419 24.9918C42.2962 25.5039 42.6807 25.9924 43.035 26.5006C43.231 26.7803 43.4195 27.0718 43.5854 27.3712C43.6683 27.5169 43.7437 27.6666 43.8153 27.8203C43.8643 27.9227 43.9208 28.033 43.9435 28.1512C43.5326 27.58 43.0312 27.0875 42.5525 26.5754C42.0437 26.0357 41.5989 25.4212 41.0221 24.9603C40.5849 24.6136 40.076 24.3812 39.5257 24.3772C39.2091 24.3772 38.9226 24.3733 38.6173 24.263C38.3534 24.1684 38.0933 24.0306 37.8144 23.9912C37.2075 23.9006 37.509 24.6491 37.641 24.9563C37.8973 25.5591 38.2931 26.0909 38.7793 26.5085L38.7756 26.5124Z" fill="#222221"/>
</g>
<path id="Vector_40" d="M43.6118 27.517C43.7362 26.6503 43.7324 25.7797 43.6118 24.9051C43.3781 23.2388 42.7335 21.6512 41.957 20.1818C41.7911 19.8666 41.6102 19.5475 41.3614 19.2954C41.2559 19.1891 41.0184 19.0709 41.0259 19.3309C41.0335 19.5712 41.2483 19.7957 41.4104 19.9415C41.6177 20.1306 41.8514 20.2842 42.0248 20.5088C42.1568 20.7688 42.2887 21.0327 42.4093 21.2966C42.7184 21.9624 42.9823 22.6518 43.1971 23.3609C43.5967 24.7003 43.7889 26.1342 43.6005 27.5209C43.6005 27.5327 43.6155 27.5367 43.6193 27.5209L43.6118 27.517Z" fill="#263239"/>
<path id="Vector_41" d="M43.439 27.9031C42.6098 27.777 41.8107 27.5209 41.0492 27.1467C39.5905 26.4297 38.3202 25.3306 37.2006 24.1252C36.9594 23.8652 36.7182 23.5933 36.5598 23.2703C36.492 23.1324 36.4543 22.8606 36.688 22.9433C36.9066 23.0182 37.0499 23.2979 37.1366 23.5027C37.2496 23.7667 37.325 24.0464 37.4796 24.2827C37.6794 24.4915 37.8829 24.6964 38.0902 24.8933C38.6142 25.3937 39.1683 25.8585 39.7525 26.2761C40.8645 27.064 42.1235 27.6667 43.4466 27.8794C43.4579 27.8794 43.4541 27.8991 43.4466 27.8952L43.439 27.9031Z" fill="#263239"/>
<path id="Vector_42" d="M39.2996 22.1122C39.7331 22.7149 40.1854 23.3098 40.649 23.8888C41.5726 25.047 42.5639 26.1264 43.6005 27.1782C43.608 27.1861 43.6231 27.1704 43.6118 27.1625C42.5978 26.1067 41.6404 24.9761 40.7244 23.8298C40.2683 23.2585 39.8273 22.6755 39.3976 22.0807C39.3109 21.9585 39.2242 21.8364 39.1375 21.7104C38.9905 21.3125 38.8887 20.95 38.7116 20.5679C38.6286 20.3867 38.4213 19.9691 38.2253 20.1188C37.969 20.3158 38.8661 21.5094 39.2996 22.1122Z" fill="#263239"/>
<g id="Group_23">
<path id="Vector_43" d="M37.348 26.4534C37.6043 26.8985 37.9888 27.2806 38.3732 27.5958C39.2251 28.301 40.2466 28.7422 41.2719 29.0337C42.2784 29.3213 43.33 29.4513 44.3515 29.27C44.3629 29.27 44.3742 29.2661 44.3855 29.2622C44.393 29.2661 44.4043 29.2622 44.4119 29.2582C44.4307 29.2582 44.4835 29.2425 44.491 29.2346C44.491 29.2346 44.589 29.2149 44.5664 29.2031C44.5664 29.1991 44.6229 29.1282 44.7059 29.0258C44.8567 28.8406 45.0904 28.5491 45.1959 28.3364C45.3542 28.0213 45.4447 27.6706 45.4937 27.3122C45.6068 26.4967 45.505 25.6615 45.5879 24.8421C45.6633 24.1331 45.9196 23.4476 45.897 22.7227C45.8932 22.5612 45.8744 22.3052 45.6595 22.3485C45.3881 22.4037 45.3504 22.7976 45.1733 22.9591C45.1582 22.9985 45.1281 23.0143 45.079 22.9985C45.0187 23.03 44.981 23.0103 44.9622 22.9394C44.9396 22.9118 44.9132 22.837 44.9019 22.8094C44.8604 22.7149 44.8265 22.6164 44.7963 22.514C44.7436 22.3406 44.6983 22.1594 44.6531 21.9821C44.5777 21.6985 44.5136 21.3046 44.3139 21.084C44.1668 20.9185 43.9708 20.95 43.8728 21.143C43.7447 21.3991 43.7711 21.7694 43.7673 22.053C43.7673 22.2697 43.7258 22.5809 43.4469 22.5179C43.3338 22.4943 43.2283 22.4234 43.1152 22.3997C42.8966 22.3524 42.7118 22.4903 42.6289 22.6991C42.5083 22.9985 42.6101 23.3806 42.6742 23.6879C42.7533 24.0818 42.8664 24.4679 42.9946 24.85C43.2396 25.5749 43.8012 26.9419 44.0915 27.647C44.246 28.0331 42.4895 24.0267 41.8072 23.2191C41.6639 23.0497 41.4189 22.967 41.2003 22.9512C41.0533 22.9394 40.9138 23.0103 40.7706 23.0064C40.6198 23.0064 40.4766 22.9394 40.3409 22.8764C39.979 22.707 39.3571 22.5061 39.2553 23.097C39.21 23.3688 39.3269 23.6288 39.3307 23.9006C39.3344 24.1646 39.1837 24.3812 39.0932 24.6137C38.8821 25.177 39.3872 25.6694 39.7378 26.0476C40.1713 26.5164 40.6537 26.934 41.1588 27.3122C41.4717 27.5485 42.6742 28.3719 43.0021 28.5806C42.5837 28.3561 41.2908 27.5209 40.8837 27.2728C40.616 27.1112 40.3522 26.9419 40.0959 26.7685C39.8584 26.6109 39.636 26.4219 39.3872 26.28C39.1686 26.1579 38.9877 26.154 38.7464 26.1579C38.4524 26.1619 38.1508 26.0358 37.8568 25.9846C37.6985 25.957 37.4083 25.8546 37.2952 26.02C37.2085 26.1461 37.2801 26.3273 37.348 26.4494V26.4534Z" fill="#97C233"/>
<g id="Vector_44" style="mix-blend-mode:multiply" opacity="0.09">
<path d="M37.348 26.4534C37.6043 26.8985 37.9888 27.2806 38.3732 27.5958C39.2251 28.301 40.2466 28.7422 41.2719 29.0337C42.2784 29.3213 43.33 29.4513 44.3515 29.27C44.3629 29.27 44.3742 29.2661 44.3855 29.2622C44.393 29.2661 44.4043 29.2622 44.4119 29.2582C44.4307 29.2582 44.4835 29.2425 44.491 29.2346C44.491 29.2346 44.589 29.2149 44.5664 29.2031C44.5664 29.1991 44.6229 29.1282 44.7059 29.0258C44.8567 28.8406 45.0904 28.5491 45.1959 28.3364C45.3542 28.0213 45.4447 27.6706 45.4937 27.3122C45.6068 26.4967 45.505 25.6615 45.5879 24.8421C45.6633 24.1331 45.9196 23.4476 45.897 22.7227C45.8932 22.5612 45.8744 22.3052 45.6595 22.3485C45.3881 22.4037 45.3504 22.7976 45.1733 22.9591C45.1582 22.9985 45.1281 23.0143 45.079 22.9985C45.0187 23.03 44.981 23.0103 44.9622 22.9394C44.9396 22.9118 44.9132 22.837 44.9019 22.8094C44.8604 22.7149 44.8265 22.6164 44.7963 22.514C44.7436 22.3406 44.6983 22.1594 44.6531 21.9821C44.5777 21.6985 44.5136 21.3046 44.3139 21.084C44.1668 20.9185 43.9708 20.95 43.8728 21.143C43.7447 21.3991 43.7711 21.7694 43.7673 22.053C43.7673 22.2697 43.7258 22.5809 43.4469 22.5179C43.3338 22.4943 43.2283 22.4234 43.1152 22.3997C42.8966 22.3524 42.7118 22.4903 42.6289 22.6991C42.5083 22.9985 42.6101 23.3806 42.6742 23.6879C42.7533 24.0818 42.8664 24.4679 42.9946 24.85C43.2396 25.5749 43.8012 26.9419 44.0915 27.647C44.246 28.0331 42.4895 24.0267 41.8072 23.2191C41.6639 23.0497 41.4189 22.967 41.2003 22.9512C41.0533 22.9394 40.9138 23.0103 40.7706 23.0064C40.6198 23.0064 40.4766 22.9394 40.3409 22.8764C39.979 22.707 39.3571 22.5061 39.2553 23.097C39.21 23.3688 39.3269 23.6288 39.3307 23.9006C39.3344 24.1646 39.1837 24.3812 39.0932 24.6137C38.8821 25.177 39.3872 25.6694 39.7378 26.0476C40.1713 26.5164 40.6537 26.934 41.1588 27.3122C41.4717 27.5485 42.6742 28.3719 43.0021 28.5806C42.5837 28.3561 41.2908 27.5209 40.8837 27.2728C40.616 27.1112 40.3522 26.9419 40.0959 26.7685C39.8584 26.6109 39.636 26.4219 39.3872 26.28C39.1686 26.1579 38.9877 26.154 38.7464 26.1579C38.4524 26.1619 38.1508 26.0358 37.8568 25.9846C37.6985 25.957 37.4083 25.8546 37.2952 26.02C37.2085 26.1461 37.2801 26.3273 37.348 26.4494V26.4534Z" fill="#222221"/>
</g>
<g id="Group_24">
<path id="Vector_45" d="M39.3187 27.7417C40.834 28.7305 42.5151 29.1993 44.2642 29.282C44.2755 29.282 44.2792 29.2781 44.2868 29.2702C44.3094 29.2702 44.3282 29.2702 44.3508 29.2702C44.3622 29.2702 44.3735 29.2662 44.3848 29.2623C44.3923 29.2662 44.4036 29.2623 44.4112 29.2584C44.43 29.2584 44.4828 29.2426 44.4903 29.2347C44.4903 29.2347 44.5883 29.215 44.5657 29.2032C44.5657 29.1993 44.6222 29.1284 44.7052 29.0259C45.003 28.3996 45.2291 27.6865 45.1952 26.9853C45.1726 26.5283 45.0783 26.0714 45.0369 25.6144C44.9954 25.1495 44.9841 24.6729 45.0105 24.208C45.0105 24.2041 45.003 24.2041 45.003 24.208C44.9728 24.665 44.954 25.118 44.9728 25.575C44.9917 26.0083 45.0595 26.4417 45.0897 26.875C45.1462 27.6865 44.856 28.3602 44.5883 29.0771C44.724 28.4429 44.773 27.7811 44.7165 27.1271C44.6449 26.3393 44.4375 25.5632 44.2566 24.795C44.2528 24.7753 44.2227 24.7832 44.2265 24.8029C44.3659 25.5711 44.5619 26.3432 44.6373 27.1232C44.7052 27.7968 44.6675 28.4705 44.5318 29.1284C43.9249 28.3602 43.4386 27.5014 42.9109 26.678C42.3983 25.8744 41.8366 25.118 41.2185 24.405C41.2071 24.3932 41.1921 24.4089 41.2034 24.4208C41.8329 25.185 42.4058 25.9965 42.926 26.8514C43.401 27.6274 43.8571 28.4232 44.4375 29.1165C43.8231 28.6596 43.2163 28.1947 42.6998 27.6077C42.1608 26.9893 41.6369 26.3471 41.1204 25.7011C41.1129 25.6932 41.1054 25.7011 41.1129 25.7089C41.6218 26.3905 42.1307 27.0838 42.6848 27.7259C43.2049 28.3287 43.8344 28.7856 44.4828 29.219C42.8092 29.1559 41.2712 28.2026 39.8652 27.2808C39.8577 27.2729 39.8464 27.2886 39.8577 27.2965C40.9584 28.0293 42.0817 28.7856 43.3218 29.1087C42.7564 29.0338 42.1947 28.9432 41.6369 28.7699C40.8377 28.5217 40.0575 28.1671 39.3337 27.718C39.3224 27.7102 39.3111 27.7299 39.3224 27.7377L39.3187 27.7417Z" fill="white"/>
<path id="Vector_46" d="M44.2004 22.8765C44.2004 22.8529 44.2384 22.8529 44.2346 22.8765C44.1776 23.3413 44.2346 23.8023 44.2308 24.2671C44.2308 24.2947 44.189 24.2986 44.1814 24.271C44.0787 23.818 44.1433 23.3256 44.2004 22.8726V22.8765Z" fill="white"/>
<path id="Vector_47" d="M40.3256 24.7516C40.4349 24.85 40.5593 24.9485 40.6497 25.0628C40.6648 25.0785 40.646 25.11 40.6271 25.0943C40.5103 25.0076 40.4085 24.8776 40.3067 24.7713C40.2954 24.7555 40.3142 24.7397 40.3256 24.7516Z" fill="white"/>
<path id="Vector_48" d="M39.3497 26.9774L39.5274 27.1035C39.5501 27.1192 39.5274 27.1586 39.5048 27.1429L39.3346 27.005C39.3346 27.005 39.3346 26.9695 39.3497 26.9814V26.9774Z" fill="white"/>
</g>
</g>
</g>
<path id="Vector_49" d="M43.7026 29.6009C44.2303 29.8058 44.8485 29.9397 45.1614 30.4794C45.1878 30.5267 45.2556 30.4991 45.2443 30.444C45.1576 30.0185 45.6778 27.8085 45.3536 27.7534C45.1576 27.7218 45.0445 28.3521 44.7694 28.3049C44.6525 28.2852 44.5168 28.0882 44.4339 28.0055C44.3283 27.8991 44.2153 27.7927 44.0946 27.7021C43.9853 27.6155 43.8232 27.5367 43.6988 27.6431C43.5518 27.7652 43.6159 28.0094 43.6611 28.1631C43.6988 28.2931 43.7478 28.4152 43.7968 28.5412C43.8458 28.6791 43.9665 28.8997 43.7328 28.9234C43.5254 28.9431 43.3294 28.884 43.1297 28.9746C42.6736 29.1794 43.5481 29.5379 43.7064 29.6009H43.7026Z" fill="#455A64"/>
<path id="Vector_50" d="M49.2805 36.9006C49.2805 36.9006 49.2654 36.8967 49.2617 36.8967L48.8998 36.8415C48.8319 36.8376 48.7679 36.8337 48.7 36.8337C48.6058 36.5855 48.504 36.3412 48.3909 36.097C48.3306 35.967 48.2703 35.833 48.2062 35.6991C47.9951 35.2658 47.7614 34.8482 47.5202 34.4424C46.7248 33.1188 45.8843 31.8582 45.1907 30.503C44.9721 30.0776 44.7647 29.6364 44.5763 29.1873C44.5612 29.1558 44.5499 29.1242 44.5386 29.0927C44.4896 28.9627 44.4368 28.8327 44.3878 28.6948C44.3765 28.6633 44.4255 28.6436 44.4368 28.6751C44.4745 28.7736 44.516 28.8682 44.5612 28.9667C44.5725 28.9942 44.5838 29.0179 44.5951 29.0415C44.5951 29.0454 44.5951 29.0494 44.5989 29.0494C44.6064 29.073 44.6177 29.0967 44.6328 29.1203C44.8137 29.5142 45.0173 29.8924 45.2359 30.2588C45.839 31.2752 46.559 32.2206 47.2412 33.1897C47.2902 33.2606 47.343 33.3355 47.392 33.4064C47.8293 34.0367 48.2477 34.6749 48.602 35.3524C48.8621 35.8449 49.092 36.3688 49.2805 36.9006Z" fill="#455A64"/>
<path id="Vector_51" d="M48.6028 36.0616C48.6028 36.0616 47.0951 34.6119 46.0509 34.2141C45.0068 33.8162 43.1862 33.8832 43.1862 33.8832C43.1862 33.8832 45.0068 36.7116 48.6028 36.0616Z" fill="#455A64"/>
<path id="Vector_52" d="M47.2913 33.5245C47.2913 33.5245 46.937 31.413 47.1782 30.2824C47.4195 29.1517 48.4598 27.5839 48.4598 27.5839C48.4598 27.5839 49.7565 30.7118 47.2913 33.5284V33.5245Z" fill="#455A64"/>
</g>
<g id="Group_25">
<g id="Group_26">
<path id="Vector_53" d="M48.6668 20.166C48.991 20.0833 49.2058 20.7923 49.2624 21.013C49.4169 21.6078 49.3076 22.1987 49.0701 22.7463C49.0588 22.7896 49.04 22.829 49.0211 22.8605C49.0211 22.8645 49.0174 22.8724 49.0136 22.8763C49.0136 22.8802 49.0061 22.8802 49.0061 22.8842C48.9948 22.896 48.9872 22.9078 48.9721 22.9196C48.942 22.9433 48.8968 22.963 48.8591 22.9433C48.4444 22.7542 48.4633 22.1278 48.467 21.7417C48.467 21.4936 48.2823 20.2605 48.663 20.162L48.6668 20.166Z" fill="#97C233"/>
<g id="Vector_54" style="mix-blend-mode:multiply" opacity="0.2">
<path d="M48.6668 20.166C48.991 20.0833 49.2058 20.7923 49.2624 21.013C49.4169 21.6078 49.3076 22.1987 49.0701 22.7463C49.0588 22.7896 49.04 22.829 49.0211 22.8605C49.0211 22.8645 49.0174 22.8724 49.0136 22.8763C49.0136 22.8802 49.0061 22.8802 49.0061 22.8842C48.9948 22.896 48.9872 22.9078 48.9721 22.9196C48.942 22.9433 48.8968 22.963 48.8591 22.9433C48.4444 22.7542 48.4633 22.1278 48.467 21.7417C48.467 21.4936 48.2823 20.2605 48.663 20.162L48.6668 20.166Z" fill="#222221"/>
</g>
</g>
<g id="Group_27">
<path id="Vector_55" d="M46.5069 23.9399C46.3071 24.519 46.6765 25.0784 47.0233 25.492C47.1552 25.6496 47.5435 26.0987 47.7093 25.8663C47.7357 25.8702 47.7621 25.8584 47.7696 25.8269C47.8337 25.5826 47.7772 25.3699 47.698 25.1375C47.5699 24.7711 47.4379 24.3929 47.2796 24.0423C47.1138 23.672 46.6803 23.4317 46.5069 23.9399Z" fill="#97C233"/>
<g id="Vector_56" style="mix-blend-mode:multiply" opacity="0.2">
<path d="M46.5069 23.9399C46.3071 24.519 46.6765 25.0784 47.0233 25.492C47.1552 25.6496 47.5435 26.0987 47.7093 25.8663C47.7357 25.8702 47.7621 25.8584 47.7696 25.8269C47.8337 25.5826 47.7772 25.3699 47.698 25.1375C47.5699 24.7711 47.4379 24.3929 47.2796 24.0423C47.1138 23.672 46.6803 23.4317 46.5069 23.9399Z" fill="#222221"/>
</g>
</g>
<path id="Vector_57" d="M53.1179 30.0459C52.952 30.8968 52.4168 31.6492 51.776 32.2047C51.8061 33.0989 51.7383 33.9932 51.5686 34.8638C51.4669 34.9387 51.3726 35.0253 51.2822 35.112C51.3274 34.8835 51.3689 34.659 51.399 34.4265C51.399 34.4226 51.399 34.4147 51.3953 34.4068C50.027 33.6544 49.4125 32.1968 48.9037 30.7274C48.9037 30.7274 48.8999 30.7235 48.8961 30.7235C48.9338 30.7235 51.0598 31.6532 51.4518 34.0286C51.5724 32.9099 51.5423 31.7674 51.3689 30.6486C50.7921 28.8917 49.3371 27.635 47.9462 26.4768C47.7125 26.2838 47.4487 26.0829 47.3167 25.7992C47.3092 25.7795 47.2979 25.7598 47.2903 25.7401C47.2338 25.6023 47.1697 25.295 47.3469 25.2044C47.5354 25.1019 47.6711 25.3541 47.7578 25.4841C47.7728 25.5038 47.7841 25.5235 47.7955 25.5432C48.0442 25.9095 48.2742 26.2916 48.4966 26.6738C49.0205 27.0913 49.5256 27.5365 49.9893 28.0289C50.468 28.5411 50.8902 29.1201 51.1955 29.7504C51.1729 29.6559 51.154 29.5614 51.1314 29.4668C50.7921 28.1077 50.2531 26.8156 49.6085 25.5865C49.3296 25.0547 49.0394 24.5229 48.8434 23.9477C48.7303 23.6089 48.5833 23.1165 48.6021 22.6989C48.6059 22.5925 48.621 22.4862 48.6511 22.3956C48.719 22.1789 48.9074 22.0765 49.0469 22.2932C49.0959 22.368 49.1223 22.4744 49.1336 22.5886C49.1524 22.7935 49.1336 23.0219 49.1374 23.1716C49.1562 23.5616 49.1751 23.9516 49.1901 24.3416C49.3108 24.5977 49.4427 24.8498 49.5784 25.0941C50.3097 26.4216 50.9505 27.7689 51.3387 29.2541C51.5046 29.8844 51.6214 30.5305 51.693 31.1765C51.7458 30.6644 51.8438 30.1562 51.972 29.6638C52.168 28.9271 52.9973 27.6429 53.001 27.6389C53.0236 27.6192 53.3667 28.7459 53.1103 30.0538L53.1179 30.0459Z" fill="#455A64"/>
</g>
<g id="Group_28" style="mix-blend-mode:multiply" opacity="0.1">
<path id="Vector_58" d="M43.6601 40.9936C43.8071 40.0324 44.3198 39.1421 44.9945 38.4488C45.3262 38.0903 45.7258 37.8106 46.1329 37.5545C46.3439 37.4403 46.5513 37.3142 46.7737 37.2276L47.1016 37.0857L47.4484 36.9794C47.9158 36.8375 48.4096 36.806 48.8921 36.8415L49.2539 36.8966C49.3746 36.9163 49.4876 36.9557 49.6045 36.9872L49.7779 37.0345L49.9475 37.1015C50.0568 37.1488 50.1737 37.1882 50.2792 37.2472C51.1424 37.6806 51.8699 38.3503 52.3863 39.15C51.7229 38.4763 50.9615 37.9288 50.136 37.59C49.3067 37.263 48.4058 37.1763 47.5652 37.4403C46.7209 37.6845 45.9067 38.1257 45.2244 38.7245C44.5497 39.3273 43.9805 40.0954 43.6488 40.9976L43.6601 40.9936Z" fill="#222221"/>
<path id="Vector_59" d="M56.6376 34.3359C55.9742 34.2375 55.3183 34.2099 54.6738 34.2532C54.0292 34.3044 53.3959 34.4305 52.8079 34.6787C52.2161 34.919 51.6771 35.2775 51.1984 35.7266C50.7272 36.1835 50.3201 36.7193 49.9507 37.3023C50.1505 36.6326 50.4897 36.0023 50.9458 35.4626C51.1757 35.1947 51.4396 34.9544 51.7223 34.7456C52.0088 34.5408 52.3179 34.3714 52.6421 34.2335C53.2904 33.9735 53.9877 33.8593 54.67 33.8829C55.3523 33.9066 56.027 34.0444 56.6414 34.3359H56.6376Z" fill="#222221"/>
<path id="Vector_60" d="M41.3119 37.5546C41.5984 37.3262 41.9489 37.1922 42.307 37.1252C42.6689 37.0622 43.0496 37.074 43.4115 37.1804C43.7733 37.2828 44.1163 37.4719 44.3877 37.7319C44.5347 37.8501 44.6403 38.0077 44.7534 38.1574C44.8589 38.311 44.9381 38.4843 45.0097 38.6537C44.8552 38.5474 44.7345 38.4252 44.5913 38.3228C44.4481 38.2243 44.3199 38.114 44.1729 38.0352C43.8939 37.854 43.5962 37.7319 43.2908 37.6413C42.9855 37.5546 42.6651 37.5034 42.3334 37.4955C42.0017 37.4877 41.6662 37.5074 41.3119 37.5507V37.5546Z" fill="#222221"/>
</g>
</g>
<g id="Group_29">
<g id="Group_30" style="mix-blend-mode:multiply" opacity="0.1">
<path id="Vector_61" d="M56.8801 46.2723C57.4003 45.9296 57.9921 45.7089 58.599 45.5829C59.2096 45.4529 59.8391 45.4332 60.4611 45.5159C60.7739 45.5474 61.0755 45.638 61.3808 45.7208C61.6748 45.8429 61.9764 45.9335 62.244 46.1029C62.8057 46.3905 63.2806 46.8238 63.6915 47.2926C63.1562 46.9735 62.6511 46.6505 62.0932 46.4417C61.8218 46.3196 61.5391 46.2447 61.2602 46.1541C60.9737 46.095 60.6948 46.0123 60.4008 45.9886C59.824 45.9059 59.236 45.902 58.648 45.9492C58.06 46.0044 57.4719 46.1108 56.8801 46.2723Z" fill="#222221"/>
<path id="Vector_62" d="M61.5509 49.9476C61.8788 48.9312 62.5234 48.0212 63.3414 47.3436C64.1556 46.6424 65.1771 46.2327 66.2099 46.0594C67.2465 45.8861 68.3472 46.0042 69.3121 46.4455C69.7984 46.6621 70.2394 46.9733 70.6277 47.3318C71.0121 47.6943 71.3514 48.1158 71.5889 48.5885C71.2685 48.1749 70.8953 47.8124 70.4844 47.513C70.0773 47.2136 69.6401 46.9615 69.1764 46.7882C68.709 46.6267 68.2341 46.4927 67.7441 46.4691C67.6234 46.4533 67.499 46.4494 67.3784 46.4533H67.009C66.764 46.477 66.519 46.4888 66.2778 46.5321L65.9159 46.5991C65.8556 46.6109 65.7953 46.6188 65.735 46.6346L65.5578 46.6858L65.2035 46.7882C65.0866 46.8276 64.9735 46.8788 64.8567 46.9221C64.623 47.0009 64.4081 47.127 64.182 47.2373C63.9709 47.3712 63.7522 47.4855 63.5525 47.643C62.7383 48.23 62.0485 49.0218 61.5471 49.9476H61.5509Z" fill="#222221"/>
<path id="Vector_63" d="M71.5918 48.5886C71.2714 48.1749 70.8945 47.8125 70.4874 47.5131C70.0803 47.2137 69.643 46.9616 69.1794 46.7922C68.712 46.6307 68.237 46.4967 67.747 46.4731C67.6264 46.4573 67.502 46.4534 67.3814 46.4534H67.0157C66.7707 46.481 66.5257 46.4889 66.2845 46.5283L65.9188 46.5952C65.8585 46.607 65.7982 46.6149 65.7379 46.6307L65.5607 46.6819L65.2064 46.7843C65.0933 46.8237 64.9802 46.8749 64.8634 46.9183C64.6636 46.9813 64.4789 47.0876 64.2867 47.1861C64.2527 47.2019 64.2226 47.2177 64.1887 47.2334C64.1133 47.2807 64.0379 47.328 63.9587 47.3713C63.8193 47.454 63.6873 47.5407 63.5592 47.6392C62.745 48.2261 62.0552 49.018 61.5538 49.9437C61.878 48.9313 62.5226 48.0173 63.3443 47.3398C63.4913 47.2137 63.6459 47.0955 63.8042 46.9852C63.906 46.9183 64.0077 46.8513 64.1133 46.7922C64.7616 46.414 65.4853 46.1737 66.2128 46.0516C67.2494 45.8783 68.3463 45.9964 69.3151 46.4376C69.8013 46.6543 70.2386 46.9655 70.6306 47.324C71.0151 47.6864 71.3543 48.108 71.5956 48.5807L71.5918 48.5886Z" fill="#222221"/>
</g>
<g id="Group_31">
<g id="Group_32">
<g id="Group_33">
<path id="Vector_64" d="M57.906 39.0475C58.4676 39.536 59.0632 39.9891 59.6814 40.3948C59.9339 40.5603 60.2618 40.8281 60.5936 40.9739C60.7858 41.0566 60.978 41.1 61.1627 41.0566C61.2457 41.0606 61.3437 41.0291 61.4492 40.9385C61.4681 40.9227 61.4794 40.8991 61.4869 40.8794C61.8149 40.6627 61.9732 40.253 62.1239 39.8748C62.433 39.1184 62.6667 38.3306 62.8213 37.519C62.8778 37.2236 62.9947 36.8493 62.9118 36.546C62.859 36.3648 62.7647 36.3293 62.6554 36.2112C62.3953 35.9354 62.4368 35.6399 62.2672 35.3209C62.1805 35.1593 62.041 34.9899 61.845 34.9978C61.3776 35.0096 61.2683 35.9354 61.1854 36.2663C61.012 36.9518 60.8913 37.649 60.831 38.3542C60.7783 38.9648 60.733 39.6384 60.7896 40.2688C60.3561 39.2012 59.7379 38.1966 59.0368 37.3142C58.7805 36.9912 58.3734 36.4633 57.9097 36.5421C57.7213 36.5736 57.7175 36.7193 57.5893 36.7942C57.3104 36.9597 57.0842 36.6957 56.8091 36.7824C55.7838 37.1015 57.6082 38.7994 57.9022 39.0515L57.906 39.0475Z" fill="#97C233"/>
<g id="Vector_65" style="mix-blend-mode:multiply" opacity="0.3">
<path d="M57.906 39.0475C58.4676 39.536 59.0632 39.9891 59.6814 40.3948C59.9339 40.5603 60.2618 40.8281 60.5936 40.9739C60.7858 41.0566 60.978 41.1 61.1627 41.0566C61.2457 41.0606 61.3437 41.0291 61.4492 40.9385C61.4681 40.9227 61.4794 40.8991 61.4869 40.8794C61.8149 40.6627 61.9732 40.253 62.1239 39.8748C62.433 39.1184 62.6667 38.3306 62.8213 37.519C62.8778 37.2236 62.9947 36.8493 62.9118 36.546C62.859 36.3648 62.7647 36.3293 62.6554 36.2112C62.3953 35.9354 62.4368 35.6399 62.2672 35.3209C62.1805 35.1593 62.041 34.9899 61.845 34.9978C61.3776 35.0096 61.2683 35.9354 61.1854 36.2663C61.012 36.9518 60.8913 37.649 60.831 38.3542C60.7783 38.9648 60.733 39.6384 60.7896 40.2688C60.3561 39.2012 59.7379 38.1966 59.0368 37.3142C58.7805 36.9912 58.3734 36.4633 57.9097 36.5421C57.7213 36.5736 57.7175 36.7193 57.5893 36.7942C57.3104 36.9597 57.0842 36.6957 56.8091 36.7824C55.7838 37.1015 57.6082 38.7994 57.9022 39.0515L57.906 39.0475Z" fill="#222221"/>
</g>
</g>
<g id="Group_34">
<path id="Vector_66" d="M59.1732 35.6399C59.6066 37.192 60.1306 38.7126 60.5415 40.2726C60.5528 40.312 60.6169 40.2962 60.6055 40.2568C60.3191 38.8465 59.8404 37.4914 59.4333 36.1126C59.2259 35.4153 59.0601 34.7417 59.0224 34.0129C58.9998 33.5283 59.045 33.0911 58.7962 32.6735C58.7548 32.6065 58.6568 32.575 58.6002 32.6695C58.3401 33.095 58.7472 33.8356 58.947 34.3162C58.9847 34.7614 59.045 35.1947 59.1732 35.6399Z" fill="#263239"/>
<path id="Vector_67" d="M61.8826 35.9393C62.1503 37.3418 62.0183 38.7875 61.9429 40.1978C61.9429 40.2333 61.9882 40.2412 61.9919 40.2057C62.2897 38.3621 62.2143 36.2387 61.5547 34.4857C61.4982 34.332 61.1024 33.359 60.8347 33.6072C60.6915 33.7411 60.9064 34.0366 60.9742 34.143C61.1966 34.4896 61.4944 34.7575 61.6829 35.1278C61.6829 35.1278 61.6904 35.1317 61.6942 35.1357C61.7733 35.4114 61.8336 35.6872 61.8826 35.9393Z" fill="#263239"/>
<path id="Vector_68" d="M56.8658 35.4782C56.8583 36.1164 57.0468 36.7742 57.2729 37.3612C57.7667 38.6376 58.5998 39.7367 59.512 40.7176C59.5346 40.7412 59.5723 40.7018 59.5497 40.6782C58.694 39.6539 57.8572 38.5982 57.3634 37.3258C57.2352 36.9948 57.1297 36.6561 57.0581 36.3054C57.0505 36.2818 57.0468 36.2503 57.0392 36.2227C57.0468 36.2227 57.0505 36.2148 57.0505 36.207C57.0618 35.7894 57.1334 35.4506 57.2277 35.0488C57.2729 34.8715 57.3295 34.5642 57.2051 34.5327C56.8771 34.5564 56.8658 35.2457 56.8658 35.4782Z" fill="#263239"/>
</g>
<g id="Group_35">
<path id="Vector_69" d="M56.7499 39.9772C57.9448 40.9936 59.4903 41.5412 60.7945 42.396C61.0923 42.5891 61.3788 42.7978 61.6652 43.0145C61.7444 43.0736 61.8349 43.1603 61.9329 43.2154C61.9969 43.2509 62.061 43.2745 62.1289 43.2706C62.1553 43.2706 62.1854 43.2666 62.2118 43.2548C62.3249 43.2154 62.3739 43.1287 62.4153 43.0224C62.4907 42.8333 62.4907 42.5851 62.502 42.3487C62.5624 42.1124 62.6415 41.88 62.6981 41.6751C62.781 41.3718 62.8714 41.0724 62.9695 40.773C63.1805 40.1387 63.4444 39.5281 63.7083 38.9175C63.9344 38.3975 64.1417 37.8657 64.2134 37.2945C64.2511 36.9951 64.3076 36.4278 64.0852 36.1836C63.8854 35.9669 63.6969 36.0969 63.5688 36.3018C63.4482 36.4987 63.4105 36.7351 63.3087 36.9321C63.1504 37.2354 62.9619 37.2315 62.7244 37.3969C62.4078 37.6175 62.2796 38.0154 62.2344 38.3936C62.2005 38.7009 62.1816 39.0121 62.1666 39.3233C62.1289 39.0318 62.0761 38.7481 62.0196 38.4645C61.9215 37.9563 61.8424 37.3339 61.571 36.8887C61.4805 36.739 61.3712 36.6208 61.2242 36.5263C60.9 36.3136 60.6663 36.1915 60.459 35.8369C60.2705 35.5218 60.0519 34.9781 59.6297 34.9663C59.2038 34.9545 59.1774 35.3957 59.0982 35.7148C58.9475 36.3057 58.4235 36.5421 58.4198 37.2118C58.416 37.7593 58.6949 38.2833 58.9399 38.7442C59.1322 39.1066 59.3395 39.4612 59.5807 39.796C59.2415 39.4848 58.8608 39.2248 58.4574 39.0199C58.2878 38.9333 58.088 38.8387 57.892 38.8545C57.6018 38.8781 57.5528 39.0633 57.2098 38.9569C56.9534 38.8781 56.4106 38.5669 56.2033 38.9293C55.9885 39.3075 56.5124 39.7684 56.7499 39.9693V39.9772Z" fill="#97C233"/>
<g id="Vector_70" style="mix-blend-mode:multiply" opacity="0.1">
<path d="M56.7499 39.9772C57.9448 40.9936 59.4903 41.5412 60.7945 42.396C61.0923 42.5891 61.3788 42.7978 61.6652 43.0145C61.7444 43.0736 61.8349 43.1603 61.9329 43.2154C61.9969 43.2509 62.061 43.2745 62.1289 43.2706C62.1553 43.2706 62.1854 43.2666 62.2118 43.2548C62.3249 43.2154 62.3739 43.1287 62.4153 43.0224C62.4907 42.8333 62.4907 42.5851 62.502 42.3487C62.5624 42.1124 62.6415 41.88 62.6981 41.6751C62.781 41.3718 62.8714 41.0724 62.9695 40.773C63.1805 40.1387 63.4444 39.5281 63.7083 38.9175C63.9344 38.3975 64.1417 37.8657 64.2134 37.2945C64.2511 36.9951 64.3076 36.4278 64.0852 36.1836C63.8854 35.9669 63.6969 36.0969 63.5688 36.3018C63.4482 36.4987 63.4105 36.7351 63.3087 36.9321C63.1504 37.2354 62.9619 37.2315 62.7244 37.3969C62.4078 37.6175 62.2796 38.0154 62.2344 38.3936C62.2005 38.7009 62.1816 39.0121 62.1666 39.3233C62.1289 39.0318 62.0761 38.7481 62.0196 38.4645C61.9215 37.9563 61.8424 37.3339 61.571 36.8887C61.4805 36.739 61.3712 36.6208 61.2242 36.5263C60.9 36.3136 60.6663 36.1915 60.459 35.8369C60.2705 35.5218 60.0519 34.9781 59.6297 34.9663C59.2038 34.9545 59.1774 35.3957 59.0982 35.7148C58.9475 36.3057 58.4235 36.5421 58.4198 37.2118C58.416 37.7593 58.6949 38.2833 58.9399 38.7442C59.1322 39.1066 59.3395 39.4612 59.5807 39.796C59.2415 39.4848 58.8608 39.2248 58.4574 39.0199C58.2878 38.9333 58.088 38.8387 57.892 38.8545C57.6018 38.8781 57.5528 39.0633 57.2098 38.9569C56.9534 38.8781 56.4106 38.5669 56.2033 38.9293C55.9885 39.3075 56.5124 39.7684 56.7499 39.9693V39.9772Z" fill="#222221"/>
</g>
</g>
<path id="Vector_71" d="M63.2488 38.8034C63.2488 38.8034 63.2488 38.8234 63.2409 38.8194C63.2329 38.8154 63.2369 38.7994 63.2488 38.8034Z" fill="#F2D2C6"/>
<g id="Group_36">
<path id="Vector_72" d="M57.8465 40.1269C59.0075 41.2418 61.3106 41.4978 61.9401 43.1445C61.9401 43.1681 61.9325 43.1918 61.9325 43.2154C61.9966 43.2509 62.0607 43.2745 62.1286 43.2706C62.415 42.7899 62.4188 42.1951 62.4904 41.6357C62.6035 40.7887 62.7694 39.9615 63.0822 39.1657C63.0898 39.1421 63.0596 39.1302 63.0483 39.1539C62.7505 39.7566 62.5658 40.3948 62.4414 41.0527C62.3133 41.7184 62.351 42.5654 62.0494 43.1878C62.0494 43.1642 62.0494 43.1366 62.0494 43.1169C62.1813 42.3566 62.0155 41.5412 61.8308 40.8124C61.5971 39.8708 61.2465 38.9687 60.9336 38.0548C60.9223 38.0193 60.8696 38.043 60.8809 38.0784C61.141 38.9687 61.4124 39.859 61.6423 40.7572C61.778 41.2812 61.9137 41.8642 61.9552 42.4354C61.5179 40.5484 59.7237 39.1736 59.4296 37.2275C59.4221 37.1842 59.358 37.196 59.3618 37.2393C59.652 39.2996 61.4651 40.7533 61.8986 42.7466C61.8082 42.5733 61.6875 42.4196 61.5518 42.2739C61.2917 41.8878 60.9789 41.5451 60.6132 41.2457C60.029 40.773 59.3505 40.4696 58.7926 39.9496C58.77 39.9299 58.7436 39.9654 58.7587 39.9851C59.1658 40.5051 59.7651 40.7848 60.2891 41.1551C60.6019 41.3796 60.8922 41.6357 61.1523 41.9233C60.9826 41.7972 60.8055 41.683 60.6283 41.5806C59.7237 41.0448 58.7511 40.6942 57.8917 40.0639C57.8578 40.0402 57.8201 40.0875 57.8503 40.119L57.8465 40.1269Z" fill="white"/>
<path id="Vector_73" d="M63.5165 37.7632C63.5278 37.9956 63.4598 38.1689 63.3766 38.3777C63.369 38.3974 63.3425 38.3856 63.3501 38.3659C63.4182 38.1807 63.4371 37.9601 63.4598 37.7632C63.4635 37.7317 63.5165 37.7277 63.5165 37.7632Z" fill="white"/>
<path id="Vector_74" d="M59.4195 36.5657C59.4233 36.6839 59.4005 36.8021 59.4005 36.9202C59.4005 36.9596 59.3472 36.9557 59.3396 36.9202C59.313 36.8099 59.3016 36.6602 59.351 36.5578C59.3624 36.5302 59.4157 36.5263 59.4157 36.5657H59.4195Z" fill="white"/>
<path id="Vector_75" d="M57.4095 39.6068C57.4549 39.6501 57.5116 39.6895 57.5532 39.7407C57.5646 39.7565 57.5532 39.788 57.5305 39.784C57.4625 39.7722 57.402 39.7171 57.3604 39.6619C57.3377 39.6304 57.3793 39.5792 57.4095 39.6068Z" fill="white"/>
</g>
</g>
<path id="Vector_76" d="M62.7376 42.4118C62.6056 42.9318 62.3908 43.4715 62.5529 44.0388C62.5679 44.0861 62.5189 44.1215 62.4926 44.0821C62.289 43.7551 60.7699 42.7861 60.8943 42.5142C60.9697 42.3488 61.3843 42.6482 61.4899 42.4157C61.5351 42.3173 61.4861 42.0927 61.4748 41.9824C61.4635 41.8367 61.456 41.687 61.4597 41.5412C61.4597 41.4073 61.4937 41.2379 61.6105 41.2063C61.75 41.1709 61.8593 41.3679 61.9271 41.4979C61.9837 41.6042 62.0327 41.7185 62.0817 41.8288C62.1382 41.9509 62.2061 42.1754 62.3305 42.0139C62.4398 41.8721 62.5001 41.687 62.6471 41.5963C62.9826 41.3836 62.7753 42.2542 62.7338 42.4079L62.7376 42.4118Z" fill="#455A64"/>
<path id="Vector_77" d="M64.1107 46.7963C64.0089 46.8554 63.9033 46.9223 63.8016 46.9893C63.7978 46.9736 63.7903 46.9617 63.7865 46.9499C63.451 46.1502 63.0477 45.382 62.7047 44.5823C62.3616 43.7826 62.1769 43.0145 62.0375 42.1596C62.0375 42.1517 62.045 42.1478 62.0488 42.1557C62.3051 43.6329 63.2248 44.9881 63.8732 46.296C63.9561 46.4614 64.0353 46.6308 64.1107 46.8002V46.7963Z" fill="#455A64"/>
<path id="Vector_78" d="M63.6244 46.4615C63.6244 46.4615 63.4247 44.1963 63.7752 43.0184C64.1258 41.8406 65.3546 40.2766 65.3546 40.2766C65.3546 40.2766 66.4666 43.7039 63.6244 46.4615Z" fill="#455A64"/>
</g>
</g>
</g>
</g>
<g id="Group_37">
<g id="Group_38">
<g id="Group_39">
<g id="Group_40">
<path id="Vector_79" d="M94.8457 82.2041C95.3093 82.3656 108.544 82.3262 109.049 81.9913C109.237 81.8653 109.347 79.8483 109.411 77.4138C109.426 76.8859 109.433 76.3462 109.445 75.7907C109.456 75.1368 109.464 74.475 109.467 73.8328C109.482 70.9452 109.445 68.4004 109.445 68.4004H100.828V73.8328L100.835 75.7907L100.881 77.4138C100.881 77.4138 95.822 79.7971 95.3056 80.2265C94.7929 80.6519 94.3896 82.0465 94.8495 82.2041H94.8457Z" fill="#F5A8A0"/>
<path id="Vector_80" d="M109.422 76.8781C109.418 77.0593 109.414 77.2366 109.411 77.4099C109.347 79.8484 109.237 81.8654 109.049 81.9875C108.547 82.3223 95.313 82.3617 94.8456 82.2002C94.3857 82.0427 94.789 80.6481 95.3017 80.2226C95.5768 79.9942 97.1562 79.2023 98.5585 78.5169C98.1325 78.9187 97.552 79.5293 97.7103 79.746C98.1363 80.3329 106.704 79.1038 109.026 77.1499C109.177 77.0238 109.305 76.9332 109.422 76.8741V76.8781Z" fill="#263239"/>
</g>
<g id="Group_41">
<path id="Vector_81" d="M112.317 30.0265C112.317 30.0265 109.987 54.0923 109.934 54.3996C109.927 54.439 109.912 54.9038 109.889 55.6602C109.765 59.8045 109.456 72.7218 109.456 72.7218H99.9567C99.9567 72.7218 100.575 57.4211 100.933 53.852C101.385 49.2981 104.246 30.0304 104.246 30.0304H112.324L112.317 30.0265Z" fill="#37474F"/>
<g id="Group_42">
<path id="Vector_82" d="M108.799 55.2465C109.093 50.0307 109.531 44.8267 110.122 39.6385C110.454 36.7155 110.858 33.8003 111.257 30.8852C111.257 30.8615 111.299 30.8615 111.295 30.8852C110.56 36.0734 110.04 41.301 109.591 46.5246C109.142 51.7404 108.83 56.968 108.626 62.2034C108.509 65.1698 108.422 68.1362 108.332 71.1026C108.332 71.1735 108.226 71.1695 108.226 71.1026C108.362 65.8159 108.505 60.5292 108.803 55.2504L108.799 55.2465Z" fill="#263239"/>
<path id="Vector_83" d="M100.548 71.1183C100.797 71.0829 103.688 71.0396 104.797 71.0396C105.746 71.0396 108.721 71.1183 109.045 71.1144C109.071 71.1144 109.067 71.142 109.045 71.1459C108.656 71.2089 106.964 71.2562 105.147 71.2562C104.039 71.2562 100.692 71.1774 100.548 71.1577C100.522 71.1577 100.526 71.1223 100.548 71.1183Z" fill="#263239"/>
</g>
</g>
<path id="Vector_84" d="M112.317 30.0265C112.317 30.0265 109.988 54.0923 109.935 54.3996C109.928 54.439 109.913 54.9038 109.89 55.6602L105.412 30.0304H112.321L112.317 30.0265Z" fill="#263239"/>
</g>
<g id="Group_43">
<g id="Group_44">
<path id="Vector_85" d="M112.902 82.2945C113.388 82.3221 126.159 78.7018 126.563 78.2409C126.717 78.0675 126.318 76.0939 125.775 73.7224C125.658 73.2102 125.556 72.6745 125.405 72.1466C125.217 71.4808 125.017 70.819 124.821 70.1808C123.969 67.4154 123.148 65.1266 123.148 65.1266L115.062 67.3957L116.502 72.4184L117.094 74.4787L117.539 76.0348C117.539 76.0348 113.241 79.7103 112.853 80.2618C112.465 80.8133 112.42 82.2709 112.906 82.2985L112.902 82.2945Z" fill="#F5A8A0"/>
<path id="Vector_86" d="M126.562 78.2371C126.159 78.698 113.388 82.3223 112.898 82.2908C112.411 82.2592 112.46 80.8056 112.845 80.2541C113.082 79.9192 114.752 78.4341 116.034 77.3232C115.664 77.7762 115.088 78.5523 115.288 78.7571C115.778 79.2614 123.731 76.8977 125.989 74.6641C126.415 76.5944 126.694 78.0874 126.562 78.2371Z" fill="#263239"/>
</g>
<g id="Group_45">
<path id="Vector_87" d="M104.24 30.0264C104.24 30.0264 104.866 33.5049 107.188 35.2698C107.188 35.2698 110.456 54.0529 110.867 56.1762C111.666 60.3047 115.032 72.0914 115.032 72.0914L124.719 68.9951C124.719 68.9951 120.535 54.7699 119.97 53.2768C119.664 52.4653 117.32 36.9046 117.369 36.5304C117.938 32.0828 115.921 30.0028 115.921 30.0028L104.24 30.0264Z" fill="#37474F"/>
<g id="Group_46">
<path id="Vector_88" d="M111.928 30.7986C112.105 31.4959 112.543 32.1065 113.089 32.5438C113.704 33.0323 114.442 33.2371 115.2 33.3002C115.328 33.312 115.339 33.5129 115.204 33.5129C113.655 33.5208 112.09 32.4886 111.864 30.8105C111.86 30.7711 111.917 30.7632 111.928 30.7986Z" fill="#263239"/>
<path id="Vector_89" d="M105.697 34.1708C106.266 34.3835 106.786 34.7262 107.299 35.0571C107.831 35.3999 108.321 35.8056 108.837 36.1759C108.856 36.1917 108.837 36.2232 108.818 36.2114C108.279 35.8884 107.718 35.6087 107.186 35.2738C106.67 34.9508 106.131 34.6356 105.678 34.2181C105.659 34.2023 105.678 34.1668 105.701 34.1747L105.697 34.1708Z" fill="#263239"/>
<path id="Vector_90" d="M105.479 30.7948C105.562 31.1651 105.664 31.5315 105.758 31.8979C105.845 32.2445 105.916 32.5951 106.018 32.9379C106.12 33.2688 106.267 33.5682 106.523 33.7967C106.659 33.9188 106.81 34.0251 106.953 34.1315C107.032 34.1906 107.115 34.2458 107.194 34.3088C107.183 34.2615 107.172 34.2103 107.16 34.1591C107.13 34.0173 107.1 33.8794 107.073 33.7376C107.009 33.4264 106.945 33.1112 106.889 32.8C106.772 32.1854 106.659 31.5591 106.508 30.9524C106.501 30.9288 106.538 30.917 106.546 30.9406C106.719 31.5433 106.911 32.1382 107.066 32.7448C107.141 33.0442 107.432 34.5176 107.447 34.6239C107.462 34.7303 107.477 34.8406 107.484 34.9509C107.492 35.0573 107.518 35.1794 107.499 35.2858C107.496 35.3133 107.462 35.3094 107.45 35.2936C107.394 35.203 107.375 35.077 107.345 34.9745C107.315 34.8682 107.288 34.7618 107.262 34.6555C107.254 34.6161 107.247 34.5767 107.239 34.5373C107.096 34.4545 106.96 34.3442 106.825 34.2497C106.678 34.1512 106.531 34.0527 106.391 33.9424C106.127 33.7297 105.954 33.4618 105.845 33.1309C105.732 32.7882 105.683 32.4257 105.63 32.0712C105.566 31.6497 105.513 31.2282 105.441 30.8106C105.438 30.787 105.471 30.7751 105.479 30.7988V30.7948Z" fill="#263239"/>
<path id="Vector_91" d="M115.362 69.9603C115.592 69.854 118.344 68.9282 119.403 68.5933C120.311 68.3058 123.18 67.4706 123.489 67.3721C123.512 67.3642 123.519 67.3918 123.497 67.3997C123.142 67.577 121.536 68.1403 119.799 68.6918C118.74 69.0306 115.513 69.9721 115.37 69.9958C115.343 69.9997 115.339 69.9682 115.358 69.9564L115.362 69.9603Z" fill="#263239"/>
<path id="Vector_92" d="M120.609 59.509C120.225 58.343 119.837 57.1769 119.46 56.0069C119.09 54.8527 118.789 53.6905 118.563 52.4969C118.103 50.0702 117.7 47.6278 117.326 45.1854C117.134 43.9484 116.957 42.7075 116.791 41.4626C116.708 40.8481 116.629 40.2375 116.55 39.6229C116.474 39.0241 116.38 38.4293 116.35 37.8265C116.233 35.6047 116.995 33.249 116.067 31.1256C115.962 30.8892 115.837 30.6647 115.69 30.4559C115.675 30.4362 115.645 30.4559 115.66 30.4756C116.893 32.4926 116.218 34.939 116.18 37.1608C116.162 38.3781 116.358 39.5914 116.52 40.7929C116.686 42.0063 116.863 43.2196 117.04 44.4329C117.402 46.8675 117.801 49.2942 118.231 51.713C118.442 52.9027 118.657 54.0884 119.007 55.2427C119.358 56.4087 119.761 57.563 120.146 58.7172C120.922 61.0572 122.928 66.9112 123.026 67.2027C123.033 67.2263 123.071 67.2145 123.063 67.1909C122.306 64.8351 121.39 61.8569 120.617 59.5051L120.609 59.509Z" fill="#263239"/>
</g>
</g>
</g>
</g>
<g id="Group_47">
<g id="Group_48">
<path id="Vector_93" d="M108.151 17.1167C105.927 19.571 100.526 22.301 98.7427 22.301C96.7072 22.301 93.2959 19.3543 90.7289 16.8725C90.1635 16.3288 93.6389 10.9831 94.2609 11.5464C95.8177 12.9488 99.4552 16.7819 100.021 16.8725C100.846 17.0064 104.167 16.0846 106.798 15.3046C109.723 14.434 109.282 15.8719 108.155 17.1207L108.151 17.1167Z" fill="#F5A8A0"/>
<g id="Group_49">
<path id="Vector_94" d="M92.5505 17.4044C93.278 17.4044 95.1326 12.8032 94.7669 12.1216C94.6991 11.9956 94.5181 11.7907 94.2656 11.5425C94.2656 11.5425 93.5192 9.98647 93.3421 8.46586C93.1875 7.1895 93.1008 5.271 92.4412 5.33403C91.4762 5.4207 91.3104 7.85526 91.2953 9.26162C90.662 8.8795 90.0815 8.61162 89.6895 8.58798C88.3891 8.50132 87.2771 14.5247 88.2609 15.4583C89.207 16.3604 91.8268 17.4083 92.5543 17.4044H92.5505Z" fill="#F5A8A0"/>
<g id="Group_50">
<path id="Vector_95" d="M86.8361 16.6127C86.8361 16.6127 88.276 16.8806 88.9809 16.1045C91.1898 13.6897 88.6869 6.14569 87.4656 6.45297C86.2481 6.76024 85.0645 11.5348 85.0645 11.5348L86.8361 16.6166V16.6127ZM86.8889 15.876L85.5092 11.9209C85.5092 11.9209 86.4855 7.76479 87.4354 7.52843C88.3853 7.29206 90.2776 13.603 88.5587 15.4821C88.0084 16.0848 86.8889 15.88 86.8889 15.88V15.876Z" fill="#37474F"/>
<path id="Vector_96" d="M74.8128 12.8584L75.2539 15.2023L73.339 16.3645L74.8128 12.8584Z" fill="#455A64"/>
<path id="Vector_97" d="M82.0803 22.108L89.5965 18.6295L83.4448 7.56763L78.6426 9.8446L82.0803 22.108Z" fill="#455A64"/>
<path id="Vector_98" d="M83.4447 7.56773L83.8555 6.36621L77.6624 9.15137L78.6424 9.84471L83.4447 7.56773Z" fill="#37474F"/>
<path id="Vector_99" d="M80.3639 15.9902L81.1706 18.8699L74.7852 15.482L75.1546 14.6626L80.3639 15.9902Z" fill="#37474F"/>
<path id="Vector_100" d="M74.1765 13.9259C73.4717 13.2129 71.945 13.1538 71.9375 13.8274C71.9375 14.2017 72.4803 14.308 73.1513 14.0441C73.6941 13.8274 74.1765 13.9259 74.1765 13.9259Z" fill="#EBEBEB"/>
<path id="Vector_101" d="M73.1346 16.3212C72.5654 16.5772 72.162 17.4872 72.5352 17.6527C72.7425 17.7433 72.9348 17.44 72.9499 16.9712C72.9612 16.589 73.1346 16.3212 73.1346 16.3212Z" fill="#EBEBEB"/>
<path id="Vector_102" d="M73.3502 15.0644C73.3502 15.0644 72.2571 14.765 71.2092 15.5568C70.4138 16.1596 69.9577 17.3926 70.7003 17.7156C70.9943 17.8456 71.409 17.5817 71.7294 17.0893C72.2194 16.3447 72.4983 15.3678 73.3502 15.0605V15.0644Z" fill="#EBEBEB"/>
</g>
<g id="Group_51">
<path id="Vector_103" d="M91.6653 9.13931C91.8575 9.81689 90.983 9.66719 90.983 9.66719C90.983 9.66719 92.193 10.2029 92.1327 10.983C92.0724 11.7354 91.0207 11.5148 90.9453 11.499C91.0094 11.5266 92.1101 12.0505 91.9706 12.8266C91.8274 13.6342 90.8059 13.2245 90.7418 13.1969C90.7946 13.2442 91.4731 13.8784 91.2394 14.4457C90.8398 15.4187 89.0606 13.8469 88.2464 13.9533C88.2464 13.9533 88.2615 15.4148 88.254 15.4581C88.254 15.4581 86.5351 14.0005 86.456 12.8424C86.4145 12.2317 86.9497 12.0742 86.9497 12.0742C86.9497 12.0742 86.3466 11.6684 86.4371 11.0499C86.4823 10.7348 87.0101 10.5299 87.0101 10.5299C87.0101 10.5299 86.5389 10.1833 86.652 9.63961C86.7387 9.20628 87.2551 9.07234 87.2551 9.07234C87.2551 9.07234 86.9497 8.52082 87.1797 8.10718C87.6396 7.27597 91.2507 7.68567 91.6653 9.13931Z" fill="#F5A8A0"/>
<g id="Group_52">
<path id="Vector_104" d="M87.3351 9.04091C87.3351 9.04091 87.32 9.02121 87.3351 9.02121C88.5564 8.85182 89.9435 9.05667 91.0329 9.67121C91.0668 9.69091 91.0517 9.76182 91.0103 9.74606C89.7701 9.33636 88.6393 9.07636 87.3351 9.04091Z" fill="#263239"/>
<path id="Vector_105" d="M86.9951 10.522C86.9951 10.522 86.98 10.4984 86.9951 10.4945C88.2541 10.329 89.8109 10.6048 90.9869 11.4675C91.0284 11.499 91.0359 11.566 90.9869 11.5345C90.1652 11.0223 88.1674 10.5496 86.9951 10.522Z" fill="#263239"/>
<path id="Vector_106" d="M90.8066 13.2873C89.6494 12.5034 88.3678 12.1882 87.007 12.0622C86.9882 12.0622 86.9919 12.0346 87.007 12.0306C87.6893 11.9046 88.5487 12.0779 89.2046 12.2749C89.8341 12.464 90.3656 12.7634 90.8292 13.244C90.8481 13.2637 90.8292 13.3031 90.8028 13.2873H90.8066Z" fill="#263239"/>
</g>
<path id="Vector_107" d="M91.002 9.65531C91.0435 9.67894 90.9644 9.71834 91.0058 9.74591C91.183 9.85228 92.197 10.6008 92.0613 11.038C91.9519 11.3886 91.4242 11.4793 91.2056 11.432L90.6628 11.3099L91.134 11.6211C91.3375 11.759 91.5373 11.9323 91.6881 12.1293C91.8389 12.3262 91.9369 12.5626 91.8992 12.7871C91.8615 13.0235 91.7069 13.1929 91.4845 13.2165C91.2659 13.248 91.0096 13.185 90.791 13.0905L90.1841 12.8265L90.6741 13.2796C90.806 13.4017 90.9342 13.5514 91.0322 13.709C91.1302 13.8665 91.2056 14.0399 91.2018 14.2093C91.2018 14.3747 91.1076 14.5402 90.9681 14.6032C90.8211 14.6702 90.6289 14.6544 90.4517 14.619C90.0861 14.5441 89.728 14.3865 89.3661 14.2487C89.1852 14.1777 89.0043 14.1068 88.8196 14.0438C88.6349 13.9847 88.4426 13.9217 88.2504 13.9493C88.4464 13.9453 88.6235 14.028 88.8045 14.095C88.9816 14.1699 89.155 14.2565 89.3322 14.3393C89.6828 14.5087 90.0371 14.6781 90.4216 14.7805C90.6138 14.8238 90.8249 14.8632 91.0435 14.7805C91.2697 14.6938 91.4016 14.4496 91.4054 14.2171C91.4129 13.9768 91.3187 13.768 91.2131 13.5908C91.1001 13.4096 90.9719 13.252 90.8211 13.1062L90.7043 13.2993C90.9606 13.4135 91.2244 13.4923 91.5222 13.4568C91.6692 13.4411 91.8238 13.3702 91.9331 13.248C92.0424 13.1259 92.1027 12.9762 92.1253 12.8226C92.1743 12.5035 92.0311 12.2041 91.8577 11.9874C91.6805 11.7668 91.4732 11.5896 91.2395 11.4399L91.1641 11.6289C91.4393 11.6802 92.0424 11.6486 92.2761 11.1247C92.4872 10.3959 91.2395 9.75379 91.0058 9.65137L91.002 9.65531Z" fill="#263239"/>
<path id="Vector_108" d="M90.9825 9.66711C91.1296 9.65923 91.2728 9.6356 91.3896 9.58832C91.5103 9.54105 91.5857 9.4465 91.6007 9.34014C91.6196 9.22984 91.5743 9.0959 91.5178 8.96984C91.4575 8.84377 91.3859 8.71377 91.3067 8.57983C91.4386 8.65468 91.5517 8.76105 91.646 8.88711C91.7364 9.01317 91.8156 9.17468 91.7892 9.37166C91.7704 9.4662 91.7289 9.55287 91.661 9.61984C91.5932 9.68287 91.5103 9.72226 91.4311 9.73802C91.269 9.76953 91.1145 9.73802 90.9825 9.67105V9.66711Z" fill="#263239"/>
</g>
</g>
<g id="Group_53">
<path id="Vector_109" d="M94.6946 11.6961L92.4178 20.217C92.4178 20.217 96.6886 22.4782 98.5017 22.5176C100.315 22.557 105.517 20.0397 108.34 17.1049C109.429 15.9743 109.614 14.4261 106.941 15.1076C104.269 15.7891 100.613 16.5691 100.33 16.51C100.047 16.4509 94.6946 11.6921 94.6946 11.6921V11.6961Z" fill="#EBEBEB"/>
<path id="Vector_110" d="M95.9834 13.1143C95.7799 13.7091 95.6291 14.3355 95.467 14.9461C95.3012 15.5567 95.1466 16.1713 94.9958 16.7897C94.6981 18.0228 94.4267 19.2637 94.1703 20.5046C94.1666 20.5322 94.2005 20.5401 94.208 20.5164C94.551 19.2952 94.8865 18.074 95.1919 16.841C95.3426 16.2264 95.4896 15.6079 95.6253 14.9894C95.761 14.371 95.9193 13.7485 96.0136 13.1261C96.0136 13.1064 95.991 13.0985 95.9834 13.1182V13.1143Z" fill="#A6A5A5"/>
</g>
</g>
<path id="Vector_111" d="M104.424 24.8067L103.829 31.2595C103.829 31.2595 114.251 30.8813 116.724 30.574C116.724 30.574 113.723 18.7203 110.915 15.8288C109.509 14.3831 107.949 14.5761 106.999 15.6831C106.758 15.9628 103.938 20.2804 103.693 21.8876C103.482 23.3058 104.421 24.8067 104.421 24.8067H104.424Z" fill="#97C233"/>
<g id="Group_54">
<path id="Vector_112" d="M109.893 6.93356C110.221 7.4378 112.698 8.66295 113.99 6.45295C115.265 4.27445 112.607 1.46172 110.519 3.01778C109.117 4.06173 109.196 5.86204 109.893 6.93749V6.93356Z" fill="#263239"/>
<g id="Group_55">
<g id="Group_56">
<path id="Vector_113" d="M109.698 15.4267C109.63 15.6434 108.503 16.971 107.549 16.8331C107.236 16.7858 107.402 15.0013 107.402 15.0013L107.387 14.8673L107.153 12.9843L109.351 11.7906L109.667 11.6331C109.667 11.6331 109.698 12.1531 109.731 12.8031C109.731 12.8346 109.731 12.8622 109.735 12.8937C109.735 12.9291 109.743 12.9646 109.743 13C109.75 13.0985 109.754 13.197 109.758 13.2955C109.758 13.3703 109.765 13.4452 109.765 13.524C109.765 13.6028 109.765 13.6815 109.773 13.7603C109.784 14.5403 109.731 15.344 109.701 15.4346L109.698 15.4267Z" fill="#F5A8A0"/>
<path id="Vector_114" d="M109.728 12.7991C109.094 14.2212 107.918 14.7137 107.383 14.8673L107.149 12.9843L109.347 11.7906L109.664 11.6331C109.664 11.6331 109.694 12.1531 109.728 12.8031V12.7991Z" fill="#263239"/>
</g>
<g id="Group_57">
<path id="Vector_115" d="M105.001 9.80135C104.424 13.0829 106.241 13.8156 106.916 13.9417C107.53 14.0599 109.637 14.375 110.534 11.1762C111.431 7.97347 110.154 6.65771 108.763 6.31104C107.372 5.96437 105.574 6.51983 104.997 9.80135H105.001Z" fill="#F5A8A0"/>
<g id="Group_58">
<path id="Vector_116" d="M105.562 9.28538C105.637 9.28538 105.705 9.27356 105.78 9.26174C105.863 9.25386 105.931 9.25386 105.999 9.19477C106.037 9.16326 106.04 9.09235 106.014 9.04901C105.954 8.95841 105.848 8.94265 105.746 8.94659C105.637 8.95447 105.554 8.98992 105.471 9.06871C105.392 9.14356 105.46 9.28144 105.558 9.28144L105.562 9.28538Z" fill="#263239"/>
<path id="Vector_117" d="M107.664 9.60836C107.593 9.58866 107.525 9.56109 107.453 9.53745C107.374 9.50987 107.306 9.49412 107.254 9.41927C107.223 9.37987 107.235 9.30897 107.269 9.27351C107.348 9.19866 107.453 9.20654 107.551 9.23806C107.657 9.26957 107.732 9.32472 107.793 9.41927C107.853 9.50988 107.759 9.62806 107.661 9.60442L107.664 9.60836Z" fill="#263239"/>
<g id="Group_59">
<g id="Group_60">
<path id="Vector_118" d="M107.118 10.2979C107.118 10.2979 107.133 10.3097 107.133 10.3215C107.095 10.546 107.091 10.81 107.276 10.9124C107.284 10.9124 107.276 10.9282 107.276 10.9242C107.042 10.8572 107.053 10.5066 107.121 10.3018L107.118 10.2979Z" fill="#263239"/>
<path id="Vector_119" d="M107.341 10.093C107.691 10.1167 107.623 10.8455 107.299 10.8258C106.979 10.8061 107.047 10.0773 107.341 10.093Z" fill="#263239"/>
</g>
<path id="Vector_120" d="M107.476 10.1442C107.533 10.1914 107.585 10.2702 107.661 10.286C107.744 10.3017 107.815 10.2348 107.879 10.1639C107.887 10.156 107.891 10.1639 107.891 10.1717C107.879 10.3136 107.815 10.4514 107.668 10.4554C107.536 10.4593 107.454 10.3293 107.431 10.1836C107.427 10.156 107.454 10.1205 107.476 10.1402V10.1442Z" fill="#263239"/>
</g>
<g id="Group_61">
<g id="Group_62">
<path id="Vector_121" d="M105.923 10.093C105.923 10.093 105.904 10.1009 105.904 10.1127C105.893 10.3412 105.84 10.5973 105.639 10.6524C105.632 10.6524 105.632 10.6642 105.639 10.6642C105.881 10.6524 105.946 10.3097 105.923 10.093Z" fill="#263239"/>
<path id="Vector_122" d="M105.75 9.84082C105.403 9.78173 105.316 10.5066 105.637 10.5657C105.953 10.6208 106.04 9.89204 105.75 9.84082Z" fill="#263239"/>
</g>
<path id="Vector_123" d="M105.599 9.86846C105.539 9.89998 105.475 9.96301 105.411 9.95907C105.335 9.95513 105.286 9.86846 105.248 9.78573C105.245 9.77786 105.237 9.78573 105.237 9.79361C105.218 9.93149 105.241 10.0812 105.369 10.1285C105.482 10.1679 105.584 10.0615 105.633 9.92755C105.64 9.90392 105.629 9.86058 105.603 9.8724L105.599 9.86846Z" fill="#263239"/>
</g>
<path id="Vector_124" d="M107.002 12.0586C106.949 12.1098 106.893 12.1807 106.813 12.1807C106.738 12.1807 106.651 12.1414 106.583 12.1098C106.576 12.1098 106.568 12.1138 106.572 12.1217C106.625 12.2123 106.742 12.2714 106.844 12.2595C106.942 12.2477 106.994 12.161 107.025 12.0665C107.028 12.0547 107.013 12.0468 107.006 12.0547L107.002 12.0586Z" fill="#263239"/>
<path id="Vector_125" d="M106.183 11.1369C106.183 11.1369 106.104 11.4678 106.089 11.6293C106.089 11.6451 106.123 11.6569 106.176 11.6648C106.176 11.6648 106.176 11.6648 106.183 11.6648C106.447 11.7397 106.73 11.6727 106.914 11.46C106.926 11.4442 106.911 11.4284 106.896 11.4363C106.681 11.5663 106.455 11.5821 106.213 11.5584C106.206 11.5151 106.368 10.9951 106.345 10.9912C106.262 10.9754 106.093 11.0148 105.991 11.0345C106.138 10.3372 106.39 9.67146 106.526 8.97419C106.53 8.95055 106.496 8.93873 106.488 8.95843C106.176 9.63601 105.991 10.4357 105.821 11.1527C105.799 11.2433 106.127 11.1566 106.191 11.1369H106.183Z" fill="#263239"/>
<g id="Group_63">
<path id="Vector_126" d="M106.198 11.5427C106.198 11.5427 106.3 11.783 106.484 11.9052C106.552 11.9485 106.631 11.98 106.718 11.9761C106.899 11.9682 106.94 11.8067 106.94 11.657C106.94 11.5349 106.91 11.4246 106.91 11.4246C106.91 11.4246 106.605 11.6097 106.198 11.5427Z" fill="#263239"/>
<path id="Vector_127" d="M106.484 11.909C106.552 11.9523 106.631 11.9838 106.718 11.9799C106.899 11.972 106.94 11.8105 106.94 11.6608C106.752 11.6372 106.541 11.7238 106.484 11.909Z" fill="#F299BA"/>
</g>
</g>
<g id="Group_64">
<path id="Vector_128" d="M110.507 11.2038C109.821 10.8335 109.814 10.0693 109.814 10.0693C108.962 9.65168 108.513 8.93077 108.468 8.85592C108.487 8.92289 108.623 9.41926 108.702 9.67138C106.712 9.21047 106.146 7.58743 106.146 7.58743C105.475 8.24137 105.332 8.67077 105.23 8.8835C105.23 8.8835 105.268 7.60713 105.916 6.7641C108.103 3.91984 110.507 6.96501 110.507 6.96501C110.507 6.96501 111.314 7.44561 111.423 8.29653C111.638 9.95896 110.507 11.2038 110.507 11.2038Z" fill="#263239"/>
<path id="Vector_129" d="M107.19 9.27338C107.503 9.47035 107.853 9.61217 108.204 9.70278C108.204 9.70278 108.204 9.70278 108.204 9.69884C107.646 9.51369 107.149 9.18671 106.764 8.71793C106.602 8.52095 106.462 8.30429 106.353 8.07186C106.236 7.82762 106.127 7.54004 106.112 7.26428C106.112 7.24459 106.082 7.24459 106.082 7.26428C106.097 7.5558 106.112 7.81974 106.214 8.0955C106.312 8.3555 106.455 8.59974 106.636 8.80459C106.798 8.98974 106.986 9.14338 107.19 9.27338Z" fill="#263239"/>
</g>
<g id="Group_65">
<path id="Vector_130" d="M109.996 11.0461C109.996 11.0461 110.784 10.077 111.21 10.3803C111.636 10.6837 110.976 12.1334 110.43 12.287C109.883 12.4406 109.736 11.9128 109.736 11.9128L109.992 11.0421L109.996 11.0461Z" fill="#F5A8A0"/>
<path id="Vector_131" d="M111.011 10.7898C111.011 10.7898 111.018 10.8016 111.011 10.8056C110.626 10.9237 110.396 11.2665 110.226 11.6249C110.351 11.491 110.505 11.428 110.679 11.5856C110.686 11.5934 110.679 11.6092 110.667 11.6053C110.52 11.558 110.407 11.5737 110.294 11.688C110.215 11.7707 110.155 11.881 110.091 11.9795C110.072 12.011 110.012 11.9874 110.027 11.948C110.027 11.948 110.027 11.944 110.03 11.9401C110.064 11.4437 110.498 10.7898 111.007 10.7937L111.011 10.7898Z" fill="#263239"/>
</g>
</g>
</g>
</g>
<g id="Group_66">
<path id="Vector_132" d="M109.774 15.0092C109.774 15.0092 108.892 19.4805 109.412 25.6574C110.388 37.3063 113.151 54.5136 113.819 55.656C114.836 57.4051 125.432 58.5318 125.432 58.5318C125.432 58.5318 122.417 44.4681 117.181 29.7899C117.181 29.7899 115.006 23.2347 114.237 21.4817C111.35 14.9304 109.774 15.0053 109.774 15.0053V15.0092Z" fill="#EBEBEB"/>
<path id="Vector_133" d="M119.703 39.347C119.703 39.347 118.097 39.867 116.736 40.0955C115.33 40.3319 113.917 40.4225 113.513 40.4855C113.476 40.4895 113.476 40.6195 113.502 40.6195C114.037 40.5998 115.673 40.4974 116.744 40.3161C117.814 40.1349 119.217 39.7174 119.624 39.5361C119.665 39.8474 119.703 40.0916 119.752 40.4028C118.791 40.7692 116.936 41.4389 113.785 41.5413C113.755 41.4113 113.664 40.718 113.608 40.5328C113.6 40.5052 113.483 40.5171 113.487 40.5643C113.491 40.7534 113.675 42.4316 113.724 42.7704C113.849 43.6055 114.264 45.9495 114.531 46.371C115.142 47.3283 117.064 47.0053 117.596 46.9225C118.135 46.8359 119.854 46.6034 120.396 45.8392C120.687 45.4295 120.464 43.511 120.155 41.8328C120.008 41.0292 119.748 39.3589 119.699 39.351L119.703 39.347ZM117.72 46.6822C116.02 46.9698 115.221 46.7216 114.904 46.3946C114.531 46.0125 114.392 45.264 114.237 44.4368C114.12 43.7868 113.822 41.7383 113.815 41.6949C114.84 41.7383 117.498 41.5807 119.786 40.6037C119.936 41.5728 120.061 42.3489 120.212 43.318C120.321 44.0192 120.46 45.2049 120.182 45.6737C119.948 46.0637 118.949 46.4734 117.72 46.6822Z" fill="#A6A5A5"/>
</g>
<g id="Group_67">
<g id="Group_68">
<path id="Vector_134" d="M116.98 39.9061C117.297 40.8713 116.95 42.4116 117.674 42.388C118.318 42.3683 118.462 41.2731 118.462 41.2731C118.462 41.2731 118.684 42.5574 119.374 42.3289C120.064 42.1004 119.981 40.8674 119.981 40.8674C119.981 40.8674 120.12 41.9468 120.791 41.6631C121.462 41.3834 121.575 40.3237 121.575 40.3237C121.575 40.3237 121.816 40.6034 122.205 40.1819C122.762 39.5792 122.525 37.7867 122.189 36.8846C121.854 35.9785 119.984 32.9255 119.69 32.4646L114.115 34.6667C114.115 34.6667 114.002 36.5655 114.055 37.5346C114.112 38.5037 115.141 41.6434 115.902 41.4307C116.663 41.218 115.902 39.0119 115.827 38.4289C115.751 37.8458 115.868 37.7276 116.098 37.964C116.249 38.1176 116.837 39.4767 116.98 39.9022V39.9061Z" fill="#F5A8A0"/>
<g id="Group_69">
<path id="Vector_135" d="M118.442 41.2181C118.536 39.6817 118.321 38.9923 117.624 37.6608C117.609 37.6332 117.643 37.6096 117.662 37.6332C118.457 38.8702 118.841 39.6935 118.513 41.226C118.498 41.3008 118.438 41.289 118.442 41.2181Z" fill="#263239"/>
<path id="Vector_136" d="M119.96 40.9344C119.922 39.3311 119.696 38.5786 119.067 37.1289C119.059 37.1092 119.089 37.0895 119.101 37.1092C119.832 38.4762 120.201 39.3074 120.035 40.9147C120.028 40.9856 119.96 41.0014 119.96 40.9305V40.9344Z" fill="#263239"/>
<path id="Vector_137" d="M121.563 40.3121C121.42 38.76 121.205 37.9288 120.421 36.6051C120.402 36.5736 120.443 36.5421 120.466 36.5736C121.393 37.8421 121.665 38.8821 121.608 40.3042C121.604 40.4027 121.574 40.4106 121.563 40.3121Z" fill="#263239"/>
</g>
</g>
<path id="Vector_138" d="M111.73 16.904C115.035 21.5959 119.382 31.4995 119.951 33.0792C120.335 34.1547 114.474 36.3332 114.315 35.5611C114.112 34.5762 111.017 22.2065 110.192 17.621C109.736 15.0919 110.915 15.7419 111.73 16.9001V16.904Z" fill="#F5A8A0"/>
<path id="Vector_139" d="M113.112 33.8475L119.973 32.055C119.973 32.055 113.693 19.2874 111.955 16.9041C110.191 14.4853 109.871 15.8522 110.191 18.4444C110.538 21.2335 113.109 33.8475 113.109 33.8475H113.112Z" fill="#EBEBEB"/>
<g id="Group_70">
<path id="Vector_140" d="M119.031 31.263C118.564 31.3221 118.1 31.4521 117.641 31.5545C117.177 31.6609 116.717 31.7672 116.253 31.8775C115.33 32.0981 114.41 32.3266 113.498 32.5945C113.472 32.6024 113.483 32.6378 113.505 32.6339C114.437 32.4645 115.364 32.2478 116.284 32.0233C116.736 31.913 117.184 31.8027 117.633 31.6884C118.1 31.5703 118.583 31.4718 119.039 31.3103C119.069 31.2984 119.058 31.2551 119.028 31.259L119.031 31.263Z" fill="#A6A5A5"/>
<path id="Vector_141" d="M113.844 33.6385C113.715 33.6385 113.191 33.7016 113.169 33.7094C113.173 33.6385 112.826 31.3576 112.735 30.8849C112.558 29.9591 112.37 29.0373 112.185 28.1115C111.808 26.2443 111.409 24.3809 111.02 22.5176C110.802 21.4697 110.576 20.4218 110.327 19.3779C110.319 19.3542 110.285 19.3661 110.289 19.3897C110.391 20.0003 110.5 20.6109 110.613 21.2176C110.504 20.9576 110.391 20.7015 110.293 20.4376C110.285 20.4139 110.244 20.4258 110.255 20.4494C110.361 20.7252 110.447 21.0048 110.542 21.2845C110.591 21.4342 110.647 21.5761 110.707 21.7179C110.915 22.8209 111.133 23.92 111.348 25.0191C111.714 26.8903 112.072 28.7615 112.468 30.6288C112.577 31.1409 113.052 33.8788 113.071 33.8749C113.097 33.867 113.738 33.7252 113.859 33.674C113.87 33.67 113.859 33.6425 113.844 33.6425V33.6385Z" fill="#A6A5A5"/>
</g>
</g>
<g id="Group_71">
<path id="Vector_142" d="M107.326 15.356C107.326 15.356 105.442 17.952 104.888 26.1184C104.288 34.9269 103.01 54.0173 102.912 54.6949C102.814 55.3725 100.176 56.9522 100.176 56.9522L104.239 24.8381C104.239 24.8381 103.489 23.2584 103.617 22.0884C103.787 20.5363 106.603 15.7066 107.33 15.356H107.326Z" fill="#EBEBEB"/>
<path id="Vector_143" d="M105.344 18.1807C105.155 18.4603 104.986 18.7558 104.816 19.0473C104.827 19.0119 104.835 18.9764 104.846 18.9449C104.895 18.7913 104.933 18.6337 104.967 18.4722C104.967 18.4603 104.952 18.4564 104.948 18.4682C104.891 18.6219 104.842 18.7755 104.801 18.9331C104.778 19.0237 104.748 19.1143 104.725 19.2049C104.725 19.2049 104.722 19.2128 104.718 19.2167C104.616 19.39 104.296 20.1346 104.201 20.3119C104.19 20.3355 104.224 20.3552 104.235 20.3316C104.318 20.1504 104.718 19.4491 104.808 19.2679C104.986 18.9055 105.178 18.5549 105.355 18.1885C105.359 18.1767 105.347 18.1688 105.34 18.1807H105.344Z" fill="#A6A5A5"/>
<path id="Vector_144" d="M107.326 15.356C106.704 16.2029 106.078 17.0499 105.449 17.889V17.822L105.931 18.279L105.969 18.3145L105.935 18.3578L104.932 19.5593L104.947 19.5199C104.955 20.619 104.947 21.722 104.944 22.8211C104.932 23.9202 104.917 25.0233 104.891 26.1224C104.864 25.0233 104.846 23.9202 104.838 22.8211C104.838 21.722 104.823 20.619 104.834 19.5199V19.4963L104.849 19.4805L105.86 18.2869V18.3657L105.385 17.9008L105.351 17.8693L105.377 17.8338C106.022 17.0066 106.674 16.1832 107.33 15.3638L107.326 15.356Z" fill="#A6A5A5"/>
</g>
<path id="Vector_145" d="M109.766 15.0013C110.105 16.0177 110.437 17.0341 110.761 18.0544L110.78 18.1095L110.727 18.1214L109.781 18.3144L109.822 18.2395L110.358 19.6223L110.365 19.638V19.6538C110.229 20.7253 110.075 21.7929 109.928 22.8644C109.777 23.932 109.615 24.9996 109.445 26.0671C109.562 24.9917 109.687 23.9202 109.822 22.8486C109.962 21.7771 110.094 20.7056 110.248 19.638V19.6695L109.728 18.2829L109.706 18.2198L109.77 18.208L110.719 18.0268L110.682 18.0898C110.373 17.0656 110.071 16.0374 109.777 15.0053L109.766 15.0013Z" fill="#A6A5A5"/>
</g>
</g>
</g>
</g>
</svg>
