<svg width="375" height="164" viewBox="0 0 375 164" fill="none" xmlns="http://www.w3.org/2000/svg">
<path d="M-1 163.397V70.346C-1 70.346 11.9084 0.772461 33.0907 0.772461C54.2729 0.772461 50.4293 25.0366 80 25.0366C109.571 25.0366 110.158 33.5001 136.5 33.5001C162.842 33.5001 181 -3.99988 218.5 33.5001C257.213 33.5001 247.188 4.50011 280.5 4.50011C313.812 4.50011 303.443 41.5001 325.5 41.5001C347.557 41.5001 357.5 13.0001 375 60.9192V163.473H-1V163.397Z" fill="#2A6E26"/>
<path opacity="0.16" d="M-1 119.279V78.0818C-1 78.0818 22.4453 -3.13531 75.1595 41.2832C127.844 85.7018 170.419 -12.304 232.125 65.2581C293.832 142.82 321.381 55.9655 375 55.9655V141.333H189.851L-1 119.279Z" fill="white"/>
<path d="M-1 163.945V96.1568C-1 96.1568 8.26346 115.873 29.4457 115.873C50.628 115.873 62.9994 11.8096 92.57 11.8096C122.141 11.8096 120.541 110.002 146.883 110.002C173.225 110.002 174.312 63.1489 213.025 63.1489C251.739 63.1489 241.54 94.2184 274.852 94.2184C308.164 94.2184 305.509 130.937 327.566 130.937C349.624 130.937 356.292 89.2894 375 89.2894V164H-1V163.945Z" fill="#97C233"/>
</svg>
