<svg width="136" height="97" viewBox="0 0 136 97" fill="none" xmlns="http://www.w3.org/2000/svg">
<g id="Ilustra&#195;&#167;&#195;&#163;o">
<path id="Vector" d="M0.301722 77.9353C1.3781 79.4491 5.32981 80.3672 8.95771 81.136C11.2964 81.6315 13.608 82.1198 15.9736 82.5937C17.3768 82.8755 18.756 83.2886 19.2028 83.8855C19.7814 84.6627 18.81 85.3635 17.5807 85.9473C14.7683 87.282 13.3951 89.1087 15.4579 90.7502C18.6691 93.3051 27.8917 94.1778 34.1611 94.9263C41.7887 95.8385 49.6292 96.4617 57.5446 96.7864C68.1674 97.2233 78.4515 96.9213 89.0114 96.4951C96.1502 96.2062 103.295 95.3323 108.836 93.6035C110.527 93.0759 112.176 92.3392 111.831 91.5274C111.633 91.0606 111.258 90.2846 110.407 89.9384C107.96 88.9427 104.635 88.4819 101.481 87.8217C101.481 87.8217 101.481 87.8217 101.475 87.8193C97.9342 86.7579 100.288 84.7606 104.701 84.9182C116.886 85.354 124.013 84.8991 128.78 83.9392C136.972 82.2917 136.414 79.6962 133.533 76.3665C130.648 73.0369 123.938 70.9082 116.568 68.776C101.637 64.4566 83.4526 61.6176 65.0792 61.0982C57.1008 60.8726 52.0667 60.9812 44.5231 62.0056C40.6793 62.5285 36.9315 63.3069 34.4579 64.5318C31.9844 65.7567 31.0279 67.4961 32.8869 68.856C33.6574 69.4183 34.9047 69.9782 34.5719 70.6002C34.2661 71.1732 32.7279 71.5266 31.2768 71.7391C27.1662 72.3408 22.6658 72.3922 18.2763 72.5139C13.8839 72.6357 9.33849 72.8578 5.59965 73.7412C1.86082 74.6235 -0.83462 76.3415 0.301722 77.9365V77.9353ZM102.836 87.3883L102.572 87.3967C102.659 87.3907 102.746 87.3871 102.836 87.3883Z" fill="#97C233"/>
<g id="Group 123">
<g id="Clip path group">
<mask id="mask0_1071_60641" style="mask-type:luminance" maskUnits="userSpaceOnUse" x="37" y="28" width="79" height="51">
<g id="clippath">
<path id="Vector_2" d="M115.912 28H37.1542V78.9109H115.912V28Z" fill="white"/>
</g>
</mask>
<g mask="url(#mask0_1071_60641)">
<g id="Group">
<g id="Group_2">
<path id="Vector_3" d="M76.4164 46.8972L80.8561 40.0815C81.4539 39.2355 81.5942 38.1494 81.2399 37.1742L78.6123 29.9817C78.4425 29.5162 77.9037 29.2909 77.4608 29.5162C76.66 29.93 75.5713 31.0345 76.0695 33.2436C76.3758 34.6031 77.0881 38.4782 77.0881 38.4782C77.0881 38.4782 74.5822 43.0664 66.8654 45.1462L76.409 46.8935L76.4164 46.8972Z" fill="#F4AC9A"/>
<path id="Vector_4" d="M90.3442 45.6301L94.8798 38.5559C95.1308 38.1643 95.3005 37.7284 95.3854 37.274L96.7509 29.6936C96.81 29.3611 96.6181 29.0286 96.297 28.9252C95.5921 28.6962 94.031 28.5743 93.2855 30.292C92.1857 32.8188 90.8904 37.2777 90.8904 37.2777L85.8934 43.5873L76.5527 45.8518L89.7574 48.301L90.3442 45.6301Z" fill="#F4AC9A"/>
<path id="Vector_5" d="M87.8271 42.7266L89.4473 35.4011L90.1005 29.1691C90.1411 28.7959 89.868 28.4598 89.4952 28.4191C88.8199 28.3416 87.4581 28.4598 86.8528 29.8451C85.897 32.0431 84.2141 39.3317 84.2141 39.3317L75.0137 43.8533L78.8444 46.6904L86.6536 44.5256L87.8308 42.7229L87.8271 42.7266Z" fill="#F4AC9A"/>
<path id="Vector_6" d="M47.2871 88.4268L51.2396 49.4757L63.0677 51.8658L66.3412 90.429L47.2871 88.4268Z" fill="#F8BEAE"/>
<path id="Vector_7" d="M51.239 49.4757C51.239 49.4757 51.5896 41.175 60.9193 40.5913L76.2201 42.6009L92.0155 48.8995L61.7386 55.5859L51.2354 49.4757H51.239Z" fill="#F8BEAE"/>
<path id="Vector_8" d="M92.0201 48.8957L93.0535 48.7295C93.8691 48.5965 94.6109 48.1753 95.146 47.5436L104.723 35.3049C105.114 34.8431 104.974 33.794 104.417 33.565C103.616 33.2399 102.464 33.0182 101.387 33.709C99.4676 34.9392 90.9167 43.4579 90.9167 43.4579L77.1437 43.5096L92.0201 48.8957Z" fill="#F8BEAE"/>
<path id="Vector_9" d="M88.0189 44.1598L81.3649 51.2489L63.0969 55.2682L63.0674 51.8659L87.2292 41.1971L88.0189 44.1598Z" fill="#F4AC9A"/>
<path id="Vector_10" d="M90.5984 42.5491C90.5984 42.5491 90.4471 43.9344 92.0967 44.8948" stroke="#F4AC9A" stroke-width="0.24" stroke-linecap="round" stroke-linejoin="round"/>
<path id="Vector_11" d="M74.9665 40.957L76.6678 41.4373C78.1219 41.8215 79.6203 42.0062 81.1223 41.9877L83.2111 41.9618L77 44.8691L70.752 42.0616L74.9665 40.957Z" fill="#E39585"/>
<path id="Vector_12" d="M88.311 40.5359L85.8937 43.5873" stroke="#E39585" stroke-width="0.24" stroke-linecap="round" stroke-linejoin="round"/>
<path id="Vector_13" d="M52.1465 46.1879C52.1465 46.1879 54.7409 40.1923 62.1662 40.4952C69.9643 40.8129 78.6665 42.7597 78.6665 42.7597L83.2095 41.9618C84.9994 41.6478 86.889 41.681 87.9887 43.1292C88.3135 43.5577 88.188 44.1709 87.723 44.4369L80.7295 48.4635C80.2682 48.7258 79.77 48.9179 79.2496 49.0287L64.506 52.6453C63.7052 52.8337 63.1331 53.5393 63.1184 54.3631L63.0999 55.2681L52.1502 46.1842L52.1465 46.1879Z" fill="#F8BEAE"/>
</g>
</g>
</g>
</g>
<g id="Group_3">
<g id="Group_4">
<g id="Group_5">
<path id="Vector_14" d="M83.027 37.5799C83.6709 35.815 82.6705 33.6896 81.4377 31.5821C79.2169 27.7948 78.1047 25.831 75.8981 21.8645C79.247 19.8723 80.9268 18.8868 84.2722 17.0634C85.8952 19.9113 86.7094 21.3087 88.3378 24.02C89.3772 25.7352 89.4021 27.7415 88.2952 29.5118C86.1897 32.6474 85.1361 34.2791 83.027 37.5799Z" fill="#62B988"/>
<g id="Group_6">
<path id="Vector_15" d="M74.7953 27.9404C72.7536 31.4187 71.7319 33.1818 69.692 36.669C71.7053 40.1207 72.7093 41.8376 74.7314 45.1721C74.7385 43.7162 74.7385 42.9917 74.742 41.5358C75.3664 41.5056 75.6733 41.4914 76.2994 41.4541C81.9277 41.1896 83.9339 37.2194 81.2767 32.7859C80.5921 31.6513 79.8612 30.3747 79.0045 28.885C79.6324 30.2735 79.3486 31.4471 77.8941 31.4862C76.6453 31.527 76.021 31.5465 74.7793 31.5767C74.7846 30.1208 74.7864 29.3946 74.7953 27.9386V27.9404Z" fill="#AFE03C"/>
<g id="Clip path group_2">
<mask id="mask1_1071_60641" style="mask-type:luminance" maskUnits="userSpaceOnUse" x="69" y="27" width="14" height="19">
<g id="clippath-1">
<path id="Vector_16" d="M74.7955 27.9405C72.7539 31.4188 71.7321 33.1819 69.6923 36.6691C71.7055 40.1208 72.7095 41.8378 74.7316 45.1723C74.7387 43.7163 74.7387 42.9919 74.7423 41.5359C75.3667 41.5057 75.6735 41.4915 76.2997 41.4542C81.928 41.1897 83.9341 37.2195 81.277 32.786C80.5923 31.6514 79.8615 30.3748 79.0047 28.8851C79.6327 30.2736 79.3489 31.4472 77.8943 31.4863C76.6456 31.5271 76.0212 31.5466 74.7795 31.5768C74.7849 30.1209 74.7866 29.3947 74.7955 27.9387V27.9405Z" fill="white"/>
</g>
</mask>
<g mask="url(#mask1_1071_60641)">
<g id="Group_7">
<path id="Vector_17" d="M79.0076 28.8867C79.0076 28.8867 83.1654 36.5571 79.2151 41.2268L83.7898 38.947L81.3862 29.7443L79.0076 28.8867Z" fill="#AFE03C"/>
</g>
</g>
</g>
</g>
<g id="Group_8">
<path id="Vector_18" d="M61.9212 27.9084C60.0498 24.3342 59.0938 22.5356 57.2135 18.9596C53.2225 18.846 51.2358 18.7945 47.3387 18.7501C48.5698 19.5243 49.1853 19.9078 50.4181 20.6819C50.113 21.2288 49.964 21.4969 49.6642 22.0491C46.9148 26.9709 49.2225 30.7742 54.3879 30.8576C55.7129 30.8754 57.1816 30.9286 58.8969 30.9872C57.3874 30.7884 56.5413 29.9255 57.2774 28.6684C57.9018 27.5853 58.2157 27.0437 58.8472 25.9731C60.0782 26.7454 60.6937 27.1307 61.9248 27.9084H61.9212Z" fill="#AFE03C"/>
<g id="Clip path group_3">
<mask id="mask2_1071_60641" style="mask-type:luminance" maskUnits="userSpaceOnUse" x="47" y="18" width="15" height="13">
<g id="clippath-2">
<path id="Vector_19" d="M61.9193 27.9086C60.0479 24.3344 59.0918 22.5357 57.2116 18.9598C53.2205 18.8461 51.2338 18.7946 47.3368 18.7502C48.5678 19.5244 49.1833 19.9079 50.4161 20.682C50.111 21.2289 49.962 21.497 49.6623 22.0492C46.9129 26.9711 49.2206 30.7743 54.3859 30.8577C55.7109 30.8755 57.1796 30.9288 58.8949 30.9874C57.3854 30.7885 56.5393 29.9256 57.2754 28.6685C57.8998 27.5854 58.2138 27.0439 58.8452 25.9732C60.0763 26.7456 60.6918 27.1309 61.9228 27.9086H61.9193Z" fill="white"/>
</g>
</mask>
<g mask="url(#mask2_1071_60641)">
<g id="Group_9">
<path id="Vector_20" d="M58.8915 30.9873C58.8915 30.9873 50.1892 30.4688 48.3143 24.645L47.8318 29.7373L56.9084 32.5569L58.8932 30.9891L58.8915 30.9873Z" fill="#AFE03C"/>
</g>
</g>
</g>
</g>
<g id="Group_10">
<path id="Vector_21" d="M68.759 17.6759C72.7873 17.5498 74.8219 17.4752 78.8573 17.3438C80.702 13.7981 81.6173 12.0332 83.3574 8.54241C82.1246 9.313 81.5109 9.70007 80.2781 10.4707C79.9198 9.95753 79.7442 9.70718 79.3788 9.19582C76.1558 4.5705 71.7301 4.98775 69.3994 9.60242C68.8051 10.7867 68.1151 12.0864 67.3134 13.6063C68.1506 12.335 69.2965 11.9479 70.1053 13.1606C70.806 14.1958 71.1554 14.7142 71.8419 15.7512C70.6091 16.5235 69.9936 16.9088 68.759 17.6759Z" fill="#AFE03C"/>
<g id="Clip path group_4">
<mask id="mask3_1071_60641" style="mask-type:luminance" maskUnits="userSpaceOnUse" x="67" y="5" width="17" height="13">
<g id="clippath-3">
<path id="Vector_22" d="M68.7597 17.6759C72.7881 17.5498 74.8226 17.4752 78.858 17.3438C80.7028 13.7981 81.6181 12.0332 83.3582 8.54241C82.1254 9.313 81.5116 9.70007 80.2788 10.4707C79.9205 9.95753 79.7449 9.70718 79.3795 9.19582C76.1565 4.5705 71.7309 4.98775 69.4001 9.60242C68.8059 10.7867 68.1158 12.0864 67.3141 13.6063C68.1513 12.335 69.2972 11.9479 70.1061 13.1606C70.8067 14.1958 71.1562 14.7142 71.8426 15.7512C70.6098 16.5235 69.9943 16.9088 68.7597 17.6759Z" fill="white"/>
</g>
</mask>
<g mask="url(#mask3_1071_60641)">
<g id="Group_11">
<path id="Vector_23" d="M67.3119 13.6063C67.3119 13.6063 71.5797 5.99628 77.632 6.8521L73.2666 4.19409L66.7692 11.1347L67.3119 13.6063Z" fill="#AFE03C"/>
</g>
</g>
</g>
</g>
<path id="Vector_24" d="M72.848 5.26121C71.0583 5.51334 69.6357 7.54458 68.3958 9.76757C66.1626 13.7679 65.0415 15.7991 62.8136 19.7977C59.4913 17.8215 57.831 16.8378 54.5087 15.0197C56.1335 12.1273 56.9477 10.6518 58.5742 7.68485C59.6119 5.80809 61.4318 4.5865 63.5001 4.60071C67.241 4.74808 69.1142 4.8848 72.8498 5.26121H72.848Z" fill="#62B988"/>
<path id="Vector_25" d="M49.2331 29.6592C50.3825 31.0992 52.7665 31.4987 55.2197 31.6016C59.6258 31.7881 61.8378 31.8325 66.2705 31.8342C66.2563 35.8488 66.2474 37.8534 66.2315 41.8679C62.9907 41.8608 61.3748 41.8093 58.1571 41.6033C56.1101 41.4702 54.2867 40.2397 53.3217 38.3186C51.6898 34.7905 50.8721 33.0487 49.2313 29.6592H49.2331Z" fill="#62B988"/>
</g>
<g id="Group_12">
<g id="Group_13">
<path id="Vector_26" d="M73.8257 23.7003C73.8257 21.9656 72.5078 20.5612 70.8812 20.5612C69.8684 20.5612 68.9744 21.108 68.444 21.939C67.9136 21.108 67.0196 20.5612 66.0068 20.5612C64.3802 20.5612 63.0623 21.9674 63.0623 23.7003C63.0623 23.9684 63.0942 24.2277 63.1527 24.4763C63.1527 24.4763 63.2485 26.1861 65.8205 28.1517L65.9678 28.2777C67.3903 29.494 69.487 29.4975 70.9131 28.283L71.0692 28.1517C73.6412 26.1861 73.737 24.4763 73.737 24.4763C73.7956 24.2277 73.8275 23.9684 73.8275 23.7003H73.8257Z" fill="#59C1D8"/>
<g id="Clip path group_5">
<mask id="mask4_1071_60641" style="mask-type:luminance" maskUnits="userSpaceOnUse" x="63" y="20" width="11" height="10">
<g id="clippath-4">
<path id="Vector_27" d="M73.8258 23.7003C73.8258 21.9656 72.5079 20.5612 70.8813 20.5612C69.8685 20.5612 68.9745 21.108 68.4441 21.939C67.9137 21.108 67.0197 20.5612 66.0069 20.5612C64.3803 20.5612 63.0624 21.9674 63.0624 23.7003C63.0624 23.9684 63.0943 24.2277 63.1528 24.4763C63.1528 24.4763 63.2486 26.1861 65.8206 28.1517L65.9679 28.2777C67.3905 29.494 69.4871 29.4975 70.9132 28.283L71.0693 28.1517C73.6414 26.1861 73.7371 24.4763 73.7371 24.4763C73.7957 24.2277 73.8276 23.9684 73.8276 23.7003H73.8258Z" fill="white"/>
</g>
</mask>
<g mask="url(#mask4_1071_60641)">
<g id="Group_14">
<path id="Vector_28" d="M68.0174 28.6062C69.3796 28.1392 71.698 27.1183 73.0887 23.2618C73.282 22.7238 74.1175 22.9102 74.1459 23.482C74.2044 24.6716 73.9064 26.3566 72.3508 28.1055C70.8129 29.8331 69.2998 30.2042 68.1451 30.0231C67.3859 29.9041 67.2919 28.8548 68.0174 28.6062Z" fill="#23B7CA"/>
</g>
</g>
</g>
</g>
<g id="Group_15">
<path id="Vector_29" d="M65.9718 23.6968C65.9718 23.8264 65.7713 23.9311 65.523 23.9311C65.2747 23.9311 65.0742 23.8264 65.0742 23.6968C65.0742 23.5672 65.2747 23.4624 65.523 23.4624C65.7713 23.4624 65.9718 23.5672 65.9718 23.6968Z" fill="#8ACFE0"/>
<path id="Vector_30" d="M71.4779 23.9311C71.7258 23.9311 71.9267 23.8262 71.9267 23.6968C71.9267 23.5673 71.7258 23.4624 71.4779 23.4624C71.2301 23.4624 71.0292 23.5673 71.0292 23.6968C71.0292 23.8262 71.2301 23.9311 71.4779 23.9311Z" fill="#8ACFE0"/>
</g>
</g>
</g>
<path id="Vector_31" d="M44.1766 36.6514C44.1766 36.6514 45.4378 34.1265 47.522 34.2242C48.9996 34.2934 49.2355 34.9841 50.0408 35.325C50.7521 35.6269 51.5539 35.6216 52.2829 35.3677C52.5401 35.2771 52.8701 34.9717 53.294 34.8066C54.7982 34.2242 55.9121 35.341 56.2527 36.6514H44.1766Z" fill="#E9EAF3"/>
<path id="Vector_32" d="M83.9462 24.1372C83.9462 24.1372 84.8313 22.3617 86.2965 22.4291C87.3341 22.4771 87.4406 22.8002 88.0649 23.2033C88.5031 23.4856 89.1275 23.5761 89.6401 23.3968C89.821 23.3329 90.0534 23.118 90.3496 23.0026C91.405 22.5925 92.189 23.2139 92.4267 24.1372H83.9462Z" fill="#E9EAF3"/>
<path id="Vector_33" d="M68.4482 1.86998C68.4482 1.86998 69.4167 -0.0724797 71.0167 0.00209355C72.1519 0.0553602 72.2672 0.408696 72.9502 0.849033C73.4291 1.15798 74.112 1.25741 74.6725 1.06032C74.8694 0.991077 75.1248 0.754929 75.4495 0.628864C76.6042 0.181425 77.4609 0.861462 77.7217 1.8682H68.4482V1.86998Z" fill="#E9EAF3"/>
</g>
</g>
</g>
</svg>
