<svg width="327" height="237" viewBox="0 0 327 237" fill="none" xmlns="http://www.w3.org/2000/svg">
<g clip-path="url(#clip0_211_9888)">
<path d="M0.631655 106.21C3.23298 116.215 12.7732 122.28 21.5343 127.359C27.1848 130.631 32.7617 133.859 38.4736 136.99C41.8663 138.846 45.1916 141.579 46.2714 145.524C47.6702 150.658 45.3204 155.29 42.351 159.15C35.5655 167.966 32.2463 180.041 37.222 190.885C44.9769 207.77 67.2477 213.529 82.3832 218.479C100.801 224.502 119.734 228.619 138.845 230.769C164.497 233.655 189.326 231.658 214.824 228.839C232.064 226.934 249.316 221.157 262.691 209.731C266.771 206.245 270.758 201.374 269.924 196.013C269.445 192.932 268.544 187.798 266.488 185.512C260.58 178.933 252.549 175.888 244.935 171.525C244.935 171.525 244.935 171.526 244.923 171.513C236.371 164.498 242.058 151.302 252.715 152.343C282.133 155.217 299.342 152.215 310.858 145.88C330.638 134.993 329.288 117.845 322.331 95.8502C315.367 73.8497 299.428 31.7173 281.63 17.6262C245.573 -10.9174 224.125 30.7064 179.761 27.2694C160.503 25.7746 125.624 -5.814 107.409 0.961976C98.1261 4.41123 89.0767 9.55754 83.101 17.6507C77.1253 25.7439 74.8185 37.2374 79.3095 46.225C81.1684 49.9439 84.187 53.6382 83.3832 57.7552C82.647 61.5476 78.9291 63.8757 75.4259 65.2786C65.4991 69.2548 54.6398 69.5917 44.0321 70.4005C33.4304 71.2092 22.4546 72.6734 13.4235 78.5059C4.39867 84.3384 -2.11078 95.6848 0.631655 106.229V106.21ZM248.205 168.671L247.567 168.726C247.776 168.683 247.991 168.658 248.205 168.671Z" fill="#2A6E26"/>
<path d="M51.2041 193.526C138.496 193.152 236.42 193.146 323.711 193.526C236.42 193.906 138.496 193.9 51.2041 193.526Z" fill="#111111"/>
<path d="M187.461 237.006C258.787 237.006 316.607 230.338 316.607 222.112C316.607 213.887 258.787 207.219 187.461 207.219C116.136 207.219 58.3154 213.887 58.3154 222.112C58.3154 230.338 116.136 237.006 187.461 237.006Z" fill="#EBEBEB"/>
<path d="M94.1388 191.896H224.426L217.696 28.6662H87.4023L94.1388 191.896Z" fill="#DBDBDB"/>
<path d="M74.1928 11.7446H201.645C210.505 11.7446 217.695 18.925 217.695 27.7717V28.6662H74.1928C69.7632 28.6662 66.168 25.076 66.168 20.6527V19.7582C66.168 15.3348 69.7632 11.7446 74.1928 11.7446Z" fill="#DBDBDB"/>
<path d="M204.02 28.6662V25.7561C204.02 23.1584 206.13 21.0509 208.731 21.0509C211.333 21.0509 213.443 23.1584 213.443 25.7561V28.6662H204.02Z" fill="#A6A6A6"/>
<path d="M88.8684 212.714H219.162L213.438 28.6662H83.1504L88.8684 212.714Z" fill="#97C233"/>
<path d="M197.584 212.714H207.002L213.437 28.6662H204.02L197.584 212.714Z" fill="#C7C7C7"/>
<path d="M67.291 212.714H197.584L204.02 28.6662H73.7268L67.291 212.714Z" fill="#EBEBEB"/>
<path d="M197.388 56.683L182.632 56.5421L167.865 56.4685L138.342 56.4012L108.808 56.4624L94.0402 56.5421L79.2666 56.683L94.0279 56.8239L108.789 56.8974L138.318 56.9648L167.853 56.8974L182.62 56.8178L197.388 56.683Z" fill="#DBDBDB"/>
<path d="M197.057 65.7135L182.295 65.5787L167.534 65.4991L138.005 65.4317L108.47 65.4991L93.703 65.5787L78.9355 65.7135L93.6968 65.8544L108.458 65.9341L137.987 65.9953L167.516 65.9341L182.283 65.8544L197.057 65.7135Z" fill="#DBDBDB"/>
<path d="M196.719 74.7502L181.957 74.6093L167.196 74.5296L137.673 74.4684L108.139 74.5296L93.3712 74.6093L78.5977 74.7502L93.3589 74.885L108.12 74.9646L137.649 75.032L167.184 74.9646L181.951 74.885L196.719 74.7502Z" fill="#DBDBDB"/>
<path d="M196.388 83.7808L181.626 83.646L166.865 83.5663L137.336 83.4989L107.801 83.5663L93.034 83.646L78.2666 83.7808L93.0279 83.9217L107.789 84.0013L137.318 84.0626L166.847 83.9952L181.614 83.9217L196.388 83.7808Z" fill="#DBDBDB"/>
<path d="M196.051 92.8175L181.289 92.6766L166.528 92.5969L137.006 92.5295L107.471 92.5969L92.7033 92.6766L77.9297 92.8175L92.691 92.9522L107.452 93.0319L136.981 93.0993L166.516 93.0319L181.283 92.9522L196.051 92.8175Z" fill="#DBDBDB"/>
<path d="M195.719 101.848L180.957 101.707L166.196 101.634L136.667 101.566L107.133 101.627L92.3651 101.707L77.5977 101.848L92.3589 101.983L107.12 102.062L136.649 102.13L166.178 102.062L180.945 101.983L195.719 101.848Z" fill="#DBDBDB"/>
<path d="M195.382 110.879L180.62 110.744L165.859 110.664L136.33 110.597L106.802 110.664L92.0343 110.744L77.2607 110.879L92.022 111.019L106.783 111.099L136.312 111.16L165.847 111.099L180.614 111.019L195.382 110.879Z" fill="#DBDBDB"/>
<path d="M195.051 119.915L180.289 119.774L165.528 119.695L135.999 119.633L106.465 119.695L91.6971 119.774L76.9297 119.915L91.691 120.05L106.452 120.13L135.981 120.197L165.51 120.13L180.277 120.05L195.051 119.915Z" fill="#DBDBDB"/>
<path d="M194.713 128.946L179.952 128.811L165.19 128.731L135.661 128.664L106.133 128.731L91.3654 128.805L76.5918 128.946L91.3531 129.087L106.114 129.166L135.643 129.228L165.178 129.16L179.945 129.087L194.713 128.946Z" fill="#DBDBDB"/>
<path d="M194.382 137.976L179.62 137.842L164.859 137.762L135.33 137.695L105.796 137.762L91.0282 137.842L76.2607 137.976L91.022 138.117L105.783 138.197L135.312 138.264L164.841 138.197L179.608 138.117L194.382 137.976Z" fill="#DBDBDB"/>
<path d="M194.044 147.013L179.283 146.872L164.521 146.799L134.993 146.731L105.464 146.792L90.6964 146.872L75.9229 147.013L90.6841 147.148L105.445 147.227L134.974 147.295L164.509 147.227L179.276 147.148L194.044 147.013Z" fill="#DBDBDB"/>
<path d="M193.713 156.044L178.952 155.909L164.19 155.829L134.662 155.762L105.127 155.829L90.3592 155.909L75.5918 156.044L90.3531 156.185L105.114 156.264L134.637 156.325L164.172 156.264L178.939 156.185L193.713 156.044Z" fill="#DBDBDB"/>
<path d="M193.376 165.08L178.615 164.939L163.853 164.86L134.325 164.798L104.796 164.86L90.0284 164.939L75.2549 165.08L90.0162 165.215L104.777 165.295L134.306 165.362L163.841 165.295L178.608 165.215L193.376 165.08Z" fill="#DBDBDB"/>
<path d="M193.044 174.111L178.283 173.976L163.521 173.896L133.993 173.829L104.458 173.896L89.6903 173.97L74.9229 174.111L89.6841 174.252L104.445 174.331L133.968 174.393L163.503 174.325L178.27 174.252L193.044 174.111Z" fill="#DBDBDB"/>
<path d="M192.707 183.141L177.946 183.007L163.184 182.927L133.656 182.86L104.127 182.927L89.3595 183.007L74.5859 183.141L89.3472 183.282L104.109 183.362L133.637 183.429L163.172 183.362L177.94 183.282L192.707 183.141Z" fill="#DBDBDB"/>
<path d="M192.376 192.178L177.615 192.037L162.853 191.958L133.325 191.896L103.79 191.958L89.0223 192.037L74.2549 192.178L89.01 192.313L103.777 192.392L133.3 192.46L162.835 192.392L177.602 192.313L192.376 192.178Z" fill="#DBDBDB"/>
<path d="M192.038 201.209L177.277 201.074L162.515 200.994L132.987 200.927L103.458 200.994L88.6905 201.074L73.917 201.209L88.6783 201.35L103.44 201.429L132.968 201.49L162.503 201.429L177.271 201.35L192.038 201.209Z" fill="#DBDBDB"/>
<path d="M95.513 28.6662L94.8565 51.6776L94.108 74.6889L92.5987 120.699L90.8932 166.71L90.0342 189.715L89.0771 212.714L89.7336 189.703L90.4821 166.698L91.9914 120.681L93.7031 74.6706L94.562 51.6714L95.513 28.6662Z" fill="#97C233"/>
<path d="M206.333 28.6662L205.867 45.2386L205.327 61.8109L204.247 94.9556L203.014 128.088L202.394 144.66L201.701 161.227L202.167 144.648L202.707 128.082L203.787 94.9372L205.026 61.8048L205.646 45.2324L206.333 28.6662Z" fill="#A6A6A6"/>
<path d="M208.07 28.6662L207.425 50.2072L206.714 71.7359L205.284 114.806L203.701 157.869L202.91 179.398L202.045 200.927L202.683 179.392L203.395 157.857L204.824 114.787L206.407 71.7298L207.205 50.1949L208.07 28.6662Z" fill="#A6A6A6"/>
<path d="M209.8 28.6662L209.248 47.6157L208.628 66.5529L207.383 104.44L205.978 142.32L205.278 161.257L204.499 180.194L205.051 161.251L205.671 142.308L206.922 104.421L208.321 66.5467L209.027 47.6034L209.8 28.6662Z" fill="#A6A6A6"/>
<path d="M211.53 28.6662L211.033 46.2188L210.457 63.7714L209.309 98.8705L208.002 133.963L207.352 151.51L206.622 169.05L207.125 151.498L207.696 133.951L208.849 98.8521L210.15 63.7592L210.806 46.2127L211.53 28.6662Z" fill="#A6A6A6"/>
<path d="M219.088 218.731C220.241 219.117 253.218 219.019 254.476 218.222C254.948 217.922 255.218 213.125 255.372 207.317C255.408 206.061 255.433 204.774 255.451 203.451C255.476 201.895 255.494 200.314 255.507 198.783C255.549 191.902 255.451 185.849 255.451 185.849H233.984L233.997 198.783V203.451L234.113 207.317C234.113 207.317 221.505 212.996 220.223 214.019C218.947 215.036 217.935 218.351 219.088 218.731Z" fill="#E37E4C"/>
<path d="M219.087 218.731C220.241 219.117 253.217 219.019 254.475 218.222C254.948 217.922 255.217 213.125 255.371 207.317C255.408 206.061 255.432 204.774 255.451 203.451C255.475 201.895 255.494 200.314 255.506 198.783H233.99V203.451L234.106 207.317C234.106 207.317 221.498 212.996 220.216 214.019C218.94 215.036 217.928 218.351 219.081 218.731H219.087Z" fill="white"/>
<path d="M218.989 218.78C219.744 219.025 233.788 219.08 244.015 218.865C246.383 218.816 248.543 218.749 250.291 218.675C252.696 218.565 254.31 218.437 254.574 218.265C255.156 217.891 255.433 210.846 255.561 203.414H233.984L234.094 207.298C234.094 207.298 221.413 213.008 220.124 214.038C218.842 215.067 217.83 218.394 218.983 218.78H218.989Z" fill="#97C233"/>
<path d="M219.461 217.45C225.02 217.297 247.456 217.205 252.96 217.481C253.003 217.481 253.003 217.511 252.96 217.518C247.456 217.787 225.02 217.695 219.461 217.548C219.345 217.548 219.345 217.462 219.461 217.456V217.45Z" fill="#111111"/>
<path d="M233.309 206.067C235.493 205.65 238.174 205.981 239.849 207.531C239.916 207.593 239.824 207.684 239.757 207.66C237.597 206.986 235.579 206.557 233.321 206.343C233.161 206.33 233.155 206.098 233.309 206.067Z" fill="#111111"/>
<path d="M231.731 207.023C233.916 206.606 236.597 206.937 238.272 208.487C238.339 208.548 238.247 208.64 238.18 208.616C236.02 207.942 234.001 207.513 231.744 207.298C231.584 207.286 231.578 207.053 231.731 207.023Z" fill="#111111"/>
<path d="M230.155 207.978C232.339 207.562 235.02 207.893 236.695 209.443C236.763 209.504 236.671 209.596 236.603 209.571C234.444 208.897 232.425 208.469 230.168 208.254C230.008 208.242 230.002 208.009 230.155 207.978Z" fill="#111111"/>
<path d="M228.585 208.934C230.769 208.518 233.45 208.848 235.125 210.398C235.193 210.46 235.107 210.552 235.033 210.527C232.873 209.853 230.855 209.424 228.597 209.21C228.438 209.198 228.432 208.965 228.585 208.934Z" fill="#111111"/>
<path d="M230.247 204.137C231.799 205.332 233.811 205.822 235.621 206.484C235.811 206.551 235.959 206.373 235.965 206.208C236.001 206.202 236.032 206.171 236.014 206.128C235.413 204.303 234.112 202.373 232.633 201.135C231.719 200.369 230.118 199.842 229.259 201.031C228.449 202.152 229.345 203.439 230.247 204.137ZM229.682 202.379C229.29 199.983 231.872 201.233 232.523 201.821C232.94 202.201 233.32 202.636 233.689 203.071C234.449 203.978 235.069 204.97 235.732 205.944C234.86 205.565 233.971 205.264 233.087 204.915C232.038 204.499 229.903 203.702 229.688 202.379H229.682Z" fill="#111111"/>
<path d="M243.303 202.783C242.769 201.423 241.088 201.533 240.008 202.042C238.266 202.869 236.523 204.419 235.487 206.036C235.462 206.079 235.487 206.11 235.517 206.128C235.48 206.294 235.579 206.496 235.781 206.477C237.695 206.288 239.769 206.318 241.573 205.546C242.622 205.093 243.812 204.07 243.309 202.783H243.303ZM238.622 205.595C237.683 205.712 236.738 205.779 235.806 205.932C236.689 205.154 237.536 204.345 238.499 203.659C238.959 203.335 239.438 203.004 239.935 202.74C240.714 202.33 243.524 201.766 242.548 203.984C242.008 205.209 239.744 205.454 238.622 205.589V205.595Z" fill="#111111"/>
<path d="M262.617 94.49C262.617 94.49 256.813 151.798 256.678 152.521C256.66 152.619 256.617 153.722 256.561 155.517C256.249 165.38 255.476 196.142 255.476 196.142H231.8C231.8 196.142 233.346 159.707 234.229 151.21C235.358 140.366 242.481 94.49 242.481 94.49H262.611H262.617Z" fill="#184915"/>
<path d="M253.855 154.543C254.585 142.124 255.671 129.73 257.15 117.379C257.978 110.413 258.978 103.478 259.978 96.5363C259.984 96.475 260.083 96.4811 260.076 96.5363C258.242 108.887 256.947 121.337 255.831 133.774C254.714 146.192 253.935 158.641 253.426 171.103C253.137 178.16 252.917 185.224 252.69 192.288C252.69 192.454 252.426 192.448 252.426 192.282C252.757 179.698 253.125 167.108 253.861 154.536L253.855 154.543Z" fill="#111111"/>
<path d="M233.296 192.337C233.916 192.258 234.591 192.282 235.217 192.258C235.928 192.233 236.64 192.227 237.352 192.203C238.72 192.147 240.094 192.117 241.468 192.092C244.229 192.049 247.002 192.062 249.763 192.147C250.524 192.172 251.285 192.203 252.046 192.227C252.855 192.258 253.665 192.331 254.475 192.325C254.536 192.325 254.536 192.399 254.475 192.399C253.082 192.399 251.677 192.521 250.285 192.57C248.917 192.619 247.542 192.644 246.174 192.662C243.413 192.699 240.64 192.674 237.879 192.576C237.119 192.546 236.358 192.54 235.597 192.515C235.192 192.503 234.787 192.478 234.382 192.466C234.02 192.454 233.658 192.478 233.303 192.429C233.241 192.423 233.247 192.343 233.303 192.337H233.296Z" fill="#111111"/>
<path d="M262.617 94.49C262.617 94.49 256.813 151.798 256.678 152.521C256.659 152.619 256.617 153.722 256.561 155.517L245.401 94.4839H262.617V94.49Z" fill="#123810"/>
<path d="M280.532 217.707C281.741 217.579 311.742 203.904 312.558 202.661C312.871 202.195 311.128 197.71 308.871 192.362C308.386 191.204 307.932 189.985 307.349 188.808C306.625 187.326 305.883 185.843 305.147 184.428C301.981 178.271 299.073 173.229 299.073 173.229L280.072 181.824L285.563 193.042L287.808 197.643L289.502 201.117C289.502 201.117 280.36 211.483 279.618 212.941C278.876 214.393 279.33 217.83 280.532 217.707Z" fill="#E37E4C"/>
<path d="M280.532 217.707C281.741 217.579 311.742 203.904 312.558 202.661C312.871 202.195 311.129 197.71 308.871 192.362C308.386 191.204 307.932 189.985 307.349 188.808C306.625 187.326 305.883 185.843 305.147 184.428C299.282 187.05 290.821 190.751 285.557 193.042L287.803 197.643L289.496 201.117C289.496 201.117 280.354 211.483 279.612 212.941C278.87 214.393 279.324 217.83 280.526 217.707H280.532Z" fill="white"/>
<path d="M280.458 217.793C281.673 217.665 311.84 203.917 312.662 202.667C313.042 202.091 310.38 195.56 307.429 188.735L287.778 197.625L289.483 201.117C289.483 201.117 280.293 211.538 279.538 213.008C278.796 214.473 279.244 217.928 280.458 217.799V217.793Z" fill="#97C233"/>
<path d="M280.341 216.39C285.342 213.964 305.741 204.633 310.87 202.618C310.913 202.599 310.925 202.63 310.882 202.648C305.98 205.166 285.507 214.326 280.378 216.476C280.268 216.519 280.237 216.445 280.341 216.39Z" fill="#111111"/>
<path d="M288.256 200.314C290.078 199.034 292.649 198.231 294.814 198.954C294.9 198.985 294.857 199.101 294.784 199.107C292.538 199.383 290.526 199.824 288.379 200.559C288.225 200.608 288.127 200.406 288.256 200.314Z" fill="#111111"/>
<path d="M287.213 201.834C289.035 200.553 291.606 199.751 293.771 200.473C293.857 200.504 293.814 200.62 293.741 200.627C291.495 200.902 289.483 201.343 287.336 202.079C287.182 202.128 287.084 201.925 287.213 201.834Z" fill="#111111"/>
<path d="M286.176 203.353C287.998 202.072 290.569 201.27 292.734 201.993C292.82 202.023 292.777 202.14 292.704 202.146C290.458 202.422 288.446 202.863 286.298 203.598C286.145 203.647 286.047 203.445 286.176 203.353Z" fill="#111111"/>
<path d="M285.133 204.872C286.955 203.592 289.526 202.789 291.691 203.512C291.777 203.543 291.734 203.659 291.661 203.665C289.415 203.941 287.403 204.382 285.256 205.117C285.102 205.166 285.004 204.964 285.133 204.872Z" fill="#111111"/>
<path d="M284.667 199.818C286.575 200.271 288.612 199.879 290.532 199.738C290.729 199.726 290.796 199.499 290.729 199.346C290.759 199.328 290.778 199.285 290.741 199.254C289.44 197.839 287.459 196.614 285.593 196.099C284.446 195.781 282.765 195.958 282.477 197.392C282.201 198.746 283.55 199.554 284.661 199.818H284.667ZM283.428 198.452C282.078 196.43 284.949 196.51 285.784 196.773C286.324 196.945 286.851 197.183 287.36 197.429C288.428 197.937 289.403 198.593 290.403 199.205C289.453 199.218 288.52 199.309 287.569 199.358C286.44 199.414 284.164 199.561 283.422 198.452H283.428Z" fill="#111111"/>
<path d="M296.005 193.201C294.956 192.184 293.471 192.975 292.698 193.887C291.452 195.358 290.501 197.49 290.225 199.389C290.219 199.438 290.25 199.456 290.287 199.456C290.324 199.622 290.495 199.769 290.673 199.665C292.342 198.703 294.244 197.876 295.563 196.43C296.336 195.584 296.993 194.163 295.999 193.195L296.005 193.201ZM292.906 197.692C292.097 198.188 291.268 198.635 290.483 199.162C290.968 198.09 291.403 197.006 291.998 195.983C292.281 195.493 292.581 194.996 292.931 194.555C293.471 193.863 295.796 192.184 295.827 194.616C295.839 195.952 293.876 197.11 292.913 197.698L292.906 197.692Z" fill="#111111"/>
<path d="M242.487 94.49C242.487 94.49 244.046 102.767 249.831 106.976C249.831 106.976 262.58 149.592 264.237 154.475C267.096 162.893 282.44 191.418 282.44 191.418L306.128 181.267C306.128 181.267 288.06 149.488 286.109 147.038C284.814 145.414 275.084 110.866 275.206 109.978C276.63 99.3913 271.599 94.4349 271.599 94.4349L242.487 94.4839V94.49Z" fill="#184915"/>
<path d="M261.654 97.492C262.102 99.1523 263.188 100.61 264.55 101.646C266.084 102.81 267.918 103.294 269.808 103.447C270.127 103.472 270.152 103.956 269.82 103.956C265.961 103.98 262.059 101.517 261.495 97.5165C261.483 97.4246 261.63 97.4063 261.654 97.492Z" fill="#111111"/>
<path d="M246.133 104.36C247.55 104.868 248.844 105.683 250.12 106.474C251.446 107.295 252.667 108.25 253.949 109.139C253.998 109.175 253.955 109.255 253.9 109.224C252.556 108.452 251.163 107.785 249.832 106.988C248.544 106.216 247.206 105.463 246.071 104.47C246.028 104.433 246.071 104.348 246.126 104.366L246.133 104.36Z" fill="#111111"/>
<path d="M245.586 96.3219C245.795 97.2041 246.046 98.0741 246.279 98.9502C246.5 99.7711 246.672 100.617 246.93 101.425C247.181 102.209 247.549 102.926 248.194 103.465C248.531 103.753 248.905 104.005 249.267 104.268C249.463 104.409 249.672 104.544 249.875 104.685C249.844 104.568 249.819 104.452 249.789 104.329C249.715 103.992 249.641 103.661 249.568 103.325C249.408 102.583 249.255 101.836 249.102 101.088C248.807 99.6241 248.531 98.1353 248.157 96.6895C248.144 96.6282 248.23 96.6037 248.249 96.6649C248.684 98.0986 249.157 99.5138 249.543 100.96C249.733 101.67 250.457 105.181 250.494 105.432C250.531 105.689 250.568 105.947 250.586 106.21C250.605 106.467 250.672 106.749 250.623 107.007C250.611 107.074 250.531 107.068 250.5 107.025C250.359 106.804 250.316 106.51 250.243 106.265C250.169 106.014 250.095 105.763 250.04 105.506C250.022 105.414 250.003 105.322 249.985 105.224C249.629 105.028 249.286 104.764 248.948 104.544C248.586 104.305 248.212 104.072 247.868 103.809C247.206 103.3 246.776 102.663 246.506 101.879C246.224 101.064 246.108 100.2 245.973 99.3545C245.813 98.3559 245.684 97.345 245.5 96.3525C245.488 96.2912 245.58 96.2667 245.592 96.328L245.586 96.3219Z" fill="#111111"/>
<path d="M282.379 186.652C282.913 186.327 288.514 183.723 289.76 183.154C292.275 182.002 300.95 178.455 301.766 178.154C302.036 178.056 302.055 178.203 301.846 178.301C300.564 178.926 295.539 181.224 294.293 181.794C291.778 182.939 282.759 186.64 282.41 186.738C282.348 186.756 282.324 186.683 282.373 186.652H282.379Z" fill="#111111"/>
<path d="M270.065 95.4641C271.121 96.9958 271.906 98.7112 272.458 100.488C273.016 102.265 273.323 104.127 273.342 106.002C273.354 106.939 273.28 107.877 273.139 108.802C273.096 109.034 273.072 109.267 273.016 109.494L272.943 109.837C272.918 109.96 272.881 110.07 272.9 110.131C272.955 110.56 273.072 111.026 273.17 111.473C273.599 113.274 274.072 115.069 274.55 116.864C276.483 124.038 278.434 131.207 280.489 138.344L282.035 143.692C282.299 144.581 282.569 145.469 282.851 146.351C282.992 146.786 283.133 147.24 283.299 147.644C283.502 148.048 283.692 148.459 283.919 148.869C285.673 152.135 287.563 155.339 289.397 158.568C289.397 158.568 298.735 174.227 300.656 177.842C300.748 178.007 300.698 178.118 300.527 177.891C298.858 175.722 292.778 165.203 288.986 158.807C287.091 155.609 285.219 152.404 283.428 149.133C283.201 148.728 282.992 148.293 282.784 147.871C282.594 147.417 282.459 146.976 282.305 146.535C282.017 145.647 281.747 144.758 281.477 143.87C280.943 142.087 280.416 140.304 279.906 138.515C277.9 131.354 275.925 124.192 274.115 116.981C273.667 115.179 273.219 113.372 272.814 111.552C272.716 111.093 272.612 110.652 272.556 110.156C272.544 109.978 272.593 109.868 272.612 109.764L272.685 109.427C272.74 109.2 272.771 108.973 272.814 108.747C272.967 107.84 273.047 106.921 273.066 105.996C273.108 102.308 272.029 98.6071 270.065 95.458V95.4641Z" fill="#111111"/>
<path d="M245.586 39.7859C247.175 37.225 250.47 36.11 253.881 36.1774C257.292 36.2448 261.501 37.1515 262.795 42.3284C263.851 46.5313 263.2 50.9179 264.072 55.6598C264.937 60.4018 272.612 71.0069 264.593 78.1995C257.39 84.6569 240.132 82.825 237.77 72.4711C235.899 64.2677 244.832 54.8573 245.335 51.3896C245.838 47.9281 243.844 42.5858 245.586 39.7798V39.7859Z" fill="#111111"/>
<path d="M244.936 44.7117C245.292 47.0888 245.365 49.5455 244.727 51.9594C244.574 52.5598 244.31 53.1602 243.985 53.7055C243.672 54.2508 243.328 54.7715 242.985 55.2923C242.291 56.3277 241.598 57.3508 240.966 58.3984C239.69 60.4937 238.647 62.6993 238.058 65.0274C237.463 67.3493 237.353 69.7693 237.702 72.1526C237.383 70.9885 237.224 69.7816 237.181 68.5685C237.156 67.3555 237.279 66.1363 237.518 64.9294C237.997 62.5155 239.058 60.218 240.34 58.0799C240.991 57.0138 241.702 55.9784 242.402 54.9553C243.107 53.926 243.831 52.9397 244.181 51.8185C244.561 50.6912 244.746 49.4965 244.838 48.308C244.96 47.1133 244.966 45.9125 244.936 44.7056V44.7117Z" fill="#111111"/>
<path d="M263.2 45.9492C263.569 48.3754 263.839 50.8137 264.329 53.197C264.587 54.3855 264.869 55.568 265.28 56.7136C265.673 57.8409 266.244 58.9437 266.759 60.071C267.268 61.1983 267.759 62.3439 268.176 63.5141C268.575 64.6904 268.9 65.8973 269.072 67.1288C269.225 68.3663 269.219 69.6223 268.998 70.8599C268.722 72.0913 268.188 73.2553 267.428 74.2785C268.047 73.1757 268.495 72.0178 268.649 70.8108C268.79 69.61 268.734 68.397 268.52 67.2084C268.06 64.8374 267.127 62.5645 266.09 60.3405C265.593 59.2194 265.023 58.1166 264.624 56.9097C264.243 55.7211 263.961 54.5142 263.777 53.295C263.391 50.8566 263.262 48.406 263.194 45.9492H263.2Z" fill="#111111"/>
<path d="M252.125 64.2615C249.561 67.7721 233.824 80.6195 224.468 79.2839C219.394 78.561 216.235 67.9559 215.167 64.2983L216.057 39.063C219.903 43.2964 228.511 64.5066 229.916 64.5066C234.131 64.5066 240.395 61.523 249.15 59.8443C253.653 58.9804 254.101 61.5597 252.125 64.2615Z" fill="#E37E4C"/>
<path d="M252.457 65.4318C249.304 69.9777 238.905 77.3418 238.905 77.3418L237.512 74.1622L232.904 63.649C232.904 63.649 242.402 60.7817 248.647 59.5258C249.488 59.3542 250.236 59.2562 250.88 59.2378C254.856 59.0724 255.175 61.5292 252.451 65.4379L252.457 65.4318Z" fill="#97C233"/>
<path d="M233.174 63.8204C233.174 63.9001 233.131 63.9675 233.07 63.9981L232.91 63.6428C232.91 63.6428 232.941 63.6305 233.002 63.6183C233.1 63.6305 233.174 63.7224 233.174 63.8204Z" fill="white"/>
<path d="M236.941 63.8204C236.941 63.9369 236.843 64.0349 236.726 64.0349C236.61 64.0349 236.512 63.9369 236.512 63.8204C236.512 63.704 236.61 63.606 236.726 63.606C236.843 63.606 236.941 63.704 236.941 63.8204Z" fill="white"/>
<path d="M240.708 63.8204C240.708 63.9369 240.61 64.0349 240.493 64.0349C240.376 64.0349 240.278 63.9369 240.278 63.8204C240.278 63.704 240.376 63.606 240.493 63.606C240.61 63.606 240.708 63.704 240.708 63.8204Z" fill="white"/>
<path d="M244.475 63.8204C244.475 63.9369 244.377 64.0349 244.261 64.0349C244.144 64.0349 244.046 63.9369 244.046 63.8204C244.046 63.704 244.144 63.606 244.261 63.606C244.377 63.606 244.475 63.704 244.475 63.8204Z" fill="white"/>
<path d="M248.242 63.8204C248.242 63.9369 248.144 64.0349 248.027 64.0349C247.911 64.0349 247.812 63.9369 247.812 63.8204C247.812 63.704 247.911 63.606 248.027 63.606C248.144 63.606 248.242 63.704 248.242 63.8204Z" fill="white"/>
<path d="M252.009 63.8204C252.009 63.9369 251.91 64.0349 251.794 64.0349C251.677 64.0349 251.579 63.9369 251.579 63.8204C251.579 63.704 251.677 63.606 251.794 63.606C251.91 63.606 252.009 63.704 252.009 63.8204Z" fill="white"/>
<path d="M242.592 61.088C242.592 61.2044 242.493 61.3024 242.377 61.3024C242.254 61.3024 242.162 61.2044 242.162 61.088C242.162 61.0757 242.162 61.0635 242.168 61.0512C242.297 61.0145 242.42 60.9838 242.542 60.9532C242.573 60.99 242.592 61.0329 242.592 61.088Z" fill="white"/>
<path d="M246.358 61.088C246.358 61.2044 246.26 61.3024 246.143 61.3024C246.027 61.3024 245.929 61.2044 245.929 61.088C245.929 60.9716 246.027 60.8736 246.143 60.8736C246.26 60.8736 246.358 60.9716 246.358 61.088Z" fill="white"/>
<path d="M250.126 61.088C250.126 61.2044 250.028 61.3024 249.911 61.3024C249.794 61.3024 249.696 61.2044 249.696 61.088C249.696 60.9716 249.794 60.8736 249.911 60.8736C250.028 60.8736 250.126 60.9716 250.126 61.088Z" fill="white"/>
<path d="M253.892 61.088C253.892 61.2044 253.794 61.3024 253.678 61.3024C253.561 61.3024 253.463 61.2044 253.463 61.088C253.463 60.9716 253.561 60.8736 253.678 60.8736C253.794 60.8736 253.892 60.9716 253.892 61.088Z" fill="white"/>
<path d="M236.941 69.3037C236.941 69.4201 236.843 69.5182 236.726 69.5182C236.61 69.5182 236.512 69.4201 236.512 69.3037C236.512 69.1873 236.61 69.0893 236.726 69.0893C236.843 69.0893 236.941 69.1873 236.941 69.3037Z" fill="white"/>
<path d="M240.708 69.3037C240.708 69.4201 240.61 69.5182 240.493 69.5182C240.376 69.5182 240.278 69.4201 240.278 69.3037C240.278 69.1873 240.376 69.0893 240.493 69.0893C240.61 69.0893 240.708 69.1873 240.708 69.3037Z" fill="white"/>
<path d="M244.475 69.3037C244.475 69.4201 244.377 69.5182 244.261 69.5182C244.144 69.5182 244.046 69.4201 244.046 69.3037C244.046 69.1873 244.144 69.0893 244.261 69.0893C244.377 69.0893 244.475 69.1873 244.475 69.3037Z" fill="white"/>
<path d="M248.242 69.3037C248.242 69.4201 248.144 69.5182 248.027 69.5182C247.911 69.5182 247.812 69.4201 247.812 69.3037C247.812 69.1873 247.911 69.0893 248.027 69.0893C248.144 69.0893 248.242 69.1873 248.242 69.3037Z" fill="white"/>
<path d="M235.057 66.5651C235.057 66.6815 234.959 66.7796 234.843 66.7796C234.726 66.7796 234.628 66.6815 234.628 66.5651C234.628 66.4487 234.726 66.3507 234.843 66.3507C234.959 66.3507 235.057 66.4487 235.057 66.5651Z" fill="white"/>
<path d="M238.825 66.5651C238.825 66.6815 238.727 66.7796 238.61 66.7796C238.494 66.7796 238.396 66.6815 238.396 66.5651C238.396 66.4487 238.494 66.3507 238.61 66.3507C238.727 66.3507 238.825 66.4487 238.825 66.5651Z" fill="white"/>
<path d="M242.592 66.5651C242.592 66.6815 242.493 66.7796 242.377 66.7796C242.26 66.7796 242.162 66.6815 242.162 66.5651C242.162 66.4487 242.26 66.3507 242.377 66.3507C242.493 66.3507 242.592 66.4487 242.592 66.5651Z" fill="white"/>
<path d="M246.358 66.5651C246.358 66.6815 246.26 66.7796 246.143 66.7796C246.027 66.7796 245.929 66.6815 245.929 66.5651C245.929 66.4487 246.027 66.3507 246.143 66.3507C246.26 66.3507 246.358 66.4487 246.358 66.5651Z" fill="white"/>
<path d="M250.126 66.5651C250.126 66.6815 250.028 66.7796 249.911 66.7796C249.794 66.7796 249.696 66.6815 249.696 66.5651C249.696 66.4487 249.794 66.3507 249.911 66.3507C250.028 66.3507 250.126 66.4487 250.126 66.5651Z" fill="white"/>
<path d="M240.708 74.7809C240.708 74.8973 240.61 74.9953 240.493 74.9953C240.376 74.9953 240.278 74.8973 240.278 74.7809C240.278 74.6645 240.376 74.5664 240.493 74.5664C240.61 74.5664 240.708 74.6645 240.708 74.7809Z" fill="white"/>
<path d="M238.825 72.0423C238.825 72.1587 238.727 72.2567 238.61 72.2567C238.494 72.2567 238.396 72.1587 238.396 72.0423C238.396 71.9259 238.494 71.8279 238.61 71.8279C238.727 71.8279 238.825 71.9259 238.825 72.0423Z" fill="white"/>
<path d="M242.592 72.0423C242.592 72.1587 242.493 72.2567 242.377 72.2567C242.26 72.2567 242.162 72.1587 242.162 72.0423C242.162 71.9259 242.26 71.8279 242.377 71.8279C242.493 71.8279 242.592 71.9259 242.592 72.0423Z" fill="white"/>
<path d="M252.457 65.4317C249.304 69.9776 238.904 77.3418 238.904 77.3418L237.512 74.1621C241.408 69.751 247.42 63.073 250.88 59.2316C254.856 59.0662 255.175 61.523 252.451 65.4317H252.457Z" fill="#111111"/>
<path d="M240.788 75.2526C240.027 73.3227 236.622 65.5236 235.769 63.8817C235.708 63.7653 235.622 63.7776 235.671 63.9001C237.818 69.7387 239.867 73.4146 240.708 75.271C240.726 75.32 240.806 75.2955 240.788 75.2465V75.2526Z" fill="#111111"/>
<path d="M206.296 40.4292C205.369 42.212 208.001 42.2794 208.001 42.2794C208.001 42.2794 204.185 43.0881 203.946 45.2998C203.719 47.4257 206.903 47.4012 207.13 47.4012C206.928 47.4441 203.443 48.2835 203.431 50.5258C203.418 52.8539 206.609 52.278 206.811 52.2412C206.633 52.3454 204.32 53.73 204.695 55.4332C205.339 58.3617 211.364 54.9859 213.676 55.7395L212.861 59.538C212.861 59.6666 212.848 59.8014 212.848 59.9239L214.775 60.4324C215.364 59.4093 216.308 58.3126 217.204 57.2344C218.278 55.9417 219.272 54.6857 219.487 53.6565C219.836 51.9594 218.456 51.2426 218.456 51.2426C218.456 51.2426 220.431 50.4523 220.505 48.6878C220.536 47.7811 219.118 46.9234 219.118 46.9234C219.118 46.9234 220.677 46.2249 220.64 44.6504C220.615 43.3945 219.192 42.7267 219.192 42.7267C219.192 42.7267 220.376 41.3604 219.928 40.0861C219.039 37.513 208.29 36.6307 206.308 40.4415L206.296 40.4292Z" fill="#E37E4C"/>
<path d="M213.774 56.2603L212.854 59.5318C212.854 59.6605 212.842 59.7953 212.842 59.9178C212.83 64.2615 217.161 67.7659 218.069 64.7823C218.762 62.5155 216.149 59.4461 217.198 57.2221L213.774 56.2603Z" fill="#E37E4C"/>
<path d="M218.972 42.5735C219.008 42.5735 219.021 42.5306 218.99 42.5184C215.524 41.3666 211.37 41.1583 207.867 42.2611C207.75 42.2978 207.762 42.5 207.897 42.4816C211.726 42.0344 215.155 41.9425 218.978 42.5735H218.972Z" fill="#111111"/>
<path d="M219.161 46.8927C219.204 46.8989 219.217 46.8315 219.174 46.8192C215.597 45.649 210.91 45.5449 207.02 47.291C206.885 47.3522 206.83 47.536 206.983 47.4809C209.658 46.519 215.726 46.3107 219.161 46.8927Z" fill="#111111"/>
<path d="M206.578 52.4495C210.37 50.9179 214.272 50.7586 218.302 51.1691C218.358 51.1691 218.358 51.1017 218.315 51.0833C216.394 50.3481 213.799 50.3542 211.781 50.5258C209.848 50.6912 208.136 51.2365 206.523 52.3147C206.462 52.3576 206.498 52.4802 206.578 52.4495Z" fill="#111111"/>
<path d="M213.1 57.5652C213.309 56.9097 213.481 56.2847 213.677 55.6292C213.695 55.5679 213.794 55.5986 213.787 55.6598C213.671 56.6156 213.444 57.5346 213.303 58.4842C213.156 59.4522 213.156 60.4631 213.346 61.4249C213.511 62.2643 213.83 63.0914 214.303 63.8082C214.787 64.5434 215.493 65.3888 216.413 65.5481C217.383 65.7135 217.99 64.96 218.07 64.0655C218.15 63.171 217.696 62.3194 217.377 61.5107C217.045 60.6652 216.714 59.7156 216.659 58.8028C216.604 57.9267 216.947 57.2221 217.419 56.5114C217.732 56.0397 218.058 55.5741 218.377 55.1084C218.647 54.7163 218.959 54.3304 219.125 53.8831C219.45 53.0132 219.205 51.7388 218.346 51.2487C218.272 51.2058 218.34 51.1017 218.407 51.1507C219.119 51.6531 219.591 52.1861 219.8 53.0499C220.021 53.9383 219.561 54.7408 219.076 55.4454C218.751 55.9172 218.42 56.3828 218.094 56.8545C217.751 57.3446 217.389 57.8593 217.364 58.4781C217.309 59.6176 217.861 60.7939 218.266 61.8354C218.61 62.7176 218.904 63.6611 218.647 64.6046C218.432 65.3949 217.861 66.0627 217.021 66.1791C215.07 66.461 213.628 64.188 213.094 62.6135C212.726 61.5352 212.603 60.3773 212.744 59.2439C212.812 58.6741 212.941 58.1105 213.113 57.5652H213.1Z" fill="#111111"/>
<path d="M210.394 55.9601C210.811 55.7395 211.296 55.6292 211.756 55.5312C212.222 55.4332 212.713 55.4025 213.192 55.4148C213.633 55.427 214.087 55.5067 214.498 55.6844C214.891 55.8559 215.192 56.1316 215.449 56.4686C215.486 56.5114 215.431 56.5788 215.382 56.5543C215.026 56.395 214.646 56.297 214.278 56.1867C213.885 56.0703 213.486 55.9784 213.075 55.9294C212.633 55.8804 212.204 55.8988 211.762 55.9294C211.314 55.9601 210.873 56.052 210.425 56.0581C210.363 56.0581 210.345 55.9907 210.4 55.9601H210.394Z" fill="#111111"/>
<path d="M218.56 51.0956C218.627 51.0588 218.701 51.0282 218.762 50.9914C218.897 50.9118 219.032 50.8199 219.155 50.7218C219.284 50.6177 219.413 50.5135 219.535 50.3971C219.597 50.3359 219.664 50.2807 219.732 50.2317C219.762 50.2072 219.805 50.1827 219.836 50.1521C219.873 50.1153 219.903 50.0724 219.934 50.0295C219.983 49.9744 220.069 50.0479 220.026 50.1031C219.989 50.1398 219.952 50.1827 219.928 50.2256C219.903 50.2623 219.885 50.3114 219.86 50.3481C219.818 50.4278 219.768 50.5074 219.713 50.5809C219.597 50.7341 219.48 50.875 219.333 50.9975C219.192 51.1078 219.044 51.1936 218.873 51.2487C218.787 51.2732 218.707 51.2916 218.621 51.2916C218.554 51.2916 218.456 51.2916 218.4 51.2487C218.388 51.2365 218.382 51.212 218.4 51.1997C218.443 51.1507 218.517 51.1323 218.572 51.1017L218.56 51.0956Z" fill="#111111"/>
<path d="M242.948 82.0715L241.469 97.4369C241.469 97.4369 267.44 96.5424 273.6 95.8072C273.6 95.8072 266.121 67.576 259.12 60.6959C255.617 57.2527 251.728 57.7122 249.366 60.3528C248.764 61.0206 241.739 71.301 241.132 75.1239C240.604 78.4997 242.948 82.0715 242.948 82.0715Z" fill="#97C233"/>
<path d="M255.679 58.521C255.648 58.5455 255.605 58.5577 255.562 58.5577C255.476 58.5577 255.403 58.5087 255.372 58.4352C255.47 58.4597 255.575 58.4903 255.679 58.521Z" fill="white"/>
<path d="M248.243 63.8204C248.243 63.9368 248.145 64.0348 248.028 64.0348C247.912 64.0348 247.813 63.9368 247.813 63.8204C247.813 63.704 247.912 63.606 248.028 63.606C248.145 63.606 248.243 63.704 248.243 63.8204Z" fill="white"/>
<path d="M252.011 63.8204C252.011 63.9368 251.912 64.0348 251.796 64.0348C251.679 64.0348 251.581 63.9368 251.581 63.8204C251.581 63.704 251.679 63.606 251.796 63.606C251.912 63.606 252.011 63.704 252.011 63.8204Z" fill="white"/>
<path d="M255.777 63.8204C255.777 63.9368 255.679 64.0348 255.562 64.0348C255.446 64.0348 255.348 63.9368 255.348 63.8204C255.348 63.704 255.446 63.606 255.562 63.606C255.679 63.606 255.777 63.704 255.777 63.8204Z" fill="white"/>
<path d="M259.544 63.8204C259.544 63.9368 259.446 64.0348 259.329 64.0348C259.212 64.0348 259.114 63.9368 259.114 63.8204C259.114 63.704 259.212 63.606 259.329 63.606C259.446 63.606 259.544 63.704 259.544 63.8204Z" fill="white"/>
<path d="M250.127 61.088C250.127 61.2044 250.029 61.3024 249.912 61.3024C249.795 61.3024 249.697 61.2044 249.697 61.088C249.697 60.9716 249.795 60.8736 249.912 60.8736C250.029 60.8736 250.127 60.9716 250.127 61.088Z" fill="white"/>
<path d="M253.893 61.088C253.893 61.2044 253.795 61.3024 253.679 61.3024C253.562 61.3024 253.464 61.2044 253.464 61.088C253.464 60.9716 253.562 60.8736 253.679 60.8736C253.795 60.8736 253.893 60.9716 253.893 61.088Z" fill="white"/>
<path d="M257.661 61.088C257.661 61.2044 257.563 61.3024 257.446 61.3024C257.33 61.3024 257.231 61.2044 257.231 61.088C257.231 60.9716 257.33 60.8736 257.446 60.8736C257.563 60.8736 257.661 60.9716 257.661 61.088Z" fill="white"/>
<path d="M244.476 69.3037C244.476 69.4201 244.378 69.5181 244.262 69.5181C244.145 69.5181 244.047 69.4201 244.047 69.3037C244.047 69.1873 244.145 69.0893 244.262 69.0893C244.378 69.0893 244.476 69.1873 244.476 69.3037Z" fill="white"/>
<path d="M248.243 69.3037C248.243 69.4201 248.145 69.5181 248.028 69.5181C247.912 69.5181 247.813 69.4201 247.813 69.3037C247.813 69.1873 247.912 69.0893 248.028 69.0893C248.145 69.0893 248.243 69.1873 248.243 69.3037Z" fill="white"/>
<path d="M252.011 69.3037C252.011 69.4201 251.912 69.5181 251.796 69.5181C251.679 69.5181 251.581 69.4201 251.581 69.3037C251.581 69.1873 251.679 69.0893 251.796 69.0893C251.912 69.0893 252.011 69.1873 252.011 69.3037Z" fill="white"/>
<path d="M255.777 69.3037C255.777 69.4201 255.679 69.5181 255.562 69.5181C255.446 69.5181 255.348 69.4201 255.348 69.3037C255.348 69.1873 255.446 69.0893 255.562 69.0893C255.679 69.0893 255.777 69.1873 255.777 69.3037Z" fill="white"/>
<path d="M259.544 69.3037C259.544 69.4201 259.446 69.5181 259.329 69.5181C259.212 69.5181 259.114 69.4201 259.114 69.3037C259.114 69.1873 259.212 69.0893 259.329 69.0893C259.446 69.0893 259.544 69.1873 259.544 69.3037Z" fill="white"/>
<path d="M263.317 69.3037C263.317 69.4201 263.219 69.5181 263.102 69.5181C262.986 69.5181 262.888 69.4201 262.888 69.3037C262.888 69.1873 262.986 69.0893 263.102 69.0893C263.219 69.0893 263.317 69.1873 263.317 69.3037Z" fill="white"/>
<path d="M246.359 66.5651C246.359 66.6815 246.261 66.7796 246.144 66.7796C246.028 66.7796 245.93 66.6815 245.93 66.5651C245.93 66.4487 246.028 66.3507 246.144 66.3507C246.261 66.3507 246.359 66.4487 246.359 66.5651Z" fill="white"/>
<path d="M250.127 66.5651C250.127 66.6815 250.029 66.7796 249.912 66.7796C249.795 66.7796 249.697 66.6815 249.697 66.5651C249.697 66.4487 249.795 66.3507 249.912 66.3507C250.029 66.3507 250.127 66.4487 250.127 66.5651Z" fill="white"/>
<path d="M253.893 66.5651C253.893 66.6815 253.795 66.7796 253.679 66.7796C253.562 66.7796 253.464 66.6815 253.464 66.5651C253.464 66.4487 253.562 66.3507 253.679 66.3507C253.795 66.3507 253.893 66.4487 253.893 66.5651Z" fill="white"/>
<path d="M257.661 66.5651C257.661 66.6815 257.563 66.7796 257.446 66.7796C257.33 66.7796 257.231 66.6815 257.231 66.5651C257.231 66.4487 257.33 66.3507 257.446 66.3507C257.563 66.3507 257.661 66.4487 257.661 66.5651Z" fill="white"/>
<path d="M261.427 66.5651C261.427 66.6815 261.329 66.7796 261.213 66.7796C261.096 66.7796 260.998 66.6815 260.998 66.5651C260.998 66.4487 261.096 66.3507 261.213 66.3507C261.329 66.3507 261.427 66.4487 261.427 66.5651Z" fill="white"/>
<path d="M244.476 74.7809C244.476 74.8973 244.378 74.9953 244.262 74.9953C244.145 74.9953 244.047 74.8973 244.047 74.7809C244.047 74.6645 244.145 74.5664 244.262 74.5664C244.378 74.5664 244.476 74.6645 244.476 74.7809Z" fill="white"/>
<path d="M248.243 74.7809C248.243 74.8973 248.145 74.9953 248.028 74.9953C247.912 74.9953 247.813 74.8973 247.813 74.7809C247.813 74.6645 247.912 74.5664 248.028 74.5664C248.145 74.5664 248.243 74.6645 248.243 74.7809Z" fill="white"/>
<path d="M252.011 74.7809C252.011 74.8973 251.912 74.9953 251.796 74.9953C251.679 74.9953 251.581 74.8973 251.581 74.7809C251.581 74.6645 251.679 74.5664 251.796 74.5664C251.912 74.5664 252.011 74.6645 252.011 74.7809Z" fill="white"/>
<path d="M255.777 74.7809C255.777 74.8973 255.679 74.9953 255.562 74.9953C255.446 74.9953 255.348 74.8973 255.348 74.7809C255.348 74.6645 255.446 74.5664 255.562 74.5664C255.679 74.5664 255.777 74.6645 255.777 74.7809Z" fill="white"/>
<path d="M259.544 74.7809C259.544 74.8973 259.446 74.9953 259.329 74.9953C259.212 74.9953 259.114 74.8973 259.114 74.7809C259.114 74.6645 259.212 74.5664 259.329 74.5664C259.446 74.5664 259.544 74.6645 259.544 74.7809Z" fill="white"/>
<path d="M263.317 74.7809C263.317 74.8973 263.219 74.9953 263.102 74.9953C262.986 74.9953 262.888 74.8973 262.888 74.7809C262.888 74.6645 262.986 74.5664 263.102 74.5664C263.219 74.5664 263.317 74.6645 263.317 74.7809Z" fill="white"/>
<path d="M266.845 74.9892C266.734 74.983 266.648 74.8911 266.648 74.7809C266.648 74.7257 266.673 74.6706 266.704 74.6338C266.753 74.7564 266.796 74.8728 266.845 74.9892Z" fill="white"/>
<path d="M242.593 72.0423C242.593 72.1648 242.495 72.2628 242.378 72.2628C242.286 72.2628 242.212 72.2077 242.182 72.1342C242.231 72.03 242.274 71.9381 242.317 71.8401C242.335 71.834 242.353 71.8279 242.378 71.8279C242.495 71.8279 242.593 71.9259 242.593 72.0423Z" fill="white"/>
<path d="M246.359 72.0423C246.359 72.1587 246.261 72.2567 246.144 72.2567C246.028 72.2567 245.93 72.1587 245.93 72.0423C245.93 71.9259 246.028 71.8279 246.144 71.8279C246.261 71.8279 246.359 71.9259 246.359 72.0423Z" fill="white"/>
<path d="M250.127 72.0423C250.127 72.1587 250.029 72.2567 249.912 72.2567C249.795 72.2567 249.697 72.1587 249.697 72.0423C249.697 71.9259 249.795 71.8279 249.912 71.8279C250.029 71.8279 250.127 71.9259 250.127 72.0423Z" fill="white"/>
<path d="M253.893 72.0423C253.893 72.1587 253.795 72.2567 253.679 72.2567C253.562 72.2567 253.464 72.1587 253.464 72.0423C253.464 71.9259 253.562 71.8279 253.679 71.8279C253.795 71.8279 253.893 71.9259 253.893 72.0423Z" fill="white"/>
<path d="M257.661 72.0423C257.661 72.1587 257.563 72.2567 257.446 72.2567C257.33 72.2567 257.231 72.1587 257.231 72.0423C257.231 71.9259 257.33 71.8279 257.446 71.8279C257.563 71.8279 257.661 71.9259 257.661 72.0423Z" fill="white"/>
<path d="M261.427 72.0423C261.427 72.1587 261.329 72.2567 261.213 72.2567C261.096 72.2567 260.998 72.1587 260.998 72.0423C260.998 71.9259 261.096 71.8279 261.213 71.8279C261.329 71.8279 261.427 71.9259 261.427 72.0423Z" fill="white"/>
<path d="M265.201 72.0423C265.201 72.1587 265.103 72.2567 264.986 72.2567C264.87 72.2567 264.771 72.1587 264.771 72.0423C264.771 71.9259 264.87 71.8279 264.986 71.8279C265.103 71.8279 265.201 71.9259 265.201 72.0423Z" fill="white"/>
<path d="M244.476 80.258C244.476 80.3744 244.378 80.4724 244.262 80.4724C244.145 80.4724 244.047 80.3744 244.047 80.258C244.047 80.1416 244.145 80.0436 244.262 80.0436C244.378 80.0436 244.476 80.1416 244.476 80.258Z" fill="white"/>
<path d="M248.243 80.258C248.243 80.3744 248.145 80.4724 248.028 80.4724C247.912 80.4724 247.813 80.3744 247.813 80.258C247.813 80.1416 247.912 80.0436 248.028 80.0436C248.145 80.0436 248.243 80.1416 248.243 80.258Z" fill="white"/>
<path d="M252.011 80.258C252.011 80.3744 251.912 80.4724 251.796 80.4724C251.679 80.4724 251.581 80.3744 251.581 80.258C251.581 80.1416 251.679 80.0436 251.796 80.0436C251.912 80.0436 252.011 80.1416 252.011 80.258Z" fill="white"/>
<path d="M255.777 80.258C255.777 80.3744 255.679 80.4724 255.562 80.4724C255.446 80.4724 255.348 80.3744 255.348 80.258C255.348 80.1416 255.446 80.0436 255.562 80.0436C255.679 80.0436 255.777 80.1416 255.777 80.258Z" fill="white"/>
<path d="M259.544 80.258C259.544 80.3744 259.446 80.4724 259.329 80.4724C259.212 80.4724 259.114 80.3744 259.114 80.258C259.114 80.1416 259.212 80.0436 259.329 80.0436C259.446 80.0436 259.544 80.1416 259.544 80.258Z" fill="white"/>
<path d="M263.317 80.258C263.317 80.3744 263.219 80.4724 263.102 80.4724C262.986 80.4724 262.888 80.3744 262.888 80.258C262.888 80.1416 262.986 80.0436 263.102 80.0436C263.219 80.0436 263.317 80.1416 263.317 80.258Z" fill="white"/>
<path d="M267.085 80.258C267.085 80.3744 266.987 80.4724 266.87 80.4724C266.753 80.4724 266.655 80.3744 266.655 80.258C266.655 80.1416 266.753 80.0436 266.87 80.0436C266.987 80.0436 267.085 80.1416 267.085 80.258Z" fill="white"/>
<path d="M242.593 77.5256C242.593 77.642 242.494 77.74 242.378 77.74C242.261 77.74 242.163 77.642 242.163 77.5256C242.163 77.4092 242.261 77.3111 242.378 77.3111C242.494 77.3111 242.593 77.4092 242.593 77.5256Z" fill="white"/>
<path d="M246.359 77.5256C246.359 77.642 246.261 77.74 246.144 77.74C246.028 77.74 245.93 77.642 245.93 77.5256C245.93 77.4092 246.028 77.3111 246.144 77.3111C246.261 77.3111 246.359 77.4092 246.359 77.5256Z" fill="white"/>
<path d="M250.127 77.5256C250.127 77.642 250.029 77.74 249.912 77.74C249.795 77.74 249.697 77.642 249.697 77.5256C249.697 77.4092 249.795 77.3111 249.912 77.3111C250.029 77.3111 250.127 77.4092 250.127 77.5256Z" fill="white"/>
<path d="M253.893 77.5256C253.893 77.642 253.795 77.74 253.679 77.74C253.562 77.74 253.464 77.642 253.464 77.5256C253.464 77.4092 253.562 77.3111 253.679 77.3111C253.795 77.3111 253.893 77.4092 253.893 77.5256Z" fill="white"/>
<path d="M257.661 77.5256C257.661 77.642 257.563 77.74 257.446 77.74C257.33 77.74 257.231 77.642 257.231 77.5256C257.231 77.4092 257.33 77.3111 257.446 77.3111C257.563 77.3111 257.661 77.4092 257.661 77.5256Z" fill="white"/>
<path d="M261.427 77.5256C261.427 77.642 261.329 77.74 261.213 77.74C261.096 77.74 260.998 77.642 260.998 77.5256C260.998 77.4092 261.096 77.3111 261.213 77.3111C261.329 77.3111 261.427 77.4092 261.427 77.5256Z" fill="white"/>
<path d="M265.201 77.5256C265.201 77.642 265.103 77.74 264.986 77.74C264.87 77.74 264.771 77.642 264.771 77.5256C264.771 77.4092 264.87 77.3111 264.986 77.3111C265.103 77.3111 265.201 77.4092 265.201 77.5256Z" fill="white"/>
<path d="M244.476 85.7413C244.476 85.8577 244.378 85.9557 244.262 85.9557C244.145 85.9557 244.047 85.8577 244.047 85.7413C244.047 85.6249 244.145 85.5269 244.262 85.5269C244.378 85.5269 244.476 85.6249 244.476 85.7413Z" fill="white"/>
<path d="M248.243 85.7413C248.243 85.8577 248.145 85.9557 248.028 85.9557C247.912 85.9557 247.813 85.8577 247.813 85.7413C247.813 85.6249 247.912 85.5269 248.028 85.5269C248.145 85.5269 248.243 85.6249 248.243 85.7413Z" fill="white"/>
<path d="M252.011 85.7413C252.011 85.8577 251.912 85.9557 251.796 85.9557C251.679 85.9557 251.581 85.8577 251.581 85.7413C251.581 85.6249 251.679 85.5269 251.796 85.5269C251.912 85.5269 252.011 85.6249 252.011 85.7413Z" fill="white"/>
<path d="M255.777 85.7413C255.777 85.8577 255.679 85.9557 255.562 85.9557C255.446 85.9557 255.348 85.8577 255.348 85.7413C255.348 85.6249 255.446 85.5269 255.562 85.5269C255.679 85.5269 255.777 85.6249 255.777 85.7413Z" fill="white"/>
<path d="M259.544 85.7413C259.544 85.8577 259.446 85.9557 259.329 85.9557C259.212 85.9557 259.114 85.8577 259.114 85.7413C259.114 85.6249 259.212 85.5269 259.329 85.5269C259.446 85.5269 259.544 85.6249 259.544 85.7413Z" fill="white"/>
<path d="M263.317 85.7413C263.317 85.8577 263.219 85.9557 263.102 85.9557C262.986 85.9557 262.888 85.8577 262.888 85.7413C262.888 85.6249 262.986 85.5269 263.102 85.5269C263.219 85.5269 263.317 85.6249 263.317 85.7413Z" fill="white"/>
<path d="M267.085 85.7413C267.085 85.8577 266.987 85.9557 266.87 85.9557C266.753 85.9557 266.655 85.8577 266.655 85.7413C266.655 85.6249 266.753 85.5269 266.87 85.5269C266.987 85.5269 267.085 85.6249 267.085 85.7413Z" fill="white"/>
<path d="M270.68 85.9435C270.68 85.9435 270.649 85.9557 270.631 85.9557C270.514 85.9557 270.416 85.8577 270.416 85.7413C270.416 85.6494 270.471 85.5759 270.551 85.5452C270.551 85.5391 270.557 85.5452 270.557 85.5452C270.6 85.68 270.643 85.8087 270.68 85.9435Z" fill="white"/>
<path d="M246.359 83.0027C246.359 83.1191 246.261 83.2171 246.144 83.2171C246.028 83.2171 245.93 83.1191 245.93 83.0027C245.93 82.8863 246.028 82.7883 246.144 82.7883C246.261 82.7883 246.359 82.8863 246.359 83.0027Z" fill="white"/>
<path d="M250.127 83.0027C250.127 83.1191 250.029 83.2171 249.912 83.2171C249.795 83.2171 249.697 83.1191 249.697 83.0027C249.697 82.8863 249.795 82.7883 249.912 82.7883C250.029 82.7883 250.127 82.8863 250.127 83.0027Z" fill="white"/>
<path d="M253.893 83.0027C253.893 83.1191 253.795 83.2171 253.679 83.2171C253.562 83.2171 253.464 83.1191 253.464 83.0027C253.464 82.8863 253.562 82.7883 253.679 82.7883C253.795 82.7883 253.893 82.8863 253.893 83.0027Z" fill="white"/>
<path d="M257.661 83.0027C257.661 83.1191 257.563 83.2171 257.446 83.2171C257.33 83.2171 257.231 83.1191 257.231 83.0027C257.231 82.8863 257.33 82.7883 257.446 82.7883C257.563 82.7883 257.661 82.8863 257.661 83.0027Z" fill="white"/>
<path d="M261.427 83.0027C261.427 83.1191 261.329 83.2171 261.213 83.2171C261.096 83.2171 260.998 83.1191 260.998 83.0027C260.998 82.8863 261.096 82.7883 261.213 82.7883C261.329 82.7883 261.427 82.8863 261.427 83.0027Z" fill="white"/>
<path d="M265.201 83.0027C265.201 83.1191 265.103 83.2171 264.986 83.2171C264.87 83.2171 264.771 83.1191 264.771 83.0027C264.771 82.8863 264.87 82.7883 264.986 82.7883C265.103 82.7883 265.201 82.8863 265.201 83.0027Z" fill="white"/>
<path d="M268.968 83.0027C268.968 83.1191 268.869 83.2171 268.753 83.2171C268.636 83.2171 268.538 83.1191 268.538 83.0027C268.538 82.8863 268.636 82.7883 268.753 82.7883C268.869 82.7883 268.968 82.8863 268.968 83.0027Z" fill="white"/>
<path d="M244.262 91.4329C244.38 91.4329 244.476 91.3369 244.476 91.2184C244.476 91.1 244.38 91.004 244.262 91.004C244.143 91.004 244.047 91.1 244.047 91.2184C244.047 91.3369 244.143 91.4329 244.262 91.4329Z" fill="white"/>
<path d="M248.028 91.4329C248.147 91.4329 248.243 91.3369 248.243 91.2184C248.243 91.1 248.147 91.004 248.028 91.004C247.91 91.004 247.813 91.1 247.813 91.2184C247.813 91.3369 247.91 91.4329 248.028 91.4329Z" fill="white"/>
<path d="M252.011 91.2184C252.011 91.3348 251.912 91.4329 251.796 91.4329C251.679 91.4329 251.581 91.3348 251.581 91.2184C251.581 91.102 251.679 91.004 251.796 91.004C251.912 91.004 252.011 91.102 252.011 91.2184Z" fill="white"/>
<path d="M255.777 91.2184C255.777 91.3348 255.679 91.4329 255.562 91.4329C255.446 91.4329 255.348 91.3348 255.348 91.2184C255.348 91.102 255.446 91.004 255.562 91.004C255.679 91.004 255.777 91.102 255.777 91.2184Z" fill="white"/>
<path d="M259.544 91.2184C259.544 91.3348 259.446 91.4329 259.329 91.4329C259.212 91.4329 259.114 91.3348 259.114 91.2184C259.114 91.102 259.212 91.004 259.329 91.004C259.446 91.004 259.544 91.102 259.544 91.2184Z" fill="white"/>
<path d="M263.317 91.2184C263.317 91.3348 263.219 91.4329 263.102 91.4329C262.986 91.4329 262.888 91.3348 262.888 91.2184C262.888 91.102 262.986 91.004 263.102 91.004C263.219 91.004 263.317 91.102 263.317 91.2184Z" fill="white"/>
<path d="M266.87 91.4329C266.989 91.4329 267.085 91.3369 267.085 91.2184C267.085 91.1 266.989 91.004 266.87 91.004C266.751 91.004 266.655 91.1 266.655 91.2184C266.655 91.3369 266.751 91.4329 266.87 91.4329Z" fill="white"/>
<path d="M270.851 91.2184C270.851 91.3348 270.753 91.4329 270.637 91.4329C270.52 91.4329 270.422 91.3348 270.422 91.2184C270.422 91.102 270.52 91.004 270.637 91.004C270.753 91.004 270.851 91.102 270.851 91.2184Z" fill="white"/>
<path d="M242.593 88.486C242.593 88.6024 242.495 88.7004 242.378 88.7004C242.353 88.7004 242.329 88.6943 242.311 88.6882L242.353 88.2715C242.353 88.2715 242.372 88.2654 242.378 88.2654C242.495 88.2654 242.593 88.3634 242.593 88.486Z" fill="white"/>
<path d="M246.359 88.486C246.359 88.6024 246.261 88.7004 246.144 88.7004C246.028 88.7004 245.93 88.6024 245.93 88.486C245.93 88.3696 246.028 88.2715 246.144 88.2715C246.261 88.2715 246.359 88.3696 246.359 88.486Z" fill="white"/>
<path d="M250.127 88.486C250.127 88.6024 250.029 88.7004 249.912 88.7004C249.795 88.7004 249.697 88.6024 249.697 88.486C249.697 88.3696 249.795 88.2715 249.912 88.2715C250.029 88.2715 250.127 88.3696 250.127 88.486Z" fill="white"/>
<path d="M253.679 88.7004C253.797 88.7004 253.893 88.6044 253.893 88.486C253.893 88.3675 253.797 88.2715 253.679 88.2715C253.56 88.2715 253.464 88.3675 253.464 88.486C253.464 88.6044 253.56 88.7004 253.679 88.7004Z" fill="white"/>
<path d="M257.446 88.7004C257.565 88.7004 257.661 88.6044 257.661 88.486C257.661 88.3675 257.565 88.2715 257.446 88.2715C257.328 88.2715 257.231 88.3675 257.231 88.486C257.231 88.6044 257.328 88.7004 257.446 88.7004Z" fill="white"/>
<path d="M261.427 88.486C261.427 88.6024 261.329 88.7004 261.213 88.7004C261.096 88.7004 260.998 88.6024 260.998 88.486C260.998 88.3696 261.096 88.2715 261.213 88.2715C261.329 88.2715 261.427 88.3696 261.427 88.486Z" fill="white"/>
<path d="M265.201 88.486C265.201 88.6024 265.103 88.7004 264.986 88.7004C264.87 88.7004 264.771 88.6024 264.771 88.486C264.771 88.3696 264.87 88.2715 264.986 88.2715C265.103 88.2715 265.201 88.3696 265.201 88.486Z" fill="white"/>
<path d="M268.968 88.486C268.968 88.6024 268.869 88.7004 268.753 88.7004C268.636 88.7004 268.538 88.6024 268.538 88.486C268.538 88.3696 268.636 88.2715 268.753 88.2715C268.869 88.2715 268.968 88.3696 268.968 88.486Z" fill="white"/>
<path d="M244.262 96.91C244.38 96.91 244.476 96.814 244.476 96.6956C244.476 96.5771 244.38 96.4811 244.262 96.4811C244.143 96.4811 244.047 96.5771 244.047 96.6956C244.047 96.814 244.143 96.91 244.262 96.91Z" fill="white"/>
<path d="M248.028 96.91C248.147 96.91 248.243 96.814 248.243 96.6956C248.243 96.5771 248.147 96.4811 248.028 96.4811C247.91 96.4811 247.813 96.5771 247.813 96.6956C247.813 96.814 247.91 96.91 248.028 96.91Z" fill="white"/>
<path d="M252.011 96.6956C252.011 96.812 251.912 96.91 251.796 96.91C251.679 96.91 251.581 96.812 251.581 96.6956C251.581 96.5792 251.679 96.4811 251.796 96.4811C251.912 96.4811 252.011 96.5792 252.011 96.6956Z" fill="white"/>
<path d="M255.777 96.6956C255.777 96.7752 255.74 96.8426 255.679 96.8794C255.605 96.8794 255.538 96.8794 255.464 96.8794C255.397 96.8487 255.348 96.7752 255.348 96.6895C255.348 96.5731 255.446 96.475 255.562 96.475C255.685 96.475 255.777 96.5731 255.777 96.6895V96.6956Z" fill="white"/>
<path d="M259.544 96.6956C259.403 96.7078 259.262 96.714 259.12 96.7262C259.114 96.7201 259.114 96.7078 259.114 96.6956C259.114 96.5792 259.212 96.4811 259.329 96.4811C259.452 96.4811 259.544 96.5792 259.544 96.6956Z" fill="white"/>
<path d="M263.219 96.524C263.127 96.5302 263.047 96.5302 262.955 96.5363C262.992 96.4995 263.041 96.4811 263.096 96.4811C263.145 96.4811 263.188 96.4934 263.219 96.524Z" fill="white"/>
<path d="M242.593 93.9631C242.593 94.0795 242.494 94.1776 242.378 94.1776C242.261 94.1776 242.163 94.0795 242.163 93.9631C242.163 93.8467 242.261 93.7487 242.378 93.7487C242.494 93.7487 242.593 93.8467 242.593 93.9631Z" fill="white"/>
<path d="M246.359 93.9631C246.359 94.0795 246.261 94.1776 246.144 94.1776C246.028 94.1776 245.93 94.0795 245.93 93.9631C245.93 93.8467 246.028 93.7487 246.144 93.7487C246.261 93.7487 246.359 93.8467 246.359 93.9631Z" fill="white"/>
<path d="M250.127 93.9631C250.127 94.0795 250.029 94.1776 249.912 94.1776C249.795 94.1776 249.697 94.0795 249.697 93.9631C249.697 93.8467 249.795 93.7487 249.912 93.7487C250.029 93.7487 250.127 93.8467 250.127 93.9631Z" fill="white"/>
<path d="M253.679 94.1776C253.797 94.1776 253.893 94.0816 253.893 93.9631C253.893 93.8447 253.797 93.7487 253.679 93.7487C253.56 93.7487 253.464 93.8447 253.464 93.9631C253.464 94.0816 253.56 94.1776 253.679 94.1776Z" fill="white"/>
<path d="M257.446 94.1776C257.565 94.1776 257.661 94.0816 257.661 93.9631C257.661 93.8447 257.565 93.7487 257.446 93.7487C257.328 93.7487 257.231 93.8447 257.231 93.9631C257.231 94.0816 257.328 94.1776 257.446 94.1776Z" fill="white"/>
<path d="M261.427 93.9631C261.427 94.0795 261.329 94.1776 261.213 94.1776C261.096 94.1776 260.998 94.0795 260.998 93.9631C260.998 93.8467 261.096 93.7487 261.213 93.7487C261.329 93.7487 261.427 93.8467 261.427 93.9631Z" fill="white"/>
<path d="M265.201 93.9631C265.201 94.0795 265.103 94.1776 264.986 94.1776C264.87 94.1776 264.771 94.0795 264.771 93.9631C264.771 93.8467 264.87 93.7487 264.986 93.7487C265.103 93.7487 265.201 93.8467 265.201 93.9631Z" fill="white"/>
<path d="M268.968 93.9631C268.968 94.0795 268.869 94.1776 268.753 94.1776C268.636 94.1776 268.538 94.0795 268.538 93.9631C268.538 93.8467 268.636 93.7487 268.753 93.7487C268.869 93.7487 268.968 93.8467 268.968 93.9631Z" fill="white"/>
<path d="M272.735 93.9631C272.735 94.0795 272.637 94.1776 272.52 94.1776C272.404 94.1776 272.306 94.0795 272.306 93.9631C272.306 93.8467 272.404 93.7487 272.52 93.7487C272.637 93.7487 272.735 93.8467 272.735 93.9631Z" fill="white"/>
<path d="M256.096 59.734C255.924 60.2425 253.12 63.4099 250.74 63.0791C249.967 62.9688 250.372 58.717 250.372 58.717L250.329 58.3984L249.746 53.9076L255.225 51.0649L256.01 50.6912C256.01 50.6912 256.09 51.9288 256.17 53.4727C256.17 53.5462 256.176 53.6136 256.182 53.6932C256.188 53.779 256.194 53.8648 256.2 53.9444C256.219 54.1772 256.231 54.41 256.237 54.6428C256.243 54.8205 256.256 54.992 256.256 55.182C256.262 55.3719 256.262 55.5557 256.274 55.7395C256.298 57.5958 256.164 59.5073 256.096 59.7279V59.734Z" fill="#E37E4C"/>
<path d="M256.17 53.4788C254.587 56.8668 251.66 58.0369 250.329 58.3984L249.746 53.9076L255.225 51.0649L256.01 50.6912C256.01 50.6912 256.09 51.9288 256.17 53.4727V53.4788Z" fill="#111111"/>
<path d="M244.39 46.3352C242.954 54.1466 247.476 55.8926 249.163 56.199C250.697 56.4808 255.948 57.2344 258.182 49.6129C260.421 41.9915 257.237 38.8547 253.764 38.0276C250.292 37.2066 245.819 38.5238 244.384 46.3352H244.39Z" fill="#E37E4C"/>
<path d="M245.782 45.1099C245.972 45.1099 246.144 45.0793 246.328 45.0548C246.536 45.0303 246.708 45.0364 246.874 44.8955C246.966 44.822 246.978 44.6443 246.911 44.5524C246.757 44.3318 246.493 44.2951 246.242 44.3135C245.966 44.3318 245.757 44.4176 245.561 44.6014C245.365 44.7852 245.536 45.1099 245.782 45.1038V45.1099Z" fill="#111111"/>
<path d="M251.034 45.8819C250.85 45.839 250.69 45.7716 250.512 45.7103C250.31 45.6429 250.144 45.6062 250.015 45.4346C249.942 45.3427 249.973 45.1712 250.052 45.0915C250.249 44.9077 250.512 44.9322 250.758 45.0058C251.022 45.0854 251.206 45.2141 251.359 45.4407C251.506 45.6613 251.273 45.9431 251.034 45.888V45.8819Z" fill="#111111"/>
<path d="M249.671 47.5238C249.671 47.5238 249.708 47.5544 249.708 47.5789C249.616 48.1119 249.604 48.7368 250.064 48.9819C250.076 48.988 250.07 49.0187 250.058 49.0125C249.475 48.8471 249.5 48.02 249.671 47.5238Z" fill="#111111"/>
<path d="M250.224 47.0275C251.096 47.0765 250.93 48.8165 250.12 48.7675C249.323 48.7184 249.494 46.9846 250.224 47.0275Z" fill="#111111"/>
<path d="M250.561 47.1562C250.702 47.2664 250.837 47.4564 251.015 47.4931C251.224 47.536 251.402 47.3706 251.561 47.2052C251.58 47.1868 251.592 47.2052 251.592 47.2297C251.567 47.5605 251.402 47.8913 251.04 47.9097C250.708 47.922 250.506 47.6034 250.451 47.2664C250.438 47.2052 250.506 47.1194 250.561 47.1623V47.1562Z" fill="#111111"/>
<path d="M246.69 47.0337C246.69 47.0337 246.647 47.0582 246.647 47.0765C246.616 47.6157 246.488 48.2283 245.985 48.3631C245.966 48.3631 245.966 48.3937 245.985 48.3937C246.586 48.3631 246.745 47.5483 246.69 47.0275V47.0337Z" fill="#111111"/>
<path d="M246.261 46.4271C245.402 46.2862 245.175 48.0139 245.972 48.1487C246.758 48.2773 246.979 46.5496 246.261 46.4271Z" fill="#111111"/>
<path d="M245.88 46.4945C245.733 46.568 245.573 46.7151 245.408 46.7089C245.218 46.6967 245.101 46.4945 245.003 46.2985C244.991 46.2801 244.978 46.2923 244.972 46.3168C244.923 46.6477 244.984 47.003 245.297 47.1072C245.579 47.2052 245.831 46.9479 245.954 46.6232C245.978 46.5619 245.941 46.4639 245.88 46.4945Z" fill="#111111"/>
<path d="M249.377 51.7082C249.242 51.8307 249.101 51.9961 248.905 52.0023C248.715 52.0084 248.5 51.9104 248.328 51.8369C248.31 51.8307 248.292 51.8491 248.304 51.8614C248.433 52.0758 248.721 52.2228 248.973 52.1922C249.218 52.1616 249.353 51.9594 249.42 51.7388C249.433 51.7082 249.39 51.6959 249.371 51.7143L249.377 51.7082Z" fill="#111111"/>
<path d="M247.34 49.521C247.34 49.521 247.144 50.3114 247.101 50.6912C247.101 50.728 247.187 50.7525 247.316 50.777C247.316 50.777 247.322 50.777 247.328 50.777C247.984 50.9546 248.684 50.7954 249.15 50.293C249.181 50.2562 249.138 50.2133 249.101 50.2317C248.561 50.5442 247.997 50.5809 247.402 50.5258C247.383 50.4155 247.788 49.1841 247.727 49.1718C247.524 49.1289 247.095 49.227 246.843 49.276C247.205 47.6157 247.837 46.0289 248.175 44.3686C248.187 44.3073 248.101 44.2828 248.076 44.3318C247.297 45.9492 246.837 47.8485 246.414 49.5517C246.359 49.7661 247.168 49.5639 247.328 49.5149L247.34 49.521Z" fill="#111111"/>
<path d="M247.377 50.489C247.377 50.489 247.629 51.0649 248.095 51.3529C248.267 51.4632 248.457 51.5306 248.678 51.5244C249.132 51.506 249.23 51.1201 249.23 50.7647C249.23 50.4768 249.156 50.2072 249.156 50.2072C249.156 50.2072 248.402 50.6483 247.383 50.4829L247.377 50.489Z" fill="#111111"/>
<path d="M248.089 51.3529C248.261 51.4632 248.451 51.5306 248.672 51.5244C249.126 51.5061 249.224 51.1201 249.224 50.7647C248.758 50.7096 248.23 50.9179 248.089 51.3529Z" fill="#FF9ABB"/>
<path d="M248.653 37.7641C248.653 37.7641 255.095 34.8847 258.715 38.6525C262.335 42.4203 258.715 47.9587 258.715 47.9587C258.715 47.9587 260.298 40.9561 256.856 38.9956C253.42 37.0351 248.653 37.7641 248.653 37.7641Z" fill="#97C233"/>
<path d="M258.114 49.6742C256.403 48.7981 256.39 46.9785 256.39 46.9785C254.261 45.9799 253.151 44.2644 253.04 44.0929C253.09 44.2583 253.427 45.4407 253.623 46.035C248.666 44.9322 247.255 41.0725 247.255 41.0725C245.58 42.6286 245.224 43.6518 244.973 44.1541C244.973 44.1541 245.04 41.097 246.684 39.1059C248.697 36.6675 255.225 36.208 258.12 39.5776C261.243 43.2106 258.12 49.6803 258.12 49.6803L258.114 49.6742Z" fill="#111111"/>
<path d="M249.85 45.0792C250.629 45.551 251.5 45.8818 252.377 46.1024C252.384 46.1024 252.39 46.0962 252.377 46.0901C250.985 45.6429 249.752 44.8648 248.788 43.7559C248.383 43.2842 248.04 42.7695 247.764 42.2181C247.475 41.6361 247.199 40.9499 247.169 40.2944C247.169 40.2454 247.089 40.2515 247.089 40.2944C247.126 40.9867 247.162 41.6177 247.42 42.2733C247.666 42.8921 248.021 43.468 248.469 43.9581C248.868 44.3931 249.34 44.7668 249.844 45.0731" fill="#111111"/>
<path d="M256.832 49.3005C256.832 49.3005 258.795 46.9969 259.856 47.7198C260.918 48.4427 259.28 51.8981 257.911 52.2596C256.549 52.6211 256.188 51.3712 256.188 51.3712L256.826 49.3005H256.832Z" fill="#E37E4C"/>
<path d="M259.359 48.6939C259.359 48.6939 259.384 48.7246 259.359 48.7307C258.402 49.0186 257.831 49.8274 257.408 50.6789C257.715 50.3665 258.107 50.2133 258.531 50.5809C258.555 50.5993 258.531 50.6361 258.5 50.6299C258.132 50.5135 257.85 50.5503 257.568 50.8321C257.365 51.0282 257.218 51.2855 257.064 51.5244C257.015 51.6041 256.868 51.5428 256.911 51.4509C256.911 51.4448 256.917 51.4386 256.923 51.4325C257.015 50.2562 258.083 48.7001 259.359 48.7001V48.6939Z" fill="#111111"/>
<path d="M261.329 65.1254C261.586 71.595 251.923 92.0088 246.997 95.409C239.665 100.463 222.18 103.38 217.621 104.072C215.634 104.372 215.511 87.5425 217.628 87.181C222.26 86.3968 236.831 85.3247 238.18 84.4547C239.53 83.5847 248.334 73.9354 252.433 68.2377C257.93 60.5979 261.2 61.8538 261.329 65.1254Z" fill="#E37E4C"/>
<path d="M206.793 102.798C205.732 101.101 208.345 100.825 208.345 100.825C208.345 100.825 204.492 100.31 204.081 98.1414C203.689 96.0462 206.854 95.8256 207.081 95.8072C206.879 95.7766 203.351 95.2129 203.161 92.989C202.965 90.6732 206.186 90.9979 206.388 91.0224C206.204 90.9366 203.793 89.7358 204.038 88.0142C204.455 85.049 211.419 87.904 213.658 86.9788L213.787 83.2784C214.45 84.2464 215.425 84.6446 216.395 85.6494C217.566 86.8502 218.585 87.6405 218.873 88.6514C219.352 90.3117 218.039 91.1327 218.039 91.1327C218.039 91.1327 220.07 91.7698 220.272 93.5159C220.376 94.4165 219.027 95.3784 219.027 95.3784C219.027 95.3784 220.628 95.9543 220.714 97.5227C220.787 98.7725 219.425 99.5444 219.425 99.5444C219.425 99.5444 220.708 100.813 220.364 102.111C219.677 104.74 209.063 106.449 206.793 102.81V102.798Z" fill="#E37E4C"/>
<path d="M219.229 99.6853C219.266 99.6792 219.284 99.7221 219.247 99.7405C215.892 101.156 211.775 101.683 208.21 100.855C208.094 100.831 208.088 100.629 208.223 100.635C212.063 100.782 215.48 100.61 219.229 99.6915V99.6853Z" fill="#111111"/>
<path d="M219.081 95.3784C219.124 95.3661 219.136 95.4335 219.099 95.4519C215.639 96.8916 210.983 97.3572 206.982 95.9236C206.847 95.8746 206.774 95.6908 206.933 95.7398C209.663 96.4934 215.713 96.2238 219.081 95.3845V95.3784Z" fill="#111111"/>
<path d="M206.142 90.8202C210.032 92.0455 213.922 91.9046 217.897 91.1878C217.946 91.1755 217.959 91.2552 217.916 91.2736C216.069 92.1558 213.486 92.3457 211.462 92.3273C209.523 92.3089 207.78 91.9046 206.099 90.955C206.032 90.9182 206.056 90.7957 206.142 90.8202Z" fill="#111111"/>
<path d="M253.653 65.9892C259.715 59.4522 263.212 62.154 261.151 69.8428C259.224 77.0354 256.089 84.5711 256.089 84.5711L244.027 76.6372C244.027 76.6372 249.77 70.1676 253.647 65.9831L253.653 65.9892Z" fill="#97C233"/>
<path d="M259.544 63.8204C259.544 63.9368 259.446 64.0348 259.329 64.0348C259.212 64.0348 259.114 63.9368 259.114 63.8204C259.114 63.704 259.212 63.606 259.329 63.606C259.446 63.606 259.544 63.704 259.544 63.8204Z" fill="white"/>
<path d="M252.01 69.3037C252.01 69.4201 251.911 69.5181 251.795 69.5181C251.678 69.5181 251.58 69.4201 251.58 69.3037C251.58 69.1873 251.678 69.0893 251.795 69.0893C251.911 69.0893 252.01 69.1873 252.01 69.3037Z" fill="white"/>
<path d="M255.777 69.3037C255.777 69.4201 255.679 69.5181 255.562 69.5181C255.446 69.5181 255.348 69.4201 255.348 69.3037C255.348 69.1873 255.446 69.0893 255.562 69.0893C255.679 69.0893 255.777 69.1873 255.777 69.3037Z" fill="white"/>
<path d="M259.544 69.3037C259.544 69.4201 259.446 69.5181 259.329 69.5181C259.212 69.5181 259.114 69.4201 259.114 69.3037C259.114 69.1873 259.212 69.0893 259.329 69.0893C259.446 69.0893 259.544 69.1873 259.544 69.3037Z" fill="white"/>
<path d="M253.893 66.5651C253.893 66.6815 253.795 66.7795 253.679 66.7795C253.562 66.7795 253.464 66.6815 253.464 66.5651C253.464 66.4487 253.562 66.3507 253.679 66.3507C253.795 66.3507 253.893 66.4487 253.893 66.5651Z" fill="white"/>
<path d="M257.66 66.5651C257.66 66.6815 257.562 66.7795 257.445 66.7795C257.329 66.7795 257.23 66.6815 257.23 66.5651C257.23 66.4487 257.329 66.3507 257.445 66.3507C257.562 66.3507 257.66 66.4487 257.66 66.5651Z" fill="white"/>
<path d="M261.427 66.5651C261.427 66.6815 261.329 66.7795 261.213 66.7795C261.096 66.7795 260.998 66.6815 260.998 66.5651C260.998 66.4487 261.096 66.3507 261.213 66.3507C261.329 66.3507 261.427 66.4487 261.427 66.5651Z" fill="white"/>
<path d="M248.243 74.7808C248.243 74.8972 248.145 74.9953 248.028 74.9953C247.912 74.9953 247.813 74.8972 247.813 74.7808C247.813 74.6644 247.912 74.5664 248.028 74.5664C248.145 74.5664 248.243 74.6644 248.243 74.7808Z" fill="white"/>
<path d="M252.01 74.7808C252.01 74.8972 251.911 74.9953 251.795 74.9953C251.678 74.9953 251.58 74.8972 251.58 74.7808C251.58 74.6644 251.678 74.5664 251.795 74.5664C251.911 74.5664 252.01 74.6644 252.01 74.7808Z" fill="white"/>
<path d="M255.777 74.7808C255.777 74.8972 255.679 74.9953 255.562 74.9953C255.446 74.9953 255.348 74.8972 255.348 74.7808C255.348 74.6644 255.446 74.5664 255.562 74.5664C255.679 74.5664 255.777 74.6644 255.777 74.7808Z" fill="white"/>
<path d="M259.544 74.7808C259.544 74.8972 259.446 74.9953 259.329 74.9953C259.212 74.9953 259.114 74.8972 259.114 74.7808C259.114 74.6644 259.212 74.5664 259.329 74.5664C259.446 74.5664 259.544 74.6644 259.544 74.7808Z" fill="white"/>
<path d="M250.126 72.0422C250.126 72.1587 250.028 72.2567 249.911 72.2567C249.794 72.2567 249.696 72.1587 249.696 72.0422C249.696 71.9258 249.794 71.8278 249.911 71.8278C250.028 71.8278 250.126 71.9258 250.126 72.0422Z" fill="white"/>
<path d="M253.893 72.0422C253.893 72.1587 253.795 72.2567 253.679 72.2567C253.562 72.2567 253.464 72.1587 253.464 72.0422C253.464 71.9258 253.562 71.8278 253.679 71.8278C253.795 71.8278 253.893 71.9258 253.893 72.0422Z" fill="white"/>
<path d="M257.66 72.0422C257.66 72.1587 257.562 72.2567 257.445 72.2567C257.329 72.2567 257.23 72.1587 257.23 72.0422C257.23 71.9258 257.329 71.8278 257.445 71.8278C257.562 71.8278 257.66 71.9258 257.66 72.0422Z" fill="white"/>
<path d="M252.01 80.258C252.01 80.3744 251.911 80.4724 251.795 80.4724C251.678 80.4724 251.58 80.3744 251.58 80.258C251.58 80.1416 251.678 80.0435 251.795 80.0435C251.911 80.0435 252.01 80.1416 252.01 80.258Z" fill="white"/>
<path d="M255.777 80.258C255.777 80.3744 255.679 80.4724 255.562 80.4724C255.446 80.4724 255.348 80.3744 255.348 80.258C255.348 80.1416 255.446 80.0435 255.562 80.0435C255.679 80.0435 255.777 80.1416 255.777 80.258Z" fill="white"/>
<path d="M246.359 77.5255C246.359 77.6419 246.261 77.74 246.144 77.74C246.028 77.74 245.93 77.6419 245.93 77.5255C245.93 77.4091 246.028 77.3111 246.144 77.3111C246.261 77.3111 246.359 77.4091 246.359 77.5255Z" fill="white"/>
<path d="M250.126 77.5255C250.126 77.6419 250.028 77.74 249.911 77.74C249.794 77.74 249.696 77.6419 249.696 77.5255C249.696 77.4091 249.794 77.3111 249.911 77.3111C250.028 77.3111 250.126 77.4091 250.126 77.5255Z" fill="white"/>
<path d="M253.893 77.5255C253.893 77.6419 253.795 77.74 253.679 77.74C253.562 77.74 253.464 77.6419 253.464 77.5255C253.464 77.4091 253.562 77.3111 253.679 77.3111C253.795 77.3111 253.893 77.4091 253.893 77.5255Z" fill="white"/>
<path d="M257.66 77.5255C257.66 77.6419 257.562 77.74 257.445 77.74C257.329 77.74 257.23 77.6419 257.23 77.5255C257.23 77.4091 257.329 77.3111 257.445 77.3111C257.562 77.3111 257.66 77.4091 257.66 77.5255Z" fill="white"/>
<path d="M253.893 83.0027C253.893 83.0395 253.881 83.0762 253.863 83.1068L253.507 82.874C253.55 82.8189 253.611 82.7883 253.679 82.7883C253.795 82.7883 253.893 82.8863 253.893 83.0027Z" fill="white"/>
<path d="M253.046 66.7122C252.236 67.5638 251.402 68.3908 250.574 69.2241C250.813 68.7768 251.034 68.3296 251.236 67.864C251.248 67.8456 251.212 67.8272 251.206 67.8517C251.015 68.2009 250.807 68.5501 250.623 68.8993C250.531 69.0709 250.445 69.2424 250.353 69.4079C250.334 69.4446 250.31 69.4814 250.291 69.5181C249.647 70.1675 249.003 70.817 248.371 71.4848C247.623 72.2812 246.893 73.096 246.162 73.9048C245.408 74.7441 244.665 75.7488 243.874 76.5576C243.806 76.6249 244.942 77.2682 245.046 77.3479C245.15 77.4275 245.242 77.3234 245.126 77.2744C245.015 77.2253 244.144 76.5147 244.138 76.5024C244.868 75.6815 245.69 74.9463 246.451 74.1498C247.205 73.3595 247.96 72.5692 248.702 71.7605C250.199 70.1185 251.604 68.397 253.089 66.7428C253.107 66.7183 253.077 66.6938 253.052 66.7122H253.046Z" fill="#111111"/>
<path d="M260.74 74.1376C260.495 74.4929 260.231 74.8421 260.01 75.2097C259.918 75.3629 259.826 75.5161 259.734 75.6692C260.212 74.3152 260.685 72.9552 261.157 71.6012C261.157 71.5828 261.139 71.5705 261.133 71.5889C260.243 73.77 259.347 75.951 258.501 78.1505C257.691 80.2458 256.771 82.3533 256.182 84.5221C256.01 84.4425 255.065 83.8911 255.028 83.9523C254.991 84.0136 256.249 84.8223 256.274 84.7733C257.286 82.7086 258.065 80.3193 258.857 78.1627C259.077 77.5562 259.292 76.9435 259.507 76.337C259.703 75.9817 259.924 75.6386 260.145 75.2955C260.378 74.934 260.581 74.5419 260.789 74.1682C260.801 74.1437 260.765 74.1253 260.752 74.1437L260.74 74.1376Z" fill="#111111"/>
<path d="M256.175 82.3962C254.519 81.1525 247.549 76.3002 245.972 75.3506C245.862 75.2832 245.794 75.3384 245.899 75.418C250.77 79.2655 254.433 81.3179 256.12 82.4574C256.163 82.4881 256.212 82.4268 256.169 82.3962H256.175Z" fill="#111111"/>
<path d="M196.842 223.95C196.842 223.95 211.18 224.588 210.824 214.791C210.468 204.995 196.216 206.674 196.216 206.674L196.848 223.95H196.842Z" fill="#DD6A57"/>
<path d="M95.9096 210.309L96.541 227.586L197.398 223.911L196.767 206.633L95.9096 210.309Z" fill="#97C233"/>
<path d="M193.246 205.316L193.983 225.489L197.993 225.343L197.256 205.17L193.246 205.316Z" fill="#2A6E26"/>
<path d="M188.813 205.479L189.55 225.652L193.56 225.506L192.822 205.332L188.813 205.479Z" fill="#2A6E26"/>
<path d="M95.924 210.313L83.7088 217.266L79.6719 219.545L83.8622 221.561L96.5498 227.608L98.9978 225.77C98.9978 225.77 96.4639 224.189 96.421 224.153L98.8689 222.315C98.8689 222.315 96.3351 220.734 96.2921 220.697L98.7401 218.896C98.7401 218.896 96.2062 217.272 96.1633 217.236L98.6112 215.435C98.6112 215.435 96.0713 213.811 96.0345 213.774L98.4824 211.973C98.4824 211.973 95.9424 210.349 95.9056 210.313H95.924Z" fill="white"/>
<path d="M83.7086 217.266L79.6777 219.545L83.8681 221.561L83.7086 217.266Z" fill="#37474F"/>
<g opacity="0.1">
<path d="M102.292 214.852C129.054 213.474 158.822 212.396 185.633 211.82C158.846 213.192 129.091 214.283 102.292 214.852Z" fill="black"/>
</g>
<g opacity="0.1">
<path d="M102.703 222.609C129.465 221.23 159.233 220.152 186.044 219.576C159.257 220.948 129.502 222.039 102.703 222.609Z" fill="black"/>
</g>
<path d="M161.086 83.8482C161.086 83.8482 150.159 66.8041 145.944 65.7748C141.729 64.7455 139.944 66.5958 136.38 70.284C132.815 73.9721 127.704 80.307 127.704 80.307L123.68 77.2192V90.2749L136.38 86.8747L132.815 84.1667C132.815 84.1667 141.079 72.6856 143.361 72.7836C145.644 72.8816 156.454 87.9223 156.454 87.9223L161.086 83.842V83.8482Z" fill="#97C233"/>
<path d="M116.06 90.5567C116.06 90.5567 107.765 109.022 109.213 113.109C110.661 117.195 113.188 117.667 118.231 118.629C123.275 119.591 131.385 120.387 131.385 120.387L131.005 125.441L141.944 118.292L132.14 109.543L131.827 114.003C131.827 114.003 117.679 113.39 116.514 111.43C115.348 109.469 120.784 91.8617 120.784 91.8617L116.066 90.5629L116.06 90.5567Z" fill="#97C233"/>
<path d="M146.601 121.226C146.601 121.226 166.847 122.096 170.111 119.241C173.375 116.386 172.884 113.868 171.915 108.832C170.945 103.796 168.688 95.9788 168.688 95.9788L173.528 94.4655L162.828 86.9605L158.313 99.2932L162.583 97.9331C162.583 97.9331 167.24 111.289 165.847 113.096C164.454 114.904 147.282 113.642 147.282 113.642L146.595 121.22L146.601 121.226Z" fill="#97C233"/>
<path d="M54.4748 64.3351C54.2478 64.6291 48.1187 67.1227 45.1922 64.2738C42.2657 61.425 53.1802 58.6986 56.5975 59.6973C60.021 60.6959 54.4748 64.3289 54.4748 64.3289V64.3351Z" fill="#2A6E26"/>
<path d="M38.6399 142.02C39.008 142.075 44.1371 146.253 43.0327 150.187C41.9284 154.12 34.3085 145.855 33.5477 142.375C32.7869 138.895 38.6399 142.02 38.6399 142.02Z" fill="#2A6E26"/>
<path d="M228.898 10.5683C229.904 10.5683 243.788 0.661672 261.433 4.82774C279.078 8.9938 263.2 -0.00612344 251.586 3.12667e-06C244.764 3.12667e-06 235.082 1.66643 228.898 7.55406C222.714 13.4417 228.898 10.5683 228.898 10.5683Z" fill="#2A6E26"/>
<path d="M220.628 11.7446C220.628 11.7446 216.854 13.5458 219.204 15.2184C221.554 16.8909 223.763 13.3682 223.413 12.3144C223.063 11.2606 222.431 11.3587 220.628 11.7446Z" fill="#2A6E26"/>
<path d="M293.171 53.4727C293.171 53.4727 292.373 63.4406 285.465 66.6631C285.465 66.6631 293.999 69.8857 293.766 77.5133C293.766 77.5133 292.306 69.5978 300.11 67.2513C300.11 67.2513 292.52 60.8 293.171 53.4727Z" fill="white"/>
<path d="M280.538 41.777C280.538 41.777 279.992 48.553 275.299 50.7463C275.299 50.7463 281.103 52.9396 280.943 58.1227C280.943 58.1227 279.949 52.7436 285.256 51.1446C285.256 51.1446 280.097 46.7579 280.538 41.777Z" fill="white"/>
</g>
<defs>
<clipPath id="clip0_211_9888">
<rect width="327" height="237" fill="white"/>
</clipPath>
</defs>
</svg>
