<svg width="327" height="224" viewBox="0 0 327 224" fill="none" xmlns="http://www.w3.org/2000/svg">
<g clip-path="url(#clip0_211_9572)">
<path d="M8.74176 103.458C11.0914 113.03 19.7213 118.839 27.6383 123.694C32.7468 126.826 37.7933 129.915 42.9576 132.91C46.0264 134.688 49.0332 137.303 50.0066 141.078C51.2713 145.995 49.1448 150.425 46.4666 154.113C40.3289 162.549 37.3283 174.106 41.8292 184.483C48.841 200.638 68.9775 206.154 82.66 210.896C99.3123 216.662 116.429 220.599 133.708 222.658C156.901 225.416 179.35 223.513 202.406 220.811C217.992 218.989 233.59 213.455 245.68 202.522C249.368 199.184 252.97 194.529 252.22 189.393C251.786 186.442 250.968 181.531 249.114 179.341C243.77 173.039 236.51 170.131 229.629 165.956C229.629 165.956 229.629 165.956 229.616 165.944C221.885 159.23 227.025 146.6 236.659 147.599C263.256 150.35 278.817 147.474 289.226 141.409C307.112 130.994 305.89 114.577 299.598 93.5236C293.305 72.4702 278.891 32.148 262.797 18.6573C230.199 -8.661 210.807 31.1808 170.695 27.8861C153.28 26.4572 121.749 -3.77516 105.276 2.7081C96.882 6.00901 88.7047 10.9323 83.2986 18.6823C77.8925 26.4322 75.8094 37.4269 79.8702 46.0255C81.5503 49.5822 84.2782 53.1203 83.5528 57.0576C82.8832 60.683 79.5292 62.9169 76.355 64.2585C67.3779 68.0648 57.5577 68.3831 47.9731 69.1568C38.3822 69.9306 28.4628 71.3345 20.2979 76.913C12.133 82.4915 6.2495 93.3489 8.72936 103.445L8.74176 103.458ZM232.586 163.236L232.009 163.292C232.202 163.255 232.394 163.23 232.586 163.236Z" fill="#2A6E26"/>
<path d="M182.926 215.376C175.778 215.376 169.014 214.54 162.963 212.856C147.576 208.575 133.162 208.238 119.225 207.914C104.209 207.564 90.0246 207.233 77.3835 201.63C53.5211 191.053 48.3816 168.833 48.332 168.608L48.9396 168.471C48.9892 168.689 54.0729 190.61 77.6377 201.056C90.1672 206.609 104.29 206.94 119.244 207.29C133.224 207.614 147.675 207.951 163.131 212.257C177.818 216.344 196.751 215.383 215.078 209.611C231.668 204.388 244.606 196.014 248.035 188.283L248.599 188.539C245.047 196.551 232.269 204.85 215.264 210.21C204.365 213.642 193.249 215.383 182.926 215.383V215.376Z" fill="#CCCC62"/>
<path d="M33.8312 65.4753C33.8312 65.4753 13.6018 66.5922 10.9731 80.7318C8.3445 94.8715 18.4871 103.47 23.8746 103.738C29.2621 104.007 30.3036 106.141 30.3036 106.141L32.3743 110.365L42.1573 108.381L44.104 104.805L48.7724 99.4079L51.4072 97.8604L54.6744 94.4222C54.6744 94.4222 57.2721 88.5068 57.4085 84.6006C57.5448 80.6944 50.6818 70.1053 47.4022 69.3066C44.1226 68.5079 34.972 65.3318 33.825 65.469L33.8312 65.4753Z" fill="#E0BB61"/>
<path d="M208.549 129.285C232.709 129.285 252.294 109.572 252.294 85.2558C252.294 60.9394 232.709 41.2271 208.549 41.2271C184.39 41.2271 164.805 60.9394 164.805 85.2558C164.805 109.572 184.39 129.285 208.549 129.285Z" fill="#3461D6"/>
<path d="M272.313 146.563C272.313 146.563 255.394 136.953 259.108 120.642C262.821 104.325 274.706 104.375 281.042 96.1319C287.378 87.889 288.414 86.6036 288.414 86.6036C288.414 86.6036 303.411 106.665 298.091 123.138C295.841 130.096 288.407 141.864 272.319 146.563H272.313Z" fill="#97C233"/>
<path d="M251.724 221.523C252.716 219.738 239.691 150.544 240.038 146.987C240.385 143.43 254.75 130.083 252.685 116.412C250.621 102.74 252.97 99.9383 250.292 100.668C247.614 101.398 245.568 113.285 243.355 117.185C242.437 118.795 233.652 131.181 233.882 130.245C238.277 112.312 227.756 125.16 227.756 125.16C227.756 125.16 222.927 130.614 222.704 136.91C222.474 143.206 221.91 221.523 221.91 221.523C221.91 221.523 249.461 225.604 251.73 221.523H251.724Z" fill="#D39448"/>
<path d="M164.21 221.529C163.218 219.744 176.243 150.55 175.896 146.993C175.549 143.437 161.184 130.089 163.249 116.418C165.313 102.746 162.964 99.9445 165.642 100.675C168.326 101.405 170.366 113.292 172.579 117.192C173.497 118.802 182.282 131.188 182.052 130.252C177.657 112.318 188.178 125.166 188.178 125.166C188.178 125.166 193.007 130.62 193.23 136.916C193.453 143.212 194.024 221.529 194.024 221.529C194.024 221.529 166.473 225.61 164.203 221.529H164.21Z" fill="#D39448"/>
<path d="M87.6627 142.189C87.6627 142.189 80.6819 142.008 81.3452 150.606C82.0086 159.205 84.7984 164.315 88.822 171.192C92.8518 178.068 94.1847 202.797 93.5151 210.64C92.8456 218.484 93.5027 221.523 93.5027 221.523C93.5027 221.523 125.27 224.849 124.805 221.523C124.34 218.197 111.73 168.877 113.986 161.838C116.243 154.8 117.44 144.691 116.553 143.636C115.666 142.582 113.732 135.949 112.387 135.631C111.042 135.312 107.384 132.729 107.384 132.729L104.805 131.837L100.546 129.759L98.0471 132.667L94.1041 130.408L90.8741 131.444C90.8741 131.444 90.7997 137.671 89.2312 139.93L87.6627 142.189Z" fill="#C95F50"/>
<path d="M29.5911 108.106C29.5911 108.106 27.6754 105.741 25.0654 107.638C22.4553 109.535 22.7157 111.694 22.7157 111.694L21.8974 118.839L21.792 124.711L22.6909 130.676C22.6909 130.676 24.0858 136.361 22.7095 140.566C21.3332 144.772 16.4727 168.078 15.3506 178.511C14.2284 188.944 11.2588 222.54 11.2588 222.54C11.2588 222.54 24.7554 222.303 32.4554 222.633C40.9117 223.002 51.4572 221.523 51.4572 221.523C51.4572 221.523 45.9582 192.888 49.8391 147.904C50.2607 143.05 55.1584 139.399 56.7083 134.632C58.2583 129.865 59.0828 126.539 58.0971 123.656C57.1113 120.773 54.9415 117.734 54.9415 117.734L49.8825 116.53L51.885 114.565C51.885 114.565 55.9396 110.552 56.9377 107.077C57.9359 103.601 57.4027 101.08 57.4027 101.08L56.7083 98.422L52.6104 100.101L47.0183 101.679L45.5738 110.615C45.5738 110.615 46.7021 116.349 44.0983 117.741C41.4944 119.132 36.0883 116.58 36.0883 116.58C36.0883 116.58 30.4467 108.4 29.5787 108.113L29.5911 108.106Z" fill="#C95F50"/>
<path d="M33.6022 42.1505C33.6518 44.1473 33.7819 46.1441 33.7199 48.1346C33.627 51.2171 33.3976 54.2871 33.2426 57.3696C33.2054 58.056 33.3108 58.7549 33.2364 59.4351C33.1992 59.797 32.914 60.1277 32.7404 60.4709C32.2568 60.215 31.4075 60.4459 31.4261 59.5099C31.4509 58.2432 31.4633 56.9828 31.5377 55.7223C31.7857 51.6789 32.0398 47.6354 32.3684 43.5982C32.4118 43.0865 32.9264 42.6123 33.2302 42.1193C33.3542 42.1318 33.4782 42.138 33.6084 42.1505H33.6022Z" fill="#111111"/>
<path d="M20.0615 54.9735C17.4639 55.3479 17.6189 53.5383 17.3461 52.178C16.6703 48.7898 16.0379 45.3953 15.4118 42.0008C15.1576 40.6405 14.9096 39.2739 14.7608 37.8949C14.7174 37.4893 15.0398 37.0463 15.1948 36.6157C15.635 36.8778 16.3169 37.04 16.4657 37.4144C16.9617 38.6499 17.3523 39.9541 17.6189 41.2582C18.4372 45.2268 19.1874 49.2078 19.9437 53.1889C20.0553 53.7692 20.0243 54.3682 20.0553 54.9735H20.0615Z" fill="#111111"/>
<path d="M0.669221 49.9379C2.09514 51.2421 3.68225 52.4027 4.92217 53.8691C7.60042 57.0514 10.1051 60.3835 12.6779 63.6595C13.4963 64.7078 13.2111 65.1134 11.19 65.6937C7.71201 60.4896 3.21727 55.9782 0.00585938 50.5307C0.229046 50.3311 0.452233 50.1314 0.675421 49.9317L0.669221 49.9379Z" fill="#111111"/>
<path d="M41.085 55.8971C41.8351 53.3387 42.3745 50.6743 44.1972 48.5464L44.5692 48.6151C44.377 49.7819 44.2406 50.9613 43.9864 52.1157C43.7446 53.2139 43.3974 54.2872 43.0564 55.3604C42.6721 56.5772 42.2939 56.6833 41.085 55.8971Z" fill="#111111"/>
<path d="M143.646 7.05108C143.646 7.05108 169.628 24.6164 172.989 19.3686C176.355 14.1271 149.839 -0.798717 141.804 0.0311905C133.77 0.861098 143.646 7.05108 143.646 7.05108Z" fill="#2A6E26"/>
<path d="M66.5532 50.7304C65.6976 50.6368 53.8625 54.5118 56.64 61.1323C59.4174 67.7529 76.9066 58.8298 78.5185 53.8379C80.1304 48.846 66.5532 50.7304 66.5532 50.7304Z" fill="#2A6E26"/>
<path d="M306.553 66.5236C306.566 65.8309 302.623 56.6208 297.582 59.3414C292.542 62.062 300.905 75.4342 304.979 76.3577C309.052 77.2812 306.553 66.5298 306.553 66.5298V66.5236Z" fill="#2A6E26"/>
<path d="M29.6836 105.498C30.0308 106.49 32.0952 122.826 33.4406 123.057C34.7859 123.288 47.8609 121.035 49.2868 119.045C50.7127 117.054 47.7555 103.22 47.7555 103.22C47.7555 103.22 60.2912 97.9852 59.7456 82.947C59.2001 67.9088 42.1448 63.1228 30.2105 65.2881C18.2762 67.4533 7.50126 74.8975 10.5515 90.0106C13.6017 105.124 29.6836 105.486 29.6836 105.486V105.498Z" fill="#FDC629"/>
<path d="M50.7439 115.288C49.9317 115.513 44.1723 118.034 43.5585 123.868C42.9447 129.703 51.556 129.54 55.4246 125.023C59.2932 120.505 57.9727 116.611 55.9082 115.282C55.9082 115.282 54.2219 114.309 50.7439 115.282V115.288Z" fill="#CC5440"/>
<path d="M48.3635 134.326C48.3635 134.326 48.0287 137.902 52.7528 138.052C57.4769 138.201 58.9029 136.092 59.2376 134.052C59.5724 132.011 58.0845 129.771 57.4087 129.291C56.733 128.81 53.2922 132.255 50.149 131.556C47.0058 130.857 48.3573 134.326 48.3573 134.326H48.3635Z" fill="#CC5440"/>
<path d="M53.6827 97.4361C53.1992 97.3986 45.6976 101.885 44.8296 107.058C43.9617 112.231 45.803 115.026 49.2252 114.034C52.6412 113.042 56.7392 109.966 57.9047 105.361C59.0702 100.756 57.5327 97.7606 53.6827 97.4361Z" fill="#CC5440"/>
<path d="M47.4153 129.428C47.4153 129.428 45.9893 133.709 50.7445 132.897C55.4996 132.086 58.9714 130.27 59.5789 127.132C60.1865 123.993 58.091 122.052 56.5349 121.834C54.9788 121.616 47.3471 127.051 47.4153 129.434V129.428Z" fill="#CC5440"/>
<path opacity="0.28" d="M57.4082 117.042C57.4082 117.042 57.5198 126.052 45.6289 127.406C45.6289 127.406 50.849 129.927 55.4305 125.435C55.4305 125.435 59.0945 121.198 57.4082 117.042Z" fill="#AA2E1D"/>
<path d="M44.2717 109.61C44.1725 109.198 43.7571 108.942 43.3479 109.042L33.8005 111.382C33.3913 111.482 33.1371 111.9 33.2363 112.312C33.3231 112.668 33.6331 112.899 33.9803 112.899C34.0423 112.899 34.1043 112.892 34.1601 112.874L43.7075 110.534C44.1167 110.434 44.3709 110.016 44.2717 109.604V109.61Z" fill="#D39448"/>
<path d="M45.1462 114.352C45.0905 113.928 44.6999 113.635 44.2783 113.691L34.5449 115.045C34.1233 115.101 33.8319 115.494 33.8877 115.919C33.9373 116.281 34.2225 116.549 34.5697 116.58C34.6317 116.58 34.6937 116.58 34.7557 116.58L44.4891 115.226C44.9107 115.17 45.202 114.777 45.1462 114.352Z" fill="#D39448"/>
<path d="M35.4491 105.28C35.4491 105.28 32.8577 83.4213 29.8323 81.3371C26.8068 79.253 24.1472 80.6195 25.1639 84.064C26.1807 87.5084 34.6556 91.1275 40.663 87.9951C46.6705 84.8627 44.9408 80.7943 43.1801 79.7272C41.4194 78.6602 37.5756 78.9972 37.1974 84.0577C36.8193 89.1183 42.3741 107.389 42.3741 107.389" stroke="#2A6E26" stroke-width="4" stroke-miterlimit="10" stroke-linecap="round"/>
<path d="M100.869 129.341C100.869 129.341 96.9565 128.099 96.1568 134.638C95.357 141.178 97.6819 145.646 100.044 145.546C102.406 145.446 104.489 141.415 104.489 136.267C104.489 131.119 102.456 129.827 100.869 129.341Z" fill="#CC5440"/>
<path d="M109.188 130.632C108.73 130.526 104.03 130.027 103.875 139.187C103.72 148.347 109.207 145.876 111.426 140.354C113.646 134.832 110.441 130.932 109.188 130.632Z" fill="#CC5440"/>
<path d="M107.849 146.082C107.849 146.082 110.174 150.812 112.641 149.882C115.109 148.953 117.651 140.959 117.496 138.944C117.341 136.928 113.181 137.097 113.181 137.097C113.181 137.097 107.372 144.298 107.849 146.082Z" fill="#CC5440"/>
<path opacity="0.28" d="M48.1025 133.266C48.1025 133.266 51.6239 134.164 54.7548 133.503C57.8856 132.841 58.8527 131.412 58.8527 131.412L58.0964 129.821C58.0964 129.821 54.513 133.646 48.1025 132.997" fill="#AA2E1D"/>
<path d="M87.3841 142.195C87.3841 142.195 94.7369 142.463 98.6985 145.209C102.66 147.954 98.7729 153.689 93.0382 151.661C93.0382 151.661 98.8349 151.873 98.9713 148.304C99.1076 144.735 87.3779 142.195 87.3779 142.195H87.3841Z" fill="#CC5440"/>
<path d="M93.0632 105.161L75.4314 116.58L80.9491 118.658C80.9491 118.658 62.7903 148.404 75.7848 150.662C80.5647 151.492 81.3831 151.96 81.3831 151.96C81.3831 151.96 80.5213 145.951 83.8195 143.93C87.1177 141.908 87.5331 139.587 86.9813 138.601C86.4296 137.615 90.4531 127.132 90.4531 127.132L93.491 121.84L98.6553 122.851L93.057 105.167L93.0632 105.161Z" fill="#97C233"/>
<path d="M86.9683 137.939C87.1109 137.883 103.738 145.527 105.071 145.552C106.404 145.577 103.056 154.431 103.056 154.431L95.995 152.353C95.995 152.353 99.8512 151.012 99.8512 148.079C99.8512 145.146 96.026 143.923 94.8729 143.499C93.7197 143.075 85.6416 142.526 85.6416 142.526L86.9621 137.933L86.9683 137.939Z" fill="#308E40"/>
<path d="M93.5087 126.683C93.5087 126.683 89.0821 126.233 88.3134 131.799C87.5446 137.365 88.2824 143.505 92.2564 141.952C96.2303 140.398 96.4349 135.075 96.5031 131.799C96.5713 128.523 94.699 127.132 93.5025 126.683H93.5087Z" fill="#CC5440"/>
<path d="M95.5179 99.9507C95.4435 99.7386 109.467 78.2983 111.885 77.0503C114.303 75.8023 116.683 75.7212 119.157 78.0799C121.631 80.4386 132.511 96.6124 132.511 96.6124L142.35 92.7811C142.35 92.7811 139.232 115.332 139.182 115.132C139.132 114.933 118.643 106.871 118.643 106.871L123.801 102.44C123.801 102.44 118.853 93.2803 117.173 91.789C115.493 90.2976 108.122 107.27 108.122 107.27C108.122 107.27 96.5471 102.94 95.5117 99.9507H95.5179Z" fill="#97C233"/>
<path d="M148.81 118.652C149.027 118.702 159.851 141.939 159.634 144.672C159.417 147.405 158.246 149.483 154.96 150.369C151.674 151.255 132.282 152.129 132.282 152.129L130.378 162.574C130.378 162.574 112.914 148.104 113.106 148.166C113.298 148.229 130.843 134.869 130.843 134.869L131.897 141.608C131.897 141.608 142.238 142.157 144.383 141.496C146.528 140.835 136.008 125.634 136.008 125.634C136.008 125.634 145.729 117.972 148.797 118.645L148.81 118.652Z" fill="#97C233"/>
<path d="M203.683 125.185C203.125 125.098 214.055 109.935 211.364 106.521C208.674 103.108 206.001 100.275 206.355 96.1319C206.708 91.9886 205.109 82.6537 207.068 83.3713C209.027 84.0889 211.488 97.5608 214.91 95.6639C218.333 93.767 222.753 88.4256 223.825 92.0884C224.898 95.7513 222.04 100.238 225.964 101.673C229.889 103.108 237.223 102.534 236.349 107.058C235.475 111.582 237.037 115.75 235.599 116.518C234.16 117.285 216.336 127.157 203.677 125.185H203.683Z" fill="white"/>
<path d="M236.429 56.8143C236.429 56.8143 230.961 60.9389 233.819 64.8014C236.677 68.6639 237.204 69.3753 240.595 69.2005C243.986 69.0258 246.603 68.1148 246.603 68.1148C246.603 68.1148 241.897 58.9733 236.429 56.8206V56.8143Z" fill="white"/>
<path d="M204.935 43.7292C204.935 43.7292 211.209 52.047 209.393 54.5929C207.576 57.1388 201.19 55.0234 197.985 58.0748C194.78 61.1261 195.133 68.8885 192.461 69.2255C189.789 69.5624 183.199 72.9694 182.034 77.2749C180.868 81.5805 179.981 90.7344 178.909 88.9373C177.836 87.1402 176.435 77.4559 174.817 73.8617C173.199 70.2675 172.312 69.2192 172.312 69.2192C172.312 69.2192 178.314 45.6574 204.197 43.3423" fill="white"/>
<path d="M288.097 86.9967C288.277 94.99 289.046 114.265 282.517 126.558C277.08 136.804 273.051 142.607 271.098 145.789C271.848 146.301 272.313 146.563 272.313 146.563C288.401 141.864 295.834 130.096 298.085 123.138C303.41 106.665 288.413 86.6036 288.413 86.6036C288.413 86.6036 288.339 86.6972 288.097 86.9967Z" fill="#7DA02A"/>
<path d="M326.944 220.499C324.836 215.27 315.022 191.621 308.171 187.203C302.04 183.247 296.566 177.076 294.582 174.717C294.204 174.268 294.421 173.582 294.985 173.432L306.9 170.262C307.303 170.156 313.274 168.122 313.33 166.075C313.385 164.028 298.971 166.312 299.225 166.131C299.225 166.131 311.674 162.78 313.069 161.039C315.4 158.138 299.225 160.453 299.225 160.453C298.574 160.284 298.419 159.423 298.971 159.03L311.209 153.714C316.057 151.268 315.344 148.647 311.104 149.09C306.863 149.533 298.711 151.948 298.711 151.948C298.674 151.967 298.63 151.979 298.587 151.992L293.013 153.57L290.887 154.269C290.409 154.425 289.907 154.101 289.851 153.595L289.306 148.21C289.306 148.21 289.3 148.166 289.287 148.098C289.108 147.118 287.744 140.123 284.675 138.208C281.377 136.148 276.194 137.091 275.115 138.594C274.036 140.098 272.964 143.555 276.646 145.483C280.316 147.405 282.84 148.822 282.48 152.098C282.263 153.183 281.804 154.144 281.147 154.587C279.938 155.405 276.628 155.929 273.739 154.45C273.689 154.419 273.627 154.388 273.565 154.356C273.553 154.356 273.54 154.344 273.534 154.338C271.284 153.283 274.892 146.438 272.988 145.359C271.079 144.273 270.757 145.359 270.757 145.359C269.2 147.081 262.127 155.473 263.844 163.654C265.772 172.827 279.114 190.473 285.406 197.93C291.06 204.625 297.229 219.782 298.432 222.814C298.556 223.133 298.872 223.332 299.213 223.314L326.243 221.604C326.783 221.573 327.13 221.017 326.925 220.512L326.944 220.499Z" fill="#F7A9A0"/>
<path d="M32.6719 132.997C32.6719 132.997 41.7481 135.967 41.2212 143.767" stroke="#15183F" stroke-width="2" stroke-miterlimit="10"/>
<path d="M92.2754 155.211C92.2754 155.211 99.3306 155.823 101.265 159.922" stroke="#15183F" stroke-width="2" stroke-miterlimit="10"/>
<path d="M59.3492 80.0766L59.2314 78.8349C59.4856 78.8099 84.805 76.2266 90.273 64.533C92.3065 60.1901 91.1224 53.426 89.8701 46.2689C87.6878 33.7891 85.2141 19.6494 98.376 12.5796C109.511 6.60181 120.887 13.7278 132.939 21.2718C143.677 27.9922 154.78 34.9497 167.273 34.3444C181.73 33.6518 193.323 28.6474 204.539 23.8115C214.117 19.6744 223.169 15.7745 232.964 15.163C255.103 13.7902 266.231 19.119 277.087 36.2788L276.039 36.9464C265.481 20.2485 254.632 15.0631 233.045 16.4047C223.466 16.9975 214.514 20.8662 205.035 24.9534C193.72 29.833 182.022 34.8873 167.341 35.5861C154.458 36.2039 143.187 29.1466 132.294 22.3264C120.558 14.9758 109.473 8.03699 98.9711 13.6779C86.6029 20.3234 88.9959 33.9887 91.1038 46.0505C92.3933 53.4073 93.6085 60.3648 91.4076 65.0634C85.6419 77.3935 60.4342 79.9706 59.3616 80.0766H59.3492Z" fill="white"/>
<path d="M65.9336 87.1277C62.9764 87.1277 61.0669 86.9218 61.0049 86.9156L61.0731 86.2978C61.2653 86.3165 80.3787 88.3882 91.7117 79.1406C96.5226 75.2157 99.2939 69.7808 99.9386 62.9918C101.507 46.4311 104.006 34.4005 111.079 29.5521C115.469 26.5445 121.371 26.2637 129.672 28.6661C135.233 30.276 139.66 32.1167 143.572 33.7391C155.326 38.625 163.814 42.1567 190.956 36.31C192.009 36.0853 193.181 35.8232 194.458 35.5424C215.543 30.875 264.93 19.9427 279.356 44.3158L278.823 44.634C264.626 20.6416 215.549 31.5115 194.595 36.1477C193.318 36.4285 192.14 36.6906 191.086 36.9152C163.764 42.7995 154.75 39.0555 143.336 34.3132C139.443 32.6971 135.029 30.8625 129.505 29.2589C121.396 26.9127 115.655 27.1685 111.433 30.0576C104.557 34.7687 102.108 46.6495 100.559 63.0417C99.9014 70.0054 97.0558 75.5777 92.1085 79.6149C84.1605 86.0981 72.4928 87.1215 65.9398 87.1215L65.9336 87.1277Z" fill="#CCCC62"/>
</g>
<defs>
<clipPath id="clip0_211_9572">
<rect width="327" height="224" fill="white"/>
</clipPath>
</defs>
</svg>
