<svg width="35" height="91" viewBox="0 0 35 91" fill="none" xmlns="http://www.w3.org/2000/svg">
<g id="Plant">
<g id="Group">
<g id="Group_2">
<g id="Group_3">
<path id="Vector" d="M16.1014 20.7252C16.1014 20.7252 7.4036 19.3536 9.43698 7.52356C9.43698 7.52356 19.1546 9.98158 16.1014 20.7252Z" fill="#97C233"/>
<path id="Vector_2" opacity="0.1" d="M16.1014 20.7252C16.1014 20.7252 7.4036 19.3536 9.43698 7.52356C9.43698 7.52356 19.1546 9.98158 16.1014 20.7252Z" fill="black"/>
<path id="Vector_3" d="M15.662 18.256C15.4921 17.6577 15.2917 17.0703 15.0697 16.4928C15.0629 16.4174 15.0528 16.3416 15.0472 16.2689C15.0344 16.1063 15.0224 15.9433 15.0112 15.7803C14.9867 15.4273 14.9667 15.0742 14.9482 14.7207C14.9114 14.0145 14.8709 13.3065 14.8617 12.599C14.8613 12.5606 14.8088 12.562 14.8088 12.6004C14.8032 13.3088 14.794 14.0158 14.818 14.7238C14.83 15.0773 14.8481 15.4309 14.8689 15.784C14.8733 15.8625 14.8789 15.9406 14.8837 16.0192C14.3976 14.8403 13.8089 13.7133 13.1397 12.6595C12.8407 12.189 12.5266 11.7366 12.1887 11.3009C11.8421 10.8539 11.4758 10.4282 11.1252 9.98567C11.1027 9.95723 11.0646 10.001 11.0887 10.029C11.7283 10.7803 12.2572 11.673 12.765 12.5399C13.0291 12.9905 13.2783 13.4533 13.5164 13.9233C13.4895 13.9115 13.4623 13.8998 13.4354 13.8872C13.3324 13.8393 13.2295 13.791 13.1253 13.7458C12.8892 13.6433 12.6524 13.5422 12.4151 13.4429C11.9487 13.2478 11.481 13.0559 11.0161 12.8564C10.9885 12.8446 10.9689 12.8993 10.9969 12.9115C11.4594 13.1191 11.917 13.3386 12.3739 13.5612C12.5983 13.6704 12.8231 13.7784 13.0475 13.8876C13.1601 13.9423 13.2735 13.9937 13.3874 14.0456C13.4635 14.0804 13.538 14.1233 13.6182 14.1373C13.7937 14.4922 13.9676 14.848 14.1275 15.2114C14.5299 16.1267 14.8881 17.0717 15.1903 18.0347C15.2115 18.1025 15.232 18.1702 15.2528 18.2379C15.038 18.0745 14.7639 17.9679 14.5399 17.851C14.2405 17.6947 13.9396 17.5439 13.6398 17.3886C13.0299 17.073 12.4236 16.7529 11.8393 16.3809C11.8096 16.3619 11.7836 16.4147 11.8136 16.4332C12.4115 16.8012 12.997 17.1927 13.5957 17.5588C13.8951 17.7417 14.1957 17.9196 14.5022 18.0871C14.7539 18.2244 15.0368 18.4154 15.3193 18.4555C15.5915 19.3604 15.8199 20.276 15.8892 21.235C15.9862 22.5724 15.9754 23.9215 16.003 25.262C16.0034 25.2855 16.0331 25.2837 16.0347 25.2611C16.1212 24.0448 16.1701 22.8171 16.1749 21.5967C16.1801 20.4368 15.9746 19.3572 15.662 18.256Z" fill="#111111"/>
<path id="Vector_4" d="M14.3223 11.2991C14.2542 11.9876 14.1933 12.6929 14.2358 13.3855C14.237 13.4049 14.2614 13.4036 14.2622 13.3846C14.2971 12.6929 14.3027 12.003 14.374 11.3135C14.3776 11.276 14.3259 11.2611 14.3223 11.2991Z" fill="#111111"/>
<path id="Vector_5" d="M11.8356 11.8915C11.4505 11.7073 11.0674 11.5348 10.7171 11.2725C10.6887 11.2513 10.6622 11.3045 10.6915 11.3249C11.0425 11.5714 11.4184 11.8125 11.8212 11.933C11.8424 11.9394 11.8568 11.9014 11.8356 11.8915Z" fill="#111111"/>
</g>
<path id="Vector_6" d="M16.3795 39.5062C16.3723 38.423 16.3543 37.3407 16.3431 36.2575C16.325 32.6613 16.2986 29.065 16.2413 25.4687C16.1956 22.6138 16.1363 19.7598 16.0641 16.9054C16.0637 16.8891 16.0545 16.8774 16.0421 16.8688C16.0385 16.0891 16.0357 15.3098 16.0313 14.53C16.0313 14.5101 16.0104 14.5007 15.9896 14.5011C15.9688 14.5016 15.9479 14.5115 15.9479 14.5314C15.9435 15.3125 15.9391 16.0931 15.9351 16.8742C15.9247 16.8833 15.9155 16.8932 15.9151 16.9081C15.7872 21.989 15.673 27.0707 15.6462 32.1529C15.6409 33.1864 15.6414 34.2194 15.6373 35.2525C15.6065 38.5657 15.5929 41.8793 15.6037 45.1925C15.6005 45.7198 15.5949 46.2477 15.5933 46.775C15.5836 49.8064 15.6209 52.8379 15.6221 55.8693C15.6221 56.0328 15.7828 56.1136 15.9539 56.1213C16.1487 56.1303 16.3571 56.0423 16.3571 55.8562C16.3583 52.5133 16.3775 49.1703 16.3771 45.8273C16.3867 43.7201 16.3935 41.6129 16.3795 39.5062Z" fill="#111111"/>
<g id="Group_4">
<path id="Vector_7" d="M12.7473 36.216C12.7473 36.216 8.56391 32.7236 4.59334 35.0832C0.622759 37.4423 0 46.5389 0 46.5389C0 46.5389 5.83043 47.4785 9.50205 43.5413C13.0406 39.7473 12.7473 36.216 12.7473 36.216Z" fill="#97C233"/>
<path id="Vector_8" d="M13.8877 36.4318C13.1307 36.0733 12.2875 35.9848 11.4644 36.0755C11.2977 36.0335 11.1206 36.0326 10.9519 36.0191C10.7555 36.0033 10.5587 35.9866 10.3624 35.9694C9.956 35.9338 9.54886 35.9062 9.1425 35.8719C8.31737 35.8024 7.48942 35.7455 6.66589 35.6525C6.63624 35.6493 6.63023 35.7071 6.66029 35.7112C7.4754 35.8286 8.28691 35.959 9.10443 36.0521C9.52481 36.0999 9.94559 36.1491 10.3668 36.1825C10.4658 36.1907 10.5684 36.2033 10.6729 36.216C10.5479 36.2476 10.4237 36.2805 10.3018 36.3198C9.64583 36.5293 9.01346 36.8291 8.40633 37.1881C8.07652 37.2549 7.74951 37.3587 7.4261 37.4445C6.90834 37.5818 6.39299 37.7326 5.87883 37.8843C4.86294 38.1841 3.85788 38.5214 2.84961 38.8519C2.81675 38.8627 2.83197 38.9182 2.86483 38.9092C3.87231 38.6306 4.88498 38.3755 5.89406 38.1051C6.38457 37.9737 6.87588 37.8436 7.36519 37.7077C7.49182 37.6725 7.62047 37.64 7.74991 37.6075C6.62342 38.3891 5.60993 39.3914 4.77638 40.5202C3.94403 41.6472 3.2812 42.8802 2.71014 44.1923C2.69531 44.2262 2.73739 44.2587 2.75502 44.2244C3.43148 42.8897 4.28187 41.6327 5.25568 40.5265C5.23724 40.5893 5.2188 40.6516 5.20117 40.7148C5.12343 40.992 5.04609 41.2697 4.96874 41.5474C4.81365 42.1023 4.65736 42.6567 4.50988 43.2144C4.49986 43.2518 4.54997 43.264 4.56119 43.2288C4.73751 42.6911 4.90462 42.1497 5.07333 41.6088C5.15629 41.3433 5.23884 41.0778 5.32179 40.8128C5.36467 40.6751 5.40596 40.5374 5.44723 40.3987C5.46006 40.3563 5.47488 40.3143 5.4877 40.2723C5.95777 39.7603 6.4515 39.2799 6.97127 38.8478C7.65734 38.2771 8.40713 37.7953 9.19219 37.4134C9.17776 37.4951 9.16453 37.5768 9.1497 37.6545C9.10883 37.8694 9.06596 38.0838 9.02669 38.2992C8.94493 38.7453 8.86798 39.1928 8.79064 39.6402C8.63315 40.5523 8.53577 41.476 8.38349 42.3885C8.37707 42.426 8.42717 42.4409 8.43518 42.403C8.62273 41.4855 8.86478 40.583 9.04631 39.6632C9.13688 39.2036 9.22905 38.744 9.31401 38.283C9.35368 38.0676 9.39136 37.8518 9.43023 37.6364C9.45187 37.5163 9.47672 37.3962 9.48914 37.2756C9.56528 37.2418 9.63941 37.2021 9.71636 37.17C10.814 36.7122 12.0271 36.3799 13.1972 36.6327C14.3165 36.8747 15.2759 37.7208 15.7151 38.9061C15.7532 39.0086 15.8966 38.9444 15.8758 38.8397C15.6462 37.7082 14.8066 36.867 13.8877 36.4318Z" fill="#111111"/>
<path id="Vector_9" d="M7.48315 40.3156C7.36493 40.9125 7.2471 41.5099 7.13009 42.1072C7.01828 42.6775 6.88003 43.2671 6.83795 43.85C6.83635 43.8735 6.866 43.8735 6.87201 43.8541C7.04273 43.2924 7.12568 42.6802 7.22747 42.0986C7.33046 41.5089 7.43305 40.9197 7.53484 40.3301C7.54125 40.2926 7.49036 40.2781 7.48315 40.3156Z" fill="#111111"/>
<path id="Vector_10" d="M3.43675 41.8342C2.90416 42.1385 2.38759 42.4848 1.83136 42.734C1.7961 42.7498 1.81813 42.8076 1.853 42.7882C2.38879 42.487 2.94302 42.2211 3.44916 41.8572C3.46279 41.8477 3.45037 41.8265 3.43675 41.8342Z" fill="#111111"/>
</g>
<g id="Group_5">
<path id="Vector_11" d="M13.688 29.8027C13.688 29.8027 8.57534 30.1703 6.19652 26.3713C3.8181 22.5723 4.35189 17.1478 4.35189 17.1478C4.35189 17.1478 9.72267 17.8833 11.8554 20.6109C13.9886 23.3389 13.688 29.8027 13.688 29.8027Z" fill="#97C233"/>
<path id="Vector_12" d="M16.0877 35.4872C15.9109 34.8699 15.6913 34.2618 15.4846 33.6563C15.2862 33.0747 15.0738 32.4995 14.8486 31.9306C14.3893 30.7693 13.8824 29.636 13.3161 28.5366C12.9554 27.8363 12.5687 27.1573 12.1708 26.4872C12.1628 26.3852 12.1444 26.2831 12.1307 26.1806C12.1067 26.0023 12.0842 25.8239 12.0594 25.6461C12.0089 25.2812 11.952 24.9178 11.8979 24.5534C11.7801 23.7578 11.6346 22.9677 11.5224 22.1717C11.5172 22.1342 11.4643 22.1351 11.4691 22.173C11.5721 22.9587 11.6422 23.7497 11.74 24.5362C11.7881 24.9227 11.833 25.3097 11.8851 25.6953C11.9039 25.8348 11.9235 25.9738 11.9432 26.1134C11.1617 24.8311 10.3218 23.5966 9.41407 22.4169C9.29184 22.2579 9.16561 22.1026 9.04098 21.9459C9.02855 21.9021 9.00892 21.8588 8.9937 21.8141C8.95603 21.7044 8.91875 21.5947 8.88269 21.4845C8.80775 21.256 8.73401 21.0267 8.66107 20.7973C8.51761 20.3462 8.38897 19.8911 8.28037 19.4274C8.27156 19.3899 8.22146 19.4075 8.22947 19.4446C8.33286 19.9173 8.44187 20.3896 8.56449 20.8564C8.6238 21.0822 8.68953 21.3048 8.76006 21.526C8.77208 21.5631 8.78451 21.6001 8.79653 21.6371C8.14291 20.8348 7.46124 20.0609 6.77276 19.2965C6.74832 19.2694 6.71225 19.3123 6.73629 19.3398C8.07237 20.8813 9.25337 22.583 10.3594 24.3398C10.2344 24.2947 10.1062 24.259 9.98072 24.2319C9.58719 24.1461 9.19006 24.0829 8.79252 24.026C7.95937 23.9068 7.12863 23.7881 6.29909 23.6404C6.26583 23.6346 6.2522 23.691 6.28626 23.6982C7.07853 23.8743 7.86359 24.0753 8.65065 24.2789C9.02214 24.3751 9.39443 24.4568 9.76833 24.5399C10.0797 24.6089 10.3686 24.7164 10.666 24.8284C10.7485 24.962 10.8343 25.0929 10.9161 25.227C11.2912 25.8425 11.6514 26.4701 12.0037 27.1031C11.8298 27.0638 11.6558 27.0263 11.4819 26.9884C11.0872 26.9021 10.6904 26.8213 10.2937 26.7477C9.51386 26.6033 8.73321 26.4506 7.96258 26.2529C7.92932 26.2443 7.91649 26.3021 7.94975 26.3107C8.73161 26.5175 9.50625 26.759 10.2825 26.9916C10.6568 27.104 11.0343 27.2069 11.4126 27.3008C11.6017 27.3478 11.7913 27.3952 11.9812 27.439C12.063 27.458 12.1391 27.4819 12.2113 27.4837C12.9579 28.8482 13.6596 30.2451 14.308 31.6701C14.5933 32.2968 14.8674 32.9303 15.1339 33.5673C15.4072 34.2216 15.6412 34.8893 15.8933 35.5531C15.9422 35.6863 16.129 35.6316 16.0877 35.4872Z" fill="#111111"/>
<path id="Vector_13" d="M10.854 22.2472C10.7567 21.6977 10.6533 21.1496 10.5455 20.6024C10.5379 20.5649 10.4882 20.5825 10.4946 20.6195C10.5916 21.1591 10.6837 21.7 10.7707 22.2423C10.8569 22.78 10.9262 23.3308 11.0608 23.8564C11.0632 23.8659 11.0769 23.8636 11.0765 23.8537C11.0504 23.315 10.9478 22.775 10.854 22.2472Z" fill="#111111"/>
<path id="Vector_14" d="M7.8726 22.0869C7.63536 21.9537 7.38489 21.8462 7.13803 21.7383C7.00859 21.6819 6.87916 21.625 6.75052 21.5672C6.6848 21.5379 6.61867 21.5081 6.55295 21.4783C6.48322 21.4467 6.39746 21.4227 6.33694 21.3717C6.29847 21.3392 6.27363 21.4151 6.31211 21.4223C6.38745 21.4363 6.46118 21.4877 6.53091 21.523C6.59543 21.5555 6.65995 21.588 6.72447 21.6205C6.8487 21.6828 6.97333 21.746 7.09756 21.8079C7.34402 21.9307 7.59529 22.0539 7.85257 22.1447C7.88262 22.1555 7.90065 22.1027 7.8726 22.0869Z" fill="#111111"/>
</g>
<g id="Group_6">
<path id="Vector_15" d="M18.921 25.2733C18.921 25.2733 22.0156 18.7607 26.7231 17.7525C31.4307 16.7442 34.3116 22.2012 34.3116 22.2012C34.3116 22.2012 30.878 27.1416 26.558 28.004C22.238 28.8664 18.921 25.2733 18.921 25.2733Z" fill="#97C233"/>
<path id="Vector_16" d="M29.8781 20.6711C28.6583 20.4828 27.4091 20.5049 26.1861 20.7208C26.2566 20.677 26.3267 20.6336 26.3961 20.5939C26.7455 20.3943 27.093 20.1911 27.4404 19.9875C28.1629 19.564 28.8939 19.1129 29.6509 18.7716C29.6862 18.7558 29.6645 18.6989 29.6293 18.7174C28.8931 19.1039 28.1297 19.4276 27.3907 19.8105C27.0212 20.002 26.6578 20.2015 26.2987 20.416C26.0667 20.5546 25.809 20.686 25.581 20.8517C24.5466 21.0905 23.5368 21.4612 22.5886 21.9719C22.785 21.7312 22.9817 21.491 23.1773 21.2499C23.6161 20.7086 24.0473 20.1406 24.5294 19.6475C24.5546 19.6218 24.5162 19.5807 24.4909 19.6064C23.998 20.1108 23.4782 20.5772 23.0002 21.1014C22.7685 21.3556 22.5465 21.6193 22.3305 21.8906C22.2227 22.0256 22.1149 22.1656 22.0123 22.3101C19.9653 23.5635 18.2237 25.4562 17.0747 27.7435C16.4219 29.0434 15.9659 30.4494 15.701 31.9119C15.6942 31.9484 15.7411 31.9692 15.7511 31.9313C16.3975 29.4728 17.6178 27.1624 19.2115 25.3334C20.9407 23.349 23.1256 21.915 25.5184 21.2224C26.9391 20.8111 28.4082 20.6679 29.8709 20.7767C29.9322 20.7799 29.937 20.6801 29.8781 20.6711Z" fill="#111111"/>
<path id="Vector_17" opacity="0.1" d="M34.3131 22.2016C34.3131 22.2016 30.8787 27.1429 26.5575 28.0039C23.2621 28.6622 20.5511 26.7257 19.4507 25.7725L19.213 25.3323C19.213 25.3323 21.4416 23.2156 25.6574 21.9948C29.8728 20.7743 34.3131 22.2016 34.3131 22.2016Z" fill="black"/>
<path id="Vector_18" d="M27.1442 18.3494C26.7864 18.595 26.4313 18.8393 26.0987 19.1269C25.7713 19.4096 25.4667 19.717 25.1906 20.0629C25.1661 20.0936 25.2042 20.1324 25.2311 20.1062C25.5436 19.8006 25.8578 19.4945 26.182 19.2046C26.5006 18.9201 26.8248 18.6384 27.1723 18.4C27.2011 18.3801 27.1735 18.3291 27.1442 18.3494Z" fill="#111111"/>
<path id="Vector_19" d="M29.7273 19.4515C29.5529 19.5337 29.3746 19.6041 29.2003 19.6859C29.0256 19.7676 28.8508 19.8493 28.6761 19.931C28.6388 19.9486 28.6565 20.0173 28.6945 19.9997C28.8697 19.9197 29.0448 19.8398 29.2199 19.7595C29.3955 19.6795 29.567 19.5883 29.7425 19.5084C29.7742 19.4944 29.7589 19.4366 29.7273 19.4515Z" fill="#111111"/>
</g>
<g id="Group_7">
<path id="Vector_20" d="M18.3042 33.4691C18.3042 33.4691 19.1313 39.9293 23.4425 42.1891C27.7542 44.4489 33.0103 42.1891 33.0103 42.1891C33.0103 42.1891 30.9433 28.2121 18.3042 33.4691Z" fill="#97C233"/>
<path id="Vector_21" d="M30.0398 37.9868C29.6422 37.9358 29.2467 37.8595 28.8532 37.7782C28.66 37.7385 28.4664 37.6974 28.2737 37.655C28.1759 37.6333 28.0737 37.6066 27.9711 37.5868C27.8549 37.4649 27.7407 37.3407 27.6217 37.2224C26.8054 36.412 25.9205 35.6936 24.9848 35.0687C24.4754 34.7283 23.9468 34.4235 23.4046 34.154C23.4315 34.1553 23.4587 34.1567 23.486 34.158C23.9589 34.181 24.4321 34.2027 24.905 34.2276C25.8516 34.2768 26.7977 34.3007 27.7435 34.3693C27.7776 34.3716 27.776 34.312 27.7423 34.3097C26.7929 34.237 25.8488 34.1196 24.901 34.028C24.4414 33.9833 23.9817 33.9363 23.5221 33.8898C23.2852 33.8659 23.0484 33.8433 22.8119 33.8203C22.7514 33.8144 22.6905 33.8058 22.63 33.7982C22.3839 33.6948 22.1363 33.5972 21.8858 33.5097C20.7068 33.0974 19.4421 32.934 18.2338 33.2825C17.149 33.5954 16.0666 34.3964 15.7857 35.6846C15.7761 35.7293 15.8374 35.76 15.8542 35.7148C16.2586 34.638 17.3193 34.0962 18.2767 33.8722C18.9203 33.7219 19.5795 33.73 20.2291 33.8293C20.2556 34.1603 20.3666 34.5007 20.4467 34.8059C20.5662 35.2606 20.6836 35.7157 20.8058 36.1691C21.0503 37.0761 21.3196 37.9751 21.558 38.884C21.5676 38.921 21.6169 38.9038 21.6089 38.8668C21.4089 37.9602 21.2398 37.0454 21.0458 36.137C20.9505 35.6909 20.8511 35.2457 20.7529 34.8005C20.69 34.5152 20.6375 34.1779 20.5357 33.8822C20.9148 33.9571 21.2899 34.0587 21.6546 34.1792C22.317 34.3987 22.9698 34.6709 23.6086 34.9856C23.6719 35.4462 23.7629 35.9027 23.8571 36.3564C23.9749 36.9267 24.1063 37.492 24.2666 38.0491C24.2767 38.0844 24.3215 38.0681 24.3151 38.0329C24.3087 37.9977 24.3023 37.9624 24.2959 37.9277C24.2955 37.9268 24.2947 37.9263 24.2947 37.9263C24.1981 37.3981 24.0947 36.8716 23.9957 36.3438C23.916 35.9185 23.8427 35.4909 23.7609 35.066C24.2963 35.3369 24.8229 35.6336 25.3322 35.9627C25.3426 36.0946 25.3711 36.2291 25.3879 36.3492C25.4192 36.5709 25.4548 36.7917 25.4909 37.012C25.5723 37.5105 25.66 38.0071 25.7662 38.4997C25.9702 39.4479 26.1994 40.3965 26.5076 41.309C26.5012 41.3199 26.4988 41.3343 26.5084 41.3465C26.5164 41.3574 26.5248 41.3682 26.5329 41.3786C26.5513 41.4029 26.5821 41.3745 26.5765 41.3483C26.377 40.3911 26.1493 39.4416 25.9626 38.4808C25.8692 38.0013 25.7754 37.5213 25.6901 37.04C25.6472 36.7994 25.6083 36.5583 25.5679 36.3167C25.5566 36.249 25.5478 36.1749 25.5382 36.1004C26.1201 36.4883 26.6835 36.9082 27.2169 37.3619C28.1366 38.1444 29.0183 39.0379 29.7869 40.0051C29.8178 40.0439 29.8787 39.9893 29.8502 39.9473C29.5212 39.4606 29.1946 38.9842 28.8223 38.535C28.6055 38.2731 28.3803 38.0202 28.1511 37.7724C28.1747 37.7769 28.1996 37.7818 28.2228 37.7864C28.4248 37.8247 28.6271 37.8586 28.8303 37.8888C29.2291 37.9489 29.629 37.9931 30.0289 38.0442C30.0606 38.0491 30.0738 37.9909 30.0398 37.9868Z" fill="#111111"/>
<path id="Vector_22" d="M27.0098 40.1772C27.003 40.1208 26.995 40.0648 26.9854 40.0097C26.9729 39.9379 26.9421 39.8697 26.9333 39.7984C26.9333 39.797 26.9321 39.797 26.9321 39.7961C26.8431 39.3645 26.7682 38.9297 26.6992 38.4931C26.6944 38.4628 26.6516 38.4718 26.6524 38.5016C26.6708 39.0782 26.7974 39.6512 26.9802 40.188C26.9862 40.2052 27.013 40.2034 27.0106 40.1826C27.0102 40.1804 27.0098 40.1786 27.0098 40.1772Z" fill="#111111"/>
<path id="Vector_23" d="M23.4012 40.0733C23.4 40.0552 23.3879 40.0466 23.3755 40.0462C23.2545 39.4741 23.1383 38.9016 23.0333 38.3255C22.9784 38.0225 22.9219 37.7204 22.8706 37.4166C22.8429 37.2531 22.8161 37.0897 22.7904 36.9258C22.768 36.7845 22.7568 36.6337 22.6975 36.5059C22.6874 36.4842 22.6526 36.4892 22.649 36.5144C22.6129 36.7858 22.7123 37.1145 22.7572 37.3813C22.8101 37.6965 22.8646 38.0117 22.9259 38.325C23.0509 38.9621 23.1928 39.5974 23.3523 40.2245C23.3611 40.2597 23.412 40.2516 23.4096 40.2141C23.4068 40.1672 23.404 40.1202 23.4012 40.0733Z" fill="#111111"/>
<path id="Vector_24" d="M29.646 36.1262C28.8585 36.0047 28.0714 35.876 27.2824 35.7686C27.2491 35.7641 27.2355 35.8209 27.2695 35.8268C28.0558 35.9577 28.8449 36.0679 29.6331 36.1844C29.6668 36.1889 29.68 36.1311 29.646 36.1262Z" fill="#111111"/>
</g>
<g id="Group_8">
<path id="Vector_25" d="M16.0947 18.3182C16.0947 18.3182 13.4566 5.27724 25.8929 0C25.8929 0 29.3385 17.1655 16.0947 18.3182Z" fill="#97C233"/>
<path id="Vector_26" d="M18.7792 10.922C18.8261 10.8886 18.871 10.8565 18.9127 10.8303C19.1479 10.6845 19.3815 10.5355 19.6156 10.3879L21.0583 9.47896C22.0076 8.88071 22.9446 8.25899 23.8999 7.67338C23.93 7.65487 23.9019 7.6043 23.8719 7.62236C22.9145 8.20887 21.9403 8.7579 20.9769 9.33177L19.5515 10.1806C19.3575 10.2962 19.1631 10.4113 18.9692 10.5274C19.3839 9.64106 19.8272 8.7719 20.3141 7.9348C20.9641 6.81777 21.6758 5.75356 22.4176 4.71238C22.4517 4.66452 22.396 4.60311 22.3559 4.64646C21.259 5.82896 20.3093 7.18169 19.4805 8.61839C19.4817 8.57279 19.4825 8.52628 19.4841 8.48248C19.4982 8.15785 19.5058 7.83367 19.5098 7.50903C19.5182 6.87286 19.4909 6.23487 19.5078 5.59914C19.509 5.56076 19.4561 5.56257 19.4549 5.6005C19.4316 6.22674 19.3647 6.85118 19.3331 7.47742C19.3174 7.78987 19.3054 8.10231 19.297 8.41521C19.2926 8.58407 19.2782 8.77687 19.2838 8.96199C19.0277 9.42118 18.7816 9.88713 18.5492 10.3594C18.1348 11.2006 17.7637 12.0819 17.4375 12.9854C17.4251 12.6603 17.4075 12.3361 17.3906 12.0115C17.3534 11.2976 17.276 10.5865 17.2496 9.87223C17.248 9.83385 17.1959 9.83521 17.1967 9.87359C17.2099 10.5879 17.1803 11.3022 17.1999 12.0169C17.2099 12.374 17.2195 12.7307 17.2404 13.087C17.248 13.2179 17.254 13.3516 17.262 13.4852C16.8657 14.6555 16.5471 15.8597 16.3227 17.0688C16.0802 18.3751 15.9816 19.6835 15.8594 21.0069C15.8586 21.0164 15.8718 21.0159 15.8726 21.0065C15.9816 19.8267 16.2473 18.6351 16.5327 17.4951C16.6865 16.8797 16.8488 16.2674 17.024 15.6597C17.5417 15.3852 18.0367 15.0425 18.5368 14.7305C19.0553 14.4067 19.5775 14.0898 20.0977 13.7683C21.1348 13.1276 22.1707 12.4747 23.2415 11.9081C23.2724 11.8918 23.2443 11.8417 23.2135 11.8571C22.1291 12.4102 21.0362 12.9366 19.9718 13.5389C19.4417 13.8392 18.9203 14.1593 18.4037 14.4876C17.9721 14.7616 17.5281 15.0361 17.1153 15.3513C17.2364 14.9454 17.3618 14.5413 17.4992 14.1417C17.878 13.0472 18.3043 11.9708 18.7792 10.922Z" fill="#111111"/>
<path id="Vector_27" d="M17.7307 7.94023C17.7283 7.90185 17.6754 7.9032 17.6778 7.94158C17.7223 8.68566 17.7447 9.4293 17.8149 10.1711C17.8189 10.2127 17.8746 10.2122 17.8734 10.1693C17.8501 9.42389 17.7792 8.68431 17.7307 7.94023Z" fill="#111111"/>
<path id="Vector_28" d="M23.693 10.4308C22.9143 10.7838 22.1293 11.1193 21.3547 11.4846C21.333 11.495 21.3426 11.5343 21.3655 11.5248C22.1513 11.1934 22.9268 10.8317 23.7082 10.4881C23.7399 10.4741 23.7247 10.4163 23.693 10.4308Z" fill="#111111"/>
<path id="Vector_29" d="M24.8755 4.41617C24.1145 4.8135 23.3763 5.25372 22.6638 5.75309C22.6277 5.77837 22.6618 5.84114 22.6986 5.81675C23.42 5.34131 24.1545 4.88574 24.9031 4.46719C24.9344 4.44958 24.9059 4.40037 24.8755 4.41617Z" fill="#111111"/>
</g>
</g>
<g id="Group_9">
<path id="Vector_30" d="M24.6884 46.5186H6.75305V67.8181H24.6884V46.5186Z" fill="white"/>
<g id="Group_10">
<path id="Vector_31" d="M6.43735 54.0552H5.51965V90.5385H6.43735V54.0552Z" fill="#111111"/>
<path id="Vector_32" d="M25.8269 54.0552H24.9092V90.5385H25.8269V54.0552Z" fill="#111111"/>
<path id="Vector_33" d="M16.62 54.0552H15.7023V90.5385H16.62V54.0552Z" fill="#111111"/>
<path id="Vector_34" d="M25.3679 66.4526H5.97864V69.4019H25.3679V66.4526Z" fill="#111111"/>
</g>
</g>
</g>
</g>
</svg>
