<svg width="96" height="67" viewBox="0 0 96 67" fill="none" xmlns="http://www.w3.org/2000/svg">
<g opacity="0.5">
<path d="M94.9519 4.44189H0.241211V66.0961H94.9519V4.44189Z" fill="#EBEBEB"/>
<path d="M94.9523 66.0961L0.241604 66.2679H0.0697691V66.0955L0 4.44122V4.19897H0.24225L94.9529 4.26616H95.128L95.1274 4.44058L95.0699 35.3161L94.9523 66.0961ZM94.9523 66.0961L94.8347 35.2205L94.7772 4.44187L94.9517 4.61629L0.240959 4.68347L0.482563 4.44187L0.412794 66.0961L0.240959 65.9243L94.9523 66.0961Z" fill="#EBEBEB"/>
</g>
<path d="M94.9519 0H0.241211V4.4419H94.9519V0Z" fill="#2A6E26"/>
<path d="M3.77122 2.22094C3.77122 2.82947 3.27832 3.32236 2.66979 3.32236C2.06126 3.32236 1.56836 2.82882 1.56836 2.22094C1.56836 1.61241 2.0619 1.11951 2.66979 1.11951C3.27832 1.11951 3.77122 1.61241 3.77122 2.22094Z" fill="#C7C7C7"/>
<path d="M8.27024 2.22094C8.27024 2.82947 7.7767 3.32236 7.16881 3.32236C6.56028 3.32236 6.06738 2.82882 6.06738 2.22094C6.06738 1.61241 6.56028 1.11951 7.16881 1.11951C7.7767 1.11951 8.27024 1.61241 8.27024 2.22094Z" fill="white"/>
<path d="M12.768 2.22094C12.768 2.82947 12.2751 3.32236 11.6666 3.32236C11.0581 3.32236 10.5652 2.82882 10.5652 2.22094C10.5652 1.61241 11.0581 1.11951 11.6666 1.11951C12.2751 1.11951 12.768 1.61241 12.768 2.22094Z" fill="#97C233"/>
<path d="M84.3841 13.4032H17.6904V19.9039H84.3841V13.4032Z" fill="white"/>
<path d="M53.0244 15.2468H19.8574V18.0608H53.0244V15.2468Z" fill="#97C233"/>
<path d="M84.3841 22.9459H17.6904V29.4466H84.3841V22.9459Z" fill="white"/>
<path d="M71.6104 24.7889H19.8574V27.6036H71.6104V24.7889Z" fill="#2A6E26"/>
<path d="M84.3841 32.488H17.6904V38.9887H84.3841V32.488Z" fill="white"/>
<path d="M32.8297 34.3318H19.8574V37.1458H32.8297V34.3318Z" fill="#97C233"/>
<path d="M84.3841 42.0308H17.6904V48.5315H84.3841V42.0308Z" fill="white"/>
<path d="M60.9669 43.8738H19.8574V46.6878H60.9669V43.8738Z" fill="#2A6E26"/>
<path d="M84.3841 51.5728H17.6904V58.0734H84.3841V51.5728Z" fill="white"/>
<path d="M67.0671 53.4165H19.8574V56.2305H67.0671V53.4165Z" fill="#97C233"/>
<path d="M9.31149 16.8595C9.31149 17.2775 8.97105 17.6153 8.55244 17.6153C8.15903 17.6153 7.83732 17.3188 7.79921 16.9377C7.79921 16.9345 7.7992 16.9345 7.79662 16.9312C7.79339 16.8712 7.79016 16.8124 7.79016 16.7529C7.79016 16.5436 7.82181 16.3188 7.89933 16.1127C7.9775 15.9067 8.10541 15.7096 8.30179 15.5785C8.43358 15.4906 8.59249 15.4377 8.77079 15.4312C8.86769 15.4286 8.94585 15.5003 8.95231 15.5972C8.95554 15.6909 8.88061 15.7691 8.78371 15.7788C8.66549 15.7813 8.57118 15.8162 8.48978 15.866C8.41161 15.9196 8.34637 15.9913 8.29339 16.085C8.27789 16.1102 8.26561 16.1386 8.25269 16.1664C8.34313 16.1257 8.4465 16.1037 8.55244 16.1037C8.9704 16.1031 9.31149 16.4409 9.31149 16.8595ZM8.96459 16.8595C8.96459 16.6347 8.78048 16.4474 8.55244 16.4474C8.3244 16.4474 8.14352 16.6347 8.14352 16.8595C8.14352 17.0876 8.3244 17.2684 8.55244 17.2684C8.78048 17.2684 8.96459 17.0869 8.96459 16.8595Z" fill="#111111"/>
<path d="M9.79797 16.5215C9.8012 16.234 9.87291 15.9743 10.0105 15.7747C10.1423 15.5745 10.3451 15.4285 10.5919 15.4285C10.8322 15.4285 11.0383 15.5751 11.1694 15.7747C11.3038 15.9743 11.3794 16.2347 11.3794 16.5215C11.3794 16.8057 11.3044 17.068 11.1694 17.2683C11.0383 17.4647 10.8322 17.6152 10.5919 17.6152C10.3445 17.6152 10.1416 17.4647 10.0105 17.2683C9.87291 17.068 9.8012 16.8057 9.79797 16.5215ZM11.0318 16.5215C11.0318 16.2967 10.9692 16.0997 10.882 15.9653C10.7915 15.8342 10.6882 15.7715 10.5913 15.7747C10.4937 15.7715 10.3878 15.8342 10.2948 15.9653C10.2069 16.0997 10.1442 16.296 10.1442 16.5215C10.1442 16.7437 10.2069 16.9433 10.2948 17.0745C10.3884 17.2088 10.4944 17.2683 10.5913 17.2683C10.6882 17.2683 10.7915 17.2088 10.882 17.0745C10.9692 16.9433 11.0318 16.7437 11.0318 16.5215Z" fill="#111111"/>
<path d="M11.9846 15.9678V15.962C11.9846 15.6558 12.1939 15.4026 12.5027 15.4026C12.8121 15.4026 13.015 15.6558 13.015 15.9556V15.962C13.015 16.2644 12.8096 16.5208 12.4969 16.5208C12.1913 16.5215 11.9846 16.2682 11.9846 15.9678ZM12.7372 15.9678V15.962C12.7372 15.7863 12.6377 15.6429 12.4969 15.6429C12.3496 15.6429 12.2624 15.7863 12.2624 15.9556V15.962C12.2624 16.1397 12.3619 16.2805 12.5027 16.2805C12.65 16.2812 12.7372 16.1377 12.7372 15.9678ZM12.3438 17.4278L13.7779 15.4691C13.7999 15.4317 13.8399 15.4129 13.8839 15.4129C13.953 15.4129 14.0092 15.4659 14.0092 15.535C14.0092 15.5667 13.9969 15.5945 13.9808 15.6164L12.5473 17.5744C12.5221 17.6119 12.482 17.6306 12.4381 17.6306C12.369 17.6306 12.316 17.5777 12.316 17.5086C12.316 17.4769 12.3283 17.4491 12.3438 17.4278ZM13.3063 17.0867V17.0803C13.3063 16.774 13.5156 16.5208 13.8244 16.5208C14.1306 16.5208 14.3367 16.7734 14.3367 17.0738V17.0803C14.3367 17.3832 14.1274 17.6397 13.8186 17.6397C13.5118 17.6397 13.3063 17.3865 13.3063 17.0867ZM14.0589 17.0867V17.0803C14.0589 16.9052 13.9594 16.7618 13.8186 16.7618C13.6713 16.7618 13.5848 16.9052 13.5848 17.0738V17.0803C13.5848 17.2585 13.6842 17.3987 13.8251 17.3987C13.9717 17.3987 14.0589 17.2553 14.0589 17.0867Z" fill="#111111"/>
<path d="M7.7959 25.7265C7.7959 25.3079 8.13634 24.9707 8.55495 24.9707C8.94836 24.9707 9.27007 25.2672 9.30754 25.6484C9.30754 25.6516 9.30754 25.6516 9.31077 25.6548C9.31335 25.7143 9.31723 25.773 9.31723 25.8331C9.31723 26.0424 9.28558 26.2672 9.20806 26.4733C9.12989 26.6794 9.00198 26.8758 8.80495 27.0075C8.67382 27.0948 8.51425 27.1484 8.3366 27.1542C8.2397 27.1574 8.16153 27.0851 8.15507 26.9882C8.15184 26.8945 8.22678 26.8163 8.32368 26.8073C8.4419 26.8041 8.53622 26.7698 8.61697 26.7194C8.69513 26.6665 8.76103 26.5947 8.814 26.5004C8.8295 26.4752 8.84177 26.4475 8.85469 26.4197C8.76425 26.4604 8.66089 26.4817 8.55495 26.4817C8.13634 26.4823 7.7959 26.1451 7.7959 25.7265ZM8.1428 25.7265C8.1428 25.9513 8.32691 26.1387 8.55495 26.1387C8.78299 26.1387 8.96387 25.9513 8.96387 25.7265C8.96387 25.4985 8.78299 25.3176 8.55495 25.3176C8.32691 25.3176 8.1428 25.4985 8.1428 25.7265Z" fill="#111111"/>
<path d="M9.79785 26.0635C9.80108 25.7767 9.87279 25.517 10.0104 25.3174C10.1422 25.1177 10.345 24.9705 10.5918 24.9705C10.8321 24.9705 11.0382 25.1177 11.1693 25.3174C11.3037 25.5176 11.3793 25.7767 11.3793 26.0635C11.3793 26.3484 11.3043 26.61 11.1693 26.8103C11.0382 27.0073 10.8321 27.1572 10.5918 27.1572C10.3444 27.1572 10.1415 27.0073 10.0104 26.8103C9.87279 26.61 9.80108 26.3484 9.79785 26.0635ZM11.0317 26.0635C11.0317 25.8393 10.9691 25.6423 10.8818 25.5073C10.7914 25.3761 10.688 25.3135 10.5911 25.3167C10.4936 25.3135 10.3877 25.3761 10.2946 25.5073C10.2068 25.6416 10.1441 25.8387 10.1441 26.0635C10.1441 26.2857 10.2068 26.4853 10.2946 26.6165C10.3883 26.7508 10.4942 26.8103 10.5911 26.8103C10.688 26.8103 10.7914 26.7508 10.8818 26.6165C10.9691 26.4853 11.0317 26.2857 11.0317 26.0635Z" fill="#111111"/>
<path d="M11.9846 25.5112V25.5047C11.9846 25.1985 12.1939 24.9453 12.5027 24.9453C12.8121 24.9453 13.015 25.1979 13.015 25.4983V25.5047C13.015 25.8077 12.8096 26.0635 12.4969 26.0635C12.1913 26.0635 11.9846 25.8103 11.9846 25.5112ZM12.7372 25.5112V25.5047C12.7372 25.3297 12.6377 25.1856 12.4969 25.1856C12.3496 25.1856 12.2624 25.3297 12.2624 25.4983V25.5047C12.2624 25.6824 12.3619 25.8232 12.5027 25.8232C12.65 25.8232 12.7372 25.6798 12.7372 25.5112ZM12.3438 26.9699L13.7779 25.0112C13.7999 24.9737 13.8399 24.9557 13.8839 24.9557C13.953 24.9557 14.0092 25.0086 14.0092 25.0771C14.0092 25.1087 13.9969 25.1372 13.9808 25.1585L12.5473 27.1172C12.5221 27.1546 12.482 27.1727 12.4381 27.1727C12.369 27.1727 12.316 27.1197 12.316 27.0513C12.316 27.0196 12.3283 26.9912 12.3438 26.9699ZM13.3063 26.6288V26.6223C13.3063 26.3168 13.5156 26.0629 13.8244 26.0629C14.1306 26.0629 14.3367 26.3161 14.3367 26.6159V26.6223C14.3367 26.9253 14.1274 27.1818 13.8186 27.1818C13.5118 27.1824 13.3063 26.9292 13.3063 26.6288ZM14.0589 26.6288V26.6223C14.0589 26.4473 13.9594 26.3038 13.8186 26.3038C13.6713 26.3038 13.5848 26.4473 13.5848 26.6159V26.6223C13.5848 26.8006 13.6842 26.9414 13.8251 26.9414C13.9717 26.9414 14.0589 26.7974 14.0589 26.6288Z" fill="#111111"/>
<path d="M8.9772 35.3712C9.13031 35.521 9.20524 35.7206 9.20524 35.9177C9.20524 36.1141 9.13031 36.3143 8.9772 36.4674C8.82733 36.6173 8.62772 36.6961 8.42746 36.6961C8.23043 36.6961 8.03017 36.6173 7.88094 36.4674C7.81182 36.3983 7.81182 36.2865 7.88094 36.2174C7.95007 36.1489 8.06182 36.1489 8.13095 36.2174C8.2117 36.2988 8.31829 36.3395 8.42746 36.3395C8.53663 36.3395 8.64258 36.2988 8.7272 36.2174C8.81183 36.1328 8.85253 36.0268 8.85253 35.9177C8.85253 35.8085 8.81183 35.7019 8.7272 35.6212C8.64645 35.5365 8.53986 35.4991 8.43069 35.4965C8.38095 35.4991 8.33379 35.4777 8.30278 35.4403C8.29955 35.4403 8.29955 35.4403 8.29955 35.437C8.22784 35.3686 8.22785 35.2594 8.29309 35.1877L8.61157 34.8628H8.10575C8.00885 34.8628 7.93068 34.7846 7.93068 34.6851C7.93068 34.5882 8.00885 34.5094 8.10575 34.5094H9.02759C9.12708 34.5094 9.20524 34.5882 9.20524 34.6851C9.20524 34.7161 9.1962 34.7445 9.18328 34.7697C9.17423 34.7852 9.16454 34.8007 9.15162 34.813L8.75821 35.2194C8.8396 35.2555 8.91454 35.3059 8.9772 35.3712Z" fill="#111111"/>
<path d="M9.69812 35.6056C9.70135 35.3188 9.77306 35.0591 9.91066 34.8595C10.0424 34.6599 10.2453 34.5126 10.4921 34.5126C10.7324 34.5126 10.9384 34.6599 11.0696 34.8595C11.2039 35.0597 11.2795 35.3188 11.2795 35.6056C11.2795 35.8905 11.2046 36.1521 11.0696 36.3524C10.9384 36.5494 10.7324 36.6993 10.4921 36.6993C10.2446 36.6993 10.0418 36.5494 9.91066 36.3524C9.7737 36.1521 9.70135 35.8905 9.69812 35.6056ZM10.9326 35.6056C10.9326 35.3814 10.87 35.1844 10.7828 35.0494C10.6923 34.9183 10.589 34.8556 10.4921 34.8588C10.3952 34.8556 10.2886 34.9183 10.1949 35.0494C10.1077 35.1838 10.045 35.3808 10.045 35.6056C10.045 35.8278 10.1077 36.0274 10.1949 36.1586C10.2892 36.293 10.3952 36.3524 10.4921 36.3524C10.589 36.3524 10.6923 36.293 10.7828 36.1586C10.87 36.0274 10.9326 35.8278 10.9326 35.6056Z" fill="#111111"/>
<path d="M11.8849 35.0526V35.0461C11.8849 34.7399 12.0942 34.4867 12.403 34.4867C12.7124 34.4867 12.9153 34.7393 12.9153 35.0397V35.0461C12.9153 35.3491 12.7098 35.6049 12.3972 35.6049C12.091 35.6056 11.8849 35.3523 11.8849 35.0526ZM12.6375 35.0526V35.0461C12.6375 34.8711 12.538 34.727 12.3972 34.727C12.2505 34.727 12.1633 34.8711 12.1633 35.0397V35.0461C12.1633 35.2238 12.2628 35.3646 12.4036 35.3646C12.5503 35.3653 12.6375 35.2212 12.6375 35.0526ZM12.2441 36.5119L13.6782 34.5532C13.6995 34.5158 13.7402 34.4977 13.7841 34.4977C13.8533 34.4977 13.9095 34.5506 13.9095 34.6191C13.9095 34.6508 13.8972 34.6792 13.881 34.7005L12.4476 36.6592C12.4224 36.6967 12.3823 36.7148 12.3384 36.7148C12.2693 36.7148 12.2163 36.6618 12.2163 36.5933C12.2163 36.5616 12.2286 36.5332 12.2441 36.5119ZM13.2066 36.1708V36.1644C13.2066 35.8582 13.4159 35.6049 13.7247 35.6049C14.0303 35.6049 14.237 35.8581 14.237 36.1579V36.1644C14.237 36.4673 14.0277 36.7238 13.7189 36.7238C13.412 36.7244 13.2066 36.4712 13.2066 36.1708ZM13.9592 36.1708V36.1644C13.9592 35.9893 13.8597 35.8459 13.7189 35.8459C13.5716 35.8459 13.485 35.9893 13.485 36.1579V36.1644C13.485 36.3427 13.5845 36.4835 13.7253 36.4835C13.872 36.4835 13.9592 36.3394 13.9592 36.1708Z" fill="#111111"/>
<path d="M9.19153 44.2919L8.41051 46.1381C8.38597 46.2034 8.3233 46.2415 8.2516 46.2415C8.23286 46.2415 8.20767 46.2389 8.18635 46.2292C8.0985 46.1885 8.05844 46.0884 8.09203 46.0044L8.76711 44.4023H7.9609C7.86658 44.4023 7.78906 44.3209 7.78906 44.2273C7.78906 44.1304 7.86723 44.0554 7.9609 44.0554H9.03261C9.04165 44.0554 9.05135 44.0554 9.06427 44.058C9.08623 44.0612 9.10755 44.0742 9.12951 44.0832C9.13209 44.0864 9.13597 44.0897 9.13855 44.0929C9.14501 44.0961 9.14824 44.0993 9.15083 44.1052C9.15406 44.1116 9.16052 44.1142 9.1631 44.1181C9.16633 44.1245 9.16956 44.1271 9.17279 44.1304C9.17538 44.1329 9.17925 44.1426 9.17925 44.1459C9.18183 44.1523 9.18571 44.1549 9.19088 44.1614C9.19088 44.1646 9.19411 44.1736 9.19411 44.1775C9.19669 44.184 9.19669 44.1866 9.20057 44.193C9.20315 44.215 9.20315 44.2402 9.20057 44.2621C9.19799 44.2731 9.19476 44.2828 9.19153 44.2919Z" fill="#111111"/>
<path d="M9.5625 45.1477C9.56573 44.8609 9.63744 44.6018 9.77504 44.4016C9.90682 44.2013 10.1097 44.0547 10.3564 44.0547C10.5967 44.0547 10.8028 44.2013 10.934 44.4016C11.0683 44.6018 11.1439 44.8609 11.1439 45.1477C11.1439 45.4326 11.069 45.6949 10.934 45.8945C10.8028 46.0915 10.5967 46.2414 10.3564 46.2414C10.109 46.2414 9.90617 46.0915 9.77504 45.8945C9.63744 45.6942 9.56573 45.4326 9.5625 45.1477ZM10.797 45.1477C10.797 44.9235 10.7343 44.7265 10.6471 44.5922C10.5567 44.461 10.4533 44.3984 10.3564 44.4016C10.2595 44.3984 10.1529 44.461 10.0593 44.5922C9.97207 44.7265 9.9094 44.9235 9.9094 45.1477C9.9094 45.3699 9.97207 45.5696 10.0593 45.7007C10.1529 45.8351 10.2595 45.8945 10.3564 45.8945C10.4533 45.8945 10.5567 45.8351 10.6471 45.7007C10.7343 45.5696 10.797 45.3699 10.797 45.1477Z" fill="#111111"/>
<path d="M11.75 44.5947V44.5882C11.75 44.282 11.9593 44.0288 12.2681 44.0288C12.5775 44.0288 12.7804 44.2814 12.7804 44.5818V44.5882C12.7804 44.8912 12.5749 45.147 12.2623 45.147C11.9561 45.1477 11.75 44.8945 11.75 44.5947ZM12.5026 44.5947V44.5882C12.5026 44.4132 12.4031 44.2691 12.2623 44.2691C12.115 44.2691 12.0284 44.4132 12.0284 44.5818V44.5882C12.0284 44.7659 12.1279 44.9067 12.2687 44.9067C12.4154 44.9074 12.5026 44.7633 12.5026 44.5947ZM12.1092 46.054L13.5433 44.0953C13.5653 44.0579 13.6053 44.0398 13.6492 44.0398C13.7184 44.0398 13.7746 44.0928 13.7746 44.1612C13.7746 44.1922 13.7623 44.2213 13.7461 44.2426L12.3127 46.2013C12.2875 46.2388 12.2474 46.2569 12.2035 46.2569C12.1344 46.2569 12.0814 46.2039 12.0814 46.1354C12.0808 46.1038 12.0937 46.0753 12.1092 46.054ZM13.0717 45.7129V45.7065C13.0717 45.4009 13.281 45.147 13.5898 45.147C13.896 45.147 14.1021 45.4003 14.1021 45.7V45.7065C14.1021 46.0094 13.8928 46.2659 13.5833 46.2659C13.2771 46.2666 13.0717 46.0133 13.0717 45.7129ZM13.8243 45.7129V45.7065C13.8243 45.5314 13.7248 45.388 13.584 45.388C13.4374 45.388 13.3501 45.5314 13.3501 45.7V45.7065C13.3501 45.8848 13.4496 46.0256 13.5905 46.0256C13.7371 46.0262 13.8243 45.8815 13.8243 45.7129Z" fill="#111111"/>
<path d="M9.25463 55.0407C9.25463 55.4497 8.92065 55.7843 8.51108 55.7843C8.09893 55.7843 7.76172 55.4497 7.76172 55.0407C7.76172 54.7817 7.89286 54.553 8.0957 54.4186C8.03046 54.3347 7.99234 54.2248 7.99234 54.1092C7.99234 53.8282 8.22361 53.5969 8.51108 53.5969C8.79209 53.5969 9.02336 53.8282 9.02336 54.1092C9.02336 54.2248 8.98654 54.334 8.92 54.4186C9.12026 54.553 9.25463 54.7817 9.25463 55.0407ZM8.91419 55.0407C8.91419 54.8185 8.7333 54.6344 8.51173 54.6344C8.28692 54.6344 8.10539 54.8185 8.10216 55.0407C8.10539 55.2623 8.28692 55.4432 8.51173 55.4432C8.7333 55.4432 8.91419 55.2623 8.91419 55.0407ZM8.33343 54.1092C8.33343 54.2061 8.4116 54.2875 8.51173 54.2875C8.6054 54.2875 8.68356 54.2061 8.68356 54.1092C8.68356 54.0155 8.60475 53.938 8.51173 53.938C8.41095 53.938 8.33343 54.0162 8.33343 54.1092Z" fill="#111111"/>
<path d="M9.76074 54.6904C9.76397 54.4036 9.83568 54.1439 9.97328 53.9443C10.1051 53.7441 10.3079 53.5974 10.5547 53.5974C10.795 53.5974 11.0011 53.7441 11.1322 53.9443C11.2666 54.1439 11.3415 54.4036 11.3415 54.6904C11.3415 54.9753 11.2666 55.237 11.1322 55.4372C11.0011 55.6343 10.795 55.7841 10.5547 55.7841C10.3073 55.7841 10.1044 55.6343 9.97328 55.4372C9.83633 55.237 9.76462 54.9753 9.76074 54.6904ZM10.9953 54.6904C10.9953 54.4663 10.9326 54.2693 10.8454 54.1342C10.7549 54.0031 10.6516 53.9404 10.5547 53.9443C10.4578 53.9411 10.3512 54.0038 10.2575 54.1342C10.1703 54.2686 10.1076 54.4656 10.1076 54.6904C10.1076 54.9127 10.1703 55.1123 10.2575 55.2434C10.3512 55.3778 10.4578 55.4372 10.5547 55.4372C10.6516 55.4372 10.7549 55.3778 10.8454 55.2434C10.9326 55.1123 10.9953 54.9127 10.9953 54.6904Z" fill="#111111"/>
<path d="M11.9471 54.1374V54.131C11.9471 53.8248 12.1564 53.5715 12.4652 53.5715C12.7747 53.5715 12.9775 53.8241 12.9775 54.1245V54.131C12.9775 54.4339 12.7721 54.6898 12.4594 54.6898C12.1532 54.6904 11.9471 54.4372 11.9471 54.1374ZM12.6997 54.1374V54.131C12.6997 53.9559 12.6002 53.8118 12.4594 53.8118C12.3128 53.8118 12.2256 53.9559 12.2256 54.1245V54.131C12.2256 54.3086 12.3251 54.4494 12.4659 54.4494C12.6125 54.4501 12.6997 54.306 12.6997 54.1374ZM12.3063 55.5967L13.7404 53.6381C13.7618 53.6006 13.8025 53.5825 13.8464 53.5825C13.9155 53.5825 13.9717 53.6355 13.9717 53.704C13.9717 53.735 13.9594 53.764 13.9433 53.7854L12.5098 55.744C12.4846 55.7815 12.4446 55.7996 12.4006 55.7996C12.3315 55.7996 12.2785 55.7466 12.2785 55.6781C12.2785 55.6465 12.2908 55.6181 12.3063 55.5967ZM13.2689 55.2557V55.2492C13.2689 54.9436 13.4782 54.6898 13.787 54.6898C14.0925 54.6898 14.2992 54.943 14.2992 55.2427V55.2492C14.2992 55.5522 14.0899 55.8086 13.7811 55.8086C13.4743 55.8093 13.2689 55.556 13.2689 55.2557ZM14.0214 55.2557V55.2492C14.0214 55.0741 13.922 54.9307 13.7811 54.9307C13.6338 54.9307 13.5473 55.0741 13.5473 55.2427V55.2492C13.5473 55.4275 13.6468 55.5683 13.7876 55.5683C13.9342 55.5683 14.0214 55.4243 14.0214 55.2557Z" fill="#111111"/>
</svg>
