<svg width="132" height="74" viewBox="0 0 132 74" fill="none" xmlns="http://www.w3.org/2000/svg">
<g opacity="0.5">
<path d="M130.976 4.91919H0.241211V73.2033H130.976V4.91919Z" fill="#97C233"/>
<path d="M130.977 73.2034L0.241604 73.3759H0.0697691V73.2034L0 4.91925V4.677H0.24225L130.977 4.74419H131.152V4.91862L131.095 39.1094L130.977 73.2034ZM130.977 73.2034L130.802 4.91925L130.977 5.09368L0.241604 5.16087L0.483209 4.91925L0.41344 73.2034L0.241604 73.0316L130.977 73.2034Z" fill="#EBEBEB"/>
</g>
<path d="M130.976 0H0.241211V4.91993H130.976V0Z" fill="#2A6E26"/>
<path d="M4.1514 2.45931C4.1514 3.13309 3.60489 3.67959 2.93111 3.67959C2.25733 3.67959 1.71082 3.13309 1.71082 2.45931C1.71082 1.78553 2.25733 1.23901 2.93111 1.23901C3.60553 1.23966 4.1514 1.78553 4.1514 2.45931Z" fill="#C7C7C7"/>
<path d="M9.13395 2.45931C9.13395 3.13309 8.58743 3.67959 7.91365 3.67959C7.23988 3.67959 6.69336 3.13309 6.69336 2.45931C6.69336 1.78553 7.23923 1.23901 7.91365 1.23901C8.58743 1.23966 9.13395 1.78553 9.13395 2.45931Z" fill="white"/>
<path d="M14.1156 2.45931C14.1156 3.13309 13.5691 3.67959 12.8953 3.67959C12.2215 3.67959 11.6757 3.13309 11.6757 2.45931C11.6757 1.78553 12.2222 1.23901 12.8953 1.23901C13.5691 1.23966 14.1156 1.78553 14.1156 2.45931Z" fill="#97C233"/>
<path d="M10.2961 19.0911C28.9772 18.9988 46.7196 19.022 65.4006 18.9839C84.0816 19.022 102.334 18.9988 121.015 19.0911C102.334 19.1842 84.0816 19.1602 65.4006 19.1984C46.7196 19.1602 28.9772 19.1835 10.2961 19.0911Z" fill="white"/>
<path d="M10.2961 27.9001C28.9772 27.8077 46.7196 27.831 65.4006 27.7928C84.0816 27.831 102.334 27.807 121.015 27.9001C102.334 27.9931 84.0816 27.9692 65.4006 28.0073C46.7196 27.9692 28.9772 27.9925 10.2961 27.9001Z" fill="white"/>
<path d="M10.2961 36.7089C28.9772 36.6166 46.7196 36.6398 65.4006 36.6017C84.0816 36.6398 102.334 36.6159 121.015 36.7089C102.334 36.802 84.0816 36.778 65.4006 36.8162C46.7196 36.778 28.9772 36.8013 10.2961 36.7089Z" fill="white"/>
<path d="M10.2961 45.5177C28.9772 45.4254 46.7196 45.4486 65.4006 45.4105C84.0816 45.4486 102.334 45.4254 121.015 45.5177C102.334 45.6108 84.0816 45.5875 65.4006 45.625C46.7196 45.5869 28.9772 45.6101 10.2961 45.5177Z" fill="white"/>
<path d="M10.2961 54.3266C28.9772 54.2342 46.7196 54.2575 65.4006 54.2194C84.0816 54.2575 102.334 54.2342 121.015 54.3266C102.334 54.419 84.0816 54.3957 65.4006 54.4338C46.7196 54.3957 28.9772 54.419 10.2961 54.3266Z" fill="white"/>
<path d="M20.915 13.3638C21.0074 21.5945 20.9841 29.8251 21.0222 38.0565C20.9841 46.2872 21.008 54.5178 20.915 62.7492C20.822 54.5185 20.8452 46.2872 20.8077 38.0565C20.8465 29.8251 20.8226 21.5945 20.915 13.3638Z" fill="white"/>
<path d="M30.4854 13.3638C30.5778 21.5945 30.5545 29.8251 30.5926 38.0565C30.5545 46.2872 30.5784 54.5178 30.4854 62.7492C30.3924 54.5185 30.4156 46.2872 30.3782 38.0565C30.4169 29.8251 30.393 21.5945 30.4854 13.3638Z" fill="white"/>
<path d="M40.056 13.3638C40.1483 21.5945 40.1251 29.8251 40.1632 38.0565C40.1251 46.2872 40.1483 54.5178 40.056 62.7492C39.9629 54.5185 39.9862 46.2872 39.9487 38.0565C39.9868 29.8251 39.9636 21.5945 40.056 13.3638Z" fill="white"/>
<path d="M49.626 13.3638C49.7184 21.5945 49.6945 29.8251 49.7333 38.0565C49.6952 46.2872 49.7184 54.5178 49.626 62.7492C49.533 54.5185 49.5563 46.2872 49.5188 38.0565C49.5576 29.8251 49.5337 21.5945 49.626 13.3638Z" fill="white"/>
<path d="M59.1973 13.3638C59.2897 21.5945 59.2664 29.8251 59.3046 38.0565C59.2664 46.2872 59.2903 54.5178 59.1973 62.7492C59.1043 54.5185 59.1276 46.2872 59.0901 38.0565C59.1282 29.8251 59.1049 21.5945 59.1973 13.3638Z" fill="white"/>
<path d="M68.7676 13.3638C68.86 21.5945 68.8368 29.8251 68.8749 38.0565C68.8368 46.2872 68.86 54.5178 68.7676 62.7492C68.6746 54.5185 68.6979 46.2872 68.6604 38.0565C68.6985 29.8251 68.6753 21.5945 68.7676 13.3638Z" fill="white"/>
<path d="M78.3378 13.3638C78.4302 21.5945 78.4069 29.8251 78.4451 38.0565C78.4069 46.2872 78.4309 54.5178 78.3378 62.7492C78.2448 54.5185 78.2687 46.2872 78.2306 38.0565C78.2687 29.8251 78.2454 21.5945 78.3378 13.3638Z" fill="white"/>
<path d="M87.9084 13.3638C88.0008 21.5945 87.9775 29.8251 88.0156 38.0565C87.9775 46.2872 88.0008 54.5178 87.9084 62.7492C87.8154 54.5185 87.8393 46.2872 87.8011 38.0565C87.8393 29.8251 87.816 21.5945 87.9084 13.3638Z" fill="white"/>
<path d="M97.4786 13.3638C97.571 21.5945 97.5477 29.8251 97.5858 38.0565C97.5477 46.2872 97.571 54.5178 97.4786 62.7492C97.3856 54.5185 97.4088 46.2872 97.3713 38.0565C97.4095 29.8251 97.3862 21.5945 97.4786 13.3638Z" fill="white"/>
<path d="M107.049 13.3638C107.141 21.5945 107.118 29.8251 107.156 38.0565C107.118 46.2872 107.142 54.5178 107.049 62.7492C106.956 54.5185 106.979 46.2872 106.942 38.0565C106.98 29.8251 106.957 21.5945 107.049 13.3638Z" fill="white"/>
<path d="M116.62 13.3638C116.713 21.5945 116.689 29.8251 116.727 38.0565C116.689 46.2872 116.713 54.5178 116.62 62.7492C116.527 54.5185 116.55 46.2872 116.513 38.0565C116.551 29.8251 116.528 21.5945 116.62 13.3638Z" fill="white"/>
<path d="M10.1345 13.8999C10.2585 22.0414 10.3657 30.183 10.3761 38.3245L10.4924 62.7491L10.1345 62.5482L64.7654 62.5993L92.0809 62.6387L121.444 62.7491L92.0809 62.8596L64.7654 62.8997L10.1345 62.9507L9.77466 62.9513L9.77595 62.7498L9.89223 38.3252C9.90322 30.1823 10.0105 22.0408 10.1345 13.8999Z" fill="white"/>
<g opacity="0.62">
<path d="M10.2961 62.7485C10.2961 62.7485 15.437 41.3227 20.6593 41.3227C25.043 41.3227 26.8932 47.6379 30.4559 47.6379C35.1516 47.6379 35.8009 31.2838 40.3345 31.2838C44.8688 31.2838 45.8391 37.6799 49.7248 37.6799C53.6111 37.6799 55.3333 30.1501 59.3592 30.1501C63.3851 30.1501 64.3741 41.2419 68.6674 41.2419C72.9614 41.2419 73.0415 23.754 78.3044 23.754C83.5668 23.754 84.9414 31.2838 88.019 31.2838C91.0965 31.2838 92.8769 25.7786 97.4105 25.7786C105.993 25.7786 116.619 62.7492 116.619 62.7492L10.2961 62.7485Z" fill="#97C233"/>
</g>
<g opacity="0.62">
<path d="M10.2961 62.7485C10.2961 62.7485 15.8304 42.895 20.7407 42.895C25.6509 42.895 26.1677 48.3505 30.3028 48.3505C34.4378 48.3505 34.4985 38.7677 40.0554 38.7677C43.883 38.7677 45.2312 42.656 49.4573 42.656C55.272 42.656 54.4005 33.6288 59.1492 33.6288C65.2223 33.6288 62.7675 46.0656 69.0989 46.0656C73.1048 46.0656 74.1681 40.488 78.9498 40.488C82.1158 40.488 83.4957 44.4984 87.634 44.4984C91.8368 44.4984 92.6773 36.4951 97.8459 36.4951C106.314 36.4951 116.787 62.7492 116.787 62.7492H10.2961V62.7485Z" fill="#97C233"/>
</g>
<path opacity="0.62" d="M10.2961 62.7485C10.2961 62.7485 15.2865 55.4545 20.9144 55.4545C25.1393 55.4545 25.8945 57.3686 30.5366 57.3686C33.4514 57.3686 34.5683 49.7019 40.1627 49.7019C45.757 49.7019 45.8655 54.2265 49.6976 54.2265C53.5297 54.2265 54.6059 49.9648 59.3036 49.9648C64.0013 49.9648 64.5679 52.3124 68.7669 52.3124C73.555 52.3124 73.4045 42.8136 78.3374 42.8136C83.2702 42.8136 83.4505 50.7129 88.0151 50.7129C91.2225 50.7129 92.4719 47.3298 97.3705 47.3298C104.212 47.3298 116.786 62.7485 116.786 62.7485H10.2961Z" fill="#97C233"/>
</svg>
