<svg width="58" height="56" viewBox="0 0 58 56" fill="none" xmlns="http://www.w3.org/2000/svg">
<path d="M45.2775 31.4149H23.5918V31.5631H45.2775V31.4149Z" fill="white"/>
<path d="M44.6034 32.3425C45.0628 32.3425 45.4353 31.9583 45.4353 31.4842C45.4353 31.0102 45.0628 30.626 44.6034 30.626C44.1439 30.626 43.7715 31.0102 43.7715 31.4842C43.7715 31.9583 44.1439 32.3425 44.6034 32.3425Z" fill="white"/>
<path d="M49.6048 30.8967L48.9631 32.4617C48.9425 32.517 48.8915 32.5489 48.8325 32.5489C48.8168 32.5489 48.7962 32.5461 48.7783 32.5383C48.7067 32.5036 48.6737 32.4192 48.7013 32.3476L49.2557 30.9889H48.5935C48.516 30.9889 48.452 30.9201 48.452 30.8408C48.452 30.7586 48.516 30.6948 48.5935 30.6948H49.4736C49.4812 30.6948 49.4893 30.6948 49.4996 30.6976C49.5175 30.6999 49.5354 30.711 49.5533 30.7189C49.556 30.7211 49.5581 30.7239 49.5609 30.7261C49.5657 30.7289 49.5685 30.7312 49.5712 30.7373C49.5739 30.7423 49.5787 30.7446 49.5809 30.7479C49.5836 30.753 49.5863 30.7558 49.5885 30.7586C49.5912 30.7614 49.5934 30.7697 49.5934 30.772C49.5961 30.777 49.5983 30.7804 49.6042 30.7854C49.6042 30.7882 49.6064 30.796 49.6064 30.7988C49.6091 30.8038 49.6091 30.8066 49.6113 30.8122C49.614 30.8307 49.614 30.8514 49.6113 30.8704C49.6096 30.881 49.6069 30.8894 49.6048 30.8967Z" fill="white"/>
<path d="M50.8453 31.4266C50.971 31.5541 51.0323 31.7235 51.0323 31.893C51.0323 32.0596 50.9683 32.229 50.8453 32.3565C50.7217 32.4862 50.5575 32.5494 50.396 32.5494C50.3911 32.5494 50.3911 32.5494 50.3911 32.5494C50.2318 32.5494 50.0649 32.4856 49.9446 32.3565C49.8855 32.3011 49.8855 32.2055 49.9446 32.1446C49.9982 32.0864 50.0936 32.0864 50.15 32.1446C50.2166 32.2156 50.3039 32.2503 50.3966 32.2503C50.4833 32.2503 50.5738 32.2156 50.6404 32.1446C50.7071 32.0758 50.7429 31.9824 50.7429 31.893C50.7429 31.7974 50.7093 31.7073 50.6404 31.6386C50.5738 31.5675 50.4865 31.5357 50.3966 31.5357C50.3093 31.5357 50.2166 31.5675 50.15 31.6386C50.0936 31.6967 50.0015 31.6967 49.9446 31.6386C49.9343 31.6279 49.9267 31.6151 49.9164 31.6045C49.9164 31.5989 49.9164 31.5966 49.9137 31.5966C49.9137 31.5916 49.911 31.586 49.9088 31.5832C49.9088 31.5754 49.9061 31.5698 49.9061 31.5648C49.9061 31.562 49.9039 31.562 49.9039 31.5597C49.9012 31.5435 49.9012 31.5278 49.9039 31.5144L49.9809 30.8284C49.9885 30.7831 50.0118 30.7462 50.0454 30.7227C50.0502 30.7205 50.0524 30.7205 50.0557 30.7177C50.0578 30.7149 50.0605 30.7149 50.0633 30.7126C50.0833 30.7014 50.1044 30.6964 50.1299 30.6964H50.887C50.9694 30.6964 51.0334 30.763 51.0334 30.8474C51.0334 30.9273 50.9694 30.9961 50.887 30.9961H50.2556L50.2248 31.2583C50.2817 31.2421 50.3402 31.2349 50.3971 31.2349C50.5581 31.2332 50.7223 31.2969 50.8453 31.4266Z" fill="white"/>
<path d="M51.4276 31.1538V31.1488C51.4276 30.8899 51.5999 30.6752 51.8536 30.6752C52.1078 30.6752 52.2747 30.8899 52.2747 31.1437V31.1488C52.2747 31.4054 52.105 31.6229 51.8487 31.6229C51.5972 31.6229 51.4276 31.4082 51.4276 31.1538ZM52.046 31.1538V31.1488C52.046 31.0006 51.9641 30.8787 51.8487 30.8787C51.7278 30.8787 51.6558 31.0006 51.6558 31.1437V31.1488C51.6558 31.2997 51.7381 31.4188 51.8536 31.4188C51.9744 31.4188 52.046 31.2969 52.046 31.1538ZM51.7224 32.39L52.9006 30.73C52.9185 30.6981 52.9516 30.6819 52.9873 30.6819C53.0437 30.6819 53.0898 30.7272 53.0898 30.7853C53.0898 30.8122 53.0795 30.8356 53.067 30.8541L51.8894 32.5142C51.8688 32.546 51.8357 32.5623 51.7999 32.5623C51.743 32.5623 51.6997 32.517 51.6997 32.4588C51.6997 32.4331 51.71 32.4085 51.7224 32.39ZM52.5131 32.1015V32.0965C52.5131 31.8371 52.6855 31.6229 52.9391 31.6229C53.1911 31.6229 53.3602 31.8371 53.3602 32.0915V32.0965C53.3602 32.3531 53.1879 32.5706 52.9342 32.5706C52.6822 32.5706 52.5131 32.3559 52.5131 32.1015ZM53.132 32.1015V32.0965C53.132 31.9483 53.0497 31.8264 52.9342 31.8264C52.8139 31.8264 52.7418 31.9483 52.7418 32.0915V32.0965C52.7418 32.2475 52.8237 32.3666 52.9391 32.3666C53.06 32.3666 53.132 32.2452 53.132 32.1015Z" fill="white"/>
<path d="M57.6565 33.9774H48.4276V34.205H57.6565V33.9774Z" fill="white"/>
<path d="M57.6565 34.5986H48.4276V34.8262H57.6565V34.5986Z" fill="white"/>
<path d="M57.6565 35.2198H48.4276V35.4474H57.6565V35.2198Z" fill="white"/>
<path d="M57.6565 35.8405H48.4276V36.068H57.6565V35.8405Z" fill="white"/>
<path d="M57.6565 36.4617H48.4276V36.6892H57.6565V36.4617Z" fill="white"/>
<path d="M57.6565 37.0829H48.4276V37.3105H57.6565V37.0829Z" fill="white"/>
<path d="M57.6565 37.7035H48.4276V37.9311H57.6565V37.7035Z" fill="white"/>
<path d="M45.278 45.389H37.2576L37.2365 45.3672L23.5852 31.542L23.6855 31.4363L37.3161 45.2408H45.278V45.389Z" fill="white"/>
<path d="M45.4375 45.3152C45.4375 45.7893 45.0651 46.1735 44.6056 46.1735C44.146 46.1735 43.7737 45.7893 43.7737 45.3152C43.7737 44.841 44.146 44.4569 44.6056 44.4569C45.0646 44.4569 45.4375 44.841 45.4375 45.3152Z" fill="#2A6E26"/>
<path d="M49.6551 45.7502C49.6551 46.0975 49.3803 46.3809 49.0443 46.3809C48.705 46.3809 48.4281 46.0975 48.4281 45.7502C48.4281 45.5305 48.5359 45.3376 48.7029 45.2235C48.6492 45.1525 48.6183 45.0597 48.6183 44.9613C48.6183 44.7231 48.8075 44.5269 49.0443 44.5269C49.2752 44.5269 49.4649 44.7231 49.4649 44.9613C49.4649 45.0597 49.434 45.152 49.3803 45.2235C49.5445 45.3376 49.6551 45.5305 49.6551 45.7502ZM49.3754 45.7502C49.3754 45.5624 49.2269 45.4064 49.0448 45.4064C48.86 45.4064 48.711 45.5624 48.7083 45.7502C48.7105 45.9381 48.8595 46.0919 49.0448 46.0919C49.2269 46.0919 49.3754 45.9381 49.3754 45.7502ZM48.8985 44.9613C48.8985 45.0435 48.9625 45.1123 49.0448 45.1123C49.1218 45.1123 49.1857 45.0435 49.1857 44.9613C49.1857 44.8819 49.1218 44.8154 49.0448 44.8154C48.9625 44.8154 48.8985 44.8819 48.8985 44.9613Z" fill="white"/>
<path d="M51.0195 45.2581C51.1452 45.3851 51.2065 45.555 51.2065 45.7245C51.2065 45.8911 51.1425 46.0605 51.0195 46.188C50.8959 46.3177 50.7317 46.3809 50.5702 46.3809C50.5653 46.3809 50.5653 46.3809 50.5653 46.3809C50.406 46.3809 50.2391 46.3171 50.1188 46.188C50.0597 46.1326 50.0597 46.037 50.1188 45.9761C50.1724 45.9174 50.2678 45.9174 50.3242 45.9761C50.3908 46.0471 50.4781 46.0817 50.5707 46.0817C50.6575 46.0817 50.748 46.0471 50.8146 45.9761C50.8813 45.9073 50.9171 45.8139 50.9171 45.7245C50.9171 45.6288 50.8835 45.5388 50.8146 45.47C50.748 45.399 50.6607 45.3672 50.5707 45.3672C50.4835 45.3672 50.3908 45.399 50.3242 45.47C50.2683 45.5282 50.1757 45.5282 50.1188 45.47C50.1085 45.4594 50.1009 45.4466 50.0906 45.4359C50.0906 45.4303 50.0906 45.4276 50.0879 45.4276C50.0879 45.4225 50.0852 45.4169 50.083 45.4141C50.083 45.4063 50.0803 45.4007 50.0803 45.3957C50.0803 45.3929 50.0781 45.3929 50.0781 45.3906C50.0754 45.3744 50.0754 45.3588 50.0781 45.3454L50.1551 44.6593C50.1627 44.614 50.186 44.5771 50.2196 44.5536C50.2245 44.5514 50.2266 44.5514 50.2299 44.5486C50.232 44.5458 50.2347 44.5458 50.2375 44.5436C50.2575 44.5324 50.2786 44.5273 50.3041 44.5273H51.0607C51.143 44.5273 51.207 44.5939 51.207 44.6783C51.207 44.7583 51.143 44.827 51.0607 44.827H50.4293L50.3984 45.0893C50.4553 45.0731 50.5138 45.0658 50.5707 45.0658C50.7322 45.0647 50.8965 45.1284 51.0195 45.2581Z" fill="white"/>
<path d="M51.6029 44.9852V44.9802C51.6029 44.7213 51.7752 44.5066 52.0289 44.5066C52.283 44.5066 52.45 44.7213 52.45 44.9751V44.9802C52.45 45.2368 52.2798 45.4543 52.024 45.4543C51.772 45.4538 51.6029 45.2396 51.6029 44.9852ZM52.2213 44.9852V44.9802C52.2213 44.832 52.1394 44.7101 52.024 44.7101C51.9031 44.7101 51.8311 44.832 51.8311 44.9751V44.9802C51.8311 45.1311 51.9134 45.2502 52.0289 45.2502C52.1492 45.2497 52.2213 45.1284 52.2213 44.9852ZM51.8977 46.2215L53.0759 44.5614C53.0938 44.5295 53.1269 44.5133 53.1626 44.5133C53.219 44.5133 53.2651 44.5586 53.2651 44.6167C53.2651 44.6436 53.2548 44.6671 53.2418 44.6855L52.0641 46.3456C52.0435 46.3775 52.0105 46.3937 51.9741 46.3937C51.9178 46.3937 51.8739 46.3484 51.8739 46.2902C51.875 46.2645 51.8847 46.2399 51.8977 46.2215ZM52.6884 45.9329V45.9279C52.6884 45.6685 52.8608 45.4543 53.1144 45.4543C53.3664 45.4543 53.5355 45.6685 53.5355 45.9229V45.9279C53.5355 46.1846 53.3632 46.4021 53.1095 46.4021C52.8575 46.4021 52.6884 46.1874 52.6884 45.9329ZM53.3073 45.9329V45.9279C53.3073 45.7797 53.225 45.6578 53.1095 45.6578C52.9892 45.6578 52.9171 45.7797 52.9171 45.9229V45.9279C52.9171 46.0789 52.999 46.198 53.1144 46.198C53.2347 46.198 53.3073 46.0761 53.3073 45.9329Z" fill="white"/>
<path d="M57.6569 47.8088H48.428V48.0364H57.6569V47.8088Z" fill="white"/>
<path d="M57.6569 48.4294H48.428V48.657H57.6569V48.4294Z" fill="white"/>
<path d="M57.6569 49.0507H48.428V49.2782H57.6569V49.0507Z" fill="white"/>
<path d="M57.6569 49.6714H48.428V49.899H57.6569V49.6714Z" fill="white"/>
<path d="M57.6569 50.2925H48.428V50.52H57.6569V50.2925Z" fill="white"/>
<path d="M57.6569 50.9137H48.428V51.1413H57.6569V50.9137Z" fill="white"/>
<path d="M57.6569 51.5343H48.428V51.7619H57.6569V51.5343Z" fill="white"/>
<path d="M23.6641 31.4894H23.5205V0.784424H45.2778V0.932599H23.6641V31.4894Z" fill="white"/>
<path d="M44.6046 1.71643C45.064 1.71643 45.4365 1.33217 45.4365 0.858155C45.4365 0.384143 45.064 -0.00012207 44.6046 -0.00012207C44.1452 -0.00012207 43.7727 0.384143 43.7727 0.858155C43.7727 1.33217 44.1452 1.71643 44.6046 1.71643Z" fill="#2A6E26"/>
<path d="M49.4016 0.800793C49.5274 0.928276 49.5886 1.09769 49.5886 1.26711C49.5886 1.43374 49.5247 1.60315 49.4016 1.73008C49.2781 1.8598 49.1139 1.92354 48.9524 1.92354C48.9475 1.92354 48.9475 1.92354 48.9475 1.92354C48.7882 1.92354 48.6212 1.8598 48.5009 1.73008C48.4424 1.67472 48.4424 1.57911 48.5009 1.51816C48.5546 1.46001 48.65 1.46001 48.7063 1.51816C48.773 1.58917 48.8608 1.62384 48.9529 1.62384C49.0396 1.62384 49.1301 1.58917 49.1968 1.51816C49.2635 1.44939 49.2992 1.35602 49.2992 1.26655C49.2992 1.17094 49.2656 1.08092 49.1968 1.01215C49.1301 0.941136 49.0429 0.909262 48.9529 0.909262C48.8657 0.909262 48.773 0.941136 48.7063 1.01215C48.6505 1.0703 48.5578 1.0703 48.5009 1.01215C48.4906 1.00152 48.483 0.98866 48.4727 0.978036C48.4727 0.972445 48.4727 0.970208 48.47 0.970208C48.47 0.965176 48.4673 0.959588 48.4652 0.956792C48.4652 0.948405 48.4624 0.94337 48.4624 0.938338C48.4624 0.935542 48.4603 0.935545 48.4603 0.933308C48.4576 0.917653 48.4576 0.901437 48.4603 0.888018L48.5372 0.201954C48.5454 0.157223 48.5681 0.120323 48.6017 0.0962799C48.6066 0.0940433 48.6093 0.0940418 48.612 0.0912461C48.6142 0.0890096 48.6169 0.0890123 48.6202 0.0862167C48.6402 0.0755931 48.6608 0.0705566 48.6868 0.0705566H49.4434C49.5258 0.0705566 49.5897 0.136537 49.5897 0.221526C49.5897 0.300923 49.5258 0.369697 49.4434 0.369697H48.812L48.7811 0.631933C48.838 0.616277 48.8966 0.608449 48.9535 0.608449C49.1139 0.607331 49.2781 0.671074 49.4016 0.800793Z" fill="white"/>
<path d="M50.0099 0.996317C50.0121 0.753092 50.0711 0.533349 50.1844 0.363372C50.2922 0.193953 50.4592 0.0698242 50.6613 0.0698242C50.8591 0.0698242 51.0288 0.193953 51.1361 0.363372C51.2466 0.53279 51.3084 0.752533 51.3084 0.996317C51.3084 1.23675 51.2466 1.45984 51.1361 1.62926C51.0282 1.79588 50.8591 1.92336 50.6613 1.92336C50.4586 1.92336 50.2917 1.79588 50.1844 1.62926C50.0711 1.45984 50.0121 1.2373 50.0099 0.996317ZM51.0233 0.996317C51.0233 0.805651 50.9719 0.639027 50.9003 0.524963C50.8255 0.413695 50.741 0.360576 50.6613 0.363372C50.5816 0.360576 50.4949 0.413695 50.418 0.524963C50.3459 0.639027 50.2944 0.805651 50.2944 0.996317C50.2944 1.18419 50.3454 1.3536 50.418 1.46487C50.4949 1.57894 50.5816 1.62926 50.6613 1.62926C50.741 1.62926 50.8255 1.57894 50.9003 1.46487C50.9719 1.35416 51.0233 1.18419 51.0233 0.996317Z" fill="white"/>
<path d="M51.8087 0.527761V0.522173C51.8087 0.262733 51.981 0.048584 52.2347 0.048584C52.4883 0.048584 52.6558 0.263291 52.6558 0.517139V0.522173C52.6558 0.778817 52.4856 0.99632 52.2298 0.99632C51.9778 0.99632 51.8087 0.782168 51.8087 0.527761ZM52.4271 0.527761V0.522173C52.4271 0.374002 52.3452 0.252109 52.2298 0.252109C52.1089 0.252109 52.0369 0.374 52.0369 0.517139V0.522173C52.0369 0.67314 52.1192 0.792233 52.2347 0.792233C52.355 0.792233 52.4271 0.6709 52.4271 0.527761ZM52.1035 1.76402L53.2817 0.103938C53.2996 0.0720672 53.3327 0.0564119 53.3685 0.0564119C53.4248 0.0564119 53.4709 0.101142 53.4709 0.159292C53.4709 0.186131 53.4606 0.209615 53.4481 0.228066L52.2705 1.88814C52.2499 1.92001 52.2168 1.93623 52.181 1.93623C52.1247 1.93623 52.0808 1.89094 52.0808 1.83279C52.0802 1.80707 52.0905 1.78247 52.1035 1.76402ZM52.8937 1.4755V1.47047C52.8937 1.21047 53.066 0.996879 53.3197 0.996879C53.5711 0.996879 53.7408 1.21103 53.7408 1.46543V1.47047C53.7408 1.72711 53.5684 1.94462 53.3148 1.94462C53.0633 1.94462 52.8937 1.7299 52.8937 1.4755ZM53.5126 1.4755V1.47047C53.5126 1.3223 53.4302 1.2004 53.3148 1.2004C53.1945 1.2004 53.1224 1.3223 53.1224 1.46543V1.47047C53.1224 1.62144 53.2042 1.74053 53.3197 1.74053C53.4405 1.74053 53.5126 1.61864 53.5126 1.4755Z" fill="white"/>
<path d="M57.6577 3.35144H48.4288V3.57901H57.6577V3.35144Z" fill="white"/>
<path d="M57.6577 3.97266H48.4288V4.20022H57.6577V3.97266Z" fill="white"/>
<path d="M57.6577 4.59326H48.4288V4.82083H57.6577V4.59326Z" fill="white"/>
<path d="M57.6577 5.21448H48.4288V5.44204H57.6577V5.21448Z" fill="white"/>
<path d="M57.6577 5.83569H48.4288V6.06326H57.6577V5.83569Z" fill="white"/>
<path d="M57.6577 6.4563H48.4288V6.68387H57.6577V6.4563Z" fill="white"/>
<path d="M57.6577 7.07751H48.4288V7.30508H57.6577V7.07751Z" fill="white"/>
<path d="M23.6752 31.5409L23.5723 31.4381L39.1653 14.7361H45.2775V14.8843H39.2255L23.6752 31.5409Z" fill="white"/>
<path d="M45.438 14.8143C45.438 15.2885 45.0656 15.6726 44.6061 15.6726C44.1465 15.6726 43.7742 15.2885 43.7742 14.8143C43.7742 14.3402 44.1465 13.9561 44.6061 13.9561C45.0651 13.9555 45.438 14.3402 45.438 14.8143Z" fill="#2A6E26"/>
<path d="M49.702 15.2388C49.702 15.5938 49.4224 15.8795 49.0782 15.8795C48.7547 15.8795 48.4907 15.6279 48.4598 15.3053C48.4598 15.3025 48.4598 15.3025 48.4571 15.2997C48.455 15.2494 48.4523 15.1991 48.4523 15.1487C48.4523 14.9715 48.4783 14.7808 48.5422 14.6064C48.6067 14.4319 48.7113 14.2647 48.8734 14.1535C48.9812 14.0797 49.1124 14.0344 49.2587 14.0288C49.3378 14.026 49.4023 14.0875 49.4072 14.1691C49.4099 14.2485 49.3481 14.3145 49.2684 14.3223C49.1709 14.3251 49.0939 14.3542 49.0267 14.3961C48.9628 14.4414 48.9091 14.5018 48.8652 14.5818C48.8522 14.6025 48.8419 14.6271 48.8322 14.6505C48.9064 14.6159 48.991 14.5974 49.0782 14.5974C49.4224 14.598 49.702 14.8843 49.702 15.2388ZM49.4169 15.2388C49.4169 15.0481 49.2657 14.8893 49.0782 14.8893C48.8907 14.8893 48.7417 15.0475 48.7417 15.2388C48.7417 15.4322 48.8907 15.586 49.0782 15.586C49.2652 15.5854 49.4169 15.4317 49.4169 15.2388Z" fill="white"/>
<path d="M51.0506 14.7566C51.1764 14.8841 51.2376 15.0535 51.2376 15.2229C51.2376 15.3895 51.1737 15.559 51.0506 15.6864C50.9271 15.8162 50.7628 15.8793 50.6013 15.8793C50.5965 15.8793 50.5965 15.8793 50.5965 15.8793C50.4371 15.8793 50.2702 15.8156 50.1499 15.6864C50.0908 15.6311 50.0908 15.5355 50.1499 15.4745C50.2035 15.4164 50.2989 15.4164 50.3553 15.4745C50.422 15.5455 50.5098 15.5802 50.6019 15.5802C50.6886 15.5802 50.7791 15.5455 50.8458 15.4745C50.9124 15.4058 50.9482 15.3124 50.9482 15.2229C50.9482 15.1273 50.9146 15.0373 50.8458 14.9685C50.7791 14.8975 50.6919 14.8656 50.6019 14.8656C50.5146 14.8656 50.422 14.8975 50.3553 14.9685C50.2995 15.0272 50.2068 15.0272 50.1499 14.9685C50.1396 14.9584 50.132 14.945 50.1217 14.9344C50.1217 14.9288 50.1217 14.9266 50.119 14.9266C50.119 14.9215 50.1163 14.916 50.1141 14.9132C50.1141 14.9048 50.1114 14.8997 50.1114 14.8947C50.1114 14.8919 50.1093 14.8919 50.1093 14.8897C50.1065 14.8735 50.1065 14.8578 50.1093 14.8444L50.1862 14.1583C50.1943 14.113 50.2171 14.0761 50.2507 14.0526C50.2556 14.0504 50.2578 14.0504 50.261 14.0476C50.2632 14.0448 50.2659 14.0448 50.2691 14.0426C50.2892 14.0314 50.3098 14.0264 50.3358 14.0264H51.0929C51.1753 14.0264 51.2392 14.0929 51.2392 14.1773C51.2392 14.2573 51.1753 14.3261 51.0929 14.3261H50.4615L50.4306 14.5883C50.487 14.5721 50.5461 14.5643 50.603 14.5643C50.7628 14.5631 50.9271 14.6269 51.0506 14.7566Z" fill="white"/>
<path d="M51.6332 14.4837V14.4787C51.6332 14.2193 51.8055 14.0051 52.0592 14.0051C52.3128 14.0051 52.4803 14.2198 52.4803 14.4737V14.4787C52.4803 14.7354 52.3101 14.9529 52.0543 14.9529C51.8023 14.9529 51.6332 14.7382 51.6332 14.4837ZM52.2516 14.4837V14.4787C52.2516 14.3305 52.1697 14.2087 52.0543 14.2087C51.9334 14.2087 51.8614 14.3305 51.8614 14.4737V14.4787C51.8614 14.6297 51.9437 14.7488 52.0592 14.7488C52.18 14.7482 52.2516 14.6269 52.2516 14.4837ZM51.928 15.72L53.1062 14.0599C53.1241 14.0281 53.1572 14.0118 53.1929 14.0118C53.2493 14.0118 53.2954 14.0571 53.2954 14.1153C53.2954 14.1421 53.2851 14.1656 53.2726 14.1841L52.0949 15.8441C52.0743 15.876 52.0413 15.8922 52.005 15.8922C51.9486 15.8922 51.9047 15.8469 51.9047 15.7888C51.9052 15.7631 51.915 15.7385 51.928 15.72ZM52.7187 15.4315V15.4265C52.7187 15.1665 52.8911 14.9529 53.1447 14.9529C53.3967 14.9529 53.5658 15.167 53.5658 15.4214V15.4265C53.5658 15.6831 53.3934 15.9006 53.1398 15.9006C52.8883 15.9006 52.7187 15.6859 52.7187 15.4315ZM53.3376 15.4315V15.4265C53.3376 15.2783 53.2552 15.1564 53.1398 15.1564C53.0195 15.1564 52.9474 15.2783 52.9474 15.4214V15.4265C52.9474 15.5774 53.0293 15.6965 53.1447 15.6965C53.265 15.6965 53.3376 15.5752 53.3376 15.4315Z" fill="white"/>
<path d="M57.6577 17.3074H48.4288V17.5349H57.6577V17.3074Z" fill="white"/>
<path d="M57.6577 17.9286H48.4288V18.1562H57.6577V17.9286Z" fill="white"/>
<path d="M57.6577 18.5492H48.4288V18.7768H57.6577V18.5492Z" fill="white"/>
<path d="M57.6577 19.1704H48.4288V19.398H57.6577V19.1704Z" fill="white"/>
<path d="M57.6577 19.791H48.4288V20.0186H57.6577V19.791Z" fill="white"/>
<path d="M57.6577 20.4122H48.4288V20.6398H57.6577V20.4122Z" fill="white"/>
<path d="M57.6577 21.0334H48.4288V21.261H57.6577V21.0334Z" fill="white"/>
<g opacity="0.7">
<path d="M0.34082 31.4895C0.34082 18.2419 10.7507 7.50195 23.5911 7.50195V55.477C10.7507 55.477 0.34082 44.7371 0.34082 31.4895Z" fill="#2A6E26"/>
<path d="M3.61719 31.4894C3.61719 20.1082 12.5599 10.8813 23.5919 10.8813C28.9649 10.8813 33.843 13.0698 37.4323 16.6309L23.5919 31.4894V52.0976C12.5599 52.0976 3.61719 42.8707 3.61719 31.4894Z" fill="#2A6E26"/>
<path d="M6.83777 31.4894C6.83777 21.9399 14.3406 14.1992 23.5966 14.1992C32.8515 14.1992 40.3554 21.9399 40.3554 31.4894H23.5966V48.7796C14.3406 48.7796 6.83777 41.0389 6.83777 31.4894Z" fill="white"/>
<path d="M10.3076 31.4896C10.3076 23.9177 16.2572 17.7795 23.5963 17.7795C30.9354 17.7795 36.885 23.9177 36.885 31.4896C36.885 35.2168 35.4428 38.5962 33.1032 41.0681L23.5963 31.4896V45.1996C16.2572 45.1996 10.3076 39.0614 10.3076 31.4896Z" fill="#2A6E26"/>
<path d="M33.0676 35.4889C35.2178 30.0971 32.7243 23.9278 27.4983 21.7095C22.2722 19.4911 16.2925 22.0636 14.1423 27.4554C11.9921 32.8471 14.4856 39.0164 19.7116 41.2348C24.9377 43.4532 30.9174 40.8806 33.0676 35.4889Z" fill="#97C233"/>
</g>
</svg>
