<svg width="103" height="79" viewBox="0 0 103 79" fill="none" xmlns="http://www.w3.org/2000/svg">
<g opacity="0.5">
<path d="M102.779 4.80945H0.241211V78.0193H102.779V4.80945Z" fill="#EBEBEB"/>
<path d="M102.779 78.0187L0.241619 78.1912H0.0697691V78.0187L0 4.80947V4.56787H0.24225L102.78 4.63506H102.955L102.954 4.80947L102.779 78.0187ZM102.779 78.0187L102.605 4.80947L102.779 4.98389L0.241619 5.05108L0.483219 4.80947L0.413449 78.0187L0.241619 77.8469L102.779 78.0187Z" fill="#EBEBEB"/>
</g>
<path d="M102.779 0H0.241211V4.80882H102.779V0Z" fill="#2A6E26"/>
<path d="M4.06363 2.40444C4.06363 3.06336 3.52938 3.59695 2.87111 3.59695C2.21219 3.59695 1.67859 3.06271 1.67859 2.40444C1.67859 1.74552 2.21284 1.21191 2.87111 1.21191C3.52938 1.21191 4.06363 1.74616 4.06363 2.40444Z" fill="#C7C7C7"/>
<path d="M8.93387 2.40444C8.93387 3.06336 8.39962 3.59695 7.74135 3.59695C7.08243 3.59695 6.54883 3.06271 6.54883 2.40444C6.54883 1.74552 7.08308 1.21191 7.74135 1.21191C8.39962 1.21191 8.93387 1.74616 8.93387 2.40444Z" fill="white"/>
<path d="M13.804 2.40444C13.804 3.06336 13.2697 3.59695 12.6115 3.59695C11.9525 3.59695 11.4189 3.06271 11.4189 2.40444C11.4189 1.74552 11.9532 1.21191 12.6115 1.21191C13.2697 1.21191 13.804 1.74616 13.804 2.40444Z" fill="#97C233"/>
<path d="M76.1783 66.1094H83.5808V18.1116H76.1783V66.1094Z" fill="white"/>
<path d="M76.1783 66.1097H83.5808V29.6443H76.1783V66.1097Z" fill="#97C233"/>
<path d="M65.0449 66.1097H72.4474V18.13H65.0449V66.1097Z" fill="white"/>
<path d="M65.0449 66.1095H72.4474V34.5046H65.0449V66.1095Z" fill="#2A6E26"/>
<path d="M53.911 66.1094H61.3135L61.3135 18.1116H53.911L53.911 66.1094Z" fill="white"/>
<path d="M53.911 66.1097H61.3135V51.5076H53.911V66.1097Z" fill="#97C233"/>
<path d="M42.7774 66.1097H50.1799L50.1799 18.13H42.7774L42.7774 66.1097Z" fill="white"/>
<path d="M42.7774 66.1095H50.1799L50.1799 26.0439H42.7774L42.7774 66.1095Z" fill="#2A6E26"/>
<path d="M31.6444 66.1097H39.0469L39.0469 18.13H31.6444L31.6444 66.1097Z" fill="white"/>
<path d="M31.6444 66.1097H39.0469L39.0469 22.8717H31.6444L31.6444 66.1097Z" fill="#97C233"/>
<path d="M20.5106 66.1097H27.9131L27.9131 18.13H20.5106L20.5106 66.1097Z" fill="white"/>
<path d="M20.5106 66.1094H27.9131L27.9131 38.7144H20.5106L20.5106 66.1094Z" fill="#2A6E26"/>
<path d="M15.5797 18.1119L15.6888 30.1114L15.7644 42.1115L15.8419 66.111L15.5797 65.8494L33.813 65.8378L52.0464 65.8688L70.2791 65.9553L88.5124 66.111L70.2791 66.2674L52.0464 66.3539L33.813 66.3849L15.5797 66.3733L15.3174 66.3727L15.318 66.111L15.3949 42.1115L15.4705 30.1114L15.5797 18.1119Z" fill="#C7C7C7"/>
<path d="M14.5088 18.1119C14.8764 18.0015 15.2446 17.9763 15.6122 17.9705C15.9797 17.9756 16.3479 18.0008 16.7155 18.1119C16.3479 18.2231 15.9797 18.2482 15.6122 18.2534C15.2446 18.2476 14.877 18.2218 14.5088 18.1119Z" fill="#C7C7C7"/>
<path d="M14.5088 22.871C14.8764 22.7605 15.2446 22.7353 15.6122 22.7295C15.9797 22.7347 16.3479 22.7599 16.7155 22.871C16.3479 22.9821 15.9797 23.0073 15.6122 23.0124C15.2446 23.0073 14.877 22.9814 14.5088 22.871Z" fill="#C7C7C7"/>
<path d="M14.5088 27.6307C14.8764 27.5203 15.2446 27.4951 15.6122 27.4893C15.9797 27.4944 16.3479 27.5196 16.7155 27.6307C16.3479 27.7418 15.9797 27.767 15.6122 27.7722C15.2446 27.7664 14.877 27.7412 14.5088 27.6307Z" fill="#C7C7C7"/>
<path d="M14.5088 32.3898C14.8764 32.2793 15.2446 32.2541 15.6122 32.2483C15.9797 32.2535 16.3479 32.2787 16.7155 32.3898C16.3479 32.5009 15.9797 32.5261 15.6122 32.5313C15.2446 32.5261 14.877 32.5002 14.5088 32.3898Z" fill="#C7C7C7"/>
<path d="M14.5088 37.1495C14.8764 37.0391 15.2446 37.0139 15.6122 37.0081C15.9797 37.0132 16.3479 37.0384 16.7155 37.1495C16.3479 37.2606 15.9797 37.2858 15.6122 37.291C15.2446 37.2852 14.877 37.26 14.5088 37.1495Z" fill="#C7C7C7"/>
<path d="M14.5088 41.9087C14.8764 41.7982 15.2446 41.773 15.6122 41.7672C15.9797 41.7724 16.3479 41.7976 16.7155 41.9087C16.3479 42.0198 15.9797 42.045 15.6122 42.0502C15.2446 42.045 14.877 42.0191 14.5088 41.9087Z" fill="#C7C7C7"/>
<path d="M14.5088 46.6683C14.8764 46.5579 15.2446 46.5327 15.6122 46.5269C15.9797 46.532 16.3479 46.5572 16.7155 46.6683C16.3479 46.7794 15.9797 46.8046 15.6122 46.8098C15.2446 46.804 14.877 46.7788 14.5088 46.6683Z" fill="#C7C7C7"/>
<path d="M14.5088 51.4275C14.8764 51.317 15.2446 51.2918 15.6122 51.286C15.9797 51.2912 16.3479 51.3164 16.7155 51.4275C16.3479 51.5386 15.9797 51.5638 15.6122 51.569C15.2446 51.5638 14.877 51.538 14.5088 51.4275Z" fill="#C7C7C7"/>
<path d="M14.5088 56.1871C14.8764 56.0767 15.2446 56.0515 15.6122 56.0457C15.9797 56.0508 16.3479 56.076 16.7155 56.1871C16.3479 56.2982 15.9797 56.3234 15.6122 56.3286C15.2446 56.3228 14.877 56.2976 14.5088 56.1871Z" fill="#C7C7C7"/>
<path d="M14.5088 60.9463C14.8764 60.8358 15.2446 60.8106 15.6122 60.8048C15.9797 60.81 16.3479 60.8352 16.7155 60.9463C16.3479 61.0574 15.9797 61.0826 15.6122 61.0878C15.2446 61.0826 14.877 61.0567 14.5088 60.9463Z" fill="#C7C7C7"/>
</svg>
