<svg width="7" height="12" viewBox="0 0 7 12" fill="none" xmlns="http://www.w3.org/2000/svg">
<path d="M2.79999 6.00005L6.69999 9.90005C6.88332 10.0834 6.97499 10.3167 6.97499 10.6C6.97499 10.8834 6.88332 11.1167 6.69999 11.3C6.51665 11.4834 6.28332 11.575 5.99999 11.575C5.71665 11.575 5.48332 11.4834 5.29999 11.3L0.699988 6.70005C0.599988 6.60005 0.529154 6.49172 0.487488 6.37505C0.445821 6.25838 0.424988 6.13338 0.424988 6.00005C0.424988 5.86672 0.445821 5.74172 0.487488 5.62505C0.529154 5.50838 0.599988 5.40005 0.699988 5.30005L5.29999 0.700049C5.48332 0.516715 5.71665 0.425049 5.99999 0.425049C6.28332 0.425049 6.51665 0.516715 6.69999 0.700049C6.88332 0.883382 6.97499 1.11672 6.97499 1.40005C6.97499 1.68338 6.88332 1.91672 6.69999 2.10005L2.79999 6.00005Z" fill="#111111"/>
</svg>
