<svg width="163" height="74" viewBox="0 0 163 74" fill="none" xmlns="http://www.w3.org/2000/svg">
<path d="M52.98 17V15.908C53.8667 15.2733 54.6087 14.7133 55.206 14.228C55.8127 13.7427 56.298 13.2947 56.662 12.884C57.026 12.4733 57.2873 12.086 57.446 11.722C57.614 11.3487 57.698 10.9707 57.698 10.588C57.698 10.0933 57.544 9.692 57.236 9.384C56.928 9.076 56.4987 8.922 55.948 8.922C55.3693 8.922 54.9073 9.118 54.562 9.51C54.226 9.89267 54.0347 10.42 53.988 11.092L52.686 10.49C52.7513 9.902 52.924 9.39333 53.204 8.964C53.484 8.53467 53.862 8.20333 54.338 7.97C54.8233 7.73667 55.3833 7.62 56.018 7.62C56.5407 7.62 56.998 7.69467 57.39 7.844C57.7913 7.99333 58.1273 8.20333 58.398 8.474C58.6687 8.73533 58.874 9.04333 59.014 9.398C59.1633 9.75267 59.238 10.1307 59.238 10.532C59.238 11.12 59.0933 11.6893 58.804 12.24C58.5147 12.7813 58.0573 13.3367 57.432 13.906C56.8067 14.4753 55.9853 15.0867 54.968 15.74V15.768C55.08 15.7493 55.234 15.74 55.43 15.74C55.626 15.7307 55.822 15.726 56.018 15.726C56.214 15.7167 56.3727 15.712 56.494 15.712H59.406V17H52.98ZM63.5068 12.422C63.0215 12.422 62.5875 12.3193 62.2048 12.114C61.8221 11.9087 61.5235 11.6287 61.3088 11.274C61.1035 10.91 61.0008 10.49 61.0008 10.014C61.0008 9.54733 61.1035 9.132 61.3088 8.768C61.5235 8.404 61.8221 8.124 62.2048 7.928C62.5875 7.72267 63.0215 7.62 63.5068 7.62C64.0108 7.62 64.4495 7.72267 64.8228 7.928C65.1961 8.124 65.4901 8.404 65.7048 8.768C65.9195 9.132 66.0268 9.54733 66.0268 10.014C66.0268 10.49 65.9195 10.91 65.7048 11.274C65.4901 11.6287 65.1961 11.9087 64.8228 12.114C64.4495 12.3193 64.0108 12.422 63.5068 12.422ZM63.5068 11.316C63.8988 11.316 64.2161 11.1947 64.4588 10.952C64.7015 10.7 64.8228 10.3873 64.8228 10.014C64.8228 9.63133 64.7015 9.31867 64.4588 9.076C64.2161 8.83333 63.8988 8.712 63.5068 8.712C63.1335 8.712 62.8208 8.83333 62.5688 9.076C62.3261 9.31867 62.2048 9.63133 62.2048 10.014C62.2048 10.3873 62.3261 10.7 62.5688 10.952C62.8208 11.1947 63.1335 11.316 63.5068 11.316ZM72.7314 17V7.76H79.4234V9.048H74.2294V11.708H78.2894V12.968H74.2294V15.712H79.6194V17H72.7314ZM83.247 7.942V14.9C83.247 15.2453 83.3357 15.4973 83.513 15.656C83.6997 15.8147 83.947 15.894 84.255 15.894C84.507 15.894 84.7263 15.8567 84.913 15.782C85.0997 15.698 85.2723 15.586 85.431 15.446L85.767 16.538C85.5523 16.7247 85.2863 16.874 84.969 16.986C84.661 17.0887 84.3157 17.14 83.933 17.14C83.5317 17.14 83.163 17.0747 82.827 16.944C82.491 16.8133 82.2297 16.6033 82.043 16.314C81.8563 16.0153 81.7583 15.628 81.749 15.152V8.362L83.247 7.942ZM85.655 10V11.176H80.405V10H85.655ZM91.2236 12.506C91.2236 12.0393 91.093 11.68 90.8316 11.428C90.5796 11.1667 90.2296 11.036 89.7816 11.036C89.3616 11.036 89.0023 11.134 88.7036 11.33C88.405 11.526 88.1856 11.8433 88.0456 12.282L86.7856 11.75C86.963 11.1807 87.3083 10.7233 87.8216 10.378C88.3443 10.0327 89.0163 9.86 89.8376 9.86C90.3976 9.86 90.8923 9.95333 91.3216 10.14C91.751 10.3173 92.087 10.588 92.3296 10.952C92.5816 11.316 92.7076 11.7827 92.7076 12.352V15.474C92.7076 15.8193 92.8803 15.992 93.2256 15.992C93.3936 15.992 93.557 15.9687 93.7156 15.922L93.6316 16.958C93.417 17.0607 93.1463 17.112 92.8196 17.112C92.521 17.112 92.2503 17.0607 92.0076 16.958C91.7743 16.846 91.5876 16.6827 91.4476 16.468C91.317 16.244 91.2516 15.9687 91.2516 15.642V15.544L91.5596 15.53C91.4756 15.894 91.303 16.1973 91.0416 16.44C90.7803 16.6733 90.477 16.8507 90.1316 16.972C89.7863 17.084 89.4363 17.14 89.0816 17.14C88.643 17.14 88.2463 17.07 87.8916 16.93C87.5463 16.79 87.271 16.58 87.0656 16.3C86.8696 16.0107 86.7716 15.656 86.7716 15.236C86.7716 14.7133 86.9396 14.284 87.2756 13.948C87.621 13.612 88.1063 13.3833 88.7316 13.262L91.4476 12.73L91.4336 13.78L89.4596 14.186C89.0676 14.2607 88.7736 14.368 88.5776 14.508C88.3816 14.648 88.2836 14.8533 88.2836 15.124C88.2836 15.3853 88.3816 15.5953 88.5776 15.754C88.783 15.9033 89.0536 15.978 89.3896 15.978C89.623 15.978 89.847 15.95 90.0616 15.894C90.2856 15.838 90.4863 15.7493 90.6636 15.628C90.841 15.4973 90.9763 15.334 91.0696 15.138C91.1723 14.9327 91.2236 14.69 91.2236 14.41V12.506ZM95.162 19.94V10H96.492L96.604 11.96L96.408 11.722C96.52 11.358 96.6927 11.036 96.926 10.756C97.1593 10.476 97.4487 10.2567 97.794 10.098C98.1487 9.93933 98.536 9.86 98.956 9.86C99.5253 9.86 100.043 10.0047 100.51 10.294C100.977 10.5833 101.345 10.9987 101.616 11.54C101.887 12.072 102.022 12.7207 102.022 13.486C102.022 14.2513 101.882 14.9093 101.602 15.46C101.331 16.0013 100.958 16.4167 100.482 16.706C100.015 16.9953 99.4927 17.14 98.914 17.14C98.3167 17.14 97.808 16.986 97.388 16.678C96.968 16.3607 96.6693 15.9593 96.492 15.474L96.66 15.236V19.94H95.162ZM98.592 15.922C99.1987 15.922 99.67 15.7073 100.006 15.278C100.351 14.8487 100.524 14.256 100.524 13.5C100.524 12.744 100.356 12.1513 100.02 11.722C99.684 11.2833 99.2173 11.064 98.62 11.064C98.228 11.064 97.8827 11.1667 97.584 11.372C97.2947 11.568 97.066 11.848 96.898 12.212C96.7393 12.5667 96.66 12.996 96.66 13.5C96.66 13.9947 96.7393 14.424 96.898 14.788C97.0567 15.152 97.2807 15.432 97.57 15.628C97.8593 15.824 98.2 15.922 98.592 15.922ZM107.972 12.506C107.972 12.0393 107.841 11.68 107.58 11.428C107.328 11.1667 106.978 11.036 106.53 11.036C106.11 11.036 105.75 11.134 105.452 11.33C105.153 11.526 104.934 11.8433 104.794 12.282L103.534 11.75C103.711 11.1807 104.056 10.7233 104.57 10.378C105.092 10.0327 105.764 9.86 106.586 9.86C107.146 9.86 107.64 9.95333 108.07 10.14C108.499 10.3173 108.835 10.588 109.078 10.952C109.33 11.316 109.456 11.7827 109.456 12.352V15.474C109.456 15.8193 109.628 15.992 109.974 15.992C110.142 15.992 110.305 15.9687 110.464 15.922L110.38 16.958C110.165 17.0607 109.894 17.112 109.568 17.112C109.269 17.112 108.998 17.0607 108.756 16.958C108.522 16.846 108.336 16.6827 108.196 16.468C108.065 16.244 108 15.9687 108 15.642V15.544L108.308 15.53C108.224 15.894 108.051 16.1973 107.79 16.44C107.528 16.6733 107.225 16.8507 106.88 16.972C106.534 17.084 106.184 17.14 105.83 17.14C105.391 17.14 104.994 17.07 104.64 16.93C104.294 16.79 104.019 16.58 103.814 16.3C103.618 16.0107 103.52 15.656 103.52 15.236C103.52 14.7133 103.688 14.284 104.024 13.948C104.369 13.612 104.854 13.3833 105.48 13.262L108.196 12.73L108.182 13.78L106.208 14.186C105.816 14.2607 105.522 14.368 105.326 14.508C105.13 14.648 105.032 14.8533 105.032 15.124C105.032 15.3853 105.13 15.5953 105.326 15.754C105.531 15.9033 105.802 15.978 106.138 15.978C106.371 15.978 106.595 15.95 106.81 15.894C107.034 15.838 107.234 15.7493 107.412 15.628C107.589 15.4973 107.724 15.334 107.818 15.138C107.92 14.9327 107.972 14.69 107.972 14.41V12.506Z" fill="#2A6E26"/>
<path fill-rule="evenodd" clip-rule="evenodd" d="M93.9589 36H163V38H93.9589C93.4508 44.1595 88.2907 49 82 49C75.7093 49 70.5492 44.1595 70.0411 38H0V36H70.0411C70.5492 29.8405 75.7093 25 82 25C88.2907 25 93.4508 29.8405 93.9589 36Z" fill="#006633"/>
<path d="M50.372 66V56.76H57.064V58.048H51.87V60.708H55.93V61.968H51.87V64.712H57.26V66H50.372ZM59.0624 66V59H60.3924L60.4904 60.82L60.2944 60.624C60.4251 60.2227 60.6117 59.8913 60.8544 59.63C61.1064 59.3593 61.4004 59.1633 61.7364 59.042C62.0817 58.9207 62.4457 58.86 62.8284 58.86C63.3231 58.86 63.7664 58.958 64.1584 59.154C64.5597 59.3407 64.8771 59.6253 65.1104 60.008C65.3437 60.3907 65.4604 60.876 65.4604 61.464V66H63.9624V61.926C63.9624 61.2353 63.8177 60.7593 63.5284 60.498C63.2484 60.2273 62.8937 60.092 62.4644 60.092C62.1564 60.092 61.8577 60.1667 61.5684 60.316C61.2791 60.456 61.0364 60.6847 60.8404 61.002C60.6537 61.3193 60.5604 61.744 60.5604 62.276V66H59.0624ZM70.4184 66.14C69.8397 66.14 69.3124 65.9953 68.8364 65.706C68.3697 65.4167 68.001 65.0013 67.7304 64.46C67.4597 63.9187 67.3244 63.27 67.3244 62.514C67.3244 61.73 67.469 61.0673 67.7584 60.526C68.0477 59.9847 68.435 59.574 68.9204 59.294C69.4057 59.0047 69.9377 58.86 70.5164 58.86C71.1137 58.86 71.6177 59.0233 72.0284 59.35C72.439 59.6767 72.7144 60.1013 72.8544 60.624L72.6864 60.778V55.85H74.1844V66H72.8544L72.7424 64.096L72.9384 64.11C72.873 64.53 72.719 64.894 72.4764 65.202C72.2337 65.5007 71.9304 65.734 71.5664 65.902C71.2117 66.0607 70.829 66.14 70.4184 66.14ZM70.7404 64.936C71.1417 64.936 71.487 64.8333 71.7764 64.628C72.0657 64.4227 72.2897 64.1333 72.4484 63.76C72.607 63.3867 72.6864 62.9387 72.6864 62.416C72.6864 61.9307 72.607 61.5153 72.4484 61.17C72.2897 60.8153 72.0657 60.5447 71.7764 60.358C71.4964 60.1713 71.1697 60.078 70.7964 60.078C70.171 60.078 69.6857 60.2927 69.3404 60.722C68.995 61.1513 68.8224 61.744 68.8224 62.5C68.8224 63.256 68.9904 63.8533 69.3264 64.292C69.6624 64.7213 70.1337 64.936 70.7404 64.936ZM79.5877 66.14C78.8877 66.14 78.2717 65.9953 77.7397 65.706C77.2077 65.4167 76.7924 65.0013 76.4937 64.46C76.2044 63.9093 76.0597 63.256 76.0597 62.5C76.0597 61.744 76.2044 61.0953 76.4937 60.554C76.7924 60.0033 77.203 59.5833 77.7257 59.294C78.2484 59.0047 78.841 58.86 79.5037 58.86C80.185 58.86 80.7637 59 81.2397 59.28C81.7157 59.56 82.0797 59.9427 82.3317 60.428C82.5837 60.9133 82.7097 61.464 82.7097 62.08C82.7097 62.248 82.705 62.4067 82.6957 62.556C82.6864 62.7053 82.6724 62.836 82.6537 62.948H77.0257V61.8H81.9957L81.2537 62.024C81.2537 61.3893 81.095 60.904 80.7777 60.568C80.4604 60.2227 80.0264 60.05 79.4757 60.05C79.0744 60.05 78.7244 60.1433 78.4257 60.33C78.127 60.5167 77.8984 60.7967 77.7397 61.17C77.581 61.534 77.5017 61.982 77.5017 62.514C77.5017 63.0367 77.5857 63.48 77.7537 63.844C77.9217 64.208 78.1597 64.4833 78.4677 64.67C78.7757 64.8567 79.1397 64.95 79.5597 64.95C80.0264 64.95 80.4044 64.8613 80.6937 64.684C80.983 64.5067 81.2117 64.2593 81.3797 63.942L82.5697 64.502C82.4017 64.838 82.173 65.132 81.8837 65.384C81.6037 65.6267 81.2677 65.8133 80.8757 65.944C80.4837 66.0747 80.0544 66.14 79.5877 66.14ZM84.6015 66V59H85.8755L86.0155 60.26C86.2021 59.8027 86.4775 59.4573 86.8415 59.224C87.2148 58.9813 87.6721 58.86 88.2135 58.86C88.3535 58.86 88.4935 58.874 88.6335 58.902C88.7735 58.9207 88.8901 58.9533 88.9835 59L88.7735 60.316C88.6708 60.2787 88.5541 60.2507 88.4235 60.232C88.3021 60.204 88.1341 60.19 87.9195 60.19C87.6301 60.19 87.3455 60.2693 87.0655 60.428C86.7855 60.5773 86.5521 60.806 86.3655 61.114C86.1881 61.422 86.0995 61.814 86.0995 62.29V66H84.6015ZM93.3006 66.14C92.6006 66.14 91.9846 65.9953 91.4526 65.706C90.9206 65.4167 90.5053 65.0013 90.2066 64.46C89.9173 63.9093 89.7726 63.256 89.7726 62.5C89.7726 61.744 89.9173 61.0953 90.2066 60.554C90.5053 60.0033 90.9159 59.5833 91.4386 59.294C91.9613 59.0047 92.5539 58.86 93.2166 58.86C93.8979 58.86 94.4766 59 94.9526 59.28C95.4286 59.56 95.7926 59.9427 96.0446 60.428C96.2966 60.9133 96.4226 61.464 96.4226 62.08C96.4226 62.248 96.4179 62.4067 96.4086 62.556C96.3993 62.7053 96.3853 62.836 96.3666 62.948H90.7386V61.8H95.7086L94.9666 62.024C94.9666 61.3893 94.8079 60.904 94.4906 60.568C94.1733 60.2227 93.7393 60.05 93.1886 60.05C92.7873 60.05 92.4373 60.1433 92.1386 60.33C91.8399 60.5167 91.6113 60.7967 91.4526 61.17C91.2939 61.534 91.2146 61.982 91.2146 62.514C91.2146 63.0367 91.2986 63.48 91.4666 63.844C91.6346 64.208 91.8726 64.4833 92.1806 64.67C92.4886 64.8567 92.8526 64.95 93.2726 64.95C93.7393 64.95 94.1173 64.8613 94.4066 64.684C94.6959 64.5067 94.9246 64.2593 95.0926 63.942L96.2826 64.502C96.1146 64.838 95.8859 65.132 95.5966 65.384C95.3166 65.6267 94.9806 65.8133 94.5886 65.944C94.1966 66.0747 93.7673 66.14 93.3006 66.14ZM101.338 58.86C101.898 58.86 102.374 58.944 102.766 59.112C103.168 59.2707 103.504 59.4993 103.774 59.798C104.045 60.0967 104.25 60.4373 104.39 60.82L102.976 61.38C102.855 60.9507 102.659 60.624 102.388 60.4C102.127 60.1667 101.782 60.05 101.352 60.05C100.932 60.05 100.573 60.148 100.274 60.344C99.9757 60.5307 99.747 60.806 99.5883 61.17C99.439 61.534 99.3643 61.982 99.3643 62.514C99.3643 63.0367 99.4437 63.48 99.6023 63.844C99.761 64.208 99.9897 64.4833 100.288 64.67C100.587 64.8567 100.942 64.95 101.352 64.95C101.67 64.95 101.945 64.8987 102.178 64.796C102.412 64.684 102.603 64.53 102.752 64.334C102.911 64.1287 103.018 63.8813 103.074 63.592L104.432 64.054C104.302 64.474 104.096 64.8427 103.816 65.16C103.546 65.468 103.205 65.7107 102.794 65.888C102.384 66.056 101.912 66.14 101.38 66.14C100.69 66.14 100.078 65.9953 99.5463 65.706C99.0143 65.4167 98.599 65.0013 98.3003 64.46C98.011 63.9093 97.8663 63.256 97.8663 62.5C97.8663 61.744 98.011 61.0953 98.3003 60.554C98.599 60.0033 99.0097 59.5833 99.5323 59.294C100.064 59.0047 100.666 58.86 101.338 58.86ZM100.47 65.916L101.058 65.566C101.665 65.7153 102.099 65.9393 102.36 66.238C102.631 66.546 102.766 66.9147 102.766 67.344C102.766 67.82 102.603 68.2167 102.276 68.534C101.95 68.8513 101.52 69.01 100.988 69.01C100.68 69.01 100.414 68.9727 100.19 68.898C99.9757 68.8233 99.789 68.7253 99.6303 68.604L99.9383 67.694C100.06 67.778 100.19 67.848 100.33 67.904C100.47 67.9693 100.643 68.002 100.848 68.002C101.1 68.002 101.306 67.918 101.464 67.75C101.632 67.5913 101.716 67.3673 101.716 67.078C101.716 66.8353 101.623 66.6253 101.436 66.448C101.259 66.28 100.937 66.1027 100.47 65.916ZM109.214 58.86C109.895 58.86 110.497 59.0047 111.02 59.294C111.542 59.5833 111.948 60.0033 112.238 60.554C112.536 61.0953 112.686 61.744 112.686 62.5C112.686 63.256 112.536 63.9093 112.238 64.46C111.948 65.0013 111.542 65.4167 111.02 65.706C110.497 65.9953 109.895 66.14 109.214 66.14C108.532 66.14 107.93 65.9953 107.408 65.706C106.885 65.4167 106.474 65.0013 106.176 64.46C105.877 63.9093 105.728 63.256 105.728 62.5C105.728 61.744 105.877 61.0953 106.176 60.554C106.474 60.0033 106.885 59.5833 107.408 59.294C107.93 59.0047 108.532 58.86 109.214 58.86ZM109.214 60.036C108.794 60.036 108.434 60.134 108.136 60.33C107.846 60.5167 107.622 60.792 107.464 61.156C107.305 61.52 107.226 61.968 107.226 62.5C107.226 63.0227 107.305 63.4707 107.464 63.844C107.622 64.208 107.846 64.488 108.136 64.684C108.434 64.8707 108.794 64.964 109.214 64.964C109.634 64.964 109.988 64.8707 110.278 64.684C110.567 64.488 110.791 64.208 110.95 63.844C111.108 63.4707 111.188 63.0227 111.188 62.5C111.188 61.968 111.108 61.52 110.95 61.156C110.791 60.792 110.567 60.5167 110.278 60.33C109.988 60.134 109.634 60.036 109.214 60.036Z" fill="#006633"/>
</svg>
