<svg width="164" height="74" viewBox="0 0 164 74" fill="none" xmlns="http://www.w3.org/2000/svg">
<path d="M56.342 17V10.658C56.342 10.4713 56.342 10.28 56.342 10.084C56.3513 9.87867 56.3607 9.664 56.37 9.44C56.0527 9.748 55.6887 10.014 55.278 10.238C54.8767 10.4527 54.4613 10.6067 54.032 10.7L53.752 9.398C53.948 9.37 54.1767 9.30467 54.438 9.202C54.6993 9.09933 54.97 8.96867 55.25 8.81C55.53 8.65133 55.7867 8.48333 56.02 8.306C56.2533 8.11933 56.4353 7.93733 56.566 7.76H57.826V17H56.342ZM62.4228 12.422C61.9375 12.422 61.5035 12.3193 61.1208 12.114C60.7381 11.9087 60.4395 11.6287 60.2248 11.274C60.0195 10.91 59.9168 10.49 59.9168 10.014C59.9168 9.54733 60.0195 9.132 60.2248 8.768C60.4395 8.404 60.7381 8.124 61.1208 7.928C61.5035 7.72267 61.9375 7.62 62.4228 7.62C62.9268 7.62 63.3655 7.72267 63.7388 7.928C64.1121 8.124 64.4061 8.404 64.6208 8.768C64.8355 9.132 64.9428 9.54733 64.9428 10.014C64.9428 10.49 64.8355 10.91 64.6208 11.274C64.4061 11.6287 64.1121 11.9087 63.7388 12.114C63.3655 12.3193 62.9268 12.422 62.4228 12.422ZM62.4228 11.316C62.8148 11.316 63.1321 11.1947 63.3748 10.952C63.6175 10.7 63.7388 10.3873 63.7388 10.014C63.7388 9.63133 63.6175 9.31867 63.3748 9.076C63.1321 8.83333 62.8148 8.712 62.4228 8.712C62.0495 8.712 61.7368 8.83333 61.4848 9.076C61.2421 9.31867 61.1208 9.63133 61.1208 10.014C61.1208 10.3873 61.2421 10.7 61.4848 10.952C61.7368 11.1947 62.0495 11.316 62.4228 11.316ZM71.6474 17V7.76H78.3394V9.048H73.1454V11.708H77.2054V12.968H73.1454V15.712H78.5354V17H71.6474ZM82.163 7.942V14.9C82.163 15.2453 82.2517 15.4973 82.429 15.656C82.6157 15.8147 82.863 15.894 83.171 15.894C83.423 15.894 83.6424 15.8567 83.829 15.782C84.0157 15.698 84.1884 15.586 84.347 15.446L84.683 16.538C84.4684 16.7247 84.2024 16.874 83.885 16.986C83.577 17.0887 83.2317 17.14 82.849 17.14C82.4477 17.14 82.079 17.0747 81.743 16.944C81.407 16.8133 81.1457 16.6033 80.959 16.314C80.7724 16.0153 80.6744 15.628 80.665 15.152V8.362L82.163 7.942ZM84.571 10V11.176H79.321V10H84.571ZM90.1396 12.506C90.1396 12.0393 90.009 11.68 89.7476 11.428C89.4956 11.1667 89.1456 11.036 88.6976 11.036C88.2776 11.036 87.9183 11.134 87.6196 11.33C87.321 11.526 87.1016 11.8433 86.9616 12.282L85.7016 11.75C85.879 11.1807 86.2243 10.7233 86.7376 10.378C87.2603 10.0327 87.9323 9.86 88.7536 9.86C89.3136 9.86 89.8083 9.95333 90.2376 10.14C90.667 10.3173 91.003 10.588 91.2456 10.952C91.4976 11.316 91.6236 11.7827 91.6236 12.352V15.474C91.6236 15.8193 91.7963 15.992 92.1416 15.992C92.3096 15.992 92.473 15.9687 92.6316 15.922L92.5476 16.958C92.333 17.0607 92.0623 17.112 91.7356 17.112C91.437 17.112 91.1663 17.0607 90.9236 16.958C90.6903 16.846 90.5036 16.6827 90.3636 16.468C90.233 16.244 90.1676 15.9687 90.1676 15.642V15.544L90.4756 15.53C90.3916 15.894 90.219 16.1973 89.9576 16.44C89.6963 16.6733 89.393 16.8507 89.0476 16.972C88.7023 17.084 88.3523 17.14 87.9976 17.14C87.559 17.14 87.1623 17.07 86.8076 16.93C86.4623 16.79 86.187 16.58 85.9816 16.3C85.7856 16.0107 85.6876 15.656 85.6876 15.236C85.6876 14.7133 85.8556 14.284 86.1916 13.948C86.537 13.612 87.0223 13.3833 87.6476 13.262L90.3636 12.73L90.3496 13.78L88.3756 14.186C87.9836 14.2607 87.6896 14.368 87.4936 14.508C87.2976 14.648 87.1996 14.8533 87.1996 15.124C87.1996 15.3853 87.2976 15.5953 87.4936 15.754C87.699 15.9033 87.9696 15.978 88.3056 15.978C88.539 15.978 88.763 15.95 88.9776 15.894C89.2016 15.838 89.4023 15.7493 89.5796 15.628C89.757 15.4973 89.8923 15.334 89.9856 15.138C90.0883 14.9327 90.1396 14.69 90.1396 14.41V12.506ZM94.078 19.94V10H95.408L95.52 11.96L95.324 11.722C95.436 11.358 95.6087 11.036 95.842 10.756C96.0753 10.476 96.3647 10.2567 96.71 10.098C97.0647 9.93933 97.452 9.86 97.872 9.86C98.4413 9.86 98.9593 10.0047 99.426 10.294C99.8927 10.5833 100.261 10.9987 100.532 11.54C100.803 12.072 100.938 12.7207 100.938 13.486C100.938 14.2513 100.798 14.9093 100.518 15.46C100.247 16.0013 99.874 16.4167 99.398 16.706C98.9313 16.9953 98.4087 17.14 97.83 17.14C97.2327 17.14 96.724 16.986 96.304 16.678C95.884 16.3607 95.5853 15.9593 95.408 15.474L95.576 15.236V19.94H94.078ZM97.508 15.922C98.1147 15.922 98.586 15.7073 98.922 15.278C99.2673 14.8487 99.44 14.256 99.44 13.5C99.44 12.744 99.272 12.1513 98.936 11.722C98.6 11.2833 98.1333 11.064 97.536 11.064C97.144 11.064 96.7987 11.1667 96.5 11.372C96.2107 11.568 95.982 11.848 95.814 12.212C95.6553 12.5667 95.576 12.996 95.576 13.5C95.576 13.9947 95.6553 14.424 95.814 14.788C95.9727 15.152 96.1967 15.432 96.486 15.628C96.7753 15.824 97.116 15.922 97.508 15.922ZM106.888 12.506C106.888 12.0393 106.757 11.68 106.496 11.428C106.244 11.1667 105.894 11.036 105.446 11.036C105.026 11.036 104.666 11.134 104.368 11.33C104.069 11.526 103.85 11.8433 103.71 12.282L102.45 11.75C102.627 11.1807 102.972 10.7233 103.486 10.378C104.008 10.0327 104.68 9.86 105.502 9.86C106.062 9.86 106.556 9.95333 106.986 10.14C107.415 10.3173 107.751 10.588 107.994 10.952C108.246 11.316 108.372 11.7827 108.372 12.352V15.474C108.372 15.8193 108.544 15.992 108.89 15.992C109.058 15.992 109.221 15.9687 109.38 15.922L109.296 16.958C109.081 17.0607 108.81 17.112 108.484 17.112C108.185 17.112 107.914 17.0607 107.672 16.958C107.438 16.846 107.252 16.6827 107.112 16.468C106.981 16.244 106.916 15.9687 106.916 15.642V15.544L107.224 15.53C107.14 15.894 106.967 16.1973 106.706 16.44C106.444 16.6733 106.141 16.8507 105.796 16.972C105.45 17.084 105.1 17.14 104.746 17.14C104.307 17.14 103.91 17.07 103.556 16.93C103.21 16.79 102.935 16.58 102.73 16.3C102.534 16.0107 102.436 15.656 102.436 15.236C102.436 14.7133 102.604 14.284 102.94 13.948C103.285 13.612 103.77 13.3833 104.396 13.262L107.112 12.73L107.098 13.78L105.124 14.186C104.732 14.2607 104.438 14.368 104.242 14.508C104.046 14.648 103.948 14.8533 103.948 15.124C103.948 15.3853 104.046 15.5953 104.242 15.754C104.447 15.9033 104.718 15.978 105.054 15.978C105.287 15.978 105.511 15.95 105.726 15.894C105.95 15.838 106.15 15.7493 106.328 15.628C106.505 15.4973 106.64 15.334 106.734 15.138C106.836 14.9327 106.888 14.69 106.888 14.41V12.506Z" fill="#2A6E26"/>
<path fill-rule="evenodd" clip-rule="evenodd" d="M93.9589 36H164V38H93.9589C93.4508 44.1595 88.2907 49 82 49C75.7093 49 70.5492 44.1595 70.0411 38H0V36H70.0411C70.5492 29.8405 75.7093 25 82 25C88.2907 25 93.4508 29.8405 93.9589 36Z" fill="#006633"/>
<path d="M33.134 56.76C34.5807 56.76 35.7053 57.1613 36.508 57.964C37.32 58.7573 37.726 59.896 37.726 61.38C37.726 62.864 37.32 64.0073 36.508 64.81C35.7053 65.6033 34.5807 66 33.134 66H29.872V56.76H33.134ZM33.134 64.726C34.114 64.726 34.8607 64.4367 35.374 63.858C35.8967 63.27 36.158 62.444 36.158 61.38C36.158 60.316 35.8967 59.4947 35.374 58.916C34.8607 58.328 34.114 58.034 33.134 58.034H31.37V64.726H33.134ZM43.7568 61.506C43.7568 61.0393 43.6262 60.68 43.3648 60.428C43.1128 60.1667 42.7628 60.036 42.3148 60.036C41.8948 60.036 41.5355 60.134 41.2368 60.33C40.9382 60.526 40.7188 60.8433 40.5788 61.282L39.3188 60.75C39.4962 60.1807 39.8415 59.7233 40.3548 59.378C40.8775 59.0327 41.5495 58.86 42.3708 58.86C42.9308 58.86 43.4255 58.9533 43.8548 59.14C44.2842 59.3173 44.6202 59.588 44.8628 59.952C45.1148 60.316 45.2408 60.7827 45.2408 61.352V64.474C45.2408 64.8193 45.4135 64.992 45.7588 64.992C45.9268 64.992 46.0902 64.9687 46.2488 64.922L46.1648 65.958C45.9502 66.0607 45.6795 66.112 45.3528 66.112C45.0542 66.112 44.7835 66.0607 44.5408 65.958C44.3075 65.846 44.1208 65.6827 43.9808 65.468C43.8502 65.244 43.7848 64.9687 43.7848 64.642V64.544L44.0928 64.53C44.0088 64.894 43.8362 65.1973 43.5748 65.44C43.3135 65.6733 43.0102 65.8507 42.6648 65.972C42.3195 66.084 41.9695 66.14 41.6148 66.14C41.1762 66.14 40.7795 66.07 40.4248 65.93C40.0795 65.79 39.8042 65.58 39.5988 65.3C39.4028 65.0107 39.3048 64.656 39.3048 64.236C39.3048 63.7133 39.4728 63.284 39.8088 62.948C40.1542 62.612 40.6395 62.3833 41.2648 62.262L43.9808 61.73L43.9668 62.78L41.9928 63.186C41.6008 63.2607 41.3068 63.368 41.1108 63.508C40.9148 63.648 40.8168 63.8533 40.8168 64.124C40.8168 64.3853 40.9148 64.5953 41.1108 64.754C41.3162 64.9033 41.5868 64.978 41.9228 64.978C42.1562 64.978 42.3802 64.95 42.5948 64.894C42.8188 64.838 43.0195 64.7493 43.1968 64.628C43.3742 64.4973 43.5095 64.334 43.6028 64.138C43.7055 63.9327 43.7568 63.69 43.7568 63.41V61.506ZM50.3695 66.14C49.7909 66.14 49.2635 65.9953 48.7875 65.706C48.3209 65.4167 47.9522 65.0013 47.6815 64.46C47.4109 63.9187 47.2755 63.27 47.2755 62.514C47.2755 61.73 47.4202 61.0673 47.7095 60.526C47.9989 59.9847 48.3862 59.574 48.8715 59.294C49.3569 59.0047 49.8889 58.86 50.4675 58.86C51.0649 58.86 51.5689 59.0233 51.9795 59.35C52.3902 59.6767 52.6655 60.1013 52.8055 60.624L52.6375 60.778V55.85H54.1355V66H52.8055L52.6935 64.096L52.8895 64.11C52.8242 64.53 52.6702 64.894 52.4275 65.202C52.1849 65.5007 51.8815 65.734 51.5175 65.902C51.1629 66.0607 50.7802 66.14 50.3695 66.14ZM50.6915 64.936C51.0929 64.936 51.4382 64.8333 51.7275 64.628C52.0169 64.4227 52.2409 64.1333 52.3995 63.76C52.5582 63.3867 52.6375 62.9387 52.6375 62.416C52.6375 61.9307 52.5582 61.5153 52.3995 61.17C52.2409 60.8153 52.0169 60.5447 51.7275 60.358C51.4475 60.1713 51.1209 60.078 50.7475 60.078C50.1222 60.078 49.6369 60.2927 49.2915 60.722C48.9462 61.1513 48.7735 61.744 48.7735 62.5C48.7735 63.256 48.9415 63.8533 49.2775 64.292C49.6135 64.7213 50.0849 64.936 50.6915 64.936ZM59.4969 58.86C60.1782 58.86 60.7802 59.0047 61.3029 59.294C61.8255 59.5833 62.2315 60.0033 62.5209 60.554C62.8195 61.0953 62.9689 61.744 62.9689 62.5C62.9689 63.256 62.8195 63.9093 62.5209 64.46C62.2315 65.0013 61.8255 65.4167 61.3029 65.706C60.7802 65.9953 60.1782 66.14 59.4969 66.14C58.8155 66.14 58.2135 65.9953 57.6909 65.706C57.1682 65.4167 56.7575 65.0013 56.4589 64.46C56.1602 63.9093 56.0109 63.256 56.0109 62.5C56.0109 61.744 56.1602 61.0953 56.4589 60.554C56.7575 60.0033 57.1682 59.5833 57.6909 59.294C58.2135 59.0047 58.8155 58.86 59.4969 58.86ZM59.4969 60.036C59.0769 60.036 58.7175 60.134 58.4189 60.33C58.1295 60.5167 57.9055 60.792 57.7469 61.156C57.5882 61.52 57.5089 61.968 57.5089 62.5C57.5089 63.0227 57.5882 63.4707 57.7469 63.844C57.9055 64.208 58.1295 64.488 58.4189 64.684C58.7175 64.8707 59.0769 64.964 59.4969 64.964C59.9169 64.964 60.2715 64.8707 60.5609 64.684C60.8502 64.488 61.0742 64.208 61.2329 63.844C61.3915 63.4707 61.4709 63.0227 61.4709 62.5C61.4709 61.968 61.3915 61.52 61.2329 61.156C61.0742 60.792 60.8502 60.5167 60.5609 60.33C60.2715 60.134 59.9169 60.036 59.4969 60.036ZM67.5134 66.14C66.8134 66.14 66.1741 66.0047 65.5954 65.734C65.0167 65.4633 64.5594 65.0807 64.2234 64.586L65.2594 63.69C65.4647 64.0727 65.7587 64.3807 66.1414 64.614C66.5334 64.838 67.0001 64.95 67.5414 64.95C67.9707 64.95 68.3114 64.8753 68.5634 64.726C68.8154 64.5767 68.9414 64.3667 68.9414 64.096C68.9414 63.9187 68.8807 63.7647 68.7594 63.634C68.6474 63.494 68.4281 63.3867 68.1014 63.312L66.6314 63.004C65.8847 62.8547 65.3527 62.6167 65.0354 62.29C64.7181 61.954 64.5594 61.5293 64.5594 61.016C64.5594 60.6333 64.6714 60.2787 64.8954 59.952C65.1194 59.6253 65.4461 59.364 65.8754 59.168C66.3141 58.9627 66.8367 58.86 67.4434 58.86C68.1434 58.86 68.7407 58.986 69.2354 59.238C69.7301 59.4807 70.1081 59.8307 70.3694 60.288L69.3334 61.156C69.1561 60.7827 68.8947 60.5073 68.5494 60.33C68.2041 60.1433 67.8447 60.05 67.4714 60.05C67.1727 60.05 66.9161 60.0873 66.7014 60.162C66.4867 60.2367 66.3234 60.3393 66.2114 60.47C66.0994 60.6007 66.0434 60.7547 66.0434 60.932C66.0434 61.1187 66.1134 61.282 66.2534 61.422C66.3934 61.562 66.6454 61.6693 67.0094 61.744L68.6054 62.08C69.2774 62.2107 69.7487 62.4347 70.0194 62.752C70.2994 63.06 70.4394 63.438 70.4394 63.886C70.4394 64.334 70.3227 64.7307 70.0894 65.076C69.8561 65.412 69.5201 65.6733 69.0814 65.86C68.6427 66.0467 68.1201 66.14 67.5134 66.14ZM76.8163 68.94V59H78.1463L78.2583 60.96L78.0623 60.722C78.1743 60.358 78.347 60.036 78.5803 59.756C78.8136 59.476 79.103 59.2567 79.4483 59.098C79.803 58.9393 80.1903 58.86 80.6103 58.86C81.1796 58.86 81.6976 59.0047 82.1643 59.294C82.631 59.5833 82.9996 59.9987 83.2703 60.54C83.541 61.072 83.6763 61.7207 83.6763 62.486C83.6763 63.2513 83.5363 63.9093 83.2563 64.46C82.9856 65.0013 82.6123 65.4167 82.1363 65.706C81.6696 65.9953 81.147 66.14 80.5683 66.14C79.971 66.14 79.4623 65.986 79.0423 65.678C78.6223 65.3607 78.3236 64.9593 78.1463 64.474L78.3143 64.236V68.94H76.8163ZM80.2463 64.922C80.853 64.922 81.3243 64.7073 81.6603 64.278C82.0056 63.8487 82.1783 63.256 82.1783 62.5C82.1783 61.744 82.0103 61.1513 81.6743 60.722C81.3383 60.2833 80.8716 60.064 80.2743 60.064C79.8823 60.064 79.537 60.1667 79.2383 60.372C78.949 60.568 78.7203 60.848 78.5523 61.212C78.3936 61.5667 78.3143 61.996 78.3143 62.5C78.3143 62.9947 78.3936 63.424 78.5523 63.788C78.711 64.152 78.935 64.432 79.2243 64.628C79.5136 64.824 79.8543 64.922 80.2463 64.922ZM88.6736 66.14C87.9736 66.14 87.3576 65.9953 86.8256 65.706C86.2936 65.4167 85.8783 65.0013 85.5796 64.46C85.2903 63.9093 85.1456 63.256 85.1456 62.5C85.1456 61.744 85.2903 61.0953 85.5796 60.554C85.8783 60.0033 86.289 59.5833 86.8116 59.294C87.3343 59.0047 87.927 58.86 88.5896 58.86C89.271 58.86 89.8496 59 90.3256 59.28C90.8016 59.56 91.1656 59.9427 91.4176 60.428C91.6696 60.9133 91.7956 61.464 91.7956 62.08C91.7956 62.248 91.791 62.4067 91.7816 62.556C91.7723 62.7053 91.7583 62.836 91.7396 62.948H86.1116V61.8H91.0816L90.3396 62.024C90.3396 61.3893 90.181 60.904 89.8636 60.568C89.5463 60.2227 89.1123 60.05 88.5616 60.05C88.1603 60.05 87.8103 60.1433 87.5116 60.33C87.213 60.5167 86.9843 60.7967 86.8256 61.17C86.667 61.534 86.5876 61.982 86.5876 62.514C86.5876 63.0367 86.6716 63.48 86.8396 63.844C87.0076 64.208 87.2456 64.4833 87.5536 64.67C87.8616 64.8567 88.2256 64.95 88.6456 64.95C89.1123 64.95 89.4903 64.8613 89.7796 64.684C90.069 64.5067 90.2976 64.2593 90.4656 63.942L91.6556 64.502C91.4876 64.838 91.259 65.132 90.9696 65.384C90.6896 65.6267 90.3536 65.8133 89.9616 65.944C89.5696 66.0747 89.1403 66.14 88.6736 66.14ZM96.3474 66.14C95.6474 66.14 95.0081 66.0047 94.4294 65.734C93.8507 65.4633 93.3934 65.0807 93.0574 64.586L94.0934 63.69C94.2987 64.0727 94.5927 64.3807 94.9754 64.614C95.3674 64.838 95.8341 64.95 96.3754 64.95C96.8047 64.95 97.1454 64.8753 97.3974 64.726C97.6494 64.5767 97.7754 64.3667 97.7754 64.096C97.7754 63.9187 97.7147 63.7647 97.5934 63.634C97.4814 63.494 97.2621 63.3867 96.9354 63.312L95.4654 63.004C94.7187 62.8547 94.1867 62.6167 93.8694 62.29C93.5521 61.954 93.3934 61.5293 93.3934 61.016C93.3934 60.6333 93.5054 60.2787 93.7294 59.952C93.9534 59.6253 94.2801 59.364 94.7094 59.168C95.1481 58.9627 95.6707 58.86 96.2774 58.86C96.9774 58.86 97.5747 58.986 98.0694 59.238C98.5641 59.4807 98.9421 59.8307 99.2034 60.288L98.1674 61.156C97.9901 60.7827 97.7287 60.5073 97.3834 60.33C97.0381 60.1433 96.6787 60.05 96.3054 60.05C96.0067 60.05 95.7501 60.0873 95.5354 60.162C95.3207 60.2367 95.1574 60.3393 95.0454 60.47C94.9334 60.6007 94.8774 60.7547 94.8774 60.932C94.8774 61.1187 94.9474 61.282 95.0874 61.422C95.2274 61.562 95.4794 61.6693 95.8434 61.744L97.4394 62.08C98.1114 62.2107 98.5827 62.4347 98.8534 62.752C99.1334 63.06 99.2734 63.438 99.2734 63.886C99.2734 64.334 99.1567 64.7307 98.9234 65.076C98.6901 65.412 98.3541 65.6733 97.9154 65.86C97.4767 66.0467 96.9541 66.14 96.3474 66.14ZM103.758 66.14C103.058 66.14 102.418 66.0047 101.84 65.734C101.261 65.4633 100.804 65.0807 100.468 64.586L101.504 63.69C101.709 64.0727 102.003 64.3807 102.386 64.614C102.778 64.838 103.244 64.95 103.786 64.95C104.215 64.95 104.556 64.8753 104.808 64.726C105.06 64.5767 105.186 64.3667 105.186 64.096C105.186 63.9187 105.125 63.7647 105.004 63.634C104.892 63.494 104.672 63.3867 104.346 63.312L102.876 63.004C102.129 62.8547 101.597 62.6167 101.28 62.29C100.962 61.954 100.804 61.5293 100.804 61.016C100.804 60.6333 100.916 60.2787 101.14 59.952C101.364 59.6253 101.69 59.364 102.12 59.168C102.558 58.9627 103.081 58.86 103.688 58.86C104.388 58.86 104.985 58.986 105.48 59.238C105.974 59.4807 106.352 59.8307 106.614 60.288L105.578 61.156C105.4 60.7827 105.139 60.5073 104.794 60.33C104.448 60.1433 104.089 60.05 103.716 60.05C103.417 60.05 103.16 60.0873 102.946 60.162C102.731 60.2367 102.568 60.3393 102.456 60.47C102.344 60.6007 102.288 60.7547 102.288 60.932C102.288 61.1187 102.358 61.282 102.498 61.422C102.638 61.562 102.89 61.6693 103.254 61.744L104.85 62.08C105.522 62.2107 105.993 62.4347 106.264 62.752C106.544 63.06 106.684 63.438 106.684 63.886C106.684 64.334 106.567 64.7307 106.334 65.076C106.1 65.412 105.764 65.6733 105.326 65.86C104.887 66.0467 104.364 66.14 103.758 66.14ZM111.532 58.86C112.213 58.86 112.815 59.0047 113.338 59.294C113.861 59.5833 114.267 60.0033 114.556 60.554C114.855 61.0953 115.004 61.744 115.004 62.5C115.004 63.256 114.855 63.9093 114.556 64.46C114.267 65.0013 113.861 65.4167 113.338 65.706C112.815 65.9953 112.213 66.14 111.532 66.14C110.851 66.14 110.249 65.9953 109.726 65.706C109.203 65.4167 108.793 65.0013 108.494 64.46C108.195 63.9093 108.046 63.256 108.046 62.5C108.046 61.744 108.195 61.0953 108.494 60.554C108.793 60.0033 109.203 59.5833 109.726 59.294C110.249 59.0047 110.851 58.86 111.532 58.86ZM111.532 60.036C111.112 60.036 110.753 60.134 110.454 60.33C110.165 60.5167 109.941 60.792 109.782 61.156C109.623 61.52 109.544 61.968 109.544 62.5C109.544 63.0227 109.623 63.4707 109.782 63.844C109.941 64.208 110.165 64.488 110.454 64.684C110.753 64.8707 111.112 64.964 111.532 64.964C111.952 64.964 112.307 64.8707 112.596 64.684C112.885 64.488 113.109 64.208 113.268 63.844C113.427 63.4707 113.506 63.0227 113.506 62.5C113.506 61.968 113.427 61.52 113.268 61.156C113.109 60.792 112.885 60.5167 112.596 60.33C112.307 60.134 111.952 60.036 111.532 60.036ZM120.921 61.506C120.921 61.0393 120.79 60.68 120.529 60.428C120.277 60.1667 119.927 60.036 119.479 60.036C119.059 60.036 118.7 60.134 118.401 60.33C118.102 60.526 117.883 60.8433 117.743 61.282L116.483 60.75C116.66 60.1807 117.006 59.7233 117.519 59.378C118.042 59.0327 118.714 58.86 119.535 58.86C120.095 58.86 120.59 58.9533 121.019 59.14C121.448 59.3173 121.784 59.588 122.027 59.952C122.279 60.316 122.405 60.7827 122.405 61.352V64.474C122.405 64.8193 122.578 64.992 122.923 64.992C123.091 64.992 123.254 64.9687 123.413 64.922L123.329 65.958C123.114 66.0607 122.844 66.112 122.517 66.112C122.218 66.112 121.948 66.0607 121.705 65.958C121.472 65.846 121.285 65.6827 121.145 65.468C121.014 65.244 120.949 64.9687 120.949 64.642V64.544L121.257 64.53C121.173 64.894 121 65.1973 120.739 65.44C120.478 65.6733 120.174 65.8507 119.829 65.972C119.484 66.084 119.134 66.14 118.779 66.14C118.34 66.14 117.944 66.07 117.589 65.93C117.244 65.79 116.968 65.58 116.763 65.3C116.567 65.0107 116.469 64.656 116.469 64.236C116.469 63.7133 116.637 63.284 116.973 62.948C117.318 62.612 117.804 62.3833 118.429 62.262L121.145 61.73L121.131 62.78L119.157 63.186C118.765 63.2607 118.471 63.368 118.275 63.508C118.079 63.648 117.981 63.8533 117.981 64.124C117.981 64.3853 118.079 64.5953 118.275 64.754C118.48 64.9033 118.751 64.978 119.087 64.978C119.32 64.978 119.544 64.95 119.759 64.894C119.983 64.838 120.184 64.7493 120.361 64.628C120.538 64.4973 120.674 64.334 120.767 64.138C120.87 63.9327 120.921 63.69 120.921 63.41V61.506ZM125.615 57.824C125.289 57.824 125.037 57.7447 124.859 57.586C124.691 57.418 124.607 57.1847 124.607 56.886C124.607 56.5873 124.691 56.3587 124.859 56.2C125.037 56.0413 125.289 55.962 125.615 55.962C125.933 55.962 126.175 56.0413 126.343 56.2C126.521 56.3587 126.609 56.5873 126.609 56.886C126.609 57.1847 126.521 57.418 126.343 57.586C126.175 57.7447 125.933 57.824 125.615 57.824ZM126.357 59V66H124.859V59H126.357ZM131.361 66.14C130.661 66.14 130.022 66.0047 129.443 65.734C128.864 65.4633 128.407 65.0807 128.071 64.586L129.107 63.69C129.312 64.0727 129.606 64.3807 129.989 64.614C130.381 64.838 130.848 64.95 131.389 64.95C131.818 64.95 132.159 64.8753 132.411 64.726C132.663 64.5767 132.789 64.3667 132.789 64.096C132.789 63.9187 132.728 63.7647 132.607 63.634C132.495 63.494 132.276 63.3867 131.949 63.312L130.479 63.004C129.732 62.8547 129.2 62.6167 128.883 62.29C128.566 61.954 128.407 61.5293 128.407 61.016C128.407 60.6333 128.519 60.2787 128.743 59.952C128.967 59.6253 129.294 59.364 129.723 59.168C130.162 58.9627 130.684 58.86 131.291 58.86C131.991 58.86 132.588 58.986 133.083 59.238C133.578 59.4807 133.956 59.8307 134.217 60.288L133.181 61.156C133.004 60.7827 132.742 60.5073 132.397 60.33C132.052 60.1433 131.692 60.05 131.319 60.05C131.02 60.05 130.764 60.0873 130.549 60.162C130.334 60.2367 130.171 60.3393 130.059 60.47C129.947 60.6007 129.891 60.7547 129.891 60.932C129.891 61.1187 129.961 61.282 130.101 61.422C130.241 61.562 130.493 61.6693 130.857 61.744L132.453 62.08C133.125 62.2107 133.596 62.4347 133.867 62.752C134.147 63.06 134.287 63.438 134.287 63.886C134.287 64.334 134.17 64.7307 133.937 65.076C133.704 65.412 133.368 65.6733 132.929 65.86C132.49 66.0467 131.968 66.14 131.361 66.14Z" fill="#006633"/>
</svg>
