<svg width="24" height="24" viewBox="0 0 24 24" fill="none" xmlns="http://www.w3.org/2000/svg">
<g id="Tipo=Icon, Nome=Inicio, Estado=Outlined">
<mask id="mask0_211_48276" style="mask-type:alpha" maskUnits="userSpaceOnUse" x="0" y="0" width="24" height="24">
<rect id="Bounding box" width="24" height="24" fill="#D9D9D9"/>
</mask>
<g mask="url(#mask0_211_48276)">
<path id="settings" d="M10.1253 22C9.87534 22 9.65867 21.9167 9.47534 21.75C9.292 21.5833 9.18367 21.375 9.15034 21.125L8.85034 18.8C8.63367 18.7167 8.4295 18.6167 8.23784 18.5C8.04617 18.3833 7.85867 18.2583 7.67534 18.125L5.50034 19.025C5.267 19.125 5.03367 19.1375 4.80034 19.0625C4.567 18.9875 4.38367 18.8417 4.25034 18.625L2.40034 15.4C2.267 15.1833 2.22534 14.95 2.27534 14.7C2.32534 14.45 2.45034 14.25 2.65034 14.1L4.52534 12.675C4.50867 12.5583 4.50034 12.4458 4.50034 12.3375V11.6625C4.50034 11.5542 4.50867 11.4417 4.52534 11.325L2.65034 9.9C2.45034 9.75 2.32534 9.55 2.27534 9.3C2.22534 9.05 2.267 8.81667 2.40034 8.6L4.25034 5.375C4.38367 5.15833 4.567 5.0125 4.80034 4.9375C5.03367 4.8625 5.267 4.875 5.50034 4.975L7.67534 5.875C7.85867 5.74167 8.05034 5.61667 8.25034 5.5C8.45034 5.38333 8.65034 5.28333 8.85034 5.2L9.15034 2.875C9.18367 2.625 9.292 2.41667 9.47534 2.25C9.65867 2.08333 9.87534 2 10.1253 2H13.8753C14.1253 2 14.342 2.08333 14.5253 2.25C14.7087 2.41667 14.817 2.625 14.8503 2.875L15.1503 5.2C15.367 5.28333 15.5712 5.38333 15.7628 5.5C15.9545 5.61667 16.142 5.74167 16.3253 5.875L18.5003 4.975C18.7337 4.875 18.967 4.8625 19.2003 4.9375C19.4337 5.0125 19.617 5.15833 19.7503 5.375L21.6003 8.6C21.7337 8.81667 21.7753 9.05 21.7253 9.3C21.6753 9.55 21.5503 9.75 21.3503 9.9L19.4753 11.325C19.492 11.4417 19.5003 11.5542 19.5003 11.6625V12.3375C19.5003 12.4458 19.4837 12.5583 19.4503 12.675L21.3253 14.1C21.5253 14.25 21.6503 14.45 21.7003 14.7C21.7503 14.95 21.7087 15.1833 21.5753 15.4L19.7253 18.6C19.592 18.8167 19.4045 18.9667 19.1628 19.05C18.9212 19.1333 18.6837 19.125 18.4503 19.025L16.3253 18.125C16.142 18.2583 15.9503 18.3833 15.7503 18.5C15.5503 18.6167 15.3503 18.7167 15.1503 18.8L14.8503 21.125C14.817 21.375 14.7087 21.5833 14.5253 21.75C14.342 21.9167 14.1253 22 13.8753 22H10.1253ZM12.0503 15.5C13.017 15.5 13.842 15.1583 14.5253 14.475C15.2087 13.7917 15.5503 12.9667 15.5503 12C15.5503 11.0333 15.2087 10.2083 14.5253 9.525C13.842 8.84167 13.017 8.5 12.0503 8.5C11.067 8.5 10.2378 8.84167 9.56284 9.525C8.88784 10.2083 8.55034 11.0333 8.55034 12C8.55034 12.9667 8.88784 13.7917 9.56284 14.475C10.2378 15.1583 11.067 15.5 12.0503 15.5Z" fill="#111111"/>
</g>
</g>
</svg>
