<svg width="24" height="24" viewBox="0 0 24 24" fill="none" xmlns="http://www.w3.org/2000/svg">
<g id="Tipo=Icon, Nome=Pesquisar, Estado=Outlined">
<mask id="mask0_211_39439" style="mask-type:alpha" maskUnits="userSpaceOnUse" x="0" y="0" width="24" height="24">
<rect id="Bounding box" width="24" height="24" fill="#D9D9D9"/>
</mask>
<g mask="url(#mask0_211_39439)">
<path id="search" d="M19.2067 20.2067C18.7685 20.6448 18.0581 20.6448 17.62 20.2067L14.6733 17.26C14.1067 17.7133 13.455 18.0722 12.7183 18.3367C11.9817 18.6011 11.1978 18.7333 10.3667 18.7333C8.30778 18.7333 6.56528 18.0203 5.13917 16.5942C3.71306 15.1681 3 13.4256 3 11.3667C3 9.30778 3.71306 7.56528 5.13917 6.13917C6.56528 4.71306 8.30778 4 10.3667 4C12.4256 4 14.1681 4.71306 15.5942 6.13917C17.0203 7.56528 17.7333 9.30778 17.7333 11.3667C17.7333 12.1978 17.6011 12.9817 17.3367 13.7183C17.0722 14.455 16.7133 15.1067 16.26 15.6733L19.2067 18.62C19.6448 19.0581 19.6448 19.7685 19.2067 20.2067ZM10.3667 16.4667C11.7833 16.4667 12.9875 15.9708 13.9792 14.9792C14.9708 13.9875 15.4667 12.7833 15.4667 11.3667C15.4667 9.95 14.9708 8.74583 13.9792 7.75417C12.9875 6.7625 11.7833 6.26667 10.3667 6.26667C8.95 6.26667 7.74583 6.7625 6.75417 7.75417C5.7625 8.74583 5.26667 9.95 5.26667 11.3667C5.26667 12.7833 5.7625 13.9875 6.75417 14.9792C7.74583 15.9708 8.95 16.4667 10.3667 16.4667Z" fill="#111111"/>
</g>
</g>
</svg>
