<svg width="164" height="33" viewBox="0 0 164 33" fill="none" xmlns="http://www.w3.org/2000/svg">
<g id="Logo" clip-path="url(#clip0_99_100252)">
<path id="Vector" d="M75.083 17.182L69.6676 16.7821C69.2878 16.7344 69.1246 16.2718 69.3887 15.9913L69.9376 15.4124C68.4065 14.371 67.1839 14.0219 65.0949 14.0219C61.8605 14.0219 59.0504 16.4807 59.0445 20.8314H53.2344C53.2433 14.2487 58.5519 8.65967 65.0979 8.65967C68.181 8.65967 71.4629 9.60261 73.5727 11.5392L74.1186 10.9096C74.3827 10.6321 74.8516 10.7723 74.9169 11.1543L75.6053 16.6359C75.6587 16.9462 75.3976 17.2237 75.086 17.182H75.083Z" fill="#006633"/>
<g id="Group 105">
<path id="Vector_2" d="M164 7.12578H156.949V0H152.116V7.12578H145.065V11.8077H152.116V19.0767H156.949V11.8077H164V7.12578Z" fill="#97C233"/>
<path id="Union" fill-rule="evenodd" clip-rule="evenodd" d="M77.3086 0V6.71697H84.8131V0H77.3086ZM77.6469 8.65955V33.003H84.5193V8.65955H77.6469ZM41.4748 33C38.6647 33 36.2552 32.5285 34.2434 31.5886C32.2345 30.6486 30.7033 29.3118 29.6469 27.5811C28.5935 25.8503 28.0653 23.8063 28.0653 21.446C28.0653 19.0856 28.5727 17.1759 29.5846 15.4452C30.5965 13.7144 32.0149 12.3478 33.8428 11.3481C35.6707 10.3485 37.7923 9.84718 40.2078 9.84718C42.457 9.84718 44.4155 10.3037 46.0891 11.2139C47.7597 12.124 49.0624 13.4369 49.9882 15.1557C50.917 16.8715 51.3799 18.9245 51.3799 21.3117V21.6728C51.3799 22.4874 50.7241 23.1469 49.914 23.1469H34.738C34.8611 23.757 35.0474 24.3002 35.2968 24.7761C35.7894 25.7161 36.5698 26.4173 37.638 26.8798C38.7063 27.3423 40.098 27.5751 41.8131 27.5751C43.19 27.5751 44.5193 27.4199 45.7983 27.1036C47.0772 26.7903 48.1811 26.3039 49.1069 25.6474L50.8784 30.395C49.7834 31.2305 48.3917 31.8721 46.7033 32.3196C45.0178 32.7673 43.273 32.9911 41.4748 32.9911V33ZM35.2523 17.4116C34.9783 17.9415 34.7854 18.5393 34.6736 19.205H45.6016C45.4661 17.8178 45.0169 16.7431 44.2523 15.9793C43.3532 15.0841 42.0594 14.6365 40.3739 14.6365C39.1365 14.6365 38.0891 14.8752 37.2345 15.3527C36.3769 15.8301 35.7152 16.5164 35.2523 17.4116ZM55.0089 21.8548L60.095 23.5378C60.4511 23.681 60.4926 24.1704 60.1662 24.3733L59.5431 24.8716C60.7627 26.2681 61.8606 26.9157 63.8814 27.4438C67.0119 28.2615 69.9021 26.6262 70.9971 22.4188L76.6202 23.8929C74.9644 30.2607 68.8754 34.2891 62.5401 32.633C59.5579 31.8542 56.6143 30.1115 55.0564 27.7005L54.2938 28.2316C53.9674 28.4345 53.552 28.1779 53.5816 27.793L54.3621 22.2517C54.3888 21.9354 54.7092 21.7355 55 21.8548H55.0089ZM99.0119 33C96.5104 33 94.3383 32.4987 92.4986 31.4931C90.6558 30.4905 89.2315 29.0671 88.2196 27.232C87.2078 25.3968 86.7003 23.2543 86.7003 20.8044C86.7003 18.3546 87.2078 16.1733 88.2196 14.353C89.2315 12.5328 90.6588 11.1273 92.4986 10.1396C94.3383 9.15193 96.5104 8.65659 99.0119 8.65659C100.697 8.65659 102.3 8.89233 103.819 9.3638C105.338 9.83527 106.588 10.4947 107.573 11.3422L105.549 16.7104C104.733 16.0509 103.813 15.5407 102.786 15.1796C101.76 14.8185 100.727 14.6395 99.6885 14.6395C97.7775 14.6395 96.2998 15.1796 95.2612 16.2628C94.2226 17.346 93.7003 18.8619 93.7003 20.8074C93.7003 22.753 94.2196 24.2748 95.2612 25.3759C96.2998 26.474 97.7775 27.0231 99.6885 27.0231C100.7 27.0231 101.718 26.844 102.745 26.483C103.772 26.1219 104.691 25.6117 105.507 24.9522L107.531 30.3204C106.546 31.138 105.303 31.7885 103.801 32.2749C102.297 32.7613 100.703 33.006 99.0179 33.006L99.0119 33ZM110.807 30.762C112.214 32.254 114.35 33 117.217 33V33.003C117.973 33.003 118.671 32.9493 119.303 32.8448C119.935 32.7374 120.573 32.5972 121.22 32.4181L121.05 26.9992C120.742 27.0618 120.398 27.1126 120.018 27.1573C119.641 27.2021 119.267 27.226 118.902 27.226C118.172 27.226 117.561 27.0917 117.068 26.8231C116.579 26.5546 116.211 26.1577 115.973 25.6355C115.733 25.1133 115.614 24.4926 115.614 23.7765V0H108.7V24.2241C108.7 27.0917 109.401 29.27 110.807 30.762ZM134.792 33C131.982 33 129.57 32.5285 127.561 31.5886C125.552 30.6486 124.021 29.3118 122.964 27.5811C121.911 25.8503 121.383 23.8063 121.383 21.446C121.383 19.0856 121.89 17.1759 122.902 15.4452C123.914 13.7144 125.332 12.3478 127.16 11.3481C128.988 10.3485 131.11 9.84718 133.525 9.84718C135.774 9.84718 137.733 10.3037 139.407 11.2139C141.077 12.124 142.38 13.4369 143.306 15.1557C144.234 16.8715 144.697 18.9245 144.697 21.3117V21.6728C144.697 22.4874 144.042 23.1469 143.231 23.1469H128.055C128.179 23.757 128.365 24.3002 128.614 24.7761C129.107 25.7161 129.887 26.4173 130.955 26.8798C132.024 27.3423 133.415 27.5751 135.131 27.5751C136.507 27.5751 137.837 27.4199 139.116 27.1036C140.395 26.7903 141.498 26.3039 142.424 25.6474L144.196 30.395C143.101 31.2305 141.709 31.8721 140.021 32.3196C138.335 32.7673 136.59 32.9911 134.792 32.9911V33ZM128.57 17.4116C128.296 17.9415 128.103 18.5393 127.991 19.205H138.919C138.784 17.8178 138.334 16.7431 137.57 15.9793C136.671 15.0841 135.377 14.6365 133.691 14.6365C132.454 14.6365 131.407 14.8752 130.552 15.3527C129.694 15.8301 129.033 16.5164 128.57 17.4116ZM21.6884 20.2225C22.5341 20.8014 23.3145 21.6847 24.0326 22.8723V22.8753L29.9377 32.7792H21.9407L16.0356 22.6455C15.7211 22.0965 15.368 21.6548 14.9822 21.3206C14.5935 20.9864 14.1365 20.7507 13.6053 20.6134C13.0742 20.4762 12.4065 20.4075 11.6053 20.4075H7.26409V32.7464H0V0.223796H15.6914C19.4748 0.223796 22.3828 1.07722 24.4184 2.78108C26.454 4.48494 27.4718 6.90496 27.4718 10.0411C27.4718 11.9897 27.0415 13.6577 26.181 15.0423C25.3234 16.4269 24.1098 17.5071 22.549 18.2829C21.6113 18.7484 20.5638 19.0946 19.4154 19.3243C20.2344 19.4497 20.9941 19.7481 21.6884 20.2225Z" fill="#006633"/>
</g>
<path id="Vector_3" d="M13.2908 6.0904C13.2908 6.0904 7.14841 5.79796 6.56384 14.0368C10.1543 10.5246 13.4897 11.3363 13.4897 11.3363C10.4897 11.8764 8.06236 14.0248 7.32052 14.6962C7.02675 14.9618 6.74782 15.1558 6.51636 15.299C6.51636 15.3109 6.51636 15.3199 6.51636 15.3318C6.51636 15.3318 6.47482 15.3706 6.40657 15.4363C6.10687 15.7168 6.09796 15.8958 5.9763 16.1763C5.82794 16.5195 5.93476 16.4777 6.31755 16.1763C6.70331 15.8749 7.31161 15.5676 8.27304 15.3348H8.49856C11.5015 15.3348 18.9971 15.3348 20.5757 9.82934C20.5757 9.82934 18.5638 6.09338 13.2938 6.09338L13.2908 6.0904Z" fill="white"/>
</g>
<defs>
<clipPath id="clip0_99_100252">
<rect width="164" height="33" fill="white"/>
</clipPath>
</defs>
</svg>
