<svg width="326" height="335" viewBox="0 0 326 335" fill="none" xmlns="http://www.w3.org/2000/svg">
<g clip-path="url(#clip0_213_659)">
<path d="M319.458 38.0837C328.182 29.372 328.182 15.2476 319.458 6.53592C310.733 -2.17576 296.588 -2.17578 287.864 6.53591C279.139 15.2476 279.139 29.372 287.864 38.0837C296.588 46.7954 310.733 46.7954 319.458 38.0837Z" fill="#EBEBEB"/>
<path d="M319.748 37.8511C328.072 29.5397 328.072 16.0643 319.748 7.7529C311.425 -0.558487 297.93 -0.558468 289.606 7.75292C281.283 16.0643 281.283 29.5397 289.606 37.8511C297.93 46.1625 311.425 46.1625 319.748 37.8511Z" fill="#DBDBDB"/>
<path d="M309.246 42.2338C319.982 39.7194 326.644 28.9905 324.125 18.2702C321.607 7.54983 310.863 0.897634 300.127 3.41206C289.391 5.9265 282.729 16.6554 285.247 27.3757C287.765 38.0961 298.51 44.7483 309.246 42.2338Z" fill="white"/>
<path opacity="0.5" d="M324.202 18.569C315.112 24.0733 300.165 33.0971 291.81 38.0445C289.466 36.0715 287.586 33.5652 286.351 30.7212L313.978 5.15479C319.123 7.85659 322.938 12.7447 324.202 18.5749V18.569Z" fill="#EBEBEB"/>
<path opacity="0.5" d="M324.635 23.4985C324.558 25.7737 324.095 27.9541 323.318 29.9805L298.414 41.7416C297.323 41.3802 296.272 40.9299 295.27 40.3907C302.793 36.0477 316.542 28.1497 324.641 23.4985H324.635Z" fill="#EBEBEB"/>
<path d="M304.876 4.30737H304.49V7.32913H304.876V4.30737Z" fill="#C8C7C7"/>
<path d="M295.583 6.67828L295.249 6.87085L296.762 9.48777L297.096 9.2952L295.583 6.67828Z" fill="#C8C7C7"/>
<path d="M288.725 13.3799L288.532 13.7134L291.153 15.2243L291.346 14.8907L288.725 13.3799Z" fill="#C8C7C7"/>
<path d="M289.188 22.6096H286.161V22.9947H289.188V22.6096Z" fill="#C8C7C7"/>
<path d="M291.17 30.3856L288.549 31.897L288.742 32.2305L291.362 30.7191L291.17 30.3856Z" fill="#C8C7C7"/>
<path d="M296.766 36.104L295.254 38.7217L295.588 38.9141L297.1 36.2964L296.766 36.104Z" fill="#C8C7C7"/>
<path d="M304.876 38.2695H304.49V41.2913H304.876V38.2695Z" fill="#C8C7C7"/>
<path d="M312.594 36.0958L312.26 36.2883L313.773 38.9052L314.107 38.7127L312.594 36.0958Z" fill="#C8C7C7"/>
<path d="M318.214 30.3818L318.021 30.7153L320.641 32.2267L320.834 31.8932L318.214 30.3818Z" fill="#C8C7C7"/>
<path d="M323.199 22.6096H320.173V22.9947H323.199V22.6096Z" fill="#C8C7C7"/>
<path d="M320.628 13.405L318.008 14.9167L318.201 15.2502L320.821 13.7384L320.628 13.405Z" fill="#C8C7C7"/>
<path d="M313.756 6.68333L312.245 9.30103L312.579 9.49341L314.09 6.87572L313.756 6.68333Z" fill="#C8C7C7"/>
<path d="M304.971 5.67609L305.63 24.1503L303.737 24.1266L304.461 5.67017L304.971 5.67609Z" fill="#C8C7C7"/>
<path d="M316.494 16.359L304.051 24.2926L303.144 22.6277L316.251 15.9087L316.494 16.359Z" fill="#A6A5A5"/>
<path d="M305.327 22.7994C305.327 23.1549 305.036 23.4452 304.68 23.4452C304.324 23.4452 304.034 23.1549 304.034 22.7994C304.034 22.4439 304.324 22.1536 304.68 22.1536C305.036 22.1536 305.327 22.4439 305.327 22.7994Z" fill="#C8C7C7"/>
<path d="M86.9159 31.8943H0V164.97H86.9159V31.8943Z" fill="#DBDBDB"/>
<path d="M41.4347 37.2268H4.73511V96.4176H41.4347V37.2268Z" fill="white"/>
<path d="M82.1751 37.2268H45.4756V96.4176H82.1751V37.2268Z" fill="white"/>
<path d="M41.4347 100.453H4.73511V159.643H41.4347V100.453Z" fill="white"/>
<path d="M82.1751 100.453H45.4756V159.643H82.1751V100.453Z" fill="white"/>
<path d="M20.5838 31.8943H0V222.277H20.5838V31.8943Z" fill="#EBEBEB"/>
<path d="M16.6855 40.9478L16.8398 61.5312L16.8991 82.1206L17.0059 123.288L16.8991 164.455L16.8457 185.044L16.6855 205.627L16.5253 185.044L16.4659 164.455L16.3591 123.288L16.4659 82.1206L16.5253 61.5312L16.6855 40.9478Z" fill="white"/>
<path d="M7.22723 45.7234L7.38744 64.1028L7.48238 82.4821L7.55358 119.241L7.48238 156.006L7.38744 174.385L7.22723 192.764L7.07295 174.385L6.97802 156.006L6.90088 119.241L6.97802 82.4821L7.07295 64.1028L7.22723 45.7234Z" fill="white"/>
<path d="M11.9565 50.0603L12.1167 71.5859L12.176 93.1055L12.2828 136.151L12.176 179.196L12.1167 200.715L11.9565 222.241L11.7963 200.715L11.7369 179.196L11.6301 136.151L11.7429 93.1055L11.7963 71.5859L11.9565 50.0603Z" fill="white"/>
<path d="M3.71453 42.032L3.87474 64.5589L3.93408 87.0857L4.04088 132.134L3.93408 177.187L3.87474 199.714L3.71453 222.241L3.55433 199.714L3.49499 177.187L3.38818 132.134L3.50092 87.0857L3.55433 64.5589L3.71453 42.032Z" fill="white"/>
<path d="M66.332 222.282H86.9158L86.9158 31.9001H66.332L66.332 222.282Z" fill="#EBEBEB"/>
<path d="M70.2304 40.9475L70.3906 61.531L70.45 82.1204L70.5568 123.287L70.45 164.454L70.3906 185.044L70.2304 205.627L70.0702 185.044L70.0109 164.454L69.9041 123.287L70.0168 82.1204L70.0702 61.531L70.2304 40.9475Z" fill="white"/>
<path d="M79.6828 45.7231L79.843 64.1025L79.932 82.4819L80.0091 119.241L79.932 156.005L79.843 174.385L79.6828 192.764L79.5226 174.385L79.4336 156.005L79.3564 119.241L79.4336 82.4819L79.5226 64.1025L79.6828 45.7231Z" fill="white"/>
<path d="M74.9594 50.0601L75.1137 71.5856L75.173 93.1052L75.2858 136.15L75.173 179.196L75.1196 200.715L74.9594 222.241L74.7992 200.715L74.7399 179.196L74.6331 136.15L74.7399 93.1052L74.7992 71.5856L74.9594 50.0601Z" fill="white"/>
<path d="M83.2014 42.0317L83.3556 64.5586L83.415 87.0855L83.5277 132.133L83.415 177.187L83.3616 199.714L83.2014 222.241L83.0411 199.714L82.9818 177.187L82.875 132.133L82.9818 87.0855L83.0411 64.5586L83.2014 42.0317Z" fill="white"/>
<path d="M285.55 26H207.45C200.574 26 195 32.4796 195 40.4727V112.527C195 120.52 200.574 127 207.45 127H285.55C292.426 127 298 120.52 298 112.527V40.4727C298 32.4796 292.426 26 285.55 26Z" fill="#97C233"/>
<path d="M276.894 54.7824C274.623 53.4472 271.452 53.8616 269.808 55.7148L242.942 87.2881L232.101 71.0429C230.395 69.232 227.21 68.8905 224.986 70.2794C222.762 71.6683 222.343 74.262 224.048 76.073L238.089 97.1065C238.551 97.5976 239.121 97.9737 239.752 98.2461C242.019 99.5468 245.157 99.1247 246.787 97.2869L278.039 60.5569C279.679 58.7075 279.17 56.1253 276.894 54.7863V54.7824Z" fill="white"/>
<path d="M157.283 335C236.398 335 300.533 327.299 300.533 317.8C300.533 308.3 236.398 300.599 157.283 300.599C78.1681 300.599 14.033 308.3 14.033 317.8C14.033 327.299 78.1681 335 157.283 335Z" fill="#EBEBEB"/>
<path d="M0 267.514L39.3222 267.33L78.6385 267.265L157.283 267.141L235.921 267.265L275.244 267.33L314.566 267.514L275.244 267.692L235.921 267.757L157.283 267.881L78.6385 267.757L39.3222 267.692L0 267.514Z" fill="#263339"/>
<path d="M295.371 197.789C292.754 195.223 289.366 192.13 285.361 193.232C281.593 194.275 280.151 198.381 279.474 201.8C278.602 206.208 277.926 210.664 277.225 215.101C276.519 219.587 275.855 224.078 275.208 228.569C274.84 231.105 274.484 233.641 274.128 236.177C273.95 237.445 273.772 238.713 273.6 239.98C273.428 241.225 273.22 242.469 273.149 243.725C273.125 244.122 273.754 244.181 273.843 243.802C274.33 241.687 274.532 239.489 274.84 237.338C275.155 235.181 275.463 233.019 275.784 230.862C276.413 226.572 277.059 222.288 277.706 217.999C278.353 213.709 279.023 209.425 279.712 205.141C280.293 201.509 280.566 196.995 283.794 194.601C285.562 193.285 287.817 193.274 289.823 194.038C291.947 194.844 293.638 196.367 295.299 197.866C295.353 197.913 295.424 197.836 295.376 197.789H295.371Z" fill="#263239"/>
<path d="M291.787 195.17C291.787 195.17 286.428 193.244 283.788 197.149C281.148 201.053 284.304 210.978 308.686 216.577C308.686 216.577 308.045 205.947 302.817 194.565C297.59 183.183 288.274 187.491 291.781 195.17H291.787Z" fill="#97C233"/>
<path d="M307.285 214.954C306.947 214.266 306.478 213.62 306.057 212.98C305.648 212.352 305.238 211.73 304.823 211.108C304.508 210.64 304.188 210.178 303.868 209.716C303.891 209.603 303.897 209.485 303.915 209.366C303.945 209.153 303.968 208.946 303.998 208.732C304.057 208.276 304.123 207.82 304.194 207.364C304.259 206.907 304.336 206.457 304.425 206.007C304.514 205.545 304.562 205.005 304.746 204.573C304.775 204.502 304.651 204.466 304.639 204.549C304.609 204.822 304.496 205.094 304.419 205.355C304.36 205.562 304.307 205.764 304.253 205.971C304.135 206.433 304.022 206.895 303.915 207.364C303.82 207.79 303.737 208.223 303.666 208.655C303.63 208.863 303.6 209.07 303.571 209.277C303.138 208.655 302.693 208.045 302.236 207.441C300.942 205.74 299.572 204.099 298.153 202.499C298.159 202.481 298.171 202.475 298.177 202.458C298.302 199.898 298.242 197.368 298.812 194.85C298.83 194.779 298.723 194.743 298.711 194.814C298.177 197.173 297.649 199.655 297.797 202.09C297.287 201.521 296.777 200.959 296.255 200.402C295.068 199.128 293.857 197.872 292.623 196.645C292.576 196.598 292.493 196.669 292.54 196.722C294.593 198.932 296.545 201.231 298.45 203.572C296.967 203.524 295.465 203.625 293.994 203.737C292.338 203.862 290.695 204.069 289.057 204.3C288.986 204.312 289.01 204.419 289.081 204.407C290.713 204.164 292.362 204.034 294.012 203.969C295.602 203.903 297.186 203.969 298.776 203.969C299.803 205.242 300.818 206.522 301.82 207.814C301.749 207.814 301.672 207.814 301.595 207.814C301.221 207.808 300.847 207.802 300.473 207.808C299.732 207.82 298.99 207.873 298.254 207.938C296.741 208.069 295.234 208.282 293.751 208.614C293.679 208.632 293.703 208.732 293.774 208.72C295.27 208.549 296.777 208.412 298.284 208.359C299.002 208.335 299.72 208.335 300.444 208.335C300.818 208.335 301.191 208.335 301.565 208.335C301.791 208.335 301.992 208.365 302.182 208.276C302.841 209.129 303.494 209.976 304.146 210.83C304.663 211.511 305.173 212.198 305.677 212.886C306.188 213.591 306.65 214.367 307.22 215.025C307.262 215.072 307.333 215.019 307.309 214.959L307.285 214.954Z" fill="#263239"/>
<path d="M294.119 200.698C293.264 200.556 292.374 200.573 291.514 200.573C290.641 200.573 289.775 200.597 288.903 200.627C288.826 200.627 288.832 200.74 288.909 200.734C289.793 200.669 290.671 200.657 291.555 200.669C292.41 200.68 293.264 200.764 294.119 200.74C294.148 200.74 294.148 200.698 294.119 200.698Z" fill="#263239"/>
<path d="M301.773 202.659C301.874 201.83 301.975 200.994 302.153 200.171C302.17 200.094 302.058 200.07 302.046 200.147C301.921 200.965 301.761 201.776 301.642 202.6C301.583 203.009 301.524 203.417 301.476 203.832C301.429 204.206 301.34 204.614 301.375 204.994C301.381 205.065 301.5 205.071 301.518 205.005C301.619 204.638 301.607 204.223 301.642 203.844C301.678 203.447 301.725 203.05 301.773 202.659Z" fill="#263239"/>
<path d="M300.171 193.446C299.957 194.257 299.744 195.075 299.595 195.899C299.518 196.319 299.453 196.734 299.399 197.155C299.346 197.558 299.275 197.978 299.316 198.387C299.316 198.417 299.37 198.423 299.382 198.387C299.5 198.014 299.524 197.605 299.572 197.214C299.625 196.811 299.69 196.408 299.756 196.005C299.904 195.158 300.052 194.317 300.272 193.481C300.29 193.416 300.189 193.375 300.171 193.446Z" fill="#263239"/>
<path d="M268.414 242.831C268.278 241.296 268.129 239.767 267.969 238.233C267.649 235.199 267.275 232.171 266.871 229.15C266.468 226.134 266.076 223.118 265.59 220.114C265.37 218.739 265.139 217.329 264.658 216.014C264.249 214.882 263.566 213.857 262.38 213.448C259.508 212.459 257.573 215.427 256.416 217.531C256.381 217.596 256.476 217.643 256.511 217.584C257.205 216.589 259.122 213.792 261.3 213.922C262.765 214.011 263.934 215.048 264.64 218.692C266.391 227.775 267.969 246.214 268.153 247.422C268.248 248.062 268.705 248.033 268.705 247.351C268.711 245.846 268.539 244.335 268.408 242.831H268.414Z" fill="#263239"/>
<path d="M257.2 216.399C257.2 216.399 259.71 207.559 254.162 211.979C244.935 219.338 244.608 235.347 244.608 235.347C244.608 235.347 261.009 225.832 263.05 219.557C266.088 210.207 257.2 216.399 257.2 216.399Z" fill="#97C233"/>
<path d="M260.303 220.742C259.015 221.003 257.71 221.175 256.41 221.358C255.793 221.447 255.182 221.53 254.565 221.619C254.15 221.678 253.728 221.714 253.313 221.767C254.535 220.084 255.77 218.414 256.939 216.695C256.986 216.63 256.879 216.559 256.826 216.612C255.853 217.602 254.951 218.674 254.084 219.77C253.841 219.083 253.598 218.402 253.355 217.72C253.076 216.926 252.773 216.138 252.577 215.327C252.56 215.256 252.453 215.291 252.471 215.356C252.696 216.168 252.856 216.992 253.07 217.803C253.278 218.585 253.521 219.362 253.794 220.126C253.194 220.902 252.619 221.702 252.055 222.508C251.77 221.708 251.42 220.938 251.177 220.126C251.159 220.061 251.052 220.09 251.07 220.156C251.367 221.05 251.521 221.986 251.8 222.887C251.426 223.438 251.046 223.983 250.69 224.54C250.026 225.565 249.403 226.602 248.792 227.651C248.697 227.704 248.637 227.781 248.649 227.9C247.611 229.689 246.626 231.508 245.653 233.339C245.617 233.404 245.718 233.457 245.748 233.392C246.721 231.579 247.807 229.819 248.928 228.089C248.928 228.089 248.934 228.089 248.94 228.089C249.059 228.024 249.332 228.018 249.474 227.988C249.664 227.947 249.854 227.905 250.038 227.864C250.459 227.769 250.88 227.663 251.302 227.556C252.132 227.349 252.957 227.153 253.8 227.011C253.871 226.999 253.835 226.892 253.77 226.904C252.779 227.094 251.782 227.206 250.779 227.319C250.305 227.372 249.836 227.431 249.361 227.509C249.343 227.509 249.314 227.514 249.296 227.52C249.883 226.626 250.483 225.737 251.088 224.86C251.681 223.995 252.298 223.142 252.91 222.294C253.479 222.217 254.043 222.063 254.607 221.957C255.242 221.838 255.876 221.714 256.511 221.589C257.781 221.341 259.045 221.056 260.321 220.843C260.392 220.831 260.356 220.724 260.291 220.736L260.303 220.742Z" fill="#263239"/>
<path d="M250.447 221.613C250.37 221.382 250.299 221.145 250.228 220.908C250.073 220.422 249.955 219.93 249.854 219.427C249.842 219.356 249.735 219.391 249.747 219.456C249.854 219.954 249.972 220.452 250.085 220.95C250.198 221.435 250.323 221.957 250.512 222.419C250.56 222.537 250.738 222.484 250.702 222.36C250.631 222.105 250.53 221.856 250.447 221.607V221.613Z" fill="#263239"/>
<path d="M261.982 218.692C261.234 218.805 260.481 218.858 259.727 218.923C258.968 218.988 258.226 219.095 257.473 219.208C257.431 219.214 257.431 219.279 257.473 219.273C258.226 219.219 258.98 219.16 259.727 219.065C260.475 218.965 261.229 218.858 261.982 218.805C262.053 218.805 262.047 218.686 261.982 218.692Z" fill="#263239"/>
<path d="M280.489 231.638C280.198 225.126 279.783 218.633 279.13 212.145C278.804 208.916 278.436 205.687 277.985 202.475C277.54 199.329 276.994 196.177 276.116 193.12C275.445 190.779 274.561 188.421 272.995 186.519C271.446 184.641 269.168 183.468 266.693 183.77C263.839 184.12 261.543 185.915 259.555 187.87C257.324 190.056 255.283 192.444 253.218 194.785C252.696 195.377 252.18 195.97 251.663 196.574C251.616 196.627 251.699 196.704 251.741 196.651C253.758 194.334 255.858 192.083 258.054 189.932C260.083 187.941 262.172 185.773 264.978 184.949C266.278 184.57 267.69 184.463 269.001 184.854C270.064 185.168 270.989 185.802 271.749 186.59C273.327 188.231 274.217 190.459 274.852 192.61C276.608 198.594 277.231 204.869 277.884 211.049C278.543 217.329 278.994 223.622 279.308 229.926C279.629 236.266 279.872 242.611 280.483 248.927C280.56 249.709 280.661 250.486 280.762 251.262C280.827 251.783 281.64 251.783 281.599 251.244C281.082 244.715 280.78 238.179 280.489 231.638Z" fill="#263239"/>
<path d="M259.193 188.575C259.193 188.575 262.914 181.696 258.517 179.486C254.12 177.282 239.393 193.688 235.097 217.685C235.097 217.685 258.873 207.18 266.948 196.71C275.024 186.241 265.869 183.936 259.193 188.569V188.575Z" fill="#97C233"/>
<path d="M262.688 194.168C260.018 194.174 257.348 193.967 254.678 193.985C255.176 193.41 255.68 192.835 256.185 192.266C256.885 191.478 257.68 190.714 258.273 189.843C258.309 189.79 258.232 189.707 258.178 189.754C257.437 190.335 256.802 191.093 256.155 191.781C255.485 192.492 254.82 193.203 254.155 193.919C253.135 195.022 252.132 196.147 251.135 197.267C251.135 197.16 251.135 197.048 251.135 196.941C251.135 196.473 251.135 196.005 251.135 195.537C251.141 194.63 251.153 193.724 251.165 192.823C251.183 190.987 251.177 189.144 251.307 187.313C251.307 187.242 251.201 187.248 251.195 187.313C251.064 189.156 250.874 190.987 250.785 192.829C250.738 193.736 250.72 194.642 250.708 195.543C250.708 196.011 250.696 196.479 250.696 196.947C250.696 197.202 250.69 197.469 250.708 197.735C250.554 197.913 250.394 198.085 250.233 198.257C248.103 200.692 246.074 203.21 244.098 205.769C244.098 205.627 244.074 205.485 244.062 205.343C244.033 205.058 244.003 204.78 243.967 204.496C243.896 203.885 243.813 203.275 243.724 202.665C243.635 202.09 243.546 201.521 243.451 200.952C243.344 200.313 243.184 199.661 243.137 199.015C243.137 198.938 243.012 198.956 243.03 199.033C243.166 199.667 243.19 200.342 243.255 200.988C243.309 201.575 243.368 202.161 243.416 202.748C243.469 203.334 243.522 203.921 243.582 204.513C243.611 204.798 243.635 205.076 243.665 205.361C243.683 205.503 243.694 205.645 243.718 205.781C243.742 205.965 243.772 205.989 243.831 206.119C243.493 206.563 243.149 207.002 242.816 207.446C241.469 209.23 240.146 211.031 238.823 212.832C238.781 212.885 238.859 212.962 238.9 212.909C240.152 211.274 241.446 209.674 242.751 208.086C243.73 208.128 244.727 208.057 245.706 208.039C246.738 208.021 247.771 208.015 248.797 208.015C248.869 208.015 248.869 207.902 248.797 207.902C247.765 207.92 246.732 207.938 245.706 207.938C244.768 207.938 243.807 207.897 242.864 207.944C244.015 206.546 245.178 205.165 246.341 203.779C246.768 203.275 247.195 202.771 247.617 202.268C248.002 202.351 248.418 202.309 248.809 202.309C249.278 202.309 249.747 202.309 250.216 202.309C251.094 202.309 251.972 202.286 252.85 202.274C254.666 202.244 256.481 202.185 258.297 202.179C258.368 202.179 258.362 202.072 258.297 202.066C256.481 202.043 254.66 201.966 252.844 201.918C251.966 201.895 251.088 201.865 250.204 201.853C249.735 201.847 249.266 201.841 248.797 201.835C248.53 201.835 248.257 201.812 247.984 201.823C248.981 200.638 249.978 199.459 250.981 198.28C251.005 198.268 251.023 198.245 251.034 198.215C252.008 197.066 252.987 195.922 253.972 194.779C254.108 194.625 254.244 194.47 254.381 194.316C257.152 194.405 259.917 194.222 262.688 194.275C262.759 194.275 262.759 194.162 262.688 194.162V194.168Z" fill="#263239"/>
<path d="M261.323 198.885C261.11 198.885 260.89 198.885 260.677 198.885C260.611 198.885 260.617 198.986 260.677 198.986C260.89 198.986 261.11 198.986 261.323 198.986C261.395 198.986 261.395 198.873 261.323 198.873V198.885Z" fill="#263239"/>
<path d="M259.881 198.891C259.027 198.879 258.167 198.861 257.312 198.837C256.885 198.826 256.458 198.814 256.03 198.796C255.651 198.784 255.212 198.725 254.838 198.808C254.796 198.82 254.802 198.879 254.838 198.885C255.206 198.998 255.651 198.962 256.036 198.968C256.464 198.974 256.891 198.98 257.318 198.986C258.173 198.998 259.027 198.998 259.887 198.992C259.959 198.992 259.953 198.885 259.887 198.879L259.881 198.891Z" fill="#263239"/>
<path d="M252.405 206.907C250.667 206.664 248.91 206.415 247.148 206.433C247.124 206.433 247.124 206.469 247.148 206.475C248.892 206.64 250.643 206.735 252.381 207.014C252.453 207.026 252.476 206.919 252.405 206.907Z" fill="#263239"/>
<path d="M245.261 199.27C245.243 199.116 245.225 198.962 245.207 198.813C245.16 198.47 245.107 198.126 245.053 197.782C244.952 197.131 244.834 196.479 244.715 195.833C244.703 195.774 244.602 195.792 244.608 195.851C244.691 196.52 244.762 197.196 244.828 197.865C244.857 198.197 244.881 198.529 244.911 198.855C244.94 199.151 244.911 199.524 245.047 199.797C245.095 199.898 245.249 199.856 245.279 199.761C245.326 199.596 245.285 199.436 245.267 199.27H245.261Z" fill="#263239"/>
<path d="M280.252 179.735C279.397 178.153 278.317 176.062 276.193 176.198C274.437 176.305 273.647 178.094 273.274 179.569C272.117 184.137 272.033 188.96 271.808 193.641C271.333 203.536 270.9 213.443 270.841 223.355C270.823 226.104 270.835 228.848 270.859 231.597C270.882 234.399 270.876 237.214 271.054 240.01C271.072 240.277 271.464 240.265 271.47 239.998C271.488 237.605 271.399 235.205 271.393 232.806C271.381 230.465 271.405 228.131 271.44 225.79C271.517 221.056 271.642 216.316 271.82 211.588C271.992 206.884 272.2 202.179 272.401 197.475C272.502 195.122 272.603 192.776 272.704 190.424C272.805 188.149 272.906 185.868 273.167 183.604C273.315 182.336 273.499 181.068 273.766 179.818C273.956 178.929 274.229 177.964 274.864 177.282C275.7 176.382 276.97 176.447 277.967 177.057C279 177.691 279.623 178.752 280.163 179.794C280.192 179.86 280.287 179.794 280.258 179.735H280.252Z" fill="#263239"/>
<path d="M279.676 178.983C279.676 178.983 277.931 172.827 281.788 175.902C288.214 181.027 288.446 192.178 288.446 192.178C288.446 192.178 277.018 185.554 275.6 181.181C273.481 174.669 279.676 178.983 279.676 178.983Z" fill="#97C233"/>
<path d="M286.043 187.609C285.936 187.438 285.823 187.272 285.716 187.106C285.746 186.934 285.716 186.744 285.716 186.578C285.716 186.312 285.716 186.051 285.716 185.785C285.728 185.263 285.746 184.742 285.776 184.226C285.776 184.155 285.669 184.161 285.663 184.226C285.633 184.736 285.616 185.245 285.604 185.755C285.598 186.01 285.586 186.264 285.574 186.519C285.574 186.62 285.556 186.733 285.55 186.845C285.099 186.152 284.642 185.459 284.168 184.783C284.031 184.588 283.883 184.398 283.746 184.203C283.64 183.545 283.705 182.852 283.711 182.194C283.717 181.477 283.729 180.76 283.752 180.049C283.752 179.978 283.646 179.984 283.64 180.049C283.622 180.796 283.58 181.536 283.545 182.283C283.515 182.81 283.468 183.349 283.503 183.877C282.4 182.378 281.231 180.932 280.044 179.498C280.002 179.451 279.919 179.516 279.961 179.569C280.697 180.493 281.397 181.447 282.085 182.407C280.738 182.093 279.373 181.915 278.009 181.714C277.937 181.702 277.914 181.809 277.985 181.821C279.433 182.04 280.851 182.401 282.281 182.715C282.293 182.715 282.299 182.715 282.311 182.715C282.856 183.486 283.396 184.262 283.936 185.032C284.156 185.346 284.369 185.666 284.583 185.986C284.565 185.986 284.542 185.986 284.524 185.98C284.375 185.956 284.227 185.939 284.079 185.921C283.764 185.885 283.444 185.856 283.129 185.832C282.471 185.779 281.812 185.743 281.153 185.707C281.082 185.707 281.082 185.814 281.153 185.82C281.806 185.838 282.447 185.885 283.094 185.956C283.438 185.992 283.776 186.039 284.114 186.081C284.263 186.099 284.411 186.116 284.559 186.134C284.601 186.134 284.648 186.146 284.69 186.152C285.058 186.691 285.426 187.23 285.788 187.769C286.434 188.723 287.01 189.742 287.698 190.661C287.74 190.714 287.817 190.661 287.787 190.607C287.307 189.571 286.642 188.587 286.043 187.609Z" fill="#263239"/>
<path d="M283.201 180.653C283.201 180.416 283.201 180.173 283.201 179.936C283.201 179.433 283.195 178.923 283.261 178.426C283.272 178.349 283.153 178.337 283.153 178.414C283.153 178.911 283.1 179.409 283.076 179.907C283.064 180.156 283.064 180.405 283.064 180.653C283.064 180.766 283.064 180.884 283.064 180.997C283.064 181.116 283.046 181.246 283.088 181.353C283.106 181.4 283.165 181.4 283.183 181.353C283.219 181.246 283.201 181.133 283.201 181.021C283.201 180.896 283.201 180.772 283.201 180.647V180.653Z" fill="#263239"/>
<path d="M281.788 183.201C281.361 183.13 280.928 183.106 280.501 183.071C280.026 183.029 279.557 182.988 279.089 182.929C279.011 182.917 278.994 183.029 279.077 183.035C279.979 183.095 280.875 183.254 281.782 183.284C281.83 183.284 281.842 183.207 281.794 183.195L281.788 183.201Z" fill="#263239"/>
<path d="M285.378 183.243C285.414 183.29 285.39 183.426 285.39 183.48V183.681C285.39 183.823 285.39 183.966 285.39 184.114C285.39 184.256 285.39 184.398 285.39 184.546C285.39 184.659 285.36 184.819 285.408 184.925C285.414 184.943 285.444 184.937 285.45 184.925C285.48 184.872 285.474 184.807 285.474 184.748C285.474 184.683 285.474 184.617 285.474 184.546C285.474 184.404 285.474 184.262 285.474 184.114C285.474 183.972 285.474 183.829 285.474 183.681V183.48C285.474 183.421 285.45 183.29 285.485 183.243C285.557 183.142 285.319 183.142 285.39 183.243H285.378Z" fill="#263239"/>
<path d="M280.519 212.601C278.116 210.8 275.956 208.211 272.722 208.086C270.052 207.98 268.183 209.988 267.115 212.222C266.551 213.401 266.165 214.651 265.809 215.901C265.329 217.584 264.872 219.279 264.45 220.979C263.614 224.327 262.896 227.704 262.308 231.099C261.982 232.995 261.679 234.897 261.442 236.805C261.199 238.73 260.884 240.704 260.878 242.647C260.878 242.985 261.407 243.05 261.478 242.712C261.804 241.118 261.941 239.471 262.172 237.86C262.409 236.236 262.653 234.619 262.931 233.001C263.483 229.766 264.112 226.549 264.848 223.349C265.536 220.333 266.213 217.264 267.192 214.325C267.892 212.216 269.013 209.757 271.292 208.999C274.757 207.843 277.908 210.776 280.448 212.678C280.501 212.72 280.578 212.643 280.525 212.601H280.519Z" fill="#263239"/>
<path d="M278.032 210.877C278.032 210.877 275.819 204.561 279.023 203.323C283.824 201.468 296.391 215.599 293.935 237.255C293.935 237.255 284.227 231.917 277.053 225.903C269.886 219.895 268.046 212.044 271.209 210.018C274.365 207.992 278.038 210.877 278.038 210.877H278.032Z" fill="#97C233"/>
<path d="M292.481 232.616C292.202 231.852 291.704 231.141 291.312 230.43C290.903 229.689 290.487 228.948 290.06 228.22C289.223 226.798 288.399 225.364 287.544 223.954C287.408 223.722 287.259 223.497 287.123 223.272C287.141 223.189 287.158 223.1 287.176 223.017C287.224 222.81 287.271 222.603 287.319 222.389C287.425 221.921 287.508 221.447 287.597 220.973C287.77 220.049 287.93 219.107 288.185 218.2C288.203 218.135 288.09 218.111 288.078 218.183C287.882 219.107 287.586 220.019 287.313 220.926C287.176 221.37 287.034 221.815 286.915 222.271C286.874 222.425 286.832 222.579 286.796 222.733C285.764 221.044 284.714 219.362 283.58 217.738C283.675 217.525 283.669 217.288 283.693 217.045C283.729 216.731 283.764 216.411 283.806 216.097C283.889 215.386 283.972 214.675 284.079 213.964C284.286 212.572 284.494 211.185 284.838 209.816C284.856 209.745 284.749 209.728 284.732 209.799C284.387 211.161 284.008 212.524 283.752 213.911C283.628 214.586 283.503 215.267 283.414 215.955C283.367 216.298 283.331 216.642 283.296 216.986C283.284 217.086 283.272 217.193 283.254 217.294C282.904 216.802 282.56 216.31 282.192 215.83C281.082 214.373 279.931 212.951 278.774 211.535C278.727 211.481 278.638 211.541 278.685 211.6C280.72 214.088 282.441 216.844 284.144 219.563C284.465 220.073 284.773 220.582 285.088 221.092C284.981 221.08 284.874 221.068 284.773 221.05C284.37 220.997 283.954 220.973 283.551 220.938C282.732 220.861 281.919 220.79 281.1 220.724C279.462 220.594 277.825 220.493 276.193 220.322C276.122 220.316 276.104 220.422 276.175 220.428C277.831 220.618 279.474 220.884 281.124 221.115C281.931 221.228 282.744 221.341 283.557 221.441C284.114 221.512 284.821 221.678 285.432 221.631C286.073 222.674 286.719 223.717 287.36 224.759C287.218 224.742 287.069 224.747 286.927 224.742C286.654 224.742 286.381 224.742 286.108 224.742C285.604 224.742 285.093 224.742 284.589 224.742C283.533 224.742 282.483 224.765 281.426 224.759C281.355 224.759 281.367 224.866 281.438 224.866C282.506 224.878 283.569 224.931 284.637 224.99C285.141 225.014 285.645 225.05 286.156 225.079C286.411 225.097 286.66 225.121 286.915 225.133C287.135 225.144 287.372 225.192 287.58 225.109C288.126 225.998 288.677 226.88 289.217 227.769C289.722 228.587 290.226 229.405 290.748 230.216C291.27 231.028 291.751 231.964 292.398 232.687C292.439 232.734 292.528 232.699 292.505 232.634L292.481 232.616Z" fill="#263239"/>
<path d="M287.853 215.113C287.775 215.807 287.592 216.5 287.419 217.175C287.241 217.874 287.034 218.574 286.808 219.261C286.779 219.356 286.909 219.397 286.939 219.302C287.152 218.621 287.348 217.934 287.514 217.234C287.681 216.541 287.793 215.83 287.959 215.137C287.977 215.066 287.859 215.048 287.853 215.119V215.113Z" fill="#263239"/>
<path d="M280.72 219.344C280.572 219.19 280.4 219.178 280.192 219.148C279.89 219.107 279.581 219.065 279.279 219.024C278.709 218.947 278.139 218.882 277.57 218.816C276.389 218.68 275.202 218.562 274.021 218.414C273.95 218.408 273.932 218.514 274.004 218.52C275.119 218.656 276.229 218.822 277.344 218.971C277.89 219.042 278.436 219.119 278.982 219.184C279.243 219.213 279.51 219.243 279.771 219.273C280.062 219.302 280.406 219.296 280.673 219.427C280.726 219.45 280.762 219.385 280.726 219.344H280.72Z" fill="#263239"/>
<path d="M287.835 228.866C287.277 228.818 286.713 228.8 286.156 228.783C285.871 228.777 285.592 228.765 285.307 228.759C285.171 228.759 285.034 228.753 284.898 228.747C284.726 228.747 284.536 228.759 284.37 228.717C284.293 228.699 284.287 228.842 284.37 228.824C284.53 228.8 284.708 228.824 284.868 228.842C285.016 228.848 285.159 228.86 285.307 228.866C285.592 228.884 285.871 228.901 286.156 228.919C286.713 228.955 287.277 228.985 287.835 228.99C287.9 228.99 287.906 228.878 287.835 228.872V228.866Z" fill="#263239"/>
<path d="M291.259 226.442C291.324 226.122 291.383 225.808 291.443 225.488C291.555 224.866 291.674 224.238 291.787 223.616C291.799 223.545 291.692 223.527 291.68 223.598C291.543 224.208 291.407 224.813 291.27 225.423C291.199 225.725 291.134 226.033 291.069 226.335C291.039 226.478 291.009 226.62 290.98 226.756C290.95 226.904 290.903 227.052 290.932 227.2C290.944 227.254 291.015 227.295 291.051 227.236C291.199 227.011 291.211 226.691 291.259 226.436V226.442Z" fill="#263239"/>
<path d="M258.38 240.218L259.057 247.896L261.353 273.818H281.682L284.553 247.896L285.402 240.218H258.38Z" fill="#EBEBEB"/>
<path d="M258.38 240.218L259.057 247.896H284.553L285.402 240.218H258.38Z" fill="#DDDDDD"/>
<path d="M256.369 244.353H287.413V238.126H256.369V244.353Z" fill="#EBEBEB"/>
<path d="M227.11 188.848H168.628V285.639H227.11V188.848Z" fill="#97C233"/>
<path opacity="0.2" d="M227.11 188.848H168.628V285.639H227.11V188.848Z" fill="#010101"/>
<path d="M178.484 235.963H90.2566L70.011 135.191H158.238L178.484 235.963Z" fill="#97C233"/>
<path opacity="0.2" d="M178.484 235.963H90.2566L70.011 135.191H158.238L178.484 235.963Z" fill="#010101"/>
<path d="M90.2565 235.963H59.4312L41.7905 148.143L70.0109 135.191L90.2565 235.963Z" fill="#97C233"/>
<path opacity="0.3" d="M90.2565 235.963H59.4312L41.7905 148.143L70.0109 135.191L90.2565 235.963Z" fill="#010101"/>
<path d="M100.391 188.848H27.1938V285.639H100.391V188.848Z" fill="#97C233"/>
<path opacity="0.2" d="M100.391 188.848H27.1938V285.639H100.391V188.848Z" fill="#010101"/>
<path opacity="0.2" d="M74.4315 188.848H27.1938V285.639H74.4315V188.848Z" fill="#010101"/>
<path opacity="0.2" d="M201.15 285.633H188.245L169.014 188.848H201.15V285.633Z" fill="#010101"/>
<path d="M201.15 214.491H100.385V285.633H201.15V214.491Z" fill="#97C233"/>
<path opacity="0.2" d="M201.15 214.491H100.385V285.633H201.15V214.491Z" fill="#010101"/>
<g opacity="0.1">
<path d="M80.7925 188.848L90.5889 188.67L100.385 188.546H100.682V188.842L100.795 200.171L100.836 211.499C100.866 219.048 100.89 226.602 100.848 234.15C100.824 241.699 100.813 249.253 100.718 256.802C100.652 264.35 100.551 271.905 100.391 279.453C100.231 271.905 100.124 264.35 100.065 256.802C99.97 249.253 99.9581 241.699 99.9344 234.15C99.8929 226.602 99.9166 219.048 99.9463 211.499L99.9878 200.171L100.101 188.842L100.397 189.138L90.6008 189.014L80.8043 188.842L80.7925 188.848Z" fill="#010101"/>
<path d="M201.15 188.848C201.352 196.426 201.447 204.004 201.524 211.588L201.637 234.328L201.524 257.068L201.388 268.439L201.15 279.809L200.913 268.439L200.777 257.068L200.664 234.328L200.777 211.588C200.854 204.01 200.949 196.432 201.15 188.848Z" fill="#010101"/>
<path d="M201.15 235.963C192.754 236.165 184.358 236.26 175.956 236.337L150.762 236.449L125.568 236.337L112.971 236.2L100.374 235.963L112.971 235.726L125.568 235.59L150.762 235.478L175.956 235.59C184.352 235.667 192.748 235.762 201.15 235.963Z" fill="#010101"/>
<path d="M201.15 214.491C192.754 214.693 184.358 214.787 175.956 214.865L150.762 214.977L125.568 214.865L112.971 214.728L100.374 214.491L112.971 214.254L125.568 214.118L150.762 214.005L175.956 214.118C184.352 214.195 192.748 214.29 201.15 214.491Z" fill="#010101"/>
</g>
<path d="M45.1431 285.633L44.5023 293.472L43.0129 311.59H36.1714L34.6821 293.472L34.0413 285.633H45.1431Z" fill="#3A3A3A"/>
<path d="M34.0413 285.633H45.1431L44.5023 293.472H34.6821L34.0413 285.633Z" fill="#111111"/>
<path d="M92.9622 285.633L92.3213 293.472L90.832 311.59H83.9905L82.4952 293.472L81.8604 285.633H92.9622Z" fill="#3A3A3A"/>
<path d="M81.8604 285.633H92.9622L92.3213 293.472H82.4952L81.8604 285.633Z" fill="#111111"/>
<path d="M172.271 285.633L171.63 293.472L170.141 311.59H163.3L161.81 293.472L161.169 285.633H172.271Z" fill="#455A64"/>
<path d="M161.169 285.633H172.271L171.63 293.472H161.81L161.169 285.633Z" fill="#37474F"/>
<path d="M220.096 285.633L219.462 293.472L217.966 311.59H211.131L209.635 293.472L208.995 285.633H220.096Z" fill="#455A64"/>
<path d="M220.096 285.633L219.462 293.472H209.635L208.995 285.633H220.096Z" fill="#37474F"/>
<g opacity="0.2">
<path d="M81.3263 167.31C80.5312 167.31 80.5253 168.549 81.3263 168.549C82.1274 168.549 82.1274 167.31 81.3263 167.31Z" fill="#010101"/>
<path d="M82.3825 257.785C81.5874 257.785 81.5815 259.024 82.3825 259.024C83.1835 259.024 83.1835 257.785 82.3825 257.785Z" fill="#010101"/>
<path d="M150.026 242.315C149.231 242.315 149.225 243.554 150.026 243.554C150.827 243.554 150.827 242.315 150.026 242.315Z" fill="#010101"/>
<path d="M124.713 231.164C124.683 231.099 124.654 231.04 124.618 230.98C124.517 230.803 124.238 230.803 124.138 230.98C124.102 231.04 124.072 231.105 124.043 231.164C123.693 231.899 125.069 231.899 124.713 231.164Z" fill="#010101"/>
<path d="M62.8845 259.344C62.8549 259.278 62.8252 259.219 62.7896 259.16C62.6887 258.982 62.4098 258.982 62.309 259.16C62.2734 259.219 62.2437 259.284 62.214 259.344C61.8639 260.078 63.2406 260.078 62.8845 259.344Z" fill="#010101"/>
<path d="M86.6547 171.085C86.0435 171.085 86.0435 172.027 86.6547 172.027C87.2658 172.027 87.2658 171.085 86.6547 171.085Z" fill="#010101"/>
<path d="M39.5951 214.509C38.9839 214.509 38.9839 215.451 39.5951 215.451C40.2063 215.451 40.2063 214.509 39.5951 214.509Z" fill="#010101"/>
<path d="M115.795 144.724C115.569 144.47 115.095 144.47 114.869 144.724C114.614 145.009 114.578 145.252 114.644 145.619C114.768 146.3 115.896 146.3 116.02 145.619C116.086 145.252 116.05 145.009 115.795 144.724Z" fill="#010101"/>
<path d="M87.5744 254.284C87.3489 254.029 86.8742 254.029 86.6488 254.284C86.3936 254.568 86.358 254.811 86.4233 255.178C86.5479 255.86 87.6753 255.86 87.7999 255.178C87.8652 254.811 87.8295 254.568 87.5744 254.284Z" fill="#010101"/>
<path d="M197.94 245.864C198.735 245.864 198.741 244.626 197.94 244.626C197.139 244.626 197.139 245.864 197.94 245.864Z" fill="#010101"/>
<path d="M124.772 274.435C125.568 274.435 125.573 273.196 124.772 273.196C123.971 273.196 123.971 274.435 124.772 274.435Z" fill="#010101"/>
<path d="M160.333 163.299C161.128 163.299 161.134 162.061 160.333 162.061C159.532 162.061 159.532 163.299 160.333 163.299Z" fill="#010101"/>
<path d="M218.008 240.022C218.038 240.087 218.067 240.147 218.103 240.206C218.204 240.384 218.483 240.384 218.583 240.206C218.619 240.147 218.649 240.081 218.678 240.022C219.028 239.288 217.652 239.288 218.008 240.022Z" fill="#010101"/>
<path d="M161.199 202.76C161.425 203.014 161.893 203.014 162.125 202.76C162.38 202.475 162.415 202.232 162.35 201.865C162.226 201.184 161.098 201.184 160.974 201.865C160.908 202.232 160.944 202.475 161.199 202.76Z" fill="#010101"/>
</g>
<path d="M170.64 144.6C170.088 144.6 167.495 144.63 163.709 144.671C162.416 142.248 160.92 137.964 161.668 131.938C161.798 130.943 159.354 136.649 160.19 144.713C152.874 144.79 142.924 144.89 134.231 144.896C134.106 141.507 133.839 138.367 133.839 138.367C133.507 140.808 132.955 143 132.338 144.902C131.151 144.914 129.982 144.902 128.867 144.902C129.193 139.647 128.416 130.469 128.416 130.469C127.544 136.832 125.437 141.898 123.924 144.878C118.406 144.825 114.774 144.689 115.012 144.428C123.491 134.984 117.45 129.396 119.937 121.012C122.921 110.964 131.65 109.476 131.495 101.898C131.383 95.7305 130.766 84.5381 138.592 82.2511C138.592 82.2511 145.03 75.3958 154.939 79.3478C167.198 84.2241 162.065 103.166 162.855 107.047C163.976 112.587 166.581 114.566 168.468 120.894C170.39 127.293 167.424 131.488 167.038 135.807C166.67 140.121 172.028 144.606 170.64 144.6Z" fill="#111111"/>
<path d="M114.786 143.059C115.919 141.365 116.94 139.581 117.539 137.697C118.198 135.825 117.949 133.899 117.593 131.908C117.243 129.929 116.815 127.903 116.661 125.806C116.531 123.714 116.631 121.522 117.355 119.466C118.038 117.404 119.26 115.544 120.749 114.045C122.227 112.516 123.912 111.295 125.544 110.087C127.158 108.866 128.766 107.657 129.982 106.093C131.228 104.553 131.994 102.639 132.267 100.613C132.32 102.657 131.75 104.76 130.587 106.526C129.442 108.303 127.858 109.725 126.297 111.035C124.731 112.356 123.158 113.618 121.835 115.064C120.524 116.509 119.468 118.151 118.886 119.975C118.305 121.794 118.115 123.744 118.234 125.711C118.323 127.684 118.661 129.675 118.898 131.725C119.011 132.75 119.106 133.799 119.058 134.865C119.017 135.937 118.726 137.022 118.317 137.988C117.45 139.913 116.222 141.596 114.786 143.059Z" fill="#263239"/>
<path d="M161.81 86.511C162.736 88.8633 163.062 91.3992 163.389 93.8877C163.668 96.394 163.828 98.9062 163.958 101.407L164.178 105.139C164.255 106.389 164.397 107.563 164.694 108.712C165.276 111.029 166.539 113.061 167.975 115.123C168.67 116.172 169.376 117.262 169.945 118.441C170.521 119.62 170.972 120.864 171.269 122.138C171.53 123.43 171.696 124.698 171.761 125.989C171.832 127.281 171.743 128.602 171.494 129.882C171.251 131.162 170.871 132.377 170.556 133.562C170.236 134.747 170.022 135.961 169.933 137.17C169.72 139.564 170.954 141.975 172.877 143.575C170.734 142.271 169.192 139.818 169.15 137.158C169.132 135.866 169.281 134.587 169.524 133.33C169.761 132.074 170.094 130.878 170.242 129.681C170.574 127.311 170.307 124.834 169.767 122.5C169.459 121.344 169.055 120.224 168.515 119.152C167.981 118.08 167.317 117.06 166.617 116.029C165.928 114.987 165.21 113.92 164.605 112.765C164 111.609 163.495 110.371 163.193 109.085C162.902 107.8 162.783 106.472 162.748 105.216C162.694 103.948 162.688 102.692 162.683 101.442C162.665 98.9358 162.683 96.4354 162.594 93.941C162.534 91.4466 162.386 88.9522 161.816 86.5051L161.81 86.511Z" fill="#111111"/>
<path d="M183.32 324.513C181.166 324.222 127.01 297.24 125.633 294.971C125.461 294.71 127.799 289.768 131.11 283.044C133.738 277.711 137.287 271.093 140.776 264.741L175.078 281.432L168.236 294.372C168.236 294.372 174.259 301.654 179.148 307.834C179.148 307.852 179.16 307.852 179.16 307.863C182.169 311.661 184.756 315.05 185.224 316.064C186.459 318.706 185.462 324.809 183.314 324.513H183.32Z" fill="#EBEBEB"/>
<path d="M183.937 325.893C181.706 325.55 127.158 297.56 125.752 295.178C125.105 294.082 130.582 282.244 136.622 269.89L172.159 287.997L168.705 294.301C168.705 294.301 184.786 314.345 186.049 317.124C187.295 319.897 186.168 326.231 183.937 325.893Z" fill="#97C233"/>
<path d="M184.275 323.316C175.25 318.398 138.367 299.42 129.069 295.243C128.991 295.208 128.968 295.261 129.039 295.303C137.88 300.368 174.912 319.05 184.198 323.47C184.394 323.565 184.465 323.423 184.275 323.322V323.316Z" fill="#263239"/>
<path d="M171.043 292.938C167.791 290.42 163.104 288.714 159.039 289.863C158.879 289.905 158.944 290.13 159.081 290.154C163.205 290.859 166.89 291.842 170.794 293.383C171.067 293.489 171.274 293.116 171.043 292.938Z" fill="#263239"/>
<path d="M172.835 295.836C169.583 293.317 164.896 291.611 160.831 292.761C160.671 292.808 160.742 293.027 160.873 293.051C164.997 293.756 168.681 294.739 172.586 296.28C172.859 296.387 173.066 296.013 172.835 295.836Z" fill="#263239"/>
<path d="M174.627 298.733C171.375 296.215 166.688 294.509 162.623 295.658C162.463 295.699 162.528 295.925 162.665 295.948C166.789 296.653 170.473 297.637 174.378 299.177C174.651 299.284 174.858 298.911 174.627 298.733Z" fill="#263239"/>
<path d="M176.419 301.63C173.167 299.112 168.48 297.406 164.415 298.555C164.255 298.597 164.326 298.822 164.457 298.846C168.581 299.551 172.265 300.534 176.17 302.075C176.443 302.181 176.65 301.808 176.419 301.63Z" fill="#263239"/>
<path d="M181.961 288.044C181.545 285.372 178.466 284.898 176.312 285.39C172.829 286.184 169.061 288.275 166.533 290.776C166.474 290.835 166.498 290.906 166.551 290.948C166.421 291.226 166.516 291.641 166.883 291.688C170.42 292.115 174.146 293.01 177.712 292.34C179.789 291.949 182.347 290.574 181.961 288.05V288.044ZM172.384 291.238C170.639 291.072 168.913 290.817 167.162 290.717C169.073 289.674 170.93 288.548 172.942 287.695C173.903 287.286 174.9 286.889 175.909 286.616C177.481 286.196 182.786 286.297 180.121 289.917C178.656 291.913 174.467 291.439 172.384 291.238Z" fill="#263239"/>
<path d="M157.876 285.141C160.19 287.926 163.632 289.609 166.628 291.534C166.937 291.736 167.281 291.475 167.358 291.179C167.423 291.179 167.489 291.143 167.483 291.054C167.133 287.523 165.566 283.506 163.389 280.68C162.042 278.932 159.366 277.338 157.342 279.133C155.426 280.828 156.523 283.518 157.876 285.141ZM157.568 281.746C157.823 277.267 161.976 280.561 162.92 281.888C163.525 282.741 164.035 283.684 164.516 284.608C165.525 286.545 166.237 288.595 167.038 290.616C165.626 289.579 164.136 288.678 162.683 287.695C160.956 286.522 157.425 284.223 157.568 281.752V281.746Z" fill="#263239"/>
<path d="M176.395 288.4L137.067 268.569C137.067 268.569 165.721 215.066 164.967 214.082C162.327 210.676 130.41 212.228 116.626 198.547C102.029 184.06 113.475 161.486 113.475 161.486H151.605C151.605 161.486 150.958 173.775 152.601 175.125C153.681 176.026 209.748 181.43 211.944 196.201C215.741 221.773 176.395 288.406 176.395 288.406V288.4Z" fill="#2A6E26"/>
<path d="M177.944 282.273C173.399 279.53 168.747 277.006 164.071 274.494C159.401 271.982 154.702 269.529 149.949 267.176C147.267 265.849 144.531 264.652 141.849 263.331C141.766 263.29 141.695 263.414 141.778 263.461C144.134 264.723 146.418 266.11 148.762 267.384C151.076 268.64 153.39 269.884 155.716 271.117C160.404 273.599 165.121 276.022 169.821 278.475C172.473 279.862 175.155 281.165 177.855 282.451C177.967 282.504 178.062 282.344 177.95 282.279L177.944 282.273Z" fill="#263239"/>
<path d="M179.985 207.82C179.048 205.888 176.561 205.604 174.704 205.136C169.637 203.874 164.564 202.606 159.496 201.355C150.513 199.134 141.25 197.036 133.204 192.284C129.359 190.015 125.627 187.141 123.704 183C121.824 178.947 121.788 174.444 121.758 170.065C121.752 168.981 121.818 167.903 121.889 166.825C121.895 166.73 121.746 166.736 121.74 166.825C121.462 171.132 121.017 175.445 121.984 179.705C122.452 181.761 123.23 183.752 124.399 185.512C125.58 187.289 127.11 188.8 128.784 190.11C135.904 195.685 144.834 198.357 153.468 200.556C158.351 201.8 163.246 202.985 168.141 204.182C170.657 204.798 173.179 205.414 175.695 206.03C176.757 206.291 177.956 206.498 178.798 207.251C179.576 207.95 179.801 208.975 179.73 209.982C179.659 211.013 179.332 212.02 178.964 212.98C178.513 214.165 178.033 215.338 177.558 216.512C176.627 218.805 175.671 221.086 174.692 223.355C172.716 227.929 170.663 232.474 168.539 236.983C164.297 245.971 159.769 254.823 155.147 263.615C154.571 264.712 154.013 265.814 153.45 266.916C153.414 266.981 153.515 267.04 153.551 266.975C158.499 258.277 163.122 249.384 167.518 240.395C171.886 231.478 176.045 222.419 179.576 213.134C180.199 211.493 180.798 209.479 179.985 207.796V207.82Z" fill="#263239"/>
<path d="M268.936 326.521C266.883 327.203 206.348 326.557 204.123 325.111C203.862 324.945 203.838 311.999 203.838 311.999C202.657 305.914 201.465 298.466 200.42 291.427H240.443L242.187 305.997C242.187 305.997 250.791 309.919 257.894 313.344C257.906 313.356 257.911 313.356 257.911 313.362C262.285 315.471 266.088 317.385 266.96 318.084C269.227 319.927 271.001 325.858 268.936 326.521Z" fill="#EBEBEB"/>
<path d="M269.779 327.049C267.631 327.754 206.307 327.386 203.975 325.899C203.251 325.437 201.233 302.969 201.162 298.437L242.122 298.561L241.897 305.742C241.897 305.742 265.317 316.372 267.696 318.28C270.064 320.187 271.921 326.349 269.779 327.055V327.049Z" fill="#97C233"/>
<path d="M268.912 324.596C258.635 324.282 217.147 323.985 206.965 324.459C206.882 324.459 206.882 324.519 206.965 324.525C217.147 325.058 258.635 325.016 268.912 324.768C269.132 324.768 269.132 324.608 268.912 324.602V324.596Z" fill="#263239"/>
<path d="M243.362 303.467C239.321 302.691 234.373 303.277 231.263 306.139C231.145 306.252 231.305 306.418 231.436 306.376C235.435 305.144 239.167 304.362 243.344 303.977C243.641 303.947 243.653 303.52 243.362 303.467Z" fill="#263239"/>
<path d="M246.275 305.239C242.235 304.462 237.286 305.049 234.177 307.911C234.058 308.023 234.218 308.189 234.349 308.148C238.348 306.915 242.08 306.133 246.258 305.748C246.554 305.719 246.566 305.292 246.275 305.239Z" fill="#263239"/>
<path d="M249.183 307.016C245.142 306.24 240.193 306.827 237.084 309.688C236.966 309.801 237.126 309.967 237.256 309.925C241.256 308.693 244.988 307.911 249.165 307.526C249.462 307.496 249.474 307.069 249.183 307.016Z" fill="#263239"/>
<path d="M252.09 308.794C248.05 308.018 243.095 308.604 239.992 311.466C239.873 311.579 240.033 311.744 240.164 311.703C244.163 310.471 247.895 309.688 252.073 309.303C252.369 309.274 252.381 308.847 252.09 308.794Z" fill="#263239"/>
<path d="M250.892 294.171C249.314 291.973 246.347 292.938 244.65 294.349C241.902 296.63 239.487 300.197 238.366 303.562C238.336 303.645 238.396 303.698 238.461 303.71C238.473 304.018 238.746 304.344 239.09 304.22C242.436 303.005 246.169 302.116 249.041 299.912C250.72 298.626 252.381 296.245 250.886 294.171H250.892ZM243.789 301.34C242.158 301.98 240.502 302.531 238.894 303.23C240.122 301.435 241.273 299.598 242.686 297.927C243.356 297.133 244.068 296.327 244.846 295.628C246.056 294.544 250.833 292.245 250.097 296.671C249.687 299.112 245.742 300.582 243.795 301.34H243.789Z" fill="#263239"/>
<path d="M228.089 302.448C231.418 303.888 235.251 303.84 238.793 304.202C239.161 304.237 239.345 303.858 239.28 303.556C239.339 303.526 239.381 303.467 239.333 303.39C237.423 300.398 234.213 297.524 230.991 295.984C229.003 295.03 225.888 294.817 224.897 297.329C223.959 299.705 226.149 301.607 228.089 302.448ZM226.279 299.557C224.481 295.445 229.679 296.511 231.115 297.27C232.041 297.755 232.919 298.366 233.767 298.976C235.542 300.25 237.102 301.755 238.734 303.195C237.001 302.91 235.263 302.774 233.524 302.555C231.453 302.288 227.264 301.826 226.273 299.557H226.279Z" fill="#263239"/>
<path d="M243.214 297.88L197.525 297.548C197.525 297.548 188.162 226.525 184.453 222.561C182.578 220.553 122.28 220.292 107.494 206.22C92.5944 192.041 107.494 161.48 107.494 161.48H146.401C146.401 161.48 147.368 173.467 144.389 180.808C144.389 180.808 198.795 181.684 213.623 193.321C233.512 208.934 243.22 297.874 243.22 297.874L243.214 297.88Z" fill="#2A6E26"/>
<path d="M239.671 290.349C234.379 289.964 229.08 289.822 223.775 289.697C218.471 289.573 213.166 289.514 207.861 289.573C204.871 289.603 201.886 289.774 198.895 289.816C198.801 289.816 198.795 289.958 198.895 289.964C201.566 290.023 204.23 290.219 206.9 290.296C209.529 290.367 212.163 290.432 214.792 290.474C220.096 290.562 225.401 290.586 230.706 290.645C233.696 290.681 236.681 290.628 239.671 290.551C239.802 290.551 239.808 290.361 239.677 290.349H239.671Z" fill="#263239"/>
<path d="M127.306 167.15C127.253 167.328 127.176 167.506 127.087 167.672C127.069 167.713 127.087 167.743 127.11 167.761C126.594 169.349 126.386 171.043 125.894 172.637C125.36 174.367 124.44 175.807 122.939 176.85C119.925 178.941 116.293 179.889 112.787 180.76C112.674 180.79 112.709 180.95 112.816 180.956C114.81 181.015 116.905 180.612 118.809 180.037C120.571 179.51 122.393 178.752 123.859 177.62C125.324 176.488 126.28 175.054 126.754 173.265C126.998 172.347 127.122 171.399 127.259 170.462C127.419 169.396 127.621 168.264 127.609 167.186C127.609 167.014 127.354 166.99 127.312 167.15H127.306Z" fill="#263239"/>
<path d="M151.498 178.141C149.101 178.722 146.763 179.836 144.502 180.808C144.466 180.825 144.431 180.843 144.395 180.855C144.449 180.719 144.478 180.571 144.502 180.434C144.532 180.268 144.555 180.097 144.585 179.931C144.615 179.759 144.627 179.575 144.644 179.403C144.65 179.314 144.662 179.226 144.668 179.137C144.668 179.125 144.668 179.119 144.668 179.107C145.214 179.077 145.76 178.829 146.169 178.337C146.692 177.715 146.899 176.909 147.107 176.139C147.368 175.143 147.611 174.148 147.831 173.141C148.074 172.027 148.276 170.901 148.454 169.769C148.626 168.667 148.834 167.541 148.839 166.428C148.839 166.25 148.572 166.22 148.525 166.392C148.264 167.423 148.145 168.484 147.949 169.526C147.754 170.575 147.528 171.612 147.291 172.655C147.053 173.692 146.792 174.729 146.508 175.754C146.252 176.666 145.997 177.993 144.935 178.289C142.752 178.912 143.731 174.012 143.826 173.058C144.051 170.842 144.188 168.578 144.573 166.386C144.591 166.291 144.455 166.256 144.431 166.351C143.956 168.371 143.416 170.35 143.054 172.4C142.876 173.401 142.752 174.415 142.645 175.422C142.556 176.275 142.443 177.229 142.847 178.023C143.167 178.657 143.707 179 144.288 179.089C144.265 179.166 144.241 179.243 144.217 179.32C144.17 179.48 144.116 179.646 144.075 179.806C144.033 179.972 143.998 180.138 143.956 180.298C143.915 180.482 143.826 180.719 143.885 180.902C143.903 180.962 143.944 181.003 143.992 181.033C143.06 181.436 142.123 181.839 141.203 182.265C140.093 182.781 138.865 183.213 137.85 183.895C137.726 183.954 137.827 184.126 137.945 184.102C139.144 183.847 140.313 183.272 141.464 182.834C142.633 182.39 143.784 181.91 144.941 181.436C147.166 180.517 149.546 179.629 151.593 178.343C151.699 178.272 151.622 178.112 151.504 178.141H151.498Z" fill="#263239"/>
<path d="M106.663 179.729C107.073 175.902 107.885 172.116 109.037 168.436C109.333 167.482 109.654 166.54 109.986 165.598C110.022 165.509 110.164 165.551 110.134 165.639C108.906 169.331 108.052 173.146 107.535 176.998C107.043 180.725 106.728 184.546 107.179 188.291C107.595 191.733 108.71 194.998 110.769 197.83C112.62 200.378 115.059 202.481 117.729 204.152C124.031 208.086 131.513 209.52 138.717 210.918C146.638 212.459 154.595 213.834 162.57 215.078C171.536 216.476 189.135 217.442 189.912 219.024C191.413 222.069 193.781 236.272 195.306 244.975C196.825 253.632 200.628 283.31 200.913 288.293C200.931 288.613 200.444 288.589 200.415 288.281C199.578 279.477 198.053 268.367 196.825 259.604C195.602 250.936 194.125 242.303 192.386 233.718C191.419 228.948 189.592 220.511 189.016 219.717C188.12 218.491 173.037 217.412 164.967 216.168C156.808 214.912 148.667 213.508 140.562 211.961C133.151 210.545 125.437 209.277 118.768 205.568C113.018 202.369 108.336 197.344 106.924 190.833C106.135 187.195 106.277 183.403 106.669 179.723L106.663 179.729Z" fill="#263239"/>
<path d="M162.522 220.09C164.095 220.049 182.335 221.738 185.444 222.36C185.664 222.401 191.2 253.229 191.74 258.911C191.811 259.663 191.52 260.351 191.301 258.911C190.879 256.114 184.495 223.165 184.483 223.148C181.368 222.792 164.018 220.576 162.487 220.31C162.356 220.286 162.404 220.096 162.522 220.09Z" fill="#263239"/>
<path d="M145.908 180.73C156.191 180.879 167.69 181.957 177.884 183.26C182.614 183.865 187.343 184.558 192.036 185.417C196.213 186.181 200.385 187.129 204.378 188.611C206.562 189.422 208.686 190.37 210.692 191.567C212.703 192.764 214.489 194.269 216.204 195.851C216.275 195.916 216.168 196.017 216.091 195.958C212.917 193.303 208.947 191.413 205.102 189.95C201.192 188.463 197.109 187.461 193.009 186.673C188.423 185.796 183.794 185.162 179.172 184.522C174.17 183.835 169.162 183.237 164.136 182.709C158.476 182.117 151.569 181.631 145.902 181.068C145.689 181.044 145.694 180.73 145.908 180.73Z" fill="#263239"/>
<path d="M136.675 122.861C141.054 137.662 151.682 156.313 159.567 155.822C166.765 155.371 182.679 146.828 189.212 142.342C195.786 137.822 180.341 121.794 176.413 124.372C171.185 127.802 162.214 135.286 160.683 134.871C158.772 134.355 156.761 131.446 145.38 118.299C140.722 112.919 134.806 116.563 136.675 122.861Z" fill="#E37E4C"/>
<path d="M183.474 117.837C186.66 116.74 190.221 115.224 193.751 115.318C197.282 115.413 200.177 120.082 200.165 121.415C200.153 122.748 198.765 131.049 195.234 131.02C191.704 130.996 193.882 124.627 193.757 123.892C193.626 123.157 193.502 122.221 192.837 122.286C192.173 122.351 180.478 127.785 180.478 127.785L183.474 117.831V117.837Z" fill="#C66134"/>
<path d="M183.699 118.323C183.901 118.323 193.383 114.667 196.914 114.762C200.444 114.856 203.34 119.525 203.328 120.858C203.316 122.192 201.928 130.492 198.397 130.463C194.867 130.439 197.044 124.07 196.92 123.335C196.789 122.6 196.664 121.664 196 121.729C195.335 121.795 183.64 127.228 183.64 127.228L183.705 118.317L183.699 118.323Z" fill="#E37E4C"/>
<path d="M197.199 130.013C196.765 129.45 196.7 128.614 196.629 127.927C196.552 127.175 196.617 126.416 196.771 125.675C196.908 125.036 197.187 124.402 197.216 123.738C197.24 123.128 197.026 122.405 196.736 121.872C196.469 121.374 195.947 121.54 195.502 121.694C194.843 121.919 194.202 122.245 193.573 122.547C192.897 122.873 192.226 123.223 191.556 123.56C190.867 123.91 190.138 124.236 189.497 124.668C189.449 124.698 189.479 124.787 189.538 124.763C190.155 124.556 190.743 124.242 191.336 123.969C192.007 123.661 192.683 123.353 193.359 123.063C193.994 122.784 194.611 122.476 195.252 122.209C195.478 122.115 195.929 121.878 196.184 121.937C196.451 122.002 196.581 122.66 196.641 122.879C196.825 123.554 196.694 124.129 196.504 124.781C196.32 125.409 196.184 126.055 196.125 126.712C196.071 127.317 196.089 127.963 196.261 128.549C196.427 129.112 196.801 129.568 197.092 130.072C197.133 130.143 197.246 130.072 197.199 130.007V130.013Z" fill="#E37E4C"/>
<path d="M172.432 127.494C172.432 127.494 182.276 118.666 184.329 116.912C188.441 113.393 205.69 106.502 208.093 106.265C210.49 106.028 211.321 110.946 199.608 115.958C193.437 118.601 192.315 122.114 192.416 124.064C192.517 126.013 194.356 129.663 197.644 129.598C200.931 129.533 203.097 124.763 206.117 124.253C209.137 123.744 207.108 129.254 204.954 132.43C202.8 135.606 198.913 138.213 196.065 139.256C193.217 140.298 184.394 144.019 184.394 144.019L172.432 127.5V127.494Z" fill="#E37E4C"/>
<path d="M201.738 127.317C200.492 128.265 199.085 129.491 197.454 129.544C195.769 129.598 194.683 128.496 193.911 127.121C193.134 125.735 192.689 124.159 193.081 122.577C193.437 121.155 194.297 119.905 195.359 118.915C196.676 117.689 198.231 116.782 199.833 115.988C199.904 115.953 199.845 115.846 199.768 115.881C198.249 116.545 193.538 118.435 192.564 122.571C192.167 124.259 192.665 125.776 193.449 127.198C194.167 128.508 195.217 129.776 196.807 129.918C198.747 130.09 200.426 128.525 201.833 127.358C201.892 127.305 201.803 127.263 201.738 127.311V127.317Z" fill="#E37E4C"/>
<path d="M136.029 126.007C138.076 134.681 140.936 140.494 142.413 143.125C143.013 144.197 143.386 144.742 143.386 144.742L156.98 132.975L158.855 131.352C158.855 131.352 158.577 130.966 157.663 129.918C156.357 128.43 153.758 125.634 148.84 120.781C145.926 117.902 143.458 116.059 141.464 115.123C135.839 112.474 133.91 117.007 136.035 126.001L136.029 126.007Z" fill="#97C233"/>
<path d="M140.942 144.41L144.478 149.411L159.65 136.026L163.05 133.028C162.635 132.667 158.624 129.082 158.624 129.082L157.657 129.93L155.74 131.589L142.407 143.136L140.942 144.416V144.41Z" fill="#97C233"/>
<path opacity="0.1" d="M140.942 144.41L144.478 149.411L159.65 136.026L163.05 133.028C162.635 132.667 158.624 129.082 158.624 129.082L157.657 129.93L155.74 131.589L142.407 143.136L140.942 144.416V144.41Z" fill="#010101"/>
<path d="M136.029 126.007C138.076 134.681 140.936 140.494 142.413 143.125L140.948 144.404L144.484 149.405L159.656 136.02C158.778 135.025 157.882 134.006 156.98 132.975C156.571 132.507 156.156 132.039 155.746 131.571C150.234 125.267 144.745 118.968 141.458 115.123C135.833 112.474 133.904 117.007 136.029 126.001V126.007Z" fill="#263239"/>
<path d="M154.702 171.654C154.702 171.654 136.497 174.515 102.842 168.993C102.842 168.993 121.195 127.85 132.735 117.286C137.987 112.48 142.947 114.246 146.709 117.89C147.647 118.802 156.749 134.841 157.378 140.417C157.936 145.347 153.568 150.43 153.568 150.43L154.702 171.659V171.654Z" fill="#97C233"/>
<path d="M138.734 115.33C138.705 116.267 144.555 124.254 148.644 125.136C149.29 125.273 147.546 120.805 147.546 120.805C148.21 118.992 148.709 117.09 148.709 117.09L148.97 116.592L152.613 109.595L145.356 101.673L144.288 100.595C144.288 100.595 143.416 102.574 142.36 105.051C142.312 105.163 142.259 105.282 142.212 105.4C142.146 105.536 142.087 105.667 142.034 105.803C141.873 106.17 141.707 106.55 141.547 106.923C141.428 107.207 141.31 107.492 141.191 107.794C141.066 108.096 140.954 108.398 140.829 108.7C139.678 111.728 138.746 114.933 138.729 115.33H138.734Z" fill="#E37E4C"/>
<path d="M142.36 105.044C142.918 111.526 147.012 115.194 148.97 116.586L152.613 109.589L145.356 101.667L144.288 100.589C144.288 100.589 143.416 102.568 142.36 105.044Z" fill="#E37E4C"/>
<path d="M165.109 99.949C163.982 113.737 155.58 114.619 152.607 114.376C149.902 114.151 140.728 113.049 140.426 99.2143C140.123 85.3794 146.899 81.5459 153.106 81.7296C159.312 81.9133 166.243 86.1556 165.109 99.949Z" fill="#E37E4C"/>
<path d="M141.357 100.364C142.864 100.34 146.97 96.3881 147.421 89.1359C147.421 89.1359 146.567 95.6178 146.033 96.554C145.499 97.4842 148.329 94.3262 148.774 88.4841C148.774 88.4841 151.913 90.9726 154.649 91.8732C157.384 92.7738 159.075 92.8271 159.283 92.6316C159.49 92.442 155.473 90.9726 154.429 89.6573C154.429 89.6573 161.638 93.4078 165.02 93.8225C165.412 93.8699 165.649 86.8962 160.558 83.2346C155.467 79.5729 147.587 81.8244 145.256 83.8804C145.256 83.8804 143.642 84.5144 140.615 88.259C137.589 92.0036 139.737 100.387 141.363 100.364H141.357Z" fill="#111111"/>
<path opacity="0.4" d="M155.099 99.1374C153.082 98.533 152.026 102.609 153.895 103.166C155.734 103.717 156.791 99.641 155.099 99.1374Z" fill="#111111"/>
<path opacity="0.4" d="M161.977 99.5402C160.191 99.398 159.989 103.599 161.638 103.729C163.264 103.859 163.472 99.6587 161.977 99.5402Z" fill="#111111"/>
<path d="M163.65 96.9865C163.347 96.8621 163.051 96.8028 162.742 96.708C162.392 96.6073 162.125 96.4888 161.763 96.6014C161.567 96.6606 161.437 96.9273 161.478 97.1228C161.573 97.5731 161.971 97.8042 162.386 97.9464C162.837 98.1004 163.223 98.1004 163.668 97.9345C164.101 97.7745 164.047 97.1465 163.65 96.9865Z" fill="#111111"/>
<path d="M153.604 95.5112C153.925 95.4638 154.227 95.4756 154.548 95.4578C154.91 95.4401 155.2 95.3927 155.521 95.5882C155.693 95.6948 155.764 95.9852 155.675 96.1629C155.473 96.5777 155.034 96.708 154.595 96.7436C154.121 96.785 153.747 96.6962 153.355 96.4295C152.975 96.1688 153.177 95.5763 153.598 95.5112H153.604Z" fill="#111111"/>
<path d="M155.645 100.198C155.645 100.162 155.568 100.239 155.568 100.275C155.532 101.205 155.331 102.272 154.464 102.515C154.441 102.52 154.435 102.568 154.464 102.568C155.503 102.497 155.752 101.087 155.639 100.198H155.645Z" fill="#111111"/>
<path d="M154.88 99.167C153.39 98.9478 153.058 101.94 154.435 102.141C155.794 102.343 156.126 99.3507 154.88 99.167Z" fill="#111111"/>
<path d="M154.275 99.2617C153.996 99.4039 153.705 99.6706 153.385 99.6706C153.017 99.6706 152.773 99.321 152.572 98.9951C152.548 98.9596 152.524 98.9833 152.518 99.0248C152.447 99.5995 152.601 100.21 153.207 100.364C153.758 100.506 154.221 100.044 154.429 99.481C154.464 99.3743 154.393 99.2084 154.281 99.2677L154.275 99.2617Z" fill="#111111"/>
<path d="M160.82 100.536C160.831 100.5 160.885 100.589 160.879 100.624C160.737 101.549 160.737 102.627 161.538 103.036C161.561 103.048 161.555 103.095 161.526 103.089C160.517 102.823 160.541 101.389 160.82 100.536Z" fill="#111111"/>
<path d="M161.763 99.6706C163.27 99.7358 163.027 102.734 161.633 102.675C160.262 102.615 160.499 99.6173 161.763 99.6706Z" fill="#111111"/>
<path d="M162.374 99.9135C162.6 100.091 162.813 100.399 163.092 100.441C163.419 100.488 163.686 100.186 163.923 99.8898C163.947 99.8602 163.97 99.8898 163.964 99.9254C163.935 100.5 163.697 101.081 163.134 101.146C162.623 101.205 162.291 100.684 162.202 100.103C162.184 99.9965 162.279 99.8424 162.368 99.9135H162.374Z" fill="#111111"/>
<path d="M154.138 107.942C154.322 108.191 154.5 108.522 154.827 108.605C155.141 108.682 155.545 108.599 155.853 108.528C155.883 108.522 155.907 108.558 155.883 108.582C155.586 108.896 155.046 109.038 154.631 108.896C154.227 108.759 154.073 108.362 154.031 107.965C154.031 107.912 154.097 107.9 154.126 107.936L154.138 107.942Z" fill="#111111"/>
<path d="M159.022 104.565C159.022 104.565 159.075 105.969 159.01 106.627C159.004 106.686 157.158 106.348 155.171 106.798C154.874 106.87 154.898 106.627 155.242 106.461C155.924 106.135 156.796 105.833 158.499 105.999C158.565 105.821 158.375 103.836 158.482 103.842C158.844 103.842 159.526 104.162 159.935 104.328C159.906 101.395 159.413 98.4975 159.425 95.5765C159.425 95.4699 159.579 95.458 159.603 95.5528C160.339 98.5568 160.446 101.928 160.552 104.956C160.57 105.335 159.271 104.707 159.022 104.571V104.565Z" fill="#111111"/>
<path d="M157.414 106.549C157.414 106.549 156.862 108.173 155.865 108.108C152.922 107.918 150.833 105.282 152.145 104.837C152.833 104.606 157.414 106.555 157.414 106.555V106.549Z" fill="#111111"/>
<path d="M156.844 107.373C156.53 107.729 156.096 108.084 155.628 108.102C155.022 108.131 154.672 107.752 154.672 107.32C154.672 107.32 154.678 107.29 154.69 107.272C155.907 106.775 156.536 107.018 156.85 107.367L156.844 107.373Z" fill="#F298B9"/>
<path d="M140.906 103.735C141.529 105.744 136.373 96.5303 136.325 95.0609C136.272 93.5974 138.651 86.2623 144.585 82.8495C149.557 79.9877 155.978 81.3801 157.099 81.6348C159.217 82.1207 160.558 83.2287 160.558 83.2287C160.558 83.2287 152.144 81.3801 145.255 83.8745C141.933 85.0773 138.58 96.2104 140.912 103.729L140.906 103.735Z" fill="#97C233"/>
<path d="M141.921 82.3576C141.921 82.3576 143.262 77.9198 147.018 76.4563C147.018 76.4563 147.884 80.3313 146.857 81.9547C146.347 82.7605 143.38 83.8329 142.894 83.4182C142.407 83.0094 141.921 82.3517 141.921 82.3517V82.3576Z" fill="#97C233"/>
<path opacity="0.1" d="M141.921 82.3517C141.921 82.3517 142.407 83.0093 142.894 83.4181C143.131 83.6137 144.015 83.5011 144.888 83.2167C144.662 82.7131 144.336 82.0436 144.003 81.5933C143.552 80.983 142.241 80.7519 141.642 80.6689C141.772 81.611 141.927 82.3517 141.927 82.3517H141.921Z" fill="#040504"/>
<path d="M141.114 83.1338C141.114 83.1338 135.495 83.7322 133.21 85.5867C133.21 85.5867 135.37 88.0219 138.254 87.9982C139.547 87.9864 142.508 84.852 142.146 84.2714C141.784 83.6907 141.108 83.1338 141.108 83.1338H141.114Z" fill="#97C233"/>
<path opacity="0.1" d="M140.414 85.0653C140.71 85.4386 141.221 85.7171 141.713 85.9185C142.081 85.1424 142.283 84.4788 142.152 84.2714C141.796 83.6907 141.114 83.1338 141.114 83.1338C141.114 83.1338 140.586 83.0568 139.826 82.9797C139.832 83.4893 139.927 84.4432 140.42 85.0653H140.414Z" fill="#040504"/>
<path d="M140.87 84.5024C141.553 85.249 142.716 85.3082 143.463 84.6269C144.211 83.9455 144.27 82.7842 143.588 82.0376C142.906 81.2911 141.743 81.2318 140.995 81.9132C140.247 82.5946 140.188 83.7559 140.87 84.5024Z" fill="#97C233"/>
<path d="M139.98 104.292C140.194 104.417 140.39 104.505 140.586 104.565C140.811 104.648 141.025 104.683 141.227 104.689C141.541 104.713 141.82 104.659 142.057 104.571C142.277 104.494 142.479 104.381 142.639 104.262C143.066 103.948 143.285 103.587 143.285 103.587L143.149 99.8128C143.149 99.8128 140.888 95.0491 138.776 95.7838C136.658 96.5185 137.844 103.072 139.975 104.298L139.98 104.292Z" fill="#E37E4C"/>
<path d="M139.162 97.6501C139.126 97.6383 139.108 97.6916 139.138 97.7094C140.621 98.6218 141.209 100.239 141.535 101.869C141.161 101.199 140.574 100.767 139.684 101.199C139.636 101.223 139.666 101.294 139.713 101.294C140.39 101.264 140.841 101.46 141.191 102.052C141.44 102.473 141.577 102.977 141.725 103.445C141.772 103.599 142.045 103.569 142.022 103.391C142.022 103.38 142.022 103.368 142.016 103.35C142.401 101.33 141.304 98.2249 139.162 97.6501Z" fill="#E37E4C"/>
<path d="M140.265 103.753C140.277 104.109 140.574 104.387 140.924 104.375C141.28 104.363 141.559 104.067 141.547 103.717C141.535 103.362 141.238 103.083 140.888 103.095C140.538 103.107 140.253 103.403 140.265 103.753Z" fill="#E37E4C"/>
<path d="M139.126 102.58C139.132 102.829 139.346 103.024 139.595 103.018C139.844 103.012 140.04 102.799 140.034 102.55C140.028 102.301 139.814 102.106 139.565 102.112C139.316 102.118 139.12 102.331 139.126 102.58Z" fill="#E37E4C"/>
<path d="M131.626 127.068C135.334 142.117 155.467 171.12 164.006 173.194C173.897 175.6 200.515 164.526 206.746 159.235C209.226 157.131 195.092 141.116 191.918 142.55C178.626 148.558 167.72 150.555 165.875 149.488C163.039 147.853 151.011 134.148 143.137 124.887C133.246 113.257 129.959 120.313 131.626 127.062V127.068Z" fill="#E37E4C"/>
<path d="M206.081 159.679C207.458 159.075 216.667 151.325 219.289 147.805C220.963 145.566 223.846 141.685 225.917 135.695C228.309 128.78 229.311 123.774 228.457 121.623C227.466 119.128 227.205 118.731 221.295 130.35C217.948 136.927 214.376 137.899 211.226 138.065C198.32 138.758 189.236 144.304 189.236 144.304C189.236 144.304 200.794 162.008 206.081 159.679Z" fill="#E37E4C"/>
<path d="M217.142 111.313L203.672 132.08C203.275 132.691 203.488 133.307 204.141 133.461L215.878 136.151C216.53 136.299 217.385 135.926 217.782 135.315L231.252 114.548C231.649 113.938 231.436 113.322 230.783 113.168L219.046 110.478C218.388 110.33 217.539 110.703 217.142 111.313Z" fill="#263239"/>
<path d="M216.085 111.123L202.622 131.891C202.224 132.501 202.438 133.117 203.091 133.271L214.827 135.961C215.48 136.109 216.335 135.736 216.732 135.126L230.201 114.359C230.599 113.748 230.385 113.132 229.733 112.978L217.996 110.288C217.337 110.14 216.489 110.513 216.091 111.123H216.085Z" fill="#37474F"/>
<path d="M216.151 112.338L203.803 131.375C203.423 131.956 203.595 132.536 204.183 132.673L214.685 135.078C215.273 135.214 216.056 134.853 216.436 134.266L228.783 115.229C229.555 114.044 229.246 113.671 228.659 113.535L226.558 113.055C226.434 113.025 226.256 113.132 226.155 113.286L226.113 113.351C225.876 113.719 225.65 113.671 225.377 113.612L220.512 112.498C220.239 112.433 220.019 112.385 220.263 112.012L220.304 111.947C220.405 111.787 220.387 111.639 220.269 111.609L218.162 111.129C217.575 110.993 216.863 111.248 216.163 112.332L216.151 112.338Z" fill="white"/>
<path d="M222.571 112.445L223.9 112.747C223.947 112.759 224.001 112.735 224.031 112.693C224.06 112.652 224.042 112.611 223.995 112.599L222.666 112.297C222.618 112.285 222.565 112.308 222.535 112.35C222.506 112.391 222.523 112.433 222.571 112.445Z" fill="white"/>
<path d="M210.733 123.975L219.657 126.025L224.95 117.854L216.026 115.81L210.733 123.975Z" fill="#97C233"/>
<path d="M213.581 126.167L218.785 127.364L219.094 126.884L213.89 125.693L213.581 126.167Z" fill="#A6A5A5"/>
<path d="M212.11 126.736L218.275 128.152L218.429 127.909L212.264 126.499L212.11 126.736Z" fill="#A6A5A5"/>
<path d="M211.825 127.18L217.99 128.59L218.144 128.347L211.979 126.937L211.825 127.18Z" fill="#A6A5A5"/>
<path d="M211.54 127.619L217.705 129.029L217.86 128.792L211.695 127.376L211.54 127.619Z" fill="#A6A5A5"/>
<path d="M225.449 115.117L226.564 115.372L226.689 115.176L225.579 114.921L225.449 115.117Z" fill="#A6A5A5"/>
<path d="M225.217 115.478L226.327 115.733L226.457 115.537L225.342 115.283L225.217 115.478Z" fill="#A6A5A5"/>
<path d="M224.98 115.84L226.09 116.095L226.22 115.899L225.111 115.644L224.98 115.84Z" fill="#A6A5A5"/>
<path d="M210.057 125.207C210.086 125.409 210.187 125.515 210.187 125.515C210.187 125.515 210.395 125.48 210.644 125.344C210.929 125.189 211.077 124.923 210.858 124.875C210.686 124.834 210.496 125.047 210.496 125.047C210.496 125.047 210.603 124.816 210.431 124.781C210.211 124.733 210.021 124.988 210.057 125.213V125.207Z" fill="#97C233"/>
<path d="M207.066 131.156L214.27 132.803L215.492 130.919L208.294 129.266L207.066 131.156Z" fill="#97C233"/>
<path d="M212.792 137.893C209.546 138.177 219.628 130.83 219.515 127.133C219.402 123.436 215.889 124.852 213.201 127.145C203.874 135.09 196.409 135.28 191.912 142.556C187.42 149.832 212.786 137.899 212.786 137.899L212.792 137.893Z" fill="#E37E4C"/>
<path d="M160.576 144.641C161.46 145.4 162.303 146.194 163.157 146.982C163.946 147.705 164.718 148.516 165.632 149.079C166.706 149.743 167.946 149.678 169.156 149.535C170.224 149.411 171.286 149.204 172.337 148.979C176.644 148.031 180.851 146.686 184.987 145.157C187.26 144.316 189.657 143.539 191.823 142.443L191.562 142.71C192.042 141.803 192.956 140.66 193.621 139.931C194.528 138.936 195.543 138.059 196.647 137.288C197.816 136.471 199.038 135.736 200.302 135.078C200.96 134.735 201.625 134.391 202.296 134.071C202.634 133.911 202.966 133.751 203.304 133.585C203.601 133.443 204.289 133.23 204.485 132.981C204.402 133.082 204.266 132.928 204.366 132.868C204.384 132.857 204.402 132.845 204.42 132.839C204.455 132.815 204.497 132.815 204.527 132.851C204.544 132.868 204.556 132.886 204.574 132.904C204.592 132.928 204.592 132.957 204.574 132.981C204.461 133.153 204.23 133.224 204.058 133.331C203.743 133.526 203.429 133.728 203.114 133.923C202.533 134.284 201.951 134.652 201.364 135.007C200.047 135.807 198.724 136.619 197.46 137.508C196.386 138.266 195.353 139.09 194.386 139.978C193.894 140.435 193.443 140.926 192.974 141.4C192.428 141.946 192.25 142.313 191.787 142.917C191.751 142.965 187.723 144.807 185.628 145.684C183.522 146.573 181.374 147.337 179.19 148.019C177.018 148.7 174.817 149.304 172.598 149.814C171.464 150.069 170.325 150.288 169.168 150.395C168.147 150.489 167.002 150.602 166.065 150.104C165.062 149.577 164.308 148.57 163.519 147.782C162.511 146.774 161.478 145.779 160.505 144.736C160.463 144.689 160.535 144.618 160.582 144.659L160.576 144.641Z" fill="#263239"/>
<path d="M160.814 144.09L144.822 156.835C144.822 156.835 133.394 140.251 131.009 127.945C128.624 115.638 134.973 114.501 145.161 126.327C155.123 137.893 160.808 144.09 160.808 144.09H160.814Z" fill="#97C233"/>
<path d="M150.109 131.926C151.895 133.769 153.604 135.718 155.295 137.65C156.114 138.592 156.927 139.534 157.728 140.5C158.149 141.009 158.571 141.513 158.998 142.022C159.455 142.573 159.894 143.19 160.446 143.658C160.547 143.741 160.398 143.877 160.333 143.776C159.627 142.739 158.577 141.85 157.716 140.938C156.803 139.978 155.912 139.001 155.04 138.005C153.325 136.056 151.611 134.059 150.05 131.979C150.014 131.932 150.08 131.879 150.121 131.92L150.109 131.926Z" fill="#263239"/>
<path d="M133.999 139.362C134.45 139.996 134.937 140.577 135.483 141.122C135.696 141.335 135.898 141.56 136.1 141.785C135.234 140.049 134.403 138.289 133.667 136.512C133.655 136.476 133.703 136.453 133.721 136.488C135.667 139.913 137.429 143.444 139.369 146.875C141.345 150.359 143.108 153.979 145.232 157.374C145.297 157.475 145.155 157.569 145.089 157.463C143.042 154.038 140.799 150.744 138.924 147.218C138.177 145.814 137.429 144.392 136.693 142.958C136.438 142.745 136.219 142.49 136.005 142.247C135.75 141.951 135.495 141.661 135.269 141.347C134.818 140.707 134.355 140.091 133.869 139.48C133.804 139.397 133.94 139.285 133.999 139.374V139.362Z" fill="#263239"/>
<path d="M164.943 145.921C164.546 145.536 160.683 141.797 160.683 141.797L142.401 156.396L145.73 161.539L164.943 145.921Z" fill="#97C233"/>
<path opacity="0.1" d="M164.943 145.921C164.546 145.536 160.683 141.797 160.683 141.797L142.401 156.396L145.73 161.539L164.943 145.921Z" fill="#010101"/>
<path d="M144.632 154.459C146.905 152.474 149.338 150.661 151.705 148.795C154.073 146.922 156.583 145.21 158.885 143.255C158.968 143.184 159.075 143.314 158.992 143.385C156.654 145.305 154.47 147.39 152.085 149.257C149.712 151.111 147.303 152.99 144.745 154.595C144.65 154.654 144.543 154.536 144.632 154.459Z" fill="#263239"/>
<path d="M148.893 158.968C147.748 159.714 146.656 160.526 145.576 161.35L145.938 161.409C144.864 159.667 143.743 157.961 142.526 156.319L142.496 156.515C142.93 156.118 143.363 155.721 143.778 155.3C143.28 155.614 142.793 155.946 142.313 156.284L142.212 156.355L142.283 156.479C143.286 158.263 144.383 159.987 145.529 161.676L145.689 161.907L145.891 161.729C146.917 160.84 147.938 159.934 148.899 158.968H148.893Z" fill="#263239"/>
</g>
<defs>
<clipPath id="clip0_213_659">
<rect width="326" height="335" fill="white"/>
</clipPath>
</defs>
</svg>
