<svg width="327" height="237" viewBox="0 0 327 237" fill="none" xmlns="http://www.w3.org/2000/svg">
<g clip-path="url(#clip0_99_99909)">
<path d="M0.631899 106.21C3.23322 116.215 12.7735 122.28 21.5345 127.359C27.185 130.631 32.7619 133.859 38.4738 136.99C41.8666 138.846 45.1919 141.579 46.2717 145.524C47.6705 150.658 45.3207 155.29 42.3513 159.15C35.5657 167.966 32.2466 180.041 37.2222 190.885C44.9771 207.77 67.2479 213.529 82.3834 218.479C100.801 224.502 119.735 228.619 138.846 230.769C164.497 233.655 189.326 231.658 214.824 228.839C232.064 226.934 249.316 221.157 262.691 209.731C266.771 206.245 270.759 201.374 269.924 196.013C269.446 192.932 268.544 187.798 266.489 185.512C260.58 178.932 252.549 175.888 244.936 171.525C244.936 171.525 244.936 171.525 244.923 171.513C236.371 164.498 242.058 151.302 252.715 152.343C282.133 155.216 299.343 152.214 310.858 145.88C330.638 134.993 329.288 117.844 322.331 95.8501C315.368 73.8496 299.428 31.7172 281.63 17.6261C245.574 -10.9175 224.125 30.7064 179.761 27.2693C160.503 25.7745 125.624 -5.8141 107.409 0.961884C98.1264 4.41114 89.077 9.55745 83.1013 17.6506C77.1256 25.7438 74.8187 37.2373 79.3097 46.2249C81.1687 49.9438 84.1872 53.6381 83.3835 57.7551C82.6473 61.5475 78.9293 63.8756 75.4261 65.2785C65.4994 69.2547 54.6401 69.5917 44.0323 70.4004C33.4307 71.2091 22.4548 72.6733 13.4238 78.5058C4.39891 84.3383 -2.11054 95.6847 0.631899 106.228V106.21ZM248.206 168.67L247.568 168.726C247.776 168.683 247.991 168.658 248.206 168.67Z" fill="#2A6E26"/>
<path d="M51.2043 193.526C138.496 193.152 236.42 193.146 323.712 193.526C236.42 193.906 138.496 193.9 51.2043 193.526Z" fill="#111111"/>
<path d="M187.461 237.006C258.786 237.006 316.607 230.338 316.607 222.112C316.607 213.887 258.786 207.219 187.461 207.219C116.136 207.219 58.3152 213.887 58.3152 222.112C58.3152 230.338 116.136 237.006 187.461 237.006Z" fill="#EBEBEB"/>
<path d="M94.1385 191.896H224.426L217.695 28.6663H87.4021L94.1385 191.896Z" fill="#DBDBDB"/>
<path d="M74.1931 11.7446H201.646C210.505 11.7446 217.695 18.925 217.695 27.7717V28.6662H74.1931C69.7634 28.6662 66.1682 25.076 66.1682 20.6527V19.7582C66.1682 15.3348 69.7634 11.7446 74.1931 11.7446Z" fill="#DBDBDB"/>
<path d="M204.02 28.6661V25.756C204.02 23.1583 206.131 21.0508 208.732 21.0508C211.333 21.0508 213.444 23.1583 213.444 25.756V28.6661H204.02Z" fill="#A6A6A6"/>
<path d="M88.8684 212.714H219.162L213.438 28.6663H83.1504L88.8684 212.714Z" fill="#97C233"/>
<path d="M197.584 212.714H207.002L213.437 28.6663H204.02L197.584 212.714Z" fill="#C7C7C7"/>
<path d="M67.2908 212.714H197.584L204.02 28.6663H73.7266L67.2908 212.714Z" fill="#EBEBEB"/>
<path d="M197.388 56.6829L182.633 56.542L167.865 56.4685L138.343 56.4011L108.808 56.4624L94.0404 56.542L79.2668 56.6829L94.0281 56.8239L108.789 56.8974L138.318 56.9648L167.853 56.8974L182.62 56.8177L197.388 56.6829Z" fill="#DBDBDB"/>
<path d="M197.057 65.7135L182.295 65.5787L167.534 65.499L138.005 65.4316L108.47 65.499L93.703 65.5787L78.9355 65.7135L93.6968 65.8544L108.458 65.934L137.987 65.9953L167.516 65.934L182.283 65.8544L197.057 65.7135Z" fill="#DBDBDB"/>
<path d="M196.719 74.7501L181.958 74.6092L167.197 74.5295L137.674 74.4683L108.139 74.5295L93.3717 74.6092L78.5981 74.7501L93.3594 74.8849L108.121 74.9645L137.649 75.0319L167.184 74.9645L181.952 74.8849L196.719 74.7501Z" fill="#DBDBDB"/>
<path d="M196.388 83.7808L181.627 83.6461L166.865 83.5664L137.337 83.499L107.802 83.5664L93.0343 83.6461L78.2668 83.7808L93.0281 83.9218L107.789 84.0014L137.318 84.0627L166.847 83.9953L181.614 83.9218L196.388 83.7808Z" fill="#DBDBDB"/>
<path d="M196.05 92.8175L181.289 92.6766L166.528 92.5969L137.005 92.5295L107.47 92.5969L92.703 92.6766L77.9294 92.8175L92.6907 92.9523L107.452 93.0319L136.981 93.0993L166.516 93.0319L181.283 92.9523L196.05 92.8175Z" fill="#DBDBDB"/>
<path d="M195.719 101.848L180.958 101.707L166.197 101.634L136.668 101.566L107.133 101.627L92.3656 101.707L77.5981 101.848L92.3594 101.983L107.121 102.062L136.649 102.13L166.178 102.062L180.946 101.983L195.719 101.848Z" fill="#DBDBDB"/>
<path d="M195.382 110.878L180.62 110.744L165.859 110.664L136.33 110.597L106.802 110.664L92.0343 110.744L77.2607 110.878L92.022 111.019L106.783 111.099L136.312 111.16L165.847 111.099L180.614 111.019L195.382 110.878Z" fill="#DBDBDB"/>
<path d="M195.05 119.915L180.289 119.774L165.528 119.695L135.999 119.633L106.464 119.695L91.6969 119.774L76.9294 119.915L91.6907 120.05L106.452 120.13L135.981 120.197L165.509 120.13L180.277 120.05L195.05 119.915Z" fill="#DBDBDB"/>
<path d="M194.713 128.946L179.952 128.811L165.19 128.731L135.662 128.664L106.133 128.731L91.3656 128.805L76.592 128.946L91.3533 129.087L106.115 129.166L135.643 129.228L165.178 129.16L179.946 129.087L194.713 128.946Z" fill="#DBDBDB"/>
<path d="M194.382 137.976L179.62 137.842L164.859 137.762L135.33 137.695L105.796 137.762L91.0282 137.842L76.2607 137.976L91.022 138.117L105.783 138.197L135.312 138.264L164.841 138.197L179.608 138.117L194.382 137.976Z" fill="#DBDBDB"/>
<path d="M194.044 147.013L179.283 146.872L164.522 146.799L134.993 146.731L105.464 146.792L90.6967 146.872L75.9231 147.013L90.6844 147.148L105.446 147.227L134.974 147.295L164.509 147.227L179.277 147.148L194.044 147.013Z" fill="#DBDBDB"/>
<path d="M193.713 156.044L178.952 155.909L164.19 155.829L134.662 155.762L105.127 155.829L90.3592 155.909L75.5918 156.044L90.3531 156.184L105.114 156.264L134.637 156.325L164.172 156.264L178.939 156.184L193.713 156.044Z" fill="#DBDBDB"/>
<path d="M193.375 165.08L178.614 164.939L163.853 164.86L134.324 164.798L104.795 164.86L90.028 164.939L75.2544 165.08L90.0157 165.215L104.777 165.295L134.306 165.362L163.841 165.295L178.608 165.215L193.375 165.08Z" fill="#DBDBDB"/>
<path d="M193.044 174.111L178.283 173.976L163.522 173.896L133.993 173.829L104.458 173.896L89.6905 173.97L74.9231 174.111L89.6844 174.252L104.446 174.331L133.968 174.393L163.503 174.325L178.271 174.252L193.044 174.111Z" fill="#DBDBDB"/>
<path d="M192.707 183.141L177.945 183.007L163.184 182.927L133.655 182.86L104.127 182.927L89.3593 183.007L74.5857 183.141L89.347 183.282L104.108 183.362L133.637 183.429L163.172 183.362L177.939 183.282L192.707 183.141Z" fill="#DBDBDB"/>
<path d="M192.375 192.178L177.614 192.037L162.853 191.958L133.324 191.896L103.789 191.958L89.0218 192.037L74.2544 192.178L89.0096 192.313L103.777 192.392L133.3 192.46L162.834 192.392L177.602 192.313L192.375 192.178Z" fill="#DBDBDB"/>
<path d="M192.038 201.209L177.277 201.074L162.515 200.994L132.987 200.927L103.458 200.994L88.6905 201.074L73.917 201.209L88.6783 201.349L103.44 201.429L132.968 201.49L162.503 201.429L177.271 201.349L192.038 201.209Z" fill="#DBDBDB"/>
<path d="M95.5127 28.6663L94.8563 51.6776L94.1078 74.689L92.5985 120.7L90.8929 166.71L90.034 189.715L89.0769 212.714L89.7334 189.703L90.4819 166.698L91.9911 120.681L93.7028 74.6706L94.5618 51.6715L95.5127 28.6663Z" fill="#97C233"/>
<path d="M206.333 28.6663L205.867 45.2386L205.327 61.811L204.247 94.9557L203.014 128.088L202.394 144.66L201.701 161.227L202.167 144.648L202.707 128.082L203.787 94.9373L205.026 61.8048L205.646 45.2325L206.333 28.6663Z" fill="#A6A6A6"/>
<path d="M208.069 28.6663L207.425 50.2073L206.713 71.736L205.284 114.806L203.701 157.869L202.909 179.398L202.044 200.927L202.682 179.392L203.394 157.857L204.824 114.787L206.407 71.7299L207.204 50.195L208.069 28.6663Z" fill="#A6A6A6"/>
<path d="M209.799 28.6663L209.247 47.6157L208.628 66.5529L207.382 104.44L205.977 142.32L205.278 161.257L204.499 180.195L205.051 161.251L205.67 142.308L206.922 104.421L208.321 66.5468L209.026 47.6035L209.799 28.6663Z" fill="#A6A6A6"/>
<path d="M211.529 28.6663L211.033 46.2189L210.456 63.7715L209.309 98.8706L208.002 133.964L207.351 151.51L206.621 169.05L207.124 151.498L207.695 133.951L208.848 98.8522L210.149 63.7592L210.806 46.2127L211.529 28.6663Z" fill="#A6A6A6"/>
<path d="M219.088 218.731C220.241 219.117 253.218 219.019 254.476 218.222C254.948 217.922 255.218 213.125 255.371 207.317C255.408 206.061 255.433 204.775 255.451 203.451C255.476 201.895 255.494 200.314 255.506 198.783C255.549 191.903 255.451 185.85 255.451 185.85H233.984L233.996 198.783V203.451L234.113 207.317C234.113 207.317 221.505 212.996 220.223 214.02C218.947 215.037 217.934 218.351 219.088 218.731Z" fill="#E37E4C"/>
<path d="M219.088 218.731C220.241 219.117 253.218 219.019 254.476 218.222C254.948 217.922 255.218 213.125 255.371 207.317C255.408 206.061 255.433 204.774 255.451 203.451C255.476 201.895 255.494 200.314 255.506 198.783H233.99V203.451L234.107 207.317C234.107 207.317 221.499 212.996 220.217 214.019C218.941 215.036 217.928 218.351 219.082 218.731H219.088Z" fill="white"/>
<path d="M218.99 218.78C219.744 219.025 233.788 219.08 244.015 218.866C246.383 218.817 248.543 218.749 250.291 218.676C252.696 218.566 254.31 218.437 254.574 218.265C255.157 217.892 255.433 210.846 255.562 203.415H233.984L234.095 207.299C234.095 207.299 221.413 213.009 220.125 214.038C218.842 215.067 217.83 218.394 218.984 218.78H218.99Z" fill="#97C233"/>
<path d="M219.462 217.45C225.021 217.297 247.457 217.205 252.96 217.481C253.003 217.481 253.003 217.512 252.96 217.518C247.457 217.787 225.021 217.695 219.462 217.548C219.346 217.548 219.346 217.463 219.462 217.456V217.45Z" fill="#111111"/>
<path d="M233.309 206.067C235.493 205.651 238.175 205.981 239.849 207.531C239.917 207.593 239.825 207.685 239.757 207.66C237.598 206.986 235.579 206.557 233.322 206.343C233.162 206.331 233.156 206.098 233.309 206.067Z" fill="#111111"/>
<path d="M231.733 207.023C233.917 206.606 236.598 206.937 238.273 208.487C238.34 208.549 238.248 208.64 238.181 208.616C236.021 207.942 234.003 207.513 231.745 207.299C231.585 207.286 231.579 207.054 231.733 207.023Z" fill="#111111"/>
<path d="M230.156 207.979C232.34 207.562 235.021 207.893 236.696 209.443C236.763 209.504 236.671 209.596 236.604 209.571C234.444 208.898 232.426 208.469 230.168 208.254C230.008 208.242 230.002 208.009 230.156 207.979Z" fill="#111111"/>
<path d="M228.585 208.934C230.769 208.518 233.45 208.849 235.125 210.399C235.193 210.46 235.107 210.552 235.033 210.527C232.874 209.853 230.855 209.425 228.597 209.21C228.438 209.198 228.432 208.965 228.585 208.934Z" fill="#111111"/>
<path d="M230.248 204.137C231.8 205.332 233.812 205.822 235.622 206.484C235.813 206.551 235.96 206.374 235.966 206.208C236.003 206.202 236.033 206.171 236.015 206.129C235.414 204.303 234.113 202.373 232.634 201.135C231.72 200.37 230.119 199.843 229.26 201.031C228.45 202.152 229.346 203.439 230.248 204.137ZM229.683 202.379C229.291 199.984 231.874 201.233 232.524 201.822C232.941 202.201 233.322 202.636 233.69 203.071C234.45 203.978 235.07 204.971 235.733 205.945C234.862 205.565 233.972 205.265 233.088 204.915C232.039 204.499 229.904 203.702 229.69 202.379H229.683Z" fill="#111111"/>
<path d="M243.304 202.783C242.77 201.423 241.089 201.534 240.009 202.042C238.267 202.869 236.524 204.419 235.487 206.037C235.463 206.08 235.487 206.11 235.518 206.129C235.481 206.294 235.579 206.496 235.782 206.478C237.696 206.288 239.77 206.318 241.573 205.547C242.623 205.093 243.813 204.07 243.31 202.783H243.304ZM238.622 205.596C237.684 205.712 236.739 205.779 235.806 205.933C236.69 205.154 237.536 204.346 238.5 203.66C238.96 203.335 239.438 203.004 239.935 202.741C240.714 202.33 243.524 201.766 242.549 203.984C242.009 205.21 239.745 205.455 238.622 205.589V205.596Z" fill="#111111"/>
<path d="M262.617 94.4902C262.617 94.4902 256.813 151.798 256.678 152.521C256.66 152.619 256.617 153.722 256.562 155.517C256.249 165.381 255.476 196.142 255.476 196.142H231.8C231.8 196.142 233.346 159.708 234.23 151.21C235.358 140.366 242.481 94.4902 242.481 94.4902H262.611H262.617Z" fill="#184915"/>
<path d="M253.856 154.543C254.586 142.124 255.672 129.73 257.151 117.379C257.979 110.413 258.979 103.478 259.979 96.5366C259.985 96.4753 260.083 96.4815 260.077 96.5366C258.243 108.888 256.948 121.337 255.832 133.774C254.715 146.192 253.936 158.642 253.427 171.103C253.138 178.161 252.918 185.225 252.691 192.289C252.691 192.454 252.427 192.448 252.427 192.283C252.758 179.699 253.126 167.108 253.862 154.537L253.856 154.543Z" fill="#111111"/>
<path d="M233.297 192.338C233.917 192.258 234.592 192.283 235.217 192.258C235.929 192.234 236.641 192.227 237.352 192.203C238.721 192.148 240.095 192.117 241.469 192.093C244.23 192.05 247.003 192.062 249.764 192.148C250.525 192.172 251.286 192.203 252.046 192.227C252.856 192.258 253.666 192.332 254.476 192.325C254.537 192.325 254.537 192.399 254.476 192.399C253.083 192.399 251.678 192.521 250.286 192.571C248.917 192.62 247.543 192.644 246.175 192.662C243.414 192.699 240.641 192.675 237.88 192.577C237.119 192.546 236.359 192.54 235.598 192.515C235.193 192.503 234.788 192.479 234.383 192.466C234.021 192.454 233.659 192.479 233.303 192.43C233.242 192.423 233.248 192.344 233.303 192.338H233.297Z" fill="#111111"/>
<path d="M262.617 94.4903C262.617 94.4903 256.813 151.798 256.678 152.521C256.66 152.619 256.617 153.722 256.562 155.517L245.402 94.4841H262.617V94.4903Z" fill="#123810"/>
<path d="M280.532 217.708C281.741 217.579 311.742 203.904 312.558 202.661C312.871 202.195 311.128 197.711 308.87 192.362C308.386 191.204 307.932 189.985 307.349 188.809C306.625 187.326 305.883 185.843 305.146 184.428C301.981 178.271 299.072 173.229 299.072 173.229L280.072 181.824L285.563 193.042L287.808 197.643L289.502 201.117C289.502 201.117 280.36 211.483 279.618 212.941C278.875 214.393 279.329 217.83 280.532 217.708Z" fill="#E37E4C"/>
<path d="M280.532 217.708C281.741 217.579 311.742 203.905 312.558 202.661C312.871 202.195 311.128 197.711 308.87 192.362C308.386 191.204 307.932 189.985 307.349 188.809C306.625 187.326 305.883 185.843 305.146 184.428C299.281 187.05 290.821 190.751 285.557 193.042L287.802 197.643L289.495 201.117C289.495 201.117 280.354 211.483 279.612 212.941C278.869 214.393 279.323 217.83 280.526 217.708H280.532Z" fill="white"/>
<path d="M280.458 217.793C281.673 217.665 311.84 203.917 312.662 202.667C313.042 202.091 310.38 195.56 307.429 188.735L287.778 197.625L289.483 201.117C289.483 201.117 280.293 211.538 279.538 213.009C278.796 214.473 279.244 217.928 280.458 217.8V217.793Z" fill="#97C233"/>
<path d="M280.342 216.39C285.342 213.964 305.741 204.633 310.87 202.618C310.913 202.599 310.926 202.63 310.883 202.648C305.981 205.166 285.508 214.326 280.378 216.476C280.268 216.519 280.237 216.445 280.342 216.39Z" fill="#111111"/>
<path d="M288.256 200.314C290.078 199.034 292.649 198.231 294.815 198.954C294.901 198.985 294.858 199.101 294.784 199.107C292.538 199.383 290.526 199.824 288.379 200.559C288.225 200.608 288.127 200.406 288.256 200.314Z" fill="#111111"/>
<path d="M287.213 201.833C289.035 200.553 291.606 199.75 293.772 200.473C293.858 200.504 293.815 200.62 293.741 200.627C291.496 200.902 289.483 201.343 287.336 202.079C287.182 202.128 287.084 201.925 287.213 201.833Z" fill="#111111"/>
<path d="M286.176 203.353C287.998 202.073 290.569 201.27 292.735 201.993C292.821 202.024 292.778 202.14 292.704 202.146C290.459 202.422 288.446 202.863 286.299 203.598C286.146 203.647 286.047 203.445 286.176 203.353Z" fill="#111111"/>
<path d="M285.133 204.872C286.955 203.592 289.526 202.789 291.692 203.512C291.778 203.543 291.735 203.659 291.661 203.665C289.416 203.941 287.403 204.382 285.256 205.117C285.103 205.166 285.004 204.964 285.133 204.872Z" fill="#111111"/>
<path d="M284.667 199.818C286.575 200.271 288.612 199.879 290.532 199.738C290.729 199.726 290.796 199.499 290.729 199.346C290.759 199.328 290.778 199.285 290.741 199.254C289.44 197.839 287.459 196.614 285.593 196.099C284.446 195.781 282.765 195.958 282.477 197.392C282.201 198.746 283.55 199.555 284.661 199.818H284.667ZM283.428 198.452C282.078 196.43 284.949 196.51 285.784 196.773C286.324 196.945 286.851 197.184 287.36 197.429C288.428 197.937 289.403 198.593 290.403 199.205C289.453 199.218 288.52 199.31 287.569 199.359C286.44 199.414 284.164 199.561 283.422 198.452H283.428Z" fill="#111111"/>
<path d="M296.005 193.201C294.956 192.184 293.471 192.975 292.698 193.888C291.453 195.358 290.502 197.49 290.226 199.389C290.22 199.438 290.25 199.457 290.287 199.457C290.324 199.622 290.496 199.769 290.674 199.665C292.342 198.703 294.244 197.876 295.563 196.43C296.336 195.585 296.993 194.163 295.999 193.195L296.005 193.201ZM292.907 197.692C292.097 198.188 291.269 198.636 290.483 199.162C290.968 198.09 291.404 197.006 291.999 195.983C292.281 195.493 292.582 194.996 292.931 194.555C293.471 193.863 295.796 192.184 295.827 194.617C295.839 195.952 293.876 197.11 292.913 197.698L292.907 197.692Z" fill="#111111"/>
<path d="M242.488 94.4902C242.488 94.4902 244.046 102.767 249.831 106.976C249.831 106.976 262.58 149.593 264.237 154.475C267.096 162.893 282.44 191.419 282.44 191.419L306.128 181.267C306.128 181.267 288.06 149.488 286.109 147.038C284.814 145.414 275.084 110.867 275.207 109.978C276.63 99.3914 271.599 94.4351 271.599 94.4351L242.488 94.4841V94.4902Z" fill="#184915"/>
<path d="M261.654 97.4924C262.102 99.1526 263.188 100.611 264.55 101.646C266.084 102.81 267.918 103.294 269.808 103.447C270.127 103.472 270.151 103.956 269.82 103.956C265.961 103.98 262.059 101.517 261.494 97.5169C261.482 97.425 261.629 97.4066 261.654 97.4924Z" fill="#111111"/>
<path d="M246.132 104.36C247.549 104.869 248.844 105.683 250.12 106.474C251.445 107.295 252.666 108.25 253.948 109.139C253.997 109.176 253.954 109.255 253.899 109.225C252.555 108.453 251.163 107.785 249.831 106.988C248.543 106.216 247.205 105.463 246.07 104.47C246.028 104.434 246.07 104.348 246.126 104.366L246.132 104.36Z" fill="#111111"/>
<path d="M245.586 96.3221C245.794 97.2043 246.046 98.0743 246.279 98.9504C246.5 99.7713 246.672 100.617 246.929 101.426C247.181 102.21 247.549 102.927 248.193 103.466C248.531 103.754 248.905 104.005 249.267 104.268C249.463 104.409 249.672 104.544 249.874 104.685C249.844 104.568 249.819 104.452 249.788 104.33C249.715 103.993 249.641 103.662 249.568 103.325C249.408 102.583 249.255 101.836 249.101 101.089C248.807 99.6243 248.531 98.1356 248.156 96.6897C248.144 96.6284 248.23 96.6039 248.248 96.6652C248.684 98.0988 249.156 99.514 249.543 100.96C249.733 101.671 250.457 105.181 250.494 105.432C250.531 105.69 250.568 105.947 250.586 106.21C250.604 106.468 250.672 106.749 250.623 107.007C250.611 107.074 250.531 107.068 250.5 107.025C250.359 106.805 250.316 106.511 250.242 106.265C250.169 106.014 250.095 105.763 250.04 105.506C250.022 105.414 250.003 105.322 249.985 105.224C249.629 105.028 249.285 104.764 248.948 104.544C248.586 104.305 248.212 104.072 247.868 103.809C247.205 103.3 246.776 102.663 246.506 101.879C246.224 101.064 246.107 100.2 245.972 99.3547C245.813 98.3561 245.684 97.3452 245.5 96.3527C245.488 96.2915 245.58 96.2669 245.592 96.3282L245.586 96.3221Z" fill="#111111"/>
<path d="M282.379 186.652C282.912 186.327 288.514 183.724 289.759 183.154C292.275 182.002 300.95 178.455 301.766 178.155C302.036 178.057 302.054 178.204 301.846 178.302C300.563 178.927 295.539 181.224 294.293 181.794C291.778 182.939 282.759 186.64 282.409 186.738C282.348 186.756 282.323 186.683 282.373 186.652H282.379Z" fill="#111111"/>
<path d="M270.065 95.4644C271.12 96.996 271.906 98.7115 272.458 100.488C273.016 102.265 273.323 104.127 273.341 106.002C273.354 106.939 273.28 107.877 273.139 108.802C273.096 109.035 273.071 109.268 273.016 109.494L272.943 109.837C272.918 109.96 272.881 110.07 272.9 110.131C272.955 110.56 273.071 111.026 273.17 111.473C273.599 113.274 274.071 115.069 274.55 116.864C276.483 124.039 278.434 131.207 280.489 138.344L282.035 143.693C282.299 144.581 282.569 145.469 282.851 146.352C282.992 146.787 283.133 147.24 283.299 147.644C283.501 148.049 283.691 148.459 283.918 148.87C285.673 152.135 287.563 155.339 289.397 158.568C289.397 158.568 298.735 174.227 300.655 177.842C300.747 178.008 300.698 178.118 300.526 177.891C298.858 175.722 292.778 165.203 288.986 158.807C287.09 155.609 285.219 152.405 283.428 149.133C283.201 148.729 282.992 148.294 282.783 147.871C282.593 147.418 282.458 146.977 282.305 146.535C282.017 145.647 281.747 144.759 281.477 143.87C280.943 142.088 280.415 140.305 279.906 138.516C277.9 131.354 275.924 124.192 274.114 116.981C273.667 115.18 273.219 113.372 272.814 111.553C272.716 111.093 272.611 110.652 272.556 110.156C272.544 109.978 272.593 109.868 272.611 109.764L272.685 109.427C272.74 109.2 272.771 108.973 272.814 108.747C272.967 107.84 273.047 106.921 273.065 105.996C273.108 102.308 272.028 98.6073 270.065 95.4583V95.4644Z" fill="#111111"/>
<path d="M245.586 39.786C247.175 37.2251 250.469 36.11 253.881 36.1774C257.292 36.2448 261.5 37.1516 262.795 42.3285C263.85 46.5313 263.2 50.9179 264.071 55.6599C264.936 60.4019 272.611 71.007 264.593 78.1995C257.39 84.6569 240.132 82.8251 237.769 72.4712C235.898 64.2677 244.831 54.8573 245.334 51.3897C245.837 47.9282 243.843 42.5858 245.586 39.7799V39.786Z" fill="#111111"/>
<path d="M244.935 44.7117C245.291 47.0888 245.365 49.5455 244.727 51.9594C244.574 52.5598 244.31 53.1602 243.985 53.7055C243.672 54.2508 243.328 54.7715 242.984 55.2923C242.291 56.3277 241.598 57.3508 240.966 58.3984C239.69 60.4937 238.647 62.6993 238.058 65.0274C237.463 67.3493 237.352 69.7693 237.702 72.1526C237.383 70.9885 237.224 69.7816 237.181 68.5685C237.156 67.3555 237.279 66.1363 237.518 64.9294C237.997 62.5155 239.058 60.218 240.34 58.0799C240.991 57.0138 241.702 55.9784 242.402 54.9553C243.107 53.926 243.831 52.9397 244.181 51.8185C244.561 50.6912 244.745 49.4965 244.837 48.308C244.96 47.1133 244.966 45.9125 244.935 44.7056V44.7117Z" fill="#111111"/>
<path d="M263.2 45.9492C263.568 48.3753 263.838 50.8137 264.329 53.1969C264.587 54.3855 264.869 55.5679 265.28 56.7136C265.672 57.8409 266.243 58.9437 266.758 60.0709C267.268 61.1982 267.758 62.3439 268.176 63.5141C268.574 64.6904 268.9 65.8973 269.071 67.1287C269.225 68.3663 269.219 69.6223 268.998 70.8598C268.722 72.0913 268.188 73.2553 267.427 74.2784C268.047 73.1757 268.495 72.0177 268.648 70.8108C268.789 69.61 268.734 68.3969 268.519 67.2084C268.059 64.8374 267.127 62.5645 266.09 60.3405C265.593 59.2194 265.022 58.1166 264.623 56.9096C264.243 55.7211 263.961 54.5142 263.777 53.295C263.39 50.8566 263.261 48.406 263.194 45.9492H263.2Z" fill="#111111"/>
<path d="M252.126 64.2618C249.561 67.7723 233.825 80.6197 224.468 79.2841C219.395 78.5612 216.235 67.9561 215.167 64.2985L216.057 39.0632C219.904 43.2967 228.512 64.5069 229.917 64.5069C234.131 64.5069 240.395 61.5232 249.15 59.8445C253.654 58.9807 254.101 61.56 252.126 64.2618Z" fill="#E37E4C"/>
<path d="M252.457 65.432C249.304 69.978 238.905 77.3421 238.905 77.3421L237.512 74.1624L232.904 63.6492C232.904 63.6492 242.402 60.782 248.647 59.526C249.488 59.3545 250.236 59.2565 250.88 59.2381C254.856 59.0727 255.175 61.5294 252.451 65.4382L252.457 65.432Z" fill="#97C233"/>
<path d="M233.174 63.8206C233.174 63.9002 233.131 63.9676 233.07 63.9983L232.91 63.6429C232.91 63.6429 232.941 63.6307 233.002 63.6184C233.101 63.6307 233.174 63.7226 233.174 63.8206Z" fill="white"/>
<path d="M236.941 63.8206C236.941 63.937 236.843 64.0351 236.726 64.0351C236.61 64.0351 236.512 63.937 236.512 63.8206C236.512 63.7042 236.61 63.6062 236.726 63.6062C236.843 63.6062 236.941 63.7042 236.941 63.8206Z" fill="white"/>
<path d="M240.708 63.8206C240.708 63.937 240.61 64.0351 240.494 64.0351C240.377 64.0351 240.279 63.937 240.279 63.8206C240.279 63.7042 240.377 63.6062 240.494 63.6062C240.61 63.6062 240.708 63.7042 240.708 63.8206Z" fill="white"/>
<path d="M244.475 63.8206C244.475 63.937 244.377 64.0351 244.261 64.0351C244.144 64.0351 244.046 63.937 244.046 63.8206C244.046 63.7042 244.144 63.6062 244.261 63.6062C244.377 63.6062 244.475 63.7042 244.475 63.8206Z" fill="white"/>
<path d="M248.242 63.8206C248.242 63.937 248.144 64.0351 248.027 64.0351C247.911 64.0351 247.813 63.937 247.813 63.8206C247.813 63.7042 247.911 63.6062 248.027 63.6062C248.144 63.6062 248.242 63.7042 248.242 63.8206Z" fill="white"/>
<path d="M252.009 63.8206C252.009 63.937 251.911 64.0351 251.795 64.0351C251.678 64.0351 251.58 63.937 251.58 63.8206C251.58 63.7042 251.678 63.6062 251.795 63.6062C251.911 63.6062 252.009 63.7042 252.009 63.8206Z" fill="white"/>
<path d="M242.592 61.0882C242.592 61.2046 242.494 61.3026 242.377 61.3026C242.254 61.3026 242.162 61.2046 242.162 61.0882C242.162 61.0759 242.162 61.0636 242.168 61.0514C242.297 61.0146 242.42 60.984 242.543 60.9534C242.573 60.9901 242.592 61.033 242.592 61.0882Z" fill="white"/>
<path d="M246.359 61.0882C246.359 61.2046 246.261 61.3026 246.144 61.3026C246.027 61.3026 245.929 61.2046 245.929 61.0882C245.929 60.9718 246.027 60.8738 246.144 60.8738C246.261 60.8738 246.359 60.9718 246.359 61.0882Z" fill="white"/>
<path d="M250.126 61.0882C250.126 61.2046 250.028 61.3026 249.911 61.3026C249.794 61.3026 249.696 61.2046 249.696 61.0882C249.696 60.9718 249.794 60.8738 249.911 60.8738C250.028 60.8738 250.126 60.9718 250.126 61.0882Z" fill="white"/>
<path d="M253.893 61.0882C253.893 61.2046 253.795 61.3026 253.678 61.3026C253.562 61.3026 253.463 61.2046 253.463 61.0882C253.463 60.9718 253.562 60.8738 253.678 60.8738C253.795 60.8738 253.893 60.9718 253.893 61.0882Z" fill="white"/>
<path d="M236.941 69.304C236.941 69.4204 236.843 69.5185 236.726 69.5185C236.61 69.5185 236.512 69.4204 236.512 69.304C236.512 69.1876 236.61 69.0896 236.726 69.0896C236.843 69.0896 236.941 69.1876 236.941 69.304Z" fill="white"/>
<path d="M240.708 69.304C240.708 69.4204 240.61 69.5185 240.494 69.5185C240.377 69.5185 240.279 69.4204 240.279 69.304C240.279 69.1876 240.377 69.0896 240.494 69.0896C240.61 69.0896 240.708 69.1876 240.708 69.304Z" fill="white"/>
<path d="M244.475 69.304C244.475 69.4204 244.377 69.5185 244.261 69.5185C244.144 69.5185 244.046 69.4204 244.046 69.304C244.046 69.1876 244.144 69.0896 244.261 69.0896C244.377 69.0896 244.475 69.1876 244.475 69.304Z" fill="white"/>
<path d="M248.242 69.304C248.242 69.4204 248.144 69.5185 248.027 69.5185C247.911 69.5185 247.813 69.4204 247.813 69.304C247.813 69.1876 247.911 69.0896 248.027 69.0896C248.144 69.0896 248.242 69.1876 248.242 69.304Z" fill="white"/>
<path d="M235.058 66.5653C235.058 66.6817 234.959 66.7797 234.843 66.7797C234.726 66.7797 234.628 66.6817 234.628 66.5653C234.628 66.4489 234.726 66.3508 234.843 66.3508C234.959 66.3508 235.058 66.4489 235.058 66.5653Z" fill="white"/>
<path d="M238.825 66.5653C238.825 66.6817 238.727 66.7797 238.61 66.7797C238.493 66.7797 238.395 66.6817 238.395 66.5653C238.395 66.4489 238.493 66.3508 238.61 66.3508C238.727 66.3508 238.825 66.4489 238.825 66.5653Z" fill="white"/>
<path d="M242.592 66.5653C242.592 66.6817 242.494 66.7797 242.377 66.7797C242.261 66.7797 242.162 66.6817 242.162 66.5653C242.162 66.4489 242.261 66.3508 242.377 66.3508C242.494 66.3508 242.592 66.4489 242.592 66.5653Z" fill="white"/>
<path d="M246.359 66.5653C246.359 66.6817 246.261 66.7797 246.144 66.7797C246.027 66.7797 245.929 66.6817 245.929 66.5653C245.929 66.4489 246.027 66.3508 246.144 66.3508C246.261 66.3508 246.359 66.4489 246.359 66.5653Z" fill="white"/>
<path d="M250.126 66.5653C250.126 66.6817 250.028 66.7797 249.911 66.7797C249.794 66.7797 249.696 66.6817 249.696 66.5653C249.696 66.4489 249.794 66.3508 249.911 66.3508C250.028 66.3508 250.126 66.4489 250.126 66.5653Z" fill="white"/>
<path d="M240.708 74.7811C240.708 74.8975 240.61 74.9955 240.494 74.9955C240.377 74.9955 240.279 74.8975 240.279 74.7811C240.279 74.6647 240.377 74.5667 240.494 74.5667C240.61 74.5667 240.708 74.6647 240.708 74.7811Z" fill="white"/>
<path d="M238.825 72.0426C238.825 72.159 238.727 72.257 238.61 72.257C238.493 72.257 238.395 72.159 238.395 72.0426C238.395 71.9261 238.493 71.8281 238.61 71.8281C238.727 71.8281 238.825 71.9261 238.825 72.0426Z" fill="white"/>
<path d="M242.592 72.0426C242.592 72.159 242.494 72.257 242.377 72.257C242.261 72.257 242.162 72.159 242.162 72.0426C242.162 71.9261 242.261 71.8281 242.377 71.8281C242.494 71.8281 242.592 71.9261 242.592 72.0426Z" fill="white"/>
<path d="M252.457 65.4321C249.304 69.978 238.904 77.3421 238.904 77.3421L237.512 74.1624C241.408 69.7513 247.42 63.0733 250.88 59.232C254.856 59.0666 255.175 61.5233 252.451 65.4321H252.457Z" fill="#111111"/>
<path d="M240.788 75.253C240.027 73.3231 236.622 65.524 235.769 63.882C235.708 63.7656 235.622 63.7779 235.671 63.9004C237.819 69.739 239.868 73.415 240.708 75.2713C240.727 75.3203 240.806 75.2958 240.788 75.2468V75.253Z" fill="#111111"/>
<path d="M206.296 40.4294C205.37 42.2122 208.002 42.2796 208.002 42.2796C208.002 42.2796 204.186 43.0883 203.946 45.3C203.719 47.4259 206.903 47.4014 207.13 47.4014C206.928 47.4443 203.443 48.2836 203.431 50.526C203.419 52.8541 206.609 52.2782 206.811 52.2414C206.634 52.3456 204.321 53.7302 204.695 55.4333C205.339 58.3618 211.364 54.9861 213.677 55.7397L212.861 59.5381C212.861 59.6668 212.848 59.8016 212.848 59.9241L214.775 60.4326C215.364 59.4095 216.309 58.3128 217.204 57.2346C218.278 55.9418 219.272 54.6859 219.487 53.6566C219.836 51.9596 218.456 51.2428 218.456 51.2428C218.456 51.2428 220.432 50.4524 220.505 48.688C220.536 47.7813 219.119 46.9235 219.119 46.9235C219.119 46.9235 220.677 46.2251 220.64 44.6506C220.616 43.3946 219.192 42.7268 219.192 42.7268C219.192 42.7268 220.376 41.3606 219.929 40.0863C219.039 37.5131 208.29 36.6309 206.308 40.4416L206.296 40.4294Z" fill="#E37E4C"/>
<path d="M213.775 56.2605L212.855 59.5321C212.855 59.6607 212.842 59.7955 212.842 59.9181C212.83 64.2618 217.161 67.7662 218.069 64.7825C218.763 62.5157 216.149 59.4463 217.198 57.2224L213.775 56.2605Z" fill="#E37E4C"/>
<path d="M218.972 42.5736C219.008 42.5736 219.021 42.5307 218.99 42.5185C215.524 41.3667 211.37 41.1584 207.867 42.2612C207.75 42.2979 207.762 42.5001 207.897 42.4817C211.726 42.0345 215.155 41.9426 218.978 42.5736H218.972Z" fill="#111111"/>
<path d="M219.162 46.8929C219.205 46.899 219.217 46.8316 219.174 46.8194C215.597 45.6492 210.91 45.545 207.02 47.2911C206.885 47.3524 206.83 47.5362 206.983 47.481C209.658 46.5192 215.726 46.3109 219.162 46.8929Z" fill="#111111"/>
<path d="M206.578 52.4497C210.37 50.9181 214.272 50.7588 218.303 51.1693C218.358 51.1693 218.358 51.1019 218.315 51.0835C216.395 50.3483 213.799 50.3545 211.781 50.526C209.848 50.6914 208.137 51.2367 206.523 52.315C206.462 52.3578 206.499 52.4804 206.578 52.4497Z" fill="#111111"/>
<path d="M213.1 57.5653C213.309 56.9097 213.48 56.2848 213.677 55.6293C213.695 55.568 213.793 55.5987 213.787 55.6599C213.671 56.6157 213.444 57.5347 213.303 58.4843C213.155 59.4523 213.155 60.4632 213.345 61.425C213.511 62.2644 213.83 63.0914 214.303 63.8083C214.787 64.5434 215.493 65.3889 216.413 65.5482C217.382 65.7136 217.99 64.9601 218.07 64.0656C218.149 63.1711 217.695 62.3195 217.376 61.5108C217.045 60.6653 216.714 59.7157 216.658 58.8029C216.603 57.9268 216.947 57.2222 217.419 56.5115C217.732 56.0398 218.057 55.5742 218.376 55.1085C218.646 54.7164 218.959 54.3305 219.125 53.8832C219.45 53.0132 219.205 51.7389 218.346 51.2488C218.272 51.2059 218.34 51.1018 218.407 51.1508C219.119 51.6532 219.591 52.1862 219.8 53.05C220.021 53.9384 219.56 54.7409 219.076 55.4455C218.751 55.9172 218.419 56.3829 218.094 56.8546C217.751 57.3447 217.389 57.8594 217.364 58.4781C217.309 59.6177 217.861 60.794 218.266 61.8355C218.609 62.7177 218.904 63.6612 218.646 64.6047C218.432 65.395 217.861 66.0628 217.02 66.1792C215.069 66.4611 213.628 64.1881 213.094 62.6136C212.726 61.5353 212.603 60.3774 212.744 59.244C212.812 58.6742 212.941 58.1106 213.112 57.5653H213.1Z" fill="#111111"/>
<path d="M210.394 55.9602C210.812 55.7396 211.296 55.6293 211.756 55.5313C212.223 55.4333 212.714 55.4027 213.192 55.4149C213.634 55.4272 214.088 55.5068 214.499 55.6845C214.892 55.856 215.192 56.1317 215.45 56.4687C215.487 56.5116 215.431 56.579 215.382 56.5545C215.027 56.3952 214.646 56.2971 214.278 56.1869C213.885 56.0705 213.487 55.9786 213.076 55.9295C212.634 55.8805 212.204 55.8989 211.763 55.9295C211.315 55.9602 210.873 56.0521 210.425 56.0582C210.364 56.0582 210.345 55.9908 210.401 55.9602H210.394Z" fill="#111111"/>
<path d="M218.561 51.0956C218.628 51.0588 218.702 51.0282 218.763 50.9914C218.898 50.9118 219.033 50.8199 219.156 50.7218C219.284 50.6177 219.413 50.5135 219.536 50.3971C219.597 50.3359 219.665 50.2807 219.732 50.2317C219.763 50.2072 219.806 50.1827 219.837 50.1521C219.873 50.1153 219.904 50.0724 219.935 50.0295C219.984 49.9744 220.07 50.0479 220.027 50.1031C219.99 50.1398 219.953 50.1827 219.929 50.2256C219.904 50.2623 219.886 50.3114 219.861 50.3481C219.818 50.4278 219.769 50.5074 219.714 50.5809C219.597 50.7341 219.481 50.875 219.334 50.9975C219.192 51.1078 219.045 51.1936 218.873 51.2487C218.788 51.2732 218.708 51.2916 218.622 51.2916C218.554 51.2916 218.456 51.2916 218.401 51.2487C218.389 51.2365 218.383 51.212 218.401 51.1997C218.444 51.1507 218.518 51.1323 218.573 51.1017L218.561 51.0956Z" fill="#111111"/>
<path d="M242.948 82.0716L241.469 97.437C241.469 97.437 267.439 96.5426 273.599 95.8074C273.599 95.8074 266.12 67.5762 259.12 60.6961C255.617 57.2529 251.727 57.7124 249.365 60.353C248.764 61.0208 241.739 71.3011 241.132 75.1241C240.604 78.4998 242.948 82.0716 242.948 82.0716Z" fill="#97C233"/>
<path d="M255.678 58.5211C255.647 58.5456 255.604 58.5578 255.562 58.5578C255.476 58.5578 255.402 58.5088 255.371 58.4353C255.47 58.4598 255.574 58.4904 255.678 58.5211Z" fill="white"/>
<path d="M248.242 63.8206C248.242 63.937 248.144 64.0351 248.028 64.0351C247.911 64.0351 247.813 63.937 247.813 63.8206C247.813 63.7042 247.911 63.6062 248.028 63.6062C248.144 63.6062 248.242 63.7042 248.242 63.8206Z" fill="white"/>
<path d="M252.009 63.8206C252.009 63.937 251.911 64.0351 251.795 64.0351C251.678 64.0351 251.58 63.937 251.58 63.8206C251.58 63.7042 251.678 63.6062 251.795 63.6062C251.911 63.6062 252.009 63.7042 252.009 63.8206Z" fill="white"/>
<path d="M255.776 63.8206C255.776 63.937 255.678 64.0351 255.562 64.0351C255.445 64.0351 255.347 63.937 255.347 63.8206C255.347 63.7042 255.445 63.6062 255.562 63.6062C255.678 63.6062 255.776 63.7042 255.776 63.8206Z" fill="white"/>
<path d="M259.543 63.8206C259.543 63.937 259.445 64.0351 259.329 64.0351C259.212 64.0351 259.114 63.937 259.114 63.8206C259.114 63.7042 259.212 63.6062 259.329 63.6062C259.445 63.6062 259.543 63.7042 259.543 63.8206Z" fill="white"/>
<path d="M250.126 61.0882C250.126 61.2046 250.028 61.3026 249.911 61.3026C249.794 61.3026 249.696 61.2046 249.696 61.0882C249.696 60.9718 249.794 60.8738 249.911 60.8738C250.028 60.8738 250.126 60.9718 250.126 61.0882Z" fill="white"/>
<path d="M253.893 61.0882C253.893 61.2046 253.795 61.3026 253.678 61.3026C253.562 61.3026 253.463 61.2046 253.463 61.0882C253.463 60.9718 253.562 60.8738 253.678 60.8738C253.795 60.8738 253.893 60.9718 253.893 61.0882Z" fill="white"/>
<path d="M257.66 61.0882C257.66 61.2046 257.562 61.3026 257.445 61.3026C257.329 61.3026 257.23 61.2046 257.23 61.0882C257.23 60.9718 257.329 60.8738 257.445 60.8738C257.562 60.8738 257.66 60.9718 257.66 61.0882Z" fill="white"/>
<path d="M244.475 69.3038C244.475 69.4202 244.377 69.5182 244.261 69.5182C244.144 69.5182 244.046 69.4202 244.046 69.3038C244.046 69.1874 244.144 69.0894 244.261 69.0894C244.377 69.0894 244.475 69.1874 244.475 69.3038Z" fill="white"/>
<path d="M248.242 69.3038C248.242 69.4202 248.144 69.5182 248.028 69.5182C247.911 69.5182 247.813 69.4202 247.813 69.3038C247.813 69.1874 247.911 69.0894 248.028 69.0894C248.144 69.0894 248.242 69.1874 248.242 69.3038Z" fill="white"/>
<path d="M252.009 69.3038C252.009 69.4202 251.911 69.5182 251.795 69.5182C251.678 69.5182 251.58 69.4202 251.58 69.3038C251.58 69.1874 251.678 69.0894 251.795 69.0894C251.911 69.0894 252.009 69.1874 252.009 69.3038Z" fill="white"/>
<path d="M255.776 69.3038C255.776 69.4202 255.678 69.5182 255.562 69.5182C255.445 69.5182 255.347 69.4202 255.347 69.3038C255.347 69.1874 255.445 69.0894 255.562 69.0894C255.678 69.0894 255.776 69.1874 255.776 69.3038Z" fill="white"/>
<path d="M259.543 69.3038C259.543 69.4202 259.445 69.5182 259.329 69.5182C259.212 69.5182 259.114 69.4202 259.114 69.3038C259.114 69.1874 259.212 69.0894 259.329 69.0894C259.445 69.0894 259.543 69.1874 259.543 69.3038Z" fill="white"/>
<path d="M263.316 69.3038C263.316 69.4202 263.218 69.5182 263.102 69.5182C262.985 69.5182 262.887 69.4202 262.887 69.3038C262.887 69.1874 262.985 69.0894 263.102 69.0894C263.218 69.0894 263.316 69.1874 263.316 69.3038Z" fill="white"/>
<path d="M246.359 66.5653C246.359 66.6817 246.261 66.7797 246.144 66.7797C246.028 66.7797 245.929 66.6817 245.929 66.5653C245.929 66.4489 246.028 66.3508 246.144 66.3508C246.261 66.3508 246.359 66.4489 246.359 66.5653Z" fill="white"/>
<path d="M250.126 66.5653C250.126 66.6817 250.028 66.7797 249.911 66.7797C249.794 66.7797 249.696 66.6817 249.696 66.5653C249.696 66.4489 249.794 66.3508 249.911 66.3508C250.028 66.3508 250.126 66.4489 250.126 66.5653Z" fill="white"/>
<path d="M253.893 66.5653C253.893 66.6817 253.795 66.7797 253.678 66.7797C253.562 66.7797 253.463 66.6817 253.463 66.5653C253.463 66.4489 253.562 66.3508 253.678 66.3508C253.795 66.3508 253.893 66.4489 253.893 66.5653Z" fill="white"/>
<path d="M257.66 66.5653C257.66 66.6817 257.562 66.7797 257.445 66.7797C257.329 66.7797 257.23 66.6817 257.23 66.5653C257.23 66.4489 257.329 66.3508 257.445 66.3508C257.562 66.3508 257.66 66.4489 257.66 66.5653Z" fill="white"/>
<path d="M261.427 66.5653C261.427 66.6817 261.329 66.7797 261.212 66.7797C261.095 66.7797 260.997 66.6817 260.997 66.5653C260.997 66.4489 261.095 66.3508 261.212 66.3508C261.329 66.3508 261.427 66.4489 261.427 66.5653Z" fill="white"/>
<path d="M244.475 74.7811C244.475 74.8975 244.377 74.9955 244.261 74.9955C244.144 74.9955 244.046 74.8975 244.046 74.7811C244.046 74.6647 244.144 74.5667 244.261 74.5667C244.377 74.5667 244.475 74.6647 244.475 74.7811Z" fill="white"/>
<path d="M248.242 74.7811C248.242 74.8975 248.144 74.9955 248.028 74.9955C247.911 74.9955 247.813 74.8975 247.813 74.7811C247.813 74.6647 247.911 74.5667 248.028 74.5667C248.144 74.5667 248.242 74.6647 248.242 74.7811Z" fill="white"/>
<path d="M252.009 74.7811C252.009 74.8975 251.911 74.9955 251.795 74.9955C251.678 74.9955 251.58 74.8975 251.58 74.7811C251.58 74.6647 251.678 74.5667 251.795 74.5667C251.911 74.5667 252.009 74.6647 252.009 74.7811Z" fill="white"/>
<path d="M255.776 74.7811C255.776 74.8975 255.678 74.9955 255.562 74.9955C255.445 74.9955 255.347 74.8975 255.347 74.7811C255.347 74.6647 255.445 74.5667 255.562 74.5667C255.678 74.5667 255.776 74.6647 255.776 74.7811Z" fill="white"/>
<path d="M259.543 74.7811C259.543 74.8975 259.445 74.9955 259.329 74.9955C259.212 74.9955 259.114 74.8975 259.114 74.7811C259.114 74.6647 259.212 74.5667 259.329 74.5667C259.445 74.5667 259.543 74.6647 259.543 74.7811Z" fill="white"/>
<path d="M263.316 74.7811C263.316 74.8975 263.218 74.9955 263.102 74.9955C262.985 74.9955 262.887 74.8975 262.887 74.7811C262.887 74.6647 262.985 74.5667 263.102 74.5667C263.218 74.5667 263.316 74.6647 263.316 74.7811Z" fill="white"/>
<path d="M266.844 74.9894C266.734 74.9832 266.648 74.8913 266.648 74.7811C266.648 74.7259 266.672 74.6708 266.703 74.634C266.752 74.7566 266.795 74.873 266.844 74.9894Z" fill="white"/>
<path d="M242.592 72.0423C242.592 72.1648 242.494 72.2629 242.377 72.2629C242.285 72.2629 242.211 72.2077 242.181 72.1342C242.23 72.0301 242.273 71.9382 242.316 71.8401C242.334 71.834 242.352 71.8279 242.377 71.8279C242.494 71.8279 242.592 71.9259 242.592 72.0423Z" fill="white"/>
<path d="M246.359 72.0423C246.359 72.1587 246.261 72.2567 246.144 72.2567C246.028 72.2567 245.929 72.1587 245.929 72.0423C245.929 71.9259 246.028 71.8279 246.144 71.8279C246.261 71.8279 246.359 71.9259 246.359 72.0423Z" fill="white"/>
<path d="M250.126 72.0423C250.126 72.1587 250.028 72.2567 249.911 72.2567C249.794 72.2567 249.696 72.1587 249.696 72.0423C249.696 71.9259 249.794 71.8279 249.911 71.8279C250.028 71.8279 250.126 71.9259 250.126 72.0423Z" fill="white"/>
<path d="M253.893 72.0423C253.893 72.1587 253.795 72.2567 253.678 72.2567C253.562 72.2567 253.463 72.1587 253.463 72.0423C253.463 71.9259 253.562 71.8279 253.678 71.8279C253.795 71.8279 253.893 71.9259 253.893 72.0423Z" fill="white"/>
<path d="M257.66 72.0423C257.66 72.1587 257.562 72.2567 257.445 72.2567C257.329 72.2567 257.23 72.1587 257.23 72.0423C257.23 71.9259 257.329 71.8279 257.445 71.8279C257.562 71.8279 257.66 71.9259 257.66 72.0423Z" fill="white"/>
<path d="M261.427 72.0423C261.427 72.1587 261.329 72.2567 261.212 72.2567C261.095 72.2567 260.997 72.1587 260.997 72.0423C260.997 71.9259 261.095 71.8279 261.212 71.8279C261.329 71.8279 261.427 71.9259 261.427 72.0423Z" fill="white"/>
<path d="M265.2 72.0423C265.2 72.1587 265.102 72.2567 264.985 72.2567C264.869 72.2567 264.771 72.1587 264.771 72.0423C264.771 71.9259 264.869 71.8279 264.985 71.8279C265.102 71.8279 265.2 71.9259 265.2 72.0423Z" fill="white"/>
<path d="M244.475 80.2581C244.475 80.3745 244.377 80.4726 244.261 80.4726C244.144 80.4726 244.046 80.3745 244.046 80.2581C244.046 80.1417 244.144 80.0437 244.261 80.0437C244.377 80.0437 244.475 80.1417 244.475 80.2581Z" fill="white"/>
<path d="M248.242 80.2581C248.242 80.3745 248.144 80.4726 248.028 80.4726C247.911 80.4726 247.813 80.3745 247.813 80.2581C247.813 80.1417 247.911 80.0437 248.028 80.0437C248.144 80.0437 248.242 80.1417 248.242 80.2581Z" fill="white"/>
<path d="M252.009 80.2581C252.009 80.3745 251.911 80.4726 251.795 80.4726C251.678 80.4726 251.58 80.3745 251.58 80.2581C251.58 80.1417 251.678 80.0437 251.795 80.0437C251.911 80.0437 252.009 80.1417 252.009 80.2581Z" fill="white"/>
<path d="M255.776 80.2581C255.776 80.3745 255.678 80.4726 255.562 80.4726C255.445 80.4726 255.347 80.3745 255.347 80.2581C255.347 80.1417 255.445 80.0437 255.562 80.0437C255.678 80.0437 255.776 80.1417 255.776 80.2581Z" fill="white"/>
<path d="M259.543 80.2581C259.543 80.3745 259.445 80.4726 259.329 80.4726C259.212 80.4726 259.114 80.3745 259.114 80.2581C259.114 80.1417 259.212 80.0437 259.329 80.0437C259.445 80.0437 259.543 80.1417 259.543 80.2581Z" fill="white"/>
<path d="M263.316 80.2581C263.316 80.3745 263.218 80.4726 263.102 80.4726C262.985 80.4726 262.887 80.3745 262.887 80.2581C262.887 80.1417 262.985 80.0437 263.102 80.0437C263.218 80.0437 263.316 80.1417 263.316 80.2581Z" fill="white"/>
<path d="M267.084 80.2581C267.084 80.3745 266.985 80.4726 266.869 80.4726C266.752 80.4726 266.654 80.3745 266.654 80.2581C266.654 80.1417 266.752 80.0437 266.869 80.0437C266.985 80.0437 267.084 80.1417 267.084 80.2581Z" fill="white"/>
<path d="M242.592 77.5257C242.592 77.6421 242.494 77.7401 242.377 77.7401C242.261 77.7401 242.162 77.6421 242.162 77.5257C242.162 77.4093 242.261 77.3113 242.377 77.3113C242.494 77.3113 242.592 77.4093 242.592 77.5257Z" fill="white"/>
<path d="M246.359 77.5257C246.359 77.6421 246.261 77.7401 246.144 77.7401C246.028 77.7401 245.929 77.6421 245.929 77.5257C245.929 77.4093 246.028 77.3113 246.144 77.3113C246.261 77.3113 246.359 77.4093 246.359 77.5257Z" fill="white"/>
<path d="M250.126 77.5257C250.126 77.6421 250.028 77.7401 249.911 77.7401C249.794 77.7401 249.696 77.6421 249.696 77.5257C249.696 77.4093 249.794 77.3113 249.911 77.3113C250.028 77.3113 250.126 77.4093 250.126 77.5257Z" fill="white"/>
<path d="M253.893 77.5257C253.893 77.6421 253.795 77.7401 253.678 77.7401C253.562 77.7401 253.463 77.6421 253.463 77.5257C253.463 77.4093 253.562 77.3113 253.678 77.3113C253.795 77.3113 253.893 77.4093 253.893 77.5257Z" fill="white"/>
<path d="M257.66 77.5257C257.66 77.6421 257.562 77.7401 257.445 77.7401C257.329 77.7401 257.23 77.6421 257.23 77.5257C257.23 77.4093 257.329 77.3113 257.445 77.3113C257.562 77.3113 257.66 77.4093 257.66 77.5257Z" fill="white"/>
<path d="M261.427 77.5257C261.427 77.6421 261.329 77.7401 261.212 77.7401C261.095 77.7401 260.997 77.6421 260.997 77.5257C260.997 77.4093 261.095 77.3113 261.212 77.3113C261.329 77.3113 261.427 77.4093 261.427 77.5257Z" fill="white"/>
<path d="M265.2 77.5257C265.2 77.6421 265.102 77.7401 264.985 77.7401C264.869 77.7401 264.771 77.6421 264.771 77.5257C264.771 77.4093 264.869 77.3113 264.985 77.3113C265.102 77.3113 265.2 77.4093 265.2 77.5257Z" fill="white"/>
<path d="M244.475 85.7413C244.475 85.8577 244.377 85.9557 244.261 85.9557C244.144 85.9557 244.046 85.8577 244.046 85.7413C244.046 85.6249 244.144 85.5269 244.261 85.5269C244.377 85.5269 244.475 85.6249 244.475 85.7413Z" fill="white"/>
<path d="M248.242 85.7413C248.242 85.8577 248.144 85.9557 248.028 85.9557C247.911 85.9557 247.813 85.8577 247.813 85.7413C247.813 85.6249 247.911 85.5269 248.028 85.5269C248.144 85.5269 248.242 85.6249 248.242 85.7413Z" fill="white"/>
<path d="M252.009 85.7413C252.009 85.8577 251.911 85.9557 251.795 85.9557C251.678 85.9557 251.58 85.8577 251.58 85.7413C251.58 85.6249 251.678 85.5269 251.795 85.5269C251.911 85.5269 252.009 85.6249 252.009 85.7413Z" fill="white"/>
<path d="M255.776 85.7413C255.776 85.8577 255.678 85.9557 255.562 85.9557C255.445 85.9557 255.347 85.8577 255.347 85.7413C255.347 85.6249 255.445 85.5269 255.562 85.5269C255.678 85.5269 255.776 85.6249 255.776 85.7413Z" fill="white"/>
<path d="M259.543 85.7413C259.543 85.8577 259.445 85.9557 259.329 85.9557C259.212 85.9557 259.114 85.8577 259.114 85.7413C259.114 85.6249 259.212 85.5269 259.329 85.5269C259.445 85.5269 259.543 85.6249 259.543 85.7413Z" fill="white"/>
<path d="M263.316 85.7413C263.316 85.8577 263.218 85.9557 263.102 85.9557C262.985 85.9557 262.887 85.8577 262.887 85.7413C262.887 85.6249 262.985 85.5269 263.102 85.5269C263.218 85.5269 263.316 85.6249 263.316 85.7413Z" fill="white"/>
<path d="M267.084 85.7413C267.084 85.8577 266.985 85.9557 266.869 85.9557C266.752 85.9557 266.654 85.8577 266.654 85.7413C266.654 85.6249 266.752 85.5269 266.869 85.5269C266.985 85.5269 267.084 85.6249 267.084 85.7413Z" fill="white"/>
<path d="M270.679 85.9437C270.679 85.9437 270.648 85.9559 270.63 85.9559C270.513 85.9559 270.415 85.8579 270.415 85.7415C270.415 85.6496 270.47 85.5761 270.55 85.5454C270.55 85.5393 270.556 85.5454 270.556 85.5454C270.599 85.6802 270.642 85.8089 270.679 85.9437Z" fill="white"/>
<path d="M246.359 83.0028C246.359 83.1192 246.261 83.2172 246.144 83.2172C246.028 83.2172 245.929 83.1192 245.929 83.0028C245.929 82.8863 246.028 82.7883 246.144 82.7883C246.261 82.7883 246.359 82.8863 246.359 83.0028Z" fill="white"/>
<path d="M250.126 83.0028C250.126 83.1192 250.028 83.2172 249.911 83.2172C249.794 83.2172 249.696 83.1192 249.696 83.0028C249.696 82.8863 249.794 82.7883 249.911 82.7883C250.028 82.7883 250.126 82.8863 250.126 83.0028Z" fill="white"/>
<path d="M253.893 83.0028C253.893 83.1192 253.795 83.2172 253.678 83.2172C253.562 83.2172 253.463 83.1192 253.463 83.0028C253.463 82.8863 253.562 82.7883 253.678 82.7883C253.795 82.7883 253.893 82.8863 253.893 83.0028Z" fill="white"/>
<path d="M257.66 83.0028C257.66 83.1192 257.562 83.2172 257.445 83.2172C257.329 83.2172 257.23 83.1192 257.23 83.0028C257.23 82.8863 257.329 82.7883 257.445 82.7883C257.562 82.7883 257.66 82.8863 257.66 83.0028Z" fill="white"/>
<path d="M261.427 83.0028C261.427 83.1192 261.329 83.2172 261.212 83.2172C261.095 83.2172 260.997 83.1192 260.997 83.0028C260.997 82.8863 261.095 82.7883 261.212 82.7883C261.329 82.7883 261.427 82.8863 261.427 83.0028Z" fill="white"/>
<path d="M265.2 83.0028C265.2 83.1192 265.102 83.2172 264.985 83.2172C264.869 83.2172 264.771 83.1192 264.771 83.0028C264.771 82.8863 264.869 82.7883 264.985 82.7883C265.102 82.7883 265.2 82.8863 265.2 83.0028Z" fill="white"/>
<path d="M268.967 83.0028C268.967 83.1192 268.869 83.2172 268.752 83.2172C268.636 83.2172 268.538 83.1192 268.538 83.0028C268.538 82.8863 268.636 82.7883 268.752 82.7883C268.869 82.7883 268.967 82.8863 268.967 83.0028Z" fill="white"/>
<path d="M244.261 91.433C244.379 91.433 244.475 91.337 244.475 91.2186C244.475 91.1002 244.379 91.0042 244.261 91.0042C244.142 91.0042 244.046 91.1002 244.046 91.2186C244.046 91.337 244.142 91.433 244.261 91.433Z" fill="white"/>
<path d="M248.028 91.433C248.146 91.433 248.242 91.337 248.242 91.2186C248.242 91.1002 248.146 91.0042 248.028 91.0042C247.909 91.0042 247.813 91.1002 247.813 91.2186C247.813 91.337 247.909 91.433 248.028 91.433Z" fill="white"/>
<path d="M252.009 91.2186C252.009 91.335 251.911 91.433 251.795 91.433C251.678 91.433 251.58 91.335 251.58 91.2186C251.58 91.1022 251.678 91.0042 251.795 91.0042C251.911 91.0042 252.009 91.1022 252.009 91.2186Z" fill="white"/>
<path d="M255.776 91.2186C255.776 91.335 255.678 91.433 255.562 91.433C255.445 91.433 255.347 91.335 255.347 91.2186C255.347 91.1022 255.445 91.0042 255.562 91.0042C255.678 91.0042 255.776 91.1022 255.776 91.2186Z" fill="white"/>
<path d="M259.543 91.2186C259.543 91.335 259.445 91.433 259.329 91.433C259.212 91.433 259.114 91.335 259.114 91.2186C259.114 91.1022 259.212 91.0042 259.329 91.0042C259.445 91.0042 259.543 91.1022 259.543 91.2186Z" fill="white"/>
<path d="M263.316 91.2186C263.316 91.335 263.218 91.433 263.102 91.433C262.985 91.433 262.887 91.335 262.887 91.2186C262.887 91.1022 262.985 91.0042 263.102 91.0042C263.218 91.0042 263.316 91.1022 263.316 91.2186Z" fill="white"/>
<path d="M266.869 91.433C266.987 91.433 267.084 91.337 267.084 91.2186C267.084 91.1002 266.987 91.0042 266.869 91.0042C266.75 91.0042 266.654 91.1002 266.654 91.2186C266.654 91.337 266.75 91.433 266.869 91.433Z" fill="white"/>
<path d="M270.851 91.2186C270.851 91.335 270.752 91.433 270.636 91.433C270.519 91.433 270.421 91.335 270.421 91.2186C270.421 91.1022 270.519 91.0042 270.636 91.0042C270.752 91.0042 270.851 91.1022 270.851 91.2186Z" fill="white"/>
<path d="M242.592 88.4862C242.592 88.6026 242.494 88.7006 242.377 88.7006C242.353 88.7006 242.328 88.6945 242.31 88.6884L242.353 88.2717C242.353 88.2717 242.371 88.2656 242.377 88.2656C242.494 88.2656 242.592 88.3636 242.592 88.4862Z" fill="white"/>
<path d="M246.359 88.4862C246.359 88.6026 246.261 88.7006 246.144 88.7006C246.028 88.7006 245.929 88.6026 245.929 88.4862C245.929 88.3697 246.028 88.2717 246.144 88.2717C246.261 88.2717 246.359 88.3697 246.359 88.4862Z" fill="white"/>
<path d="M250.126 88.4862C250.126 88.6026 250.028 88.7006 249.911 88.7006C249.794 88.7006 249.696 88.6026 249.696 88.4862C249.696 88.3697 249.794 88.2717 249.911 88.2717C250.028 88.2717 250.126 88.3697 250.126 88.4862Z" fill="white"/>
<path d="M253.678 88.7006C253.797 88.7006 253.893 88.6046 253.893 88.4862C253.893 88.3677 253.797 88.2717 253.678 88.2717C253.56 88.2717 253.463 88.3677 253.463 88.4862C253.463 88.6046 253.56 88.7006 253.678 88.7006Z" fill="white"/>
<path d="M257.445 88.7006C257.564 88.7006 257.66 88.6046 257.66 88.4862C257.66 88.3677 257.564 88.2717 257.445 88.2717C257.327 88.2717 257.23 88.3677 257.23 88.4862C257.23 88.6046 257.327 88.7006 257.445 88.7006Z" fill="white"/>
<path d="M261.427 88.4862C261.427 88.6026 261.329 88.7006 261.212 88.7006C261.095 88.7006 260.997 88.6026 260.997 88.4862C260.997 88.3697 261.095 88.2717 261.212 88.2717C261.329 88.2717 261.427 88.3697 261.427 88.4862Z" fill="white"/>
<path d="M265.2 88.4862C265.2 88.6026 265.102 88.7006 264.985 88.7006C264.869 88.7006 264.771 88.6026 264.771 88.4862C264.771 88.3697 264.869 88.2717 264.985 88.2717C265.102 88.2717 265.2 88.3697 265.2 88.4862Z" fill="white"/>
<path d="M268.967 88.4862C268.967 88.6026 268.869 88.7006 268.752 88.7006C268.636 88.7006 268.538 88.6026 268.538 88.4862C268.538 88.3697 268.636 88.2717 268.752 88.2717C268.869 88.2717 268.967 88.3697 268.967 88.4862Z" fill="white"/>
<path d="M244.261 96.9101C244.379 96.9101 244.475 96.8141 244.475 96.6956C244.475 96.5772 244.379 96.4812 244.261 96.4812C244.142 96.4812 244.046 96.5772 244.046 96.6956C244.046 96.8141 244.142 96.9101 244.261 96.9101Z" fill="white"/>
<path d="M248.028 96.9101C248.146 96.9101 248.242 96.8141 248.242 96.6956C248.242 96.5772 248.146 96.4812 248.028 96.4812C247.909 96.4812 247.813 96.5772 247.813 96.6956C247.813 96.8141 247.909 96.9101 248.028 96.9101Z" fill="white"/>
<path d="M252.009 96.6956C252.009 96.812 251.911 96.9101 251.795 96.9101C251.678 96.9101 251.58 96.812 251.58 96.6956C251.58 96.5792 251.678 96.4812 251.795 96.4812C251.911 96.4812 252.009 96.5792 252.009 96.6956Z" fill="white"/>
<path d="M255.776 96.6957C255.776 96.7753 255.74 96.8427 255.678 96.8795C255.605 96.8795 255.537 96.8795 255.463 96.8795C255.396 96.8488 255.347 96.7753 255.347 96.6895C255.347 96.5731 255.445 96.4751 255.562 96.4751C255.684 96.4751 255.776 96.5731 255.776 96.6895V96.6957Z" fill="white"/>
<path d="M259.543 96.6956C259.402 96.7079 259.261 96.714 259.12 96.7263C259.114 96.7201 259.114 96.7079 259.114 96.6956C259.114 96.5792 259.212 96.4812 259.329 96.4812C259.451 96.4812 259.543 96.5792 259.543 96.6956Z" fill="white"/>
<path d="M263.218 96.5241C263.126 96.5302 263.047 96.5302 262.955 96.5363C262.991 96.4996 263.04 96.4812 263.096 96.4812C263.145 96.4812 263.188 96.4935 263.218 96.5241Z" fill="white"/>
<path d="M242.592 93.9632C242.592 94.0796 242.494 94.1776 242.377 94.1776C242.261 94.1776 242.162 94.0796 242.162 93.9632C242.162 93.8468 242.261 93.7488 242.377 93.7488C242.494 93.7488 242.592 93.8468 242.592 93.9632Z" fill="white"/>
<path d="M246.359 93.9632C246.359 94.0796 246.261 94.1776 246.144 94.1776C246.028 94.1776 245.929 94.0796 245.929 93.9632C245.929 93.8468 246.028 93.7488 246.144 93.7488C246.261 93.7488 246.359 93.8468 246.359 93.9632Z" fill="white"/>
<path d="M250.126 93.9632C250.126 94.0796 250.028 94.1776 249.911 94.1776C249.794 94.1776 249.696 94.0796 249.696 93.9632C249.696 93.8468 249.794 93.7488 249.911 93.7488C250.028 93.7488 250.126 93.8468 250.126 93.9632Z" fill="white"/>
<path d="M253.678 94.1776C253.797 94.1776 253.893 94.0816 253.893 93.9632C253.893 93.8448 253.797 93.7488 253.678 93.7488C253.56 93.7488 253.463 93.8448 253.463 93.9632C253.463 94.0816 253.56 94.1776 253.678 94.1776Z" fill="white"/>
<path d="M257.445 94.1776C257.564 94.1776 257.66 94.0816 257.66 93.9632C257.66 93.8448 257.564 93.7488 257.445 93.7488C257.327 93.7488 257.23 93.8448 257.23 93.9632C257.23 94.0816 257.327 94.1776 257.445 94.1776Z" fill="white"/>
<path d="M261.427 93.9632C261.427 94.0796 261.329 94.1776 261.212 94.1776C261.095 94.1776 260.997 94.0796 260.997 93.9632C260.997 93.8468 261.095 93.7488 261.212 93.7488C261.329 93.7488 261.427 93.8468 261.427 93.9632Z" fill="white"/>
<path d="M265.2 93.9632C265.2 94.0796 265.102 94.1776 264.985 94.1776C264.869 94.1776 264.771 94.0796 264.771 93.9632C264.771 93.8468 264.869 93.7488 264.985 93.7488C265.102 93.7488 265.2 93.8468 265.2 93.9632Z" fill="white"/>
<path d="M268.967 93.9632C268.967 94.0796 268.869 94.1776 268.752 94.1776C268.636 94.1776 268.538 94.0796 268.538 93.9632C268.538 93.8468 268.636 93.7488 268.752 93.7488C268.869 93.7488 268.967 93.8468 268.967 93.9632Z" fill="white"/>
<path d="M272.734 93.9632C272.734 94.0796 272.636 94.1776 272.519 94.1776C272.403 94.1776 272.305 94.0796 272.305 93.9632C272.305 93.8468 272.403 93.7488 272.519 93.7488C272.636 93.7488 272.734 93.8468 272.734 93.9632Z" fill="white"/>
<path d="M256.095 59.734C255.924 60.2425 253.12 63.4099 250.739 63.0791C249.966 62.9688 250.371 58.717 250.371 58.717L250.328 58.3984L249.745 53.9076L255.224 51.0649L256.009 50.6912C256.009 50.6912 256.089 51.9287 256.169 53.4726C256.169 53.5461 256.175 53.6135 256.181 53.6932C256.187 53.779 256.193 53.8647 256.2 53.9444C256.218 54.1772 256.23 54.41 256.236 54.6428C256.243 54.8205 256.255 54.992 256.255 55.1819C256.261 55.3719 256.261 55.5557 256.273 55.7395C256.298 57.5958 256.163 59.5073 256.095 59.7278V59.734Z" fill="#E37E4C"/>
<path d="M256.169 53.4788C254.586 56.8667 251.66 58.0369 250.328 58.3984L249.745 53.9076L255.224 51.0649L256.009 50.6912C256.009 50.6912 256.089 51.9287 256.169 53.4726V53.4788Z" fill="#111111"/>
<path d="M244.389 46.3352C242.954 54.1466 247.475 55.8927 249.163 56.199C250.696 56.4808 255.948 57.2344 258.181 49.6129C260.421 41.9915 257.237 38.8547 253.764 38.0276C250.291 37.2066 245.819 38.5239 244.383 46.3352H244.389Z" fill="#E37E4C"/>
<path d="M245.782 45.1099C245.972 45.1099 246.144 45.0793 246.328 45.0548C246.537 45.0303 246.709 45.0364 246.874 44.8955C246.966 44.822 246.979 44.6443 246.911 44.5524C246.758 44.3318 246.494 44.2951 246.242 44.3135C245.966 44.3318 245.758 44.4176 245.561 44.6014C245.365 44.7852 245.537 45.1099 245.782 45.1038V45.1099Z" fill="#111111"/>
<path d="M251.034 45.8818C250.85 45.8389 250.69 45.7715 250.512 45.7103C250.31 45.6429 250.144 45.6061 250.015 45.4346C249.942 45.3427 249.973 45.1711 250.052 45.0915C250.249 44.9077 250.512 44.9322 250.758 45.0057C251.022 45.0853 251.206 45.214 251.359 45.4407C251.506 45.6612 251.273 45.9431 251.034 45.8879V45.8818Z" fill="#111111"/>
<path d="M249.672 47.5237C249.672 47.5237 249.709 47.5543 249.709 47.5788C249.617 48.1118 249.604 48.7367 250.064 48.9818C250.077 48.9879 250.071 49.0186 250.058 49.0124C249.476 48.847 249.5 48.0199 249.672 47.5237Z" fill="#111111"/>
<path d="M250.224 47.0274C251.096 47.0764 250.93 48.8163 250.12 48.7673C249.323 48.7183 249.494 46.9845 250.224 47.0274Z" fill="#111111"/>
<path d="M250.561 47.1561C250.702 47.2663 250.837 47.4563 251.015 47.493C251.224 47.5359 251.402 47.3705 251.561 47.2051C251.58 47.1867 251.592 47.2051 251.592 47.2296C251.568 47.5604 251.402 47.8913 251.04 47.9096C250.709 47.9219 250.506 47.6033 250.451 47.2663C250.439 47.2051 250.506 47.1193 250.561 47.1622V47.1561Z" fill="#111111"/>
<path d="M246.69 47.0337C246.69 47.0337 246.647 47.0582 246.647 47.0766C246.616 47.6157 246.488 48.2284 245.985 48.3632C245.966 48.3632 245.966 48.3938 245.985 48.3938C246.586 48.3632 246.745 47.5483 246.69 47.0276V47.0337Z" fill="#111111"/>
<path d="M246.261 46.4271C245.402 46.2862 245.175 48.0139 245.972 48.1487C246.758 48.2773 246.979 46.5496 246.261 46.4271Z" fill="#111111"/>
<path d="M245.88 46.4945C245.733 46.568 245.574 46.715 245.408 46.7089C245.218 46.6966 245.101 46.4945 245.003 46.2984C244.991 46.28 244.978 46.2923 244.972 46.3168C244.923 46.6476 244.985 47.003 245.298 47.1071C245.58 47.2051 245.831 46.9478 245.954 46.6231C245.979 46.5618 245.942 46.4638 245.88 46.4945Z" fill="#111111"/>
<path d="M249.377 51.7081C249.242 51.8306 249.101 51.996 248.905 52.0021C248.715 52.0083 248.5 51.9103 248.328 51.8367C248.31 51.8306 248.292 51.849 248.304 51.8612C248.433 52.0757 248.721 52.2227 248.973 52.1921C249.218 52.1614 249.353 51.9593 249.42 51.7387C249.433 51.7081 249.39 51.6958 249.371 51.7142L249.377 51.7081Z" fill="#111111"/>
<path d="M247.34 49.5209C247.34 49.5209 247.144 50.3113 247.101 50.6911C247.101 50.7279 247.187 50.7524 247.316 50.7769C247.316 50.7769 247.322 50.7769 247.328 50.7769C247.985 50.9546 248.684 50.7953 249.15 50.2929C249.181 50.2561 249.138 50.2132 249.101 50.2316C248.561 50.5441 247.997 50.5808 247.402 50.5257C247.383 50.4154 247.788 49.184 247.727 49.1717C247.525 49.1288 247.095 49.2269 246.844 49.2759C247.206 47.6156 247.837 46.0288 248.175 44.3685C248.187 44.3072 248.101 44.2827 248.077 44.3317C247.298 45.9492 246.837 47.8484 246.414 49.5516C246.359 49.766 247.169 49.5638 247.328 49.5148L247.34 49.5209Z" fill="#111111"/>
<path d="M247.377 50.4889C247.377 50.4889 247.629 51.0648 248.095 51.3527C248.267 51.463 248.457 51.5304 248.678 51.5242C249.132 51.5059 249.23 51.1199 249.23 50.7646C249.23 50.4766 249.157 50.207 249.157 50.207C249.157 50.207 248.402 50.6481 247.384 50.4827L247.377 50.4889Z" fill="#111111"/>
<path d="M248.089 51.3527C248.261 51.463 248.451 51.5304 248.672 51.5243C249.126 51.5059 249.224 51.1199 249.224 50.7646C248.758 50.7094 248.23 50.9177 248.089 51.3527Z" fill="#FF9ABB"/>
<path d="M248.653 37.7641C248.653 37.7641 255.095 34.8847 258.715 38.6525C262.335 42.4203 258.715 47.9587 258.715 47.9587C258.715 47.9587 260.298 40.9561 256.856 38.9956C253.42 37.0351 248.653 37.7641 248.653 37.7641Z" fill="#97C233"/>
<path d="M258.114 49.6743C256.402 48.7982 256.39 46.9786 256.39 46.9786C254.261 45.9799 253.151 44.2645 253.04 44.093C253.089 44.2584 253.427 45.4408 253.623 46.0351C248.666 44.9323 247.255 41.0726 247.255 41.0726C245.58 42.6287 245.224 43.6519 244.972 44.1542C244.972 44.1542 245.04 41.0971 246.684 39.1059C248.696 36.6676 255.224 36.2081 258.12 39.5777C261.243 43.2107 258.12 49.6804 258.12 49.6804L258.114 49.6743Z" fill="#111111"/>
<path d="M249.85 45.0794C250.629 45.5511 251.5 45.8819 252.378 46.1025C252.384 46.1025 252.39 46.0964 252.378 46.0902C250.985 45.643 249.752 44.8649 248.789 43.756C248.384 43.2843 248.04 42.7696 247.764 42.2183C247.476 41.6362 247.2 40.9501 247.169 40.2945C247.169 40.2455 247.089 40.2516 247.089 40.2945C247.126 40.9868 247.163 41.6178 247.42 42.2734C247.666 42.8922 248.022 43.4681 248.47 43.9582C248.868 44.3932 249.341 44.7669 249.844 45.0732" fill="#111111"/>
<path d="M256.832 49.3004C256.832 49.3004 258.795 46.9968 259.856 47.7198C260.918 48.4427 259.28 51.8981 257.911 52.2596C256.549 52.621 256.188 51.3712 256.188 51.3712L256.826 49.3004H256.832Z" fill="#E37E4C"/>
<path d="M259.36 48.6938C259.36 48.6938 259.384 48.7245 259.36 48.7306C258.402 49.0186 257.832 49.8273 257.409 50.6789C257.715 50.3664 258.108 50.2132 258.531 50.5808C258.556 50.5992 258.531 50.636 258.501 50.6298C258.132 50.5134 257.85 50.5502 257.568 50.832C257.366 51.0281 257.218 51.2854 257.065 51.5243C257.016 51.604 256.869 51.5427 256.912 51.4508C256.912 51.4447 256.918 51.4385 256.924 51.4324C257.016 50.2561 258.083 48.7 259.36 48.7V48.6938Z" fill="#111111"/>
<path d="M261.329 65.1256C261.586 71.5953 251.924 92.009 246.997 95.4092C239.665 100.464 222.18 103.38 217.622 104.072C215.634 104.372 215.511 87.5427 217.628 87.1812C222.26 86.397 236.831 85.3249 238.181 84.4549C239.53 83.5849 248.334 73.9356 252.433 68.2379C257.93 60.5981 261.2 61.854 261.329 65.1256Z" fill="#E37E4C"/>
<path d="M206.793 102.798C205.732 101.101 208.345 100.825 208.345 100.825C208.345 100.825 204.492 100.31 204.081 98.1416C203.689 96.0463 206.854 95.8258 207.081 95.8074C206.879 95.7768 203.351 95.2131 203.161 92.9892C202.965 90.6733 206.186 90.998 206.388 91.0226C206.204 90.9368 203.793 89.736 204.038 88.0144C204.455 85.0491 211.419 87.9041 213.658 86.979L213.787 83.2786C214.45 84.2466 215.425 84.6448 216.395 85.6496C217.566 86.8504 218.585 87.6407 218.873 88.6516C219.352 90.3119 218.039 91.1328 218.039 91.1328C218.039 91.1328 220.07 91.77 220.272 93.5161C220.376 94.4167 219.027 95.3785 219.027 95.3785C219.027 95.3785 220.628 95.9544 220.714 97.5228C220.787 98.7726 219.425 99.5446 219.425 99.5446C219.425 99.5446 220.708 100.813 220.364 102.112C219.677 104.74 209.063 106.449 206.793 102.81V102.798Z" fill="#E37E4C"/>
<path d="M219.229 99.6854C219.266 99.6793 219.284 99.7222 219.247 99.7405C215.891 101.156 211.775 101.683 208.21 100.856C208.093 100.831 208.087 100.629 208.222 100.635C212.063 100.782 215.48 100.611 219.229 99.6915V99.6854Z" fill="#111111"/>
<path d="M219.082 95.3784C219.125 95.3662 219.137 95.4336 219.1 95.452C215.64 96.8917 210.983 97.3573 206.983 95.9237C206.848 95.8747 206.775 95.6909 206.934 95.7399C209.664 96.4935 215.713 96.2239 219.082 95.3846V95.3784Z" fill="#111111"/>
<path d="M206.143 90.8204C210.032 92.0457 213.922 91.9047 217.898 91.1879C217.947 91.1757 217.959 91.2553 217.916 91.2737C216.069 92.1559 213.486 92.3459 211.462 92.3275C209.523 92.3091 207.781 91.9048 206.1 90.9551C206.032 90.9184 206.057 90.7958 206.143 90.8204Z" fill="#111111"/>
<path d="M253.654 65.9894C259.715 59.4523 263.212 62.1541 261.151 69.843C259.224 77.0356 256.089 84.5712 256.089 84.5712L244.028 76.6373C244.028 76.6373 249.77 70.1677 253.648 65.9832L253.654 65.9894Z" fill="#97C233"/>
<path d="M259.543 63.8206C259.543 63.937 259.445 64.0351 259.329 64.0351C259.212 64.0351 259.114 63.937 259.114 63.8206C259.114 63.7042 259.212 63.6062 259.329 63.6062C259.445 63.6062 259.543 63.7042 259.543 63.8206Z" fill="white"/>
<path d="M252.01 69.3038C252.01 69.4202 251.911 69.5182 251.795 69.5182C251.678 69.5182 251.58 69.4202 251.58 69.3038C251.58 69.1874 251.678 69.0894 251.795 69.0894C251.911 69.0894 252.01 69.1874 252.01 69.3038Z" fill="white"/>
<path d="M255.776 69.3038C255.776 69.4202 255.678 69.5182 255.562 69.5182C255.445 69.5182 255.347 69.4202 255.347 69.3038C255.347 69.1874 255.445 69.0894 255.562 69.0894C255.678 69.0894 255.776 69.1874 255.776 69.3038Z" fill="white"/>
<path d="M259.543 69.3038C259.543 69.4202 259.445 69.5182 259.329 69.5182C259.212 69.5182 259.114 69.4202 259.114 69.3038C259.114 69.1874 259.212 69.0894 259.329 69.0894C259.445 69.0894 259.543 69.1874 259.543 69.3038Z" fill="white"/>
<path d="M253.893 66.5653C253.893 66.6817 253.795 66.7797 253.678 66.7797C253.562 66.7797 253.463 66.6817 253.463 66.5653C253.463 66.4489 253.562 66.3508 253.678 66.3508C253.795 66.3508 253.893 66.4489 253.893 66.5653Z" fill="white"/>
<path d="M257.66 66.5653C257.66 66.6817 257.562 66.7797 257.445 66.7797C257.329 66.7797 257.23 66.6817 257.23 66.5653C257.23 66.4489 257.329 66.3508 257.445 66.3508C257.562 66.3508 257.66 66.4489 257.66 66.5653Z" fill="white"/>
<path d="M261.427 66.5653C261.427 66.6817 261.329 66.7797 261.212 66.7797C261.096 66.7797 260.998 66.6817 260.998 66.5653C260.998 66.4489 261.096 66.3508 261.212 66.3508C261.329 66.3508 261.427 66.4489 261.427 66.5653Z" fill="white"/>
<path d="M248.242 74.7811C248.242 74.8975 248.144 74.9955 248.028 74.9955C247.911 74.9955 247.813 74.8975 247.813 74.7811C247.813 74.6647 247.911 74.5667 248.028 74.5667C248.144 74.5667 248.242 74.6647 248.242 74.7811Z" fill="white"/>
<path d="M252.01 74.7811C252.01 74.8975 251.911 74.9955 251.795 74.9955C251.678 74.9955 251.58 74.8975 251.58 74.7811C251.58 74.6647 251.678 74.5667 251.795 74.5667C251.911 74.5667 252.01 74.6647 252.01 74.7811Z" fill="white"/>
<path d="M255.776 74.7811C255.776 74.8975 255.678 74.9955 255.562 74.9955C255.445 74.9955 255.347 74.8975 255.347 74.7811C255.347 74.6647 255.445 74.5667 255.562 74.5667C255.678 74.5667 255.776 74.6647 255.776 74.7811Z" fill="white"/>
<path d="M259.543 74.7811C259.543 74.8975 259.445 74.9955 259.329 74.9955C259.212 74.9955 259.114 74.8975 259.114 74.7811C259.114 74.6647 259.212 74.5667 259.329 74.5667C259.445 74.5667 259.543 74.6647 259.543 74.7811Z" fill="white"/>
<path d="M250.126 72.0426C250.126 72.159 250.028 72.257 249.911 72.257C249.795 72.257 249.697 72.159 249.697 72.0426C249.697 71.9261 249.795 71.8281 249.911 71.8281C250.028 71.8281 250.126 71.9261 250.126 72.0426Z" fill="white"/>
<path d="M253.893 72.0426C253.893 72.159 253.795 72.257 253.678 72.257C253.562 72.257 253.463 72.159 253.463 72.0426C253.463 71.9261 253.562 71.8281 253.678 71.8281C253.795 71.8281 253.893 71.9261 253.893 72.0426Z" fill="white"/>
<path d="M257.66 72.0426C257.66 72.159 257.562 72.257 257.445 72.257C257.329 72.257 257.23 72.159 257.23 72.0426C257.23 71.9261 257.329 71.8281 257.445 71.8281C257.562 71.8281 257.66 71.9261 257.66 72.0426Z" fill="white"/>
<path d="M252.01 80.2581C252.01 80.3745 251.911 80.4726 251.795 80.4726C251.678 80.4726 251.58 80.3745 251.58 80.2581C251.58 80.1417 251.678 80.0437 251.795 80.0437C251.911 80.0437 252.01 80.1417 252.01 80.2581Z" fill="white"/>
<path d="M255.776 80.2581C255.776 80.3745 255.678 80.4726 255.562 80.4726C255.445 80.4726 255.347 80.3745 255.347 80.2581C255.347 80.1417 255.445 80.0437 255.562 80.0437C255.678 80.0437 255.776 80.1417 255.776 80.2581Z" fill="white"/>
<path d="M246.359 77.5257C246.359 77.6421 246.261 77.7401 246.144 77.7401C246.028 77.7401 245.929 77.6421 245.929 77.5257C245.929 77.4093 246.028 77.3113 246.144 77.3113C246.261 77.3113 246.359 77.4093 246.359 77.5257Z" fill="white"/>
<path d="M250.126 77.5257C250.126 77.6421 250.028 77.7401 249.911 77.7401C249.795 77.7401 249.697 77.6421 249.697 77.5257C249.697 77.4093 249.795 77.3113 249.911 77.3113C250.028 77.3113 250.126 77.4093 250.126 77.5257Z" fill="white"/>
<path d="M253.893 77.5257C253.893 77.6421 253.795 77.7401 253.678 77.7401C253.562 77.7401 253.463 77.6421 253.463 77.5257C253.463 77.4093 253.562 77.3113 253.678 77.3113C253.795 77.3113 253.893 77.4093 253.893 77.5257Z" fill="white"/>
<path d="M257.66 77.5257C257.66 77.6421 257.562 77.7401 257.445 77.7401C257.329 77.7401 257.23 77.6421 257.23 77.5257C257.23 77.4093 257.329 77.3113 257.445 77.3113C257.562 77.3113 257.66 77.4093 257.66 77.5257Z" fill="white"/>
<path d="M253.893 83.003C253.893 83.0398 253.881 83.0765 253.862 83.1071L253.506 82.8743C253.549 82.8192 253.611 82.7886 253.678 82.7886C253.795 82.7886 253.893 82.8866 253.893 83.003Z" fill="white"/>
<path d="M253.046 66.7122C252.237 67.5638 251.402 68.3909 250.574 69.2241C250.813 68.7769 251.034 68.3296 251.236 67.864C251.249 67.8456 251.212 67.8273 251.206 67.8518C251.016 68.201 250.807 68.5502 250.623 68.8994C250.531 69.071 250.445 69.2425 250.353 69.4079C250.335 69.4447 250.31 69.4814 250.292 69.5182C249.647 70.1676 249.003 70.817 248.371 71.4848C247.623 72.2813 246.893 73.0961 246.163 73.9048C245.408 74.7442 244.666 75.7489 243.874 76.5576C243.807 76.625 244.942 77.2683 245.046 77.3479C245.15 77.4276 245.242 77.3234 245.126 77.2744C245.015 77.2254 244.144 76.5147 244.138 76.5025C244.868 75.6815 245.69 74.9463 246.451 74.1499C247.206 73.3595 247.96 72.5692 248.703 71.7605C250.2 70.1186 251.605 68.397 253.089 66.7429C253.108 66.7184 253.077 66.6938 253.052 66.7122H253.046Z" fill="#111111"/>
<path d="M260.74 74.1376C260.495 74.4929 260.231 74.8421 260.01 75.2097C259.918 75.3629 259.826 75.5161 259.734 75.6692C260.212 74.3152 260.685 72.9552 261.157 71.6012C261.157 71.5828 261.139 71.5705 261.133 71.5889C260.243 73.77 259.347 75.951 258.501 78.1505C257.691 80.2458 256.771 82.3533 256.182 84.5221C256.01 84.4425 255.065 83.8911 255.028 83.9523C254.991 84.0136 256.249 84.8223 256.274 84.7733C257.286 82.7086 258.065 80.3193 258.857 78.1627C259.077 77.5562 259.292 76.9435 259.507 76.337C259.703 75.9817 259.924 75.6386 260.145 75.2955C260.378 74.934 260.581 74.5419 260.789 74.1682C260.801 74.1437 260.765 74.1253 260.752 74.1437L260.74 74.1376Z" fill="#111111"/>
<path d="M256.175 82.3964C254.519 81.1527 247.549 76.3004 245.972 75.3508C245.862 75.2834 245.795 75.3386 245.899 75.4182C250.77 79.2657 254.433 81.3181 256.12 82.4576C256.163 82.4883 256.212 82.427 256.169 82.3964H256.175Z" fill="#111111"/>
<path d="M196.842 223.95C196.842 223.95 211.18 224.588 210.824 214.791C210.468 204.995 196.216 206.674 196.216 206.674L196.848 223.95H196.842Z" fill="#DD6A57"/>
<path d="M95.9094 210.309L96.5408 227.586L197.398 223.911L196.766 206.633L95.9094 210.309Z" fill="#97C233"/>
<path d="M193.246 205.316L193.983 225.49L197.993 225.343L197.255 205.17L193.246 205.316Z" fill="#2A6E26"/>
<path d="M188.812 205.479L189.549 225.652L193.559 225.506L192.822 205.332L188.812 205.479Z" fill="#2A6E26"/>
<path d="M95.9238 210.313L83.7086 217.266L79.6716 219.545L83.862 221.561L96.5496 227.608L98.9975 225.77C98.9975 225.77 96.4637 224.189 96.4207 224.153L98.8687 222.315C98.8687 222.315 96.3348 220.734 96.2919 220.697L98.7398 218.896C98.7398 218.896 96.206 217.273 96.163 217.236L98.611 215.435C98.611 215.435 96.071 213.811 96.0342 213.774L98.4822 211.973C98.4822 211.973 95.9422 210.35 95.9054 210.313H95.9238Z" fill="white"/>
<path d="M83.7086 217.266L79.6777 219.545L83.8681 221.561L83.7086 217.266Z" fill="#37474F"/>
<g opacity="0.1">
<path d="M102.292 214.852C129.054 213.474 158.822 212.396 185.633 211.82C158.846 213.192 129.091 214.283 102.292 214.852Z" fill="black"/>
</g>
<g opacity="0.1">
<path d="M102.703 222.609C129.465 221.23 159.233 220.152 186.044 219.576C159.257 220.949 129.502 222.039 102.703 222.609Z" fill="black"/>
</g>
<path d="M161.086 83.8482C161.086 83.8482 150.159 66.8041 145.944 65.7749C141.729 64.7456 139.944 66.5958 136.379 70.284C132.815 73.9722 127.704 80.3071 127.704 80.3071L123.679 77.2193V90.275L136.379 86.8747L132.815 84.1668C132.815 84.1668 141.079 72.6856 143.361 72.7837C145.643 72.8817 156.454 87.9224 156.454 87.9224L161.086 83.8421V83.8482Z" fill="#97C233"/>
<path d="M116.06 90.5569C116.06 90.5569 107.765 109.022 109.213 113.109C110.661 117.195 113.188 117.667 118.231 118.629C123.275 119.591 131.385 120.387 131.385 120.387L131.005 125.442L141.944 118.292L132.14 109.543L131.827 114.003C131.827 114.003 117.679 113.391 116.514 111.43C115.348 109.47 120.784 91.8618 120.784 91.8618L116.066 90.563L116.06 90.5569Z" fill="#97C233"/>
<path d="M146.601 121.226C146.601 121.226 166.847 122.096 170.111 119.241C173.375 116.386 172.884 113.868 171.914 108.832C170.945 103.796 168.687 95.9788 168.687 95.9788L173.528 94.4655L162.828 86.9604L158.313 99.2932L162.583 97.9331C162.583 97.9331 167.239 111.289 165.847 113.096C164.454 114.904 147.282 113.642 147.282 113.642L146.594 121.22L146.601 121.226Z" fill="#97C233"/>
<path d="M54.4745 64.3351C54.2475 64.6291 48.1185 67.1227 45.192 64.2738C42.2655 61.425 53.18 58.6986 56.5973 59.6973C60.0207 60.6959 54.4745 64.3289 54.4745 64.3289V64.3351Z" fill="#2A6E26"/>
<path d="M38.6394 142.02C39.0076 142.075 44.1366 146.253 43.0322 150.187C41.9279 154.12 34.308 145.855 33.5472 142.375C32.7865 138.895 38.6394 142.02 38.6394 142.02Z" fill="#2A6E26"/>
<path d="M228.898 10.5683C229.904 10.5683 243.788 0.661672 261.433 4.82774C279.078 8.9938 263.2 -0.00612344 251.586 3.12667e-06C244.764 3.12667e-06 235.083 1.66643 228.898 7.55406C222.714 13.4417 228.898 10.5683 228.898 10.5683Z" fill="#2A6E26"/>
<path d="M220.628 11.7446C220.628 11.7446 216.855 13.5458 219.205 15.2184C221.554 16.8909 223.763 13.3682 223.413 12.3144C223.064 11.2606 222.432 11.3587 220.628 11.7446Z" fill="#2A6E26"/>
<path d="M293.171 53.4727C293.171 53.4727 292.373 63.4406 285.465 66.6631C285.465 66.6631 293.999 69.8857 293.766 77.5133C293.766 77.5133 292.306 69.5978 300.11 67.2513C300.11 67.2513 292.52 60.8 293.171 53.4727Z" fill="white"/>
<path d="M280.538 41.7771C280.538 41.7771 279.992 48.5531 275.299 50.7464C275.299 50.7464 281.102 52.9397 280.943 58.1228C280.943 58.1228 279.949 52.7436 285.256 51.1446C285.256 51.1446 280.096 46.758 280.538 41.7771Z" fill="white"/>
</g>
<defs>
<clipPath id="clip0_99_99909">
<rect width="327" height="237" fill="white"/>
</clipPath>
</defs>
</svg>
