<svg width="327" height="201" viewBox="0 0 327 201" fill="none" xmlns="http://www.w3.org/2000/svg">
<g clip-path="url(#clip0_133_12828)">
<path d="M208.423 0C208.449 0.330645 208.474 0.661291 208.5 1C208.167 1 207.833 1 207.5 1C207.662 0.669355 207.825 0.338709 207.987 0.00806469H208.423V0Z" fill="white"/>
<path d="M271.92 32C272.182 33.0221 272.366 33.6544 272.494 34.3162C272.531 34.5 272.388 34.7721 272.324 35C272.044 34.4265 271.737 33.875 271.507 33.25C271.457 33.1103 271.677 32.7059 271.92 32Z" fill="white"/>
<path d="M64.6741 57C65.7846 57.9733 66.1423 58.2903 66.5 58.6074C66.2093 58.7475 65.8665 59.0572 65.6355 58.9908C65.2256 58.8728 64.7859 58.5926 64.5549 58.2461C64.4058 58.0175 64.5996 57.5604 64.6741 57Z" fill="white"/>
<path d="M184.5 62.2934C184.249 62.6084 184.102 62.8434 183.908 62.9982C183.874 63.0249 183.642 62.7419 183.5 62.5978C183.68 62.3949 183.846 62.1706 184.045 62.0051C184.092 61.9677 184.273 62.1439 184.495 62.2934H184.5Z" fill="white"/>
<path d="M288.5 78.4703C288.247 78.7292 288.1 78.9941 287.949 79C287.802 79 287.651 78.741 287.5 78.5998C287.624 78.3879 287.727 78.0583 287.887 78.0053C288.016 77.9582 288.211 78.2348 288.5 78.4703Z" fill="white"/>
<path d="M105.5 178.445C104.862 178.75 104.571 179 104.273 179C104.018 179 103.755 178.726 103.5 178.571C103.727 178.374 103.911 178.088 104.181 178.01C104.387 177.95 104.699 178.165 105.493 178.445H105.5Z" fill="white"/>
<path d="M213.128 150C212.789 149.696 212.457 149.536 212.505 149.415C212.56 149.259 212.915 149.138 213.136 149C213.262 149.134 213.483 149.259 213.499 149.397C213.515 149.54 213.333 149.692 213.128 150Z" fill="white"/>
<path d="M180.491 155.55C179.893 155.766 179.519 156.011 179.164 156C178.911 155.994 178.5 155.649 178.5 155.451C178.5 155.293 179.033 154.978 179.257 155.001C179.631 155.042 179.949 155.293 180.5 155.55H180.491Z" fill="white"/>
<path d="M179.88 24C179.684 23.7172 179.433 23.5205 179.517 23.4426C179.691 23.2664 180.034 23.1434 180.307 23C180.377 23.1434 180.545 23.2992 180.489 23.4221C180.419 23.5861 180.181 23.7254 179.88 24Z" fill="white"/>
<path d="M279.5 174.407C279.214 174.693 279.057 174.953 278.867 174.999C278.767 175.025 278.624 174.667 278.5 174.485C278.652 174.316 278.79 174.063 278.962 174.004C279.076 173.965 279.238 174.199 279.5 174.407Z" fill="white"/>
<path d="M90.0171 43C90.2541 43.2578 90.5558 43.44 90.4911 43.5422C90.3834 43.72 90.0602 43.8489 89.8304 44C89.7083 43.84 89.5 43.6756 89.5 43.52C89.5 43.3822 89.7585 43.2444 90.0171 43Z" fill="white"/>
<path d="M287.5 46.5397C287.756 46.3122 287.944 46.1587 288.124 46C288.259 46.1799 288.492 46.3598 288.5 46.5397C288.5 46.6878 288.252 46.8466 288.109 47C287.914 46.8519 287.726 46.7037 287.5 46.5397Z" fill="white"/>
<path d="M211.465 178.042C211.358 178.359 211.261 178.682 211.155 179C210.951 178.677 210.757 178.354 210.553 178.031L210.5 178.005C210.836 178.005 211.173 178.005 211.5 178L211.456 178.047L211.465 178.042Z" fill="white"/>
<path d="M88.8682 13.9944C88.6818 13.7931 88.5909 13.6981 88.5 13.603C88.7182 13.4018 88.9227 13.1726 89.1591 13.0104C89.2273 12.9601 89.3864 13.1055 89.5 13.1614C89.3091 13.413 89.1182 13.6701 88.8682 14V13.9944Z" fill="white"/>
<path d="M33.5 98.4373C33.211 98.7312 33.0491 99.025 32.9104 98.9983C32.7601 98.9716 32.6329 98.651 32.5 98.4551C32.6387 98.2949 32.7659 98.0277 32.9104 98.001C33.0549 97.9832 33.211 98.2058 33.5 98.4373Z" fill="white"/>
<path d="M213.5 174.224C212.871 174.576 212.507 174.843 212.1 174.989C211.943 175.05 211.7 174.843 211.5 174.759C211.886 174.507 212.257 174.216 212.671 174.017C212.814 173.948 213.05 174.101 213.5 174.224Z" fill="white"/>
<path d="M107.685 81.9915C106.805 81.0718 106.479 80.7567 106.501 80.7482C106.892 80.4671 107.294 80.1776 107.761 80.0073C107.924 79.9477 108.521 80.2713 108.499 80.3309C108.337 80.7993 108.076 81.2506 107.685 82V81.9915Z" fill="white"/>
<path d="M55.5 190.42C55.2278 190.698 55.0722 190.938 54.8889 190.998C54.7889 191.028 54.6333 190.75 54.5 190.608C54.6444 190.397 54.7667 190.12 54.95 190.007C55.0333 189.955 55.2278 190.202 55.5 190.42Z" fill="white"/>
<path d="M70.5 29.2879C69.7808 29.5828 69.2725 29.7886 68.7738 30C68.6779 29.8609 68.4382 29.644 68.5149 29.5939C68.8697 29.3658 69.2821 29.1655 69.7328 29.0042C69.8191 28.9708 70.126 29.1433 70.5 29.2879Z" fill="white"/>
<path d="M37.3483 21C37.4331 21.2988 37.5518 21.4191 37.4755 21.4979C37.3059 21.6763 37.0346 21.834 36.8141 22C36.7039 21.9004 36.4495 21.7759 36.5089 21.7054C36.6445 21.5187 36.9074 21.3568 37.3568 21H37.3483Z" fill="white"/>
<path d="M229.5 157.648C229.091 157.816 228.705 158.028 228.628 157.997C228.197 157.816 227.822 157.586 227.501 157.349C227.468 157.324 228.02 156.988 228.054 157C228.495 157.162 228.893 157.368 229.5 157.654V157.648Z" fill="white"/>
<path d="M225.076 99C224.802 98.7647 224.529 98.6353 224.502 98.4824C224.476 98.3294 224.696 98.1647 224.811 98C225.049 98.1176 225.42 98.2059 225.491 98.3588C225.553 98.4941 225.288 98.7 225.076 99Z" fill="white"/>
<path d="M78.1669 155C77.8185 154.574 77.4779 154.224 77.5011 154.169C77.6714 153.754 77.9114 153.383 78.136 153C78.2676 153.153 78.5076 153.317 78.4998 153.448C78.4534 153.885 78.3295 154.311 78.1747 155H78.1669Z" fill="white"/>
<path d="M213.5 21.4447C213.234 21.7121 213.08 21.973 212.896 21.9991C212.778 22.0187 212.506 21.6991 212.5 21.5229C212.5 21.3403 212.713 21.0207 212.867 21.0011C213.027 20.9815 213.222 21.2294 213.5 21.4381V21.4447Z" fill="white"/>
<path d="M195.965 109C196.253 109.323 196.524 109.487 196.498 109.641C196.481 109.769 196.135 109.882 195.94 110C195.788 109.887 195.5 109.774 195.5 109.667C195.5 109.503 195.712 109.338 195.957 109H195.965Z" fill="white"/>
<path d="M30.8713 126C30.7004 125.749 30.4623 125.503 30.505 125.428C30.6149 125.233 30.8469 125.013 31.0361 125C31.1826 124.988 31.3474 125.29 31.5 125.447C31.323 125.604 31.146 125.761 30.8713 126Z" fill="white"/>
<path d="M175.5 105.728C175.189 105.856 174.94 106.044 174.818 105.991C174.652 105.916 174.508 105.667 174.5 105.485C174.493 105.33 174.682 105.162 174.78 105C174.985 105.202 175.182 105.404 175.492 105.721L175.5 105.728Z" fill="white"/>
<path d="M221.761 60C222.258 60.4859 222.473 60.6225 222.5 60.7671C222.513 60.8434 222.217 60.9237 222.056 61C221.868 60.8876 221.613 60.7791 221.519 60.6627C221.452 60.5703 221.573 60.4618 221.761 60Z" fill="white"/>
<path d="M258.449 39.4524C258.186 39.631 257.923 39.8214 257.661 40C257.609 39.6667 257.551 39.3333 257.5 39C257.836 39.131 258.164 39.2619 258.5 39.381L258.412 39.2619L258.449 39.4524Z" fill="white"/>
<path d="M210.5 56.2686C209.929 56.5782 209.548 56.7918 209.167 57C208.922 56.7864 208.528 56.5729 208.5 56.354C208.487 56.2365 209.058 56.023 209.426 56.0016C209.738 55.9803 210.133 56.1725 210.5 56.2686Z" fill="white"/>
<path d="M115.5 51.8462C115.5 51.8462 115.441 51.9371 115.399 52C115.094 51.7692 114.781 51.5385 114.502 51.2937C114.477 51.2727 114.655 51.1049 114.731 51C114.976 51.2727 115.221 51.5455 115.5 51.8462Z" fill="white"/>
<path d="M32.5 2.4093C32.1339 2.69596 31.9437 2.84364 31.7466 3C31.655 2.74808 31.5353 2.51354 31.5001 2.25294C31.4931 2.19213 31.7607 1.98365 31.8945 2.00102C32.0634 2.02708 32.2113 2.20951 32.5 2.41799V2.4093Z" fill="white"/>
<path d="M243.5 164.324C243.2 164.757 243.12 164.879 243.033 165C242.854 164.832 242.614 164.688 242.514 164.486C242.454 164.364 242.607 164.168 242.667 164C242.94 164.104 243.213 164.214 243.5 164.324Z" fill="white"/>
<path d="M277.072 152C277.273 152.366 277.406 152.585 277.5 152.821C277.506 152.838 277.255 153.022 277.167 152.998C276.934 152.927 276.72 152.785 276.5 152.673C276.607 152.549 276.714 152.419 277.066 152H277.072Z" fill="white"/>
<path d="M242.492 58.6828C242.246 58.8369 242.062 59.046 241.946 58.991C241.769 58.9029 241.646 58.6278 241.5 58.4296C241.631 58.2755 241.762 58.0223 241.9 58.0003C242.015 57.9893 242.146 58.2645 242.5 58.6828H242.492Z" fill="white"/>
<path d="M200.099 133C199.783 132.667 199.466 132.486 199.503 132.319C199.531 132.2 200.015 132.105 200.295 132C200.37 132.176 200.491 132.352 200.5 132.529C200.5 132.638 200.323 132.748 200.109 133H200.099Z" fill="white"/>
<path d="M37.5 65.4069C37.0526 65.8136 36.8811 66.0395 36.8382 65.9943C36.6972 65.8407 36.5685 65.6147 36.5011 65.3798C36.4827 65.3165 36.6972 64.9911 36.7891 65.0002C36.9791 65.0273 37.163 65.199 37.5 65.4069Z" fill="white"/>
<path d="M12.5 14.4166C12.2714 14.6744 12.1214 14.9705 11.95 14.9991C11.8143 15.0182 11.65 14.7222 11.5 14.5694C11.6643 14.3784 11.8143 14.1301 12.0071 14.006C12.0786 13.9582 12.2571 14.2065 12.5 14.4166Z" fill="white"/>
<path d="M261.577 69.9924C261.546 69.7651 261.468 69.5833 261.515 69.5455C261.756 69.3409 262.03 69.1742 262.295 69C262.365 69.1439 262.521 69.3864 262.498 69.4091C262.256 69.5985 261.975 69.75 261.577 70V69.9924Z" fill="white"/>
<path d="M104.491 7.48505C104.197 7.746 104.005 8.04423 103.894 7.99453C103.729 7.91997 103.628 7.59689 103.5 7.38564C103.674 7.24895 103.83 7.02528 104.014 7.00043C104.133 6.988 104.271 7.24895 104.5 7.48505H104.491Z" fill="white"/>
<path d="M56.0466 160C55.7405 159.672 55.5 159.527 55.5 159.376C55.5 159.253 55.7842 159.129 55.9482 159C56.145 159.129 56.4511 159.253 56.4948 159.398C56.5386 159.532 56.298 159.683 56.0466 160Z" fill="white"/>
<path d="M209.49 157.198C209.188 157.53 208.964 157.761 208.749 158C208.661 157.863 208.466 157.704 208.505 157.588C208.574 157.378 208.778 157.183 208.964 157.002C208.983 156.981 209.256 157.111 209.5 157.198H209.49Z" fill="white"/>
<path d="M179.491 92.6415C179.212 92.7641 178.932 92.8774 178.653 93C178.599 92.6698 178.545 92.3302 178.5 92C178.815 92.0283 179.122 92.0566 179.437 92.0849L179.401 92.066C179.365 92.1321 179.293 92.2075 179.302 92.2641C179.32 92.4057 179.374 92.5377 179.41 92.6698L179.5 92.6415H179.491Z" fill="white"/>
<path d="M323.5 62.6603C323.73 62.4464 323.954 62.1948 324.197 62.0187C324.283 61.9558 324.401 62.069 324.5 62.1067C324.283 62.3206 324.066 62.5345 323.849 62.7484C323.763 62.8364 323.671 62.9119 323.586 63C323.559 62.8868 323.533 62.7735 323.507 62.6603H323.5Z" fill="white"/>
<path d="M213.878 74C213.662 73.5811 213.5 73.3784 213.5 73.1757C213.5 73.1216 213.959 73.0608 214.203 73C214.311 73.1554 214.5 73.3108 214.5 73.473C214.5 73.5878 214.243 73.7027 213.878 74Z" fill="white"/>
<path d="M191.494 151.565C191.184 151.782 191.017 152 190.851 152C190.73 152 190.615 151.707 190.5 151.555C190.638 151.366 190.764 151.139 190.925 151.006C190.977 150.959 191.103 151.177 191.5 151.565H191.494Z" fill="white"/>
<path d="M196.446 55.3616C196.212 55.5763 195.977 55.7853 195.743 56C195.662 55.6723 195.581 55.3503 195.5 55.0282V55C195.824 55.1073 196.158 55.2147 196.5 55.3164L196.455 55.3616H196.446Z" fill="white"/>
<path d="M264.536 117.96C264.536 117.642 264.527 117.318 264.518 117C264.824 117.231 265.131 117.462 265.437 117.694L265.5 117.676C265.167 117.786 264.833 117.89 264.5 118L264.536 117.96Z" fill="white"/>
<path d="M282.706 50C283.061 50.2899 283.331 50.4675 283.494 50.6746C283.542 50.7337 283.273 50.8935 283.158 51C282.936 50.8047 282.686 50.6154 282.513 50.4083C282.455 50.3373 282.6 50.2071 282.706 50Z" fill="white"/>
<path d="M102.988 168C103.231 168.336 103.366 168.525 103.5 168.713C103.307 168.82 103.114 169 102.912 169C102.769 169 102.484 168.738 102.501 168.664C102.551 168.467 102.753 168.303 102.988 168Z" fill="white"/>
<path d="M241.5 50.9922C240.833 50.7891 240.167 50.5859 239.5 50.3828C239.682 50.2578 239.852 50.125 240.033 50C240.518 50.3359 241.015 50.6641 241.5 51V50.9922Z" fill="white"/>
<path d="M30.5 161.683C30.1776 161.822 29.9543 161.97 29.7146 162C29.6567 162 29.4583 161.525 29.5079 161.446C29.6484 161.238 29.8799 161.08 30.0949 161.001C30.1528 160.981 30.3016 161.337 30.4917 161.683H30.5Z" fill="white"/>
<path d="M151.5 138.387C150.48 138.813 150.189 139.03 149.96 138.997C149.762 138.963 149.471 138.629 149.502 138.462C149.534 138.278 149.877 138.019 150.116 138.002C150.418 137.977 150.751 138.161 151.5 138.387Z" fill="white"/>
<path d="M84.5 184.788C84.1892 184.891 83.9881 185.031 83.8113 184.994C83.6834 184.972 83.4884 184.699 83.5005 184.567C83.5249 184.368 83.7017 184.191 83.8113 184C83.9271 184.133 84.049 184.272 84.5 184.788Z" fill="white"/>
<path d="M139.5 100.716C139.177 100.865 139.003 101.034 138.848 100.994C138.717 100.964 138.618 100.676 138.5 100.507C138.643 100.329 138.792 99.981 138.922 100.001C139.078 100.021 139.214 100.348 139.494 100.726L139.5 100.716Z" fill="white"/>
<path d="M220.879 39C221.177 39.3147 221.339 39.4878 221.5 39.661C221.282 39.779 221.081 39.9521 220.847 39.9993C220.75 40.015 220.492 39.7632 220.5 39.6452C220.516 39.4642 220.694 39.2911 220.879 39Z" fill="white"/>
<path d="M311.5 101.627C311.284 101.778 311.131 101.889 310.969 102C310.808 101.802 310.583 101.627 310.502 101.405C310.475 101.31 310.763 101.135 310.906 101C311.086 101.198 311.275 101.389 311.5 101.627Z" fill="white"/>
<path d="M11.5 50.5613C11.7154 50.2954 11.8385 50.0295 11.9769 50.003C12.1462 49.9764 12.3231 50.1359 12.5 50.2157C12.4462 50.4948 12.3615 51 12.3308 51C12.0846 50.9335 11.8538 50.7607 11.5 50.5613Z" fill="white"/>
<path d="M259.5 102C259.207 102.338 258.915 102.662 258.622 103L258.5 102.182C258.829 102.156 259.159 102.143 259.482 102.117L259.494 102H259.5Z" fill="white"/>
<path d="M38.032 131C37.8028 130.822 37.6555 130.712 37.5 130.602C37.7292 130.399 37.9583 130.179 38.2039 130.001C38.2284 129.984 38.5231 130.263 38.4985 130.306C38.384 130.534 38.2121 130.737 38.0238 131H38.032Z" fill="white"/>
<path d="M127.5 85.1886C126.945 85.7527 126.822 85.8764 126.7 86C126.628 85.7836 126.511 85.575 126.5 85.3509C126.495 85.2427 126.661 85.0109 126.761 85.0032C126.939 84.98 127.122 85.0882 127.5 85.1886Z" fill="white"/>
<path d="M203.5 125.457C203.379 125.643 203.242 125.829 203.121 126C202.909 125.786 202.712 125.557 202.5 125.343C202.682 125.215 202.879 124.986 203.045 125.001C203.212 125.015 203.348 125.286 203.5 125.457Z" fill="white"/>
<path d="M76.8323 108C76.6806 107.728 76.4606 107.456 76.5061 107.384C76.6275 107.201 76.8627 107.025 77.0675 107.001C77.1965 106.985 77.3558 107.264 77.5 107.408C77.3179 107.568 77.1358 107.736 76.8399 108H76.8323Z" fill="white"/>
<path d="M69.5 124.742C69.2225 124.878 69.0561 125.05 68.9574 124.986C68.7786 124.878 68.6306 124.643 68.5012 124.417C68.4827 124.39 68.6923 123.982 68.717 124.001C68.8958 124.109 69.0499 124.299 69.4938 124.733L69.5 124.742Z" fill="white"/>
<path d="M48.9461 52.0083C49.2048 52.165 49.5171 52.2971 49.4993 52.3549C49.4279 52.5859 49.3119 52.8582 49.1156 52.9903C49.0264 53.0481 48.7141 52.8335 48.5 52.7345C48.6338 52.5116 48.7766 52.2888 48.9461 52V52.0083Z" fill="white"/>
<path d="M186.5 155.821C186.215 155.913 186.057 156.063 185.956 155.971C185.785 155.821 185.652 155.521 185.5 155.278C185.639 155.186 185.804 154.943 185.918 155.012C186.095 155.116 186.234 155.428 186.5 155.809V155.821Z" fill="white"/>
<path d="M239.508 167.46C239.752 167.238 239.943 166.954 240.034 167.006C240.218 167.112 240.347 167.407 240.5 167.618C240.378 167.755 240.233 168.029 240.141 167.997C239.935 167.924 239.76 167.692 239.5 167.47L239.508 167.46Z" fill="white"/>
<path d="M322.5 20.1495C322.181 20.5852 322.031 20.8984 321.85 20.9937C321.756 21.0482 321.619 20.735 321.5 20.5988C321.644 20.4082 321.775 20.1359 321.925 20.0269C322.038 19.9452 322.181 20.0678 322.494 20.1495H322.5Z" fill="white"/>
<path d="M35.5 45.5007C35.1807 45.7502 35.0042 45.9734 34.8109 45.9996C34.7185 46.0128 34.6008 45.6583 34.5 45.4613C34.6765 45.3037 34.8445 45.0543 35.0378 45.0017C35.1471 44.9755 35.2899 45.2512 35.5 45.4876V45.5007Z" fill="white"/>
<path d="M240.5 154.495C240.269 154.73 240.144 154.865 240.007 155C239.84 154.856 239.588 154.73 239.515 154.55C239.452 154.396 239.609 154.189 239.661 154C239.902 154.144 240.154 154.288 240.49 154.487L240.5 154.495Z" fill="white"/>
<path d="M26.1719 24C26.3438 24.3274 26.5 24.4956 26.5 24.6549C26.5 24.7699 26.2656 24.885 26.1406 25C25.9063 24.8761 25.5 24.7611 25.5 24.6372C25.5 24.4779 25.8125 24.3186 26.1719 24Z" fill="white"/>
<path d="M242.5 101C242.184 101.337 241.868 101.663 241.553 102C241.533 101.819 241.474 101.506 241.513 101.482C241.819 101.289 242.145 101.169 242.47 101.012H242.5V101Z" fill="white"/>
<path d="M75.0312 4C75.2966 4.24503 75.5354 4.36424 75.4956 4.45695C75.4293 4.64238 75.217 4.82119 75.071 5C74.8719 4.90728 74.4871 4.81457 74.5003 4.7351C74.5401 4.54305 74.7525 4.35762 75.0312 4.00662V4Z" fill="white"/>
<path d="M192.5 63.6634C192.214 63.814 191.962 64.0573 191.841 63.9878C191.665 63.9067 191.49 63.5939 191.5 63.3854C191.5 63.2348 191.863 62.9683 191.995 63.0031C192.181 63.061 192.291 63.3622 192.5 63.6518V63.6634Z" fill="white"/>
<path d="M111.5 115.43C111.317 115.684 111.2 115.835 111.082 116C110.886 115.835 110.638 115.696 110.507 115.481C110.455 115.405 110.69 115.165 110.782 115C111.017 115.139 111.252 115.278 111.5 115.43Z" fill="white"/>
<path d="M245.969 49C246.248 49.3716 246.433 49.5676 246.5 49.777C246.513 49.8378 246.155 49.9257 245.969 50C245.796 49.8514 245.544 49.7162 245.504 49.5608C245.465 49.4459 245.703 49.3041 245.969 49.0068V49Z" fill="white"/>
<path d="M54.5 67.2017C54.0894 67.7006 53.957 67.9857 53.8113 68C53.7119 68 53.606 67.6721 53.5 67.4725C53.5728 67.3157 53.6391 67.0591 53.7252 67.0163C53.8444 66.9593 53.9834 67.0591 54.4934 67.2017H54.5Z" fill="white"/>
<path d="M200.556 158.38C200.873 158.25 201.183 158.13 201.5 158C201.31 158.304 201.111 158.609 200.921 158.924L200.969 159C200.81 158.783 200.659 158.565 200.5 158.359L200.556 158.391V158.38Z" fill="white"/>
<path d="M42.5 38.6826C42.2196 38.8213 41.9393 39.0453 41.8383 38.992C41.6589 38.8853 41.4795 38.5973 41.5019 38.4053C41.5243 38.256 41.8383 38.1387 42.0178 38C42.1524 38.192 42.2869 38.384 42.4888 38.6826H42.5Z" fill="white"/>
<path d="M69.5 70.3774C69.3123 70.6321 69.1739 70.8208 69.0356 71C68.8478 70.8019 68.6305 70.6132 68.502 70.3774C68.4724 70.3302 68.7787 70 68.9368 70C69.1048 70 69.2826 70.217 69.4901 70.3774H69.5Z" fill="white"/>
<path d="M29.9034 109C30.1723 109.162 30.3319 109.254 30.5 109.355C30.3403 109.568 30.2059 109.853 30.0042 109.985C29.895 110.056 29.6681 109.863 29.5 109.782C29.6261 109.538 29.7521 109.284 29.9034 109Z" fill="white"/>
<path d="M24.0659 70C23.806 69.7405 23.5575 69.5808 23.501 69.3912C23.4784 69.2914 23.8399 68.972 23.9416 69.002C24.1676 69.0718 24.4048 69.2615 24.4952 69.4511C24.5404 69.5509 24.2579 69.7605 24.0659 70Z" fill="white"/>
<path d="M265.437 117.031C265.419 117.357 265.392 117.673 265.374 118C265.095 117.837 264.815 117.673 264.536 117.5L264.5 117.571C264.833 117.378 265.167 117.194 265.5 117L265.437 117.031Z" fill="white"/>
<path d="M82.5 37.5867C82.2379 37.7333 82.0151 37.8933 81.753 38C81.7268 38 81.4647 37.6 81.504 37.5467C81.6875 37.3333 81.9365 37.1733 82.1593 37C82.251 37.16 82.3558 37.3333 82.5 37.5867Z" fill="white"/>
<path d="M118.5 16.5859C118.331 16.7442 118.146 17.0292 118.038 16.9976C117.838 16.9501 117.685 16.7125 117.5 16.5542C117.685 16.3642 117.869 16.19 118.054 16C118.208 16.19 118.362 16.38 118.5 16.5859Z" fill="white"/>
<path d="M205.487 159C205.047 158.946 204.698 159 204.581 158.866C204.452 158.705 204.504 158.342 204.555 158.101C204.568 158.034 205.008 157.953 205.073 158.034C205.241 158.235 205.306 158.53 205.5 159H205.487Z" fill="white"/>
<path d="M34.5 61.4542C34.2387 61.7152 34.0856 61.9881 33.9234 62C33.7883 62 33.6441 61.7034 33.5 61.5372C33.6532 61.3474 33.7793 61.0626 33.9505 61.0033C34.0676 60.9677 34.2477 61.2287 34.5 61.4423V61.4542Z" fill="white"/>
<path d="M77.132 74C76.9077 73.8 76.7039 73.6 76.5 73.4C76.7446 73.2545 76.9689 73.1091 77.2339 73C77.2543 73 77.5193 73.2363 77.4989 73.3273C77.4377 73.5636 77.295 73.7818 77.1523 74H77.132Z" fill="white"/>
<path d="M248.431 182.075C248.162 182.388 247.9 182.687 247.631 183C247.592 182.825 247.546 182.662 247.5 182.487C247.831 182.325 248.169 182.163 248.5 182L248.423 182.062L248.431 182.075Z" fill="white"/>
<path d="M80.5 80.3385C80.3923 80.5692 80.3025 80.7846 80.1948 81C79.9615 80.8615 79.6204 80.7846 79.5127 80.6C79.4409 80.4769 79.6922 80.2154 79.7999 80C80.0333 80.1077 80.2666 80.2154 80.5 80.3385Z" fill="white"/>
<path d="M9.48889 109.382C9.32222 109.658 9.22222 109.829 9.12222 110C8.91111 109.829 8.7 109.645 8.5 109.474C8.6 109.303 8.73334 108.987 8.81111 109C9.04445 109.053 9.25556 109.237 9.5 109.382H9.48889Z" fill="white"/>
<path d="M234.491 54.6666C234.157 54.4333 233.833 54.2333 233.5 54C233.833 54.3333 234.167 54.6667 234.5 55V54.6666H234.491Z" fill="white"/>
<path d="M19.5 3.25381C19.3871 3.51042 19.3065 3.90521 19.129 3.98416C18.9677 4.06312 18.7097 3.82625 18.5 3.72755C18.5968 3.47094 18.6613 3.07616 18.8226 3.01694C19 2.93799 19.2742 3.15512 19.5 3.25381Z" fill="white"/>
<path d="M196.5 5.45833C196.265 5.64583 196.03 5.8125 195.769 6C195.665 5.85417 195.456 5.625 195.508 5.5625C195.691 5.35417 195.978 5.1875 196.213 5C196.291 5.14583 196.369 5.3125 196.474 5.45833H196.5Z" fill="white"/>
<path d="M49.5 129.391C49.3412 129.667 49.2485 129.828 49.1558 130C48.9308 129.828 48.6528 129.678 48.5072 129.471C48.4543 129.402 48.7058 129.161 48.8117 129C49.0499 129.138 49.275 129.264 49.5 129.391Z" fill="white"/>
<path d="M14.2442 149.031C13.9884 149.302 13.7558 149.573 13.5 149.854C13.8256 149.906 14.1744 149.948 14.5 150C14.5 149.667 14.4535 149.333 14.4302 149L14.2209 149.042L14.2442 149.031Z" fill="white"/>
<path d="M253.5 8.57284C253.32 8.73105 253.139 8.85761 252.959 9C252.811 8.76268 252.648 8.52537 252.5 8.27223C252.713 8.1773 252.959 7.97163 253.123 8.00328C253.287 8.05074 253.385 8.35134 253.5 8.55701V8.57284Z" fill="white"/>
<path d="M167.5 163.342C167.409 163.576 167.303 163.781 167.197 164C166.97 163.854 166.727 163.707 166.5 163.546C166.652 163.356 166.758 163.093 166.955 163.005C167.061 162.961 167.303 163.21 167.5 163.342Z" fill="white"/>
<path d="M173.069 172C173.22 172.306 173.349 172.587 173.5 172.893C173.22 172.944 172.961 173.02 172.702 172.995C172.615 172.995 172.464 172.612 172.508 172.536C172.659 172.306 172.874 172.153 173.09 172H173.069Z" fill="white"/>
<path d="M5.11156 18C5.26072 18.1746 5.51429 18.3651 5.49937 18.5397C5.49937 18.6984 5.20105 18.8413 5.03698 19C4.85799 18.7619 4.67899 18.5238 4.5 18.2857C4.69391 18.1905 4.90273 18.0952 5.11156 18Z" fill="white"/>
<path d="M293.618 46L293.5 45L294.5 45.3889L293.618 46Z" fill="white"/>
<path d="M198.5 98.2708C198.282 98.5833 198.132 98.7917 197.982 99C197.819 98.8125 197.587 98.6458 197.506 98.4479C197.465 98.3229 197.656 98.1563 197.737 98C197.969 98.0833 198.187 98.1562 198.5 98.2708Z" fill="white"/>
<path d="M224.706 174C224.615 173.788 224.434 173.545 224.525 173.394C224.638 173.227 225.024 173.121 225.296 173C225.364 173.212 225.568 173.455 225.477 173.621C225.386 173.788 225.001 173.879 224.706 174Z" fill="white"/>
<path d="M161.692 110C161.962 109.791 162.231 109.582 162.5 109.373C162.269 109.234 162.058 109.071 161.827 109.002C161.731 108.979 161.5 109.188 161.5 109.304C161.5 109.536 161.615 109.745 161.692 109.977V110Z" fill="white"/>
<path d="M214.381 117.415C214.112 117.268 213.828 117.146 213.56 117C213.545 117.341 213.53 117.659 213.5 118C213.828 117.854 214.172 117.707 214.5 117.561L214.381 117.415Z" fill="white"/>
<path d="M50.1923 138C49.9615 137.819 49.7308 137.637 49.5 137.425C49.5962 137.274 49.7308 136.972 49.8077 137.002C50.0577 137.093 50.2692 137.335 50.5 137.516C50.4038 137.667 50.3077 137.819 50.1923 138Z" fill="white"/>
<path d="M7.73528 90C7.67646 89.7391 7.5 89.4783 7.5 89.2174C7.5 89.1305 7.97058 89.087 8.2647 89C8.38235 89.2609 8.5 89.5217 8.5 89.7826C8.5 89.8695 7.97058 89.913 7.73528 90Z" fill="white"/>
<path d="M196.5 11.2941L197.5 11L197.25 12L196.5 11.2941Z" fill="white"/>
<path d="M323.771 59C324.008 58.7381 324.246 58.4762 324.5 58.2143C324.161 58.1429 323.839 58.0714 323.5 58C323.585 58.2976 323.653 58.5833 323.737 58.881L323.788 59H323.771Z" fill="white"/>
<path d="M16.5 35.8333L17.1471 35L17.5 36L16.5 35.8333Z" fill="white"/>
<path d="M234.5 55C234.167 54.6923 233.833 54.3077 233.5 54C233.625 54.3077 233.75 54.6923 233.875 55C234.042 54.6923 234.25 54.3846 234.458 54.1539L234.5 54.9231V55Z" fill="white"/>
<path d="M178.9 92.0313C179.1 92.3438 179.3 92.6563 179.5 92.9531L178.5 93C178.5 92.6719 178.5 92.3281 178.5 92L178.9 92.0313Z" fill="white"/>
<path d="M4.11871 88.1468C6.65417 95.758 15.9626 100.374 24.5084 104.239C30.0172 106.731 35.4624 109.186 41.0348 111.569C44.3401 112.985 47.5889 115.062 48.6412 118.063C50.0043 121.971 47.716 125.494 44.8203 128.429C38.1956 135.14 34.961 144.324 39.82 152.577C47.3841 165.423 69.1085 169.811 83.8764 173.574C101.844 178.16 120.312 181.293 138.957 182.926C163.98 185.123 188.205 183.604 213.079 181.461C229.895 180.009 246.725 175.615 259.777 166.923C263.76 164.27 267.645 160.567 266.832 156.485C266.366 154.138 265.483 150.236 263.478 148.496C257.715 143.49 249.882 141.173 242.452 137.853C242.452 137.853 242.452 137.853 242.438 137.841C234.097 132.505 239.641 122.463 250.038 123.255C278.74 125.446 295.528 123.159 306.757 118.333C326.052 110.05 324.738 97.0005 317.951 80.2596C311.157 63.5187 295.351 52.8162 277.991 42.0958C242.82 20.3788 199.985 6.10495 156.706 3.49387C137.912 2.3594 126.054 2.90563 108.285 8.05576C99.2304 10.6848 90.4022 14.5985 84.5756 20.757C78.749 26.9155 76.496 35.6612 80.8748 42.498C82.6899 45.3252 85.6279 48.1403 84.844 51.2676C84.1236 54.1488 80.5005 55.9255 77.0822 56.994C67.3994 60.0192 56.7985 60.2773 46.4589 60.8896C36.1122 61.5018 25.4053 62.6183 16.5983 67.0601C7.79125 71.496 1.44199 80.1335 4.11871 88.1528V88.1468ZM245.645 135.674L245.023 135.716C245.228 135.686 245.433 135.668 245.645 135.674Z" fill="#97C233"/>
<path d="M38.8096 30.0318C48.2278 30.3871 57.8563 34.2537 61.3882 40.5428C62.2501 42.0801 62.8107 43.8154 62.3132 45.4517C61.7666 47.2395 60.0147 48.637 58.0245 49.4639C50.9118 52.4338 41.6617 52.5968 34.0163 50.978C27.5413 49.6095 13.8273 43.169 20.1062 36.1753C24.1916 31.6274 31.4375 29.7523 38.8096 30.026V30.0318Z" fill="#97C233"/>
<path d="M297.394 139.074C301.647 138.485 308.728 141.529 312.392 143.516C314.589 144.706 316.547 146.414 317.255 148.552C317.964 150.697 317.122 153.297 314.869 154.373C313.739 154.913 312.399 155.035 311.108 154.992C306.644 154.865 302.468 153.036 298.749 150.879C296.98 149.858 295.247 148.722 294.026 147.228C292.798 145.733 292.138 143.801 292.706 142.045C293.275 140.29 295.282 138.856 297.394 139.062V139.074Z" fill="#97C233"/>
<path d="M247.082 19.8874C256.411 24.8036 266.982 28.5707 277.169 32.7405C281.242 34.4049 293.274 39.8778 296.8 35.0624C298.438 32.8234 296.941 29.8974 294.983 27.931C293.054 25.9941 290.337 24.4482 287.605 22.9733C281.199 19.5202 274.403 16.298 266.79 14.0946C259.916 12.1045 252.119 10.8843 244.585 11.0087C242.173 11.0501 239.215 11.4944 238.605 13.0107C238.08 14.296 239.626 15.5102 241.088 16.4402C243.017 17.6603 245.018 18.8035 247.089 19.8933L247.082 19.8874Z" fill="#97C233"/>
<path d="M68.155 92.3893C61.2483 82.3737 50.9806 74.0353 38.8583 68.6187C37.8351 68.1618 37.2738 67.1639 37.5864 66.22C38.1193 64.6269 40.4074 64.8674 42.0488 65.3122C45.7579 66.3162 51.1582 67.1158 54.8674 68.1197C52.0607 66.6288 49.0123 64.9395 44.0241 63.4666C43.6618 63.3584 43.4273 63.0698 43.4202 62.7452C43.3846 61.4527 42.404 59.8535 46.4472 59.7153C51.748 59.5349 58.8537 61.4106 63.8774 63.9235C62.3852 63.3404 60.3743 62.667 58.3705 61.8915C54.8035 60.5028 49.531 55.2785 57.6031 55.7054C58.2923 55.7415 61.3051 56.0901 61.8949 56.1442C65.0427 56.4388 67.9561 57.6171 70.8054 58.7774C79.8581 62.4686 86.3171 65.1018 95.3698 68.793C96.2366 64.4465 89.5502 61.8795 86.7079 58.5009C85.1234 56.6192 87.6814 54.1664 90.076 55.2785C92.5204 56.4088 95.1495 58.1943 97.1462 59.3425C107.158 65.0958 117.937 71.7569 120.723 81.7244C121.881 85.8605 121.504 90.183 121.121 94.4213C120.773 98.2809 120.424 102.14 120.083 106L68.1479 92.3953L68.155 92.3893Z" fill="#E37E4C"/>
<path d="M168.659 43.9322C169.94 45.2299 171.215 46.5276 172.496 47.8253C173.008 48.3469 173.853 47.5832 173.341 47.0678C172.06 45.7701 170.785 44.4724 169.504 43.1747C168.992 42.6531 168.147 43.4168 168.659 43.9322Z" fill="#111111"/>
<path d="M175.541 39.6086C176.142 40.9571 176.743 42.3056 177.344 43.6599C177.611 44.2611 178.726 43.9985 178.459 43.3914C177.858 42.0429 177.257 40.6886 176.656 39.3401C176.389 38.7389 175.274 39.0015 175.541 39.6086Z" fill="#111111"/>
<path d="M182.503 36.4966C182.467 38.5723 182.721 40.6064 183.272 42.6285C183.446 43.2786 184.657 43.0042 184.483 42.3541C183.961 40.4215 183.722 38.4769 183.758 36.4966C183.772 35.8345 182.518 35.8345 182.503 36.4966Z" fill="#111111"/>
<path d="M183.579 103.771C189.043 99.3533 192.159 93.582 191.382 87.1278C190.944 84.396 190.294 81.6641 189.417 79C183.615 80.5013 178.788 84.6359 175.904 89.3797C175.586 89.392 175.261 89.4104 174.936 89.435C167.819 90.0257 162.15 94.0619 157.5 99.0395C163.974 105.684 175.211 110.471 183.572 103.771H183.579Z" fill="#E37E4C"/>
<path d="M227.688 118.097L221.323 115.044C220.577 114.895 219.817 115.15 219.121 115.423C203.986 121.275 194.216 134.871 192.521 148.834C192.521 148.887 192.507 148.947 192.5 149C207.509 144.429 222.807 138.885 236.5 131.55C233.56 127.068 230.62 122.58 227.681 118.097H227.688Z" fill="#111111"/>
<path d="M262.994 172.229C254.259 158.817 245.516 145.412 236.781 132C223.087 139.374 207.79 144.958 192.78 149.558C191.156 163.554 196.74 177.675 205.841 189.434C213.592 199.439 224.705 208.382 238.546 210.709C242.267 211.335 246.072 211.467 249.863 211.592C263.74 212.063 277.623 212.529 291.5 213C281.042 199.917 272.011 186.058 262.994 172.229Z" fill="#E37E4C"/>
<path d="M245.548 201.117C240.238 192.257 234.314 183.684 229.188 174.728C223.088 164.069 217.566 153.045 213.011 141.81C226.783 136.151 237.086 125.247 245.957 114.42C236.366 106.321 226.769 98.2224 217.179 90.1235C210.494 84.4824 202.532 78.4157 193.139 79.0451C191.969 79.1231 190.833 79.3089 189.733 79.5907C190.608 82.1924 191.256 84.8481 191.694 87.5098C192.469 93.7983 189.359 99.4214 183.908 103.726C175.559 110.254 164.354 105.584 157.895 99.1157C155.673 101.436 153.692 103.965 151.887 106.441C145.371 115.403 139.384 124.701 135.195 134.629C124.646 159.603 126.021 186.945 127.53 213.466L262.5 225C254.369 218.376 250.526 209.426 245.548 201.117Z" fill="#2A6E26"/>
<path d="M177.774 65.2287C175.603 58.8391 180.277 51.9394 188.129 52.0654C197.265 52.2094 200.924 60.561 214.648 61.2929C221.909 61.6769 229.317 59.019 236.303 60.723C246.538 63.2188 250.295 75.1642 260.545 77.6121C264.161 78.476 268.038 77.978 271.774 78.332C282.841 79.376 291.455 88.2975 292.449 97.687C292.766 100.699 292.449 103.837 293.774 106.639C296.213 111.822 303.445 114.33 306.455 119.292C309.381 124.11 307.534 130.211 303.643 134.525C295.931 143.069 280.275 145.528 269.504 139.889C263.893 136.949 259.515 132.155 253.178 130.589C246.172 128.861 238.601 131.549 231.383 130.637C226.166 129.977 221.352 127.349 218.49 123.606C212.829 116.184 214.761 105.223 207 99.3189C202.347 95.7851 194.706 94.5312 192.761 89.4974C191.125 85.2676 194.565 80.2039 191.936 76.3461C190.343 74.0122 187.072 73.0043 184.372 71.5824C181.665 70.1605 179.177 67.4306 180.481 64.9647L177.788 65.2107L177.774 65.2287Z" fill="#111111"/>
<path d="M169.116 78.2593L189.156 56C189.156 56 197.642 68.0308 190.893 76.9046L185.909 73.0794L182.531 84.1374C181.295 88.1954 176.036 90.2005 171.759 88.2431C171.684 88.2073 171.615 88.1775 171.539 88.1417C167.372 86.2082 166.198 81.4937 169.109 78.2593H169.116Z" fill="#E37E4C"/>
<path d="M176.602 63.7146C177.065 65.3239 178.956 66.3086 180.834 65.9123C182.711 65.516 183.86 63.8947 183.398 62.2854C182.935 60.6761 181.044 59.6914 179.166 60.0877C177.289 60.484 176.14 62.1053 176.602 63.7146Z" fill="#E37E4C"/>
<path d="M181.425 63.512C180.743 62.7216 180.053 61.9311 179.35 61.1509C179.033 60.7968 178.253 61.1304 178.577 61.4897C179.281 62.2699 179.963 63.0604 180.653 63.8457C180.963 64.205 181.743 63.8713 181.425 63.512Z" fill="#111111"/>
<path d="M186.5 73.1649L182.787 84L182.5 70L186.5 73.1649Z" fill="#111111"/>
<path d="M192.493 70.1893C192.493 70.1893 188.406 68.1337 185.5 66C185.5 66 187.599 72.4914 191.372 74L192.5 70.1953L192.493 70.1893Z" fill="white"/>
<path d="M191.86 62.8387C192.829 64.6646 193.676 66.6311 194.21 68.5783C194.484 68.3549 194.751 68.125 195.018 67.9016C194.11 67.6079 193.203 67.3206 192.295 67.0269C191.502 66.7715 191.159 67.8377 191.944 68.0931C192.852 68.3868 193.76 68.6741 194.675 68.9678C195.171 69.1274 195.59 68.6613 195.483 68.291C194.919 66.248 194.019 64.1986 192.997 62.2896C192.654 61.6384 191.517 62.2002 191.86 62.8451V62.8387Z" fill="#111111"/>
<path d="M189.491 64.2555C189.21 62.6542 186.558 61.6771 184.963 62.0978C184.15 62.3081 184.499 63.4413 185.312 63.2309C186.277 62.9799 188.055 63.5973 188.222 64.5744C188.351 65.3208 189.62 65.0019 189.491 64.2623V64.2555Z" fill="#111111"/>
<path d="M111.5 120.687C114.558 114.587 122.216 105.177 125.752 99.2691C132.206 88.4818 140.279 77.3816 153.278 72.5324C156.793 71.2208 160.83 70.4267 164.451 71.5036C166.692 72.1714 168.594 73.507 170.123 75.0593C175.71 80.7447 176.308 88.7706 176.442 96.1887C176.83 118.01 175.371 140.03 168.784 161.117C167.939 163.819 165.093 170.322 162.796 172.314C160.499 174.311 158.371 171.478 155.758 169.793L111.5 120.681V120.687Z" fill="#2A6E26"/>
<path d="M194.835 87.381C193.316 92.6125 197.125 97.4425 202.997 98.9766C205.258 99.5699 207.117 100.319 208.007 102.297C208.707 103.849 208.763 105.568 208.77 107.21C208.791 111.309 208.728 115.408 208.707 119.507C208.685 123.187 208.247 127.118 209.307 130.725C210.078 133.35 211.873 135.591 214.261 137.359C219.526 141.266 226.479 143.022 231.722 146.977C235.213 149.614 238.337 152.874 240.803 156.236C242.393 158.405 243.191 161.593 239.651 162.726C236.704 163.673 234.033 161.294 234.634 158.813C234.789 158.159 233.609 157.884 233.454 158.537C232.867 160.97 234.641 163.667 237.722 163.972C240.358 164.236 242.965 162.588 243.418 160.377C244.131 156.913 240.04 153.359 237.701 150.884C235.03 148.062 232.005 145.521 228.408 143.555C221.9 140.002 212.565 137.587 210.487 130.438C209.258 126.201 209.915 121.413 209.943 117.086C209.965 112.903 210.445 108.517 209.816 104.358C209.59 102.878 209.124 101.362 207.993 100.175C206.544 98.665 204.474 98.3294 202.403 97.7182C197.584 96.2919 194.8 91.8274 196.015 87.6446C196.206 86.9974 195.026 86.7218 194.835 87.369V87.381Z" fill="#111111"/>
<path d="M177.947 61.8728C176.093 55.5044 184.302 50.7896 190.749 50.1486C193.776 49.849 196.894 50.1785 199.71 51.167C202.933 52.2933 205.174 54.2643 207.351 56.5169C211.431 60.7345 216.642 63.5323 223.292 62.5498C230.125 61.5433 236.115 57.0142 243.356 58.3741C250.308 59.6801 254.304 64.5507 257.731 69.4333C260.498 73.3693 263.721 77.4492 269.41 78.3059C275.723 79.2584 282.401 76.2869 288.546 78.3538C295.681 80.7502 297.542 88.137 301.777 92.8937C305.183 96.7279 311.637 99.939 316.953 96.6081C320.766 94.2117 320.345 88.4006 315.373 87.3282C314.614 87.1664 314.291 88.1669 315.05 88.3287C318.14 88.9996 319.235 92.4025 317.585 94.5892C315.534 97.315 310.864 97.3989 307.802 96.0809C301.334 93.3071 299.551 86.5553 295.492 81.9423C291.763 77.7068 286.882 76.245 280.8 76.7602C277.682 77.0238 274.55 77.6049 271.397 77.4552C267.998 77.2994 265.14 76.0653 262.865 73.9265C258.96 70.2661 257.071 65.3775 252.913 61.8728C248.826 58.428 243.264 56.3851 237.492 57.3377C230.778 58.446 224.999 62.6935 217.842 61.4774C213.952 60.8124 211.129 58.7815 208.664 56.2473C206.74 54.2763 204.872 52.3532 202.231 51.0592C197.287 48.6449 190.981 48.3513 185.728 50.1905C180.314 52.0836 175.236 56.8344 176.781 62.1424C176.971 62.7894 178.144 62.5138 177.954 61.8668L177.947 61.8728Z" fill="#111111"/>
<path d="M165.764 168.628C170.131 151.738 173.04 134.704 174.498 117.497C174.551 116.834 173.257 116.834 173.205 117.497C171.754 134.614 168.86 151.553 164.515 168.354C164.35 169.004 165.592 169.279 165.764 168.628Z" fill="#111111"/>
<path d="M171.714 136.663C173.958 131.975 176.209 127.288 178.453 122.607C178.747 122.003 177.572 121.74 177.286 122.337C175.042 127.025 172.791 131.712 170.547 136.393C170.253 136.997 171.428 137.26 171.714 136.663Z" fill="#111111"/>
<path d="M203.515 82.3768C203.388 84.5505 204.07 86.6768 205.609 88.4418C207.205 90.2719 209.525 91.1426 211.725 92.3331C217.018 95.1997 216.561 100.69 219.64 104.818C219.949 105.239 220.743 104.854 220.427 104.427C217.868 100.992 217.96 96.4198 214.656 93.3459C212.927 91.7349 210.46 91.0064 208.428 89.733C205.652 87.9917 204.26 85.2494 204.429 82.3709C204.457 81.8734 203.543 81.8793 203.515 82.3709V82.3768Z" fill="#BBC262"/>
<path d="M226.58 116.562C229.553 120.415 235.294 121.227 240.432 121.203C244.414 121.192 248.515 120.798 252.399 121.748C255.799 122.582 258.659 124.413 260.636 126.83C260.965 127.229 261.75 126.853 261.421 126.447C257.958 122.212 252.588 120.444 246.538 120.363C240.096 120.271 231.459 121.482 227.358 116.174C227.043 115.768 226.258 116.145 226.573 116.556L226.58 116.562Z" fill="#BBC262"/>
<path d="M162.869 172.447C170.374 167.028 164.97 151.109 150.798 136.891C136.626 122.673 119.054 115.54 111.549 120.959C104.044 126.378 109.448 142.297 123.62 156.515C137.792 170.733 155.364 177.866 162.869 172.447Z" fill="#111111"/>
<path d="M66.6458 89.9051C66.5964 91.549 66.6105 93.199 66.6528 94.8429C67.1533 113.604 71.7705 132.281 80.1941 149.626C84.8324 159.177 90.8312 168.555 100.101 175.227C109.37 181.898 122.46 185.438 133.979 182.156C146.646 178.55 154.583 171.477 160.145 161.139C160.314 156.706 157.107 152.11 153.244 146.752C150.523 142.972 148.662 140.116 141.408 138.089C141.408 138.089 134.493 125.309 130.799 117.204C126.02 106.722 123.271 97.1887 120.86 86.7373C102.892 90.0791 84.7831 92.029 66.6599 89.9051H66.6458Z" fill="#E37E4C"/>
<path d="M49.4385 102.112L46.83 103.274C45.248 104.241 45.4589 104.558 45.0933 106.146L44.1793 110.883C44.1441 111.039 43.8699 111.039 43.8277 110.883L42.9278 106.175C42.5692 104.592 42.6043 104.241 41.0364 103.274L38.5686 102.112C38.4771 102.054 38.4771 101.939 38.5686 101.881L41.3599 100.788C42.9207 99.8149 42.8293 99.1703 43.1809 97.5932L43.8207 93.1209C43.8559 92.9597 44.1371 92.9597 44.1723 93.1209L44.9246 97.7543C45.2761 99.3257 45.466 99.9761 47.0128 100.949L49.4314 101.876C49.5229 101.933 49.5229 102.048 49.4314 102.106L49.4385 102.112Z" fill="white"/>
<path d="M151.438 47.6177L148.83 48.845C147.248 49.8657 147.459 50.1999 147.093 51.8767L146.179 56.877C146.144 57.041 145.87 57.041 145.828 56.877L144.928 51.9071C144.569 50.2363 144.604 49.8657 143.036 48.845L140.569 47.6177C140.477 47.557 140.477 47.4354 140.569 47.3747L143.36 46.2203C144.921 45.1935 144.829 44.5131 145.181 42.8484L145.821 38.1276C145.856 37.9575 146.137 37.9575 146.172 38.1276L146.925 43.0185C147.276 44.6771 147.473 45.3637 149.013 46.3904L151.431 47.3686C151.523 47.4294 151.523 47.5509 151.431 47.6116L151.438 47.6177Z" fill="white"/>
<path d="M132.381 28.1945L127.882 30.261C125.143 31.981 125.51 32.5463 124.883 35.3725L123.304 43.7903C123.239 44.0699 122.763 44.0699 122.699 43.7903L121.148 35.4211C120.528 32.607 120.593 31.981 117.883 30.261L113.622 28.1945C113.463 28.0912 113.456 27.8845 113.622 27.7812L118.438 25.8424C121.127 24.1162 120.975 22.9675 121.588 20.1656L122.699 12.2097C122.763 11.9301 123.239 11.9301 123.304 12.2097L124.602 20.4513C125.208 23.241 125.546 24.4019 128.207 26.1341L132.381 27.7812C132.54 27.8845 132.54 28.0912 132.381 28.1945Z" fill="white"/>
<path d="M139.516 132.48C141.441 138.463 144.138 144.252 147.591 149.804C147.866 150.247 148.721 149.863 148.446 149.414C145.032 143.915 142.373 138.186 140.471 132.273C140.319 131.795 139.364 131.996 139.516 132.48Z" fill="#111111"/>
<path d="M74.0858 77.3606C79.9582 76.7739 86.1899 75.6431 92.1054 76.3094C97.2662 76.89 102.758 79.6649 103.254 84.4935C103.318 85.1658 104.569 85.1719 104.497 84.4935C104.073 80.2883 100.184 77.1406 95.6202 75.8815C88.8278 73.999 80.9788 75.6126 74.093 76.3032C73.3095 76.3827 73.2952 77.4401 74.093 77.3606H74.0858Z" fill="#111111"/>
<path d="M105.504 92.4929C105.694 93.831 105.884 95.169 106.066 96.5071C106.157 97.1613 107.587 97.1673 107.496 96.5071C107.306 95.169 107.116 93.831 106.934 92.4929C106.843 91.8387 105.413 91.8327 105.504 92.4929Z" fill="#111111"/>
<path d="M107.522 92.6025C108.092 94.2886 108.655 95.9691 109.225 97.6551C109.428 98.2601 110.68 98.0024 110.478 97.3975C109.908 95.7114 109.345 94.0309 108.775 92.3449C108.572 91.7399 107.32 91.9976 107.522 92.6025Z" fill="#111111"/>
<path d="M132.928 91.4998C139.587 93.1557 150.834 96.8933 155.247 89.9563C156.972 87.2536 157.197 83.6816 157.429 80.6714C157.69 77.3714 157.302 74.0478 155.078 71.2328C154.649 70.6887 153.593 71.1973 154.03 71.7473C156.021 74.2607 156.416 77.1644 156.254 80.1214C156.092 82.9424 155.867 86.1714 154.543 88.8031C150.94 95.9944 139.559 92.0794 133.252 90.5063C132.499 90.317 132.175 91.3047 132.928 91.4939V91.4998Z" fill="#97C233"/>
<path d="M132.804 87.3641C137.701 89.6207 145.546 92.2133 149.09 86.764C150.477 84.6275 150.533 81.9989 150.491 79.6223C150.449 77.2638 150.197 74.7012 147.906 73.1228C147.304 72.7087 146.442 73.4409 147.052 73.855C149.097 75.2653 149.244 77.5278 149.279 79.6223C149.314 81.5728 149.3 83.6433 148.453 85.4857C145.805 91.2591 137.96 88.5644 133.414 86.4699C132.727 86.1519 132.111 87.0521 132.804 87.3641Z" fill="#97C233"/>
<path d="M142.44 127.342C145.317 125.808 149.988 124.499 153.432 125.25C156.774 125.978 159.789 128.93 161.496 131.282C165.281 136.514 165.106 143 161.401 148.22C160.987 148.802 162.077 149.329 162.484 148.747C166.639 142.891 166.559 135.495 161.881 129.858C159.948 127.53 156.89 124.796 153.432 124.183C149.676 123.517 144.947 124.759 141.794 126.439C141.111 126.802 141.743 127.712 142.426 127.342H142.44Z" fill="#97C233"/>
<path d="M146.126 129.114C154.257 128.601 160.191 134.948 157.541 141.339C157.27 142.002 158.53 142.283 158.802 141.627C161.724 134.598 155.08 127.463 146.126 128.032C145.295 128.082 145.288 129.17 146.126 129.114Z" fill="#97C233"/>
<path d="M132.754 212.489C133.304 208.568 135.598 205.134 138.209 201.967C140.531 199.158 143.071 196.137 146.536 194.289C150.601 192.126 154.158 193.232 157.969 195.134C160.658 196.472 163.445 197.663 166.621 196.946C170.149 196.143 172.873 193.706 176.021 192.241C179.309 190.709 182.937 189.743 186.635 189.311C193.889 188.466 201.49 189.664 207.848 192.806C216.041 196.861 220.727 203.979 224.39 211.224C224.7 211.844 225.759 211.309 225.441 210.695C222.047 203.985 217.784 197.335 210.636 193.086C204.489 189.433 196.839 187.706 189.401 188.041C185.724 188.205 182.069 188.849 178.646 190.035C174.913 191.323 171.998 193.53 168.505 195.147C163.671 197.383 160.276 194.806 156.035 193.025C152.937 191.724 149.747 191.615 146.656 193.013C142.697 194.806 139.882 198.143 137.327 201.207C134.483 204.623 132.098 208.264 131.505 212.501C131.413 213.169 132.634 213.163 132.726 212.501L132.754 212.489Z" fill="#97C233"/>
<path d="M220.087 161.502C220.413 166.106 219.891 170.541 218.963 175.072C218.265 178.463 218.204 181.667 219.857 184.847C221.429 187.857 224.037 190.373 226.801 192.558C229.694 194.844 232.885 197.276 236.766 197.988C237.505 198.121 237.816 197.119 237.078 196.98C233.217 196.274 230.012 193.758 227.167 191.447C224.416 189.221 221.795 186.62 220.474 183.471C218.97 179.899 219.938 176.424 220.623 172.797C221.334 169.062 221.524 165.285 221.259 161.502C221.212 160.833 220.04 160.833 220.087 161.502Z" fill="#97C233"/>
<path d="M225.289 173.621C225.86 175.932 224.402 178.078 224.505 180.377C224.581 181.983 225.481 183.377 226.685 184.593C229.4 187.34 233.422 190.191 237.925 189.99C238.688 189.956 238.695 188.963 237.925 188.998C233.587 189.187 229.187 186.061 226.891 183.176C224.354 179.993 227.276 176.753 226.437 173.357C226.286 172.732 225.138 172.996 225.289 173.621Z" fill="#97C233"/>
<path d="M182.531 104.618C183.712 107.397 185.16 110.515 188.268 112.083C190.821 113.372 194.115 113.39 196.318 111.572C196.874 111.115 196.03 110.391 195.481 110.848C193.251 112.689 189.778 112.089 187.658 110.414C185.64 108.823 184.604 106.518 183.684 104.35C183.424 103.733 182.278 104 182.538 104.624L182.531 104.618Z" fill="#97C233"/>
<path d="M185.5 101.508C185.569 105.795 190.445 109.36 195.865 108.971C196.708 108.91 196.716 107.86 195.865 107.92C191.173 108.254 186.888 105.261 186.826 101.508C186.819 100.834 185.492 100.828 185.5 101.508Z" fill="#97C233"/>
<path d="M97.7357 21.0398C96.4513 22.9304 95.096 24.7966 93.7761 26.6689C93.1446 27.5622 92.5201 28.4555 91.8886 29.3427C91.2925 30.1932 90.6681 31.5331 89.8875 32.249C90.3488 32.0165 90.81 31.784 91.2783 31.5515C90.441 31.68 89.0715 31.3863 88.1419 31.3496C86.7298 31.2945 85.3248 31.2394 83.9127 31.1844C81.3794 31.0865 78.8462 31.0253 76.32 30.8356C77.0438 32.3408 77.7605 33.8398 78.4843 35.345C80.6557 33.8704 85.488 33.0077 85.0268 29.9117C84.8281 28.5779 83.6502 26.9075 82.8341 25.7694C82.0323 24.6436 81.0034 23.8115 79.7048 23.1262C78.5836 22.5389 76.8877 22.7102 75.9865 23.5545C74.1487 25.2861 72.7437 27.3664 71.3103 29.3427C70.5226 30.4257 69.7421 31.5148 68.9544 32.5978C68.628 33.0383 68.3087 33.4849 67.9681 33.9194C67.7694 34.1763 67.5636 34.4333 67.3507 34.6781C66.8256 35.0758 66.7617 35.2043 67.1378 35.0635C67.9255 34.9718 68.7131 34.8861 69.5008 34.7943C68.2377 34.4823 66.4708 32.9159 65.3709 32.2C63.7956 31.1782 62.2416 30.1197 60.7373 29.0184C61.0069 29.4161 61.2766 29.8138 61.5462 30.2176C61.532 30.1381 61.5178 30.0586 61.5036 29.979C61.4043 30.6459 61.2978 31.319 61.1985 31.9859C62.937 29.2387 64.8955 26.6016 66.8753 23.9828C67.7978 22.7652 68.7202 21.0276 70.0969 20.1404C71.438 19.2715 73.4462 19.504 75.0357 19.4429C78.4488 19.3083 81.9613 19.1063 85.3674 19.4429C87.4323 19.6448 88.0852 20.226 89.1425 21.7434C90.0791 23.0834 90.7745 24.5274 91.5054 25.953C91.9879 26.8891 93.8187 27.5744 94.947 27.1706C97.019 26.4303 99.0484 25.5798 101.142 24.8823C100.155 24.6559 99.1691 24.4295 98.1898 24.2092C98.204 24.2215 98.2182 24.2337 98.2324 24.2459C101.078 26.6077 105.414 22.8509 102.554 20.483C102.54 20.4708 102.525 20.4585 102.511 20.4463C101.795 19.8528 100.546 19.4429 99.5593 19.7733C97.4589 20.4708 95.4437 21.3151 93.3646 22.0616C94.5141 22.4654 95.6637 22.8754 96.8061 23.2792C95.5785 20.893 94.358 18.4027 92.2505 16.4692C90.0578 14.4562 86.8221 14.187 83.785 14.0524C80.7834 13.9239 77.7534 14.0585 74.7518 14.1687C71.4664 14.291 68.259 14.3767 65.7257 16.4264C63.5898 18.1518 62.0855 20.6237 60.5173 22.7285C58.8923 24.9006 56.7706 27.2257 55.7275 29.667C54.5212 32.4754 58.4027 34.2253 60.5457 35.6509C62.6603 37.0521 65.1652 39.2731 67.7907 39.8972C71.1329 40.6926 73.2475 36.6727 74.6667 34.727C76.4548 32.2612 78.0656 29.4589 80.3576 27.2991C79.1158 27.4398 77.8811 27.5867 76.6393 27.7274C78.0656 28.4738 78.6617 30.3584 79.3642 31.6004C79.2578 30.9213 79.1584 30.2421 79.052 29.563C79.0378 29.6241 79.0165 29.6853 79.0023 29.7465C79.4706 29.2203 79.939 28.688 80.4073 28.1618C78.3991 29.4345 76.0859 30.3033 74.1203 31.6371C71.8425 33.1913 73.9642 35.9752 76.2845 36.1465C79.2152 36.3668 82.16 36.428 85.0977 36.5442C86.4673 36.5993 87.8368 36.6544 89.2134 36.7033C90.512 36.7522 92.0234 37.0092 93.2581 36.5442C94.5212 36.0731 95.0676 35.0697 95.7488 34.0968C96.5861 32.8976 97.4305 31.7044 98.2679 30.5113C99.8645 28.2413 101.504 25.9897 103.058 23.7014C105.059 20.7522 99.7367 18.109 97.7357 21.052V21.0398Z" fill="white"/>
<path d="M85.4809 63.6478C85.4665 65.5358 85.4448 67.4238 85.4304 69.3118C85.9427 68.5578 86.455 67.7977 86.9745 67.0438C86.9601 67.0499 86.9457 67.056 86.9312 67.0622C88.3527 67.3748 89.7814 67.6935 91.2028 68.0062C90.4163 67.0376 83.5615 56.7089 83.5688 56.7089C83.7131 56.666 82.8111 59.2282 83.7997 57.5977C84.0811 57.1318 84.3553 56.6721 84.6439 56.2124C85.3294 55.1151 86.0365 54.024 86.758 52.939C87.3641 52.0318 87.9703 51.1246 88.6124 50.2358C89.0165 49.678 89.435 49.1386 89.8391 48.5869C89.904 48.5011 90.6184 47.5632 90.3225 47.741C88.7568 46.9747 87.1838 46.2024 85.618 45.4361C85.6541 47.3916 85.6974 49.3408 85.7334 51.2963C85.7623 52.8594 87.126 53.7788 88.8361 53.9689C91.4987 54.2631 94.5653 54.116 97.0402 53.1965C98.0576 52.8165 98.4905 51.7805 98.5844 50.9285C98.8297 48.5501 96.7516 45.9327 95.4672 43.9405C93.9953 41.6602 92.2202 39.3799 91.2678 36.8912C91.2678 37.3509 91.2678 37.8168 91.2678 38.2765C91.3038 38.203 91.3327 38.1233 91.3688 38.0497C90.8926 38.5769 90.4163 39.1102 89.9401 39.6373C91.7224 38.6872 93.5695 37.8413 95.46 37.0506C97.1629 36.3456 99.0894 35.3894 100.987 35.1687C99.8182 34.7641 98.6493 34.3534 97.4876 33.9489C99.5657 36.5418 100.965 39.7661 102.632 42.5735C103.087 43.3459 103.541 44.1121 104.003 44.8845C104.321 45.4239 105.23 46.4292 105.252 47.0299C105.288 48.2559 103.491 50.1684 102.827 51.2533C101.081 54.0976 99.5585 57.2544 97.3072 59.8474C96.2537 61.0611 95.5466 60.9691 93.8365 60.9323C92.0976 60.8956 90.373 60.9323 88.6413 61.0182C84.6439 61.2266 84.5789 66.535 88.598 66.3266C92.7253 66.1059 97.6175 67.0928 100.893 64.4325C104.263 61.6924 106.117 57.3525 108.239 53.9014C109.343 52.1054 110.93 50.1868 111.392 48.1823C111.875 46.0737 110.642 44.296 109.566 42.4816C108.484 40.6549 107.402 38.8282 106.319 37.0015C105.215 35.1319 104.27 32.9926 102.885 31.264C102.019 30.1852 100.85 29.8725 99.3853 30.0442C96.6506 30.3629 93.7283 31.8525 91.2966 32.9068C89.1031 33.8569 85.185 35.04 85.1562 37.5532C85.1273 39.7906 87.3858 42.4141 88.598 44.2899C89.3484 45.4545 90.1205 46.6131 90.8565 47.79C91.3544 48.5869 92.4583 49.9906 92.3645 50.8856C92.8768 50.1316 93.3891 49.3715 93.9087 48.6175C92.6965 49.0711 90.2359 48.8075 88.9155 48.6604C89.9473 49.5493 90.9792 50.4442 92.0182 51.333C91.9821 49.3776 91.9388 47.4283 91.9027 45.4729C91.8667 43.5911 89.233 41.9605 87.1982 43.1681C84.7305 44.6331 83.208 47.5816 81.7432 49.7577C80.899 51.0204 80.0692 52.2893 79.2683 53.5704C78.6478 54.5696 77.7675 55.6607 77.551 56.7886C77.1181 59.0137 79.5497 61.7721 80.7836 63.6172C82.3854 65.9956 84.0089 68.4536 85.8417 70.7094C86.8302 71.9231 88.5331 72.3767 90.1133 71.6534C90.1277 71.6473 90.1421 71.6411 90.1566 71.635C91.109 71.2059 91.6935 70.2619 91.7007 69.367C91.7151 67.479 91.7368 65.591 91.7512 63.703C91.7801 60.2826 85.5386 60.2519 85.5025 63.6662L85.4809 63.6478Z" fill="white"/>
<path d="M62.5729 53.7386C68.1326 53.7386 73.7139 53.6198 79.2736 53.7445C78.5553 53.4951 77.8298 53.2516 77.1115 53.0022C77.1402 53.026 77.169 53.0497 77.1977 53.0735C76.8888 52.4559 76.58 51.8443 76.2783 51.2267C76.2495 54.8075 76.1418 58.5011 75.7683 62.0641C76.8098 61.2149 77.8586 60.3657 78.9001 59.5106C74.9063 59.8075 70.8622 59.7897 66.854 59.8194C65.3815 59.8313 63.3127 60.0985 61.912 59.5759C60.4251 59.0237 59.5416 57.4441 58.7155 56.3633C57.5662 54.8669 56.4529 53.3585 55.2892 51.874C54.4559 50.7991 53.3928 49.8134 52.653 48.691C50.85 45.9653 54.5134 42.9606 55.6124 40.4071C56.0865 39.3026 55.2748 38.0912 54.1686 37.5033C52.4878 36.6125 50.419 35.9652 48.8818 34.9201C48.1492 36.3869 47.4093 37.8536 46.6694 39.3204C49.3056 39.1066 52.0424 39.2551 54.693 39.2254C55.95 39.2135 57.2071 39.1957 58.4641 39.1838C59.204 39.1779 59.9439 39.166 60.6909 39.1601C61.4236 39.1541 62.9608 39.5401 61.4092 38.7562C59.9798 38.0377 60.9351 38.7028 61.3158 39.1779C61.6606 39.6054 61.991 40.0508 62.3215 40.4843C63.0541 41.4463 63.7653 42.4202 64.4692 43.3941C65.6688 45.0627 67.2347 46.8383 68.0967 48.6376C68.3625 47.8122 68.6283 46.9867 68.8868 46.1672C68.8725 46.1791 68.8653 46.1851 68.8509 46.1969C70.108 46.0604 71.3578 45.9178 72.6149 45.7813C70.3091 44.9736 68.1111 43.7741 65.7263 43.1506C64.7565 42.8952 63.3558 43.1506 62.695 43.8216C60.4898 46.0782 59.125 48.9286 59.5991 51.8264C59.8217 53.2041 61.9336 53.9702 63.4061 53.6436C65.2019 53.2457 65.8268 51.8799 65.6042 50.4963C65.4749 49.6946 66.5595 48.0081 67.1198 47.438C66.107 47.6637 65.1013 47.8834 64.0885 48.1091C65.9561 48.596 67.7016 49.5996 69.5118 50.229C70.8047 50.6804 72.2198 50.6982 73.2757 49.8134C73.2901 49.8015 73.2973 49.7956 73.3116 49.7837C74.0156 49.1958 74.4969 48.1269 74.1018 47.3133C73.0028 45.033 71.3435 42.9012 69.8278 40.799C69.0592 39.7361 68.2835 38.6731 67.479 37.628C66.7391 36.6541 65.9489 35.3714 64.8499 34.6529C63.6216 33.8512 62.185 34.0056 60.7196 34.0234C59.2184 34.0412 57.7171 34.059 56.2158 34.0709C53.0768 34.1066 49.8228 33.9343 46.7054 34.1837C44.3206 34.3738 42.18 37.0044 44.493 38.5781C46.4899 39.932 48.8818 40.8109 51.044 41.957C50.5627 40.989 50.0814 40.0211 49.6002 39.0532C48.8531 40.7931 47.4237 42.3074 46.5832 44.0176C45.6782 45.8466 45.5632 47.8597 46.4037 49.7243C47.1579 51.4048 48.5299 52.7113 49.7007 54.1899C51.0727 55.9358 52.3657 57.7172 53.7233 59.4631C54.8798 60.9477 56.1081 62.5035 57.8751 63.5368C59.7284 64.6235 61.9551 64.9145 64.1891 64.956C69.0377 65.057 74.0156 64.9976 78.8427 64.6354C80.6241 64.5047 81.8165 63.5843 81.9745 62.0819C82.2403 59.57 82.2187 57.0284 82.3265 54.5106C82.4127 52.5747 83.21 49.7421 80.4732 48.7979C79.3096 48.3941 77.8586 48.5723 76.6302 48.5723C75.0212 48.5723 73.405 48.5723 71.796 48.5723C68.736 48.5723 65.676 48.5723 62.6088 48.5723C58.6006 48.5723 58.5575 53.7148 62.5657 53.7148L62.5729 53.7386Z" fill="white"/>
<path d="M100.5 22.5293C100.415 22.6475 100.336 22.7657 100.251 22.8839C98.8718 24.7634 97.4996 26.6488 96.1202 28.5283C94.8546 30.26 93.5891 31.9918 92.3306 33.7235C92.2239 33.8653 92.1173 33.9244 91.9111 33.9126C90.9157 33.8653 89.9274 33.8299 88.932 33.7944C87.9508 33.7589 86.9767 33.7176 85.9955 33.6821C84.6375 33.6289 83.2795 33.5816 81.9215 33.5284C80.9687 33.493 80.0089 33.4575 79.0561 33.4161C78.1603 33.3807 77.2715 33.3393 76.3472 33.2684C76.4112 33.227 76.4752 33.1738 76.5392 33.1384C77.2999 32.7483 78.0607 32.3523 78.8286 31.9681C79.696 31.5307 80.5777 31.0993 81.4451 30.6619C81.6442 30.5615 81.8219 30.4314 82.0139 30.3132C82.0921 30.2659 82.1134 30.2187 82.0637 30.1359C81.5091 29.1962 80.9758 28.2446 80.3928 27.3226C80.0231 26.7375 79.5254 26.2115 78.8642 25.8155C78.6722 25.6973 78.4589 25.6027 78.2171 25.4786C77.9825 25.7032 77.7337 25.8982 77.5417 26.1287C76.8805 26.8971 76.205 27.6654 75.5935 28.4633C74.1289 30.3723 72.7069 32.305 71.2493 34.2199C70.6094 35.0651 69.9268 35.8807 69.1518 36.6491C69.0665 36.7377 68.9599 36.8146 68.8817 36.9032C68.7821 37.0214 68.6684 37.0214 68.5333 36.9564C68.0214 36.6964 67.481 36.4659 67.0046 36.1763C65.4688 35.2483 63.9402 34.3086 62.44 33.3452C61.1744 32.5355 59.9515 31.6903 58.7072 30.857C58.6645 30.8274 58.629 30.7979 58.5863 30.7742C58.4797 30.7092 58.4797 30.6383 58.5437 30.5437C58.821 30.1241 59.084 29.6985 59.3755 29.2848C61.1744 26.7197 63.1083 24.2315 65.0707 21.7492C65.5826 21.099 66.1016 20.4548 66.6491 19.8224C67.161 19.2255 67.7369 18.6699 68.4408 18.2207C69.1945 17.7479 70.0477 17.4997 70.9649 17.3696C72.0101 17.2219 73.0624 17.21 74.1146 17.1746C74.9821 17.145 75.8424 17.1096 76.7098 17.0741C77.1435 17.0564 77.5772 17.0386 78.0038 17.0327C79.5254 17.015 81.0398 16.9914 82.5614 17.0032C83.3933 17.0032 84.2322 17.0505 85.0641 17.1037C86.0737 17.1687 87.0834 17.2869 88.0646 17.5115C88.9035 17.7065 89.5861 18.0729 90.1549 18.6285C91.2783 19.7219 92.1528 20.9454 92.9065 22.2338C93.3544 22.9903 93.7384 23.7764 94.1507 24.5448C94.1721 24.5861 94.1934 24.6216 94.229 24.6866C96.3193 23.9833 98.3243 23.1263 100.436 22.4761C100.45 22.488 100.464 22.4998 100.479 22.5116L100.5 22.5293Z" fill="#2A6E26"/>
<path d="M88.3061 63.4362C88.2921 65.3088 88.2711 67.1454 88.2571 68.982C88.2431 68.988 88.2291 68.994 88.2151 69C88.166 68.94 88.117 68.886 88.075 68.8259C87.2345 67.6436 86.4011 66.4612 85.5536 65.2788C84.405 63.6822 83.2844 62.0677 82.2408 60.4111C81.7295 59.6009 81.2322 58.7786 80.805 57.9323C80.3497 57.032 80.4338 57.1881 80.861 56.4618C81.4984 55.3695 82.1777 54.2891 82.8641 53.2148C83.6626 51.9723 84.468 50.7359 85.3155 49.5235C86.0789 48.4312 86.8983 47.3628 87.7038 46.2884C87.8649 46.0724 88.082 45.8923 88.2711 45.6942C88.3061 45.6582 88.3621 45.6402 88.4532 45.5862C88.4882 47.5189 88.5302 49.4095 88.5653 51.3241C88.6913 51.3421 88.8174 51.3661 88.9435 51.3661C89.7979 51.3841 90.6524 51.4142 91.4999 51.4021C92.5855 51.3841 93.664 51.2881 94.7076 51.024C95.0088 50.952 95.0088 50.952 94.9948 50.6819C94.9668 50.2138 94.7917 49.7816 94.6026 49.3435C94.1893 48.3771 93.657 47.4588 93.0827 46.5585C92.1162 45.034 91.1287 43.5155 90.1621 41.991C89.4547 40.8746 88.7614 39.7583 88.2361 38.5639C88.138 38.3358 88.068 38.1017 87.9699 37.8736C87.9279 37.7656 87.9629 37.7056 88.068 37.6516C88.5512 37.3995 89.0205 37.1234 89.5178 36.8833C92.0882 35.6469 94.7216 34.5185 97.4531 33.5702C98.0555 33.3601 98.6788 33.2041 99.2951 33.036C99.5473 32.97 99.5543 32.982 99.6734 33.1801C100.626 34.8066 101.578 36.4332 102.531 38.0537C103.75 40.1244 104.961 42.1951 106.18 44.2718C106.495 44.812 106.817 45.3461 107.125 45.8863C107.651 46.8226 107.616 47.7589 107.069 48.6772C106.355 49.8776 105.62 51.066 104.898 52.2604C103.813 54.049 102.72 55.8376 101.641 57.6322C100.899 58.8686 100.101 60.081 99.1621 61.2214C98.7208 61.7556 98.2306 62.2598 97.6212 62.6679C96.9769 63.1 96.2345 63.3041 95.422 63.3581C94.4905 63.4181 93.566 63.3341 92.6415 63.3221C91.773 63.3101 90.9045 63.3221 90.0361 63.3461C89.4687 63.3581 88.9014 63.4001 88.2921 63.4302L88.3061 63.4362Z" fill="#2A6E26"/>
<path d="M62.068 51.697H62.3774C67.6371 51.697 72.8967 51.697 78.1564 51.697C78.5291 51.697 78.508 51.6731 78.4939 51.9838C78.4588 52.8261 78.4095 53.6685 78.3674 54.5048C78.3463 54.8752 78.3322 55.2456 78.3181 55.616C78.283 56.4882 78.2548 57.3605 78.2197 58.2386C78.1916 58.9197 78.1564 59.6007 78.1283 60.2818C78.1002 60.9389 78.072 61.5961 78.0369 62.2532C78.0369 62.3847 78.0087 62.5221 77.9947 62.6774C77.7415 62.6953 77.4884 62.7252 77.2423 62.7371C76.2649 62.779 75.2945 62.8267 74.3171 62.8566C73.3257 62.8925 72.3342 62.9223 71.3427 62.9343C68.8957 62.9642 66.4487 62.994 63.9947 63C63.0595 63 62.1243 62.9462 61.1961 62.7849C59.9164 62.5699 58.9038 61.9963 58.06 61.1719C57.1318 60.2639 56.3794 59.2423 55.6271 58.2327C54.3684 56.542 53.1238 54.8394 51.8511 53.1487C51.394 52.5453 50.8596 51.9778 50.3674 51.3923C49.7697 50.6754 49.2494 49.9227 48.947 49.0804C48.511 47.8616 48.6025 46.6668 49.179 45.4899C49.5728 44.6834 50.0791 43.9187 50.5783 43.1541C51.1268 42.3117 51.7034 41.4813 52.1183 40.5852C52.1745 40.4597 52.2237 40.3343 52.287 40.1909C52.1394 40.1132 51.9987 40.0296 51.8581 39.9579C50.8385 39.4561 49.8049 38.9722 48.7923 38.4584C48.0751 38.094 47.386 37.7057 46.6828 37.3233C46.6336 37.2994 46.5914 37.2576 46.5 37.1919C46.6195 37.18 46.6828 37.174 46.7531 37.174C48.3282 37.1561 49.9103 37.1441 51.4854 37.1322C52.6808 37.1202 53.8762 37.1023 55.0716 37.0903C56.063 37.0784 57.0545 37.0664 58.0459 37.0605C59.2554 37.0485 60.4648 37.0306 61.6743 37.0187C61.829 37.0187 61.9907 37.0067 62.1454 37.0007C62.279 36.9948 62.3774 37.0246 62.4548 37.1202C62.7853 37.5265 63.1298 37.9207 63.4392 38.333C65.0283 40.4299 66.5401 42.5686 68.0027 44.7312C68.5864 45.5915 69.1559 46.4637 69.7255 47.3299C69.9294 47.6406 70.1052 47.9632 70.295 48.2858C70.3302 48.3515 70.3583 48.4232 70.3935 48.4889C70.3794 48.5009 70.3724 48.5068 70.3583 48.5188C70.281 48.4889 70.1966 48.465 70.1192 48.4352C68.2559 47.6824 66.3925 46.9357 64.5221 46.1829C64.3814 46.1272 64.2736 46.155 64.1986 46.2666C63.6501 47.0492 63.0946 47.8318 62.6657 48.6681C62.3352 49.3074 62.0962 49.9705 62.0188 50.6695C61.9837 51.004 61.9626 51.3445 62.0751 51.697H62.068Z" fill="#2A6E26"/>
<path d="M80.4495 26.2373C78.426 22.4919 74.2641 19.8124 69.277 19.0115C68.4949 18.8847 68.1648 19.847 68.947 19.9738C73.6542 20.7286 77.4645 23.2064 79.3732 26.7386C79.6889 27.3263 80.7581 26.8193 80.4423 26.2373H80.4495Z" fill="#111111"/>
<path d="M95.9164 50.871C100.431 51.4821 104.853 49.8933 107.402 46.7044C107.814 46.1878 106.818 45.7045 106.413 46.2211C104.176 49.0155 100.199 50.4822 96.2218 49.9433C95.4981 49.8433 95.1861 50.771 95.9164 50.871Z" fill="#111111"/>
<path d="M62.0619 50.5015C61.3849 54.6375 60.8752 58.8848 63.2867 62.7303C63.6747 63.3423 64.8082 62.8045 64.4203 62.1924C62.1304 58.5448 62.7314 54.415 63.3704 50.5077C63.4845 49.8277 62.1608 49.8339 62.0543 50.5077L62.0619 50.5015Z" fill="#111111"/>
</g>
<defs>
<clipPath id="clip0_133_12828">
<rect width="327" height="201" fill="white"/>
</clipPath>
</defs>
</svg>
