<svg width="327" height="224" viewBox="0 0 327 224" fill="none" xmlns="http://www.w3.org/2000/svg">
<g clip-path="url(#clip0_99_80492)">
<path d="M8.74151 103.458C11.0912 113.03 19.7211 118.839 27.638 123.694C32.7465 126.826 37.793 129.915 42.9573 132.91C46.0261 134.688 49.033 137.303 50.0063 141.078C51.271 145.995 49.1446 150.425 46.4663 154.113C40.3287 162.549 37.328 174.106 41.829 184.483C48.8408 200.638 68.9772 206.154 82.6598 210.896C99.312 216.662 116.429 220.599 133.708 222.658C156.9 225.416 179.349 223.513 202.406 220.811C217.992 218.989 233.59 213.455 245.679 202.522C249.368 199.184 252.97 194.529 252.22 189.394C251.786 186.442 250.968 181.531 249.114 179.341C243.77 173.039 236.51 170.131 229.628 165.956C229.628 165.956 229.628 165.956 229.616 165.944C221.885 159.23 227.025 146.6 236.659 147.599C263.255 150.35 278.816 147.474 289.226 141.409C307.112 130.994 305.89 114.577 299.598 93.5237C293.305 72.4703 278.891 32.148 262.797 18.6574C230.199 -8.66094 210.806 31.1808 170.695 27.8862C153.28 26.4572 121.749 -3.77509 105.276 2.70816C96.8818 6.00907 88.7045 10.9324 83.2984 18.6823C77.8923 26.4323 75.8092 37.427 79.87 46.0256C81.5501 49.5823 84.2779 53.1203 83.5526 57.0577C82.883 60.6831 79.529 62.917 76.3548 64.2586C67.3777 68.0649 57.5575 68.3831 47.9728 69.1569C38.382 69.9306 28.4626 71.3346 20.2976 76.9131C12.1327 82.4915 6.24926 93.349 8.72911 103.445L8.74151 103.458ZM232.586 163.236L232.009 163.292C232.201 163.255 232.393 163.23 232.586 163.236Z" fill="#2A6E26"/>
<path d="M182.926 215.377C175.778 215.377 169.014 214.54 162.964 212.856C147.576 208.575 133.162 208.238 119.225 207.914C104.21 207.564 90.0249 207.233 77.3838 201.63C53.5214 191.053 48.3819 168.833 48.3323 168.608L48.9398 168.471C48.9894 168.69 54.0731 190.61 77.638 201.056C90.1674 206.609 104.29 206.94 119.244 207.29C133.224 207.614 147.675 207.951 163.131 212.257C177.818 216.344 196.752 215.383 215.078 209.611C231.668 204.388 244.607 196.014 248.035 188.283L248.599 188.539C245.047 196.551 232.269 204.85 215.264 210.21C204.365 213.642 193.249 215.383 182.926 215.383V215.377Z" fill="#CCCC62"/>
<path d="M33.8315 65.4754C33.8315 65.4754 13.602 66.5923 10.9734 80.732C8.34475 94.8716 18.4874 103.47 23.8748 103.738C29.2623 104.007 30.3039 106.141 30.3039 106.141L32.3746 110.365L42.1576 108.381L44.1043 104.806L48.7726 99.408L51.4074 97.8605L54.6747 94.4223C54.6747 94.4223 57.2723 88.5069 57.4087 84.6007C57.5451 80.6945 50.6821 70.1054 47.4025 69.3067C44.1229 68.508 34.9722 65.3319 33.8253 65.4692L33.8315 65.4754Z" fill="#E0BB61"/>
<path d="M208.55 129.285C232.709 129.285 252.294 109.572 252.294 85.2558C252.294 60.9394 232.709 41.2271 208.55 41.2271C184.39 41.2271 164.805 60.9394 164.805 85.2558C164.805 109.572 184.39 129.285 208.55 129.285Z" fill="#3461D6"/>
<path d="M272.313 146.563C272.313 146.563 255.394 136.953 259.108 120.642C262.821 104.325 274.706 104.375 281.042 96.1318C287.378 87.8889 288.413 86.6035 288.413 86.6035C288.413 86.6035 303.41 106.665 298.091 123.138C295.841 130.096 288.407 141.864 272.319 146.563H272.313Z" fill="#97C233"/>
<path d="M251.724 221.523C252.716 219.738 239.69 150.544 240.038 146.987C240.385 143.43 254.749 130.083 252.685 116.412C250.62 102.74 252.97 99.9384 250.292 100.668C247.614 101.398 245.568 113.286 243.354 117.185C242.437 118.795 233.652 131.182 233.881 130.246C238.277 112.312 227.756 125.16 227.756 125.16C227.756 125.16 222.927 130.614 222.703 136.91C222.474 143.206 221.91 221.523 221.91 221.523C221.91 221.523 249.461 225.604 251.73 221.523H251.724Z" fill="#D39448"/>
<path d="M164.21 221.529C163.218 219.744 176.243 150.55 175.896 146.993C175.549 143.437 161.185 130.089 163.249 116.418C165.313 102.746 162.964 99.9445 165.642 100.675C168.327 101.405 170.366 113.292 172.579 117.192C173.497 118.801 182.282 131.188 182.053 130.252C177.657 112.318 188.178 125.166 188.178 125.166C188.178 125.166 193.007 130.62 193.23 136.916C193.454 143.212 194.024 221.529 194.024 221.529C194.024 221.529 166.473 225.61 164.204 221.529H164.21Z" fill="#D39448"/>
<path d="M87.6629 142.189C87.6629 142.189 80.6821 142.008 81.3455 150.606C82.0088 159.205 84.7987 164.315 88.8222 171.192C92.852 178.068 94.1849 202.797 93.5154 210.64C92.8458 218.484 93.503 221.523 93.503 221.523C93.503 221.523 125.27 224.849 124.805 221.523C124.34 218.197 111.73 168.877 113.987 161.838C116.243 154.8 117.44 144.691 116.553 143.636C115.667 142.582 113.732 135.949 112.387 135.631C111.042 135.312 107.384 132.729 107.384 132.729L104.805 131.837L100.546 129.759L98.0473 132.667L94.1043 130.408L90.8743 131.444C90.8743 131.444 90.7999 137.671 89.2314 139.93L87.6629 142.189Z" fill="#C95F50"/>
<path d="M29.5909 108.106C29.5909 108.106 27.6752 105.741 25.0651 107.638C22.4551 109.535 22.7155 111.694 22.7155 111.694L21.8971 118.839L21.7917 124.711L22.6907 130.676C22.6907 130.676 24.0856 136.36 22.7093 140.566C21.333 144.772 16.4724 168.078 15.3503 178.511C14.2282 188.944 11.2585 222.54 11.2585 222.54C11.2585 222.54 24.7552 222.303 32.4551 222.633C40.9114 223.002 51.457 221.523 51.457 221.523C51.457 221.523 45.9579 192.888 49.8389 147.904C50.2605 143.05 55.1582 139.399 56.7081 134.632C58.258 129.865 59.0826 126.539 58.0968 123.656C57.1111 120.773 54.9412 117.734 54.9412 117.734L49.8823 116.53L51.8848 114.565C51.8848 114.565 55.9393 110.552 56.9375 107.077C57.9356 103.601 57.4025 101.08 57.4025 101.08L56.7081 98.4219L52.6101 100.1L47.0181 101.679L45.5736 110.615C45.5736 110.615 46.7019 116.349 44.098 117.741C41.4942 119.132 36.0881 116.58 36.0881 116.58C36.0881 116.58 30.4464 108.399 29.5785 108.112L29.5909 108.106Z" fill="#C95F50"/>
<path d="M33.6022 42.1506C33.6518 44.1474 33.7819 46.1441 33.7199 48.1346C33.627 51.2172 33.3976 54.2872 33.2426 57.3697C33.2054 58.0561 33.3108 58.755 33.2364 59.4351C33.1992 59.797 32.914 60.1277 32.7404 60.4709C32.2568 60.2151 31.4075 60.446 31.4261 59.51C31.4509 58.2433 31.4633 56.9828 31.5377 55.7224C31.7857 51.6789 32.0398 47.6355 32.3684 43.5982C32.4118 43.0866 32.9264 42.6123 33.2302 42.1194C33.3542 42.1319 33.4782 42.1381 33.6084 42.1506H33.6022Z" fill="#111111"/>
<path d="M20.0622 54.9735C17.4646 55.3479 17.6196 53.5383 17.3468 52.178C16.671 48.7898 16.0387 45.3953 15.4125 42.0008C15.1583 40.6405 14.9103 39.2739 14.7615 37.8949C14.7182 37.4893 15.0405 37.0463 15.1955 36.6157C15.6357 36.8778 16.3177 37.04 16.4665 37.4144C16.9624 38.6499 17.353 39.9541 17.6196 41.2582C18.4379 45.2268 19.1881 49.2078 19.9444 53.1889C20.056 53.7692 20.025 54.3682 20.056 54.9735H20.0622Z" fill="#111111"/>
<path d="M0.669709 49.9379C2.09563 51.242 3.68273 52.4026 4.92266 53.869C7.60091 57.0514 10.1056 60.3835 12.6784 63.6594C13.4968 64.7077 13.2116 65.1133 11.1905 65.6936C7.7125 60.4896 3.21776 55.9781 0.00634766 50.5307C0.229535 50.331 0.452722 50.1313 0.675909 49.9316L0.669709 49.9379Z" fill="#111111"/>
<path d="M41.0852 55.897C41.8354 53.3386 42.3747 50.6742 44.1974 48.5464L44.5694 48.615C44.3772 49.7819 44.2408 50.9612 43.9866 52.1156C43.7449 53.2138 43.3977 54.2871 43.0567 55.3604C42.6723 56.5771 42.2941 56.6832 41.0852 55.897Z" fill="#111111"/>
<path d="M143.646 7.0512C143.646 7.0512 169.628 24.6165 172.989 19.3688C176.355 14.1273 149.839 -0.798595 141.804 0.0313125C133.77 0.86122 143.646 7.0512 143.646 7.0512Z" fill="#2A6E26"/>
<path d="M66.5532 50.7304C65.6976 50.6368 53.8625 54.5117 56.64 61.1323C59.4174 67.7528 76.9066 58.8297 78.5185 53.8378C80.1304 48.8459 66.5532 50.7304 66.5532 50.7304Z" fill="#2A6E26"/>
<path d="M306.554 66.5236C306.566 65.831 302.623 56.6209 297.583 59.3415C292.542 62.0621 300.906 75.4342 304.979 76.3577C309.052 77.2812 306.554 66.5299 306.554 66.5299V66.5236Z" fill="#2A6E26"/>
<path d="M29.6838 105.498C30.031 106.49 32.0955 122.826 33.4408 123.057C34.7861 123.288 47.8612 121.035 49.2871 119.045C50.713 117.054 47.7558 103.221 47.7558 103.221C47.7558 103.221 60.2914 97.9853 59.7459 82.9471C59.2003 67.909 42.1451 63.123 30.2108 65.2882C18.2765 67.4534 7.5015 74.8977 10.5517 90.0107C13.6019 105.124 29.6838 105.486 29.6838 105.486V105.498Z" fill="#FDC629"/>
<path d="M50.7441 115.288C49.932 115.513 44.1725 118.034 43.5587 123.868C42.945 129.703 51.5563 129.54 55.4249 125.023C59.2934 120.505 57.9729 116.611 55.9084 115.282C55.9084 115.282 54.2221 114.309 50.7441 115.282V115.288Z" fill="#CC5440"/>
<path d="M48.3635 134.326C48.3635 134.326 48.0287 137.902 52.7528 138.052C57.4769 138.201 58.9029 136.092 59.2376 134.052C59.5724 132.011 58.0845 129.771 57.4087 129.291C56.733 128.81 53.2922 132.255 50.149 131.556C47.0058 130.857 48.3573 134.326 48.3573 134.326H48.3635Z" fill="#CC5440"/>
<path d="M53.6827 97.436C53.1992 97.3986 45.6976 101.885 44.8296 107.058C43.9617 112.231 45.803 115.026 49.2252 114.034C52.6412 113.042 56.7392 109.966 57.9047 105.361C59.0702 100.756 57.5327 97.7605 53.6827 97.436Z" fill="#CC5440"/>
<path d="M47.4148 129.428C47.4148 129.428 45.9888 133.709 50.744 132.897C55.4991 132.086 58.9709 130.27 59.5785 127.132C60.186 123.993 58.0905 122.052 56.5344 121.834C54.9783 121.616 47.3466 127.051 47.4148 129.434V129.428Z" fill="#CC5440"/>
<path opacity="0.28" d="M57.4087 117.042C57.4087 117.042 57.5203 126.052 45.6294 127.406C45.6294 127.406 50.8495 129.927 55.431 125.434C55.431 125.434 59.095 121.198 57.4087 117.042Z" fill="#AA2E1D"/>
<path d="M44.2717 109.61C44.1725 109.198 43.7571 108.943 43.3479 109.042L33.8005 111.382C33.3913 111.482 33.1371 111.9 33.2363 112.312C33.3231 112.668 33.6331 112.899 33.9803 112.899C34.0423 112.899 34.1043 112.892 34.1601 112.874L43.7075 110.534C44.1167 110.434 44.3709 110.016 44.2717 109.604V109.61Z" fill="#D39448"/>
<path d="M45.1458 114.352C45.09 113.928 44.6994 113.635 44.2778 113.691L34.5444 115.045C34.1228 115.101 33.8314 115.494 33.8872 115.919C33.9368 116.281 34.222 116.549 34.5692 116.58C34.6312 116.58 34.6932 116.58 34.7552 116.58L44.4886 115.226C44.9102 115.17 45.2016 114.777 45.1458 114.352Z" fill="#D39448"/>
<path d="M35.4496 105.28C35.4496 105.28 32.8582 83.4213 29.8328 81.3371C26.8073 79.253 24.1477 80.6195 25.1644 84.064C26.1812 87.5084 34.6561 91.1275 40.6635 87.9951C46.671 84.8627 44.9413 80.7943 43.1806 79.7272C41.4199 78.6602 37.5761 78.9972 37.1979 84.0577C36.8198 89.1183 42.3746 107.389 42.3746 107.389" stroke="#2A6E26" stroke-width="4" stroke-miterlimit="10" stroke-linecap="round"/>
<path d="M100.868 129.341C100.868 129.341 96.9561 128.099 96.1563 134.638C95.3566 141.178 97.6814 145.646 100.043 145.546C102.406 145.446 104.489 141.415 104.489 136.267C104.489 131.119 102.455 129.827 100.868 129.341Z" fill="#CC5440"/>
<path d="M109.188 130.632C108.729 130.526 104.03 130.027 103.875 139.187C103.72 148.347 109.207 145.876 111.426 140.354C113.646 134.832 110.44 130.932 109.188 130.632Z" fill="#CC5440"/>
<path d="M107.849 146.082C107.849 146.082 110.174 150.812 112.641 149.883C115.109 148.953 117.651 140.959 117.496 138.944C117.341 136.928 113.181 137.097 113.181 137.097C113.181 137.097 107.372 144.298 107.849 146.082Z" fill="#CC5440"/>
<path opacity="0.28" d="M48.103 133.265C48.103 133.265 51.6244 134.164 54.7552 133.503C57.8861 132.841 58.8532 131.412 58.8532 131.412L58.0968 129.821C58.0968 129.821 54.5135 133.646 48.103 132.997" fill="#AA2E1D"/>
<path d="M87.3839 142.195C87.3839 142.195 94.7367 142.463 98.6982 145.209C102.66 147.954 98.7726 153.689 93.038 151.661C93.038 151.661 98.8346 151.873 98.971 148.304C99.1074 144.734 87.3777 142.195 87.3777 142.195H87.3839Z" fill="#CC5440"/>
<path d="M93.0627 105.161L75.4309 116.58L80.9486 118.658C80.9486 118.658 62.7899 148.404 75.7843 150.662C80.5642 151.492 81.3826 151.96 81.3826 151.96C81.3826 151.96 80.5208 145.951 83.819 143.93C87.1172 141.908 87.5326 139.587 86.9809 138.601C86.4291 137.615 90.4526 127.132 90.4526 127.132L93.4905 121.84L98.6548 122.851L93.0565 105.167L93.0627 105.161Z" fill="#97C233"/>
<path d="M86.9686 137.939C87.1112 137.883 103.739 145.527 105.072 145.552C106.404 145.577 103.057 154.431 103.057 154.431L95.9952 152.354C95.9952 152.354 99.8514 151.012 99.8514 148.079C99.8514 145.146 96.0262 143.923 94.8731 143.499C93.72 143.075 85.6418 142.526 85.6418 142.526L86.9624 137.933L86.9686 137.939Z" fill="#308E40"/>
<path d="M93.5092 126.683C93.5092 126.683 89.0826 126.233 88.3139 131.799C87.5451 137.365 88.2829 143.505 92.2568 141.952C96.2308 140.398 96.4354 135.075 96.5036 131.799C96.5718 128.523 94.6995 127.132 93.503 126.683H93.5092Z" fill="#CC5440"/>
<path d="M95.5179 99.9506C95.4435 99.7385 109.467 78.2982 111.885 77.0502C114.303 75.8022 116.683 75.7211 119.157 78.0798C121.631 80.4385 132.511 96.6123 132.511 96.6123L142.35 92.781C142.35 92.781 139.232 115.332 139.182 115.132C139.132 114.933 118.643 106.871 118.643 106.871L123.801 102.44C123.801 102.44 118.853 93.2802 117.173 91.7888C115.493 90.2975 108.122 107.27 108.122 107.27C108.122 107.27 96.5471 102.94 95.5117 99.9506H95.5179Z" fill="#97C233"/>
<path d="M148.81 118.652C149.027 118.702 159.852 141.939 159.635 144.672C159.418 147.405 158.246 149.483 154.96 150.369C151.674 151.255 132.282 152.129 132.282 152.129L130.379 162.574C130.379 162.574 112.914 148.104 113.106 148.166C113.298 148.229 130.843 134.869 130.843 134.869L131.897 141.608C131.897 141.608 142.238 142.157 144.383 141.496C146.529 140.835 136.008 125.634 136.008 125.634C136.008 125.634 145.729 117.972 148.798 118.645L148.81 118.652Z" fill="#97C233"/>
<path d="M203.683 125.185C203.125 125.098 214.055 109.935 211.364 106.521C208.674 103.108 206.002 100.275 206.355 96.132C206.708 91.9887 205.109 82.6538 207.068 83.3714C209.027 84.089 211.488 97.561 214.911 95.664C218.333 93.7671 222.753 88.4257 223.826 92.0886C224.898 95.7514 222.04 100.238 225.965 101.673C229.889 103.108 237.223 102.534 236.349 107.058C235.475 111.582 237.037 115.75 235.599 116.518C234.16 117.285 216.337 127.157 203.677 125.185H203.683Z" fill="white"/>
<path d="M236.429 56.8142C236.429 56.8142 230.961 60.9388 233.819 64.8013C236.677 68.6638 237.204 69.3751 240.596 69.2004C243.987 69.0257 246.603 68.1147 246.603 68.1147C246.603 68.1147 241.897 58.9732 236.429 56.8204V56.8142Z" fill="white"/>
<path d="M204.935 43.7292C204.935 43.7292 211.209 52.0469 209.393 54.5928C207.576 57.1387 201.191 55.0234 197.985 58.0747C194.78 61.126 195.134 68.8884 192.462 69.2254C189.79 69.5624 183.199 72.9693 182.034 77.2749C180.868 81.5804 179.982 90.7343 178.909 88.9373C177.837 87.1402 176.436 77.4558 174.817 73.8617C173.199 70.2675 172.313 69.2192 172.313 69.2192C172.313 69.2192 178.314 45.6573 204.197 43.3423" fill="white"/>
<path d="M288.097 86.9966C288.277 94.9899 289.046 114.265 282.518 126.558C277.081 136.804 273.051 142.607 271.098 145.789C271.848 146.301 272.313 146.563 272.313 146.563C288.401 141.864 295.834 130.096 298.085 123.138C303.41 106.665 288.413 86.6035 288.413 86.6035C288.413 86.6035 288.339 86.6971 288.097 86.9966Z" fill="#7DA02A"/>
<path d="M326.944 220.499C324.836 215.27 315.022 191.621 308.172 187.203C302.04 183.247 296.566 177.076 294.582 174.717C294.204 174.268 294.421 173.582 294.985 173.432L306.901 170.262C307.304 170.156 313.274 168.122 313.33 166.075C313.386 164.028 298.971 166.312 299.226 166.131C299.226 166.131 311.674 162.78 313.069 161.039C315.4 158.138 299.226 160.453 299.226 160.453C298.575 160.284 298.42 159.423 298.971 159.03L311.209 153.714C316.058 151.268 315.345 148.647 311.104 149.09C306.864 149.533 298.711 151.948 298.711 151.948C298.674 151.967 298.63 151.979 298.587 151.992L293.014 153.57L290.887 154.269C290.41 154.425 289.908 154.101 289.852 153.595L289.306 148.21C289.306 148.21 289.3 148.166 289.288 148.098C289.108 147.118 287.744 140.123 284.675 138.208C281.377 136.148 276.194 137.091 275.115 138.594C274.036 140.098 272.964 143.555 276.646 145.483C280.317 147.405 282.84 148.822 282.48 152.098C282.263 153.183 281.805 154.144 281.147 154.587C279.938 155.405 276.628 155.929 273.739 154.45C273.689 154.419 273.627 154.388 273.565 154.356C273.553 154.356 273.54 154.344 273.534 154.338C271.284 153.283 274.892 146.438 272.989 145.359C271.079 144.273 270.757 145.359 270.757 145.359C269.201 147.081 262.127 155.473 263.844 163.654C265.772 172.827 279.114 190.473 285.407 197.93C291.061 204.625 297.229 219.782 298.432 222.814C298.556 223.133 298.872 223.332 299.213 223.314L326.244 221.604C326.783 221.573 327.13 221.017 326.926 220.512L326.944 220.499Z" fill="#F7A9A0"/>
<path d="M32.6721 132.997C32.6721 132.997 41.7484 135.968 41.2214 143.767" stroke="#15183F" stroke-width="2" stroke-miterlimit="10"/>
<path d="M92.2754 155.211C92.2754 155.211 99.3306 155.823 101.265 159.923" stroke="#15183F" stroke-width="2" stroke-miterlimit="10"/>
<path d="M59.3492 80.0766L59.2314 78.8348C59.4856 78.8099 84.805 76.2266 90.273 64.533C92.3065 60.19 91.1224 53.426 89.8701 46.2688C87.6878 33.789 85.2141 19.6494 98.376 12.5796C109.511 6.60175 120.887 13.7277 132.939 21.2718C143.677 27.9921 154.78 34.9496 167.273 34.3443C181.73 33.6517 193.323 28.6473 204.539 23.8114C214.117 19.6743 223.169 15.7744 232.964 15.1629C255.103 13.7901 266.231 19.119 277.087 36.2787L276.039 36.9464C265.481 20.2484 254.632 15.0631 233.045 16.4046C223.466 16.9974 214.514 20.8662 205.035 24.9533C193.72 29.8329 182.022 34.8872 167.341 35.5861C154.458 36.2038 143.187 29.1465 132.294 22.3263C120.558 14.9757 109.473 8.03692 98.9711 13.6778C86.6029 20.3233 88.9959 33.9887 91.1038 46.0504C92.3933 53.4072 93.6085 60.3647 91.4076 65.0634C85.6419 77.3934 60.4342 79.9705 59.3616 80.0766H59.3492Z" fill="white"/>
<path d="M65.9331 87.1278C62.9759 87.1278 61.0664 86.9219 61.0044 86.9157L61.0726 86.2979C61.2648 86.3167 80.3783 88.3883 91.7112 79.1408C96.5221 75.2159 99.2934 69.7809 99.9381 62.9919C101.507 46.4312 104.005 34.4007 111.079 29.5523C115.468 26.5446 121.37 26.2638 129.672 28.6662C135.233 30.2761 139.659 32.1169 143.571 33.7392C155.326 38.6251 163.813 42.1569 190.955 36.3101C192.009 36.0854 193.181 35.8234 194.458 35.5426C215.543 30.8751 264.929 19.9428 279.356 44.3159L278.823 44.6341C264.625 20.6417 215.549 31.5116 194.594 36.1478C193.317 36.4286 192.139 36.6907 191.085 36.9154C163.763 42.7996 154.749 39.0556 143.336 34.3133C139.442 32.6972 135.028 30.8626 129.504 29.259C121.395 26.9128 115.654 27.1686 111.432 30.0577C104.557 34.7688 102.108 46.6496 100.558 63.0418C99.9009 70.0055 97.0553 75.5778 92.108 79.615C84.1601 86.0983 72.4923 87.1216 65.9393 87.1216L65.9331 87.1278Z" fill="#CCCC62"/>
</g>
<defs>
<clipPath id="clip0_99_80492">
<rect width="327" height="224" fill="white"/>
</clipPath>
</defs>
</svg>
